G04 #@! TF.GenerationSoftware,KiCad,Pcbnew,(6.0.6)*
G04 #@! TF.CreationDate,2022-07-01T01:06:20-04:00*
G04 #@! TF.ProjectId,C,432e6b69-6361-4645-9f70-636258585858,rev?*
G04 #@! TF.SameCoordinates,Original*
G04 #@! TF.FileFunction,Copper,L2,Bot*
G04 #@! TF.FilePolarity,Positive*
%FSLAX46Y46*%
G04 Gerber Fmt 4.6, Leading zero omitted, Abs format (unit mm)*
G04 Created by KiCad (PCBNEW (6.0.6)) date 2022-07-01 01:06:20*
%MOMM*%
%LPD*%
G01*
G04 APERTURE LIST*
G04 #@! TA.AperFunction,EtchedComponent*
%ADD10C,0.010000*%
G04 #@! TD*
G04 #@! TA.AperFunction,ComponentPad*
%ADD11R,1.700000X1.700000*%
G04 #@! TD*
G04 #@! TA.AperFunction,ComponentPad*
%ADD12O,1.700000X1.700000*%
G04 #@! TD*
G04 #@! TA.AperFunction,ComponentPad*
%ADD13R,1.800000X1.800000*%
G04 #@! TD*
G04 #@! TA.AperFunction,ComponentPad*
%ADD14C,1.800000*%
G04 #@! TD*
G04 #@! TA.AperFunction,ComponentPad*
%ADD15C,1.600000*%
G04 #@! TD*
G04 #@! TA.AperFunction,ComponentPad*
%ADD16O,1.600000X1.600000*%
G04 #@! TD*
G04 #@! TA.AperFunction,ComponentPad*
%ADD17R,1.600000X1.600000*%
G04 #@! TD*
G04 #@! TA.AperFunction,ComponentPad*
%ADD18R,1.500000X1.500000*%
G04 #@! TD*
G04 #@! TA.AperFunction,ComponentPad*
%ADD19C,1.500000*%
G04 #@! TD*
G04 #@! TA.AperFunction,SMDPad,CuDef*
%ADD20R,1.000000X1.500000*%
G04 #@! TD*
G04 #@! TA.AperFunction,Conductor*
%ADD21C,0.381000*%
G04 #@! TD*
G04 APERTURE END LIST*
G36*
X145650000Y-84120000D02*
G01*
X145150000Y-84120000D01*
X145150000Y-83520000D01*
X145650000Y-83520000D01*
X145650000Y-84120000D01*
G37*
G36*
X172350000Y-84120000D02*
G01*
X171850000Y-84120000D01*
X171850000Y-83520000D01*
X172350000Y-83520000D01*
X172350000Y-84120000D01*
G37*
G36*
X145317275Y-91956931D02*
G01*
X145401095Y-92401555D01*
X146019667Y-92656551D01*
X146390707Y-92404246D01*
X146464144Y-92354506D01*
X146561499Y-92289218D01*
X146645787Y-92233454D01*
X146712631Y-92190078D01*
X146757654Y-92161953D01*
X146776478Y-92151942D01*
X146788039Y-92159061D01*
X146822596Y-92188894D01*
X146874894Y-92237852D01*
X146940500Y-92301440D01*
X147014983Y-92375163D01*
X147093913Y-92454525D01*
X147172856Y-92535031D01*
X147247384Y-92612185D01*
X147313063Y-92681493D01*
X147365463Y-92738457D01*
X147400153Y-92778584D01*
X147412701Y-92797377D01*
X147409782Y-92805451D01*
X147389571Y-92841469D01*
X147352663Y-92900744D01*
X147302050Y-92978630D01*
X147240725Y-93070481D01*
X147171679Y-93171650D01*
X147133787Y-93226826D01*
X147068606Y-93322884D01*
X147012723Y-93406717D01*
X146969117Y-93473777D01*
X146940769Y-93519519D01*
X146930657Y-93539396D01*
X146930823Y-93540497D01*
X146939743Y-93565694D01*
X146960206Y-93617147D01*
X146989360Y-93688135D01*
X147024353Y-93771935D01*
X147062332Y-93861828D01*
X147100445Y-93951091D01*
X147135839Y-94033003D01*
X147165662Y-94100843D01*
X147187061Y-94147890D01*
X147197184Y-94167422D01*
X147203174Y-94169155D01*
X147239566Y-94176969D01*
X147304427Y-94189915D01*
X147392565Y-94206979D01*
X147498787Y-94227151D01*
X147617902Y-94249418D01*
X147680683Y-94261223D01*
X147795912Y-94283748D01*
X147896662Y-94304550D01*
X147977426Y-94322435D01*
X148032698Y-94336208D01*
X148056971Y-94344674D01*
X148061331Y-94353066D01*
X148068563Y-94394072D01*
X148074246Y-94462368D01*
X148078382Y-94551529D01*
X148080977Y-94655128D01*
X148082036Y-94766740D01*
X148081561Y-94879938D01*
X148079559Y-94988296D01*
X148076033Y-95085389D01*
X148070987Y-95164790D01*
X148064427Y-95220072D01*
X148056356Y-95244810D01*
X148051458Y-95247600D01*
X148014930Y-95259569D01*
X147951565Y-95275405D01*
X147868686Y-95293374D01*
X147773618Y-95311741D01*
X147741542Y-95317591D01*
X147593393Y-95344798D01*
X147476961Y-95366663D01*
X147388209Y-95384093D01*
X147323103Y-95397996D01*
X147277606Y-95409277D01*
X147247682Y-95418843D01*
X147229294Y-95427601D01*
X147218407Y-95436457D01*
X147217142Y-95437943D01*
X147199338Y-95468931D01*
X147172994Y-95525634D01*
X147140661Y-95601399D01*
X147104893Y-95689574D01*
X147068244Y-95783507D01*
X147033266Y-95876547D01*
X147002513Y-95962041D01*
X146978538Y-96033336D01*
X146963895Y-96083782D01*
X146961136Y-96106726D01*
X146962981Y-96109703D01*
X146982075Y-96138493D01*
X147017984Y-96191595D01*
X147067378Y-96264117D01*
X147126927Y-96351167D01*
X147193303Y-96447854D01*
X147211520Y-96474456D01*
X147275577Y-96569875D01*
X147330937Y-96655212D01*
X147374439Y-96725405D01*
X147402924Y-96775394D01*
X147413232Y-96800116D01*
X147411011Y-96806616D01*
X147387858Y-96838644D01*
X147342177Y-96890945D01*
X147277241Y-96959999D01*
X147196319Y-97042286D01*
X147102685Y-97134286D01*
X147049165Y-97185781D01*
X146964542Y-97265983D01*
X146890475Y-97334678D01*
X146830941Y-97388252D01*
X146789917Y-97423085D01*
X146771381Y-97435563D01*
X146758646Y-97430938D01*
X146719436Y-97409057D01*
X146662495Y-97373273D01*
X146595250Y-97328117D01*
X146547438Y-97295165D01*
X146451985Y-97229727D01*
X146350125Y-97160228D01*
X146257088Y-97097075D01*
X146074832Y-96973800D01*
X145921841Y-97056520D01*
X145885817Y-97075613D01*
X145820303Y-97108272D01*
X145769640Y-97130819D01*
X145742564Y-97139226D01*
X145733703Y-97128430D01*
X145711699Y-97087323D01*
X145679199Y-97019549D01*
X145638010Y-96929409D01*
X145589942Y-96821205D01*
X145536802Y-96699237D01*
X145480399Y-96567808D01*
X145422542Y-96431218D01*
X145365038Y-96293767D01*
X145309697Y-96159758D01*
X145258326Y-96033491D01*
X145212735Y-95919268D01*
X145174732Y-95821390D01*
X145146124Y-95744157D01*
X145128721Y-95691871D01*
X145124331Y-95668833D01*
X145124628Y-95668160D01*
X145145077Y-95646863D01*
X145187850Y-95613508D01*
X145244117Y-95575011D01*
X145261877Y-95563256D01*
X145397014Y-95451735D01*
X145508856Y-95318906D01*
X145594755Y-95170298D01*
X145652062Y-95011440D01*
X145678131Y-94847860D01*
X145670313Y-94685088D01*
X145638644Y-94540315D01*
X145581782Y-94394124D01*
X145498888Y-94263703D01*
X145385131Y-94139813D01*
X145340433Y-94100235D01*
X145195935Y-94002723D01*
X145039838Y-93937050D01*
X144876667Y-93902630D01*
X144710943Y-93898874D01*
X144547192Y-93925194D01*
X144389936Y-93981003D01*
X144243698Y-94065714D01*
X144113004Y-94178737D01*
X144002374Y-94319487D01*
X143981105Y-94354342D01*
X143908810Y-94513655D01*
X143870415Y-94679552D01*
X143864914Y-94847737D01*
X143891301Y-95013913D01*
X143948570Y-95173784D01*
X144035717Y-95323053D01*
X144151736Y-95457423D01*
X144295622Y-95572599D01*
X144300294Y-95575702D01*
X144355964Y-95614933D01*
X144397689Y-95648286D01*
X144416746Y-95668833D01*
X144414342Y-95684941D01*
X144399391Y-95731844D01*
X144372881Y-95804539D01*
X144336620Y-95898725D01*
X144292416Y-96010098D01*
X144242076Y-96134358D01*
X144187407Y-96267202D01*
X144130218Y-96404327D01*
X144072316Y-96541432D01*
X144015510Y-96674215D01*
X143961606Y-96798374D01*
X143912412Y-96909606D01*
X143869737Y-97003609D01*
X143835387Y-97076082D01*
X143811171Y-97122722D01*
X143798897Y-97139226D01*
X143788689Y-97136991D01*
X143748586Y-97120926D01*
X143689318Y-97092759D01*
X143619619Y-97056520D01*
X143466629Y-96973800D01*
X143284373Y-97097075D01*
X143230527Y-97133579D01*
X143130374Y-97201784D01*
X143030525Y-97270098D01*
X142946211Y-97328117D01*
X142899679Y-97359736D01*
X142839200Y-97399020D01*
X142794357Y-97425912D01*
X142772455Y-97435883D01*
X142763045Y-97431650D01*
X142729031Y-97405721D01*
X142676595Y-97360070D01*
X142610301Y-97299186D01*
X142534713Y-97227561D01*
X142454396Y-97149683D01*
X142373913Y-97070045D01*
X142297829Y-96993135D01*
X142230707Y-96923445D01*
X142177112Y-96865464D01*
X142141608Y-96823684D01*
X142128759Y-96802593D01*
X142129500Y-96798581D01*
X142144793Y-96765920D01*
X142177462Y-96709412D01*
X142224350Y-96634163D01*
X142282301Y-96545275D01*
X142348157Y-96447854D01*
X142366627Y-96420982D01*
X142431482Y-96326423D01*
X142488609Y-96242827D01*
X142534678Y-96175084D01*
X142566359Y-96128086D01*
X142580324Y-96106726D01*
X142580668Y-96105811D01*
X142576546Y-96079678D01*
X142560807Y-96026740D01*
X142536004Y-95953647D01*
X142504689Y-95867052D01*
X142469417Y-95773608D01*
X142432740Y-95679965D01*
X142397212Y-95592777D01*
X142365386Y-95518695D01*
X142339816Y-95464371D01*
X142323053Y-95436457D01*
X142321374Y-95434724D01*
X142309372Y-95425956D01*
X142289103Y-95417115D01*
X142256529Y-95407292D01*
X142207616Y-95395583D01*
X142138327Y-95381080D01*
X142044625Y-95362876D01*
X141922476Y-95340066D01*
X141767842Y-95311741D01*
X141735770Y-95305780D01*
X141643893Y-95287352D01*
X141566607Y-95269892D01*
X141511236Y-95255133D01*
X141485105Y-95244810D01*
X141480733Y-95236197D01*
X141473445Y-95194826D01*
X141467669Y-95126241D01*
X141463410Y-95036868D01*
X141460673Y-94933135D01*
X141459462Y-94821465D01*
X141459782Y-94708287D01*
X141461636Y-94600026D01*
X141465030Y-94503108D01*
X141469967Y-94423959D01*
X141476452Y-94369006D01*
X141484489Y-94344674D01*
X141492696Y-94341079D01*
X141533519Y-94329748D01*
X141602524Y-94313722D01*
X141694203Y-94294195D01*
X141803050Y-94272362D01*
X141923558Y-94249418D01*
X141989357Y-94237159D01*
X142102135Y-94215901D01*
X142199207Y-94197287D01*
X142275382Y-94182328D01*
X142325469Y-94172036D01*
X142344276Y-94167422D01*
X142344983Y-94166471D01*
X142356961Y-94142310D01*
X142379794Y-94091694D01*
X142410630Y-94021338D01*
X142446613Y-93937958D01*
X142484891Y-93848270D01*
X142522609Y-93758989D01*
X142556913Y-93676832D01*
X142584949Y-93608513D01*
X142603864Y-93560748D01*
X142610803Y-93540254D01*
X142607742Y-93533043D01*
X142587372Y-93498728D01*
X142550422Y-93440970D01*
X142499860Y-93364299D01*
X142438657Y-93273248D01*
X142369781Y-93172350D01*
X142331994Y-93117093D01*
X142266782Y-93020215D01*
X142210871Y-92935193D01*
X142167241Y-92866662D01*
X142138877Y-92819260D01*
X142128759Y-92797623D01*
X142135790Y-92785887D01*
X142165197Y-92750818D01*
X142213441Y-92697745D01*
X142276093Y-92631164D01*
X142348725Y-92555574D01*
X142426908Y-92475472D01*
X142506214Y-92395354D01*
X142582213Y-92319718D01*
X142650478Y-92253062D01*
X142706580Y-92199882D01*
X142746090Y-92164676D01*
X142764579Y-92151942D01*
X142774843Y-92156893D01*
X142812530Y-92179857D01*
X142873348Y-92218938D01*
X142952913Y-92271272D01*
X143046843Y-92333996D01*
X143150754Y-92404246D01*
X143521794Y-92656551D01*
X143831080Y-92529053D01*
X144140365Y-92401555D01*
X144224186Y-91956931D01*
X144308006Y-91512307D01*
X145233454Y-91512307D01*
X145317275Y-91956931D01*
G37*
D10*
X145317275Y-91956931D02*
X145401095Y-92401555D01*
X146019667Y-92656551D01*
X146390707Y-92404246D01*
X146464144Y-92354506D01*
X146561499Y-92289218D01*
X146645787Y-92233454D01*
X146712631Y-92190078D01*
X146757654Y-92161953D01*
X146776478Y-92151942D01*
X146788039Y-92159061D01*
X146822596Y-92188894D01*
X146874894Y-92237852D01*
X146940500Y-92301440D01*
X147014983Y-92375163D01*
X147093913Y-92454525D01*
X147172856Y-92535031D01*
X147247384Y-92612185D01*
X147313063Y-92681493D01*
X147365463Y-92738457D01*
X147400153Y-92778584D01*
X147412701Y-92797377D01*
X147409782Y-92805451D01*
X147389571Y-92841469D01*
X147352663Y-92900744D01*
X147302050Y-92978630D01*
X147240725Y-93070481D01*
X147171679Y-93171650D01*
X147133787Y-93226826D01*
X147068606Y-93322884D01*
X147012723Y-93406717D01*
X146969117Y-93473777D01*
X146940769Y-93519519D01*
X146930657Y-93539396D01*
X146930823Y-93540497D01*
X146939743Y-93565694D01*
X146960206Y-93617147D01*
X146989360Y-93688135D01*
X147024353Y-93771935D01*
X147062332Y-93861828D01*
X147100445Y-93951091D01*
X147135839Y-94033003D01*
X147165662Y-94100843D01*
X147187061Y-94147890D01*
X147197184Y-94167422D01*
X147203174Y-94169155D01*
X147239566Y-94176969D01*
X147304427Y-94189915D01*
X147392565Y-94206979D01*
X147498787Y-94227151D01*
X147617902Y-94249418D01*
X147680683Y-94261223D01*
X147795912Y-94283748D01*
X147896662Y-94304550D01*
X147977426Y-94322435D01*
X148032698Y-94336208D01*
X148056971Y-94344674D01*
X148061331Y-94353066D01*
X148068563Y-94394072D01*
X148074246Y-94462368D01*
X148078382Y-94551529D01*
X148080977Y-94655128D01*
X148082036Y-94766740D01*
X148081561Y-94879938D01*
X148079559Y-94988296D01*
X148076033Y-95085389D01*
X148070987Y-95164790D01*
X148064427Y-95220072D01*
X148056356Y-95244810D01*
X148051458Y-95247600D01*
X148014930Y-95259569D01*
X147951565Y-95275405D01*
X147868686Y-95293374D01*
X147773618Y-95311741D01*
X147741542Y-95317591D01*
X147593393Y-95344798D01*
X147476961Y-95366663D01*
X147388209Y-95384093D01*
X147323103Y-95397996D01*
X147277606Y-95409277D01*
X147247682Y-95418843D01*
X147229294Y-95427601D01*
X147218407Y-95436457D01*
X147217142Y-95437943D01*
X147199338Y-95468931D01*
X147172994Y-95525634D01*
X147140661Y-95601399D01*
X147104893Y-95689574D01*
X147068244Y-95783507D01*
X147033266Y-95876547D01*
X147002513Y-95962041D01*
X146978538Y-96033336D01*
X146963895Y-96083782D01*
X146961136Y-96106726D01*
X146962981Y-96109703D01*
X146982075Y-96138493D01*
X147017984Y-96191595D01*
X147067378Y-96264117D01*
X147126927Y-96351167D01*
X147193303Y-96447854D01*
X147211520Y-96474456D01*
X147275577Y-96569875D01*
X147330937Y-96655212D01*
X147374439Y-96725405D01*
X147402924Y-96775394D01*
X147413232Y-96800116D01*
X147411011Y-96806616D01*
X147387858Y-96838644D01*
X147342177Y-96890945D01*
X147277241Y-96959999D01*
X147196319Y-97042286D01*
X147102685Y-97134286D01*
X147049165Y-97185781D01*
X146964542Y-97265983D01*
X146890475Y-97334678D01*
X146830941Y-97388252D01*
X146789917Y-97423085D01*
X146771381Y-97435563D01*
X146758646Y-97430938D01*
X146719436Y-97409057D01*
X146662495Y-97373273D01*
X146595250Y-97328117D01*
X146547438Y-97295165D01*
X146451985Y-97229727D01*
X146350125Y-97160228D01*
X146257088Y-97097075D01*
X146074832Y-96973800D01*
X145921841Y-97056520D01*
X145885817Y-97075613D01*
X145820303Y-97108272D01*
X145769640Y-97130819D01*
X145742564Y-97139226D01*
X145733703Y-97128430D01*
X145711699Y-97087323D01*
X145679199Y-97019549D01*
X145638010Y-96929409D01*
X145589942Y-96821205D01*
X145536802Y-96699237D01*
X145480399Y-96567808D01*
X145422542Y-96431218D01*
X145365038Y-96293767D01*
X145309697Y-96159758D01*
X145258326Y-96033491D01*
X145212735Y-95919268D01*
X145174732Y-95821390D01*
X145146124Y-95744157D01*
X145128721Y-95691871D01*
X145124331Y-95668833D01*
X145124628Y-95668160D01*
X145145077Y-95646863D01*
X145187850Y-95613508D01*
X145244117Y-95575011D01*
X145261877Y-95563256D01*
X145397014Y-95451735D01*
X145508856Y-95318906D01*
X145594755Y-95170298D01*
X145652062Y-95011440D01*
X145678131Y-94847860D01*
X145670313Y-94685088D01*
X145638644Y-94540315D01*
X145581782Y-94394124D01*
X145498888Y-94263703D01*
X145385131Y-94139813D01*
X145340433Y-94100235D01*
X145195935Y-94002723D01*
X145039838Y-93937050D01*
X144876667Y-93902630D01*
X144710943Y-93898874D01*
X144547192Y-93925194D01*
X144389936Y-93981003D01*
X144243698Y-94065714D01*
X144113004Y-94178737D01*
X144002374Y-94319487D01*
X143981105Y-94354342D01*
X143908810Y-94513655D01*
X143870415Y-94679552D01*
X143864914Y-94847737D01*
X143891301Y-95013913D01*
X143948570Y-95173784D01*
X144035717Y-95323053D01*
X144151736Y-95457423D01*
X144295622Y-95572599D01*
X144300294Y-95575702D01*
X144355964Y-95614933D01*
X144397689Y-95648286D01*
X144416746Y-95668833D01*
X144414342Y-95684941D01*
X144399391Y-95731844D01*
X144372881Y-95804539D01*
X144336620Y-95898725D01*
X144292416Y-96010098D01*
X144242076Y-96134358D01*
X144187407Y-96267202D01*
X144130218Y-96404327D01*
X144072316Y-96541432D01*
X144015510Y-96674215D01*
X143961606Y-96798374D01*
X143912412Y-96909606D01*
X143869737Y-97003609D01*
X143835387Y-97076082D01*
X143811171Y-97122722D01*
X143798897Y-97139226D01*
X143788689Y-97136991D01*
X143748586Y-97120926D01*
X143689318Y-97092759D01*
X143619619Y-97056520D01*
X143466629Y-96973800D01*
X143284373Y-97097075D01*
X143230527Y-97133579D01*
X143130374Y-97201784D01*
X143030525Y-97270098D01*
X142946211Y-97328117D01*
X142899679Y-97359736D01*
X142839200Y-97399020D01*
X142794357Y-97425912D01*
X142772455Y-97435883D01*
X142763045Y-97431650D01*
X142729031Y-97405721D01*
X142676595Y-97360070D01*
X142610301Y-97299186D01*
X142534713Y-97227561D01*
X142454396Y-97149683D01*
X142373913Y-97070045D01*
X142297829Y-96993135D01*
X142230707Y-96923445D01*
X142177112Y-96865464D01*
X142141608Y-96823684D01*
X142128759Y-96802593D01*
X142129500Y-96798581D01*
X142144793Y-96765920D01*
X142177462Y-96709412D01*
X142224350Y-96634163D01*
X142282301Y-96545275D01*
X142348157Y-96447854D01*
X142366627Y-96420982D01*
X142431482Y-96326423D01*
X142488609Y-96242827D01*
X142534678Y-96175084D01*
X142566359Y-96128086D01*
X142580324Y-96106726D01*
X142580668Y-96105811D01*
X142576546Y-96079678D01*
X142560807Y-96026740D01*
X142536004Y-95953647D01*
X142504689Y-95867052D01*
X142469417Y-95773608D01*
X142432740Y-95679965D01*
X142397212Y-95592777D01*
X142365386Y-95518695D01*
X142339816Y-95464371D01*
X142323053Y-95436457D01*
X142321374Y-95434724D01*
X142309372Y-95425956D01*
X142289103Y-95417115D01*
X142256529Y-95407292D01*
X142207616Y-95395583D01*
X142138327Y-95381080D01*
X142044625Y-95362876D01*
X141922476Y-95340066D01*
X141767842Y-95311741D01*
X141735770Y-95305780D01*
X141643893Y-95287352D01*
X141566607Y-95269892D01*
X141511236Y-95255133D01*
X141485105Y-95244810D01*
X141480733Y-95236197D01*
X141473445Y-95194826D01*
X141467669Y-95126241D01*
X141463410Y-95036868D01*
X141460673Y-94933135D01*
X141459462Y-94821465D01*
X141459782Y-94708287D01*
X141461636Y-94600026D01*
X141465030Y-94503108D01*
X141469967Y-94423959D01*
X141476452Y-94369006D01*
X141484489Y-94344674D01*
X141492696Y-94341079D01*
X141533519Y-94329748D01*
X141602524Y-94313722D01*
X141694203Y-94294195D01*
X141803050Y-94272362D01*
X141923558Y-94249418D01*
X141989357Y-94237159D01*
X142102135Y-94215901D01*
X142199207Y-94197287D01*
X142275382Y-94182328D01*
X142325469Y-94172036D01*
X142344276Y-94167422D01*
X142344983Y-94166471D01*
X142356961Y-94142310D01*
X142379794Y-94091694D01*
X142410630Y-94021338D01*
X142446613Y-93937958D01*
X142484891Y-93848270D01*
X142522609Y-93758989D01*
X142556913Y-93676832D01*
X142584949Y-93608513D01*
X142603864Y-93560748D01*
X142610803Y-93540254D01*
X142607742Y-93533043D01*
X142587372Y-93498728D01*
X142550422Y-93440970D01*
X142499860Y-93364299D01*
X142438657Y-93273248D01*
X142369781Y-93172350D01*
X142331994Y-93117093D01*
X142266782Y-93020215D01*
X142210871Y-92935193D01*
X142167241Y-92866662D01*
X142138877Y-92819260D01*
X142128759Y-92797623D01*
X142135790Y-92785887D01*
X142165197Y-92750818D01*
X142213441Y-92697745D01*
X142276093Y-92631164D01*
X142348725Y-92555574D01*
X142426908Y-92475472D01*
X142506214Y-92395354D01*
X142582213Y-92319718D01*
X142650478Y-92253062D01*
X142706580Y-92199882D01*
X142746090Y-92164676D01*
X142764579Y-92151942D01*
X142774843Y-92156893D01*
X142812530Y-92179857D01*
X142873348Y-92218938D01*
X142952913Y-92271272D01*
X143046843Y-92333996D01*
X143150754Y-92404246D01*
X143521794Y-92656551D01*
X143831080Y-92529053D01*
X144140365Y-92401555D01*
X144224186Y-91956931D01*
X144308006Y-91512307D01*
X145233454Y-91512307D01*
X145317275Y-91956931D01*
D11*
X157480000Y-81280000D03*
D12*
X160020000Y-81280000D03*
D13*
X140970000Y-81280000D03*
D14*
X143510000Y-81280000D03*
D13*
X148590000Y-81280000D03*
D14*
X151130000Y-81280000D03*
D13*
X166370000Y-81280000D03*
D14*
X168910000Y-81280000D03*
D15*
X139700000Y-96520000D03*
D16*
X149860000Y-96520000D03*
D15*
X139700000Y-92710000D03*
D16*
X149860000Y-92710000D03*
D15*
X177800000Y-92710000D03*
D16*
X167640000Y-92710000D03*
D15*
X177800000Y-96520000D03*
D16*
X167640000Y-96520000D03*
D15*
X153670000Y-86995000D03*
D16*
X163830000Y-86995000D03*
D13*
X173990000Y-81280000D03*
D14*
X176530000Y-81280000D03*
D17*
X154940000Y-92710000D03*
D15*
X154940000Y-95210000D03*
D17*
X162560000Y-92710000D03*
D15*
X162560000Y-95210000D03*
D18*
X143510000Y-89035000D03*
D19*
X146050000Y-86495000D03*
X148590000Y-89035000D03*
D18*
X168910000Y-89035000D03*
D19*
X171450000Y-86495000D03*
X173990000Y-89035000D03*
D20*
X144750000Y-83820000D03*
X146050000Y-83820000D03*
X147350000Y-83820000D03*
X172750000Y-83820000D03*
X171450000Y-83820000D03*
X170150000Y-83820000D03*
D21*
X153924000Y-86360000D02*
X153670000Y-86360000D01*
X157480000Y-82804000D02*
X153924000Y-86360000D01*
X157480000Y-81280000D02*
X157480000Y-82804000D01*
X143002000Y-83820000D02*
X140970000Y-81788000D01*
X162560000Y-92075000D02*
X162560000Y-92710000D01*
X146185000Y-89035000D02*
X144750000Y-87600000D01*
X144750000Y-87600000D02*
X144750000Y-83820000D01*
X152146000Y-95758000D02*
X153416000Y-97028000D01*
X144750000Y-83820000D02*
X143002000Y-83820000D01*
X158242000Y-97028000D02*
X153416000Y-97028000D01*
X148590000Y-89035000D02*
X150249000Y-89035000D01*
X148590000Y-89035000D02*
X146185000Y-89035000D01*
X152146000Y-90932000D02*
X152146000Y-95758000D01*
X150249000Y-89035000D02*
X152146000Y-90932000D01*
X153416000Y-97028000D02*
X150368000Y-97028000D01*
X150368000Y-97028000D02*
X149860000Y-96520000D01*
X170180000Y-84455000D02*
X162560000Y-92075000D01*
X140970000Y-81788000D02*
X140970000Y-81280000D01*
X162560000Y-92710000D02*
X158242000Y-97028000D01*
X172750000Y-83820000D02*
X173990000Y-82580000D01*
X173990000Y-82580000D02*
X173990000Y-82550000D01*
X167640000Y-96520000D02*
X173990000Y-90170000D01*
X147350000Y-84612000D02*
X154940000Y-92202000D01*
X173990000Y-82550000D02*
X173990000Y-81280000D01*
X173990000Y-90170000D02*
X173990000Y-82550000D01*
X147350000Y-84455000D02*
X147350000Y-84612000D01*
X154940000Y-92202000D02*
X154940000Y-92750000D01*
X146050000Y-84455000D02*
X146050000Y-83058000D01*
X146050000Y-83058000D02*
X147828000Y-81280000D01*
X147828000Y-81280000D02*
X148590000Y-81280000D01*
X170180000Y-79375000D02*
X168275000Y-79375000D01*
X171450000Y-80645000D02*
X170180000Y-79375000D01*
X168275000Y-79375000D02*
X166370000Y-81280000D01*
X171450000Y-83820000D02*
X171450000Y-80645000D01*
X169672000Y-92710000D02*
X171450000Y-90932000D01*
X167640000Y-92710000D02*
X169672000Y-92710000D01*
X171450000Y-90932000D02*
X171450000Y-86495000D01*
G04 #@! TA.AperFunction,Conductor*
G36*
X176500018Y-77980000D02*
G01*
X176514851Y-77982310D01*
X176514855Y-77982310D01*
X176523724Y-77983691D01*
X176532626Y-77982527D01*
X176532629Y-77982527D01*
X176540012Y-77981561D01*
X176564591Y-77980767D01*
X176591442Y-77982527D01*
X176786922Y-77995340D01*
X176803262Y-77997491D01*
X176925478Y-78021801D01*
X177047696Y-78046112D01*
X177063606Y-78050375D01*
X177299600Y-78130484D01*
X177314826Y-78136791D01*
X177538342Y-78247016D01*
X177552616Y-78255257D01*
X177759829Y-78393713D01*
X177772905Y-78403746D01*
X177960278Y-78568068D01*
X177971932Y-78579722D01*
X178136254Y-78767095D01*
X178146287Y-78780171D01*
X178284743Y-78987384D01*
X178292984Y-79001658D01*
X178403209Y-79225174D01*
X178409515Y-79240398D01*
X178489625Y-79476394D01*
X178493889Y-79492307D01*
X178542509Y-79736738D01*
X178544660Y-79753078D01*
X178558763Y-79968236D01*
X178557733Y-79991350D01*
X178557690Y-79994854D01*
X178556309Y-80003724D01*
X178557473Y-80012626D01*
X178557473Y-80012628D01*
X178560436Y-80035283D01*
X178561500Y-80051621D01*
X178561500Y-85725500D01*
X178541498Y-85793621D01*
X178487842Y-85840114D01*
X178435500Y-85851500D01*
X176538623Y-85851500D01*
X176537853Y-85851498D01*
X176537037Y-85851493D01*
X176460279Y-85851024D01*
X176437918Y-85857415D01*
X176431847Y-85859150D01*
X176415085Y-85862728D01*
X176385813Y-85866920D01*
X176377645Y-85870634D01*
X176377644Y-85870634D01*
X176362438Y-85877548D01*
X176344914Y-85883996D01*
X176320229Y-85891051D01*
X176312635Y-85895843D01*
X176312632Y-85895844D01*
X176295220Y-85906830D01*
X176280137Y-85914969D01*
X176253218Y-85927208D01*
X176246416Y-85933069D01*
X176233765Y-85943970D01*
X176218761Y-85955073D01*
X176197042Y-85968776D01*
X176191103Y-85975501D01*
X176191099Y-85975504D01*
X176177468Y-85990938D01*
X176165276Y-86002982D01*
X176149673Y-86016427D01*
X176149671Y-86016430D01*
X176142873Y-86022287D01*
X176137993Y-86029816D01*
X176137992Y-86029817D01*
X176128906Y-86043835D01*
X176117615Y-86058709D01*
X176106569Y-86071217D01*
X176100622Y-86077951D01*
X176094312Y-86091391D01*
X176088058Y-86104711D01*
X176079737Y-86119691D01*
X176068529Y-86136983D01*
X176068527Y-86136988D01*
X176063648Y-86144515D01*
X176061078Y-86153108D01*
X176061076Y-86153113D01*
X176056289Y-86169120D01*
X176049628Y-86186564D01*
X176042533Y-86201676D01*
X176038719Y-86209800D01*
X176037338Y-86218667D01*
X176037338Y-86218668D01*
X176034170Y-86239015D01*
X176030387Y-86255732D01*
X176024485Y-86275466D01*
X176024484Y-86275472D01*
X176021914Y-86284066D01*
X176021859Y-86293037D01*
X176021859Y-86293038D01*
X176021704Y-86318497D01*
X176021671Y-86319289D01*
X176021500Y-86320386D01*
X176021500Y-86351377D01*
X176021498Y-86352147D01*
X176021024Y-86429721D01*
X176021408Y-86431065D01*
X176021500Y-86432410D01*
X176021500Y-90161377D01*
X176021498Y-90162147D01*
X176021024Y-90239721D01*
X176023491Y-90248352D01*
X176029150Y-90268153D01*
X176032728Y-90284915D01*
X176036920Y-90314187D01*
X176040634Y-90322355D01*
X176040634Y-90322356D01*
X176047548Y-90337562D01*
X176053996Y-90355086D01*
X176061051Y-90379771D01*
X176065843Y-90387365D01*
X176065844Y-90387368D01*
X176076830Y-90404780D01*
X176084969Y-90419863D01*
X176097208Y-90446782D01*
X176103069Y-90453584D01*
X176113970Y-90466235D01*
X176125073Y-90481239D01*
X176138776Y-90502958D01*
X176145501Y-90508897D01*
X176145504Y-90508901D01*
X176160938Y-90522532D01*
X176172982Y-90534724D01*
X176186427Y-90550327D01*
X176186430Y-90550329D01*
X176192287Y-90557127D01*
X176199816Y-90562007D01*
X176199817Y-90562008D01*
X176213835Y-90571094D01*
X176228709Y-90582385D01*
X176241217Y-90593431D01*
X176247951Y-90599378D01*
X176274711Y-90611942D01*
X176289691Y-90620263D01*
X176306983Y-90631471D01*
X176306988Y-90631473D01*
X176314515Y-90636352D01*
X176323108Y-90638922D01*
X176323113Y-90638924D01*
X176339120Y-90643711D01*
X176356564Y-90650372D01*
X176371676Y-90657467D01*
X176371678Y-90657468D01*
X176379800Y-90661281D01*
X176388667Y-90662662D01*
X176388668Y-90662662D01*
X176391353Y-90663080D01*
X176409017Y-90665830D01*
X176425732Y-90669613D01*
X176445466Y-90675515D01*
X176445472Y-90675516D01*
X176454066Y-90678086D01*
X176463037Y-90678141D01*
X176463038Y-90678141D01*
X176473097Y-90678202D01*
X176488506Y-90678296D01*
X176489289Y-90678329D01*
X176490386Y-90678500D01*
X176521377Y-90678500D01*
X176522147Y-90678502D01*
X176595785Y-90678952D01*
X176595786Y-90678952D01*
X176599721Y-90678976D01*
X176601065Y-90678592D01*
X176602410Y-90678500D01*
X178435500Y-90678500D01*
X178503621Y-90698502D01*
X178550114Y-90752158D01*
X178561500Y-90804500D01*
X178561500Y-91423543D01*
X178541498Y-91491664D01*
X178487842Y-91538157D01*
X178417568Y-91548261D01*
X178382250Y-91537738D01*
X178254225Y-91478039D01*
X178254224Y-91478039D01*
X178249243Y-91475716D01*
X178243935Y-91474294D01*
X178243933Y-91474293D01*
X178033402Y-91417881D01*
X178033400Y-91417881D01*
X178028087Y-91416457D01*
X177800000Y-91396502D01*
X177571913Y-91416457D01*
X177566600Y-91417881D01*
X177566598Y-91417881D01*
X177356067Y-91474293D01*
X177356065Y-91474294D01*
X177350757Y-91475716D01*
X177345776Y-91478039D01*
X177345775Y-91478039D01*
X177148238Y-91570151D01*
X177148233Y-91570154D01*
X177143251Y-91572477D01*
X177038389Y-91645902D01*
X176960211Y-91700643D01*
X176960208Y-91700645D01*
X176955700Y-91703802D01*
X176793802Y-91865700D01*
X176790645Y-91870208D01*
X176790643Y-91870211D01*
X176749562Y-91928881D01*
X176662477Y-92053251D01*
X176660154Y-92058233D01*
X176660151Y-92058238D01*
X176569282Y-92253109D01*
X176565716Y-92260757D01*
X176564294Y-92266065D01*
X176564293Y-92266067D01*
X176516107Y-92445899D01*
X176506457Y-92481913D01*
X176486502Y-92710000D01*
X176506457Y-92938087D01*
X176507881Y-92943400D01*
X176507881Y-92943402D01*
X176559747Y-93136965D01*
X176565716Y-93159243D01*
X176568039Y-93164224D01*
X176568039Y-93164225D01*
X176660151Y-93361762D01*
X176660154Y-93361767D01*
X176662477Y-93366749D01*
X176707503Y-93431052D01*
X176767413Y-93516612D01*
X176793802Y-93554300D01*
X176955700Y-93716198D01*
X176960208Y-93719355D01*
X176960211Y-93719357D01*
X177030425Y-93768521D01*
X177143251Y-93847523D01*
X177148233Y-93849846D01*
X177148238Y-93849849D01*
X177345775Y-93941961D01*
X177350757Y-93944284D01*
X177356065Y-93945706D01*
X177356067Y-93945707D01*
X177566598Y-94002119D01*
X177566600Y-94002119D01*
X177571913Y-94003543D01*
X177800000Y-94023498D01*
X178028087Y-94003543D01*
X178033400Y-94002119D01*
X178033402Y-94002119D01*
X178243933Y-93945707D01*
X178243935Y-93945706D01*
X178249243Y-93944284D01*
X178259964Y-93939285D01*
X178331359Y-93905993D01*
X178382251Y-93882262D01*
X178452442Y-93871601D01*
X178517255Y-93900581D01*
X178556111Y-93960001D01*
X178561500Y-93996457D01*
X178561500Y-95233543D01*
X178541498Y-95301664D01*
X178487842Y-95348157D01*
X178417568Y-95358261D01*
X178382250Y-95347738D01*
X178348704Y-95332095D01*
X178269702Y-95295256D01*
X178254225Y-95288039D01*
X178254224Y-95288039D01*
X178249243Y-95285716D01*
X178243935Y-95284294D01*
X178243933Y-95284293D01*
X178033402Y-95227881D01*
X178033400Y-95227881D01*
X178028087Y-95226457D01*
X177800000Y-95206502D01*
X177571913Y-95226457D01*
X177566600Y-95227881D01*
X177566598Y-95227881D01*
X177356067Y-95284293D01*
X177356065Y-95284294D01*
X177350757Y-95285716D01*
X177345776Y-95288039D01*
X177345775Y-95288039D01*
X177148238Y-95380151D01*
X177148233Y-95380154D01*
X177143251Y-95382477D01*
X177038389Y-95455902D01*
X176960211Y-95510643D01*
X176960208Y-95510645D01*
X176955700Y-95513802D01*
X176793802Y-95675700D01*
X176790645Y-95680208D01*
X176790643Y-95680211D01*
X176739148Y-95753754D01*
X176662477Y-95863251D01*
X176660154Y-95868233D01*
X176660151Y-95868238D01*
X176615702Y-95963560D01*
X176565716Y-96070757D01*
X176564294Y-96076064D01*
X176564293Y-96076067D01*
X176514140Y-96263239D01*
X176506457Y-96291913D01*
X176486502Y-96520000D01*
X176506457Y-96748087D01*
X176507881Y-96753400D01*
X176507881Y-96753402D01*
X176564258Y-96963800D01*
X176565716Y-96969243D01*
X176568039Y-96974224D01*
X176568039Y-96974225D01*
X176660151Y-97171762D01*
X176660154Y-97171767D01*
X176662477Y-97176749D01*
X176731885Y-97275873D01*
X176790005Y-97358877D01*
X176793802Y-97364300D01*
X176955700Y-97526198D01*
X176960208Y-97529355D01*
X176960211Y-97529357D01*
X177025453Y-97575040D01*
X177143251Y-97657523D01*
X177148233Y-97659846D01*
X177148238Y-97659849D01*
X177345775Y-97751961D01*
X177350757Y-97754284D01*
X177356065Y-97755706D01*
X177356067Y-97755707D01*
X177566598Y-97812119D01*
X177566600Y-97812119D01*
X177571913Y-97813543D01*
X177755686Y-97829621D01*
X177784981Y-97832184D01*
X177851099Y-97858048D01*
X177892738Y-97915551D01*
X177896679Y-97986438D01*
X177857077Y-98052437D01*
X177772905Y-98126254D01*
X177759829Y-98136287D01*
X177552616Y-98274743D01*
X177538342Y-98282984D01*
X177314826Y-98393209D01*
X177299602Y-98399515D01*
X177063606Y-98479625D01*
X177047696Y-98483888D01*
X176925478Y-98508199D01*
X176803262Y-98532509D01*
X176786922Y-98534660D01*
X176638134Y-98544413D01*
X176571763Y-98548763D01*
X176548650Y-98547733D01*
X176545146Y-98547690D01*
X176536276Y-98546309D01*
X176527374Y-98547473D01*
X176527372Y-98547473D01*
X176513915Y-98549233D01*
X176504714Y-98550436D01*
X176488379Y-98551500D01*
X141019367Y-98551500D01*
X140999982Y-98550000D01*
X140985149Y-98547690D01*
X140985145Y-98547690D01*
X140976276Y-98546309D01*
X140967374Y-98547473D01*
X140967371Y-98547473D01*
X140959988Y-98548439D01*
X140935409Y-98549233D01*
X140890799Y-98546309D01*
X140713078Y-98534660D01*
X140696738Y-98532509D01*
X140574523Y-98508199D01*
X140452304Y-98483888D01*
X140436394Y-98479625D01*
X140200398Y-98399515D01*
X140185174Y-98393209D01*
X139961658Y-98282984D01*
X139947384Y-98274743D01*
X139740171Y-98136287D01*
X139727095Y-98126254D01*
X139642923Y-98052437D01*
X139604896Y-97992483D01*
X139605318Y-97921488D01*
X139644057Y-97861991D01*
X139715019Y-97832184D01*
X139744314Y-97829621D01*
X139928087Y-97813543D01*
X139933400Y-97812119D01*
X139933402Y-97812119D01*
X140143933Y-97755707D01*
X140143935Y-97755706D01*
X140149243Y-97754284D01*
X140154225Y-97751961D01*
X140351762Y-97659849D01*
X140351767Y-97659846D01*
X140356749Y-97657523D01*
X140474547Y-97575040D01*
X140539789Y-97529357D01*
X140539792Y-97529355D01*
X140544300Y-97526198D01*
X140706198Y-97364300D01*
X140709996Y-97358877D01*
X140768115Y-97275873D01*
X140837523Y-97176749D01*
X140839846Y-97171767D01*
X140839849Y-97171762D01*
X140931961Y-96974225D01*
X140931961Y-96974224D01*
X140934284Y-96969243D01*
X140935743Y-96963800D01*
X140992119Y-96753402D01*
X140992119Y-96753400D01*
X140993543Y-96748087D01*
X141013498Y-96520000D01*
X140993543Y-96291913D01*
X140985860Y-96263239D01*
X140935707Y-96076067D01*
X140935706Y-96076064D01*
X140934284Y-96070757D01*
X140884298Y-95963560D01*
X140839849Y-95868238D01*
X140839846Y-95868233D01*
X140837523Y-95863251D01*
X140760852Y-95753754D01*
X140709357Y-95680211D01*
X140709355Y-95680208D01*
X140706198Y-95675700D01*
X140544300Y-95513802D01*
X140539792Y-95510645D01*
X140539789Y-95510643D01*
X140461611Y-95455902D01*
X140356749Y-95382477D01*
X140351767Y-95380154D01*
X140351762Y-95380151D01*
X140154225Y-95288039D01*
X140154224Y-95288039D01*
X140149243Y-95285716D01*
X140143935Y-95284294D01*
X140143933Y-95284293D01*
X139933402Y-95227881D01*
X139933400Y-95227881D01*
X139928087Y-95226457D01*
X139700000Y-95206502D01*
X139471913Y-95226457D01*
X139466600Y-95227881D01*
X139466598Y-95227881D01*
X139256067Y-95284293D01*
X139256065Y-95284294D01*
X139250757Y-95285716D01*
X139245776Y-95288039D01*
X139245775Y-95288039D01*
X139230298Y-95295256D01*
X139151297Y-95332095D01*
X139117750Y-95347738D01*
X139047558Y-95358399D01*
X138982745Y-95329419D01*
X138943889Y-95269999D01*
X138938500Y-95233543D01*
X138938500Y-94787037D01*
X140945558Y-94787037D01*
X140945611Y-94791897D01*
X140945945Y-94822767D01*
X140945952Y-94824397D01*
X140945860Y-94856882D01*
X140946255Y-94859698D01*
X140946381Y-94862867D01*
X140946781Y-94899854D01*
X140946708Y-94903498D01*
X140946297Y-94906694D01*
X140946425Y-94911554D01*
X140946425Y-94911559D01*
X140947219Y-94941636D01*
X140947256Y-94943593D01*
X140947544Y-94970087D01*
X140947603Y-94975571D01*
X140948094Y-94978752D01*
X140948297Y-94982503D01*
X140948576Y-94993053D01*
X140949060Y-95011430D01*
X140949051Y-95017037D01*
X140948588Y-95021357D01*
X140948820Y-95026222D01*
X140950169Y-95054535D01*
X140950268Y-95057210D01*
X140951061Y-95087268D01*
X140951788Y-95091535D01*
X140952209Y-95097346D01*
X140952861Y-95111009D01*
X140952936Y-95112593D01*
X140952854Y-95119758D01*
X140952933Y-95119757D01*
X140952966Y-95124625D01*
X140952624Y-95129476D01*
X140953032Y-95134320D01*
X140955005Y-95157749D01*
X140955306Y-95162326D01*
X140956506Y-95187510D01*
X140957353Y-95191916D01*
X140957883Y-95196363D01*
X140957876Y-95196364D01*
X140958853Y-95203456D01*
X140959983Y-95216865D01*
X140960402Y-95224927D01*
X140960793Y-95244521D01*
X140961636Y-95249307D01*
X140961637Y-95249318D01*
X140962716Y-95255442D01*
X140964181Y-95266714D01*
X140964850Y-95274658D01*
X140965855Y-95279024D01*
X140965869Y-95279085D01*
X140965890Y-95279251D01*
X140966548Y-95283456D01*
X140966436Y-95283474D01*
X140969019Y-95303470D01*
X140969697Y-95325502D01*
X140972480Y-95334037D01*
X140972481Y-95334040D01*
X140981301Y-95361085D01*
X140981366Y-95361310D01*
X140981416Y-95361594D01*
X140986241Y-95376321D01*
X140990313Y-95392162D01*
X140994129Y-95412369D01*
X140998204Y-95420368D01*
X141000697Y-95425263D01*
X141008158Y-95443217D01*
X141012821Y-95457448D01*
X141012823Y-95457453D01*
X141015617Y-95465979D01*
X141020690Y-95473376D01*
X141020693Y-95473383D01*
X141033591Y-95492191D01*
X141042026Y-95506409D01*
X141043902Y-95510104D01*
X141041974Y-95511083D01*
X141041998Y-95511175D01*
X141043953Y-95510179D01*
X141060893Y-95543434D01*
X141067048Y-95549967D01*
X141079765Y-95563465D01*
X141091191Y-95577486D01*
X141094841Y-95582686D01*
X141107008Y-95600022D01*
X141114021Y-95605628D01*
X141114024Y-95605631D01*
X141129225Y-95617782D01*
X141142256Y-95629795D01*
X141161757Y-95650493D01*
X141185505Y-95664429D01*
X141200405Y-95674679D01*
X141214888Y-95686257D01*
X141214891Y-95686258D01*
X141221903Y-95691864D01*
X141254527Y-95705269D01*
X141256942Y-95706352D01*
X141259235Y-95707698D01*
X141263759Y-95709485D01*
X141263767Y-95709489D01*
X141289645Y-95719712D01*
X141291238Y-95720354D01*
X141322636Y-95733255D01*
X141325544Y-95734493D01*
X141335872Y-95739043D01*
X141335880Y-95739046D01*
X141340332Y-95741007D01*
X141343374Y-95741818D01*
X141344755Y-95742344D01*
X141349647Y-95744354D01*
X141349651Y-95744355D01*
X141357955Y-95747767D01*
X141366883Y-95748711D01*
X141373026Y-95750264D01*
X141375217Y-95750639D01*
X141385411Y-95753069D01*
X141388637Y-95753883D01*
X141398087Y-95756402D01*
X141405243Y-95758763D01*
X141405254Y-95758728D01*
X141409914Y-95760166D01*
X141414436Y-95761955D01*
X141419180Y-95763027D01*
X141419181Y-95763027D01*
X141441492Y-95768067D01*
X141446178Y-95769221D01*
X141465637Y-95774408D01*
X141465649Y-95774410D01*
X141469977Y-95775564D01*
X141474425Y-95776092D01*
X141477262Y-95776636D01*
X141486285Y-95778187D01*
X141492477Y-95779586D01*
X141498943Y-95781228D01*
X141499123Y-95781279D01*
X141503692Y-95782959D01*
X141535412Y-95789321D01*
X141538218Y-95789920D01*
X141566701Y-95796354D01*
X141571169Y-95796712D01*
X141572791Y-95796959D01*
X141578572Y-95797978D01*
X141596665Y-95801606D01*
X141599824Y-95802344D01*
X141602611Y-95803325D01*
X141607396Y-95804214D01*
X141607406Y-95804217D01*
X141634980Y-95809342D01*
X141635462Y-95809450D01*
X141635977Y-95809630D01*
X141637530Y-95809914D01*
X141637532Y-95809915D01*
X141642909Y-95810900D01*
X141644922Y-95811286D01*
X141670936Y-95816503D01*
X141673875Y-95816667D01*
X141677161Y-95817181D01*
X141710256Y-95823332D01*
X141710818Y-95823355D01*
X141711279Y-95823423D01*
X141828828Y-95844955D01*
X141829131Y-95845011D01*
X141853829Y-95849623D01*
X141886413Y-95855708D01*
X141949705Y-95887876D01*
X141980605Y-95933615D01*
X141989807Y-95957109D01*
X141990364Y-95958559D01*
X141992252Y-95963560D01*
X141997599Y-96034355D01*
X141978281Y-96079329D01*
X141947203Y-96124641D01*
X141946210Y-96125985D01*
X141945140Y-96127136D01*
X141924019Y-96158380D01*
X141923587Y-96159013D01*
X141906517Y-96183847D01*
X141906503Y-96183869D01*
X141904094Y-96187374D01*
X141903369Y-96188838D01*
X141902516Y-96190190D01*
X141887569Y-96212301D01*
X141878647Y-96225499D01*
X141876296Y-96228761D01*
X141873990Y-96231326D01*
X141855567Y-96259585D01*
X141855088Y-96260319D01*
X141853939Y-96262051D01*
X141836235Y-96288240D01*
X141834731Y-96291334D01*
X141832559Y-96294873D01*
X141817830Y-96317466D01*
X141815471Y-96321084D01*
X141812430Y-96325471D01*
X141809685Y-96328655D01*
X141807113Y-96332782D01*
X141807109Y-96332788D01*
X141791985Y-96357059D01*
X141790599Y-96359233D01*
X141774058Y-96384605D01*
X141772291Y-96388402D01*
X141769493Y-96393158D01*
X141762374Y-96404584D01*
X141758611Y-96409875D01*
X141758742Y-96409965D01*
X141755986Y-96413981D01*
X141752928Y-96417773D01*
X141745379Y-96430831D01*
X141738195Y-96443256D01*
X141736054Y-96446822D01*
X141722146Y-96469143D01*
X141720337Y-96473249D01*
X141718246Y-96477206D01*
X141718178Y-96477170D01*
X141715235Y-96482971D01*
X141711443Y-96489531D01*
X141706916Y-96496778D01*
X141696709Y-96511945D01*
X141694647Y-96516349D01*
X141694640Y-96516361D01*
X141691443Y-96523189D01*
X141686423Y-96532808D01*
X141682152Y-96540195D01*
X141675507Y-96550500D01*
X141669188Y-96559321D01*
X141655404Y-96598650D01*
X141650615Y-96610386D01*
X141648828Y-96614204D01*
X141648767Y-96614175D01*
X141647300Y-96617514D01*
X141640065Y-96632089D01*
X141640064Y-96632092D01*
X141636072Y-96640134D01*
X141634498Y-96648970D01*
X141634497Y-96648974D01*
X141630555Y-96671110D01*
X141627041Y-96685725D01*
X141616814Y-96719299D01*
X141616714Y-96728279D01*
X141616585Y-96739773D01*
X141614641Y-96760455D01*
X141610279Y-96784945D01*
X141611861Y-96799506D01*
X141613080Y-96810731D01*
X141613714Y-96829425D01*
X141613029Y-96846368D01*
X141613029Y-96846372D01*
X141612667Y-96855340D01*
X141614837Y-96864050D01*
X141615181Y-96865432D01*
X141614983Y-96865481D01*
X141615078Y-96866413D01*
X141615171Y-96866387D01*
X141616891Y-96872525D01*
X141617827Y-96876058D01*
X141618174Y-96877449D01*
X141619924Y-96884476D01*
X141622923Y-96901324D01*
X141624395Y-96914868D01*
X141626166Y-96931174D01*
X141629603Y-96939471D01*
X141629604Y-96939475D01*
X141636092Y-96955139D01*
X141641948Y-96972904D01*
X141648216Y-96998070D01*
X141652742Y-97005820D01*
X141663552Y-97024330D01*
X141664464Y-97026134D01*
X141665342Y-97029362D01*
X141669649Y-97036389D01*
X141669653Y-97036396D01*
X141688968Y-97067904D01*
X141690349Y-97070213D01*
X141717866Y-97117331D01*
X141717868Y-97117334D01*
X141722395Y-97125085D01*
X141728918Y-97131256D01*
X141731028Y-97133915D01*
X141734343Y-97137412D01*
X141745526Y-97150571D01*
X141746614Y-97151872D01*
X141766141Y-97175560D01*
X141767759Y-97177564D01*
X141770163Y-97180605D01*
X141772880Y-97184648D01*
X141776911Y-97189009D01*
X141777414Y-97189553D01*
X141782108Y-97194929D01*
X141786713Y-97200516D01*
X141786717Y-97200520D01*
X141792131Y-97207088D01*
X141794839Y-97208928D01*
X141797139Y-97211309D01*
X141809689Y-97226078D01*
X141813044Y-97229045D01*
X141813088Y-97229084D01*
X141822147Y-97237947D01*
X141827196Y-97243410D01*
X141830697Y-97247420D01*
X141833110Y-97250857D01*
X141856317Y-97274952D01*
X141858055Y-97276795D01*
X141875611Y-97295788D01*
X141875624Y-97295800D01*
X141878652Y-97299076D01*
X141881891Y-97301709D01*
X141885842Y-97305608D01*
X141900982Y-97321327D01*
X141903013Y-97323575D01*
X141904644Y-97325833D01*
X141908058Y-97329284D01*
X141908063Y-97329290D01*
X141929765Y-97351228D01*
X141930937Y-97352429D01*
X141950444Y-97372682D01*
X141950458Y-97372695D01*
X141953556Y-97375911D01*
X141955745Y-97377617D01*
X141957988Y-97379757D01*
X141981400Y-97403423D01*
X141982972Y-97405121D01*
X141984302Y-97406922D01*
X141987751Y-97410335D01*
X141987759Y-97410344D01*
X142010324Y-97432672D01*
X142011275Y-97433622D01*
X142022197Y-97444662D01*
X142034788Y-97457390D01*
X142036569Y-97458739D01*
X142038280Y-97460333D01*
X142065464Y-97487233D01*
X142066940Y-97488795D01*
X142068221Y-97490492D01*
X142071709Y-97493874D01*
X142071716Y-97493882D01*
X142094599Y-97516070D01*
X142095512Y-97516964D01*
X142119425Y-97540626D01*
X142121136Y-97541894D01*
X142122758Y-97543374D01*
X142149268Y-97569078D01*
X142151007Y-97570879D01*
X142152482Y-97572788D01*
X142178898Y-97597819D01*
X142179849Y-97598732D01*
X142200496Y-97618752D01*
X142200504Y-97618758D01*
X142203723Y-97621880D01*
X142205670Y-97623293D01*
X142207584Y-97625001D01*
X142220081Y-97636842D01*
X142227760Y-97644118D01*
X142228889Y-97645188D01*
X142231483Y-97647803D01*
X142233502Y-97650333D01*
X142253848Y-97669018D01*
X142259267Y-97673995D01*
X142260705Y-97675337D01*
X142280614Y-97694203D01*
X142280625Y-97694212D01*
X142283867Y-97697284D01*
X142286501Y-97699150D01*
X142289345Y-97701619D01*
X142300181Y-97711570D01*
X142304758Y-97715993D01*
X142306109Y-97717366D01*
X142309250Y-97721096D01*
X142333052Y-97741818D01*
X142335510Y-97744017D01*
X142356411Y-97763212D01*
X142360122Y-97765754D01*
X142362823Y-97767902D01*
X142367121Y-97771478D01*
X142369934Y-97773927D01*
X142378090Y-97781697D01*
X142382539Y-97786332D01*
X142382543Y-97786336D01*
X142385914Y-97789847D01*
X142389780Y-97792794D01*
X142389790Y-97792803D01*
X142397894Y-97798980D01*
X142409493Y-97809928D01*
X142415348Y-97815057D01*
X142421192Y-97821868D01*
X142428713Y-97826765D01*
X142428714Y-97826766D01*
X142463407Y-97849356D01*
X142471037Y-97854737D01*
X142477494Y-97859659D01*
X142481060Y-97862377D01*
X142484971Y-97864560D01*
X142493749Y-97869460D01*
X142501069Y-97873879D01*
X142515907Y-97883540D01*
X142520340Y-97885534D01*
X142523660Y-97887348D01*
X142532376Y-97892576D01*
X142552206Y-97905588D01*
X142560791Y-97908208D01*
X142562610Y-97909061D01*
X142563389Y-97909329D01*
X142569134Y-97911536D01*
X142576975Y-97915913D01*
X142605734Y-97922483D01*
X142612516Y-97924233D01*
X142620514Y-97926537D01*
X142625510Y-97927977D01*
X142627406Y-97928540D01*
X142672122Y-97942187D01*
X142692889Y-97948525D01*
X142697010Y-97948573D01*
X142700970Y-97949714D01*
X142756362Y-97949491D01*
X142769452Y-97949439D01*
X142771438Y-97949447D01*
X142781399Y-97949564D01*
X142839968Y-97950252D01*
X142843941Y-97949141D01*
X142848060Y-97949124D01*
X142912016Y-97930143D01*
X142912338Y-97931229D01*
X142915017Y-97929838D01*
X142919429Y-97929390D01*
X142927746Y-97926013D01*
X142930576Y-97925310D01*
X142937101Y-97923081D01*
X142944122Y-97921117D01*
X142944126Y-97921115D01*
X142948814Y-97919804D01*
X142951751Y-97918467D01*
X142955198Y-97917328D01*
X142980459Y-97909831D01*
X142980461Y-97909830D01*
X142989070Y-97907275D01*
X143005979Y-97896365D01*
X143018012Y-97889508D01*
X143019632Y-97888699D01*
X143024147Y-97886866D01*
X143028325Y-97884360D01*
X143030964Y-97883043D01*
X143032724Y-97882119D01*
X143032652Y-97881987D01*
X143036598Y-97879840D01*
X143040675Y-97877984D01*
X143064573Y-97862685D01*
X143067664Y-97860770D01*
X143070435Y-97859108D01*
X143076701Y-97855838D01*
X143076657Y-97855758D01*
X143080932Y-97853429D01*
X143085371Y-97851438D01*
X143089448Y-97848790D01*
X143089455Y-97848786D01*
X143109291Y-97835901D01*
X143113100Y-97833522D01*
X143134913Y-97820441D01*
X143138400Y-97817607D01*
X143142061Y-97815041D01*
X143142195Y-97815232D01*
X143152252Y-97808336D01*
X143155199Y-97806940D01*
X143182777Y-97788201D01*
X143184956Y-97786753D01*
X143192740Y-97781697D01*
X143210313Y-97770282D01*
X143212993Y-97767940D01*
X143215147Y-97766386D01*
X143235805Y-97752170D01*
X143236289Y-97751839D01*
X143265310Y-97732119D01*
X143266229Y-97731282D01*
X143267171Y-97730587D01*
X143321065Y-97693500D01*
X143321184Y-97693418D01*
X143419864Y-97625904D01*
X143440573Y-97611801D01*
X143508136Y-97589992D01*
X143557349Y-97598588D01*
X143557429Y-97598619D01*
X143561471Y-97600540D01*
X143565743Y-97601868D01*
X143565746Y-97601869D01*
X143568561Y-97602744D01*
X143576711Y-97605587D01*
X143601555Y-97615224D01*
X143603156Y-97615845D01*
X143604441Y-97616352D01*
X143627796Y-97625708D01*
X143627802Y-97625710D01*
X143631961Y-97627376D01*
X143634006Y-97627874D01*
X143634858Y-97628175D01*
X143635245Y-97628292D01*
X143639788Y-97630054D01*
X143644549Y-97631096D01*
X143649206Y-97632500D01*
X143649184Y-97632572D01*
X143660828Y-97636024D01*
X143677876Y-97642462D01*
X143677877Y-97642462D01*
X143686276Y-97645634D01*
X143695227Y-97646321D01*
X143695232Y-97646322D01*
X143706288Y-97647171D01*
X143726441Y-97650374D01*
X143738689Y-97653356D01*
X143759994Y-97652381D01*
X143761179Y-97652327D01*
X143776580Y-97652564D01*
X143781545Y-97652945D01*
X143832934Y-97656889D01*
X143833778Y-97656711D01*
X143834635Y-97656774D01*
X143843189Y-97654940D01*
X143843191Y-97654940D01*
X143880930Y-97646849D01*
X143880943Y-97646911D01*
X143881102Y-97646841D01*
X143885626Y-97646634D01*
X143891795Y-97644520D01*
X143905641Y-97641551D01*
X143976856Y-97626528D01*
X143977615Y-97626121D01*
X143978458Y-97625940D01*
X144042377Y-97591379D01*
X144079164Y-97571644D01*
X144098730Y-97561148D01*
X144098731Y-97561147D01*
X144106473Y-97556994D01*
X144107088Y-97556389D01*
X144107845Y-97555980D01*
X144159516Y-97504847D01*
X144159659Y-97504707D01*
X144163211Y-97501214D01*
X144174065Y-97491790D01*
X144174450Y-97491398D01*
X144181579Y-97485945D01*
X144186890Y-97478712D01*
X144191744Y-97473762D01*
X144196512Y-97468236D01*
X144206014Y-97458833D01*
X144206015Y-97458831D01*
X144212396Y-97452517D01*
X144216747Y-97444667D01*
X144216751Y-97444662D01*
X144227499Y-97425271D01*
X144236600Y-97411158D01*
X144243457Y-97401938D01*
X144245216Y-97399573D01*
X144245831Y-97398440D01*
X144248472Y-97394843D01*
X144253131Y-97385871D01*
X144263190Y-97366496D01*
X144264243Y-97364511D01*
X144279933Y-97335601D01*
X144279933Y-97335600D01*
X144280473Y-97335893D01*
X144281044Y-97333967D01*
X144282274Y-97332157D01*
X144284353Y-97327771D01*
X144284540Y-97327444D01*
X144287170Y-97322265D01*
X144297609Y-97303029D01*
X144298447Y-97299148D01*
X144300125Y-97295359D01*
X144306045Y-97283958D01*
X144306048Y-97283952D01*
X144308109Y-97279982D01*
X144309588Y-97275757D01*
X144311368Y-97271636D01*
X144311376Y-97271640D01*
X144314091Y-97265028D01*
X144317112Y-97258654D01*
X144318909Y-97255143D01*
X144320776Y-97252297D01*
X144323413Y-97246489D01*
X144335130Y-97220679D01*
X144336003Y-97218797D01*
X144347629Y-97194269D01*
X144347630Y-97194266D01*
X144349546Y-97190224D01*
X144350551Y-97186980D01*
X144352129Y-97183235D01*
X144363830Y-97157458D01*
X144364742Y-97155616D01*
X144365855Y-97153884D01*
X144380844Y-97119991D01*
X144381262Y-97119061D01*
X144393375Y-97092381D01*
X144393380Y-97092366D01*
X144395226Y-97088301D01*
X144395799Y-97086338D01*
X144396587Y-97084397D01*
X144415336Y-97042005D01*
X144415929Y-97040783D01*
X144416701Y-97039561D01*
X144431831Y-97004711D01*
X144432075Y-97004155D01*
X144444597Y-96975843D01*
X144444605Y-96975823D01*
X144446140Y-96972352D01*
X144446528Y-96970973D01*
X144447038Y-96969687D01*
X144470837Y-96914868D01*
X144471286Y-96913927D01*
X144471888Y-96912964D01*
X144486980Y-96877688D01*
X144487222Y-96877127D01*
X144499986Y-96847727D01*
X144499989Y-96847719D01*
X144501216Y-96844893D01*
X144501514Y-96843803D01*
X144501901Y-96842811D01*
X144528895Y-96779712D01*
X144529279Y-96778898D01*
X144529800Y-96778056D01*
X144544771Y-96742607D01*
X144544963Y-96742154D01*
X144557856Y-96712018D01*
X144557859Y-96712009D01*
X144558929Y-96709509D01*
X144559186Y-96708553D01*
X144559509Y-96707710D01*
X144587897Y-96640490D01*
X144588258Y-96639716D01*
X144588756Y-96638902D01*
X144603722Y-96603018D01*
X144617607Y-96570139D01*
X144617848Y-96569223D01*
X144618156Y-96568409D01*
X144646142Y-96501304D01*
X144646526Y-96500469D01*
X144647047Y-96499610D01*
X144650682Y-96490777D01*
X144654210Y-96482206D01*
X144698633Y-96426824D01*
X144765946Y-96404251D01*
X144834776Y-96421653D01*
X144883272Y-96473505D01*
X144886961Y-96481522D01*
X144888319Y-96484768D01*
X144890662Y-96490368D01*
X144890884Y-96490901D01*
X144902901Y-96520000D01*
X144904489Y-96523846D01*
X144904989Y-96524691D01*
X144905365Y-96525512D01*
X144933581Y-96592959D01*
X144933881Y-96593756D01*
X144934110Y-96594669D01*
X144935130Y-96597076D01*
X144935133Y-96597085D01*
X144937789Y-96603354D01*
X144949271Y-96630460D01*
X144963057Y-96663414D01*
X144963542Y-96664226D01*
X144963900Y-96664997D01*
X144992168Y-96731735D01*
X144992495Y-96732593D01*
X144992743Y-96733560D01*
X144993833Y-96736100D01*
X144993838Y-96736113D01*
X145007947Y-96768988D01*
X145008116Y-96769383D01*
X145021948Y-96802039D01*
X145022469Y-96802903D01*
X145022846Y-96803705D01*
X145048743Y-96864050D01*
X145049381Y-96865537D01*
X145049768Y-96866535D01*
X145050066Y-96867672D01*
X145058559Y-96887164D01*
X145065320Y-96902683D01*
X145065596Y-96903321D01*
X145079460Y-96935627D01*
X145080070Y-96936627D01*
X145080536Y-96937607D01*
X145085429Y-96948837D01*
X145103086Y-96989362D01*
X145103501Y-96990315D01*
X145104030Y-96991657D01*
X145104425Y-96993121D01*
X145106054Y-96996788D01*
X145106058Y-96996798D01*
X145119757Y-97027635D01*
X145120117Y-97028454D01*
X145133909Y-97060110D01*
X145134710Y-97061407D01*
X145135330Y-97062692D01*
X145152893Y-97102226D01*
X145153734Y-97104303D01*
X145154336Y-97106444D01*
X145156360Y-97110873D01*
X145156362Y-97110879D01*
X145169520Y-97139673D01*
X145170068Y-97140888D01*
X145180046Y-97163349D01*
X145183699Y-97171573D01*
X145184878Y-97173453D01*
X145185899Y-97175518D01*
X145195999Y-97197621D01*
X145197786Y-97201859D01*
X145198888Y-97205515D01*
X145212630Y-97234171D01*
X145213613Y-97236221D01*
X145214602Y-97238335D01*
X145223887Y-97258654D01*
X145227472Y-97266499D01*
X145229525Y-97269695D01*
X145231701Y-97273942D01*
X145233279Y-97277232D01*
X145238225Y-97289192D01*
X145238493Y-97289802D01*
X145240102Y-97294393D01*
X145242397Y-97298680D01*
X145242399Y-97298685D01*
X145246968Y-97307220D01*
X145251889Y-97317644D01*
X145253991Y-97325937D01*
X145259690Y-97335601D01*
X145271690Y-97355950D01*
X145269672Y-97357140D01*
X145271648Y-97359485D01*
X145272578Y-97358876D01*
X145279437Y-97369357D01*
X145282544Y-97374356D01*
X145283461Y-97375911D01*
X145285132Y-97378745D01*
X145287676Y-97383272D01*
X145296259Y-97399307D01*
X145296270Y-97399324D01*
X145298382Y-97403270D01*
X145301039Y-97406885D01*
X145301666Y-97407880D01*
X145307750Y-97417099D01*
X145311403Y-97423294D01*
X145314491Y-97427056D01*
X145323509Y-97438044D01*
X145331545Y-97448989D01*
X145348201Y-97474443D01*
X145348203Y-97474445D01*
X145353119Y-97481958D01*
X145359946Y-97487789D01*
X145359948Y-97487791D01*
X145361404Y-97489034D01*
X145361226Y-97489242D01*
X145363230Y-97491519D01*
X145363426Y-97491786D01*
X145372120Y-97498431D01*
X145377423Y-97502717D01*
X145380078Y-97504984D01*
X145400668Y-97522570D01*
X145403914Y-97525440D01*
X145450053Y-97567677D01*
X145457838Y-97571503D01*
X145458368Y-97571852D01*
X145464965Y-97577486D01*
X145473151Y-97581165D01*
X145473154Y-97581167D01*
X145522032Y-97603135D01*
X145525954Y-97604979D01*
X145539836Y-97611801D01*
X145582064Y-97632554D01*
X145590610Y-97634041D01*
X145591214Y-97634226D01*
X145599128Y-97637783D01*
X145661098Y-97646383D01*
X145665331Y-97647044D01*
X145726975Y-97657772D01*
X145735595Y-97656801D01*
X145736233Y-97656809D01*
X145744822Y-97658001D01*
X145753701Y-97656690D01*
X145753706Y-97656690D01*
X145806692Y-97648866D01*
X145810968Y-97648309D01*
X145844597Y-97644520D01*
X145864223Y-97642309D01*
X145864225Y-97642308D01*
X145873140Y-97641304D01*
X145909154Y-97626218D01*
X145924920Y-97620810D01*
X145927918Y-97619999D01*
X145941881Y-97616221D01*
X145946337Y-97614238D01*
X145946874Y-97614047D01*
X145950517Y-97612526D01*
X145952834Y-97611621D01*
X145957119Y-97610291D01*
X145975253Y-97601681D01*
X146045365Y-97590530D01*
X146100311Y-97611419D01*
X146161896Y-97653438D01*
X146162126Y-97653596D01*
X146256517Y-97718305D01*
X146256666Y-97718407D01*
X146271791Y-97728832D01*
X146273912Y-97730398D01*
X146275776Y-97732120D01*
X146305834Y-97752305D01*
X146307004Y-97753101D01*
X146310951Y-97755821D01*
X146334207Y-97771849D01*
X146336473Y-97772975D01*
X146338762Y-97774416D01*
X146342956Y-97777232D01*
X146347665Y-97780865D01*
X146347812Y-97780667D01*
X146351731Y-97783575D01*
X146355399Y-97786763D01*
X146359514Y-97789349D01*
X146359518Y-97789352D01*
X146381046Y-97802881D01*
X146384245Y-97804960D01*
X146403100Y-97817622D01*
X146403119Y-97817633D01*
X146406836Y-97820129D01*
X146410878Y-97822077D01*
X146414516Y-97824161D01*
X146429490Y-97834228D01*
X146430441Y-97834972D01*
X146430445Y-97834975D01*
X146434277Y-97837970D01*
X146438526Y-97840342D01*
X146438533Y-97840346D01*
X146444570Y-97843715D01*
X146445722Y-97844465D01*
X146446728Y-97845474D01*
X146450241Y-97847406D01*
X146460280Y-97852927D01*
X146466602Y-97856647D01*
X146477424Y-97863449D01*
X146481521Y-97865273D01*
X146484204Y-97866704D01*
X146490252Y-97870197D01*
X146496835Y-97875741D01*
X146505049Y-97879364D01*
X146505050Y-97879365D01*
X146515906Y-97884154D01*
X146526441Y-97889402D01*
X146540610Y-97897309D01*
X146541831Y-97897778D01*
X146545762Y-97899940D01*
X146550333Y-97901600D01*
X146550344Y-97901605D01*
X146575357Y-97910689D01*
X146583196Y-97913837D01*
X146623199Y-97931482D01*
X146623201Y-97931482D01*
X146631413Y-97935105D01*
X146640313Y-97936277D01*
X146642963Y-97936626D01*
X146642913Y-97937006D01*
X146644039Y-97937321D01*
X146644111Y-97936777D01*
X146653827Y-97938057D01*
X146653830Y-97938057D01*
X146655925Y-97938333D01*
X146680489Y-97941568D01*
X146689824Y-97943156D01*
X146723274Y-97950150D01*
X146738268Y-97953285D01*
X146747215Y-97952582D01*
X146754468Y-97953046D01*
X146761089Y-97953220D01*
X146768346Y-97953138D01*
X146777244Y-97954310D01*
X146787408Y-97952737D01*
X146826170Y-97946739D01*
X146835573Y-97945644D01*
X146875960Y-97942472D01*
X146875962Y-97942472D01*
X146884907Y-97941769D01*
X146893296Y-97938584D01*
X146900377Y-97936996D01*
X146906796Y-97935301D01*
X146913736Y-97933186D01*
X146922603Y-97931814D01*
X146930729Y-97928008D01*
X146930732Y-97928007D01*
X146967429Y-97910819D01*
X146976148Y-97907128D01*
X147014025Y-97892747D01*
X147022419Y-97889560D01*
X147046247Y-97871545D01*
X147063951Y-97858160D01*
X147074133Y-97851218D01*
X147087629Y-97842953D01*
X147087635Y-97842949D01*
X147091787Y-97840406D01*
X147095503Y-97837251D01*
X147096694Y-97836388D01*
X147100075Y-97833828D01*
X147100003Y-97833736D01*
X147103527Y-97830981D01*
X147107257Y-97828470D01*
X147121909Y-97815232D01*
X147123864Y-97813466D01*
X147132342Y-97806454D01*
X147134727Y-97804651D01*
X147139750Y-97800853D01*
X147140881Y-97799331D01*
X147141442Y-97798837D01*
X147144698Y-97796711D01*
X147167566Y-97776132D01*
X147170293Y-97773748D01*
X147187982Y-97758729D01*
X147187988Y-97758723D01*
X147191406Y-97755821D01*
X147194380Y-97752461D01*
X147197579Y-97749327D01*
X147197700Y-97749451D01*
X147201713Y-97745404D01*
X147205087Y-97742369D01*
X147207750Y-97740119D01*
X147210337Y-97738374D01*
X147213892Y-97735077D01*
X147213897Y-97735073D01*
X147236163Y-97714422D01*
X147237518Y-97713184D01*
X147261371Y-97691718D01*
X147263369Y-97689326D01*
X147265934Y-97686810D01*
X147276768Y-97676761D01*
X147285125Y-97669010D01*
X147286876Y-97667491D01*
X147288743Y-97666203D01*
X147315374Y-97640963D01*
X147316122Y-97640262D01*
X147340763Y-97617408D01*
X147342190Y-97615646D01*
X147343855Y-97613970D01*
X147345379Y-97612526D01*
X147373924Y-97585472D01*
X147375064Y-97584464D01*
X147376373Y-97583546D01*
X147379427Y-97580608D01*
X147403494Y-97557452D01*
X147404181Y-97556796D01*
X147429159Y-97533123D01*
X147429179Y-97533144D01*
X147433539Y-97528962D01*
X147434043Y-97528601D01*
X147460250Y-97502851D01*
X147461142Y-97501985D01*
X147482045Y-97481873D01*
X147482049Y-97481869D01*
X147485285Y-97478755D01*
X147486636Y-97477023D01*
X147488215Y-97475374D01*
X147505050Y-97458833D01*
X147528498Y-97435795D01*
X147531550Y-97432971D01*
X147534396Y-97430855D01*
X147537809Y-97427384D01*
X147537814Y-97427380D01*
X147558582Y-97406261D01*
X147560077Y-97404766D01*
X147582507Y-97382728D01*
X147584654Y-97379915D01*
X147587587Y-97376767D01*
X147615976Y-97347900D01*
X147620332Y-97343708D01*
X147623922Y-97340912D01*
X147628642Y-97335893D01*
X147646414Y-97316994D01*
X147648369Y-97314960D01*
X147660103Y-97303029D01*
X147669216Y-97293762D01*
X147671880Y-97290145D01*
X147672004Y-97289999D01*
X147676107Y-97285417D01*
X147689063Y-97271640D01*
X147690211Y-97270420D01*
X147695459Y-97265459D01*
X147695409Y-97265408D01*
X147698887Y-97261998D01*
X147702614Y-97258868D01*
X147721220Y-97237566D01*
X147724298Y-97234171D01*
X147738444Y-97219128D01*
X147738451Y-97219119D01*
X147741516Y-97215860D01*
X147744090Y-97212197D01*
X147746921Y-97208721D01*
X147751383Y-97203033D01*
X147761041Y-97191974D01*
X147766406Y-97186205D01*
X147767948Y-97184648D01*
X147780575Y-97171894D01*
X147786762Y-97163335D01*
X147793968Y-97154276D01*
X147798862Y-97148672D01*
X147801302Y-97144913D01*
X147804005Y-97141333D01*
X147804144Y-97141438D01*
X147816028Y-97126500D01*
X147825190Y-97117018D01*
X147825195Y-97117011D01*
X147831431Y-97110557D01*
X147848756Y-97077578D01*
X147848761Y-97077571D01*
X147853342Y-97068850D01*
X147861816Y-97054977D01*
X147870447Y-97042704D01*
X147870448Y-97042702D01*
X147875609Y-97035363D01*
X147881080Y-97019306D01*
X147888800Y-97001349D01*
X147895670Y-96988272D01*
X147895670Y-96988271D01*
X147899843Y-96980328D01*
X147903180Y-96963800D01*
X147906200Y-96948837D01*
X147910443Y-96933130D01*
X147914151Y-96922247D01*
X147923049Y-96896134D01*
X147923443Y-96887170D01*
X147923444Y-96887164D01*
X147924267Y-96868444D01*
X147926342Y-96850552D01*
X147929822Y-96832157D01*
X147931492Y-96823332D01*
X147930260Y-96810731D01*
X147928743Y-96795211D01*
X147928266Y-96777423D01*
X147929112Y-96758153D01*
X147929506Y-96749186D01*
X147922904Y-96722275D01*
X147919873Y-96704514D01*
X147918050Y-96685872D01*
X147917177Y-96676940D01*
X147904035Y-96644222D01*
X147903184Y-96641892D01*
X147902577Y-96639417D01*
X147889979Y-96609203D01*
X147889359Y-96607689D01*
X147874902Y-96571699D01*
X147874085Y-96569609D01*
X147870544Y-96560299D01*
X147870544Y-96560298D01*
X147868878Y-96555919D01*
X147867833Y-96554085D01*
X147867768Y-96553936D01*
X147865699Y-96548784D01*
X147865695Y-96548777D01*
X147862350Y-96540450D01*
X147856801Y-96533395D01*
X147854189Y-96528878D01*
X147851461Y-96524907D01*
X147846197Y-96516071D01*
X147844987Y-96513993D01*
X147839390Y-96504169D01*
X147836178Y-96497673D01*
X147836118Y-96497704D01*
X147833882Y-96493385D01*
X147831984Y-96488900D01*
X147817120Y-96464915D01*
X147814755Y-96460937D01*
X147806076Y-96445707D01*
X147802336Y-96439144D01*
X147799582Y-96435597D01*
X147797158Y-96431969D01*
X147792951Y-96425916D01*
X147787938Y-96417828D01*
X147785226Y-96413164D01*
X147783498Y-96409304D01*
X147765308Y-96381264D01*
X147763949Y-96379121D01*
X147747989Y-96353369D01*
X147745288Y-96350142D01*
X147742127Y-96345530D01*
X147731195Y-96328679D01*
X147727511Y-96322999D01*
X147725591Y-96319830D01*
X147724210Y-96316873D01*
X147707610Y-96292146D01*
X147704749Y-96287884D01*
X147703656Y-96286228D01*
X147688743Y-96263239D01*
X147688740Y-96263235D01*
X147686304Y-96259480D01*
X147684160Y-96257024D01*
X147681932Y-96253897D01*
X147659660Y-96220719D01*
X147658640Y-96219082D01*
X147657799Y-96217324D01*
X147639505Y-96190609D01*
X147639394Y-96190433D01*
X147639284Y-96190204D01*
X147634640Y-96183439D01*
X147633997Y-96182493D01*
X147617309Y-96157634D01*
X147616011Y-96156193D01*
X147614862Y-96154622D01*
X147596565Y-96127904D01*
X147596151Y-96127299D01*
X147595980Y-96127113D01*
X147595858Y-96126948D01*
X147595412Y-96126297D01*
X147563202Y-96079378D01*
X147541138Y-96011898D01*
X147549697Y-95962271D01*
X147560825Y-95933751D01*
X147604216Y-95877561D01*
X147654951Y-95855714D01*
X147686896Y-95849715D01*
X147687391Y-95849623D01*
X147827320Y-95823925D01*
X147829627Y-95823582D01*
X147831751Y-95823505D01*
X147836531Y-95822582D01*
X147836536Y-95822581D01*
X147867781Y-95816545D01*
X147869070Y-95816303D01*
X147897608Y-95811098D01*
X147897609Y-95811098D01*
X147902021Y-95810293D01*
X147904105Y-95809596D01*
X147906317Y-95809099D01*
X147921436Y-95806178D01*
X147927712Y-95804966D01*
X147933794Y-95803962D01*
X147938399Y-95803690D01*
X147943153Y-95802659D01*
X147943155Y-95802659D01*
X147970429Y-95796746D01*
X147973224Y-95796173D01*
X147997899Y-95791406D01*
X147997903Y-95791405D01*
X148002292Y-95790557D01*
X148006515Y-95789096D01*
X148006959Y-95788977D01*
X148012880Y-95787542D01*
X148021536Y-95785665D01*
X148027646Y-95784730D01*
X148027613Y-95784534D01*
X148032416Y-95783721D01*
X148037263Y-95783281D01*
X148057646Y-95778187D01*
X148066333Y-95776016D01*
X148070185Y-95775117D01*
X148074695Y-95774139D01*
X148096401Y-95769433D01*
X148100597Y-95767874D01*
X148104908Y-95766613D01*
X148104939Y-95766720D01*
X148110834Y-95764895D01*
X148113278Y-95764284D01*
X148123487Y-95762176D01*
X148136812Y-95759996D01*
X148141426Y-95758484D01*
X148141431Y-95758483D01*
X148142388Y-95758169D01*
X148153990Y-95754973D01*
X148156268Y-95754461D01*
X148165216Y-95753754D01*
X148211487Y-95736162D01*
X148225369Y-95731785D01*
X148253467Y-95724685D01*
X148292779Y-95701546D01*
X148300880Y-95697168D01*
X148311616Y-95691864D01*
X148344867Y-95675436D01*
X148351479Y-95669358D01*
X148358877Y-95664284D01*
X148358910Y-95664333D01*
X148370134Y-95656017D01*
X148372492Y-95654629D01*
X148372497Y-95654625D01*
X148380229Y-95650074D01*
X148396263Y-95633011D01*
X148410831Y-95619756D01*
X148413375Y-95617782D01*
X148429326Y-95605402D01*
X148442079Y-95587774D01*
X148446555Y-95581956D01*
X148453153Y-95575889D01*
X148457791Y-95568202D01*
X148459221Y-95566453D01*
X148464965Y-95559902D01*
X148474806Y-95549429D01*
X148474807Y-95549427D01*
X148480955Y-95542885D01*
X148491555Y-95522008D01*
X148501814Y-95505202D01*
X148510282Y-95493497D01*
X148510283Y-95493495D01*
X148515541Y-95486227D01*
X148526802Y-95454572D01*
X148528572Y-95450904D01*
X148529147Y-95449951D01*
X148529287Y-95449422D01*
X148531324Y-95445199D01*
X148530846Y-95444988D01*
X148532044Y-95442268D01*
X148532125Y-95442108D01*
X148532156Y-95442013D01*
X148534465Y-95436769D01*
X148539209Y-95429153D01*
X148550369Y-95389226D01*
X148553007Y-95380912D01*
X148561016Y-95358399D01*
X148564842Y-95347646D01*
X148565356Y-95338680D01*
X148566688Y-95332095D01*
X148567993Y-95326673D01*
X148568327Y-95324983D01*
X148569636Y-95320302D01*
X148572190Y-95298780D01*
X148573196Y-95291925D01*
X148581413Y-95244937D01*
X148582960Y-95236091D01*
X148581963Y-95227169D01*
X148582240Y-95218197D01*
X148583037Y-95218222D01*
X148583055Y-95207218D01*
X148583140Y-95206502D01*
X148585254Y-95188687D01*
X148585141Y-95183979D01*
X148585043Y-95179961D01*
X148585260Y-95168925D01*
X148585529Y-95164689D01*
X148585989Y-95157457D01*
X148586545Y-95151190D01*
X148586820Y-95148777D01*
X148587743Y-95143997D01*
X148588095Y-95134320D01*
X148588879Y-95112710D01*
X148589050Y-95109289D01*
X148590554Y-95085632D01*
X148590554Y-95085631D01*
X148590838Y-95081162D01*
X148590486Y-95076701D01*
X148590455Y-95072686D01*
X148590534Y-95067156D01*
X148591310Y-95045769D01*
X148591599Y-95041399D01*
X148592232Y-95037774D01*
X148592865Y-95003541D01*
X148592926Y-95001299D01*
X148593896Y-94974574D01*
X148594059Y-94970087D01*
X148593671Y-94966434D01*
X148593634Y-94961881D01*
X148594255Y-94928326D01*
X148594419Y-94925029D01*
X148594889Y-94922091D01*
X148595038Y-94886617D01*
X148595058Y-94884836D01*
X148595313Y-94871028D01*
X148595654Y-94852561D01*
X148595289Y-94849624D01*
X148595207Y-94846263D01*
X148595368Y-94807788D01*
X148595479Y-94804688D01*
X148595892Y-94801865D01*
X148595798Y-94791897D01*
X148595695Y-94781092D01*
X148595554Y-94766219D01*
X148595549Y-94764568D01*
X148595555Y-94763303D01*
X148595686Y-94732026D01*
X148595294Y-94729204D01*
X148595172Y-94726017D01*
X148594845Y-94691499D01*
X148594822Y-94689136D01*
X148594901Y-94685461D01*
X148595318Y-94682256D01*
X148594439Y-94647130D01*
X148594406Y-94645198D01*
X148594147Y-94617877D01*
X148594147Y-94617872D01*
X148594104Y-94613389D01*
X148593617Y-94610201D01*
X148593420Y-94606490D01*
X148592697Y-94577632D01*
X148592714Y-94572023D01*
X148593184Y-94567691D01*
X148592959Y-94562833D01*
X148592959Y-94562819D01*
X148591647Y-94534557D01*
X148591550Y-94531867D01*
X148591199Y-94517815D01*
X148590798Y-94501813D01*
X148590075Y-94497536D01*
X148589658Y-94491692D01*
X148588957Y-94476574D01*
X148589048Y-94469370D01*
X148588974Y-94469370D01*
X148588946Y-94464508D01*
X148589294Y-94459647D01*
X148586952Y-94431495D01*
X148586653Y-94426890D01*
X148585694Y-94406222D01*
X148585694Y-94406219D01*
X148585486Y-94401744D01*
X148584645Y-94397338D01*
X148584120Y-94392893D01*
X148584122Y-94392893D01*
X148583143Y-94385731D01*
X148582775Y-94381305D01*
X148582015Y-94372174D01*
X148581608Y-94364283D01*
X148581559Y-94361803D01*
X148581206Y-94344277D01*
X148579345Y-94333723D01*
X148577866Y-94322304D01*
X148577609Y-94319215D01*
X148577609Y-94319213D01*
X148577237Y-94314748D01*
X148575612Y-94307655D01*
X148572532Y-94284583D01*
X148571861Y-94267904D01*
X148571861Y-94267902D01*
X148571500Y-94258938D01*
X148550248Y-94195804D01*
X148546909Y-94184010D01*
X148542758Y-94166058D01*
X148542756Y-94166052D01*
X148540733Y-94157306D01*
X148536335Y-94149476D01*
X148533095Y-94141111D01*
X148533253Y-94141050D01*
X148529336Y-94132141D01*
X148529201Y-94131728D01*
X148529199Y-94131724D01*
X148526402Y-94123193D01*
X148521322Y-94115789D01*
X148521320Y-94115784D01*
X148506730Y-94094517D01*
X148498824Y-94081336D01*
X148497709Y-94079190D01*
X148497704Y-94079182D01*
X148495644Y-94075217D01*
X148493043Y-94071585D01*
X148490692Y-94067752D01*
X148490782Y-94067697D01*
X148487531Y-94062587D01*
X148485796Y-94059497D01*
X148477681Y-94045050D01*
X148473097Y-94036889D01*
X148473097Y-94036888D01*
X148468700Y-94029061D01*
X148456197Y-94016827D01*
X148441878Y-94000127D01*
X148436919Y-93993200D01*
X148436917Y-93993198D01*
X148431696Y-93985906D01*
X148401440Y-93962186D01*
X148391055Y-93953083D01*
X148387649Y-93949750D01*
X148363570Y-93926188D01*
X148353759Y-93920954D01*
X148348129Y-93917951D01*
X148329696Y-93905940D01*
X148323004Y-93900694D01*
X148315938Y-93895154D01*
X148306094Y-93891217D01*
X148280227Y-93880872D01*
X148269211Y-93875751D01*
X148268146Y-93875284D01*
X148263848Y-93872992D01*
X148240453Y-93864832D01*
X148235179Y-93862858D01*
X148179364Y-93840538D01*
X148170428Y-93839678D01*
X148168364Y-93839177D01*
X148162346Y-93838301D01*
X148146541Y-93835206D01*
X148140272Y-93833811D01*
X148139859Y-93833708D01*
X148133696Y-93832004D01*
X148132031Y-93831498D01*
X148127503Y-93829729D01*
X148122753Y-93828677D01*
X148122746Y-93828675D01*
X148096616Y-93822888D01*
X148093425Y-93822138D01*
X148065811Y-93815257D01*
X148061353Y-93814801D01*
X148058119Y-93814235D01*
X148052592Y-93813140D01*
X148045668Y-93811607D01*
X148042458Y-93810789D01*
X148039668Y-93809745D01*
X148034908Y-93808762D01*
X148034904Y-93808761D01*
X148004986Y-93802584D01*
X148003223Y-93802207D01*
X147988772Y-93799007D01*
X147971689Y-93795224D01*
X147968726Y-93794999D01*
X147965393Y-93794409D01*
X147961649Y-93793636D01*
X147937963Y-93788745D01*
X147935774Y-93788217D01*
X147933683Y-93787460D01*
X147928914Y-93786528D01*
X147928911Y-93786527D01*
X147897748Y-93780436D01*
X147896441Y-93780173D01*
X147868026Y-93774306D01*
X147868025Y-93774306D01*
X147863638Y-93773400D01*
X147861428Y-93773264D01*
X147859153Y-93772890D01*
X147817722Y-93764792D01*
X147816320Y-93764467D01*
X147814886Y-93763959D01*
X147777897Y-93757004D01*
X147777009Y-93756834D01*
X147776349Y-93756705D01*
X147743013Y-93750188D01*
X147741603Y-93750117D01*
X147740636Y-93749967D01*
X147712822Y-93744767D01*
X147712693Y-93744743D01*
X147677215Y-93738072D01*
X147677216Y-93738072D01*
X147676561Y-93737949D01*
X147676333Y-93737939D01*
X147676139Y-93737910D01*
X147640986Y-93731338D01*
X147626943Y-93728713D01*
X147563658Y-93696534D01*
X147527817Y-93635248D01*
X147530799Y-93564314D01*
X147545833Y-93534113D01*
X147557708Y-93516612D01*
X147558107Y-93516027D01*
X147572516Y-93495046D01*
X147572840Y-93494610D01*
X147573268Y-93494154D01*
X147595454Y-93461646D01*
X147612523Y-93436792D01*
X147614853Y-93433399D01*
X147614857Y-93433392D01*
X147615845Y-93431954D01*
X147616120Y-93431397D01*
X147616412Y-93430936D01*
X147628538Y-93413170D01*
X147642862Y-93392182D01*
X147644125Y-93390458D01*
X147645577Y-93388878D01*
X147665942Y-93358375D01*
X147666651Y-93357324D01*
X147683121Y-93333192D01*
X147685645Y-93329494D01*
X147686587Y-93327578D01*
X147687758Y-93325702D01*
X147707492Y-93296145D01*
X147709094Y-93293906D01*
X147710828Y-93291971D01*
X147730447Y-93261781D01*
X147731307Y-93260475D01*
X147747093Y-93236831D01*
X147747095Y-93236828D01*
X147749585Y-93233098D01*
X147750704Y-93230761D01*
X147752176Y-93228343D01*
X147762039Y-93213166D01*
X147764835Y-93209124D01*
X147767426Y-93206118D01*
X147785309Y-93177397D01*
X147786619Y-93175339D01*
X147800884Y-93153388D01*
X147800885Y-93153387D01*
X147803326Y-93149630D01*
X147804571Y-93146945D01*
X147812137Y-93135533D01*
X147812104Y-93135511D01*
X147814803Y-93131467D01*
X147817812Y-93127637D01*
X147820196Y-93123389D01*
X147822003Y-93120169D01*
X147823194Y-93118342D01*
X147824770Y-93116767D01*
X147827684Y-93111450D01*
X147827688Y-93111444D01*
X147835644Y-93096927D01*
X147839195Y-93090856D01*
X147839861Y-93089787D01*
X147841921Y-93086964D01*
X147846033Y-93080427D01*
X147851838Y-93073586D01*
X147855489Y-93065393D01*
X147855491Y-93065390D01*
X147863735Y-93046890D01*
X147868940Y-93036523D01*
X147873453Y-93028480D01*
X147873456Y-93028473D01*
X147875639Y-93024583D01*
X147876323Y-93022816D01*
X147876566Y-93022338D01*
X147876757Y-93021915D01*
X147879092Y-93017654D01*
X147887564Y-92994223D01*
X147890961Y-92985794D01*
X147908057Y-92947430D01*
X147911710Y-92939233D01*
X147912916Y-92930336D01*
X147913339Y-92927218D01*
X147913371Y-92927043D01*
X147915269Y-92922137D01*
X147917079Y-92900802D01*
X147917769Y-92894536D01*
X147918583Y-92888529D01*
X147920072Y-92879840D01*
X147928646Y-92838535D01*
X147928646Y-92838531D01*
X147930471Y-92829740D01*
X147929755Y-92820790D01*
X147930315Y-92811831D01*
X147930461Y-92811840D01*
X147930475Y-92811343D01*
X147930328Y-92811344D01*
X147930261Y-92802370D01*
X147931466Y-92793476D01*
X147928704Y-92775171D01*
X147923832Y-92742881D01*
X147922822Y-92734126D01*
X147920892Y-92710000D01*
X148546502Y-92710000D01*
X148566457Y-92938087D01*
X148567881Y-92943400D01*
X148567881Y-92943402D01*
X148619747Y-93136965D01*
X148625716Y-93159243D01*
X148628039Y-93164224D01*
X148628039Y-93164225D01*
X148720151Y-93361762D01*
X148720154Y-93361767D01*
X148722477Y-93366749D01*
X148767503Y-93431052D01*
X148827413Y-93516612D01*
X148853802Y-93554300D01*
X149015700Y-93716198D01*
X149020208Y-93719355D01*
X149020211Y-93719357D01*
X149090425Y-93768521D01*
X149203251Y-93847523D01*
X149208233Y-93849846D01*
X149208238Y-93849849D01*
X149405775Y-93941961D01*
X149410757Y-93944284D01*
X149416065Y-93945706D01*
X149416067Y-93945707D01*
X149626598Y-94002119D01*
X149626600Y-94002119D01*
X149631913Y-94003543D01*
X149860000Y-94023498D01*
X150088087Y-94003543D01*
X150093400Y-94002119D01*
X150093402Y-94002119D01*
X150303933Y-93945707D01*
X150303935Y-93945706D01*
X150309243Y-93944284D01*
X150314225Y-93941961D01*
X150511762Y-93849849D01*
X150511767Y-93849846D01*
X150516749Y-93847523D01*
X150629575Y-93768521D01*
X150699789Y-93719357D01*
X150699792Y-93719355D01*
X150704300Y-93716198D01*
X150866198Y-93554300D01*
X150892588Y-93516612D01*
X150952497Y-93431052D01*
X150997523Y-93366749D01*
X150999846Y-93361767D01*
X150999849Y-93361762D01*
X151091961Y-93164225D01*
X151091961Y-93164224D01*
X151094284Y-93159243D01*
X151100254Y-93136965D01*
X151152119Y-92943402D01*
X151152119Y-92943400D01*
X151153543Y-92938087D01*
X151173498Y-92710000D01*
X151153543Y-92481913D01*
X151143893Y-92445899D01*
X151095707Y-92266067D01*
X151095706Y-92266065D01*
X151094284Y-92260757D01*
X151090718Y-92253109D01*
X150999849Y-92058238D01*
X150999846Y-92058233D01*
X150997523Y-92053251D01*
X150910438Y-91928881D01*
X150869357Y-91870211D01*
X150869355Y-91870208D01*
X150866198Y-91865700D01*
X150704300Y-91703802D01*
X150699792Y-91700645D01*
X150699789Y-91700643D01*
X150621611Y-91645902D01*
X150516749Y-91572477D01*
X150511767Y-91570154D01*
X150511762Y-91570151D01*
X150314225Y-91478039D01*
X150314224Y-91478039D01*
X150309243Y-91475716D01*
X150303935Y-91474294D01*
X150303933Y-91474293D01*
X150093402Y-91417881D01*
X150093400Y-91417881D01*
X150088087Y-91416457D01*
X149860000Y-91396502D01*
X149631913Y-91416457D01*
X149626600Y-91417881D01*
X149626598Y-91417881D01*
X149416067Y-91474293D01*
X149416065Y-91474294D01*
X149410757Y-91475716D01*
X149405776Y-91478039D01*
X149405775Y-91478039D01*
X149208238Y-91570151D01*
X149208233Y-91570154D01*
X149203251Y-91572477D01*
X149098389Y-91645902D01*
X149020211Y-91700643D01*
X149020208Y-91700645D01*
X149015700Y-91703802D01*
X148853802Y-91865700D01*
X148850645Y-91870208D01*
X148850643Y-91870211D01*
X148809562Y-91928881D01*
X148722477Y-92053251D01*
X148720154Y-92058233D01*
X148720151Y-92058238D01*
X148629282Y-92253109D01*
X148625716Y-92260757D01*
X148624294Y-92266065D01*
X148624293Y-92266067D01*
X148576107Y-92445899D01*
X148566457Y-92481913D01*
X148546502Y-92710000D01*
X147920892Y-92710000D01*
X147919458Y-92692064D01*
X147919457Y-92692062D01*
X147918742Y-92683117D01*
X147915544Y-92674730D01*
X147913567Y-92665975D01*
X147913710Y-92665943D01*
X147913584Y-92665462D01*
X147913443Y-92665504D01*
X147910859Y-92656908D01*
X147909520Y-92648033D01*
X147905745Y-92639894D01*
X147905744Y-92639890D01*
X147887990Y-92601609D01*
X147884566Y-92593494D01*
X147869531Y-92554067D01*
X147869531Y-92554066D01*
X147866333Y-92545681D01*
X147858147Y-92534885D01*
X147834792Y-92504087D01*
X147828332Y-92494716D01*
X147817357Y-92477149D01*
X147817350Y-92477140D01*
X147814774Y-92473016D01*
X147811590Y-92469333D01*
X147811355Y-92469015D01*
X147808886Y-92466001D01*
X147806735Y-92462779D01*
X147803741Y-92459440D01*
X147803738Y-92459436D01*
X147789007Y-92443008D01*
X147782416Y-92435020D01*
X147781546Y-92433873D01*
X147777456Y-92428479D01*
X147775317Y-92426894D01*
X147774447Y-92425920D01*
X147773172Y-92424299D01*
X147770466Y-92420251D01*
X147765701Y-92415071D01*
X147750049Y-92398056D01*
X147747463Y-92395156D01*
X147732749Y-92378136D01*
X147732746Y-92378133D01*
X147729812Y-92374739D01*
X147726425Y-92371794D01*
X147723265Y-92368625D01*
X147723355Y-92368535D01*
X147718988Y-92364289D01*
X147717270Y-92362422D01*
X147715059Y-92359861D01*
X147713303Y-92357317D01*
X147689044Y-92331718D01*
X147687767Y-92330350D01*
X147669057Y-92310010D01*
X147666026Y-92306715D01*
X147663648Y-92304772D01*
X147661151Y-92302282D01*
X147647006Y-92287356D01*
X147645663Y-92285840D01*
X147644504Y-92284194D01*
X147641127Y-92280698D01*
X147641122Y-92280692D01*
X147618774Y-92257556D01*
X147618011Y-92256759D01*
X147594750Y-92232213D01*
X147593173Y-92230963D01*
X147591703Y-92229532D01*
X147569452Y-92206497D01*
X147568424Y-92205356D01*
X147567502Y-92204068D01*
X147564564Y-92201072D01*
X147564556Y-92201063D01*
X147541134Y-92177177D01*
X147540474Y-92176499D01*
X147519461Y-92154746D01*
X147516571Y-92151754D01*
X147515310Y-92150774D01*
X147514221Y-92149732D01*
X147488033Y-92123026D01*
X147487092Y-92121996D01*
X147486208Y-92120779D01*
X147483400Y-92117956D01*
X147483393Y-92117948D01*
X147459505Y-92093930D01*
X147459074Y-92093495D01*
X147434740Y-92068678D01*
X147433554Y-92067771D01*
X147432506Y-92066783D01*
X147406727Y-92040863D01*
X147405632Y-92039682D01*
X147404644Y-92038345D01*
X147401541Y-92035274D01*
X147401532Y-92035264D01*
X147377945Y-92011918D01*
X147377360Y-92011336D01*
X147353073Y-91986915D01*
X147351746Y-91985915D01*
X147350566Y-91984819D01*
X147343749Y-91978072D01*
X147329471Y-91963939D01*
X147327937Y-91962316D01*
X147326606Y-91960552D01*
X147311636Y-91946043D01*
X147300309Y-91935064D01*
X147299364Y-91934139D01*
X147278717Y-91913703D01*
X147275529Y-91910547D01*
X147273762Y-91909237D01*
X147272066Y-91907690D01*
X147260190Y-91896179D01*
X147257237Y-91893141D01*
X147255026Y-91890315D01*
X147251471Y-91886987D01*
X147229877Y-91866772D01*
X147228313Y-91865283D01*
X147205804Y-91843466D01*
X147203967Y-91842133D01*
X147195150Y-91833366D01*
X147195011Y-91833504D01*
X147191584Y-91830050D01*
X147188432Y-91826339D01*
X147184297Y-91822769D01*
X147178978Y-91818176D01*
X147178056Y-91817263D01*
X147177325Y-91816147D01*
X147174456Y-91813699D01*
X147174451Y-91813694D01*
X147162281Y-91803310D01*
X147157960Y-91799448D01*
X147149882Y-91791886D01*
X147149881Y-91791885D01*
X147146612Y-91788825D01*
X147142943Y-91786259D01*
X147140176Y-91784016D01*
X147134759Y-91779826D01*
X147118555Y-91766000D01*
X147109644Y-91757615D01*
X147095121Y-91742553D01*
X147087327Y-91738099D01*
X147087324Y-91738097D01*
X147049548Y-91716511D01*
X147044078Y-91713198D01*
X147030298Y-91704367D01*
X147003207Y-91687006D01*
X146994588Y-91684477D01*
X146994391Y-91684387D01*
X146984144Y-91679138D01*
X146967411Y-91669576D01*
X146958680Y-91667489D01*
X146958678Y-91667488D01*
X146950460Y-91665523D01*
X146929572Y-91658551D01*
X146921813Y-91655182D01*
X146921812Y-91655182D01*
X146913578Y-91651606D01*
X146904675Y-91650485D01*
X146904673Y-91650485D01*
X146875362Y-91646796D01*
X146861806Y-91644330D01*
X146824353Y-91635376D01*
X146815388Y-91635823D01*
X146815386Y-91635823D01*
X146806940Y-91636244D01*
X146784933Y-91635414D01*
X146784631Y-91635376D01*
X146767639Y-91633237D01*
X146729605Y-91639347D01*
X146715917Y-91640783D01*
X146690532Y-91642049D01*
X146686407Y-91642255D01*
X146677446Y-91642702D01*
X146660973Y-91648424D01*
X146639627Y-91653801D01*
X146631274Y-91655143D01*
X146631273Y-91655143D01*
X146622411Y-91656567D01*
X146587611Y-91673110D01*
X146576224Y-91677778D01*
X146575280Y-91678190D01*
X146570680Y-91679788D01*
X146566390Y-91682070D01*
X146566382Y-91682073D01*
X146548863Y-91691390D01*
X146543804Y-91693936D01*
X146526531Y-91702148D01*
X146524695Y-91702977D01*
X146524011Y-91703334D01*
X146519532Y-91705249D01*
X146519346Y-91704813D01*
X146517512Y-91705176D01*
X146518001Y-91706204D01*
X146503289Y-91713198D01*
X146489569Y-91719720D01*
X146482868Y-91725696D01*
X146478674Y-91728480D01*
X146466388Y-91737126D01*
X146466663Y-91737549D01*
X146437705Y-91756341D01*
X146435934Y-91757469D01*
X146409307Y-91774102D01*
X146406591Y-91776393D01*
X146403047Y-91778831D01*
X146399088Y-91781400D01*
X146397518Y-91782344D01*
X146395815Y-91783125D01*
X146391782Y-91785793D01*
X146391779Y-91785795D01*
X146364755Y-91803673D01*
X146363853Y-91804265D01*
X146335337Y-91822769D01*
X146333937Y-91823991D01*
X146332412Y-91825070D01*
X146310985Y-91839247D01*
X146309914Y-91839902D01*
X146308715Y-91840461D01*
X146305752Y-91842448D01*
X146305739Y-91842456D01*
X146277055Y-91861692D01*
X146276463Y-91862087D01*
X146247419Y-91881302D01*
X146246427Y-91882184D01*
X146245420Y-91882909D01*
X146210937Y-91906033D01*
X146210185Y-91906498D01*
X146209296Y-91906918D01*
X146179147Y-91927338D01*
X146177346Y-91928558D01*
X146176901Y-91928857D01*
X146147519Y-91948562D01*
X146146786Y-91949223D01*
X146146078Y-91949738D01*
X146135662Y-91956792D01*
X146135399Y-91956956D01*
X146135038Y-91957127D01*
X146110085Y-91974095D01*
X146102584Y-91979196D01*
X146102385Y-91979331D01*
X146072216Y-91999765D01*
X146071926Y-92000029D01*
X146071654Y-92000228D01*
X146032437Y-92026895D01*
X145964860Y-92048659D01*
X145896243Y-92030434D01*
X145848372Y-91978004D01*
X145837768Y-91946045D01*
X145822575Y-91865456D01*
X145815056Y-91825571D01*
X145815055Y-91825569D01*
X145814567Y-91822977D01*
X145793871Y-91713198D01*
X145749538Y-91478038D01*
X145747360Y-91453926D01*
X145747375Y-91451618D01*
X145747434Y-91441900D01*
X145735193Y-91399070D01*
X145732531Y-91387818D01*
X145731235Y-91380946D01*
X145724696Y-91361765D01*
X145722812Y-91355748D01*
X145709480Y-91309101D01*
X145707014Y-91300473D01*
X145702225Y-91292883D01*
X145700544Y-91289125D01*
X145698685Y-91285473D01*
X145695789Y-91276978D01*
X145690626Y-91269640D01*
X145690625Y-91269637D01*
X145662705Y-91229951D01*
X145659196Y-91224687D01*
X145657609Y-91222171D01*
X145628525Y-91176075D01*
X145621794Y-91170131D01*
X145619132Y-91167003D01*
X145616318Y-91164014D01*
X145611155Y-91156675D01*
X145566207Y-91120827D01*
X145561376Y-91116771D01*
X145525004Y-91084649D01*
X145518276Y-91078707D01*
X145510152Y-91074893D01*
X145506698Y-91072624D01*
X145503172Y-91070554D01*
X145496160Y-91064961D01*
X145464582Y-91052027D01*
X145442958Y-91043169D01*
X145437169Y-91040626D01*
X145393255Y-91020009D01*
X145393254Y-91020009D01*
X145385131Y-91016195D01*
X145376268Y-91014815D01*
X145372360Y-91013620D01*
X145368355Y-91012612D01*
X145360046Y-91009209D01*
X145302858Y-91003225D01*
X145296587Y-91002409D01*
X145273453Y-90998807D01*
X145267215Y-90998807D01*
X145254102Y-90998123D01*
X145222681Y-90994835D01*
X145213755Y-90993901D01*
X145204924Y-90995510D01*
X145198031Y-90996766D01*
X145175445Y-90998807D01*
X144369942Y-90998807D01*
X144345844Y-90996481D01*
X144345687Y-90996450D01*
X144334035Y-90994180D01*
X144289687Y-90998274D01*
X144278105Y-90998807D01*
X144271137Y-90998807D01*
X144266707Y-90999441D01*
X144266700Y-90999442D01*
X144251105Y-91001676D01*
X144244823Y-91002416D01*
X144196504Y-91006876D01*
X144196503Y-91006876D01*
X144187568Y-91007701D01*
X144179222Y-91011001D01*
X144175227Y-91011955D01*
X144171288Y-91013107D01*
X144162402Y-91014379D01*
X144154232Y-91018094D01*
X144154231Y-91018094D01*
X144110057Y-91038179D01*
X144104234Y-91040651D01*
X144050783Y-91061786D01*
X144043693Y-91067300D01*
X144040124Y-91069338D01*
X144036673Y-91071545D01*
X144028502Y-91075260D01*
X144021703Y-91081118D01*
X144021702Y-91081119D01*
X143984949Y-91112788D01*
X143980055Y-91116795D01*
X143941761Y-91146577D01*
X143941758Y-91146580D01*
X143934676Y-91152088D01*
X143929422Y-91159365D01*
X143926568Y-91162324D01*
X143923871Y-91165416D01*
X143917072Y-91171274D01*
X143912190Y-91178806D01*
X143912189Y-91178807D01*
X143885798Y-91219523D01*
X143882245Y-91224715D01*
X143848581Y-91271348D01*
X143845581Y-91279807D01*
X143843673Y-91283446D01*
X143841952Y-91287171D01*
X143837069Y-91294704D01*
X143820595Y-91349789D01*
X143818632Y-91355799D01*
X143810805Y-91377871D01*
X143809903Y-91382657D01*
X143809652Y-91383989D01*
X143806550Y-91396752D01*
X143794924Y-91435626D01*
X143794869Y-91444601D01*
X143794869Y-91444603D01*
X143794826Y-91451618D01*
X143792647Y-91474188D01*
X143714240Y-91890098D01*
X143703693Y-91946043D01*
X143671417Y-92009279D01*
X143610077Y-92045027D01*
X143539148Y-92041938D01*
X143509022Y-92026893D01*
X143472318Y-92001934D01*
X143471911Y-92001635D01*
X143471489Y-92001243D01*
X143438877Y-91979196D01*
X143416454Y-91963948D01*
X143410362Y-91959805D01*
X143410355Y-91959800D01*
X143409010Y-91958886D01*
X143408497Y-91958635D01*
X143408075Y-91958370D01*
X143367062Y-91930643D01*
X143366163Y-91929987D01*
X143365273Y-91929170D01*
X143360643Y-91926078D01*
X143333543Y-91907981D01*
X143332947Y-91907581D01*
X143331966Y-91906918D01*
X143303898Y-91887942D01*
X143302808Y-91887412D01*
X143301853Y-91886819D01*
X143270742Y-91866044D01*
X143269613Y-91865231D01*
X143268517Y-91864238D01*
X143236822Y-91843391D01*
X143236297Y-91843042D01*
X143210661Y-91825923D01*
X143210650Y-91825916D01*
X143207418Y-91823758D01*
X143206088Y-91823122D01*
X143204888Y-91822386D01*
X143188131Y-91811364D01*
X143186267Y-91810047D01*
X143184595Y-91808564D01*
X143177936Y-91804285D01*
X143153850Y-91788807D01*
X143152725Y-91788076D01*
X143128473Y-91772124D01*
X143124730Y-91769662D01*
X143124238Y-91769431D01*
X143117082Y-91764867D01*
X143113884Y-91762164D01*
X143109735Y-91759636D01*
X143109731Y-91759633D01*
X143086239Y-91745319D01*
X143083686Y-91743721D01*
X143059111Y-91727929D01*
X143059367Y-91727531D01*
X143046577Y-91718880D01*
X143045896Y-91718319D01*
X143034431Y-91708870D01*
X143026181Y-91705335D01*
X143026179Y-91705334D01*
X142979118Y-91685170D01*
X142973997Y-91682839D01*
X142958511Y-91675369D01*
X142958508Y-91675368D01*
X142954468Y-91673419D01*
X142949639Y-91671887D01*
X142938118Y-91667603D01*
X142914132Y-91657326D01*
X142899230Y-91650941D01*
X142885715Y-91649307D01*
X142862744Y-91644321D01*
X142858322Y-91642918D01*
X142858321Y-91642918D01*
X142849766Y-91640204D01*
X142840795Y-91640000D01*
X142840793Y-91640000D01*
X142826929Y-91639686D01*
X142807456Y-91639243D01*
X142795210Y-91638366D01*
X142753203Y-91633287D01*
X142744347Y-91634754D01*
X142744345Y-91634754D01*
X142739777Y-91635511D01*
X142716327Y-91637173D01*
X142715280Y-91637149D01*
X142702713Y-91636864D01*
X142661840Y-91647815D01*
X142649845Y-91650409D01*
X142639951Y-91652048D01*
X142616950Y-91655858D01*
X142616947Y-91655859D01*
X142608091Y-91657326D01*
X142595824Y-91663232D01*
X142573778Y-91671409D01*
X142569303Y-91672608D01*
X142569301Y-91672609D01*
X142560634Y-91674931D01*
X142531282Y-91692777D01*
X142529731Y-91690225D01*
X142528136Y-91691579D01*
X142529290Y-91693366D01*
X142524376Y-91696540D01*
X142510656Y-91704233D01*
X142510640Y-91704240D01*
X142510634Y-91704243D01*
X142506254Y-91706352D01*
X142493804Y-91714927D01*
X142488879Y-91718319D01*
X142482869Y-91722210D01*
X142442626Y-91746677D01*
X142442618Y-91746683D01*
X142434951Y-91751345D01*
X142428895Y-91757977D01*
X142428870Y-91757998D01*
X142421369Y-91765539D01*
X142411123Y-91774996D01*
X142400170Y-91785105D01*
X142398557Y-91786568D01*
X142394770Y-91789943D01*
X142389996Y-91793691D01*
X142390131Y-91793858D01*
X142386343Y-91796930D01*
X142382345Y-91799690D01*
X142378821Y-91803031D01*
X142378813Y-91803037D01*
X142360451Y-91820443D01*
X142357601Y-91823063D01*
X142337437Y-91841030D01*
X142334552Y-91844450D01*
X142331421Y-91847667D01*
X142331332Y-91847580D01*
X142327172Y-91851989D01*
X142325423Y-91853647D01*
X142322859Y-91855929D01*
X142320353Y-91857715D01*
X142316873Y-91861113D01*
X142295171Y-91882303D01*
X142293828Y-91883596D01*
X142287314Y-91889771D01*
X142270456Y-91905751D01*
X142268550Y-91908157D01*
X142266087Y-91910701D01*
X142251443Y-91925000D01*
X142249958Y-91926355D01*
X142248335Y-91927535D01*
X142227207Y-91948562D01*
X142222158Y-91953587D01*
X142221302Y-91954431D01*
X142197090Y-91978072D01*
X142195866Y-91979665D01*
X142194477Y-91981135D01*
X142171793Y-92003711D01*
X142170683Y-92004741D01*
X142169409Y-92005682D01*
X142166473Y-92008648D01*
X142142958Y-92032403D01*
X142142294Y-92033068D01*
X142117852Y-92057394D01*
X142116898Y-92058660D01*
X142115849Y-92059790D01*
X142089591Y-92086317D01*
X142088563Y-92087285D01*
X142087372Y-92088177D01*
X142060971Y-92115226D01*
X142060430Y-92115776D01*
X142038792Y-92137636D01*
X142038783Y-92137645D01*
X142036027Y-92140430D01*
X142035142Y-92141624D01*
X142034175Y-92142680D01*
X142008640Y-92168841D01*
X142007486Y-92169944D01*
X142006167Y-92170949D01*
X141980127Y-92198050D01*
X141979570Y-92198625D01*
X141955498Y-92223288D01*
X141954521Y-92224626D01*
X141953449Y-92225814D01*
X141932851Y-92247252D01*
X141931275Y-92248785D01*
X141929539Y-92250136D01*
X141922895Y-92257197D01*
X141904400Y-92276851D01*
X141903502Y-92277794D01*
X141880276Y-92301967D01*
X141878996Y-92303748D01*
X141877489Y-92305450D01*
X141866097Y-92317556D01*
X141863147Y-92320509D01*
X141860372Y-92322746D01*
X141837181Y-92348258D01*
X141835745Y-92349811D01*
X141817283Y-92369431D01*
X141814209Y-92372698D01*
X141812935Y-92374510D01*
X141804350Y-92383399D01*
X141804497Y-92383543D01*
X141801092Y-92387020D01*
X141797427Y-92390225D01*
X141794297Y-92393958D01*
X141789488Y-92399693D01*
X141788881Y-92400323D01*
X141788159Y-92400808D01*
X141786555Y-92402735D01*
X141786552Y-92402738D01*
X141776285Y-92415071D01*
X141772684Y-92419211D01*
X141760423Y-92432699D01*
X141757905Y-92436415D01*
X141757415Y-92437038D01*
X141746381Y-92448629D01*
X141743042Y-92452491D01*
X141736270Y-92458381D01*
X141731424Y-92465933D01*
X141731422Y-92465935D01*
X141727151Y-92472590D01*
X141721759Y-92479949D01*
X141721778Y-92479962D01*
X141719585Y-92483054D01*
X141718629Y-92484194D01*
X141718291Y-92484738D01*
X141715848Y-92487673D01*
X141713346Y-92491850D01*
X141713345Y-92491851D01*
X141699216Y-92515436D01*
X141698175Y-92517143D01*
X141687160Y-92534885D01*
X141686158Y-92536472D01*
X141661680Y-92574619D01*
X141661679Y-92574622D01*
X141656832Y-92582175D01*
X141654301Y-92590780D01*
X141654300Y-92590783D01*
X141646150Y-92618496D01*
X141641445Y-92631722D01*
X141626789Y-92666629D01*
X141625777Y-92675547D01*
X141625776Y-92675550D01*
X141624749Y-92684602D01*
X141620434Y-92705940D01*
X141615332Y-92723289D01*
X141615318Y-92732265D01*
X141615318Y-92732266D01*
X141615274Y-92761154D01*
X141614470Y-92775165D01*
X141610201Y-92812781D01*
X141611733Y-92821626D01*
X141613286Y-92830596D01*
X141615134Y-92852291D01*
X141615106Y-92870378D01*
X141617611Y-92878995D01*
X141617612Y-92878999D01*
X141625677Y-92906738D01*
X141628839Y-92920415D01*
X141635298Y-92957714D01*
X141665436Y-93019165D01*
X141669089Y-93027338D01*
X141672141Y-93034874D01*
X141677700Y-93048602D01*
X141680199Y-93052778D01*
X141680203Y-93052786D01*
X141681510Y-93054971D01*
X141687203Y-93065686D01*
X141687442Y-93066115D01*
X141689341Y-93070176D01*
X141691796Y-93073926D01*
X141693980Y-93077844D01*
X141693788Y-93077951D01*
X141695026Y-93080122D01*
X141696110Y-93081713D01*
X141700065Y-93089777D01*
X141705374Y-93095586D01*
X141710747Y-93104470D01*
X141712595Y-93108693D01*
X141715211Y-93112802D01*
X141729311Y-93134950D01*
X141731143Y-93137918D01*
X141743226Y-93158111D01*
X141743231Y-93158119D01*
X141745533Y-93161965D01*
X141748360Y-93165450D01*
X141750902Y-93169084D01*
X141753947Y-93173646D01*
X141756830Y-93178175D01*
X141758577Y-93181118D01*
X141759850Y-93183914D01*
X141762524Y-93187981D01*
X141762525Y-93187982D01*
X141779214Y-93213360D01*
X141780224Y-93214922D01*
X141795095Y-93238280D01*
X141795102Y-93238290D01*
X141797507Y-93242067D01*
X141799503Y-93244394D01*
X141801507Y-93247260D01*
X141816301Y-93269756D01*
X141817502Y-93271724D01*
X141818464Y-93273777D01*
X141821179Y-93277810D01*
X141821189Y-93277828D01*
X141838940Y-93304198D01*
X141839691Y-93305326D01*
X141855525Y-93329405D01*
X141855533Y-93329415D01*
X141857996Y-93333161D01*
X141859489Y-93334849D01*
X141860861Y-93336760D01*
X141884101Y-93371287D01*
X141884880Y-93372536D01*
X141885547Y-93373934D01*
X141906871Y-93405117D01*
X141907201Y-93405603D01*
X141926600Y-93434422D01*
X141927641Y-93435574D01*
X141928532Y-93436792D01*
X141945214Y-93461187D01*
X141945272Y-93461272D01*
X141994874Y-93533935D01*
X142016760Y-93601474D01*
X141998658Y-93670124D01*
X141946314Y-93718089D01*
X141914150Y-93728792D01*
X141894846Y-93732431D01*
X141894579Y-93732481D01*
X141868398Y-93737358D01*
X141867649Y-93737469D01*
X141866809Y-93737498D01*
X141828526Y-93744786D01*
X141828121Y-93744862D01*
X141793261Y-93751357D01*
X141792462Y-93751627D01*
X141791722Y-93751794D01*
X141745403Y-93760613D01*
X141743340Y-93760934D01*
X141741279Y-93761024D01*
X141736509Y-93761981D01*
X141736507Y-93761981D01*
X141705076Y-93768285D01*
X141703866Y-93768521D01*
X141697160Y-93769798D01*
X141670790Y-93774819D01*
X141668837Y-93775489D01*
X141666785Y-93775966D01*
X141631429Y-93783058D01*
X141628837Y-93783491D01*
X141626352Y-93783628D01*
X141621594Y-93784642D01*
X141621590Y-93784642D01*
X141590870Y-93791185D01*
X141589402Y-93791488D01*
X141557066Y-93797974D01*
X141554716Y-93798806D01*
X141552143Y-93799434D01*
X141533558Y-93803393D01*
X141529092Y-93804207D01*
X141525321Y-93804485D01*
X141520584Y-93805585D01*
X141520572Y-93805587D01*
X141492087Y-93812203D01*
X141489831Y-93812706D01*
X141487794Y-93813140D01*
X141459491Y-93819168D01*
X141457044Y-93820067D01*
X141444312Y-93822631D01*
X141444337Y-93822756D01*
X141439561Y-93823692D01*
X141434724Y-93824257D01*
X141409261Y-93831324D01*
X141404145Y-93832628D01*
X141381440Y-93837901D01*
X141376963Y-93839640D01*
X141365029Y-93843601D01*
X141362336Y-93844349D01*
X141360868Y-93844746D01*
X141328009Y-93853431D01*
X141327993Y-93853437D01*
X141323300Y-93854677D01*
X141320608Y-93855856D01*
X141312626Y-93858236D01*
X141297850Y-93861912D01*
X141297843Y-93861915D01*
X141289132Y-93864082D01*
X141281377Y-93868609D01*
X141281376Y-93868609D01*
X141257497Y-93882547D01*
X141244549Y-93889135D01*
X141227446Y-93896629D01*
X141227445Y-93896630D01*
X141219224Y-93900232D01*
X141209100Y-93908716D01*
X141191705Y-93920949D01*
X141162099Y-93938229D01*
X141157284Y-93943315D01*
X141151333Y-93947006D01*
X141120751Y-93981097D01*
X141118116Y-93983644D01*
X141113365Y-93988942D01*
X141106485Y-93994707D01*
X141101500Y-94002171D01*
X141101344Y-94002345D01*
X141099056Y-94004828D01*
X141060982Y-94045050D01*
X141057788Y-94051283D01*
X141053112Y-94056496D01*
X141049237Y-94064585D01*
X141049236Y-94064587D01*
X141025028Y-94115125D01*
X141023571Y-94118067D01*
X141009444Y-94145639D01*
X141009443Y-94145641D01*
X141009358Y-94145597D01*
X141006274Y-94152613D01*
X141001535Y-94160232D01*
X140999125Y-94168878D01*
X140998211Y-94170956D01*
X140996500Y-94174684D01*
X140989569Y-94189152D01*
X140988119Y-94198012D01*
X140988118Y-94198015D01*
X140985761Y-94212413D01*
X140981060Y-94231574D01*
X140977299Y-94242961D01*
X140976511Y-94247373D01*
X140976272Y-94248710D01*
X140973606Y-94260394D01*
X140971178Y-94269102D01*
X140970608Y-94273933D01*
X140968792Y-94289321D01*
X140967696Y-94296712D01*
X140957981Y-94351093D01*
X140958946Y-94360019D01*
X140958636Y-94368988D01*
X140958500Y-94368983D01*
X140958607Y-94373638D01*
X140958567Y-94374287D01*
X140957937Y-94381305D01*
X140956570Y-94392893D01*
X140955685Y-94400393D01*
X140955796Y-94404871D01*
X140955796Y-94404874D01*
X140955906Y-94409286D01*
X140955700Y-94420258D01*
X140955144Y-94429176D01*
X140954993Y-94431593D01*
X140954445Y-94437858D01*
X140954161Y-94440381D01*
X140953244Y-94445163D01*
X140952605Y-94463433D01*
X140952150Y-94476422D01*
X140951982Y-94479862D01*
X140950814Y-94498594D01*
X140950231Y-94507938D01*
X140950589Y-94512406D01*
X140950625Y-94516476D01*
X140950553Y-94521998D01*
X140949811Y-94543202D01*
X140949526Y-94547608D01*
X140948896Y-94551240D01*
X140948813Y-94556104D01*
X140948310Y-94585486D01*
X140948251Y-94587739D01*
X140947160Y-94618901D01*
X140947554Y-94622559D01*
X140947597Y-94627092D01*
X140947254Y-94647156D01*
X140947023Y-94660618D01*
X140946864Y-94663892D01*
X140946397Y-94666837D01*
X140946383Y-94671707D01*
X140946383Y-94671709D01*
X140946297Y-94702202D01*
X140946280Y-94703967D01*
X140945726Y-94736358D01*
X140946096Y-94739304D01*
X140946183Y-94742676D01*
X140946116Y-94766295D01*
X140946074Y-94781092D01*
X140945966Y-94784214D01*
X140945558Y-94787037D01*
X138938500Y-94787037D01*
X138938500Y-93996457D01*
X138958502Y-93928336D01*
X139012158Y-93881843D01*
X139082432Y-93871739D01*
X139117749Y-93882262D01*
X139168641Y-93905993D01*
X139240037Y-93939285D01*
X139250757Y-93944284D01*
X139256065Y-93945706D01*
X139256067Y-93945707D01*
X139466598Y-94002119D01*
X139466600Y-94002119D01*
X139471913Y-94003543D01*
X139700000Y-94023498D01*
X139928087Y-94003543D01*
X139933400Y-94002119D01*
X139933402Y-94002119D01*
X140143933Y-93945707D01*
X140143935Y-93945706D01*
X140149243Y-93944284D01*
X140154225Y-93941961D01*
X140351762Y-93849849D01*
X140351767Y-93849846D01*
X140356749Y-93847523D01*
X140469575Y-93768521D01*
X140539789Y-93719357D01*
X140539792Y-93719355D01*
X140544300Y-93716198D01*
X140706198Y-93554300D01*
X140732588Y-93516612D01*
X140792497Y-93431052D01*
X140837523Y-93366749D01*
X140839846Y-93361767D01*
X140839849Y-93361762D01*
X140931961Y-93164225D01*
X140931961Y-93164224D01*
X140934284Y-93159243D01*
X140940254Y-93136965D01*
X140992119Y-92943402D01*
X140992119Y-92943400D01*
X140993543Y-92938087D01*
X141013498Y-92710000D01*
X140993543Y-92481913D01*
X140983893Y-92445899D01*
X140935707Y-92266067D01*
X140935706Y-92266065D01*
X140934284Y-92260757D01*
X140930718Y-92253109D01*
X140839849Y-92058238D01*
X140839846Y-92058233D01*
X140837523Y-92053251D01*
X140750438Y-91928881D01*
X140709357Y-91870211D01*
X140709355Y-91870208D01*
X140706198Y-91865700D01*
X140544300Y-91703802D01*
X140539792Y-91700645D01*
X140539789Y-91700643D01*
X140461611Y-91645902D01*
X140356749Y-91572477D01*
X140351767Y-91570154D01*
X140351762Y-91570151D01*
X140154225Y-91478039D01*
X140154224Y-91478039D01*
X140149243Y-91475716D01*
X140143935Y-91474294D01*
X140143933Y-91474293D01*
X139933402Y-91417881D01*
X139933400Y-91417881D01*
X139928087Y-91416457D01*
X139700000Y-91396502D01*
X139471913Y-91416457D01*
X139466600Y-91417881D01*
X139466598Y-91417881D01*
X139256067Y-91474293D01*
X139256065Y-91474294D01*
X139250757Y-91475716D01*
X139245776Y-91478039D01*
X139245775Y-91478039D01*
X139117750Y-91537738D01*
X139047558Y-91548399D01*
X138982745Y-91519419D01*
X138943889Y-91459999D01*
X138938500Y-91423543D01*
X138938500Y-90804500D01*
X138958502Y-90736379D01*
X139012158Y-90689886D01*
X139064500Y-90678500D01*
X140961377Y-90678500D01*
X140962148Y-90678502D01*
X141039721Y-90678976D01*
X141068152Y-90670850D01*
X141084915Y-90667272D01*
X141085753Y-90667152D01*
X141114187Y-90663080D01*
X141137564Y-90652451D01*
X141155087Y-90646004D01*
X141179771Y-90638949D01*
X141187365Y-90634157D01*
X141187368Y-90634156D01*
X141204780Y-90623170D01*
X141219865Y-90615030D01*
X141246782Y-90602792D01*
X141266235Y-90586030D01*
X141281239Y-90574927D01*
X141302958Y-90561224D01*
X141308897Y-90554499D01*
X141308901Y-90554496D01*
X141322532Y-90539062D01*
X141334724Y-90527018D01*
X141350327Y-90513573D01*
X141350329Y-90513570D01*
X141357127Y-90507713D01*
X141364940Y-90495660D01*
X141371094Y-90486165D01*
X141382385Y-90471291D01*
X141393431Y-90458783D01*
X141393432Y-90458782D01*
X141399378Y-90452049D01*
X141411943Y-90425287D01*
X141420263Y-90410309D01*
X141431471Y-90393017D01*
X141431473Y-90393012D01*
X141436352Y-90385485D01*
X141438922Y-90376892D01*
X141438924Y-90376887D01*
X141443711Y-90360880D01*
X141450372Y-90343436D01*
X141457467Y-90328324D01*
X141457468Y-90328322D01*
X141461281Y-90320200D01*
X141465830Y-90290983D01*
X141469613Y-90274268D01*
X141475515Y-90254534D01*
X141475516Y-90254528D01*
X141478086Y-90245934D01*
X141478296Y-90211494D01*
X141478329Y-90210711D01*
X141478500Y-90209614D01*
X141478500Y-90178623D01*
X141478502Y-90177853D01*
X141478952Y-90104215D01*
X141478952Y-90104214D01*
X141478976Y-90100279D01*
X141478592Y-90098935D01*
X141478500Y-90097590D01*
X141478500Y-89829669D01*
X142252001Y-89829669D01*
X142252371Y-89836490D01*
X142257895Y-89887352D01*
X142261521Y-89902604D01*
X142306676Y-90023054D01*
X142315214Y-90038649D01*
X142391715Y-90140724D01*
X142404276Y-90153285D01*
X142506351Y-90229786D01*
X142521946Y-90238324D01*
X142642394Y-90283478D01*
X142657649Y-90287105D01*
X142708514Y-90292631D01*
X142715328Y-90293000D01*
X143237885Y-90293000D01*
X143253124Y-90288525D01*
X143254329Y-90287135D01*
X143256000Y-90279452D01*
X143256000Y-90274884D01*
X143764000Y-90274884D01*
X143768475Y-90290123D01*
X143769865Y-90291328D01*
X143777548Y-90292999D01*
X144304669Y-90292999D01*
X144311490Y-90292629D01*
X144362352Y-90287105D01*
X144377604Y-90283479D01*
X144498054Y-90238324D01*
X144513649Y-90229786D01*
X144615724Y-90153285D01*
X144628285Y-90140724D01*
X144704786Y-90038649D01*
X144713324Y-90023054D01*
X144758478Y-89902606D01*
X144762105Y-89887351D01*
X144767631Y-89836486D01*
X144768000Y-89829672D01*
X144768000Y-89307115D01*
X144763525Y-89291876D01*
X144762135Y-89290671D01*
X144754452Y-89289000D01*
X143782115Y-89289000D01*
X143766876Y-89293475D01*
X143765671Y-89294865D01*
X143764000Y-89302548D01*
X143764000Y-90274884D01*
X143256000Y-90274884D01*
X143256000Y-89307115D01*
X143251525Y-89291876D01*
X143250135Y-89290671D01*
X143242452Y-89289000D01*
X142270116Y-89289000D01*
X142254877Y-89293475D01*
X142253672Y-89294865D01*
X142252001Y-89302548D01*
X142252001Y-89829669D01*
X141478500Y-89829669D01*
X141478500Y-88762885D01*
X142252000Y-88762885D01*
X142256475Y-88778124D01*
X142257865Y-88779329D01*
X142265548Y-88781000D01*
X143237885Y-88781000D01*
X143253124Y-88776525D01*
X143254329Y-88775135D01*
X143256000Y-88767452D01*
X143256000Y-87795116D01*
X143251525Y-87779877D01*
X143250135Y-87778672D01*
X143242452Y-87777001D01*
X142715331Y-87777001D01*
X142708510Y-87777371D01*
X142657648Y-87782895D01*
X142642396Y-87786521D01*
X142521946Y-87831676D01*
X142506351Y-87840214D01*
X142404276Y-87916715D01*
X142391715Y-87929276D01*
X142315214Y-88031351D01*
X142306676Y-88046946D01*
X142261522Y-88167394D01*
X142257895Y-88182649D01*
X142252369Y-88233514D01*
X142252000Y-88240328D01*
X142252000Y-88762885D01*
X141478500Y-88762885D01*
X141478500Y-86368623D01*
X141478502Y-86367853D01*
X141478800Y-86319102D01*
X141478976Y-86290279D01*
X141470850Y-86261847D01*
X141467272Y-86245085D01*
X141464352Y-86224698D01*
X141463080Y-86215813D01*
X141452451Y-86192436D01*
X141446004Y-86174913D01*
X141441416Y-86158862D01*
X141438949Y-86150229D01*
X141434156Y-86142632D01*
X141423170Y-86125220D01*
X141415030Y-86110135D01*
X141412564Y-86104711D01*
X141402792Y-86083218D01*
X141386030Y-86063765D01*
X141374927Y-86048761D01*
X141361224Y-86027042D01*
X141354499Y-86021103D01*
X141354496Y-86021099D01*
X141339062Y-86007468D01*
X141327018Y-85995276D01*
X141313573Y-85979673D01*
X141313570Y-85979671D01*
X141307713Y-85972873D01*
X141294009Y-85963990D01*
X141286165Y-85958906D01*
X141271291Y-85947615D01*
X141258783Y-85936569D01*
X141258782Y-85936568D01*
X141252049Y-85930622D01*
X141225287Y-85918057D01*
X141210309Y-85909737D01*
X141193017Y-85898529D01*
X141193012Y-85898527D01*
X141185485Y-85893648D01*
X141176892Y-85891078D01*
X141176887Y-85891076D01*
X141160880Y-85886289D01*
X141143436Y-85879628D01*
X141128324Y-85872533D01*
X141128322Y-85872532D01*
X141120200Y-85868719D01*
X141111333Y-85867338D01*
X141111332Y-85867338D01*
X141100478Y-85865648D01*
X141090983Y-85864170D01*
X141074268Y-85860387D01*
X141054534Y-85854485D01*
X141054528Y-85854484D01*
X141045934Y-85851914D01*
X141036963Y-85851859D01*
X141036962Y-85851859D01*
X141026903Y-85851798D01*
X141011494Y-85851704D01*
X141010711Y-85851671D01*
X141009614Y-85851500D01*
X140978623Y-85851500D01*
X140977853Y-85851498D01*
X140904215Y-85851048D01*
X140904214Y-85851048D01*
X140900279Y-85851024D01*
X140898935Y-85851408D01*
X140897590Y-85851500D01*
X139064500Y-85851500D01*
X138996379Y-85831498D01*
X138949886Y-85777842D01*
X138938500Y-85725500D01*
X138938500Y-82228134D01*
X139561500Y-82228134D01*
X139568255Y-82290316D01*
X139619385Y-82426705D01*
X139706739Y-82543261D01*
X139823295Y-82630615D01*
X139959684Y-82681745D01*
X140021866Y-82688500D01*
X140829775Y-82688500D01*
X140897896Y-82708502D01*
X140918870Y-82725405D01*
X142487503Y-84294038D01*
X142493356Y-84300303D01*
X142530842Y-84343274D01*
X142537056Y-84347641D01*
X142582378Y-84379494D01*
X142587674Y-84383427D01*
X142631263Y-84417606D01*
X142631266Y-84417608D01*
X142637240Y-84422292D01*
X142644164Y-84425418D01*
X142647199Y-84427256D01*
X142659898Y-84434500D01*
X142663046Y-84436188D01*
X142669261Y-84440556D01*
X142727950Y-84463438D01*
X142733995Y-84465978D01*
X142791435Y-84491913D01*
X142798908Y-84493298D01*
X142802326Y-84494369D01*
X142816315Y-84498354D01*
X142819807Y-84499251D01*
X142826889Y-84502012D01*
X142834422Y-84503004D01*
X142834423Y-84503004D01*
X142889330Y-84510233D01*
X142895843Y-84511265D01*
X142950318Y-84521361D01*
X142950320Y-84521361D01*
X142957787Y-84522745D01*
X142965367Y-84522308D01*
X142965368Y-84522308D01*
X143019112Y-84519209D01*
X143026365Y-84519000D01*
X143617677Y-84519000D01*
X143685798Y-84539002D01*
X143732291Y-84592658D01*
X143742940Y-84631392D01*
X143748255Y-84680316D01*
X143799385Y-84816705D01*
X143886739Y-84933261D01*
X143893919Y-84938642D01*
X144000565Y-85018569D01*
X144043080Y-85075428D01*
X144051000Y-85119395D01*
X144051000Y-87571401D01*
X144050708Y-87579971D01*
X144046830Y-87636852D01*
X144048135Y-87644328D01*
X144048139Y-87644409D01*
X144031728Y-87713483D01*
X143980578Y-87762719D01*
X143922312Y-87777000D01*
X143782115Y-87777000D01*
X143766876Y-87781475D01*
X143765671Y-87782865D01*
X143764000Y-87790548D01*
X143764000Y-88762885D01*
X143768475Y-88778124D01*
X143769865Y-88779329D01*
X143777548Y-88781000D01*
X144749884Y-88781000D01*
X144777390Y-88772924D01*
X144816476Y-88747804D01*
X144887472Y-88747804D01*
X144941070Y-88779605D01*
X145670503Y-89509038D01*
X145676356Y-89515303D01*
X145713842Y-89558274D01*
X145720056Y-89562641D01*
X145765389Y-89594502D01*
X145770684Y-89598435D01*
X145820239Y-89637291D01*
X145827163Y-89640417D01*
X145830212Y-89642264D01*
X145842878Y-89649489D01*
X145846043Y-89651186D01*
X145852261Y-89655556D01*
X145910996Y-89678456D01*
X145917009Y-89680983D01*
X145974435Y-89706912D01*
X145981903Y-89708296D01*
X145985311Y-89709364D01*
X145999350Y-89713364D01*
X146002814Y-89714253D01*
X146009889Y-89717012D01*
X146017418Y-89718003D01*
X146017421Y-89718004D01*
X146072345Y-89725235D01*
X146078859Y-89726267D01*
X146133317Y-89736360D01*
X146133320Y-89736360D01*
X146140786Y-89737744D01*
X146148366Y-89737307D01*
X146148367Y-89737307D01*
X146202094Y-89734209D01*
X146209347Y-89734000D01*
X147477509Y-89734000D01*
X147545630Y-89754002D01*
X147580722Y-89787729D01*
X147619092Y-89842527D01*
X147622251Y-89847038D01*
X147777962Y-90002749D01*
X147782471Y-90005906D01*
X147782473Y-90005908D01*
X147837168Y-90044206D01*
X147958346Y-90129056D01*
X148157924Y-90222120D01*
X148370629Y-90279115D01*
X148590000Y-90298307D01*
X148809371Y-90279115D01*
X149022076Y-90222120D01*
X149221654Y-90129056D01*
X149342832Y-90044206D01*
X149397527Y-90005908D01*
X149397529Y-90005906D01*
X149402038Y-90002749D01*
X149557749Y-89847038D01*
X149560908Y-89842527D01*
X149599278Y-89787729D01*
X149654736Y-89743401D01*
X149702491Y-89734000D01*
X149907275Y-89734000D01*
X149975396Y-89754002D01*
X149996370Y-89770905D01*
X151410095Y-91184630D01*
X151444121Y-91246942D01*
X151447000Y-91273725D01*
X151447000Y-95729401D01*
X151446708Y-95737971D01*
X151443569Y-95784019D01*
X151442830Y-95794852D01*
X151444135Y-95802328D01*
X151444135Y-95802332D01*
X151453663Y-95856924D01*
X151454626Y-95863449D01*
X151456560Y-95879425D01*
X151462191Y-95925960D01*
X151464875Y-95933062D01*
X151465719Y-95936500D01*
X151469583Y-95950623D01*
X151470613Y-95954034D01*
X151471919Y-95961517D01*
X151474972Y-95968472D01*
X151497239Y-96019198D01*
X151499730Y-96025304D01*
X151521994Y-96084222D01*
X151526293Y-96090477D01*
X151527935Y-96093618D01*
X151535033Y-96106372D01*
X151536870Y-96109479D01*
X151539923Y-96116433D01*
X151544546Y-96122457D01*
X151544549Y-96122463D01*
X151547491Y-96126297D01*
X151573091Y-96192518D01*
X151558826Y-96262066D01*
X151509224Y-96312862D01*
X151447528Y-96329000D01*
X151260164Y-96329000D01*
X151192043Y-96308998D01*
X151145550Y-96255342D01*
X151138457Y-96235612D01*
X151134102Y-96219357D01*
X151094284Y-96070757D01*
X151044298Y-95963560D01*
X150999849Y-95868238D01*
X150999846Y-95868233D01*
X150997523Y-95863251D01*
X150920852Y-95753754D01*
X150869357Y-95680211D01*
X150869355Y-95680208D01*
X150866198Y-95675700D01*
X150704300Y-95513802D01*
X150699792Y-95510645D01*
X150699789Y-95510643D01*
X150621611Y-95455902D01*
X150516749Y-95382477D01*
X150511767Y-95380154D01*
X150511762Y-95380151D01*
X150314225Y-95288039D01*
X150314224Y-95288039D01*
X150309243Y-95285716D01*
X150303935Y-95284294D01*
X150303933Y-95284293D01*
X150093402Y-95227881D01*
X150093400Y-95227881D01*
X150088087Y-95226457D01*
X149860000Y-95206502D01*
X149631913Y-95226457D01*
X149626600Y-95227881D01*
X149626598Y-95227881D01*
X149416067Y-95284293D01*
X149416065Y-95284294D01*
X149410757Y-95285716D01*
X149405776Y-95288039D01*
X149405775Y-95288039D01*
X149208238Y-95380151D01*
X149208233Y-95380154D01*
X149203251Y-95382477D01*
X149098389Y-95455902D01*
X149020211Y-95510643D01*
X149020208Y-95510645D01*
X149015700Y-95513802D01*
X148853802Y-95675700D01*
X148850645Y-95680208D01*
X148850643Y-95680211D01*
X148799148Y-95753754D01*
X148722477Y-95863251D01*
X148720154Y-95868233D01*
X148720151Y-95868238D01*
X148675702Y-95963560D01*
X148625716Y-96070757D01*
X148624294Y-96076064D01*
X148624293Y-96076067D01*
X148574140Y-96263239D01*
X148566457Y-96291913D01*
X148546502Y-96520000D01*
X148566457Y-96748087D01*
X148567881Y-96753400D01*
X148567881Y-96753402D01*
X148624258Y-96963800D01*
X148625716Y-96969243D01*
X148628039Y-96974224D01*
X148628039Y-96974225D01*
X148720151Y-97171762D01*
X148720154Y-97171767D01*
X148722477Y-97176749D01*
X148791885Y-97275873D01*
X148850005Y-97358877D01*
X148853802Y-97364300D01*
X149015700Y-97526198D01*
X149020208Y-97529355D01*
X149020211Y-97529357D01*
X149085453Y-97575040D01*
X149203251Y-97657523D01*
X149208233Y-97659846D01*
X149208238Y-97659849D01*
X149405775Y-97751961D01*
X149410757Y-97754284D01*
X149416065Y-97755706D01*
X149416067Y-97755707D01*
X149626598Y-97812119D01*
X149626600Y-97812119D01*
X149631913Y-97813543D01*
X149860000Y-97833498D01*
X150088087Y-97813543D01*
X150093400Y-97812119D01*
X150093402Y-97812119D01*
X150303933Y-97755707D01*
X150303935Y-97755706D01*
X150309243Y-97754284D01*
X150314225Y-97751961D01*
X150342438Y-97738805D01*
X150395688Y-97727000D01*
X153340010Y-97727000D01*
X153362969Y-97729110D01*
X153371787Y-97730744D01*
X153379367Y-97730307D01*
X153379368Y-97730307D01*
X153433094Y-97727209D01*
X153440347Y-97727000D01*
X158213401Y-97727000D01*
X158221971Y-97727292D01*
X158271277Y-97730654D01*
X158271281Y-97730654D01*
X158278852Y-97731170D01*
X158286328Y-97729865D01*
X158286332Y-97729865D01*
X158340924Y-97720337D01*
X158347449Y-97719374D01*
X158402418Y-97712722D01*
X158402420Y-97712721D01*
X158409960Y-97711809D01*
X158417062Y-97709125D01*
X158420500Y-97708281D01*
X158434623Y-97704417D01*
X158438034Y-97703387D01*
X158445517Y-97702081D01*
X158465065Y-97693500D01*
X158503198Y-97676761D01*
X158509304Y-97674270D01*
X158561117Y-97654691D01*
X158561118Y-97654690D01*
X158568222Y-97652006D01*
X158574477Y-97647707D01*
X158577618Y-97646065D01*
X158590372Y-97638967D01*
X158593478Y-97637130D01*
X158600433Y-97634077D01*
X158606460Y-97629452D01*
X158606464Y-97629450D01*
X158650402Y-97595735D01*
X158655720Y-97591871D01*
X158707652Y-97556179D01*
X158728176Y-97533144D01*
X158748518Y-97510312D01*
X158753499Y-97505036D01*
X161039510Y-95219025D01*
X161101822Y-95184999D01*
X161172637Y-95190064D01*
X161229473Y-95232611D01*
X161254126Y-95297138D01*
X161258589Y-95348157D01*
X161265977Y-95432606D01*
X161265978Y-95432611D01*
X161266457Y-95438087D01*
X161267881Y-95443400D01*
X161267881Y-95443402D01*
X161316759Y-95625814D01*
X161325716Y-95659243D01*
X161328039Y-95664224D01*
X161328039Y-95664225D01*
X161420151Y-95861762D01*
X161420154Y-95861767D01*
X161422477Y-95866749D01*
X161489362Y-95962271D01*
X161533499Y-96025304D01*
X161553802Y-96054300D01*
X161715700Y-96216198D01*
X161720208Y-96219355D01*
X161720211Y-96219357D01*
X161771603Y-96255342D01*
X161903251Y-96347523D01*
X161908233Y-96349846D01*
X161908238Y-96349849D01*
X162083468Y-96431559D01*
X162110757Y-96444284D01*
X162116065Y-96445706D01*
X162116067Y-96445707D01*
X162326598Y-96502119D01*
X162326600Y-96502119D01*
X162331913Y-96503543D01*
X162560000Y-96523498D01*
X162788087Y-96503543D01*
X162793400Y-96502119D01*
X162793402Y-96502119D01*
X163003933Y-96445707D01*
X163003935Y-96445706D01*
X163009243Y-96444284D01*
X163036532Y-96431559D01*
X163211762Y-96349849D01*
X163211767Y-96349846D01*
X163216749Y-96347523D01*
X163348397Y-96255342D01*
X163399789Y-96219357D01*
X163399792Y-96219355D01*
X163404300Y-96216198D01*
X163566198Y-96054300D01*
X163586502Y-96025304D01*
X163630638Y-95962271D01*
X163697523Y-95866749D01*
X163699846Y-95861767D01*
X163699849Y-95861762D01*
X163791961Y-95664225D01*
X163791961Y-95664224D01*
X163794284Y-95659243D01*
X163803242Y-95625814D01*
X163852119Y-95443402D01*
X163852119Y-95443400D01*
X163853543Y-95438087D01*
X163873498Y-95210000D01*
X163853543Y-94981913D01*
X163850374Y-94970087D01*
X163795707Y-94766067D01*
X163795706Y-94766065D01*
X163794284Y-94760757D01*
X163778085Y-94726017D01*
X163699849Y-94558238D01*
X163699846Y-94558233D01*
X163697523Y-94553251D01*
X163600564Y-94414780D01*
X163569357Y-94370211D01*
X163569355Y-94370208D01*
X163566198Y-94365700D01*
X163420498Y-94220000D01*
X163386472Y-94157688D01*
X163391537Y-94086873D01*
X163434084Y-94030037D01*
X163470737Y-94012868D01*
X163470316Y-94011745D01*
X163519785Y-93993200D01*
X163606705Y-93960615D01*
X163723261Y-93873261D01*
X163810615Y-93756705D01*
X163861745Y-93620316D01*
X163868500Y-93558134D01*
X163868500Y-91861866D01*
X163864551Y-91825518D01*
X163877078Y-91755638D01*
X163900719Y-91722816D01*
X165793866Y-89829669D01*
X167652001Y-89829669D01*
X167652371Y-89836490D01*
X167657895Y-89887352D01*
X167661521Y-89902604D01*
X167706676Y-90023054D01*
X167715214Y-90038649D01*
X167791715Y-90140724D01*
X167804276Y-90153285D01*
X167906351Y-90229786D01*
X167921946Y-90238324D01*
X168042394Y-90283478D01*
X168057649Y-90287105D01*
X168108514Y-90292631D01*
X168115328Y-90293000D01*
X168637885Y-90293000D01*
X168653124Y-90288525D01*
X168654329Y-90287135D01*
X168656000Y-90279452D01*
X168656000Y-90274884D01*
X169164000Y-90274884D01*
X169168475Y-90290123D01*
X169169865Y-90291328D01*
X169177548Y-90292999D01*
X169704669Y-90292999D01*
X169711490Y-90292629D01*
X169762352Y-90287105D01*
X169777604Y-90283479D01*
X169898054Y-90238324D01*
X169913649Y-90229786D01*
X170015724Y-90153285D01*
X170028285Y-90140724D01*
X170104786Y-90038649D01*
X170113324Y-90023054D01*
X170158478Y-89902606D01*
X170162105Y-89887351D01*
X170167631Y-89836486D01*
X170168000Y-89829672D01*
X170168000Y-89307115D01*
X170163525Y-89291876D01*
X170162135Y-89290671D01*
X170154452Y-89289000D01*
X169182115Y-89289000D01*
X169166876Y-89293475D01*
X169165671Y-89294865D01*
X169164000Y-89302548D01*
X169164000Y-90274884D01*
X168656000Y-90274884D01*
X168656000Y-89307115D01*
X168651525Y-89291876D01*
X168650135Y-89290671D01*
X168642452Y-89289000D01*
X167670116Y-89289000D01*
X167654877Y-89293475D01*
X167653672Y-89294865D01*
X167652001Y-89302548D01*
X167652001Y-89829669D01*
X165793866Y-89829669D01*
X167436905Y-88186630D01*
X167499217Y-88152604D01*
X167570032Y-88157669D01*
X167626868Y-88200216D01*
X167651679Y-88266736D01*
X167652000Y-88275725D01*
X167652000Y-88762885D01*
X167656475Y-88778124D01*
X167657865Y-88779329D01*
X167665548Y-88781000D01*
X168637885Y-88781000D01*
X168653124Y-88776525D01*
X168654329Y-88775135D01*
X168656000Y-88767452D01*
X168656000Y-88762885D01*
X169164000Y-88762885D01*
X169168475Y-88778124D01*
X169169865Y-88779329D01*
X169177548Y-88781000D01*
X170149884Y-88781000D01*
X170165123Y-88776525D01*
X170166328Y-88775135D01*
X170167999Y-88767452D01*
X170167999Y-88240331D01*
X170167629Y-88233510D01*
X170162105Y-88182648D01*
X170158479Y-88167396D01*
X170113324Y-88046946D01*
X170104786Y-88031351D01*
X170028285Y-87929276D01*
X170015724Y-87916715D01*
X169913649Y-87840214D01*
X169898054Y-87831676D01*
X169777606Y-87786522D01*
X169762351Y-87782895D01*
X169711486Y-87777369D01*
X169704672Y-87777000D01*
X169182115Y-87777000D01*
X169166876Y-87781475D01*
X169165671Y-87782865D01*
X169164000Y-87790548D01*
X169164000Y-88762885D01*
X168656000Y-88762885D01*
X168656000Y-87795116D01*
X168651525Y-87779877D01*
X168650135Y-87778672D01*
X168642452Y-87777001D01*
X168150724Y-87777001D01*
X168082603Y-87756999D01*
X168036110Y-87703343D01*
X168026006Y-87633069D01*
X168055500Y-87568489D01*
X168061629Y-87561906D01*
X170508130Y-85115405D01*
X170570442Y-85081379D01*
X170597225Y-85078500D01*
X170698134Y-85078500D01*
X170760316Y-85071745D01*
X170767715Y-85068971D01*
X170770854Y-85068225D01*
X170829146Y-85068225D01*
X170832285Y-85068971D01*
X170839684Y-85071745D01*
X170901866Y-85078500D01*
X170941481Y-85078500D01*
X171009602Y-85098502D01*
X171056095Y-85152158D01*
X171066199Y-85222432D01*
X171036705Y-85287012D01*
X170994731Y-85318695D01*
X170823334Y-85398618D01*
X170823329Y-85398621D01*
X170818347Y-85400944D01*
X170813840Y-85404100D01*
X170813838Y-85404101D01*
X170642473Y-85524092D01*
X170642470Y-85524094D01*
X170637962Y-85527251D01*
X170482251Y-85682962D01*
X170479094Y-85687470D01*
X170479092Y-85687473D01*
X170363988Y-85851859D01*
X170355944Y-85863347D01*
X170353621Y-85868329D01*
X170353618Y-85868334D01*
X170326352Y-85926807D01*
X170262880Y-86062924D01*
X170205885Y-86275629D01*
X170186693Y-86495000D01*
X170205885Y-86714371D01*
X170262880Y-86927076D01*
X170306415Y-87020438D01*
X170353618Y-87121666D01*
X170353621Y-87121671D01*
X170355944Y-87126653D01*
X170359100Y-87131160D01*
X170359101Y-87131162D01*
X170419631Y-87217607D01*
X170482251Y-87307038D01*
X170637962Y-87462749D01*
X170642471Y-87465906D01*
X170642473Y-87465908D01*
X170697271Y-87504278D01*
X170741599Y-87559736D01*
X170751000Y-87607491D01*
X170751000Y-90590275D01*
X170730998Y-90658396D01*
X170714095Y-90679370D01*
X169419370Y-91974095D01*
X169357058Y-92008121D01*
X169330275Y-92011000D01*
X168813530Y-92011000D01*
X168745409Y-91990998D01*
X168710317Y-91957271D01*
X168649357Y-91870211D01*
X168649355Y-91870208D01*
X168646198Y-91865700D01*
X168484300Y-91703802D01*
X168479792Y-91700645D01*
X168479789Y-91700643D01*
X168401611Y-91645902D01*
X168296749Y-91572477D01*
X168291767Y-91570154D01*
X168291762Y-91570151D01*
X168094225Y-91478039D01*
X168094224Y-91478039D01*
X168089243Y-91475716D01*
X168083935Y-91474294D01*
X168083933Y-91474293D01*
X167873402Y-91417881D01*
X167873400Y-91417881D01*
X167868087Y-91416457D01*
X167640000Y-91396502D01*
X167411913Y-91416457D01*
X167406600Y-91417881D01*
X167406598Y-91417881D01*
X167196067Y-91474293D01*
X167196065Y-91474294D01*
X167190757Y-91475716D01*
X167185776Y-91478039D01*
X167185775Y-91478039D01*
X166988238Y-91570151D01*
X166988233Y-91570154D01*
X166983251Y-91572477D01*
X166878389Y-91645902D01*
X166800211Y-91700643D01*
X166800208Y-91700645D01*
X166795700Y-91703802D01*
X166633802Y-91865700D01*
X166630645Y-91870208D01*
X166630643Y-91870211D01*
X166589562Y-91928881D01*
X166502477Y-92053251D01*
X166500154Y-92058233D01*
X166500151Y-92058238D01*
X166409282Y-92253109D01*
X166405716Y-92260757D01*
X166404294Y-92266065D01*
X166404293Y-92266067D01*
X166356107Y-92445899D01*
X166346457Y-92481913D01*
X166326502Y-92710000D01*
X166346457Y-92938087D01*
X166347881Y-92943400D01*
X166347881Y-92943402D01*
X166399747Y-93136965D01*
X166405716Y-93159243D01*
X166408039Y-93164224D01*
X166408039Y-93164225D01*
X166500151Y-93361762D01*
X166500154Y-93361767D01*
X166502477Y-93366749D01*
X166547503Y-93431052D01*
X166607413Y-93516612D01*
X166633802Y-93554300D01*
X166795700Y-93716198D01*
X166800208Y-93719355D01*
X166800211Y-93719357D01*
X166870425Y-93768521D01*
X166983251Y-93847523D01*
X166988233Y-93849846D01*
X166988238Y-93849849D01*
X167185775Y-93941961D01*
X167190757Y-93944284D01*
X167196065Y-93945706D01*
X167196067Y-93945707D01*
X167406598Y-94002119D01*
X167406600Y-94002119D01*
X167411913Y-94003543D01*
X167640000Y-94023498D01*
X167868087Y-94003543D01*
X167873400Y-94002119D01*
X167873402Y-94002119D01*
X168083933Y-93945707D01*
X168083935Y-93945706D01*
X168089243Y-93944284D01*
X168094225Y-93941961D01*
X168291762Y-93849849D01*
X168291767Y-93849846D01*
X168296749Y-93847523D01*
X168409575Y-93768521D01*
X168479789Y-93719357D01*
X168479792Y-93719355D01*
X168484300Y-93716198D01*
X168646198Y-93554300D01*
X168660458Y-93533935D01*
X168710317Y-93462729D01*
X168765774Y-93418401D01*
X168813530Y-93409000D01*
X169458275Y-93409000D01*
X169526396Y-93429002D01*
X169572889Y-93482658D01*
X169582993Y-93552932D01*
X169553499Y-93617512D01*
X169547370Y-93624095D01*
X167979445Y-95192020D01*
X167917133Y-95226046D01*
X167870039Y-95226980D01*
X167868087Y-95226457D01*
X167862616Y-95225978D01*
X167862614Y-95225978D01*
X167645475Y-95206981D01*
X167640000Y-95206502D01*
X167411913Y-95226457D01*
X167406600Y-95227881D01*
X167406598Y-95227881D01*
X167196067Y-95284293D01*
X167196065Y-95284294D01*
X167190757Y-95285716D01*
X167185776Y-95288039D01*
X167185775Y-95288039D01*
X166988238Y-95380151D01*
X166988233Y-95380154D01*
X166983251Y-95382477D01*
X166878389Y-95455902D01*
X166800211Y-95510643D01*
X166800208Y-95510645D01*
X166795700Y-95513802D01*
X166633802Y-95675700D01*
X166630645Y-95680208D01*
X166630643Y-95680211D01*
X166579148Y-95753754D01*
X166502477Y-95863251D01*
X166500154Y-95868233D01*
X166500151Y-95868238D01*
X166455702Y-95963560D01*
X166405716Y-96070757D01*
X166404294Y-96076064D01*
X166404293Y-96076067D01*
X166354140Y-96263239D01*
X166346457Y-96291913D01*
X166326502Y-96520000D01*
X166346457Y-96748087D01*
X166347881Y-96753400D01*
X166347881Y-96753402D01*
X166404258Y-96963800D01*
X166405716Y-96969243D01*
X166408039Y-96974224D01*
X166408039Y-96974225D01*
X166500151Y-97171762D01*
X166500154Y-97171767D01*
X166502477Y-97176749D01*
X166571885Y-97275873D01*
X166630005Y-97358877D01*
X166633802Y-97364300D01*
X166795700Y-97526198D01*
X166800208Y-97529355D01*
X166800211Y-97529357D01*
X166865453Y-97575040D01*
X166983251Y-97657523D01*
X166988233Y-97659846D01*
X166988238Y-97659849D01*
X167185775Y-97751961D01*
X167190757Y-97754284D01*
X167196065Y-97755706D01*
X167196067Y-97755707D01*
X167406598Y-97812119D01*
X167406600Y-97812119D01*
X167411913Y-97813543D01*
X167640000Y-97833498D01*
X167868087Y-97813543D01*
X167873400Y-97812119D01*
X167873402Y-97812119D01*
X168083933Y-97755707D01*
X168083935Y-97755706D01*
X168089243Y-97754284D01*
X168094225Y-97751961D01*
X168291762Y-97659849D01*
X168291767Y-97659846D01*
X168296749Y-97657523D01*
X168414547Y-97575040D01*
X168479789Y-97529357D01*
X168479792Y-97529355D01*
X168484300Y-97526198D01*
X168646198Y-97364300D01*
X168649996Y-97358877D01*
X168708115Y-97275873D01*
X168777523Y-97176749D01*
X168779846Y-97171767D01*
X168779849Y-97171762D01*
X168871961Y-96974225D01*
X168871961Y-96974224D01*
X168874284Y-96969243D01*
X168875743Y-96963800D01*
X168932119Y-96753402D01*
X168932119Y-96753400D01*
X168933543Y-96748087D01*
X168953498Y-96520000D01*
X168948716Y-96465340D01*
X168934022Y-96297386D01*
X168934022Y-96297384D01*
X168933543Y-96291913D01*
X168933122Y-96290340D01*
X168940859Y-96220969D01*
X168967980Y-96180555D01*
X174464038Y-90684497D01*
X174470304Y-90678643D01*
X174470702Y-90678296D01*
X174513274Y-90641158D01*
X174549494Y-90589622D01*
X174553427Y-90584326D01*
X174587606Y-90540737D01*
X174587608Y-90540734D01*
X174592292Y-90534760D01*
X174595418Y-90527836D01*
X174597256Y-90524801D01*
X174604500Y-90512102D01*
X174606188Y-90508954D01*
X174610556Y-90502739D01*
X174633438Y-90444050D01*
X174635978Y-90438005D01*
X174661913Y-90380565D01*
X174663298Y-90373092D01*
X174664369Y-90369674D01*
X174668354Y-90355685D01*
X174669251Y-90352193D01*
X174672012Y-90345111D01*
X174675292Y-90320200D01*
X174680233Y-90282670D01*
X174681265Y-90276157D01*
X174691361Y-90221682D01*
X174691361Y-90221680D01*
X174692745Y-90214213D01*
X174690667Y-90178180D01*
X174689312Y-90154672D01*
X174705360Y-90085513D01*
X174742832Y-90044206D01*
X174797527Y-90005908D01*
X174797529Y-90005906D01*
X174802038Y-90002749D01*
X174957749Y-89847038D01*
X174964749Y-89837042D01*
X175080899Y-89671162D01*
X175080900Y-89671160D01*
X175084056Y-89666653D01*
X175086379Y-89661671D01*
X175086382Y-89661666D01*
X175174795Y-89472061D01*
X175177120Y-89467076D01*
X175234115Y-89254371D01*
X175253307Y-89035000D01*
X175234115Y-88815629D01*
X175177120Y-88602924D01*
X175133585Y-88509562D01*
X175086382Y-88408334D01*
X175086379Y-88408329D01*
X175084056Y-88403347D01*
X175036899Y-88336000D01*
X174960908Y-88227473D01*
X174960906Y-88227470D01*
X174957749Y-88222962D01*
X174802038Y-88067251D01*
X174742729Y-88025722D01*
X174698401Y-87970264D01*
X174689000Y-87922509D01*
X174689000Y-82814500D01*
X174709002Y-82746379D01*
X174762658Y-82699886D01*
X174815000Y-82688500D01*
X174938134Y-82688500D01*
X175000316Y-82681745D01*
X175136705Y-82630615D01*
X175253261Y-82543261D01*
X175340615Y-82426705D01*
X175365180Y-82361178D01*
X175407822Y-82304414D01*
X175474383Y-82279714D01*
X175543732Y-82294921D01*
X175563647Y-82308464D01*
X175665370Y-82392916D01*
X175719349Y-82437730D01*
X175919322Y-82554584D01*
X175924147Y-82556426D01*
X175924148Y-82556427D01*
X175987490Y-82580615D01*
X176135694Y-82637209D01*
X176140760Y-82638240D01*
X176140761Y-82638240D01*
X176142039Y-82638500D01*
X176362656Y-82683385D01*
X176492089Y-82688131D01*
X176588949Y-82691683D01*
X176588953Y-82691683D01*
X176594113Y-82691872D01*
X176599233Y-82691216D01*
X176599235Y-82691216D01*
X176675117Y-82681495D01*
X176823847Y-82662442D01*
X176828795Y-82660957D01*
X176828802Y-82660956D01*
X177040747Y-82597369D01*
X177045690Y-82595886D01*
X177050324Y-82593616D01*
X177249049Y-82496262D01*
X177249052Y-82496260D01*
X177253684Y-82493991D01*
X177442243Y-82359494D01*
X177606303Y-82196005D01*
X177741458Y-82007917D01*
X177844078Y-81800280D01*
X177911408Y-81578671D01*
X177941640Y-81349041D01*
X177943327Y-81280000D01*
X177937032Y-81203434D01*
X177924773Y-81054318D01*
X177924772Y-81054312D01*
X177924349Y-81049167D01*
X177873286Y-80845875D01*
X177869184Y-80829544D01*
X177869183Y-80829540D01*
X177867925Y-80824533D01*
X177800429Y-80669302D01*
X177777630Y-80616868D01*
X177777628Y-80616865D01*
X177775570Y-80612131D01*
X177649764Y-80417665D01*
X177617190Y-80381866D01*
X177539635Y-80296635D01*
X177493887Y-80246358D01*
X177489836Y-80243159D01*
X177489832Y-80243155D01*
X177316177Y-80106011D01*
X177316172Y-80106008D01*
X177312123Y-80102810D01*
X177307607Y-80100317D01*
X177307604Y-80100315D01*
X177113879Y-79993373D01*
X177113875Y-79993371D01*
X177109355Y-79990876D01*
X177104486Y-79989152D01*
X177104482Y-79989150D01*
X176895903Y-79915288D01*
X176895899Y-79915287D01*
X176891028Y-79913562D01*
X176885935Y-79912655D01*
X176885932Y-79912654D01*
X176668095Y-79873851D01*
X176668089Y-79873850D01*
X176663006Y-79872945D01*
X176590096Y-79872054D01*
X176436581Y-79870179D01*
X176436579Y-79870179D01*
X176431411Y-79870116D01*
X176202464Y-79905150D01*
X175982314Y-79977106D01*
X175977726Y-79979494D01*
X175977722Y-79979496D01*
X175781461Y-80081663D01*
X175776872Y-80084052D01*
X175772739Y-80087155D01*
X175772736Y-80087157D01*
X175633494Y-80191703D01*
X175591655Y-80223117D01*
X175581272Y-80233982D01*
X175574170Y-80241414D01*
X175512646Y-80276844D01*
X175441733Y-80273387D01*
X175383947Y-80232141D01*
X175365094Y-80198592D01*
X175343768Y-80141705D01*
X175343767Y-80141703D01*
X175340615Y-80133295D01*
X175253261Y-80016739D01*
X175136705Y-79929385D01*
X175000316Y-79878255D01*
X174938134Y-79871500D01*
X173041866Y-79871500D01*
X172979684Y-79878255D01*
X172843295Y-79929385D01*
X172726739Y-80016739D01*
X172639385Y-80133295D01*
X172588255Y-80269684D01*
X172581500Y-80331866D01*
X172581500Y-82228134D01*
X172588255Y-82290316D01*
X172598311Y-82317139D01*
X172626101Y-82391270D01*
X172631284Y-82462078D01*
X172597363Y-82524447D01*
X172535108Y-82558576D01*
X172508119Y-82561500D01*
X172275000Y-82561500D01*
X172206879Y-82541498D01*
X172160386Y-82487842D01*
X172149000Y-82435500D01*
X172149000Y-80673589D01*
X172149292Y-80665019D01*
X172152653Y-80615724D01*
X172152653Y-80615720D01*
X172153169Y-80608148D01*
X172142337Y-80546085D01*
X172141375Y-80539564D01*
X172134722Y-80484582D01*
X172134721Y-80484579D01*
X172133809Y-80477040D01*
X172131123Y-80469931D01*
X172130277Y-80466488D01*
X172126414Y-80452363D01*
X172125386Y-80448958D01*
X172124081Y-80441482D01*
X172098765Y-80383810D01*
X172096277Y-80377715D01*
X172076690Y-80325880D01*
X172076689Y-80325878D01*
X172074006Y-80318778D01*
X172069709Y-80312526D01*
X172068066Y-80309383D01*
X172060971Y-80296635D01*
X172059130Y-80293523D01*
X172056077Y-80286567D01*
X172049151Y-80277540D01*
X172034084Y-80257905D01*
X172017732Y-80236593D01*
X172013861Y-80231266D01*
X172010830Y-80226855D01*
X171991405Y-80198592D01*
X171982481Y-80185607D01*
X171982480Y-80185605D01*
X171978179Y-80179348D01*
X171932320Y-80138489D01*
X171927045Y-80133509D01*
X170694496Y-78900961D01*
X170688642Y-78894695D01*
X170656152Y-78857451D01*
X170651158Y-78851726D01*
X170599622Y-78815506D01*
X170594326Y-78811573D01*
X170550737Y-78777394D01*
X170550734Y-78777392D01*
X170544760Y-78772708D01*
X170537836Y-78769582D01*
X170534801Y-78767744D01*
X170522102Y-78760500D01*
X170518954Y-78758812D01*
X170512739Y-78754444D01*
X170454050Y-78731562D01*
X170448005Y-78729022D01*
X170390565Y-78703087D01*
X170383092Y-78701702D01*
X170379674Y-78700631D01*
X170365685Y-78696646D01*
X170362193Y-78695749D01*
X170355111Y-78692988D01*
X170347578Y-78691996D01*
X170347577Y-78691996D01*
X170292670Y-78684767D01*
X170286157Y-78683735D01*
X170231682Y-78673639D01*
X170231680Y-78673639D01*
X170224213Y-78672255D01*
X170216633Y-78672692D01*
X170216632Y-78672692D01*
X170162888Y-78675791D01*
X170155635Y-78676000D01*
X168303600Y-78676000D01*
X168295029Y-78675708D01*
X168245725Y-78672346D01*
X168245721Y-78672346D01*
X168238149Y-78671830D01*
X168230673Y-78673135D01*
X168230669Y-78673135D01*
X168176078Y-78682663D01*
X168169553Y-78683626D01*
X168114582Y-78690278D01*
X168114579Y-78690279D01*
X168107040Y-78691191D01*
X168099938Y-78693875D01*
X168096500Y-78694719D01*
X168082377Y-78698583D01*
X168078965Y-78699613D01*
X168071483Y-78700919D01*
X168064530Y-78703971D01*
X168064524Y-78703973D01*
X168013806Y-78726237D01*
X168007710Y-78728725D01*
X167984276Y-78737580D01*
X167955885Y-78748308D01*
X167955882Y-78748310D01*
X167948778Y-78750994D01*
X167942514Y-78755299D01*
X167939347Y-78756955D01*
X167926582Y-78764060D01*
X167923525Y-78765868D01*
X167916567Y-78768922D01*
X167910539Y-78773547D01*
X167910538Y-78773548D01*
X167866604Y-78807260D01*
X167861267Y-78811138D01*
X167854912Y-78815506D01*
X167809348Y-78846821D01*
X167804296Y-78852491D01*
X167804295Y-78852492D01*
X167768482Y-78892688D01*
X167763501Y-78897964D01*
X166826870Y-79834595D01*
X166764558Y-79868621D01*
X166737775Y-79871500D01*
X165421866Y-79871500D01*
X165359684Y-79878255D01*
X165223295Y-79929385D01*
X165106739Y-80016739D01*
X165019385Y-80133295D01*
X164968255Y-80269684D01*
X164961500Y-80331866D01*
X164961500Y-82228134D01*
X164968255Y-82290316D01*
X165019385Y-82426705D01*
X165106739Y-82543261D01*
X165223295Y-82630615D01*
X165359684Y-82681745D01*
X165421866Y-82688500D01*
X167318134Y-82688500D01*
X167380316Y-82681745D01*
X167516705Y-82630615D01*
X167633261Y-82543261D01*
X167720615Y-82426705D01*
X167745180Y-82361178D01*
X167787822Y-82304414D01*
X167854383Y-82279714D01*
X167923732Y-82294921D01*
X167943647Y-82308464D01*
X168045370Y-82392916D01*
X168099349Y-82437730D01*
X168299322Y-82554584D01*
X168304147Y-82556426D01*
X168304148Y-82556427D01*
X168367490Y-82580615D01*
X168515694Y-82637209D01*
X168520760Y-82638240D01*
X168520761Y-82638240D01*
X168522039Y-82638500D01*
X168742656Y-82683385D01*
X168872089Y-82688131D01*
X168968949Y-82691683D01*
X168968953Y-82691683D01*
X168974113Y-82691872D01*
X168979233Y-82691216D01*
X168979235Y-82691216D01*
X169055118Y-82681495D01*
X169125228Y-82692679D01*
X169178162Y-82739993D01*
X169197113Y-82808413D01*
X169189110Y-82850703D01*
X169148255Y-82959684D01*
X169141500Y-83021866D01*
X169141500Y-84452774D01*
X169121498Y-84520895D01*
X169104595Y-84541869D01*
X162281870Y-91364595D01*
X162219558Y-91398621D01*
X162192775Y-91401500D01*
X161711866Y-91401500D01*
X161649684Y-91408255D01*
X161513295Y-91459385D01*
X161396739Y-91546739D01*
X161309385Y-91663295D01*
X161258255Y-91799684D01*
X161251500Y-91861866D01*
X161251500Y-92977774D01*
X161231498Y-93045895D01*
X161214595Y-93066869D01*
X157989370Y-96292095D01*
X157927058Y-96326121D01*
X157900275Y-96329000D01*
X155975688Y-96329000D01*
X155907567Y-96308998D01*
X155861074Y-96255342D01*
X155850970Y-96185068D01*
X155880464Y-96120488D01*
X155886593Y-96113905D01*
X155946198Y-96054300D01*
X155966502Y-96025304D01*
X156010638Y-95962271D01*
X156077523Y-95866749D01*
X156079846Y-95861767D01*
X156079849Y-95861762D01*
X156171961Y-95664225D01*
X156171961Y-95664224D01*
X156174284Y-95659243D01*
X156183242Y-95625814D01*
X156232119Y-95443402D01*
X156232119Y-95443400D01*
X156233543Y-95438087D01*
X156253498Y-95210000D01*
X156233543Y-94981913D01*
X156230374Y-94970087D01*
X156175707Y-94766067D01*
X156175706Y-94766065D01*
X156174284Y-94760757D01*
X156158085Y-94726017D01*
X156079849Y-94558238D01*
X156079846Y-94558233D01*
X156077523Y-94553251D01*
X155980564Y-94414780D01*
X155949357Y-94370211D01*
X155949355Y-94370208D01*
X155946198Y-94365700D01*
X155800498Y-94220000D01*
X155766472Y-94157688D01*
X155771537Y-94086873D01*
X155814084Y-94030037D01*
X155850737Y-94012868D01*
X155850316Y-94011745D01*
X155899785Y-93993200D01*
X155986705Y-93960615D01*
X156103261Y-93873261D01*
X156190615Y-93756705D01*
X156241745Y-93620316D01*
X156248500Y-93558134D01*
X156248500Y-91861866D01*
X156241745Y-91799684D01*
X156190615Y-91663295D01*
X156103261Y-91546739D01*
X155986705Y-91459385D01*
X155850316Y-91408255D01*
X155788134Y-91401500D01*
X155180225Y-91401500D01*
X155112104Y-91381498D01*
X155091130Y-91364595D01*
X150721535Y-86995000D01*
X152356502Y-86995000D01*
X152376457Y-87223087D01*
X152435716Y-87444243D01*
X152438039Y-87449224D01*
X152438039Y-87449225D01*
X152530151Y-87646762D01*
X152530154Y-87646767D01*
X152532477Y-87651749D01*
X152567774Y-87702158D01*
X152658464Y-87831676D01*
X152663802Y-87839300D01*
X152825700Y-88001198D01*
X152830208Y-88004355D01*
X152830211Y-88004357D01*
X152868763Y-88031351D01*
X153013251Y-88132523D01*
X153018233Y-88134846D01*
X153018238Y-88134849D01*
X153158420Y-88200216D01*
X153220757Y-88229284D01*
X153226065Y-88230706D01*
X153226067Y-88230707D01*
X153436598Y-88287119D01*
X153436600Y-88287119D01*
X153441913Y-88288543D01*
X153670000Y-88308498D01*
X153898087Y-88288543D01*
X153903400Y-88287119D01*
X153903402Y-88287119D01*
X154113933Y-88230707D01*
X154113935Y-88230706D01*
X154119243Y-88229284D01*
X154181580Y-88200216D01*
X154321762Y-88134849D01*
X154321767Y-88134846D01*
X154326749Y-88132523D01*
X154471237Y-88031351D01*
X154509789Y-88004357D01*
X154509792Y-88004355D01*
X154514300Y-88001198D01*
X154676198Y-87839300D01*
X154681537Y-87831676D01*
X154772226Y-87702158D01*
X154807523Y-87651749D01*
X154809846Y-87646767D01*
X154809849Y-87646762D01*
X154901961Y-87449225D01*
X154901961Y-87449224D01*
X154904284Y-87444243D01*
X154963543Y-87223087D01*
X154983498Y-86995000D01*
X162516502Y-86995000D01*
X162536457Y-87223087D01*
X162595716Y-87444243D01*
X162598039Y-87449224D01*
X162598039Y-87449225D01*
X162690151Y-87646762D01*
X162690154Y-87646767D01*
X162692477Y-87651749D01*
X162727774Y-87702158D01*
X162818464Y-87831676D01*
X162823802Y-87839300D01*
X162985700Y-88001198D01*
X162990208Y-88004355D01*
X162990211Y-88004357D01*
X163028763Y-88031351D01*
X163173251Y-88132523D01*
X163178233Y-88134846D01*
X163178238Y-88134849D01*
X163318420Y-88200216D01*
X163380757Y-88229284D01*
X163386065Y-88230706D01*
X163386067Y-88230707D01*
X163596598Y-88287119D01*
X163596600Y-88287119D01*
X163601913Y-88288543D01*
X163830000Y-88308498D01*
X164058087Y-88288543D01*
X164063400Y-88287119D01*
X164063402Y-88287119D01*
X164273933Y-88230707D01*
X164273935Y-88230706D01*
X164279243Y-88229284D01*
X164341580Y-88200216D01*
X164481762Y-88134849D01*
X164481767Y-88134846D01*
X164486749Y-88132523D01*
X164631237Y-88031351D01*
X164669789Y-88004357D01*
X164669792Y-88004355D01*
X164674300Y-88001198D01*
X164836198Y-87839300D01*
X164841537Y-87831676D01*
X164932226Y-87702158D01*
X164967523Y-87651749D01*
X164969846Y-87646767D01*
X164969849Y-87646762D01*
X165061961Y-87449225D01*
X165061961Y-87449224D01*
X165064284Y-87444243D01*
X165123543Y-87223087D01*
X165143498Y-86995000D01*
X165123543Y-86766913D01*
X165118241Y-86747127D01*
X165065707Y-86551067D01*
X165065706Y-86551065D01*
X165064284Y-86545757D01*
X165013073Y-86435934D01*
X164969849Y-86343238D01*
X164969846Y-86343233D01*
X164967523Y-86338251D01*
X164871892Y-86201676D01*
X164839357Y-86155211D01*
X164839355Y-86155208D01*
X164836198Y-86150700D01*
X164674300Y-85988802D01*
X164669792Y-85985645D01*
X164669789Y-85985643D01*
X164545377Y-85898529D01*
X164486749Y-85857477D01*
X164481767Y-85855154D01*
X164481762Y-85855151D01*
X164284225Y-85763039D01*
X164284224Y-85763039D01*
X164279243Y-85760716D01*
X164273935Y-85759294D01*
X164273933Y-85759293D01*
X164063402Y-85702881D01*
X164063400Y-85702881D01*
X164058087Y-85701457D01*
X163830000Y-85681502D01*
X163601913Y-85701457D01*
X163596600Y-85702881D01*
X163596598Y-85702881D01*
X163386067Y-85759293D01*
X163386065Y-85759294D01*
X163380757Y-85760716D01*
X163375776Y-85763039D01*
X163375775Y-85763039D01*
X163178238Y-85855151D01*
X163178233Y-85855154D01*
X163173251Y-85857477D01*
X163114623Y-85898529D01*
X162990211Y-85985643D01*
X162990208Y-85985645D01*
X162985700Y-85988802D01*
X162823802Y-86150700D01*
X162820645Y-86155208D01*
X162820643Y-86155211D01*
X162788108Y-86201676D01*
X162692477Y-86338251D01*
X162690154Y-86343233D01*
X162690151Y-86343238D01*
X162646927Y-86435934D01*
X162595716Y-86545757D01*
X162594294Y-86551065D01*
X162594293Y-86551067D01*
X162541759Y-86747127D01*
X162536457Y-86766913D01*
X162516502Y-86995000D01*
X154983498Y-86995000D01*
X154963543Y-86766913D01*
X154951676Y-86722623D01*
X154912250Y-86575485D01*
X154904284Y-86545757D01*
X154885120Y-86504659D01*
X154874459Y-86434468D01*
X154903439Y-86369655D01*
X154910220Y-86362315D01*
X157954038Y-83318497D01*
X157960304Y-83312643D01*
X157997549Y-83280152D01*
X158003274Y-83275158D01*
X158039502Y-83223610D01*
X158043435Y-83218316D01*
X158082291Y-83168761D01*
X158085417Y-83161837D01*
X158087264Y-83158788D01*
X158094489Y-83146122D01*
X158096186Y-83142957D01*
X158100556Y-83136739D01*
X158123456Y-83078004D01*
X158125983Y-83071991D01*
X158151912Y-83014565D01*
X158153296Y-83007097D01*
X158154364Y-83003689D01*
X158158364Y-82989650D01*
X158159253Y-82986186D01*
X158162012Y-82979111D01*
X158163004Y-82971579D01*
X158170235Y-82916655D01*
X158171267Y-82910141D01*
X158181360Y-82855683D01*
X158181360Y-82855680D01*
X158182744Y-82848214D01*
X158179209Y-82786905D01*
X158179000Y-82779653D01*
X158179000Y-82764500D01*
X158199002Y-82696379D01*
X158252658Y-82649886D01*
X158305000Y-82638500D01*
X158378134Y-82638500D01*
X158440316Y-82631745D01*
X158576705Y-82580615D01*
X158693261Y-82493261D01*
X158780615Y-82376705D01*
X158789506Y-82352988D01*
X158824798Y-82258848D01*
X158867440Y-82202084D01*
X158934001Y-82177384D01*
X159003350Y-82192592D01*
X159038017Y-82220580D01*
X159063218Y-82249673D01*
X159070580Y-82256883D01*
X159234434Y-82392916D01*
X159242881Y-82398831D01*
X159426756Y-82506279D01*
X159436042Y-82510729D01*
X159635001Y-82586703D01*
X159644899Y-82589579D01*
X159748250Y-82610606D01*
X159762299Y-82609410D01*
X159766000Y-82599065D01*
X159766000Y-82598517D01*
X160274000Y-82598517D01*
X160278064Y-82612359D01*
X160291478Y-82614393D01*
X160298184Y-82613534D01*
X160308262Y-82611392D01*
X160512255Y-82550191D01*
X160521842Y-82546433D01*
X160713095Y-82452739D01*
X160721945Y-82447464D01*
X160895328Y-82323792D01*
X160903200Y-82317139D01*
X161054052Y-82166812D01*
X161060730Y-82158965D01*
X161185003Y-81986020D01*
X161190313Y-81977183D01*
X161284670Y-81786267D01*
X161288469Y-81776672D01*
X161350377Y-81572910D01*
X161352555Y-81562837D01*
X161353986Y-81551962D01*
X161351775Y-81537778D01*
X161338617Y-81534000D01*
X160292115Y-81534000D01*
X160276876Y-81538475D01*
X160275671Y-81539865D01*
X160274000Y-81547548D01*
X160274000Y-82598517D01*
X159766000Y-82598517D01*
X159766000Y-81007885D01*
X160274000Y-81007885D01*
X160278475Y-81023124D01*
X160279865Y-81024329D01*
X160287548Y-81026000D01*
X161338344Y-81026000D01*
X161351875Y-81022027D01*
X161353180Y-81012947D01*
X161311214Y-80845875D01*
X161307894Y-80836124D01*
X161222972Y-80640814D01*
X161218105Y-80631739D01*
X161102426Y-80452926D01*
X161096136Y-80444757D01*
X160952806Y-80287240D01*
X160945273Y-80280215D01*
X160778139Y-80148222D01*
X160769552Y-80142517D01*
X160583117Y-80039599D01*
X160573705Y-80035369D01*
X160372959Y-79964280D01*
X160362988Y-79961646D01*
X160291837Y-79948972D01*
X160278540Y-79950432D01*
X160274000Y-79964989D01*
X160274000Y-81007885D01*
X159766000Y-81007885D01*
X159766000Y-79963102D01*
X159762082Y-79949758D01*
X159747806Y-79947771D01*
X159709324Y-79953660D01*
X159699288Y-79956051D01*
X159496868Y-80022212D01*
X159487359Y-80026209D01*
X159298463Y-80124542D01*
X159289738Y-80130036D01*
X159119433Y-80257905D01*
X159111726Y-80264748D01*
X159034478Y-80345584D01*
X158972954Y-80381014D01*
X158902042Y-80377557D01*
X158844255Y-80336311D01*
X158825402Y-80302763D01*
X158783767Y-80191703D01*
X158780615Y-80183295D01*
X158693261Y-80066739D01*
X158576705Y-79979385D01*
X158440316Y-79928255D01*
X158378134Y-79921500D01*
X156581866Y-79921500D01*
X156519684Y-79928255D01*
X156383295Y-79979385D01*
X156266739Y-80066739D01*
X156179385Y-80183295D01*
X156128255Y-80319684D01*
X156121500Y-80381866D01*
X156121500Y-82178134D01*
X156128255Y-82240316D01*
X156179385Y-82376705D01*
X156266739Y-82493261D01*
X156383295Y-82580615D01*
X156391704Y-82583767D01*
X156391707Y-82583769D01*
X156441198Y-82602322D01*
X156497963Y-82644963D01*
X156522664Y-82711524D01*
X156507457Y-82780873D01*
X156486065Y-82809399D01*
X153666179Y-85629286D01*
X153603867Y-85663312D01*
X153592221Y-85665278D01*
X153576005Y-85667240D01*
X153502040Y-85676191D01*
X153494937Y-85678875D01*
X153424627Y-85705443D01*
X153412701Y-85709284D01*
X153352183Y-85725500D01*
X153220757Y-85760716D01*
X153150192Y-85793621D01*
X153018238Y-85855151D01*
X153018233Y-85855154D01*
X153013251Y-85857477D01*
X152954623Y-85898529D01*
X152830211Y-85985643D01*
X152830208Y-85985645D01*
X152825700Y-85988802D01*
X152663802Y-86150700D01*
X152660645Y-86155208D01*
X152660643Y-86155211D01*
X152628108Y-86201676D01*
X152532477Y-86338251D01*
X152530154Y-86343233D01*
X152530151Y-86343238D01*
X152486927Y-86435934D01*
X152435716Y-86545757D01*
X152434294Y-86551065D01*
X152434293Y-86551067D01*
X152381759Y-86747127D01*
X152376457Y-86766913D01*
X152356502Y-86995000D01*
X150721535Y-86995000D01*
X148395405Y-84668870D01*
X148361379Y-84606558D01*
X148358500Y-84579775D01*
X148358500Y-83021866D01*
X148351745Y-82959684D01*
X148313899Y-82858730D01*
X148308716Y-82787922D01*
X148342637Y-82725553D01*
X148404892Y-82691424D01*
X148431881Y-82688500D01*
X149538134Y-82688500D01*
X149600316Y-82681745D01*
X149736705Y-82630615D01*
X149853261Y-82543261D01*
X149940615Y-82426705D01*
X149965180Y-82361178D01*
X150007822Y-82304414D01*
X150074383Y-82279714D01*
X150143732Y-82294921D01*
X150163647Y-82308464D01*
X150265370Y-82392916D01*
X150319349Y-82437730D01*
X150519322Y-82554584D01*
X150524147Y-82556426D01*
X150524148Y-82556427D01*
X150587490Y-82580615D01*
X150735694Y-82637209D01*
X150740760Y-82638240D01*
X150740761Y-82638240D01*
X150742039Y-82638500D01*
X150962656Y-82683385D01*
X151092089Y-82688131D01*
X151188949Y-82691683D01*
X151188953Y-82691683D01*
X151194113Y-82691872D01*
X151199233Y-82691216D01*
X151199235Y-82691216D01*
X151275117Y-82681495D01*
X151423847Y-82662442D01*
X151428795Y-82660957D01*
X151428802Y-82660956D01*
X151640747Y-82597369D01*
X151645690Y-82595886D01*
X151650324Y-82593616D01*
X151849049Y-82496262D01*
X151849052Y-82496260D01*
X151853684Y-82493991D01*
X152042243Y-82359494D01*
X152206303Y-82196005D01*
X152341458Y-82007917D01*
X152444078Y-81800280D01*
X152511408Y-81578671D01*
X152541640Y-81349041D01*
X152543327Y-81280000D01*
X152537032Y-81203434D01*
X152524773Y-81054318D01*
X152524772Y-81054312D01*
X152524349Y-81049167D01*
X152473286Y-80845875D01*
X152469184Y-80829544D01*
X152469183Y-80829540D01*
X152467925Y-80824533D01*
X152400429Y-80669302D01*
X152377630Y-80616868D01*
X152377628Y-80616865D01*
X152375570Y-80612131D01*
X152249764Y-80417665D01*
X152217190Y-80381866D01*
X152139635Y-80296635D01*
X152093887Y-80246358D01*
X152089836Y-80243159D01*
X152089832Y-80243155D01*
X151916177Y-80106011D01*
X151916172Y-80106008D01*
X151912123Y-80102810D01*
X151907607Y-80100317D01*
X151907604Y-80100315D01*
X151713879Y-79993373D01*
X151713875Y-79993371D01*
X151709355Y-79990876D01*
X151704486Y-79989152D01*
X151704482Y-79989150D01*
X151495903Y-79915288D01*
X151495899Y-79915287D01*
X151491028Y-79913562D01*
X151485935Y-79912655D01*
X151485932Y-79912654D01*
X151268095Y-79873851D01*
X151268089Y-79873850D01*
X151263006Y-79872945D01*
X151190096Y-79872054D01*
X151036581Y-79870179D01*
X151036579Y-79870179D01*
X151031411Y-79870116D01*
X150802464Y-79905150D01*
X150582314Y-79977106D01*
X150577726Y-79979494D01*
X150577722Y-79979496D01*
X150381461Y-80081663D01*
X150376872Y-80084052D01*
X150372739Y-80087155D01*
X150372736Y-80087157D01*
X150233494Y-80191703D01*
X150191655Y-80223117D01*
X150181272Y-80233982D01*
X150174170Y-80241414D01*
X150112646Y-80276844D01*
X150041733Y-80273387D01*
X149983947Y-80232141D01*
X149965094Y-80198592D01*
X149943768Y-80141705D01*
X149943767Y-80141703D01*
X149940615Y-80133295D01*
X149853261Y-80016739D01*
X149736705Y-79929385D01*
X149600316Y-79878255D01*
X149538134Y-79871500D01*
X147641866Y-79871500D01*
X147579684Y-79878255D01*
X147443295Y-79929385D01*
X147326739Y-80016739D01*
X147239385Y-80133295D01*
X147188255Y-80269684D01*
X147181500Y-80331866D01*
X147181500Y-80885775D01*
X147161498Y-80953896D01*
X147144595Y-80974870D01*
X145594870Y-82524595D01*
X145532558Y-82558621D01*
X145508673Y-82561188D01*
X145508680Y-82561316D01*
X145506275Y-82561446D01*
X145505775Y-82561500D01*
X145501866Y-82561500D01*
X145439684Y-82568255D01*
X145432285Y-82571029D01*
X145429146Y-82571775D01*
X145370854Y-82571775D01*
X145367715Y-82571029D01*
X145360316Y-82568255D01*
X145298134Y-82561500D01*
X144524474Y-82561500D01*
X144456353Y-82541498D01*
X144409860Y-82487842D01*
X144399756Y-82417568D01*
X144429250Y-82352988D01*
X144435534Y-82346249D01*
X144458070Y-82323792D01*
X144586303Y-82196005D01*
X144721458Y-82007917D01*
X144824078Y-81800280D01*
X144891408Y-81578671D01*
X144921640Y-81349041D01*
X144923327Y-81280000D01*
X144917032Y-81203434D01*
X144904773Y-81054318D01*
X144904772Y-81054312D01*
X144904349Y-81049167D01*
X144853286Y-80845875D01*
X144849184Y-80829544D01*
X144849183Y-80829540D01*
X144847925Y-80824533D01*
X144780429Y-80669302D01*
X144757630Y-80616868D01*
X144757628Y-80616865D01*
X144755570Y-80612131D01*
X144629764Y-80417665D01*
X144597190Y-80381866D01*
X144519635Y-80296635D01*
X144473887Y-80246358D01*
X144469836Y-80243159D01*
X144469832Y-80243155D01*
X144296177Y-80106011D01*
X144296172Y-80106008D01*
X144292123Y-80102810D01*
X144287607Y-80100317D01*
X144287604Y-80100315D01*
X144093879Y-79993373D01*
X144093875Y-79993371D01*
X144089355Y-79990876D01*
X144084486Y-79989152D01*
X144084482Y-79989150D01*
X143875903Y-79915288D01*
X143875899Y-79915287D01*
X143871028Y-79913562D01*
X143865935Y-79912655D01*
X143865932Y-79912654D01*
X143648095Y-79873851D01*
X143648089Y-79873850D01*
X143643006Y-79872945D01*
X143570096Y-79872054D01*
X143416581Y-79870179D01*
X143416579Y-79870179D01*
X143411411Y-79870116D01*
X143182464Y-79905150D01*
X142962314Y-79977106D01*
X142957726Y-79979494D01*
X142957722Y-79979496D01*
X142761461Y-80081663D01*
X142756872Y-80084052D01*
X142752739Y-80087155D01*
X142752736Y-80087157D01*
X142613494Y-80191703D01*
X142571655Y-80223117D01*
X142561272Y-80233982D01*
X142554170Y-80241414D01*
X142492646Y-80276844D01*
X142421733Y-80273387D01*
X142363947Y-80232141D01*
X142345094Y-80198592D01*
X142323768Y-80141705D01*
X142323767Y-80141703D01*
X142320615Y-80133295D01*
X142233261Y-80016739D01*
X142116705Y-79929385D01*
X141980316Y-79878255D01*
X141918134Y-79871500D01*
X140021866Y-79871500D01*
X139959684Y-79878255D01*
X139823295Y-79929385D01*
X139706739Y-80016739D01*
X139619385Y-80133295D01*
X139568255Y-80269684D01*
X139561500Y-80331866D01*
X139561500Y-82228134D01*
X138938500Y-82228134D01*
X138938500Y-80063250D01*
X138940246Y-80042345D01*
X138942770Y-80027344D01*
X138942770Y-80027341D01*
X138943576Y-80022552D01*
X138943729Y-80010000D01*
X138942003Y-79997947D01*
X138941001Y-79971845D01*
X138955340Y-79753078D01*
X138957491Y-79736738D01*
X139006111Y-79492307D01*
X139010375Y-79476394D01*
X139090485Y-79240398D01*
X139096791Y-79225174D01*
X139207016Y-79001658D01*
X139215257Y-78987384D01*
X139353713Y-78780171D01*
X139363746Y-78767095D01*
X139528068Y-78579722D01*
X139539722Y-78568068D01*
X139727095Y-78403746D01*
X139740171Y-78393713D01*
X139947384Y-78255257D01*
X139961658Y-78247016D01*
X140185174Y-78136791D01*
X140200400Y-78130484D01*
X140436394Y-78050375D01*
X140452304Y-78046112D01*
X140574522Y-78021801D01*
X140696738Y-77997491D01*
X140713078Y-77995340D01*
X140861866Y-77985587D01*
X140928237Y-77981237D01*
X140951350Y-77982267D01*
X140954854Y-77982310D01*
X140963724Y-77983691D01*
X140972626Y-77982527D01*
X140972628Y-77982527D01*
X140989449Y-77980327D01*
X140995286Y-77979564D01*
X141011621Y-77978500D01*
X176480633Y-77978500D01*
X176500018Y-77980000D01*
G37*
G04 #@! TD.AperFunction*
M02*
