G04 #@! TF.GenerationSoftware,KiCad,Pcbnew,5.1.6+dfsg1-1*
G04 #@! TF.CreationDate,2020-06-27T19:18:25-04:00*
G04 #@! TF.ProjectId,C,432e6b69-6361-4645-9f70-636258585858,rev?*
G04 #@! TF.SameCoordinates,Original*
G04 #@! TF.FileFunction,Soldermask,Bot*
G04 #@! TF.FilePolarity,Negative*
%FSLAX46Y46*%
G04 Gerber Fmt 4.6, Leading zero omitted, Abs format (unit mm)*
G04 Created by KiCad (PCBNEW 5.1.6+dfsg1-1) date 2020-06-27 19:18:25*
%MOMM*%
%LPD*%
G01*
G04 APERTURE LIST*
%ADD10C,0.100000*%
%ADD11C,0.010000*%
G04 APERTURE END LIST*
D10*
G36*
X148082000Y-85471000D02*
G01*
X144018000Y-85471000D01*
X144018000Y-83439000D01*
X148082000Y-83439000D01*
X148082000Y-85471000D01*
G37*
X148082000Y-85471000D02*
X144018000Y-85471000D01*
X144018000Y-83439000D01*
X148082000Y-83439000D01*
X148082000Y-85471000D01*
G36*
X173545500Y-85471000D02*
G01*
X169418000Y-85471000D01*
X169418000Y-83439000D01*
X173545500Y-83439000D01*
X173545500Y-85471000D01*
G37*
X173545500Y-85471000D02*
X169418000Y-85471000D01*
X169418000Y-83439000D01*
X173545500Y-83439000D01*
X173545500Y-85471000D01*
D11*
G36*
X144224186Y-91956931D02*
G01*
X144140365Y-92401555D01*
X143831080Y-92529053D01*
X143521794Y-92656551D01*
X143150754Y-92404246D01*
X143046843Y-92333996D01*
X142952913Y-92271272D01*
X142873348Y-92218938D01*
X142812530Y-92179857D01*
X142774843Y-92156893D01*
X142764579Y-92151942D01*
X142746090Y-92164676D01*
X142706580Y-92199882D01*
X142650478Y-92253062D01*
X142582213Y-92319718D01*
X142506214Y-92395354D01*
X142426908Y-92475472D01*
X142348725Y-92555574D01*
X142276093Y-92631164D01*
X142213441Y-92697745D01*
X142165197Y-92750818D01*
X142135790Y-92785887D01*
X142128759Y-92797623D01*
X142138877Y-92819260D01*
X142167241Y-92866662D01*
X142210871Y-92935193D01*
X142266782Y-93020215D01*
X142331994Y-93117093D01*
X142369781Y-93172350D01*
X142438657Y-93273248D01*
X142499860Y-93364299D01*
X142550422Y-93440970D01*
X142587372Y-93498728D01*
X142607742Y-93533043D01*
X142610803Y-93540254D01*
X142603864Y-93560748D01*
X142584949Y-93608513D01*
X142556913Y-93676832D01*
X142522609Y-93758989D01*
X142484891Y-93848270D01*
X142446613Y-93937958D01*
X142410630Y-94021338D01*
X142379794Y-94091694D01*
X142356961Y-94142310D01*
X142344983Y-94166471D01*
X142344276Y-94167422D01*
X142325469Y-94172036D01*
X142275382Y-94182328D01*
X142199207Y-94197287D01*
X142102135Y-94215901D01*
X141989357Y-94237159D01*
X141923558Y-94249418D01*
X141803050Y-94272362D01*
X141694203Y-94294195D01*
X141602524Y-94313722D01*
X141533519Y-94329748D01*
X141492696Y-94341079D01*
X141484489Y-94344674D01*
X141476452Y-94369006D01*
X141469967Y-94423959D01*
X141465030Y-94503108D01*
X141461636Y-94600026D01*
X141459782Y-94708287D01*
X141459462Y-94821465D01*
X141460673Y-94933135D01*
X141463410Y-95036868D01*
X141467669Y-95126241D01*
X141473445Y-95194826D01*
X141480733Y-95236197D01*
X141485105Y-95244810D01*
X141511236Y-95255133D01*
X141566607Y-95269892D01*
X141643893Y-95287352D01*
X141735770Y-95305780D01*
X141767842Y-95311741D01*
X141922476Y-95340066D01*
X142044625Y-95362876D01*
X142138327Y-95381080D01*
X142207616Y-95395583D01*
X142256529Y-95407292D01*
X142289103Y-95417115D01*
X142309372Y-95425956D01*
X142321374Y-95434724D01*
X142323053Y-95436457D01*
X142339816Y-95464371D01*
X142365386Y-95518695D01*
X142397212Y-95592777D01*
X142432740Y-95679965D01*
X142469417Y-95773608D01*
X142504689Y-95867052D01*
X142536004Y-95953647D01*
X142560807Y-96026740D01*
X142576546Y-96079678D01*
X142580668Y-96105811D01*
X142580324Y-96106726D01*
X142566359Y-96128086D01*
X142534678Y-96175084D01*
X142488609Y-96242827D01*
X142431482Y-96326423D01*
X142366627Y-96420982D01*
X142348157Y-96447854D01*
X142282301Y-96545275D01*
X142224350Y-96634163D01*
X142177462Y-96709412D01*
X142144793Y-96765920D01*
X142129500Y-96798581D01*
X142128759Y-96802593D01*
X142141608Y-96823684D01*
X142177112Y-96865464D01*
X142230707Y-96923445D01*
X142297829Y-96993135D01*
X142373913Y-97070045D01*
X142454396Y-97149683D01*
X142534713Y-97227561D01*
X142610301Y-97299186D01*
X142676595Y-97360070D01*
X142729031Y-97405721D01*
X142763045Y-97431650D01*
X142772455Y-97435883D01*
X142794357Y-97425912D01*
X142839200Y-97399020D01*
X142899679Y-97359736D01*
X142946211Y-97328117D01*
X143030525Y-97270098D01*
X143130374Y-97201784D01*
X143230527Y-97133579D01*
X143284373Y-97097075D01*
X143466629Y-96973800D01*
X143619619Y-97056520D01*
X143689318Y-97092759D01*
X143748586Y-97120926D01*
X143788689Y-97136991D01*
X143798897Y-97139226D01*
X143811171Y-97122722D01*
X143835387Y-97076082D01*
X143869737Y-97003609D01*
X143912412Y-96909606D01*
X143961606Y-96798374D01*
X144015510Y-96674215D01*
X144072316Y-96541432D01*
X144130218Y-96404327D01*
X144187407Y-96267202D01*
X144242076Y-96134358D01*
X144292416Y-96010098D01*
X144336620Y-95898725D01*
X144372881Y-95804539D01*
X144399391Y-95731844D01*
X144414342Y-95684941D01*
X144416746Y-95668833D01*
X144397689Y-95648286D01*
X144355964Y-95614933D01*
X144300294Y-95575702D01*
X144295622Y-95572599D01*
X144151736Y-95457423D01*
X144035717Y-95323053D01*
X143948570Y-95173784D01*
X143891301Y-95013913D01*
X143864914Y-94847737D01*
X143870415Y-94679552D01*
X143908810Y-94513655D01*
X143981105Y-94354342D01*
X144002374Y-94319487D01*
X144113004Y-94178737D01*
X144243698Y-94065714D01*
X144389936Y-93981003D01*
X144547192Y-93925194D01*
X144710943Y-93898874D01*
X144876667Y-93902630D01*
X145039838Y-93937050D01*
X145195935Y-94002723D01*
X145340433Y-94100235D01*
X145385131Y-94139813D01*
X145498888Y-94263703D01*
X145581782Y-94394124D01*
X145638644Y-94540315D01*
X145670313Y-94685088D01*
X145678131Y-94847860D01*
X145652062Y-95011440D01*
X145594755Y-95170298D01*
X145508856Y-95318906D01*
X145397014Y-95451735D01*
X145261877Y-95563256D01*
X145244117Y-95575011D01*
X145187850Y-95613508D01*
X145145077Y-95646863D01*
X145124628Y-95668160D01*
X145124331Y-95668833D01*
X145128721Y-95691871D01*
X145146124Y-95744157D01*
X145174732Y-95821390D01*
X145212735Y-95919268D01*
X145258326Y-96033491D01*
X145309697Y-96159758D01*
X145365038Y-96293767D01*
X145422542Y-96431218D01*
X145480399Y-96567808D01*
X145536802Y-96699237D01*
X145589942Y-96821205D01*
X145638010Y-96929409D01*
X145679199Y-97019549D01*
X145711699Y-97087323D01*
X145733703Y-97128430D01*
X145742564Y-97139226D01*
X145769640Y-97130819D01*
X145820303Y-97108272D01*
X145885817Y-97075613D01*
X145921841Y-97056520D01*
X146074832Y-96973800D01*
X146257088Y-97097075D01*
X146350125Y-97160228D01*
X146451985Y-97229727D01*
X146547438Y-97295165D01*
X146595250Y-97328117D01*
X146662495Y-97373273D01*
X146719436Y-97409057D01*
X146758646Y-97430938D01*
X146771381Y-97435563D01*
X146789917Y-97423085D01*
X146830941Y-97388252D01*
X146890475Y-97334678D01*
X146964542Y-97265983D01*
X147049165Y-97185781D01*
X147102685Y-97134286D01*
X147196319Y-97042286D01*
X147277241Y-96959999D01*
X147342177Y-96890945D01*
X147387858Y-96838644D01*
X147411011Y-96806616D01*
X147413232Y-96800116D01*
X147402924Y-96775394D01*
X147374439Y-96725405D01*
X147330937Y-96655212D01*
X147275577Y-96569875D01*
X147211520Y-96474456D01*
X147193303Y-96447854D01*
X147126927Y-96351167D01*
X147067378Y-96264117D01*
X147017984Y-96191595D01*
X146982075Y-96138493D01*
X146962981Y-96109703D01*
X146961136Y-96106726D01*
X146963895Y-96083782D01*
X146978538Y-96033336D01*
X147002513Y-95962041D01*
X147033266Y-95876547D01*
X147068244Y-95783507D01*
X147104893Y-95689574D01*
X147140661Y-95601399D01*
X147172994Y-95525634D01*
X147199338Y-95468931D01*
X147217142Y-95437943D01*
X147218407Y-95436457D01*
X147229294Y-95427601D01*
X147247682Y-95418843D01*
X147277606Y-95409277D01*
X147323103Y-95397996D01*
X147388209Y-95384093D01*
X147476961Y-95366663D01*
X147593393Y-95344798D01*
X147741542Y-95317591D01*
X147773618Y-95311741D01*
X147868686Y-95293374D01*
X147951565Y-95275405D01*
X148014930Y-95259569D01*
X148051458Y-95247600D01*
X148056356Y-95244810D01*
X148064427Y-95220072D01*
X148070987Y-95164790D01*
X148076033Y-95085389D01*
X148079559Y-94988296D01*
X148081561Y-94879938D01*
X148082036Y-94766740D01*
X148080977Y-94655128D01*
X148078382Y-94551529D01*
X148074246Y-94462368D01*
X148068563Y-94394072D01*
X148061331Y-94353066D01*
X148056971Y-94344674D01*
X148032698Y-94336208D01*
X147977426Y-94322435D01*
X147896662Y-94304550D01*
X147795912Y-94283748D01*
X147680683Y-94261223D01*
X147617902Y-94249418D01*
X147498787Y-94227151D01*
X147392565Y-94206979D01*
X147304427Y-94189915D01*
X147239566Y-94176969D01*
X147203174Y-94169155D01*
X147197184Y-94167422D01*
X147187061Y-94147890D01*
X147165662Y-94100843D01*
X147135839Y-94033003D01*
X147100445Y-93951091D01*
X147062332Y-93861828D01*
X147024353Y-93771935D01*
X146989360Y-93688135D01*
X146960206Y-93617147D01*
X146939743Y-93565694D01*
X146930823Y-93540497D01*
X146930657Y-93539396D01*
X146940769Y-93519519D01*
X146969117Y-93473777D01*
X147012723Y-93406717D01*
X147068606Y-93322884D01*
X147133787Y-93226826D01*
X147171679Y-93171650D01*
X147240725Y-93070481D01*
X147302050Y-92978630D01*
X147352663Y-92900744D01*
X147389571Y-92841469D01*
X147409782Y-92805451D01*
X147412701Y-92797377D01*
X147400153Y-92778584D01*
X147365463Y-92738457D01*
X147313063Y-92681493D01*
X147247384Y-92612185D01*
X147172856Y-92535031D01*
X147093913Y-92454525D01*
X147014983Y-92375163D01*
X146940500Y-92301440D01*
X146874894Y-92237852D01*
X146822596Y-92188894D01*
X146788039Y-92159061D01*
X146776478Y-92151942D01*
X146757654Y-92161953D01*
X146712631Y-92190078D01*
X146645787Y-92233454D01*
X146561499Y-92289218D01*
X146464144Y-92354506D01*
X146390707Y-92404246D01*
X146019667Y-92656551D01*
X145401095Y-92401555D01*
X145317275Y-91956931D01*
X145233454Y-91512307D01*
X144308006Y-91512307D01*
X144224186Y-91956931D01*
G37*
X144224186Y-91956931D02*
X144140365Y-92401555D01*
X143831080Y-92529053D01*
X143521794Y-92656551D01*
X143150754Y-92404246D01*
X143046843Y-92333996D01*
X142952913Y-92271272D01*
X142873348Y-92218938D01*
X142812530Y-92179857D01*
X142774843Y-92156893D01*
X142764579Y-92151942D01*
X142746090Y-92164676D01*
X142706580Y-92199882D01*
X142650478Y-92253062D01*
X142582213Y-92319718D01*
X142506214Y-92395354D01*
X142426908Y-92475472D01*
X142348725Y-92555574D01*
X142276093Y-92631164D01*
X142213441Y-92697745D01*
X142165197Y-92750818D01*
X142135790Y-92785887D01*
X142128759Y-92797623D01*
X142138877Y-92819260D01*
X142167241Y-92866662D01*
X142210871Y-92935193D01*
X142266782Y-93020215D01*
X142331994Y-93117093D01*
X142369781Y-93172350D01*
X142438657Y-93273248D01*
X142499860Y-93364299D01*
X142550422Y-93440970D01*
X142587372Y-93498728D01*
X142607742Y-93533043D01*
X142610803Y-93540254D01*
X142603864Y-93560748D01*
X142584949Y-93608513D01*
X142556913Y-93676832D01*
X142522609Y-93758989D01*
X142484891Y-93848270D01*
X142446613Y-93937958D01*
X142410630Y-94021338D01*
X142379794Y-94091694D01*
X142356961Y-94142310D01*
X142344983Y-94166471D01*
X142344276Y-94167422D01*
X142325469Y-94172036D01*
X142275382Y-94182328D01*
X142199207Y-94197287D01*
X142102135Y-94215901D01*
X141989357Y-94237159D01*
X141923558Y-94249418D01*
X141803050Y-94272362D01*
X141694203Y-94294195D01*
X141602524Y-94313722D01*
X141533519Y-94329748D01*
X141492696Y-94341079D01*
X141484489Y-94344674D01*
X141476452Y-94369006D01*
X141469967Y-94423959D01*
X141465030Y-94503108D01*
X141461636Y-94600026D01*
X141459782Y-94708287D01*
X141459462Y-94821465D01*
X141460673Y-94933135D01*
X141463410Y-95036868D01*
X141467669Y-95126241D01*
X141473445Y-95194826D01*
X141480733Y-95236197D01*
X141485105Y-95244810D01*
X141511236Y-95255133D01*
X141566607Y-95269892D01*
X141643893Y-95287352D01*
X141735770Y-95305780D01*
X141767842Y-95311741D01*
X141922476Y-95340066D01*
X142044625Y-95362876D01*
X142138327Y-95381080D01*
X142207616Y-95395583D01*
X142256529Y-95407292D01*
X142289103Y-95417115D01*
X142309372Y-95425956D01*
X142321374Y-95434724D01*
X142323053Y-95436457D01*
X142339816Y-95464371D01*
X142365386Y-95518695D01*
X142397212Y-95592777D01*
X142432740Y-95679965D01*
X142469417Y-95773608D01*
X142504689Y-95867052D01*
X142536004Y-95953647D01*
X142560807Y-96026740D01*
X142576546Y-96079678D01*
X142580668Y-96105811D01*
X142580324Y-96106726D01*
X142566359Y-96128086D01*
X142534678Y-96175084D01*
X142488609Y-96242827D01*
X142431482Y-96326423D01*
X142366627Y-96420982D01*
X142348157Y-96447854D01*
X142282301Y-96545275D01*
X142224350Y-96634163D01*
X142177462Y-96709412D01*
X142144793Y-96765920D01*
X142129500Y-96798581D01*
X142128759Y-96802593D01*
X142141608Y-96823684D01*
X142177112Y-96865464D01*
X142230707Y-96923445D01*
X142297829Y-96993135D01*
X142373913Y-97070045D01*
X142454396Y-97149683D01*
X142534713Y-97227561D01*
X142610301Y-97299186D01*
X142676595Y-97360070D01*
X142729031Y-97405721D01*
X142763045Y-97431650D01*
X142772455Y-97435883D01*
X142794357Y-97425912D01*
X142839200Y-97399020D01*
X142899679Y-97359736D01*
X142946211Y-97328117D01*
X143030525Y-97270098D01*
X143130374Y-97201784D01*
X143230527Y-97133579D01*
X143284373Y-97097075D01*
X143466629Y-96973800D01*
X143619619Y-97056520D01*
X143689318Y-97092759D01*
X143748586Y-97120926D01*
X143788689Y-97136991D01*
X143798897Y-97139226D01*
X143811171Y-97122722D01*
X143835387Y-97076082D01*
X143869737Y-97003609D01*
X143912412Y-96909606D01*
X143961606Y-96798374D01*
X144015510Y-96674215D01*
X144072316Y-96541432D01*
X144130218Y-96404327D01*
X144187407Y-96267202D01*
X144242076Y-96134358D01*
X144292416Y-96010098D01*
X144336620Y-95898725D01*
X144372881Y-95804539D01*
X144399391Y-95731844D01*
X144414342Y-95684941D01*
X144416746Y-95668833D01*
X144397689Y-95648286D01*
X144355964Y-95614933D01*
X144300294Y-95575702D01*
X144295622Y-95572599D01*
X144151736Y-95457423D01*
X144035717Y-95323053D01*
X143948570Y-95173784D01*
X143891301Y-95013913D01*
X143864914Y-94847737D01*
X143870415Y-94679552D01*
X143908810Y-94513655D01*
X143981105Y-94354342D01*
X144002374Y-94319487D01*
X144113004Y-94178737D01*
X144243698Y-94065714D01*
X144389936Y-93981003D01*
X144547192Y-93925194D01*
X144710943Y-93898874D01*
X144876667Y-93902630D01*
X145039838Y-93937050D01*
X145195935Y-94002723D01*
X145340433Y-94100235D01*
X145385131Y-94139813D01*
X145498888Y-94263703D01*
X145581782Y-94394124D01*
X145638644Y-94540315D01*
X145670313Y-94685088D01*
X145678131Y-94847860D01*
X145652062Y-95011440D01*
X145594755Y-95170298D01*
X145508856Y-95318906D01*
X145397014Y-95451735D01*
X145261877Y-95563256D01*
X145244117Y-95575011D01*
X145187850Y-95613508D01*
X145145077Y-95646863D01*
X145124628Y-95668160D01*
X145124331Y-95668833D01*
X145128721Y-95691871D01*
X145146124Y-95744157D01*
X145174732Y-95821390D01*
X145212735Y-95919268D01*
X145258326Y-96033491D01*
X145309697Y-96159758D01*
X145365038Y-96293767D01*
X145422542Y-96431218D01*
X145480399Y-96567808D01*
X145536802Y-96699237D01*
X145589942Y-96821205D01*
X145638010Y-96929409D01*
X145679199Y-97019549D01*
X145711699Y-97087323D01*
X145733703Y-97128430D01*
X145742564Y-97139226D01*
X145769640Y-97130819D01*
X145820303Y-97108272D01*
X145885817Y-97075613D01*
X145921841Y-97056520D01*
X146074832Y-96973800D01*
X146257088Y-97097075D01*
X146350125Y-97160228D01*
X146451985Y-97229727D01*
X146547438Y-97295165D01*
X146595250Y-97328117D01*
X146662495Y-97373273D01*
X146719436Y-97409057D01*
X146758646Y-97430938D01*
X146771381Y-97435563D01*
X146789917Y-97423085D01*
X146830941Y-97388252D01*
X146890475Y-97334678D01*
X146964542Y-97265983D01*
X147049165Y-97185781D01*
X147102685Y-97134286D01*
X147196319Y-97042286D01*
X147277241Y-96959999D01*
X147342177Y-96890945D01*
X147387858Y-96838644D01*
X147411011Y-96806616D01*
X147413232Y-96800116D01*
X147402924Y-96775394D01*
X147374439Y-96725405D01*
X147330937Y-96655212D01*
X147275577Y-96569875D01*
X147211520Y-96474456D01*
X147193303Y-96447854D01*
X147126927Y-96351167D01*
X147067378Y-96264117D01*
X147017984Y-96191595D01*
X146982075Y-96138493D01*
X146962981Y-96109703D01*
X146961136Y-96106726D01*
X146963895Y-96083782D01*
X146978538Y-96033336D01*
X147002513Y-95962041D01*
X147033266Y-95876547D01*
X147068244Y-95783507D01*
X147104893Y-95689574D01*
X147140661Y-95601399D01*
X147172994Y-95525634D01*
X147199338Y-95468931D01*
X147217142Y-95437943D01*
X147218407Y-95436457D01*
X147229294Y-95427601D01*
X147247682Y-95418843D01*
X147277606Y-95409277D01*
X147323103Y-95397996D01*
X147388209Y-95384093D01*
X147476961Y-95366663D01*
X147593393Y-95344798D01*
X147741542Y-95317591D01*
X147773618Y-95311741D01*
X147868686Y-95293374D01*
X147951565Y-95275405D01*
X148014930Y-95259569D01*
X148051458Y-95247600D01*
X148056356Y-95244810D01*
X148064427Y-95220072D01*
X148070987Y-95164790D01*
X148076033Y-95085389D01*
X148079559Y-94988296D01*
X148081561Y-94879938D01*
X148082036Y-94766740D01*
X148080977Y-94655128D01*
X148078382Y-94551529D01*
X148074246Y-94462368D01*
X148068563Y-94394072D01*
X148061331Y-94353066D01*
X148056971Y-94344674D01*
X148032698Y-94336208D01*
X147977426Y-94322435D01*
X147896662Y-94304550D01*
X147795912Y-94283748D01*
X147680683Y-94261223D01*
X147617902Y-94249418D01*
X147498787Y-94227151D01*
X147392565Y-94206979D01*
X147304427Y-94189915D01*
X147239566Y-94176969D01*
X147203174Y-94169155D01*
X147197184Y-94167422D01*
X147187061Y-94147890D01*
X147165662Y-94100843D01*
X147135839Y-94033003D01*
X147100445Y-93951091D01*
X147062332Y-93861828D01*
X147024353Y-93771935D01*
X146989360Y-93688135D01*
X146960206Y-93617147D01*
X146939743Y-93565694D01*
X146930823Y-93540497D01*
X146930657Y-93539396D01*
X146940769Y-93519519D01*
X146969117Y-93473777D01*
X147012723Y-93406717D01*
X147068606Y-93322884D01*
X147133787Y-93226826D01*
X147171679Y-93171650D01*
X147240725Y-93070481D01*
X147302050Y-92978630D01*
X147352663Y-92900744D01*
X147389571Y-92841469D01*
X147409782Y-92805451D01*
X147412701Y-92797377D01*
X147400153Y-92778584D01*
X147365463Y-92738457D01*
X147313063Y-92681493D01*
X147247384Y-92612185D01*
X147172856Y-92535031D01*
X147093913Y-92454525D01*
X147014983Y-92375163D01*
X146940500Y-92301440D01*
X146874894Y-92237852D01*
X146822596Y-92188894D01*
X146788039Y-92159061D01*
X146776478Y-92151942D01*
X146757654Y-92161953D01*
X146712631Y-92190078D01*
X146645787Y-92233454D01*
X146561499Y-92289218D01*
X146464144Y-92354506D01*
X146390707Y-92404246D01*
X146019667Y-92656551D01*
X145401095Y-92401555D01*
X145317275Y-91956931D01*
X145233454Y-91512307D01*
X144308006Y-91512307D01*
X144224186Y-91956931D01*
D10*
G36*
X178048228Y-95701703D02*
G01*
X178203100Y-95765853D01*
X178342481Y-95858985D01*
X178461015Y-95977519D01*
X178554147Y-96116900D01*
X178618297Y-96271772D01*
X178651000Y-96436184D01*
X178651000Y-96603816D01*
X178618297Y-96768228D01*
X178554147Y-96923100D01*
X178461015Y-97062481D01*
X178342481Y-97181015D01*
X178203100Y-97274147D01*
X178048228Y-97338297D01*
X177883816Y-97371000D01*
X177716184Y-97371000D01*
X177551772Y-97338297D01*
X177396900Y-97274147D01*
X177257519Y-97181015D01*
X177138985Y-97062481D01*
X177045853Y-96923100D01*
X176981703Y-96768228D01*
X176949000Y-96603816D01*
X176949000Y-96436184D01*
X176981703Y-96271772D01*
X177045853Y-96116900D01*
X177138985Y-95977519D01*
X177257519Y-95858985D01*
X177396900Y-95765853D01*
X177551772Y-95701703D01*
X177716184Y-95669000D01*
X177883816Y-95669000D01*
X178048228Y-95701703D01*
G37*
G36*
X167888228Y-95701703D02*
G01*
X168043100Y-95765853D01*
X168182481Y-95858985D01*
X168301015Y-95977519D01*
X168394147Y-96116900D01*
X168458297Y-96271772D01*
X168491000Y-96436184D01*
X168491000Y-96603816D01*
X168458297Y-96768228D01*
X168394147Y-96923100D01*
X168301015Y-97062481D01*
X168182481Y-97181015D01*
X168043100Y-97274147D01*
X167888228Y-97338297D01*
X167723816Y-97371000D01*
X167556184Y-97371000D01*
X167391772Y-97338297D01*
X167236900Y-97274147D01*
X167097519Y-97181015D01*
X166978985Y-97062481D01*
X166885853Y-96923100D01*
X166821703Y-96768228D01*
X166789000Y-96603816D01*
X166789000Y-96436184D01*
X166821703Y-96271772D01*
X166885853Y-96116900D01*
X166978985Y-95977519D01*
X167097519Y-95858985D01*
X167236900Y-95765853D01*
X167391772Y-95701703D01*
X167556184Y-95669000D01*
X167723816Y-95669000D01*
X167888228Y-95701703D01*
G37*
G36*
X139948228Y-95701703D02*
G01*
X140103100Y-95765853D01*
X140242481Y-95858985D01*
X140361015Y-95977519D01*
X140454147Y-96116900D01*
X140518297Y-96271772D01*
X140551000Y-96436184D01*
X140551000Y-96603816D01*
X140518297Y-96768228D01*
X140454147Y-96923100D01*
X140361015Y-97062481D01*
X140242481Y-97181015D01*
X140103100Y-97274147D01*
X139948228Y-97338297D01*
X139783816Y-97371000D01*
X139616184Y-97371000D01*
X139451772Y-97338297D01*
X139296900Y-97274147D01*
X139157519Y-97181015D01*
X139038985Y-97062481D01*
X138945853Y-96923100D01*
X138881703Y-96768228D01*
X138849000Y-96603816D01*
X138849000Y-96436184D01*
X138881703Y-96271772D01*
X138945853Y-96116900D01*
X139038985Y-95977519D01*
X139157519Y-95858985D01*
X139296900Y-95765853D01*
X139451772Y-95701703D01*
X139616184Y-95669000D01*
X139783816Y-95669000D01*
X139948228Y-95701703D01*
G37*
G36*
X150108228Y-95701703D02*
G01*
X150263100Y-95765853D01*
X150402481Y-95858985D01*
X150521015Y-95977519D01*
X150614147Y-96116900D01*
X150678297Y-96271772D01*
X150711000Y-96436184D01*
X150711000Y-96603816D01*
X150678297Y-96768228D01*
X150614147Y-96923100D01*
X150521015Y-97062481D01*
X150402481Y-97181015D01*
X150263100Y-97274147D01*
X150108228Y-97338297D01*
X149943816Y-97371000D01*
X149776184Y-97371000D01*
X149611772Y-97338297D01*
X149456900Y-97274147D01*
X149317519Y-97181015D01*
X149198985Y-97062481D01*
X149105853Y-96923100D01*
X149041703Y-96768228D01*
X149009000Y-96603816D01*
X149009000Y-96436184D01*
X149041703Y-96271772D01*
X149105853Y-96116900D01*
X149198985Y-95977519D01*
X149317519Y-95858985D01*
X149456900Y-95765853D01*
X149611772Y-95701703D01*
X149776184Y-95669000D01*
X149943816Y-95669000D01*
X150108228Y-95701703D01*
G37*
G36*
X155188228Y-94391703D02*
G01*
X155343100Y-94455853D01*
X155482481Y-94548985D01*
X155601015Y-94667519D01*
X155694147Y-94806900D01*
X155758297Y-94961772D01*
X155791000Y-95126184D01*
X155791000Y-95293816D01*
X155758297Y-95458228D01*
X155694147Y-95613100D01*
X155601015Y-95752481D01*
X155482481Y-95871015D01*
X155343100Y-95964147D01*
X155188228Y-96028297D01*
X155023816Y-96061000D01*
X154856184Y-96061000D01*
X154691772Y-96028297D01*
X154536900Y-95964147D01*
X154397519Y-95871015D01*
X154278985Y-95752481D01*
X154185853Y-95613100D01*
X154121703Y-95458228D01*
X154089000Y-95293816D01*
X154089000Y-95126184D01*
X154121703Y-94961772D01*
X154185853Y-94806900D01*
X154278985Y-94667519D01*
X154397519Y-94548985D01*
X154536900Y-94455853D01*
X154691772Y-94391703D01*
X154856184Y-94359000D01*
X155023816Y-94359000D01*
X155188228Y-94391703D01*
G37*
G36*
X162808228Y-94391703D02*
G01*
X162963100Y-94455853D01*
X163102481Y-94548985D01*
X163221015Y-94667519D01*
X163314147Y-94806900D01*
X163378297Y-94961772D01*
X163411000Y-95126184D01*
X163411000Y-95293816D01*
X163378297Y-95458228D01*
X163314147Y-95613100D01*
X163221015Y-95752481D01*
X163102481Y-95871015D01*
X162963100Y-95964147D01*
X162808228Y-96028297D01*
X162643816Y-96061000D01*
X162476184Y-96061000D01*
X162311772Y-96028297D01*
X162156900Y-95964147D01*
X162017519Y-95871015D01*
X161898985Y-95752481D01*
X161805853Y-95613100D01*
X161741703Y-95458228D01*
X161709000Y-95293816D01*
X161709000Y-95126184D01*
X161741703Y-94961772D01*
X161805853Y-94806900D01*
X161898985Y-94667519D01*
X162017519Y-94548985D01*
X162156900Y-94455853D01*
X162311772Y-94391703D01*
X162476184Y-94359000D01*
X162643816Y-94359000D01*
X162808228Y-94391703D01*
G37*
G36*
X167888228Y-91891703D02*
G01*
X168043100Y-91955853D01*
X168182481Y-92048985D01*
X168301015Y-92167519D01*
X168394147Y-92306900D01*
X168458297Y-92461772D01*
X168491000Y-92626184D01*
X168491000Y-92793816D01*
X168458297Y-92958228D01*
X168394147Y-93113100D01*
X168301015Y-93252481D01*
X168182481Y-93371015D01*
X168043100Y-93464147D01*
X167888228Y-93528297D01*
X167723816Y-93561000D01*
X167556184Y-93561000D01*
X167391772Y-93528297D01*
X167236900Y-93464147D01*
X167097519Y-93371015D01*
X166978985Y-93252481D01*
X166885853Y-93113100D01*
X166821703Y-92958228D01*
X166789000Y-92793816D01*
X166789000Y-92626184D01*
X166821703Y-92461772D01*
X166885853Y-92306900D01*
X166978985Y-92167519D01*
X167097519Y-92048985D01*
X167236900Y-91955853D01*
X167391772Y-91891703D01*
X167556184Y-91859000D01*
X167723816Y-91859000D01*
X167888228Y-91891703D01*
G37*
G36*
X155791000Y-93561000D02*
G01*
X154089000Y-93561000D01*
X154089000Y-91859000D01*
X155791000Y-91859000D01*
X155791000Y-93561000D01*
G37*
G36*
X163411000Y-93561000D02*
G01*
X161709000Y-93561000D01*
X161709000Y-91859000D01*
X163411000Y-91859000D01*
X163411000Y-93561000D01*
G37*
G36*
X178048228Y-91891703D02*
G01*
X178203100Y-91955853D01*
X178342481Y-92048985D01*
X178461015Y-92167519D01*
X178554147Y-92306900D01*
X178618297Y-92461772D01*
X178651000Y-92626184D01*
X178651000Y-92793816D01*
X178618297Y-92958228D01*
X178554147Y-93113100D01*
X178461015Y-93252481D01*
X178342481Y-93371015D01*
X178203100Y-93464147D01*
X178048228Y-93528297D01*
X177883816Y-93561000D01*
X177716184Y-93561000D01*
X177551772Y-93528297D01*
X177396900Y-93464147D01*
X177257519Y-93371015D01*
X177138985Y-93252481D01*
X177045853Y-93113100D01*
X176981703Y-92958228D01*
X176949000Y-92793816D01*
X176949000Y-92626184D01*
X176981703Y-92461772D01*
X177045853Y-92306900D01*
X177138985Y-92167519D01*
X177257519Y-92048985D01*
X177396900Y-91955853D01*
X177551772Y-91891703D01*
X177716184Y-91859000D01*
X177883816Y-91859000D01*
X178048228Y-91891703D01*
G37*
G36*
X150108228Y-91891703D02*
G01*
X150263100Y-91955853D01*
X150402481Y-92048985D01*
X150521015Y-92167519D01*
X150614147Y-92306900D01*
X150678297Y-92461772D01*
X150711000Y-92626184D01*
X150711000Y-92793816D01*
X150678297Y-92958228D01*
X150614147Y-93113100D01*
X150521015Y-93252481D01*
X150402481Y-93371015D01*
X150263100Y-93464147D01*
X150108228Y-93528297D01*
X149943816Y-93561000D01*
X149776184Y-93561000D01*
X149611772Y-93528297D01*
X149456900Y-93464147D01*
X149317519Y-93371015D01*
X149198985Y-93252481D01*
X149105853Y-93113100D01*
X149041703Y-92958228D01*
X149009000Y-92793816D01*
X149009000Y-92626184D01*
X149041703Y-92461772D01*
X149105853Y-92306900D01*
X149198985Y-92167519D01*
X149317519Y-92048985D01*
X149456900Y-91955853D01*
X149611772Y-91891703D01*
X149776184Y-91859000D01*
X149943816Y-91859000D01*
X150108228Y-91891703D01*
G37*
G36*
X139948228Y-91891703D02*
G01*
X140103100Y-91955853D01*
X140242481Y-92048985D01*
X140361015Y-92167519D01*
X140454147Y-92306900D01*
X140518297Y-92461772D01*
X140551000Y-92626184D01*
X140551000Y-92793816D01*
X140518297Y-92958228D01*
X140454147Y-93113100D01*
X140361015Y-93252481D01*
X140242481Y-93371015D01*
X140103100Y-93464147D01*
X139948228Y-93528297D01*
X139783816Y-93561000D01*
X139616184Y-93561000D01*
X139451772Y-93528297D01*
X139296900Y-93464147D01*
X139157519Y-93371015D01*
X139038985Y-93252481D01*
X138945853Y-93113100D01*
X138881703Y-92958228D01*
X138849000Y-92793816D01*
X138849000Y-92626184D01*
X138881703Y-92461772D01*
X138945853Y-92306900D01*
X139038985Y-92167519D01*
X139157519Y-92048985D01*
X139296900Y-91955853D01*
X139451772Y-91891703D01*
X139616184Y-91859000D01*
X139783816Y-91859000D01*
X139948228Y-91891703D01*
G37*
G36*
X145381000Y-90251000D02*
G01*
X144179000Y-90251000D01*
X144179000Y-88349000D01*
X145381000Y-88349000D01*
X145381000Y-90251000D01*
G37*
G36*
X147729315Y-88354166D02*
G01*
X147773843Y-88367674D01*
X147814892Y-88389615D01*
X147850864Y-88419136D01*
X147880385Y-88455108D01*
X147902326Y-88496157D01*
X147915834Y-88540685D01*
X147921000Y-88593140D01*
X147921000Y-90006860D01*
X147915834Y-90059315D01*
X147902326Y-90103843D01*
X147880385Y-90144892D01*
X147850864Y-90180864D01*
X147814892Y-90210385D01*
X147773843Y-90232326D01*
X147729315Y-90245834D01*
X147676860Y-90251000D01*
X146963140Y-90251000D01*
X146910685Y-90245834D01*
X146866157Y-90232326D01*
X146825108Y-90210385D01*
X146789136Y-90180864D01*
X146759615Y-90144892D01*
X146737674Y-90103843D01*
X146724166Y-90059315D01*
X146719000Y-90006860D01*
X146719000Y-88593140D01*
X146724166Y-88540685D01*
X146737674Y-88496157D01*
X146759615Y-88455108D01*
X146789136Y-88419136D01*
X146825108Y-88389615D01*
X146866157Y-88367674D01*
X146910685Y-88354166D01*
X146963140Y-88349000D01*
X147676860Y-88349000D01*
X147729315Y-88354166D01*
G37*
G36*
X170781000Y-90251000D02*
G01*
X169579000Y-90251000D01*
X169579000Y-88349000D01*
X170781000Y-88349000D01*
X170781000Y-90251000D01*
G37*
G36*
X173129315Y-88354166D02*
G01*
X173173843Y-88367674D01*
X173214892Y-88389615D01*
X173250864Y-88419136D01*
X173280385Y-88455108D01*
X173302326Y-88496157D01*
X173315834Y-88540685D01*
X173321000Y-88593140D01*
X173321000Y-90006860D01*
X173315834Y-90059315D01*
X173302326Y-90103843D01*
X173280385Y-90144892D01*
X173250864Y-90180864D01*
X173214892Y-90210385D01*
X173173843Y-90232326D01*
X173129315Y-90245834D01*
X173076860Y-90251000D01*
X172363140Y-90251000D01*
X172310685Y-90245834D01*
X172266157Y-90232326D01*
X172225108Y-90210385D01*
X172189136Y-90180864D01*
X172159615Y-90144892D01*
X172137674Y-90103843D01*
X172124166Y-90059315D01*
X172119000Y-90006860D01*
X172119000Y-88593140D01*
X172124166Y-88540685D01*
X172137674Y-88496157D01*
X172159615Y-88455108D01*
X172189136Y-88419136D01*
X172225108Y-88389615D01*
X172266157Y-88367674D01*
X172310685Y-88354166D01*
X172363140Y-88349000D01*
X173076860Y-88349000D01*
X173129315Y-88354166D01*
G37*
G36*
X146459315Y-86284166D02*
G01*
X146503843Y-86297674D01*
X146544892Y-86319615D01*
X146580864Y-86349136D01*
X146610385Y-86385108D01*
X146632326Y-86426157D01*
X146645834Y-86470685D01*
X146651000Y-86523140D01*
X146651000Y-87936860D01*
X146645834Y-87989315D01*
X146632326Y-88033843D01*
X146610385Y-88074892D01*
X146580864Y-88110864D01*
X146544892Y-88140385D01*
X146503843Y-88162326D01*
X146459315Y-88175834D01*
X146406860Y-88181000D01*
X145693140Y-88181000D01*
X145640685Y-88175834D01*
X145596153Y-88162325D01*
X145564923Y-88145632D01*
X145550320Y-88139583D01*
X145539256Y-88127376D01*
X145519136Y-88110864D01*
X145489615Y-88074892D01*
X145467674Y-88033843D01*
X145454166Y-87989315D01*
X145449000Y-87936860D01*
X145449000Y-86523140D01*
X145454166Y-86470685D01*
X145467674Y-86426157D01*
X145489615Y-86385108D01*
X145519136Y-86349136D01*
X145555108Y-86319615D01*
X145596157Y-86297674D01*
X145640685Y-86284166D01*
X145693140Y-86279000D01*
X146406860Y-86279000D01*
X146459315Y-86284166D01*
G37*
G36*
X171859315Y-86284166D02*
G01*
X171903843Y-86297674D01*
X171944892Y-86319615D01*
X171980864Y-86349136D01*
X172010385Y-86385108D01*
X172032326Y-86426157D01*
X172045834Y-86470685D01*
X172051000Y-86523140D01*
X172051000Y-87936860D01*
X172045834Y-87989315D01*
X172032326Y-88033843D01*
X172010385Y-88074892D01*
X171980864Y-88110864D01*
X171944892Y-88140385D01*
X171903843Y-88162326D01*
X171859315Y-88175834D01*
X171806860Y-88181000D01*
X171093140Y-88181000D01*
X171040685Y-88175834D01*
X170996153Y-88162325D01*
X170964923Y-88145632D01*
X170950320Y-88139583D01*
X170939256Y-88127376D01*
X170919136Y-88110864D01*
X170889615Y-88074892D01*
X170867674Y-88033843D01*
X170854166Y-87989315D01*
X170849000Y-87936860D01*
X170849000Y-86523140D01*
X170854166Y-86470685D01*
X170867674Y-86426157D01*
X170889615Y-86385108D01*
X170919136Y-86349136D01*
X170955108Y-86319615D01*
X170996157Y-86297674D01*
X171040685Y-86284166D01*
X171093140Y-86279000D01*
X171806860Y-86279000D01*
X171859315Y-86284166D01*
G37*
G36*
X164078228Y-86049703D02*
G01*
X164233100Y-86113853D01*
X164372481Y-86206985D01*
X164491015Y-86325519D01*
X164584147Y-86464900D01*
X164648297Y-86619772D01*
X164681000Y-86784184D01*
X164681000Y-86951816D01*
X164648297Y-87116228D01*
X164584147Y-87271100D01*
X164491015Y-87410481D01*
X164372481Y-87529015D01*
X164233100Y-87622147D01*
X164078228Y-87686297D01*
X163913816Y-87719000D01*
X163746184Y-87719000D01*
X163581772Y-87686297D01*
X163426900Y-87622147D01*
X163287519Y-87529015D01*
X163168985Y-87410481D01*
X163075853Y-87271100D01*
X163011703Y-87116228D01*
X162979000Y-86951816D01*
X162979000Y-86784184D01*
X163011703Y-86619772D01*
X163075853Y-86464900D01*
X163168985Y-86325519D01*
X163287519Y-86206985D01*
X163426900Y-86113853D01*
X163581772Y-86049703D01*
X163746184Y-86017000D01*
X163913816Y-86017000D01*
X164078228Y-86049703D01*
G37*
G36*
X153918228Y-86049703D02*
G01*
X154073100Y-86113853D01*
X154212481Y-86206985D01*
X154331015Y-86325519D01*
X154424147Y-86464900D01*
X154488297Y-86619772D01*
X154521000Y-86784184D01*
X154521000Y-86951816D01*
X154488297Y-87116228D01*
X154424147Y-87271100D01*
X154331015Y-87410481D01*
X154212481Y-87529015D01*
X154073100Y-87622147D01*
X153918228Y-87686297D01*
X153753816Y-87719000D01*
X153586184Y-87719000D01*
X153421772Y-87686297D01*
X153266900Y-87622147D01*
X153127519Y-87529015D01*
X153008985Y-87410481D01*
X152915853Y-87271100D01*
X152851703Y-87116228D01*
X152819000Y-86951816D01*
X152819000Y-86784184D01*
X152851703Y-86619772D01*
X152915853Y-86464900D01*
X153008985Y-86325519D01*
X153127519Y-86206985D01*
X153266900Y-86113853D01*
X153421772Y-86049703D01*
X153586184Y-86017000D01*
X153753816Y-86017000D01*
X153918228Y-86049703D01*
G37*
G36*
X147901000Y-85256000D02*
G01*
X144199000Y-85256000D01*
X144199000Y-83654000D01*
X147901000Y-83654000D01*
X147901000Y-85256000D01*
G37*
G36*
X173331000Y-85256000D02*
G01*
X169629000Y-85256000D01*
X169629000Y-83654000D01*
X173331000Y-83654000D01*
X173331000Y-85256000D01*
G37*
G36*
X174941000Y-82231000D02*
G01*
X173039000Y-82231000D01*
X173039000Y-80329000D01*
X174941000Y-80329000D01*
X174941000Y-82231000D01*
G37*
G36*
X176807395Y-80365546D02*
G01*
X176980466Y-80437234D01*
X176980467Y-80437235D01*
X177136227Y-80541310D01*
X177268690Y-80673773D01*
X177268691Y-80673775D01*
X177372766Y-80829534D01*
X177444454Y-81002605D01*
X177481000Y-81186333D01*
X177481000Y-81373667D01*
X177444454Y-81557395D01*
X177372766Y-81730466D01*
X177372765Y-81730467D01*
X177268690Y-81886227D01*
X177136227Y-82018690D01*
X177057818Y-82071081D01*
X176980466Y-82122766D01*
X176807395Y-82194454D01*
X176623667Y-82231000D01*
X176436333Y-82231000D01*
X176252605Y-82194454D01*
X176079534Y-82122766D01*
X176002182Y-82071081D01*
X175923773Y-82018690D01*
X175791310Y-81886227D01*
X175687235Y-81730467D01*
X175687234Y-81730466D01*
X175615546Y-81557395D01*
X175579000Y-81373667D01*
X175579000Y-81186333D01*
X175615546Y-81002605D01*
X175687234Y-80829534D01*
X175791309Y-80673775D01*
X175791310Y-80673773D01*
X175923773Y-80541310D01*
X176079533Y-80437235D01*
X176079534Y-80437234D01*
X176252605Y-80365546D01*
X176436333Y-80329000D01*
X176623667Y-80329000D01*
X176807395Y-80365546D01*
G37*
G36*
X169187395Y-80365546D02*
G01*
X169360466Y-80437234D01*
X169360467Y-80437235D01*
X169516227Y-80541310D01*
X169648690Y-80673773D01*
X169648691Y-80673775D01*
X169752766Y-80829534D01*
X169824454Y-81002605D01*
X169861000Y-81186333D01*
X169861000Y-81373667D01*
X169824454Y-81557395D01*
X169752766Y-81730466D01*
X169752765Y-81730467D01*
X169648690Y-81886227D01*
X169516227Y-82018690D01*
X169437818Y-82071081D01*
X169360466Y-82122766D01*
X169187395Y-82194454D01*
X169003667Y-82231000D01*
X168816333Y-82231000D01*
X168632605Y-82194454D01*
X168459534Y-82122766D01*
X168382182Y-82071081D01*
X168303773Y-82018690D01*
X168171310Y-81886227D01*
X168067235Y-81730467D01*
X168067234Y-81730466D01*
X167995546Y-81557395D01*
X167959000Y-81373667D01*
X167959000Y-81186333D01*
X167995546Y-81002605D01*
X168067234Y-80829534D01*
X168171309Y-80673775D01*
X168171310Y-80673773D01*
X168303773Y-80541310D01*
X168459533Y-80437235D01*
X168459534Y-80437234D01*
X168632605Y-80365546D01*
X168816333Y-80329000D01*
X169003667Y-80329000D01*
X169187395Y-80365546D01*
G37*
G36*
X167321000Y-82231000D02*
G01*
X165419000Y-82231000D01*
X165419000Y-80329000D01*
X167321000Y-80329000D01*
X167321000Y-82231000D01*
G37*
G36*
X151407395Y-80365546D02*
G01*
X151580466Y-80437234D01*
X151580467Y-80437235D01*
X151736227Y-80541310D01*
X151868690Y-80673773D01*
X151868691Y-80673775D01*
X151972766Y-80829534D01*
X152044454Y-81002605D01*
X152081000Y-81186333D01*
X152081000Y-81373667D01*
X152044454Y-81557395D01*
X151972766Y-81730466D01*
X151972765Y-81730467D01*
X151868690Y-81886227D01*
X151736227Y-82018690D01*
X151657818Y-82071081D01*
X151580466Y-82122766D01*
X151407395Y-82194454D01*
X151223667Y-82231000D01*
X151036333Y-82231000D01*
X150852605Y-82194454D01*
X150679534Y-82122766D01*
X150602182Y-82071081D01*
X150523773Y-82018690D01*
X150391310Y-81886227D01*
X150287235Y-81730467D01*
X150287234Y-81730466D01*
X150215546Y-81557395D01*
X150179000Y-81373667D01*
X150179000Y-81186333D01*
X150215546Y-81002605D01*
X150287234Y-80829534D01*
X150391309Y-80673775D01*
X150391310Y-80673773D01*
X150523773Y-80541310D01*
X150679533Y-80437235D01*
X150679534Y-80437234D01*
X150852605Y-80365546D01*
X151036333Y-80329000D01*
X151223667Y-80329000D01*
X151407395Y-80365546D01*
G37*
G36*
X149541000Y-82231000D02*
G01*
X147639000Y-82231000D01*
X147639000Y-80329000D01*
X149541000Y-80329000D01*
X149541000Y-82231000D01*
G37*
G36*
X143787395Y-80365546D02*
G01*
X143960466Y-80437234D01*
X143960467Y-80437235D01*
X144116227Y-80541310D01*
X144248690Y-80673773D01*
X144248691Y-80673775D01*
X144352766Y-80829534D01*
X144424454Y-81002605D01*
X144461000Y-81186333D01*
X144461000Y-81373667D01*
X144424454Y-81557395D01*
X144352766Y-81730466D01*
X144352765Y-81730467D01*
X144248690Y-81886227D01*
X144116227Y-82018690D01*
X144037818Y-82071081D01*
X143960466Y-82122766D01*
X143787395Y-82194454D01*
X143603667Y-82231000D01*
X143416333Y-82231000D01*
X143232605Y-82194454D01*
X143059534Y-82122766D01*
X142982182Y-82071081D01*
X142903773Y-82018690D01*
X142771310Y-81886227D01*
X142667235Y-81730467D01*
X142667234Y-81730466D01*
X142595546Y-81557395D01*
X142559000Y-81373667D01*
X142559000Y-81186333D01*
X142595546Y-81002605D01*
X142667234Y-80829534D01*
X142771309Y-80673775D01*
X142771310Y-80673773D01*
X142903773Y-80541310D01*
X143059533Y-80437235D01*
X143059534Y-80437234D01*
X143232605Y-80365546D01*
X143416333Y-80329000D01*
X143603667Y-80329000D01*
X143787395Y-80365546D01*
G37*
G36*
X141921000Y-82231000D02*
G01*
X140019000Y-82231000D01*
X140019000Y-80329000D01*
X141921000Y-80329000D01*
X141921000Y-82231000D01*
G37*
G36*
X158381000Y-82181000D02*
G01*
X156579000Y-82181000D01*
X156579000Y-80379000D01*
X158381000Y-80379000D01*
X158381000Y-82181000D01*
G37*
G36*
X160133512Y-80383927D02*
G01*
X160282812Y-80413624D01*
X160446784Y-80481544D01*
X160594354Y-80580147D01*
X160719853Y-80705646D01*
X160818456Y-80853216D01*
X160886376Y-81017188D01*
X160921000Y-81191259D01*
X160921000Y-81368741D01*
X160886376Y-81542812D01*
X160818456Y-81706784D01*
X160719853Y-81854354D01*
X160594354Y-81979853D01*
X160446784Y-82078456D01*
X160282812Y-82146376D01*
X160133512Y-82176073D01*
X160108742Y-82181000D01*
X159931258Y-82181000D01*
X159906488Y-82176073D01*
X159757188Y-82146376D01*
X159593216Y-82078456D01*
X159445646Y-81979853D01*
X159320147Y-81854354D01*
X159221544Y-81706784D01*
X159153624Y-81542812D01*
X159119000Y-81368741D01*
X159119000Y-81191259D01*
X159153624Y-81017188D01*
X159221544Y-80853216D01*
X159320147Y-80705646D01*
X159445646Y-80580147D01*
X159593216Y-80481544D01*
X159757188Y-80413624D01*
X159906488Y-80383927D01*
X159931258Y-80379000D01*
X160108742Y-80379000D01*
X160133512Y-80383927D01*
G37*
M02*
