G04 #@! TF.GenerationSoftware,KiCad,Pcbnew,5.1.6+dfsg1-1*
G04 #@! TF.CreationDate,2020-06-27T19:18:23-04:00*
G04 #@! TF.ProjectId,C,432e6b69-6361-4645-9f70-636258585858,rev?*
G04 #@! TF.SameCoordinates,Original*
G04 #@! TF.FileFunction,Copper,L2,Bot*
G04 #@! TF.FilePolarity,Positive*
%FSLAX46Y46*%
G04 Gerber Fmt 4.6, Leading zero omitted, Abs format (unit mm)*
G04 Created by KiCad (PCBNEW 5.1.6+dfsg1-1) date 2020-06-27 19:18:23*
%MOMM*%
%LPD*%
G01*
G04 APERTURE LIST*
G04 #@! TA.AperFunction,EtchedComponent*
%ADD10C,0.010000*%
G04 #@! TD*
G04 #@! TA.AperFunction,EtchedComponent*
%ADD11C,0.100000*%
G04 #@! TD*
G04 #@! TA.AperFunction,ComponentPad*
%ADD12R,1.100000X1.800000*%
G04 #@! TD*
G04 #@! TA.AperFunction,ComponentPad*
%ADD13C,1.600000*%
G04 #@! TD*
G04 #@! TA.AperFunction,ComponentPad*
%ADD14R,1.600000X1.600000*%
G04 #@! TD*
G04 #@! TA.AperFunction,SMDPad,CuDef*
%ADD15R,1.000000X1.500000*%
G04 #@! TD*
G04 #@! TA.AperFunction,ComponentPad*
%ADD16O,1.600000X1.600000*%
G04 #@! TD*
G04 #@! TA.AperFunction,ComponentPad*
%ADD17C,1.800000*%
G04 #@! TD*
G04 #@! TA.AperFunction,ComponentPad*
%ADD18R,1.800000X1.800000*%
G04 #@! TD*
G04 #@! TA.AperFunction,ComponentPad*
%ADD19O,1.700000X1.700000*%
G04 #@! TD*
G04 #@! TA.AperFunction,ComponentPad*
%ADD20R,1.700000X1.700000*%
G04 #@! TD*
G04 #@! TA.AperFunction,Conductor*
%ADD21C,0.381000*%
G04 #@! TD*
G04 #@! TA.AperFunction,Conductor*
%ADD22C,0.254000*%
G04 #@! TD*
G04 APERTURE END LIST*
D10*
G36*
X144224186Y-91956931D02*
G01*
X144140365Y-92401555D01*
X143831080Y-92529053D01*
X143521794Y-92656551D01*
X143150754Y-92404246D01*
X143046843Y-92333996D01*
X142952913Y-92271272D01*
X142873348Y-92218938D01*
X142812530Y-92179857D01*
X142774843Y-92156893D01*
X142764579Y-92151942D01*
X142746090Y-92164676D01*
X142706580Y-92199882D01*
X142650478Y-92253062D01*
X142582213Y-92319718D01*
X142506214Y-92395354D01*
X142426908Y-92475472D01*
X142348725Y-92555574D01*
X142276093Y-92631164D01*
X142213441Y-92697745D01*
X142165197Y-92750818D01*
X142135790Y-92785887D01*
X142128759Y-92797623D01*
X142138877Y-92819260D01*
X142167241Y-92866662D01*
X142210871Y-92935193D01*
X142266782Y-93020215D01*
X142331994Y-93117093D01*
X142369781Y-93172350D01*
X142438657Y-93273248D01*
X142499860Y-93364299D01*
X142550422Y-93440970D01*
X142587372Y-93498728D01*
X142607742Y-93533043D01*
X142610803Y-93540254D01*
X142603864Y-93560748D01*
X142584949Y-93608513D01*
X142556913Y-93676832D01*
X142522609Y-93758989D01*
X142484891Y-93848270D01*
X142446613Y-93937958D01*
X142410630Y-94021338D01*
X142379794Y-94091694D01*
X142356961Y-94142310D01*
X142344983Y-94166471D01*
X142344276Y-94167422D01*
X142325469Y-94172036D01*
X142275382Y-94182328D01*
X142199207Y-94197287D01*
X142102135Y-94215901D01*
X141989357Y-94237159D01*
X141923558Y-94249418D01*
X141803050Y-94272362D01*
X141694203Y-94294195D01*
X141602524Y-94313722D01*
X141533519Y-94329748D01*
X141492696Y-94341079D01*
X141484489Y-94344674D01*
X141476452Y-94369006D01*
X141469967Y-94423959D01*
X141465030Y-94503108D01*
X141461636Y-94600026D01*
X141459782Y-94708287D01*
X141459462Y-94821465D01*
X141460673Y-94933135D01*
X141463410Y-95036868D01*
X141467669Y-95126241D01*
X141473445Y-95194826D01*
X141480733Y-95236197D01*
X141485105Y-95244810D01*
X141511236Y-95255133D01*
X141566607Y-95269892D01*
X141643893Y-95287352D01*
X141735770Y-95305780D01*
X141767842Y-95311741D01*
X141922476Y-95340066D01*
X142044625Y-95362876D01*
X142138327Y-95381080D01*
X142207616Y-95395583D01*
X142256529Y-95407292D01*
X142289103Y-95417115D01*
X142309372Y-95425956D01*
X142321374Y-95434724D01*
X142323053Y-95436457D01*
X142339816Y-95464371D01*
X142365386Y-95518695D01*
X142397212Y-95592777D01*
X142432740Y-95679965D01*
X142469417Y-95773608D01*
X142504689Y-95867052D01*
X142536004Y-95953647D01*
X142560807Y-96026740D01*
X142576546Y-96079678D01*
X142580668Y-96105811D01*
X142580324Y-96106726D01*
X142566359Y-96128086D01*
X142534678Y-96175084D01*
X142488609Y-96242827D01*
X142431482Y-96326423D01*
X142366627Y-96420982D01*
X142348157Y-96447854D01*
X142282301Y-96545275D01*
X142224350Y-96634163D01*
X142177462Y-96709412D01*
X142144793Y-96765920D01*
X142129500Y-96798581D01*
X142128759Y-96802593D01*
X142141608Y-96823684D01*
X142177112Y-96865464D01*
X142230707Y-96923445D01*
X142297829Y-96993135D01*
X142373913Y-97070045D01*
X142454396Y-97149683D01*
X142534713Y-97227561D01*
X142610301Y-97299186D01*
X142676595Y-97360070D01*
X142729031Y-97405721D01*
X142763045Y-97431650D01*
X142772455Y-97435883D01*
X142794357Y-97425912D01*
X142839200Y-97399020D01*
X142899679Y-97359736D01*
X142946211Y-97328117D01*
X143030525Y-97270098D01*
X143130374Y-97201784D01*
X143230527Y-97133579D01*
X143284373Y-97097075D01*
X143466629Y-96973800D01*
X143619619Y-97056520D01*
X143689318Y-97092759D01*
X143748586Y-97120926D01*
X143788689Y-97136991D01*
X143798897Y-97139226D01*
X143811171Y-97122722D01*
X143835387Y-97076082D01*
X143869737Y-97003609D01*
X143912412Y-96909606D01*
X143961606Y-96798374D01*
X144015510Y-96674215D01*
X144072316Y-96541432D01*
X144130218Y-96404327D01*
X144187407Y-96267202D01*
X144242076Y-96134358D01*
X144292416Y-96010098D01*
X144336620Y-95898725D01*
X144372881Y-95804539D01*
X144399391Y-95731844D01*
X144414342Y-95684941D01*
X144416746Y-95668833D01*
X144397689Y-95648286D01*
X144355964Y-95614933D01*
X144300294Y-95575702D01*
X144295622Y-95572599D01*
X144151736Y-95457423D01*
X144035717Y-95323053D01*
X143948570Y-95173784D01*
X143891301Y-95013913D01*
X143864914Y-94847737D01*
X143870415Y-94679552D01*
X143908810Y-94513655D01*
X143981105Y-94354342D01*
X144002374Y-94319487D01*
X144113004Y-94178737D01*
X144243698Y-94065714D01*
X144389936Y-93981003D01*
X144547192Y-93925194D01*
X144710943Y-93898874D01*
X144876667Y-93902630D01*
X145039838Y-93937050D01*
X145195935Y-94002723D01*
X145340433Y-94100235D01*
X145385131Y-94139813D01*
X145498888Y-94263703D01*
X145581782Y-94394124D01*
X145638644Y-94540315D01*
X145670313Y-94685088D01*
X145678131Y-94847860D01*
X145652062Y-95011440D01*
X145594755Y-95170298D01*
X145508856Y-95318906D01*
X145397014Y-95451735D01*
X145261877Y-95563256D01*
X145244117Y-95575011D01*
X145187850Y-95613508D01*
X145145077Y-95646863D01*
X145124628Y-95668160D01*
X145124331Y-95668833D01*
X145128721Y-95691871D01*
X145146124Y-95744157D01*
X145174732Y-95821390D01*
X145212735Y-95919268D01*
X145258326Y-96033491D01*
X145309697Y-96159758D01*
X145365038Y-96293767D01*
X145422542Y-96431218D01*
X145480399Y-96567808D01*
X145536802Y-96699237D01*
X145589942Y-96821205D01*
X145638010Y-96929409D01*
X145679199Y-97019549D01*
X145711699Y-97087323D01*
X145733703Y-97128430D01*
X145742564Y-97139226D01*
X145769640Y-97130819D01*
X145820303Y-97108272D01*
X145885817Y-97075613D01*
X145921841Y-97056520D01*
X146074832Y-96973800D01*
X146257088Y-97097075D01*
X146350125Y-97160228D01*
X146451985Y-97229727D01*
X146547438Y-97295165D01*
X146595250Y-97328117D01*
X146662495Y-97373273D01*
X146719436Y-97409057D01*
X146758646Y-97430938D01*
X146771381Y-97435563D01*
X146789917Y-97423085D01*
X146830941Y-97388252D01*
X146890475Y-97334678D01*
X146964542Y-97265983D01*
X147049165Y-97185781D01*
X147102685Y-97134286D01*
X147196319Y-97042286D01*
X147277241Y-96959999D01*
X147342177Y-96890945D01*
X147387858Y-96838644D01*
X147411011Y-96806616D01*
X147413232Y-96800116D01*
X147402924Y-96775394D01*
X147374439Y-96725405D01*
X147330937Y-96655212D01*
X147275577Y-96569875D01*
X147211520Y-96474456D01*
X147193303Y-96447854D01*
X147126927Y-96351167D01*
X147067378Y-96264117D01*
X147017984Y-96191595D01*
X146982075Y-96138493D01*
X146962981Y-96109703D01*
X146961136Y-96106726D01*
X146963895Y-96083782D01*
X146978538Y-96033336D01*
X147002513Y-95962041D01*
X147033266Y-95876547D01*
X147068244Y-95783507D01*
X147104893Y-95689574D01*
X147140661Y-95601399D01*
X147172994Y-95525634D01*
X147199338Y-95468931D01*
X147217142Y-95437943D01*
X147218407Y-95436457D01*
X147229294Y-95427601D01*
X147247682Y-95418843D01*
X147277606Y-95409277D01*
X147323103Y-95397996D01*
X147388209Y-95384093D01*
X147476961Y-95366663D01*
X147593393Y-95344798D01*
X147741542Y-95317591D01*
X147773618Y-95311741D01*
X147868686Y-95293374D01*
X147951565Y-95275405D01*
X148014930Y-95259569D01*
X148051458Y-95247600D01*
X148056356Y-95244810D01*
X148064427Y-95220072D01*
X148070987Y-95164790D01*
X148076033Y-95085389D01*
X148079559Y-94988296D01*
X148081561Y-94879938D01*
X148082036Y-94766740D01*
X148080977Y-94655128D01*
X148078382Y-94551529D01*
X148074246Y-94462368D01*
X148068563Y-94394072D01*
X148061331Y-94353066D01*
X148056971Y-94344674D01*
X148032698Y-94336208D01*
X147977426Y-94322435D01*
X147896662Y-94304550D01*
X147795912Y-94283748D01*
X147680683Y-94261223D01*
X147617902Y-94249418D01*
X147498787Y-94227151D01*
X147392565Y-94206979D01*
X147304427Y-94189915D01*
X147239566Y-94176969D01*
X147203174Y-94169155D01*
X147197184Y-94167422D01*
X147187061Y-94147890D01*
X147165662Y-94100843D01*
X147135839Y-94033003D01*
X147100445Y-93951091D01*
X147062332Y-93861828D01*
X147024353Y-93771935D01*
X146989360Y-93688135D01*
X146960206Y-93617147D01*
X146939743Y-93565694D01*
X146930823Y-93540497D01*
X146930657Y-93539396D01*
X146940769Y-93519519D01*
X146969117Y-93473777D01*
X147012723Y-93406717D01*
X147068606Y-93322884D01*
X147133787Y-93226826D01*
X147171679Y-93171650D01*
X147240725Y-93070481D01*
X147302050Y-92978630D01*
X147352663Y-92900744D01*
X147389571Y-92841469D01*
X147409782Y-92805451D01*
X147412701Y-92797377D01*
X147400153Y-92778584D01*
X147365463Y-92738457D01*
X147313063Y-92681493D01*
X147247384Y-92612185D01*
X147172856Y-92535031D01*
X147093913Y-92454525D01*
X147014983Y-92375163D01*
X146940500Y-92301440D01*
X146874894Y-92237852D01*
X146822596Y-92188894D01*
X146788039Y-92159061D01*
X146776478Y-92151942D01*
X146757654Y-92161953D01*
X146712631Y-92190078D01*
X146645787Y-92233454D01*
X146561499Y-92289218D01*
X146464144Y-92354506D01*
X146390707Y-92404246D01*
X146019667Y-92656551D01*
X145401095Y-92401555D01*
X145317275Y-91956931D01*
X145233454Y-91512307D01*
X144308006Y-91512307D01*
X144224186Y-91956931D01*
G37*
X144224186Y-91956931D02*
X144140365Y-92401555D01*
X143831080Y-92529053D01*
X143521794Y-92656551D01*
X143150754Y-92404246D01*
X143046843Y-92333996D01*
X142952913Y-92271272D01*
X142873348Y-92218938D01*
X142812530Y-92179857D01*
X142774843Y-92156893D01*
X142764579Y-92151942D01*
X142746090Y-92164676D01*
X142706580Y-92199882D01*
X142650478Y-92253062D01*
X142582213Y-92319718D01*
X142506214Y-92395354D01*
X142426908Y-92475472D01*
X142348725Y-92555574D01*
X142276093Y-92631164D01*
X142213441Y-92697745D01*
X142165197Y-92750818D01*
X142135790Y-92785887D01*
X142128759Y-92797623D01*
X142138877Y-92819260D01*
X142167241Y-92866662D01*
X142210871Y-92935193D01*
X142266782Y-93020215D01*
X142331994Y-93117093D01*
X142369781Y-93172350D01*
X142438657Y-93273248D01*
X142499860Y-93364299D01*
X142550422Y-93440970D01*
X142587372Y-93498728D01*
X142607742Y-93533043D01*
X142610803Y-93540254D01*
X142603864Y-93560748D01*
X142584949Y-93608513D01*
X142556913Y-93676832D01*
X142522609Y-93758989D01*
X142484891Y-93848270D01*
X142446613Y-93937958D01*
X142410630Y-94021338D01*
X142379794Y-94091694D01*
X142356961Y-94142310D01*
X142344983Y-94166471D01*
X142344276Y-94167422D01*
X142325469Y-94172036D01*
X142275382Y-94182328D01*
X142199207Y-94197287D01*
X142102135Y-94215901D01*
X141989357Y-94237159D01*
X141923558Y-94249418D01*
X141803050Y-94272362D01*
X141694203Y-94294195D01*
X141602524Y-94313722D01*
X141533519Y-94329748D01*
X141492696Y-94341079D01*
X141484489Y-94344674D01*
X141476452Y-94369006D01*
X141469967Y-94423959D01*
X141465030Y-94503108D01*
X141461636Y-94600026D01*
X141459782Y-94708287D01*
X141459462Y-94821465D01*
X141460673Y-94933135D01*
X141463410Y-95036868D01*
X141467669Y-95126241D01*
X141473445Y-95194826D01*
X141480733Y-95236197D01*
X141485105Y-95244810D01*
X141511236Y-95255133D01*
X141566607Y-95269892D01*
X141643893Y-95287352D01*
X141735770Y-95305780D01*
X141767842Y-95311741D01*
X141922476Y-95340066D01*
X142044625Y-95362876D01*
X142138327Y-95381080D01*
X142207616Y-95395583D01*
X142256529Y-95407292D01*
X142289103Y-95417115D01*
X142309372Y-95425956D01*
X142321374Y-95434724D01*
X142323053Y-95436457D01*
X142339816Y-95464371D01*
X142365386Y-95518695D01*
X142397212Y-95592777D01*
X142432740Y-95679965D01*
X142469417Y-95773608D01*
X142504689Y-95867052D01*
X142536004Y-95953647D01*
X142560807Y-96026740D01*
X142576546Y-96079678D01*
X142580668Y-96105811D01*
X142580324Y-96106726D01*
X142566359Y-96128086D01*
X142534678Y-96175084D01*
X142488609Y-96242827D01*
X142431482Y-96326423D01*
X142366627Y-96420982D01*
X142348157Y-96447854D01*
X142282301Y-96545275D01*
X142224350Y-96634163D01*
X142177462Y-96709412D01*
X142144793Y-96765920D01*
X142129500Y-96798581D01*
X142128759Y-96802593D01*
X142141608Y-96823684D01*
X142177112Y-96865464D01*
X142230707Y-96923445D01*
X142297829Y-96993135D01*
X142373913Y-97070045D01*
X142454396Y-97149683D01*
X142534713Y-97227561D01*
X142610301Y-97299186D01*
X142676595Y-97360070D01*
X142729031Y-97405721D01*
X142763045Y-97431650D01*
X142772455Y-97435883D01*
X142794357Y-97425912D01*
X142839200Y-97399020D01*
X142899679Y-97359736D01*
X142946211Y-97328117D01*
X143030525Y-97270098D01*
X143130374Y-97201784D01*
X143230527Y-97133579D01*
X143284373Y-97097075D01*
X143466629Y-96973800D01*
X143619619Y-97056520D01*
X143689318Y-97092759D01*
X143748586Y-97120926D01*
X143788689Y-97136991D01*
X143798897Y-97139226D01*
X143811171Y-97122722D01*
X143835387Y-97076082D01*
X143869737Y-97003609D01*
X143912412Y-96909606D01*
X143961606Y-96798374D01*
X144015510Y-96674215D01*
X144072316Y-96541432D01*
X144130218Y-96404327D01*
X144187407Y-96267202D01*
X144242076Y-96134358D01*
X144292416Y-96010098D01*
X144336620Y-95898725D01*
X144372881Y-95804539D01*
X144399391Y-95731844D01*
X144414342Y-95684941D01*
X144416746Y-95668833D01*
X144397689Y-95648286D01*
X144355964Y-95614933D01*
X144300294Y-95575702D01*
X144295622Y-95572599D01*
X144151736Y-95457423D01*
X144035717Y-95323053D01*
X143948570Y-95173784D01*
X143891301Y-95013913D01*
X143864914Y-94847737D01*
X143870415Y-94679552D01*
X143908810Y-94513655D01*
X143981105Y-94354342D01*
X144002374Y-94319487D01*
X144113004Y-94178737D01*
X144243698Y-94065714D01*
X144389936Y-93981003D01*
X144547192Y-93925194D01*
X144710943Y-93898874D01*
X144876667Y-93902630D01*
X145039838Y-93937050D01*
X145195935Y-94002723D01*
X145340433Y-94100235D01*
X145385131Y-94139813D01*
X145498888Y-94263703D01*
X145581782Y-94394124D01*
X145638644Y-94540315D01*
X145670313Y-94685088D01*
X145678131Y-94847860D01*
X145652062Y-95011440D01*
X145594755Y-95170298D01*
X145508856Y-95318906D01*
X145397014Y-95451735D01*
X145261877Y-95563256D01*
X145244117Y-95575011D01*
X145187850Y-95613508D01*
X145145077Y-95646863D01*
X145124628Y-95668160D01*
X145124331Y-95668833D01*
X145128721Y-95691871D01*
X145146124Y-95744157D01*
X145174732Y-95821390D01*
X145212735Y-95919268D01*
X145258326Y-96033491D01*
X145309697Y-96159758D01*
X145365038Y-96293767D01*
X145422542Y-96431218D01*
X145480399Y-96567808D01*
X145536802Y-96699237D01*
X145589942Y-96821205D01*
X145638010Y-96929409D01*
X145679199Y-97019549D01*
X145711699Y-97087323D01*
X145733703Y-97128430D01*
X145742564Y-97139226D01*
X145769640Y-97130819D01*
X145820303Y-97108272D01*
X145885817Y-97075613D01*
X145921841Y-97056520D01*
X146074832Y-96973800D01*
X146257088Y-97097075D01*
X146350125Y-97160228D01*
X146451985Y-97229727D01*
X146547438Y-97295165D01*
X146595250Y-97328117D01*
X146662495Y-97373273D01*
X146719436Y-97409057D01*
X146758646Y-97430938D01*
X146771381Y-97435563D01*
X146789917Y-97423085D01*
X146830941Y-97388252D01*
X146890475Y-97334678D01*
X146964542Y-97265983D01*
X147049165Y-97185781D01*
X147102685Y-97134286D01*
X147196319Y-97042286D01*
X147277241Y-96959999D01*
X147342177Y-96890945D01*
X147387858Y-96838644D01*
X147411011Y-96806616D01*
X147413232Y-96800116D01*
X147402924Y-96775394D01*
X147374439Y-96725405D01*
X147330937Y-96655212D01*
X147275577Y-96569875D01*
X147211520Y-96474456D01*
X147193303Y-96447854D01*
X147126927Y-96351167D01*
X147067378Y-96264117D01*
X147017984Y-96191595D01*
X146982075Y-96138493D01*
X146962981Y-96109703D01*
X146961136Y-96106726D01*
X146963895Y-96083782D01*
X146978538Y-96033336D01*
X147002513Y-95962041D01*
X147033266Y-95876547D01*
X147068244Y-95783507D01*
X147104893Y-95689574D01*
X147140661Y-95601399D01*
X147172994Y-95525634D01*
X147199338Y-95468931D01*
X147217142Y-95437943D01*
X147218407Y-95436457D01*
X147229294Y-95427601D01*
X147247682Y-95418843D01*
X147277606Y-95409277D01*
X147323103Y-95397996D01*
X147388209Y-95384093D01*
X147476961Y-95366663D01*
X147593393Y-95344798D01*
X147741542Y-95317591D01*
X147773618Y-95311741D01*
X147868686Y-95293374D01*
X147951565Y-95275405D01*
X148014930Y-95259569D01*
X148051458Y-95247600D01*
X148056356Y-95244810D01*
X148064427Y-95220072D01*
X148070987Y-95164790D01*
X148076033Y-95085389D01*
X148079559Y-94988296D01*
X148081561Y-94879938D01*
X148082036Y-94766740D01*
X148080977Y-94655128D01*
X148078382Y-94551529D01*
X148074246Y-94462368D01*
X148068563Y-94394072D01*
X148061331Y-94353066D01*
X148056971Y-94344674D01*
X148032698Y-94336208D01*
X147977426Y-94322435D01*
X147896662Y-94304550D01*
X147795912Y-94283748D01*
X147680683Y-94261223D01*
X147617902Y-94249418D01*
X147498787Y-94227151D01*
X147392565Y-94206979D01*
X147304427Y-94189915D01*
X147239566Y-94176969D01*
X147203174Y-94169155D01*
X147197184Y-94167422D01*
X147187061Y-94147890D01*
X147165662Y-94100843D01*
X147135839Y-94033003D01*
X147100445Y-93951091D01*
X147062332Y-93861828D01*
X147024353Y-93771935D01*
X146989360Y-93688135D01*
X146960206Y-93617147D01*
X146939743Y-93565694D01*
X146930823Y-93540497D01*
X146930657Y-93539396D01*
X146940769Y-93519519D01*
X146969117Y-93473777D01*
X147012723Y-93406717D01*
X147068606Y-93322884D01*
X147133787Y-93226826D01*
X147171679Y-93171650D01*
X147240725Y-93070481D01*
X147302050Y-92978630D01*
X147352663Y-92900744D01*
X147389571Y-92841469D01*
X147409782Y-92805451D01*
X147412701Y-92797377D01*
X147400153Y-92778584D01*
X147365463Y-92738457D01*
X147313063Y-92681493D01*
X147247384Y-92612185D01*
X147172856Y-92535031D01*
X147093913Y-92454525D01*
X147014983Y-92375163D01*
X146940500Y-92301440D01*
X146874894Y-92237852D01*
X146822596Y-92188894D01*
X146788039Y-92159061D01*
X146776478Y-92151942D01*
X146757654Y-92161953D01*
X146712631Y-92190078D01*
X146645787Y-92233454D01*
X146561499Y-92289218D01*
X146464144Y-92354506D01*
X146390707Y-92404246D01*
X146019667Y-92656551D01*
X145401095Y-92401555D01*
X145317275Y-91956931D01*
X145233454Y-91512307D01*
X144308006Y-91512307D01*
X144224186Y-91956931D01*
D11*
G36*
X172380000Y-84155000D02*
G01*
X171880000Y-84155000D01*
X171880000Y-84755000D01*
X172380000Y-84755000D01*
X172380000Y-84155000D01*
G37*
G36*
X145150000Y-84755000D02*
G01*
X145650000Y-84755000D01*
X145650000Y-84155000D01*
X145150000Y-84155000D01*
X145150000Y-84755000D01*
G37*
D12*
X170180000Y-89300000D03*
G04 #@! TA.AperFunction,ComponentPad*
G36*
G01*
X172170000Y-89925000D02*
X172170000Y-88675000D01*
G75*
G02*
X172445000Y-88400000I275000J0D01*
G01*
X172995000Y-88400000D01*
G75*
G02*
X173270000Y-88675000I0J-275000D01*
G01*
X173270000Y-89925000D01*
G75*
G02*
X172995000Y-90200000I-275000J0D01*
G01*
X172445000Y-90200000D01*
G75*
G02*
X172170000Y-89925000I0J275000D01*
G01*
G37*
G04 #@! TD.AperFunction*
G04 #@! TA.AperFunction,ComponentPad*
G36*
G01*
X170900000Y-87855000D02*
X170900000Y-86605000D01*
G75*
G02*
X171175000Y-86330000I275000J0D01*
G01*
X171725000Y-86330000D01*
G75*
G02*
X172000000Y-86605000I0J-275000D01*
G01*
X172000000Y-87855000D01*
G75*
G02*
X171725000Y-88130000I-275000J0D01*
G01*
X171175000Y-88130000D01*
G75*
G02*
X170900000Y-87855000I0J275000D01*
G01*
G37*
G04 #@! TD.AperFunction*
X144780000Y-89300000D03*
G04 #@! TA.AperFunction,ComponentPad*
G36*
G01*
X146770000Y-89925000D02*
X146770000Y-88675000D01*
G75*
G02*
X147045000Y-88400000I275000J0D01*
G01*
X147595000Y-88400000D01*
G75*
G02*
X147870000Y-88675000I0J-275000D01*
G01*
X147870000Y-89925000D01*
G75*
G02*
X147595000Y-90200000I-275000J0D01*
G01*
X147045000Y-90200000D01*
G75*
G02*
X146770000Y-89925000I0J275000D01*
G01*
G37*
G04 #@! TD.AperFunction*
G04 #@! TA.AperFunction,ComponentPad*
G36*
G01*
X145500000Y-87855000D02*
X145500000Y-86605000D01*
G75*
G02*
X145775000Y-86330000I275000J0D01*
G01*
X146325000Y-86330000D01*
G75*
G02*
X146600000Y-86605000I0J-275000D01*
G01*
X146600000Y-87855000D01*
G75*
G02*
X146325000Y-88130000I-275000J0D01*
G01*
X145775000Y-88130000D01*
G75*
G02*
X145500000Y-87855000I0J275000D01*
G01*
G37*
G04 #@! TD.AperFunction*
D13*
X154940000Y-95210000D03*
D14*
X154940000Y-92710000D03*
D13*
X162560000Y-95210000D03*
D14*
X162560000Y-92710000D03*
D15*
X171480000Y-84455000D03*
X170180000Y-84455000D03*
X172780000Y-84455000D03*
X146050000Y-84455000D03*
X147350000Y-84455000D03*
X144750000Y-84455000D03*
D16*
X163830000Y-86868000D03*
D13*
X153670000Y-86868000D03*
D16*
X167640000Y-96520000D03*
D13*
X177800000Y-96520000D03*
D16*
X167640000Y-92710000D03*
D13*
X177800000Y-92710000D03*
D16*
X149860000Y-92710000D03*
D13*
X139700000Y-92710000D03*
D16*
X149860000Y-96520000D03*
D13*
X139700000Y-96520000D03*
D17*
X176530000Y-81280000D03*
D18*
X173990000Y-81280000D03*
D17*
X168910000Y-81280000D03*
D18*
X166370000Y-81280000D03*
D17*
X151130000Y-81280000D03*
D18*
X148590000Y-81280000D03*
D17*
X143510000Y-81280000D03*
D18*
X140970000Y-81280000D03*
D19*
X160020000Y-81280000D03*
D20*
X157480000Y-81280000D03*
D21*
X153924000Y-86360000D02*
X153670000Y-86360000D01*
X157480000Y-82804000D02*
X153924000Y-86360000D01*
X157480000Y-81280000D02*
X157480000Y-82804000D01*
X153416000Y-96520000D02*
X149860000Y-96520000D01*
X140970000Y-81788000D02*
X140970000Y-81280000D01*
X144750000Y-84455000D02*
X143637000Y-84455000D01*
X143637000Y-84455000D02*
X140970000Y-81788000D01*
X162560000Y-92750000D02*
X158790000Y-96520000D01*
X170180000Y-85130000D02*
X162560000Y-92750000D01*
X170180000Y-84455000D02*
X170180000Y-85130000D01*
X147320000Y-88900000D02*
X149606000Y-88900000D01*
X149606000Y-88900000D02*
X152400000Y-91694000D01*
X152400000Y-95250000D02*
X153670000Y-96520000D01*
X153670000Y-96520000D02*
X153416000Y-96520000D01*
X152400000Y-91694000D02*
X152400000Y-95250000D01*
X158790000Y-96520000D02*
X153670000Y-96520000D01*
X147320000Y-86360000D02*
X147320000Y-88773000D01*
X145424838Y-85788500D02*
X146748500Y-85788500D01*
X146748500Y-85788500D02*
X147320000Y-86360000D01*
X144750000Y-85113662D02*
X145424838Y-85788500D01*
X144750000Y-84455000D02*
X144750000Y-85113662D01*
X173990000Y-82430000D02*
X173990000Y-81280000D01*
X173990000Y-83526500D02*
X173990000Y-82430000D01*
X173061500Y-84455000D02*
X173990000Y-83526500D01*
X172780000Y-84455000D02*
X173061500Y-84455000D01*
X147350000Y-84612000D02*
X154940000Y-92202000D01*
X147350000Y-84455000D02*
X147350000Y-84612000D01*
X154940000Y-92202000D02*
X154940000Y-92750000D01*
X172720000Y-91440000D02*
X167640000Y-96520000D01*
X172720000Y-84515000D02*
X172720000Y-91440000D01*
X172780000Y-84455000D02*
X172720000Y-84515000D01*
X148336000Y-81280000D02*
X148590000Y-81280000D01*
X146050000Y-83566000D02*
X148336000Y-81280000D01*
X146050000Y-84455000D02*
X146050000Y-83566000D01*
X170434000Y-82804000D02*
X171480000Y-83850000D01*
X171480000Y-83850000D02*
X171480000Y-84455000D01*
X166370000Y-81280000D02*
X167894000Y-82804000D01*
X167894000Y-82804000D02*
X170434000Y-82804000D01*
X171450000Y-90932000D02*
X171450000Y-87630000D01*
X169672000Y-92710000D02*
X171450000Y-90932000D01*
X167640000Y-92710000D02*
X169672000Y-92710000D01*
D22*
G36*
X176894545Y-78168909D02*
G01*
X177245208Y-78274780D01*
X177568625Y-78446744D01*
X177852484Y-78678254D01*
X178085965Y-78960486D01*
X178260183Y-79282695D01*
X178368502Y-79632614D01*
X178410000Y-80027443D01*
X178410001Y-85700000D01*
X176562419Y-85700000D01*
X176530000Y-85696807D01*
X176497581Y-85700000D01*
X176400617Y-85709550D01*
X176276207Y-85747290D01*
X176161550Y-85808575D01*
X176061052Y-85891052D01*
X175978575Y-85991550D01*
X175917290Y-86106207D01*
X175879550Y-86230617D01*
X175866807Y-86360000D01*
X175870000Y-86392418D01*
X175870001Y-90137571D01*
X175866807Y-90170000D01*
X175879550Y-90299383D01*
X175917290Y-90423793D01*
X175978575Y-90538450D01*
X176061052Y-90638948D01*
X176161550Y-90721425D01*
X176276207Y-90782710D01*
X176400617Y-90820450D01*
X176497581Y-90830000D01*
X176530000Y-90833193D01*
X176562419Y-90830000D01*
X178410000Y-90830000D01*
X178410000Y-91409438D01*
X178218574Y-91330147D01*
X177941335Y-91275000D01*
X177658665Y-91275000D01*
X177381426Y-91330147D01*
X177120273Y-91438320D01*
X176885241Y-91595363D01*
X176685363Y-91795241D01*
X176528320Y-92030273D01*
X176420147Y-92291426D01*
X176365000Y-92568665D01*
X176365000Y-92851335D01*
X176420147Y-93128574D01*
X176528320Y-93389727D01*
X176685363Y-93624759D01*
X176885241Y-93824637D01*
X177120273Y-93981680D01*
X177381426Y-94089853D01*
X177658665Y-94145000D01*
X177941335Y-94145000D01*
X178218574Y-94089853D01*
X178410001Y-94010562D01*
X178410001Y-95219438D01*
X178218574Y-95140147D01*
X177941335Y-95085000D01*
X177658665Y-95085000D01*
X177381426Y-95140147D01*
X177120273Y-95248320D01*
X176885241Y-95405363D01*
X176685363Y-95605241D01*
X176528320Y-95840273D01*
X176420147Y-96101426D01*
X176365000Y-96378665D01*
X176365000Y-96661335D01*
X176420147Y-96938574D01*
X176528320Y-97199727D01*
X176685363Y-97434759D01*
X176885241Y-97634637D01*
X177120273Y-97791680D01*
X177381426Y-97899853D01*
X177658665Y-97955000D01*
X177725737Y-97955000D01*
X177579514Y-98075965D01*
X177257304Y-98250184D01*
X176907385Y-98358502D01*
X176512557Y-98400000D01*
X141002279Y-98400000D01*
X140605455Y-98361091D01*
X140254794Y-98255220D01*
X139931377Y-98083257D01*
X139774117Y-97955000D01*
X139841335Y-97955000D01*
X140118574Y-97899853D01*
X140379727Y-97791680D01*
X140614759Y-97634637D01*
X140814637Y-97434759D01*
X140971680Y-97199727D01*
X141079853Y-96938574D01*
X141135000Y-96661335D01*
X141135000Y-96378665D01*
X141079853Y-96101426D01*
X140971680Y-95840273D01*
X140814637Y-95605241D01*
X140614759Y-95405363D01*
X140379727Y-95248320D01*
X140118574Y-95140147D01*
X139841335Y-95085000D01*
X139558665Y-95085000D01*
X139281426Y-95140147D01*
X139090000Y-95219438D01*
X139090000Y-94819469D01*
X140819465Y-94819469D01*
X140819465Y-94819655D01*
X140819466Y-94819663D01*
X140819500Y-94828405D01*
X140820711Y-94940075D01*
X140820765Y-94940574D01*
X140820722Y-94941081D01*
X140820896Y-94950016D01*
X140823633Y-95053748D01*
X140823922Y-95056065D01*
X140823772Y-95058403D01*
X140824135Y-95067332D01*
X140828394Y-95156705D01*
X140829438Y-95163834D01*
X140829238Y-95171040D01*
X140829927Y-95179950D01*
X140835703Y-95248535D01*
X140840127Y-95272609D01*
X140841661Y-95297049D01*
X140843150Y-95305860D01*
X140850438Y-95347231D01*
X140857836Y-95373744D01*
X140862289Y-95400898D01*
X140874580Y-95433751D01*
X140884009Y-95467541D01*
X140892590Y-95484536D01*
X140895301Y-95493269D01*
X140900302Y-95502501D01*
X140906057Y-95517884D01*
X140910046Y-95525880D01*
X140914418Y-95534493D01*
X140930769Y-95560146D01*
X140940309Y-95579040D01*
X140945050Y-95585110D01*
X140954793Y-95603097D01*
X140969319Y-95620629D01*
X140981553Y-95639823D01*
X141009069Y-95668604D01*
X141034485Y-95699279D01*
X141052142Y-95713657D01*
X141067869Y-95730107D01*
X141100455Y-95752999D01*
X141131341Y-95778149D01*
X141151446Y-95788820D01*
X141170076Y-95801907D01*
X141206492Y-95818034D01*
X141241670Y-95836705D01*
X141249958Y-95840046D01*
X141276089Y-95850369D01*
X141307423Y-95859328D01*
X141337782Y-95871180D01*
X141346401Y-95873542D01*
X141401771Y-95888301D01*
X141409487Y-95889568D01*
X141416873Y-95892130D01*
X141425576Y-95894160D01*
X141502862Y-95911620D01*
X141506140Y-95912030D01*
X141509284Y-95913036D01*
X141518033Y-95914854D01*
X141609910Y-95933282D01*
X141609976Y-95933289D01*
X141610046Y-95933310D01*
X141618821Y-95935004D01*
X141650892Y-95940965D01*
X141650984Y-95940973D01*
X141652529Y-95941267D01*
X141806030Y-95969385D01*
X141862919Y-95980008D01*
X141872047Y-96003314D01*
X141873814Y-96007994D01*
X141838838Y-96058989D01*
X141820729Y-96085336D01*
X141820656Y-96085468D01*
X141817938Y-96089429D01*
X141752082Y-96186850D01*
X141751665Y-96187620D01*
X141751109Y-96188294D01*
X141746176Y-96195746D01*
X141688226Y-96284634D01*
X141687256Y-96286497D01*
X141685947Y-96288153D01*
X141681169Y-96295704D01*
X141634281Y-96370953D01*
X141631562Y-96376448D01*
X141627919Y-96381383D01*
X141623393Y-96389088D01*
X141590724Y-96445596D01*
X141581138Y-96466696D01*
X141569030Y-96486461D01*
X141565184Y-96494527D01*
X141549891Y-96527188D01*
X141544982Y-96541057D01*
X141538065Y-96554032D01*
X141524180Y-96599835D01*
X141508217Y-96644937D01*
X141506098Y-96659481D01*
X141501828Y-96673565D01*
X141500144Y-96682341D01*
X141499403Y-96686354D01*
X141495892Y-96727607D01*
X141489665Y-96768546D01*
X141490608Y-96789709D01*
X141488812Y-96810810D01*
X141493380Y-96851951D01*
X141495223Y-96893328D01*
X141500259Y-96913908D01*
X141502596Y-96934953D01*
X141515072Y-96974437D01*
X141524914Y-97014655D01*
X141533846Y-97033853D01*
X141540229Y-97054055D01*
X141560137Y-97090364D01*
X141577602Y-97127903D01*
X141582199Y-97135567D01*
X141595048Y-97156658D01*
X141622586Y-97193268D01*
X141648176Y-97231268D01*
X141653915Y-97238118D01*
X141689419Y-97279898D01*
X141695830Y-97286098D01*
X141701117Y-97293283D01*
X141707137Y-97299887D01*
X141760732Y-97357868D01*
X141762306Y-97359268D01*
X141763591Y-97360941D01*
X141769745Y-97367421D01*
X141836868Y-97437111D01*
X141836888Y-97437128D01*
X141842844Y-97443234D01*
X141918928Y-97520144D01*
X141919021Y-97520221D01*
X141923759Y-97524975D01*
X142004242Y-97604613D01*
X142004343Y-97604695D01*
X142008878Y-97609154D01*
X142089195Y-97687032D01*
X142089269Y-97687091D01*
X142094507Y-97692124D01*
X142170095Y-97763749D01*
X142170507Y-97764069D01*
X142170855Y-97764469D01*
X142177395Y-97770559D01*
X142243689Y-97831443D01*
X142246918Y-97833873D01*
X142249656Y-97836855D01*
X142256355Y-97842769D01*
X142308791Y-97888420D01*
X142322129Y-97897914D01*
X142333966Y-97909233D01*
X142341035Y-97914699D01*
X142375049Y-97940628D01*
X142380288Y-97943866D01*
X142384876Y-97947971D01*
X142420189Y-97968872D01*
X142430258Y-97976717D01*
X142447418Y-97985356D01*
X142481300Y-98006297D01*
X142487063Y-98008454D01*
X142492365Y-98011592D01*
X142500489Y-98015315D01*
X142509899Y-98019547D01*
X142526327Y-98025082D01*
X142541824Y-98032884D01*
X142582611Y-98044212D01*
X142598282Y-98050077D01*
X142602627Y-98050790D01*
X142628267Y-98059429D01*
X142645462Y-98061668D01*
X142662174Y-98066310D01*
X142707279Y-98069719D01*
X142752127Y-98075560D01*
X142769431Y-98074417D01*
X142786725Y-98075724D01*
X142831627Y-98070308D01*
X142876762Y-98067326D01*
X142893518Y-98062842D01*
X142910733Y-98060766D01*
X142953732Y-98046731D01*
X142997423Y-98035040D01*
X143012981Y-98027391D01*
X143029473Y-98022008D01*
X143037631Y-98018362D01*
X143059534Y-98008391D01*
X143086971Y-97992500D01*
X143115815Y-97979325D01*
X143123510Y-97974782D01*
X143168353Y-97947890D01*
X143174005Y-97943700D01*
X143180294Y-97940550D01*
X143187822Y-97935735D01*
X143248301Y-97896451D01*
X143250016Y-97895082D01*
X143251954Y-97894060D01*
X143259380Y-97889089D01*
X143305912Y-97857470D01*
X143306026Y-97857375D01*
X143309015Y-97855349D01*
X143392704Y-97797760D01*
X143491136Y-97730416D01*
X143512568Y-97715820D01*
X143550695Y-97731094D01*
X143597193Y-97744630D01*
X143628403Y-97755224D01*
X143637160Y-97758453D01*
X143638579Y-97758679D01*
X143643090Y-97760210D01*
X143651806Y-97762181D01*
X143662014Y-97764416D01*
X143667317Y-97765044D01*
X143670623Y-97766006D01*
X143689453Y-97767664D01*
X143711388Y-97770260D01*
X143760516Y-97778074D01*
X143773326Y-97777590D01*
X143786055Y-97779097D01*
X143835622Y-97775239D01*
X143885333Y-97773363D01*
X143897811Y-97770399D01*
X143910584Y-97769405D01*
X143958460Y-97755993D01*
X144006858Y-97744497D01*
X144018515Y-97739169D01*
X144030860Y-97735711D01*
X144075236Y-97713246D01*
X144120462Y-97692576D01*
X144130863Y-97685085D01*
X144142300Y-97679295D01*
X144181471Y-97648636D01*
X144221817Y-97619578D01*
X144230562Y-97610212D01*
X144240660Y-97602309D01*
X144273124Y-97564632D01*
X144307064Y-97528285D01*
X144312446Y-97521152D01*
X144324720Y-97504648D01*
X144348895Y-97464475D01*
X144375000Y-97425537D01*
X144379173Y-97417635D01*
X144403389Y-97370995D01*
X144406057Y-97364339D01*
X144409832Y-97358240D01*
X144413715Y-97350192D01*
X144448065Y-97277719D01*
X144448335Y-97276966D01*
X144448746Y-97276278D01*
X144452497Y-97268167D01*
X144495172Y-97174164D01*
X144495216Y-97174035D01*
X144497724Y-97168469D01*
X144546918Y-97057237D01*
X144546968Y-97057085D01*
X144548666Y-97053248D01*
X144602570Y-96929089D01*
X144602615Y-96928949D01*
X144603925Y-96925945D01*
X144660731Y-96793162D01*
X144660774Y-96793027D01*
X144661895Y-96790422D01*
X144719797Y-96653318D01*
X144719837Y-96653189D01*
X144720905Y-96650678D01*
X144770699Y-96531284D01*
X144773494Y-96538053D01*
X144773558Y-96538173D01*
X144774624Y-96540772D01*
X144832128Y-96678224D01*
X144832194Y-96678347D01*
X144833230Y-96680840D01*
X144891087Y-96817429D01*
X144891151Y-96817546D01*
X144892270Y-96820205D01*
X144948673Y-96951634D01*
X144948746Y-96951767D01*
X144950072Y-96954868D01*
X145003212Y-97076837D01*
X145003288Y-97076973D01*
X145005057Y-97081031D01*
X145053125Y-97189235D01*
X145053184Y-97189339D01*
X145055903Y-97195400D01*
X145097092Y-97285540D01*
X145097829Y-97286808D01*
X145098312Y-97288194D01*
X145102120Y-97296279D01*
X145134620Y-97364053D01*
X145139674Y-97372391D01*
X145143289Y-97381449D01*
X145147451Y-97389357D01*
X145169455Y-97430464D01*
X145201744Y-97478771D01*
X145233376Y-97527521D01*
X145238860Y-97534297D01*
X145238867Y-97534308D01*
X145238875Y-97534316D01*
X145238998Y-97534468D01*
X145247859Y-97545264D01*
X145291600Y-97589039D01*
X145335038Y-97632705D01*
X145335633Y-97633106D01*
X145336147Y-97633620D01*
X145387308Y-97667897D01*
X145438649Y-97702464D01*
X145439323Y-97702747D01*
X145439916Y-97703144D01*
X145496789Y-97726844D01*
X145553838Y-97750767D01*
X145554540Y-97750911D01*
X145555211Y-97751190D01*
X145615816Y-97763434D01*
X145676214Y-97775778D01*
X145676938Y-97775782D01*
X145677644Y-97775925D01*
X145739542Y-97776165D01*
X145801118Y-97776541D01*
X145801821Y-97776406D01*
X145802549Y-97776409D01*
X145863249Y-97764634D01*
X145923792Y-97753031D01*
X145925095Y-97752636D01*
X145925169Y-97752622D01*
X145925246Y-97752591D01*
X145932344Y-97750441D01*
X145959420Y-97742034D01*
X145990015Y-97729142D01*
X146021670Y-97719106D01*
X146029001Y-97715904D01*
X146090728Y-97758020D01*
X146184981Y-97822635D01*
X146232063Y-97855085D01*
X146232133Y-97855124D01*
X146238461Y-97859437D01*
X146305706Y-97904594D01*
X146310323Y-97907078D01*
X146314423Y-97910345D01*
X146321956Y-97915152D01*
X146378898Y-97950937D01*
X146389837Y-97956402D01*
X146399788Y-97963517D01*
X146407561Y-97967926D01*
X146446771Y-97989807D01*
X146489775Y-98008562D01*
X146514522Y-98020825D01*
X146522831Y-98025328D01*
X146524912Y-98025974D01*
X146531799Y-98029387D01*
X146540177Y-98032495D01*
X146552912Y-98037120D01*
X146558584Y-98038572D01*
X146561262Y-98039740D01*
X146574364Y-98042612D01*
X146597818Y-98048616D01*
X146642117Y-98062374D01*
X146658231Y-98064082D01*
X146673916Y-98068098D01*
X146720205Y-98070653D01*
X146766327Y-98075543D01*
X146782463Y-98074090D01*
X146798632Y-98074982D01*
X146844534Y-98068498D01*
X146890729Y-98064337D01*
X146906273Y-98059777D01*
X146922311Y-98057512D01*
X146966101Y-98042228D01*
X147010586Y-98029179D01*
X147024943Y-98021690D01*
X147040240Y-98016351D01*
X147080218Y-97992858D01*
X147088137Y-97988728D01*
X147093670Y-97986409D01*
X147097424Y-97983883D01*
X147121331Y-97971413D01*
X147128778Y-97966475D01*
X147147315Y-97953996D01*
X147171390Y-97934117D01*
X147197302Y-97916682D01*
X147204154Y-97910946D01*
X147245177Y-97876113D01*
X147248489Y-97872691D01*
X147252365Y-97869918D01*
X147259049Y-97863986D01*
X147318583Y-97810413D01*
X147318816Y-97810157D01*
X147319092Y-97809954D01*
X147325686Y-97803923D01*
X147399753Y-97735229D01*
X147399829Y-97735143D01*
X147404794Y-97730503D01*
X147489417Y-97650301D01*
X147489525Y-97650176D01*
X147492904Y-97646970D01*
X147546425Y-97595475D01*
X147546505Y-97595382D01*
X147551233Y-97590800D01*
X147644866Y-97498800D01*
X147645524Y-97498014D01*
X147646326Y-97497362D01*
X147652636Y-97491034D01*
X147733558Y-97408747D01*
X147735253Y-97406648D01*
X147737311Y-97404899D01*
X147743478Y-97398432D01*
X147808414Y-97329378D01*
X147812882Y-97323585D01*
X147818277Y-97318647D01*
X147824202Y-97311958D01*
X147869883Y-97259657D01*
X147884417Y-97239308D01*
X147901241Y-97220794D01*
X147906526Y-97213589D01*
X147929679Y-97181561D01*
X147941953Y-97160525D01*
X147942777Y-97159535D01*
X147944389Y-97156575D01*
X147960373Y-97134945D01*
X147975159Y-97103616D01*
X147992628Y-97073677D01*
X147998023Y-97058064D01*
X148002504Y-97049834D01*
X148006358Y-97037511D01*
X148013684Y-97021988D01*
X148016633Y-97013552D01*
X148018854Y-97007052D01*
X148025731Y-96977881D01*
X148033423Y-96955620D01*
X148034574Y-96947284D01*
X148039785Y-96930622D01*
X148042250Y-96907805D01*
X148047513Y-96885479D01*
X148048941Y-96845867D01*
X148050234Y-96833902D01*
X148050512Y-96831889D01*
X148050491Y-96831525D01*
X148053201Y-96806438D01*
X148051187Y-96783580D01*
X148052014Y-96760654D01*
X148045719Y-96721505D01*
X148042240Y-96682013D01*
X148035827Y-96659989D01*
X148032184Y-96637331D01*
X148018405Y-96600153D01*
X148007322Y-96562088D01*
X148003940Y-96553816D01*
X147993632Y-96529094D01*
X147977134Y-96498369D01*
X147963353Y-96466332D01*
X147958983Y-96458537D01*
X147930498Y-96408548D01*
X147926250Y-96402542D01*
X147923093Y-96395891D01*
X147918438Y-96388262D01*
X147874936Y-96318069D01*
X147873631Y-96316361D01*
X147872666Y-96314432D01*
X147867854Y-96306902D01*
X147812494Y-96221565D01*
X147812138Y-96221119D01*
X147811873Y-96220609D01*
X147806944Y-96213155D01*
X147742887Y-96117737D01*
X147742799Y-96117631D01*
X147739572Y-96112847D01*
X147721355Y-96086245D01*
X147721327Y-96086211D01*
X147720935Y-96085632D01*
X147667641Y-96008002D01*
X147678571Y-95979990D01*
X147710346Y-95974023D01*
X147856982Y-95947093D01*
X147888447Y-95941355D01*
X147888562Y-95941322D01*
X147895020Y-95940121D01*
X147990088Y-95921754D01*
X147992765Y-95920959D01*
X147995548Y-95920675D01*
X148004294Y-95918842D01*
X148087173Y-95900873D01*
X148092500Y-95899159D01*
X148098055Y-95898415D01*
X148106739Y-95896308D01*
X148170105Y-95880472D01*
X148187555Y-95874247D01*
X148205700Y-95870476D01*
X148214211Y-95867752D01*
X148250739Y-95855783D01*
X148305456Y-95831716D01*
X148308282Y-95830501D01*
X148340228Y-95818410D01*
X148348744Y-95813103D01*
X148360433Y-95808077D01*
X148364934Y-95805555D01*
X148365074Y-95805493D01*
X148365196Y-95805408D01*
X148368229Y-95803708D01*
X148373127Y-95800918D01*
X148408967Y-95775573D01*
X148446235Y-95752348D01*
X148459867Y-95739578D01*
X148475109Y-95728799D01*
X148505340Y-95696979D01*
X148537391Y-95666954D01*
X148548283Y-95651779D01*
X148561141Y-95638245D01*
X148584624Y-95601147D01*
X148610224Y-95565480D01*
X148617957Y-95548488D01*
X148627947Y-95532706D01*
X148643775Y-95491757D01*
X148661962Y-95451794D01*
X148664792Y-95443318D01*
X148672863Y-95418580D01*
X148685505Y-95361408D01*
X148698853Y-95304354D01*
X148699817Y-95296687D01*
X148699832Y-95296620D01*
X148699833Y-95296559D01*
X148699968Y-95295488D01*
X148706528Y-95240206D01*
X148706794Y-95227155D01*
X148709070Y-95214295D01*
X148709699Y-95205381D01*
X148714745Y-95125980D01*
X148714600Y-95121739D01*
X148715225Y-95117544D01*
X148715611Y-95108616D01*
X148719137Y-95011523D01*
X148719061Y-95010289D01*
X148719223Y-95009052D01*
X148719450Y-95000118D01*
X148721452Y-94891761D01*
X148721444Y-94891661D01*
X148721456Y-94891559D01*
X148721555Y-94882624D01*
X148722029Y-94769612D01*
X148722030Y-94769604D01*
X148722007Y-94760668D01*
X148720948Y-94649056D01*
X148720893Y-94648549D01*
X148720938Y-94648036D01*
X148720776Y-94639101D01*
X148718181Y-94535503D01*
X148717892Y-94533164D01*
X148718047Y-94530802D01*
X148717695Y-94521873D01*
X148713559Y-94432712D01*
X148712512Y-94425496D01*
X148712721Y-94418207D01*
X148712042Y-94409296D01*
X148706359Y-94341000D01*
X148701889Y-94316541D01*
X148700327Y-94291725D01*
X148698836Y-94282914D01*
X148691604Y-94241908D01*
X148683407Y-94212553D01*
X148678192Y-94182531D01*
X148666651Y-94152549D01*
X148658010Y-94121605D01*
X148644270Y-94094408D01*
X148640693Y-94085115D01*
X148636193Y-94072457D01*
X148635140Y-94070689D01*
X148633321Y-94065963D01*
X148629256Y-94058005D01*
X148624896Y-94049613D01*
X148610343Y-94027249D01*
X148601688Y-94010117D01*
X148590693Y-93996045D01*
X148572288Y-93965136D01*
X148563737Y-93955630D01*
X148556769Y-93944922D01*
X148526371Y-93913722D01*
X148524785Y-93911692D01*
X148522323Y-93909567D01*
X148522058Y-93909295D01*
X148488755Y-93872272D01*
X148478518Y-93864606D01*
X148469604Y-93855457D01*
X148428608Y-93827232D01*
X148388774Y-93797403D01*
X148377258Y-93791878D01*
X148366724Y-93784626D01*
X148321022Y-93764900D01*
X148314613Y-93761826D01*
X148313178Y-93760943D01*
X148311380Y-93760275D01*
X148276157Y-93743377D01*
X148267740Y-93740376D01*
X148243467Y-93731910D01*
X148219358Y-93726065D01*
X148196101Y-93717419D01*
X148187445Y-93715198D01*
X148132173Y-93701425D01*
X148128257Y-93700847D01*
X148124512Y-93699566D01*
X148115801Y-93697573D01*
X148035036Y-93679688D01*
X148034925Y-93679675D01*
X148034813Y-93679638D01*
X148026074Y-93677771D01*
X147925324Y-93656969D01*
X147925209Y-93656957D01*
X147918695Y-93655636D01*
X147803466Y-93633111D01*
X147803305Y-93633096D01*
X147798952Y-93632246D01*
X147736171Y-93620441D01*
X147736129Y-93620437D01*
X147735504Y-93620316D01*
X147650940Y-93604508D01*
X147662383Y-93587643D01*
X147699251Y-93533959D01*
X147699300Y-93533871D01*
X147700301Y-93532425D01*
X147769347Y-93431256D01*
X147769409Y-93431143D01*
X147772994Y-93425854D01*
X147834319Y-93334003D01*
X147834351Y-93333943D01*
X147838695Y-93327360D01*
X147889308Y-93249474D01*
X147890106Y-93247936D01*
X147891177Y-93246580D01*
X147895953Y-93239028D01*
X147932861Y-93179753D01*
X147937358Y-93170658D01*
X147943277Y-93162420D01*
X147947704Y-93154658D01*
X147967915Y-93118640D01*
X147987252Y-93074585D01*
X147988944Y-93071158D01*
X148001521Y-93048156D01*
X148003666Y-93041340D01*
X148008559Y-93031430D01*
X148011656Y-93023047D01*
X148014575Y-93014973D01*
X148016172Y-93008698D01*
X148018117Y-93004266D01*
X148023644Y-92979332D01*
X148025599Y-92971648D01*
X148039018Y-92929010D01*
X148040970Y-92911240D01*
X148045376Y-92893925D01*
X148047774Y-92849305D01*
X148052658Y-92804851D01*
X148051121Y-92787037D01*
X148052080Y-92769198D01*
X148045765Y-92724957D01*
X148041922Y-92680407D01*
X148036956Y-92663238D01*
X148034431Y-92645546D01*
X148019638Y-92603360D01*
X148009604Y-92568665D01*
X148425000Y-92568665D01*
X148425000Y-92851335D01*
X148480147Y-93128574D01*
X148588320Y-93389727D01*
X148745363Y-93624759D01*
X148945241Y-93824637D01*
X149180273Y-93981680D01*
X149441426Y-94089853D01*
X149718665Y-94145000D01*
X150001335Y-94145000D01*
X150278574Y-94089853D01*
X150539727Y-93981680D01*
X150774759Y-93824637D01*
X150974637Y-93624759D01*
X151131680Y-93389727D01*
X151239853Y-93128574D01*
X151295000Y-92851335D01*
X151295000Y-92568665D01*
X151239853Y-92291426D01*
X151131680Y-92030273D01*
X150974637Y-91795241D01*
X150774759Y-91595363D01*
X150539727Y-91438320D01*
X150278574Y-91330147D01*
X150001335Y-91275000D01*
X149718665Y-91275000D01*
X149441426Y-91330147D01*
X149180273Y-91438320D01*
X148945241Y-91595363D01*
X148745363Y-91795241D01*
X148588320Y-92030273D01*
X148480147Y-92291426D01*
X148425000Y-92568665D01*
X148009604Y-92568665D01*
X148007218Y-92560419D01*
X147999012Y-92544541D01*
X147993098Y-92527676D01*
X147970401Y-92489180D01*
X147962480Y-92473854D01*
X147960754Y-92469835D01*
X147959330Y-92467759D01*
X147949871Y-92449456D01*
X147944960Y-92441990D01*
X147932412Y-92423197D01*
X147910061Y-92395920D01*
X147890109Y-92366827D01*
X147884312Y-92360026D01*
X147849622Y-92319899D01*
X147845693Y-92316163D01*
X147842491Y-92311790D01*
X147836487Y-92305171D01*
X147784087Y-92248208D01*
X147783884Y-92248026D01*
X147783712Y-92247799D01*
X147777610Y-92241270D01*
X147711931Y-92171962D01*
X147711826Y-92171871D01*
X147707698Y-92167538D01*
X147633170Y-92090384D01*
X147633053Y-92090285D01*
X147629819Y-92086940D01*
X147550875Y-92006434D01*
X147550754Y-92006332D01*
X147547695Y-92003214D01*
X147468765Y-91923851D01*
X147468641Y-91923749D01*
X147465205Y-91920300D01*
X147390722Y-91846577D01*
X147390627Y-91846499D01*
X147385925Y-91841879D01*
X147320319Y-91778291D01*
X147319466Y-91777613D01*
X147318758Y-91776783D01*
X147312277Y-91770630D01*
X147259979Y-91721672D01*
X147253281Y-91716531D01*
X147247543Y-91710333D01*
X147240819Y-91704446D01*
X147206262Y-91674613D01*
X147168040Y-91647646D01*
X147131193Y-91618833D01*
X147123616Y-91614095D01*
X147112056Y-91606976D01*
X147106660Y-91604341D01*
X147104200Y-91602606D01*
X147096726Y-91599278D01*
X147084751Y-91591080D01*
X147041810Y-91572680D01*
X146999813Y-91552175D01*
X146984504Y-91548123D01*
X146969941Y-91541883D01*
X146924219Y-91532169D01*
X146879064Y-91520218D01*
X146863261Y-91519217D01*
X146847762Y-91515924D01*
X146801038Y-91515276D01*
X146754408Y-91512322D01*
X146738705Y-91514411D01*
X146722868Y-91514191D01*
X146676917Y-91522629D01*
X146630592Y-91528791D01*
X146615591Y-91533891D01*
X146600016Y-91536751D01*
X146556578Y-91553953D01*
X146512333Y-91568995D01*
X146498614Y-91576908D01*
X146483885Y-91582741D01*
X146475967Y-91586882D01*
X146457143Y-91596893D01*
X146442288Y-91606764D01*
X146426191Y-91614474D01*
X146418580Y-91619156D01*
X146373556Y-91647281D01*
X146372720Y-91647925D01*
X146371778Y-91648396D01*
X146364248Y-91653208D01*
X146297404Y-91696584D01*
X146297289Y-91696676D01*
X146292658Y-91699694D01*
X146208369Y-91755458D01*
X146208246Y-91755558D01*
X146205038Y-91757677D01*
X146107683Y-91822965D01*
X146107573Y-91823056D01*
X146105239Y-91824613D01*
X146031802Y-91874352D01*
X146031747Y-91874398D01*
X146030830Y-91875012D01*
X145961937Y-91921859D01*
X145946197Y-91838367D01*
X145946197Y-91838366D01*
X145862376Y-91393742D01*
X145862181Y-91393074D01*
X145862118Y-91392383D01*
X145844648Y-91333026D01*
X145827368Y-91273842D01*
X145827049Y-91273229D01*
X145826852Y-91272559D01*
X145798163Y-91217683D01*
X145769739Y-91163025D01*
X145769305Y-91162483D01*
X145768983Y-91161867D01*
X145730351Y-91113818D01*
X145691684Y-91065511D01*
X145691151Y-91065062D01*
X145690717Y-91064522D01*
X145643381Y-91024803D01*
X145596173Y-90985017D01*
X145595567Y-90984682D01*
X145595033Y-90984234D01*
X145540605Y-90954312D01*
X145486847Y-90924607D01*
X145486190Y-90924397D01*
X145485577Y-90924060D01*
X145426530Y-90905330D01*
X145367870Y-90886582D01*
X145367179Y-90886503D01*
X145366517Y-90886293D01*
X145305115Y-90879405D01*
X145243773Y-90872390D01*
X145243081Y-90872447D01*
X145242390Y-90872369D01*
X145233454Y-90872307D01*
X144308006Y-90872307D01*
X144307316Y-90872375D01*
X144306621Y-90872308D01*
X144244946Y-90878490D01*
X144183696Y-90884496D01*
X144183032Y-90884696D01*
X144182338Y-90884766D01*
X144123190Y-90902764D01*
X144064121Y-90920598D01*
X144063506Y-90920925D01*
X144062842Y-90921127D01*
X144008382Y-90950234D01*
X143953835Y-90979237D01*
X143953297Y-90979676D01*
X143952683Y-90980004D01*
X143904722Y-91019293D01*
X143857040Y-91058182D01*
X143856600Y-91058714D01*
X143856058Y-91059158D01*
X143816593Y-91107074D01*
X143777422Y-91154424D01*
X143777092Y-91155034D01*
X143776649Y-91155572D01*
X143747371Y-91210003D01*
X143718014Y-91264297D01*
X143717808Y-91264962D01*
X143717479Y-91265574D01*
X143699338Y-91324628D01*
X143681078Y-91383617D01*
X143681005Y-91384308D01*
X143680801Y-91384973D01*
X143679084Y-91393743D01*
X143595269Y-91838340D01*
X143595264Y-91838366D01*
X143579524Y-91921859D01*
X143510630Y-91875012D01*
X143510552Y-91874970D01*
X143509202Y-91874043D01*
X143405291Y-91803793D01*
X143405157Y-91803720D01*
X143402259Y-91801756D01*
X143308329Y-91739032D01*
X143308187Y-91738956D01*
X143304614Y-91736570D01*
X143225049Y-91684236D01*
X143224948Y-91684183D01*
X143219331Y-91680518D01*
X143158513Y-91641437D01*
X143155671Y-91639981D01*
X143153149Y-91638028D01*
X143145551Y-91633325D01*
X143107864Y-91610361D01*
X143083668Y-91598687D01*
X143060921Y-91584390D01*
X143052899Y-91580451D01*
X143042635Y-91575500D01*
X143024202Y-91568736D01*
X143006847Y-91559569D01*
X142995643Y-91556220D01*
X142995366Y-91556086D01*
X142994074Y-91555750D01*
X142965693Y-91547266D01*
X142925374Y-91532471D01*
X142905989Y-91529418D01*
X142887174Y-91523793D01*
X142844399Y-91519717D01*
X142801989Y-91513037D01*
X142782380Y-91513807D01*
X142762831Y-91511944D01*
X142720095Y-91516252D01*
X142677179Y-91517937D01*
X142658086Y-91522503D01*
X142638555Y-91524472D01*
X142597467Y-91537000D01*
X142555698Y-91546989D01*
X142537859Y-91555175D01*
X142519079Y-91560901D01*
X142481202Y-91581173D01*
X142442174Y-91599082D01*
X142426268Y-91610574D01*
X142408954Y-91619841D01*
X142401559Y-91624859D01*
X142383070Y-91637593D01*
X142355968Y-91660461D01*
X142327030Y-91680952D01*
X142320317Y-91686851D01*
X142280806Y-91722057D01*
X142277135Y-91726036D01*
X142272818Y-91729297D01*
X142266290Y-91735399D01*
X142210187Y-91788579D01*
X142210009Y-91788784D01*
X142209795Y-91788951D01*
X142203358Y-91795150D01*
X142135093Y-91861805D01*
X142134999Y-91861916D01*
X142130749Y-91866088D01*
X142054750Y-91941724D01*
X142054651Y-91941844D01*
X142051366Y-91945117D01*
X141972061Y-92025234D01*
X141971961Y-92025357D01*
X141968907Y-92028443D01*
X141890724Y-92108545D01*
X141890628Y-92108665D01*
X141887237Y-92112145D01*
X141814605Y-92187735D01*
X141814526Y-92187835D01*
X141810002Y-92192577D01*
X141747349Y-92259158D01*
X141746709Y-92259988D01*
X141745917Y-92260684D01*
X141739861Y-92267255D01*
X141691617Y-92320328D01*
X141686632Y-92327023D01*
X141680584Y-92332786D01*
X141674795Y-92339593D01*
X141645388Y-92374662D01*
X141619363Y-92412698D01*
X141591422Y-92449341D01*
X141586776Y-92456974D01*
X141579745Y-92468710D01*
X141576846Y-92474835D01*
X141574854Y-92477747D01*
X141569012Y-92491390D01*
X141554968Y-92521066D01*
X141529437Y-92573092D01*
X141528261Y-92577500D01*
X141526315Y-92581612D01*
X141512192Y-92637732D01*
X141497240Y-92693777D01*
X141496943Y-92698328D01*
X141495832Y-92702741D01*
X141492876Y-92760572D01*
X141489096Y-92818418D01*
X141489688Y-92822935D01*
X141489455Y-92827485D01*
X141497798Y-92884847D01*
X141505319Y-92942266D01*
X141506776Y-92946580D01*
X141507432Y-92951091D01*
X141526744Y-93005704D01*
X141532415Y-93022496D01*
X141533365Y-93026515D01*
X141534941Y-93029973D01*
X141545286Y-93060605D01*
X141549015Y-93068726D01*
X141559133Y-93090363D01*
X141573483Y-93114568D01*
X141585152Y-93140179D01*
X141589687Y-93147879D01*
X141618051Y-93195281D01*
X141620677Y-93198830D01*
X141622620Y-93202800D01*
X141627367Y-93210371D01*
X141670997Y-93278902D01*
X141671155Y-93279103D01*
X141671275Y-93279340D01*
X141676133Y-93286840D01*
X141732044Y-93371862D01*
X141732118Y-93371953D01*
X141735860Y-93377597D01*
X141801072Y-93474475D01*
X141801171Y-93474595D01*
X141803706Y-93478358D01*
X141841178Y-93533153D01*
X141841195Y-93533178D01*
X141889965Y-93604623D01*
X141871074Y-93608184D01*
X141806337Y-93620245D01*
X141806221Y-93620278D01*
X141803856Y-93620712D01*
X141683348Y-93643656D01*
X141683223Y-93643693D01*
X141677183Y-93644861D01*
X141568336Y-93666694D01*
X141568262Y-93666716D01*
X141560878Y-93668236D01*
X141469199Y-93687763D01*
X141467861Y-93688188D01*
X141466460Y-93688352D01*
X141457742Y-93690314D01*
X141388736Y-93706340D01*
X141380046Y-93709277D01*
X141370976Y-93710732D01*
X141362349Y-93713063D01*
X141321526Y-93724394D01*
X141283284Y-93739160D01*
X141244116Y-93751326D01*
X141235906Y-93754855D01*
X141227699Y-93758450D01*
X141215651Y-93765198D01*
X141202714Y-93770041D01*
X141161240Y-93795677D01*
X141118725Y-93819492D01*
X141108219Y-93828451D01*
X141096467Y-93835715D01*
X141060760Y-93868921D01*
X141023682Y-93900538D01*
X141015117Y-93911366D01*
X141004999Y-93920775D01*
X140976429Y-93960275D01*
X140946191Y-93998501D01*
X140939889Y-94010793D01*
X140931796Y-94021982D01*
X140911443Y-94066275D01*
X140889205Y-94109650D01*
X140885412Y-94122926D01*
X140879644Y-94135479D01*
X140876782Y-94143945D01*
X140868745Y-94168277D01*
X140855581Y-94226793D01*
X140841971Y-94285133D01*
X140841364Y-94289985D01*
X140841330Y-94290137D01*
X140841326Y-94290290D01*
X140840862Y-94294000D01*
X140834377Y-94348953D01*
X140834116Y-94362178D01*
X140831827Y-94375201D01*
X140831208Y-94384116D01*
X140826271Y-94463265D01*
X140826423Y-94467546D01*
X140825797Y-94471781D01*
X140825422Y-94480710D01*
X140822028Y-94577627D01*
X140822107Y-94578884D01*
X140821945Y-94580134D01*
X140821730Y-94589067D01*
X140819876Y-94697328D01*
X140819885Y-94697433D01*
X140819872Y-94697542D01*
X140819785Y-94706478D01*
X140819466Y-94819464D01*
X140819465Y-94819469D01*
X139090000Y-94819469D01*
X139090000Y-94010562D01*
X139281426Y-94089853D01*
X139558665Y-94145000D01*
X139841335Y-94145000D01*
X140118574Y-94089853D01*
X140379727Y-93981680D01*
X140614759Y-93824637D01*
X140814637Y-93624759D01*
X140971680Y-93389727D01*
X141079853Y-93128574D01*
X141135000Y-92851335D01*
X141135000Y-92568665D01*
X141079853Y-92291426D01*
X140971680Y-92030273D01*
X140814637Y-91795241D01*
X140614759Y-91595363D01*
X140379727Y-91438320D01*
X140118574Y-91330147D01*
X139841335Y-91275000D01*
X139558665Y-91275000D01*
X139281426Y-91330147D01*
X139090000Y-91409438D01*
X139090000Y-90830000D01*
X140937581Y-90830000D01*
X140970000Y-90833193D01*
X141002419Y-90830000D01*
X141099383Y-90820450D01*
X141223793Y-90782710D01*
X141338450Y-90721425D01*
X141438948Y-90638948D01*
X141521425Y-90538450D01*
X141582710Y-90423793D01*
X141620450Y-90299383D01*
X141630238Y-90200000D01*
X143591928Y-90200000D01*
X143604188Y-90324482D01*
X143640498Y-90444180D01*
X143699463Y-90554494D01*
X143778815Y-90651185D01*
X143875506Y-90730537D01*
X143985820Y-90789502D01*
X144105518Y-90825812D01*
X144230000Y-90838072D01*
X144494250Y-90835000D01*
X144653000Y-90676250D01*
X144653000Y-89427000D01*
X144907000Y-89427000D01*
X144907000Y-90676250D01*
X145065750Y-90835000D01*
X145330000Y-90838072D01*
X145454482Y-90825812D01*
X145574180Y-90789502D01*
X145684494Y-90730537D01*
X145781185Y-90651185D01*
X145860537Y-90554494D01*
X145919502Y-90444180D01*
X145955812Y-90324482D01*
X145968072Y-90200000D01*
X145965000Y-89585750D01*
X145806250Y-89427000D01*
X144907000Y-89427000D01*
X144653000Y-89427000D01*
X143753750Y-89427000D01*
X143595000Y-89585750D01*
X143591928Y-90200000D01*
X141630238Y-90200000D01*
X141633193Y-90170000D01*
X141630000Y-90137581D01*
X141630000Y-88400000D01*
X143591928Y-88400000D01*
X143595000Y-89014250D01*
X143753750Y-89173000D01*
X144653000Y-89173000D01*
X144653000Y-87923750D01*
X144494250Y-87765000D01*
X144230000Y-87761928D01*
X144105518Y-87774188D01*
X143985820Y-87810498D01*
X143875506Y-87869463D01*
X143778815Y-87948815D01*
X143699463Y-88045506D01*
X143640498Y-88155820D01*
X143604188Y-88275518D01*
X143591928Y-88400000D01*
X141630000Y-88400000D01*
X141630000Y-86392418D01*
X141633193Y-86360000D01*
X141620450Y-86230617D01*
X141582710Y-86106207D01*
X141521425Y-85991550D01*
X141438948Y-85891052D01*
X141338450Y-85808575D01*
X141223793Y-85747290D01*
X141099383Y-85709550D01*
X141002419Y-85700000D01*
X140970000Y-85696807D01*
X140937581Y-85700000D01*
X139090000Y-85700000D01*
X139090000Y-80380000D01*
X139431928Y-80380000D01*
X139431928Y-82180000D01*
X139444188Y-82304482D01*
X139480498Y-82424180D01*
X139539463Y-82534494D01*
X139618815Y-82631185D01*
X139715506Y-82710537D01*
X139825820Y-82769502D01*
X139945518Y-82805812D01*
X140070000Y-82818072D01*
X140832640Y-82818072D01*
X143024611Y-85010045D01*
X143050459Y-85041541D01*
X143081955Y-85067389D01*
X143081958Y-85067392D01*
X143176157Y-85144699D01*
X143284188Y-85202443D01*
X143319566Y-85221353D01*
X143475174Y-85268556D01*
X143596447Y-85280500D01*
X143596449Y-85280500D01*
X143619588Y-85282779D01*
X143624188Y-85329482D01*
X143660498Y-85449180D01*
X143719463Y-85559494D01*
X143798815Y-85656185D01*
X143895506Y-85735537D01*
X144005820Y-85794502D01*
X144125518Y-85830812D01*
X144250000Y-85843072D01*
X144311978Y-85843072D01*
X144812444Y-86343539D01*
X144838297Y-86375041D01*
X144883853Y-86412427D01*
X144879472Y-86426868D01*
X144861928Y-86605000D01*
X144861928Y-87855000D01*
X144879472Y-88033132D01*
X144907000Y-88123880D01*
X144907000Y-89173000D01*
X145806250Y-89173000D01*
X145965000Y-89014250D01*
X145966231Y-88768072D01*
X146131928Y-88768072D01*
X146131928Y-89925000D01*
X146149472Y-90103132D01*
X146201431Y-90274418D01*
X146285808Y-90432276D01*
X146399361Y-90570639D01*
X146537724Y-90684192D01*
X146695582Y-90768569D01*
X146866868Y-90820528D01*
X147045000Y-90838072D01*
X147595000Y-90838072D01*
X147773132Y-90820528D01*
X147944418Y-90768569D01*
X148102276Y-90684192D01*
X148240639Y-90570639D01*
X148354192Y-90432276D01*
X148438569Y-90274418D01*
X148490528Y-90103132D01*
X148508072Y-89925000D01*
X148508072Y-89725500D01*
X149264068Y-89725500D01*
X151574500Y-92035934D01*
X151574501Y-95209440D01*
X151570506Y-95250000D01*
X151586445Y-95411826D01*
X151633647Y-95567433D01*
X151701566Y-95694500D01*
X151034278Y-95694500D01*
X150974637Y-95605241D01*
X150774759Y-95405363D01*
X150539727Y-95248320D01*
X150278574Y-95140147D01*
X150001335Y-95085000D01*
X149718665Y-95085000D01*
X149441426Y-95140147D01*
X149180273Y-95248320D01*
X148945241Y-95405363D01*
X148745363Y-95605241D01*
X148588320Y-95840273D01*
X148480147Y-96101426D01*
X148425000Y-96378665D01*
X148425000Y-96661335D01*
X148480147Y-96938574D01*
X148588320Y-97199727D01*
X148745363Y-97434759D01*
X148945241Y-97634637D01*
X149180273Y-97791680D01*
X149441426Y-97899853D01*
X149718665Y-97955000D01*
X150001335Y-97955000D01*
X150278574Y-97899853D01*
X150539727Y-97791680D01*
X150774759Y-97634637D01*
X150974637Y-97434759D01*
X151034278Y-97345500D01*
X153629449Y-97345500D01*
X153669999Y-97349494D01*
X153710550Y-97345500D01*
X158749450Y-97345500D01*
X158790000Y-97349494D01*
X158830550Y-97345500D01*
X158830553Y-97345500D01*
X158951826Y-97333556D01*
X159107434Y-97286353D01*
X159250842Y-97209699D01*
X159376541Y-97106541D01*
X159402398Y-97075034D01*
X161125182Y-95352250D01*
X161180147Y-95628574D01*
X161288320Y-95889727D01*
X161445363Y-96124759D01*
X161645241Y-96324637D01*
X161880273Y-96481680D01*
X162141426Y-96589853D01*
X162418665Y-96645000D01*
X162701335Y-96645000D01*
X162978574Y-96589853D01*
X163239727Y-96481680D01*
X163474759Y-96324637D01*
X163674637Y-96124759D01*
X163831680Y-95889727D01*
X163939853Y-95628574D01*
X163995000Y-95351335D01*
X163995000Y-95068665D01*
X163939853Y-94791426D01*
X163831680Y-94530273D01*
X163674637Y-94295241D01*
X163508057Y-94128661D01*
X163604180Y-94099502D01*
X163714494Y-94040537D01*
X163811185Y-93961185D01*
X163890537Y-93864494D01*
X163949502Y-93754180D01*
X163985812Y-93634482D01*
X163998072Y-93510000D01*
X163998072Y-92479360D01*
X166277432Y-90200000D01*
X168991928Y-90200000D01*
X169004188Y-90324482D01*
X169040498Y-90444180D01*
X169099463Y-90554494D01*
X169178815Y-90651185D01*
X169275506Y-90730537D01*
X169385820Y-90789502D01*
X169505518Y-90825812D01*
X169630000Y-90838072D01*
X169894250Y-90835000D01*
X170053000Y-90676250D01*
X170053000Y-89427000D01*
X169153750Y-89427000D01*
X168995000Y-89585750D01*
X168991928Y-90200000D01*
X166277432Y-90200000D01*
X168077432Y-88400000D01*
X168991928Y-88400000D01*
X168995000Y-89014250D01*
X169153750Y-89173000D01*
X170053000Y-89173000D01*
X170053000Y-87923750D01*
X169894250Y-87765000D01*
X169630000Y-87761928D01*
X169505518Y-87774188D01*
X169385820Y-87810498D01*
X169275506Y-87869463D01*
X169178815Y-87948815D01*
X169099463Y-88045506D01*
X169040498Y-88155820D01*
X169004188Y-88275518D01*
X168991928Y-88400000D01*
X168077432Y-88400000D01*
X170634361Y-85843072D01*
X170672843Y-85843072D01*
X170667724Y-85845808D01*
X170529361Y-85959361D01*
X170415808Y-86097724D01*
X170331431Y-86255582D01*
X170279472Y-86426868D01*
X170261928Y-86605000D01*
X170261928Y-87855000D01*
X170279472Y-88033132D01*
X170307000Y-88123880D01*
X170307000Y-89173000D01*
X170327000Y-89173000D01*
X170327000Y-89427000D01*
X170307000Y-89427000D01*
X170307000Y-90676250D01*
X170422658Y-90791908D01*
X169330068Y-91884500D01*
X168814278Y-91884500D01*
X168754637Y-91795241D01*
X168554759Y-91595363D01*
X168319727Y-91438320D01*
X168058574Y-91330147D01*
X167781335Y-91275000D01*
X167498665Y-91275000D01*
X167221426Y-91330147D01*
X166960273Y-91438320D01*
X166725241Y-91595363D01*
X166525363Y-91795241D01*
X166368320Y-92030273D01*
X166260147Y-92291426D01*
X166205000Y-92568665D01*
X166205000Y-92851335D01*
X166260147Y-93128574D01*
X166368320Y-93389727D01*
X166525363Y-93624759D01*
X166725241Y-93824637D01*
X166960273Y-93981680D01*
X167221426Y-94089853D01*
X167498665Y-94145000D01*
X167781335Y-94145000D01*
X168058574Y-94089853D01*
X168319727Y-93981680D01*
X168554759Y-93824637D01*
X168754637Y-93624759D01*
X168814278Y-93535500D01*
X169457067Y-93535500D01*
X167886624Y-95105944D01*
X167781335Y-95085000D01*
X167498665Y-95085000D01*
X167221426Y-95140147D01*
X166960273Y-95248320D01*
X166725241Y-95405363D01*
X166525363Y-95605241D01*
X166368320Y-95840273D01*
X166260147Y-96101426D01*
X166205000Y-96378665D01*
X166205000Y-96661335D01*
X166260147Y-96938574D01*
X166368320Y-97199727D01*
X166525363Y-97434759D01*
X166725241Y-97634637D01*
X166960273Y-97791680D01*
X167221426Y-97899853D01*
X167498665Y-97955000D01*
X167781335Y-97955000D01*
X168058574Y-97899853D01*
X168319727Y-97791680D01*
X168554759Y-97634637D01*
X168754637Y-97434759D01*
X168911680Y-97199727D01*
X169019853Y-96938574D01*
X169075000Y-96661335D01*
X169075000Y-96378665D01*
X169054056Y-96273376D01*
X173275045Y-92052389D01*
X173306541Y-92026541D01*
X173332389Y-91995045D01*
X173332392Y-91995042D01*
X173409699Y-91900843D01*
X173486353Y-91757434D01*
X173489136Y-91748260D01*
X173533556Y-91601826D01*
X173545500Y-91480553D01*
X173545500Y-91480551D01*
X173549494Y-91440000D01*
X173545500Y-91399450D01*
X173545500Y-90648719D01*
X173640639Y-90570639D01*
X173754192Y-90432276D01*
X173838569Y-90274418D01*
X173890528Y-90103132D01*
X173908072Y-89925000D01*
X173908072Y-88675000D01*
X173890528Y-88496868D01*
X173838569Y-88325582D01*
X173754192Y-88167724D01*
X173640639Y-88029361D01*
X173545500Y-87951281D01*
X173545500Y-85783106D01*
X173634494Y-85735537D01*
X173731185Y-85656185D01*
X173810537Y-85559494D01*
X173869502Y-85449180D01*
X173905812Y-85329482D01*
X173918072Y-85205000D01*
X173918072Y-84765860D01*
X174545040Y-84138893D01*
X174576541Y-84113041D01*
X174643328Y-84031661D01*
X174679699Y-83987343D01*
X174711173Y-83928459D01*
X174756353Y-83843934D01*
X174803556Y-83688326D01*
X174815500Y-83567053D01*
X174815500Y-83567051D01*
X174819494Y-83526501D01*
X174815500Y-83485950D01*
X174815500Y-82818072D01*
X174890000Y-82818072D01*
X175014482Y-82805812D01*
X175134180Y-82769502D01*
X175244494Y-82710537D01*
X175341185Y-82631185D01*
X175420537Y-82534494D01*
X175479502Y-82424180D01*
X175485056Y-82405873D01*
X175551495Y-82472312D01*
X175802905Y-82640299D01*
X176082257Y-82756011D01*
X176378816Y-82815000D01*
X176681184Y-82815000D01*
X176977743Y-82756011D01*
X177257095Y-82640299D01*
X177508505Y-82472312D01*
X177722312Y-82258505D01*
X177890299Y-82007095D01*
X178006011Y-81727743D01*
X178065000Y-81431184D01*
X178065000Y-81128816D01*
X178006011Y-80832257D01*
X177890299Y-80552905D01*
X177722312Y-80301495D01*
X177508505Y-80087688D01*
X177257095Y-79919701D01*
X176977743Y-79803989D01*
X176681184Y-79745000D01*
X176378816Y-79745000D01*
X176082257Y-79803989D01*
X175802905Y-79919701D01*
X175551495Y-80087688D01*
X175485056Y-80154127D01*
X175479502Y-80135820D01*
X175420537Y-80025506D01*
X175341185Y-79928815D01*
X175244494Y-79849463D01*
X175134180Y-79790498D01*
X175014482Y-79754188D01*
X174890000Y-79741928D01*
X173090000Y-79741928D01*
X172965518Y-79754188D01*
X172845820Y-79790498D01*
X172735506Y-79849463D01*
X172638815Y-79928815D01*
X172559463Y-80025506D01*
X172500498Y-80135820D01*
X172464188Y-80255518D01*
X172451928Y-80380000D01*
X172451928Y-82180000D01*
X172464188Y-82304482D01*
X172500498Y-82424180D01*
X172559463Y-82534494D01*
X172638815Y-82631185D01*
X172735506Y-82710537D01*
X172845820Y-82769502D01*
X172965518Y-82805812D01*
X173090000Y-82818072D01*
X173164501Y-82818072D01*
X173164500Y-83066928D01*
X172280000Y-83066928D01*
X172155518Y-83079188D01*
X172130000Y-83086929D01*
X172104482Y-83079188D01*
X171980000Y-83066928D01*
X171864361Y-83066928D01*
X171046398Y-82248966D01*
X171020541Y-82217459D01*
X170894842Y-82114301D01*
X170751434Y-82037647D01*
X170595826Y-81990444D01*
X170474553Y-81978500D01*
X170474550Y-81978500D01*
X170434000Y-81974506D01*
X170393450Y-81978500D01*
X170282143Y-81978500D01*
X170386011Y-81727743D01*
X170445000Y-81431184D01*
X170445000Y-81128816D01*
X170386011Y-80832257D01*
X170270299Y-80552905D01*
X170102312Y-80301495D01*
X169888505Y-80087688D01*
X169637095Y-79919701D01*
X169357743Y-79803989D01*
X169061184Y-79745000D01*
X168758816Y-79745000D01*
X168462257Y-79803989D01*
X168182905Y-79919701D01*
X167931495Y-80087688D01*
X167865056Y-80154127D01*
X167859502Y-80135820D01*
X167800537Y-80025506D01*
X167721185Y-79928815D01*
X167624494Y-79849463D01*
X167514180Y-79790498D01*
X167394482Y-79754188D01*
X167270000Y-79741928D01*
X165470000Y-79741928D01*
X165345518Y-79754188D01*
X165225820Y-79790498D01*
X165115506Y-79849463D01*
X165018815Y-79928815D01*
X164939463Y-80025506D01*
X164880498Y-80135820D01*
X164844188Y-80255518D01*
X164831928Y-80380000D01*
X164831928Y-82180000D01*
X164844188Y-82304482D01*
X164880498Y-82424180D01*
X164939463Y-82534494D01*
X165018815Y-82631185D01*
X165115506Y-82710537D01*
X165225820Y-82769502D01*
X165345518Y-82805812D01*
X165470000Y-82818072D01*
X166740639Y-82818072D01*
X167281606Y-83359039D01*
X167307459Y-83390541D01*
X167377033Y-83447639D01*
X167433156Y-83493698D01*
X167433158Y-83493699D01*
X167576566Y-83570353D01*
X167732174Y-83617556D01*
X167853447Y-83629500D01*
X167853456Y-83629500D01*
X167893999Y-83633493D01*
X167934542Y-83629500D01*
X169049364Y-83629500D01*
X169041928Y-83705000D01*
X169041928Y-85100639D01*
X162870640Y-91271928D01*
X161760000Y-91271928D01*
X161635518Y-91284188D01*
X161515820Y-91320498D01*
X161405506Y-91379463D01*
X161308815Y-91458815D01*
X161229463Y-91555506D01*
X161170498Y-91665820D01*
X161134188Y-91785518D01*
X161121928Y-91910000D01*
X161121928Y-93020639D01*
X158448068Y-95694500D01*
X156292546Y-95694500D01*
X156319853Y-95628574D01*
X156375000Y-95351335D01*
X156375000Y-95068665D01*
X156319853Y-94791426D01*
X156211680Y-94530273D01*
X156054637Y-94295241D01*
X155888057Y-94128661D01*
X155984180Y-94099502D01*
X156094494Y-94040537D01*
X156191185Y-93961185D01*
X156270537Y-93864494D01*
X156329502Y-93754180D01*
X156365812Y-93634482D01*
X156378072Y-93510000D01*
X156378072Y-91910000D01*
X156365812Y-91785518D01*
X156329502Y-91665820D01*
X156270537Y-91555506D01*
X156191185Y-91458815D01*
X156094494Y-91379463D01*
X155984180Y-91320498D01*
X155864482Y-91284188D01*
X155740000Y-91271928D01*
X155177361Y-91271928D01*
X150632098Y-86726665D01*
X152235000Y-86726665D01*
X152235000Y-87009335D01*
X152290147Y-87286574D01*
X152398320Y-87547727D01*
X152555363Y-87782759D01*
X152755241Y-87982637D01*
X152990273Y-88139680D01*
X153251426Y-88247853D01*
X153528665Y-88303000D01*
X153811335Y-88303000D01*
X154088574Y-88247853D01*
X154349727Y-88139680D01*
X154584759Y-87982637D01*
X154784637Y-87782759D01*
X154941680Y-87547727D01*
X155049853Y-87286574D01*
X155105000Y-87009335D01*
X155105000Y-86726665D01*
X162395000Y-86726665D01*
X162395000Y-87009335D01*
X162450147Y-87286574D01*
X162558320Y-87547727D01*
X162715363Y-87782759D01*
X162915241Y-87982637D01*
X163150273Y-88139680D01*
X163411426Y-88247853D01*
X163688665Y-88303000D01*
X163971335Y-88303000D01*
X164248574Y-88247853D01*
X164509727Y-88139680D01*
X164744759Y-87982637D01*
X164944637Y-87782759D01*
X165101680Y-87547727D01*
X165209853Y-87286574D01*
X165265000Y-87009335D01*
X165265000Y-86726665D01*
X165209853Y-86449426D01*
X165101680Y-86188273D01*
X164944637Y-85953241D01*
X164744759Y-85753363D01*
X164509727Y-85596320D01*
X164248574Y-85488147D01*
X163971335Y-85433000D01*
X163688665Y-85433000D01*
X163411426Y-85488147D01*
X163150273Y-85596320D01*
X162915241Y-85753363D01*
X162715363Y-85953241D01*
X162558320Y-86188273D01*
X162450147Y-86449426D01*
X162395000Y-86726665D01*
X155105000Y-86726665D01*
X155049853Y-86449426D01*
X155035839Y-86415593D01*
X158035039Y-83416393D01*
X158066541Y-83390541D01*
X158144984Y-83294958D01*
X158169698Y-83264844D01*
X158181077Y-83243556D01*
X158246353Y-83121434D01*
X158293556Y-82965826D01*
X158305500Y-82844553D01*
X158305500Y-82844544D01*
X158309493Y-82804001D01*
X158305954Y-82768072D01*
X158330000Y-82768072D01*
X158454482Y-82755812D01*
X158574180Y-82719502D01*
X158684494Y-82660537D01*
X158781185Y-82581185D01*
X158860537Y-82484494D01*
X158919502Y-82374180D01*
X158943966Y-82293534D01*
X159019731Y-82377588D01*
X159253080Y-82551641D01*
X159515901Y-82676825D01*
X159663110Y-82721476D01*
X159893000Y-82600155D01*
X159893000Y-81407000D01*
X160147000Y-81407000D01*
X160147000Y-82600155D01*
X160376890Y-82721476D01*
X160524099Y-82676825D01*
X160786920Y-82551641D01*
X161020269Y-82377588D01*
X161215178Y-82161355D01*
X161364157Y-81911252D01*
X161461481Y-81636891D01*
X161340814Y-81407000D01*
X160147000Y-81407000D01*
X159893000Y-81407000D01*
X159873000Y-81407000D01*
X159873000Y-81153000D01*
X159893000Y-81153000D01*
X159893000Y-79959845D01*
X160147000Y-79959845D01*
X160147000Y-81153000D01*
X161340814Y-81153000D01*
X161461481Y-80923109D01*
X161364157Y-80648748D01*
X161215178Y-80398645D01*
X161020269Y-80182412D01*
X160786920Y-80008359D01*
X160524099Y-79883175D01*
X160376890Y-79838524D01*
X160147000Y-79959845D01*
X159893000Y-79959845D01*
X159663110Y-79838524D01*
X159515901Y-79883175D01*
X159253080Y-80008359D01*
X159019731Y-80182412D01*
X158943966Y-80266466D01*
X158919502Y-80185820D01*
X158860537Y-80075506D01*
X158781185Y-79978815D01*
X158684494Y-79899463D01*
X158574180Y-79840498D01*
X158454482Y-79804188D01*
X158330000Y-79791928D01*
X156630000Y-79791928D01*
X156505518Y-79804188D01*
X156385820Y-79840498D01*
X156275506Y-79899463D01*
X156178815Y-79978815D01*
X156099463Y-80075506D01*
X156040498Y-80185820D01*
X156004188Y-80305518D01*
X155991928Y-80430000D01*
X155991928Y-82130000D01*
X156004188Y-82254482D01*
X156040498Y-82374180D01*
X156099463Y-82484494D01*
X156178815Y-82581185D01*
X156275506Y-82660537D01*
X156385820Y-82719502D01*
X156394448Y-82722119D01*
X153683568Y-85433000D01*
X153528665Y-85433000D01*
X153251426Y-85488147D01*
X152990273Y-85596320D01*
X152755241Y-85753363D01*
X152555363Y-85953241D01*
X152398320Y-86188273D01*
X152290147Y-86449426D01*
X152235000Y-86726665D01*
X150632098Y-86726665D01*
X148488072Y-84582640D01*
X148488072Y-83705000D01*
X148475812Y-83580518D01*
X148439502Y-83460820D01*
X148380537Y-83350506D01*
X148301185Y-83253815D01*
X148204494Y-83174463D01*
X148094180Y-83115498D01*
X147974482Y-83079188D01*
X147850000Y-83066928D01*
X147716504Y-83066928D01*
X147965361Y-82818072D01*
X149490000Y-82818072D01*
X149614482Y-82805812D01*
X149734180Y-82769502D01*
X149844494Y-82710537D01*
X149941185Y-82631185D01*
X150020537Y-82534494D01*
X150079502Y-82424180D01*
X150085056Y-82405873D01*
X150151495Y-82472312D01*
X150402905Y-82640299D01*
X150682257Y-82756011D01*
X150978816Y-82815000D01*
X151281184Y-82815000D01*
X151577743Y-82756011D01*
X151857095Y-82640299D01*
X152108505Y-82472312D01*
X152322312Y-82258505D01*
X152490299Y-82007095D01*
X152606011Y-81727743D01*
X152665000Y-81431184D01*
X152665000Y-81128816D01*
X152606011Y-80832257D01*
X152490299Y-80552905D01*
X152322312Y-80301495D01*
X152108505Y-80087688D01*
X151857095Y-79919701D01*
X151577743Y-79803989D01*
X151281184Y-79745000D01*
X150978816Y-79745000D01*
X150682257Y-79803989D01*
X150402905Y-79919701D01*
X150151495Y-80087688D01*
X150085056Y-80154127D01*
X150079502Y-80135820D01*
X150020537Y-80025506D01*
X149941185Y-79928815D01*
X149844494Y-79849463D01*
X149734180Y-79790498D01*
X149614482Y-79754188D01*
X149490000Y-79741928D01*
X147690000Y-79741928D01*
X147565518Y-79754188D01*
X147445820Y-79790498D01*
X147335506Y-79849463D01*
X147238815Y-79928815D01*
X147159463Y-80025506D01*
X147100498Y-80135820D01*
X147064188Y-80255518D01*
X147051928Y-80380000D01*
X147051928Y-81396639D01*
X145494961Y-82953607D01*
X145463460Y-82979459D01*
X145437609Y-83010959D01*
X145380193Y-83080920D01*
X145374482Y-83079188D01*
X145250000Y-83066928D01*
X144250000Y-83066928D01*
X144125518Y-83079188D01*
X144005820Y-83115498D01*
X143895506Y-83174463D01*
X143798815Y-83253815D01*
X143719463Y-83350506D01*
X143712662Y-83363229D01*
X143116168Y-82766734D01*
X143358816Y-82815000D01*
X143661184Y-82815000D01*
X143957743Y-82756011D01*
X144237095Y-82640299D01*
X144488505Y-82472312D01*
X144702312Y-82258505D01*
X144870299Y-82007095D01*
X144986011Y-81727743D01*
X145045000Y-81431184D01*
X145045000Y-81128816D01*
X144986011Y-80832257D01*
X144870299Y-80552905D01*
X144702312Y-80301495D01*
X144488505Y-80087688D01*
X144237095Y-79919701D01*
X143957743Y-79803989D01*
X143661184Y-79745000D01*
X143358816Y-79745000D01*
X143062257Y-79803989D01*
X142782905Y-79919701D01*
X142531495Y-80087688D01*
X142465056Y-80154127D01*
X142459502Y-80135820D01*
X142400537Y-80025506D01*
X142321185Y-79928815D01*
X142224494Y-79849463D01*
X142114180Y-79790498D01*
X141994482Y-79754188D01*
X141870000Y-79741928D01*
X140070000Y-79741928D01*
X139945518Y-79754188D01*
X139825820Y-79790498D01*
X139715506Y-79849463D01*
X139618815Y-79928815D01*
X139539463Y-80025506D01*
X139480498Y-80135820D01*
X139444188Y-80255518D01*
X139431928Y-80380000D01*
X139090000Y-80380000D01*
X139090000Y-80042279D01*
X139128909Y-79645455D01*
X139234780Y-79294792D01*
X139406744Y-78971375D01*
X139638254Y-78687516D01*
X139920486Y-78454035D01*
X140242695Y-78279817D01*
X140592614Y-78171498D01*
X140987443Y-78130000D01*
X176497721Y-78130000D01*
X176894545Y-78168909D01*
G37*
X176894545Y-78168909D02*
X177245208Y-78274780D01*
X177568625Y-78446744D01*
X177852484Y-78678254D01*
X178085965Y-78960486D01*
X178260183Y-79282695D01*
X178368502Y-79632614D01*
X178410000Y-80027443D01*
X178410001Y-85700000D01*
X176562419Y-85700000D01*
X176530000Y-85696807D01*
X176497581Y-85700000D01*
X176400617Y-85709550D01*
X176276207Y-85747290D01*
X176161550Y-85808575D01*
X176061052Y-85891052D01*
X175978575Y-85991550D01*
X175917290Y-86106207D01*
X175879550Y-86230617D01*
X175866807Y-86360000D01*
X175870000Y-86392418D01*
X175870001Y-90137571D01*
X175866807Y-90170000D01*
X175879550Y-90299383D01*
X175917290Y-90423793D01*
X175978575Y-90538450D01*
X176061052Y-90638948D01*
X176161550Y-90721425D01*
X176276207Y-90782710D01*
X176400617Y-90820450D01*
X176497581Y-90830000D01*
X176530000Y-90833193D01*
X176562419Y-90830000D01*
X178410000Y-90830000D01*
X178410000Y-91409438D01*
X178218574Y-91330147D01*
X177941335Y-91275000D01*
X177658665Y-91275000D01*
X177381426Y-91330147D01*
X177120273Y-91438320D01*
X176885241Y-91595363D01*
X176685363Y-91795241D01*
X176528320Y-92030273D01*
X176420147Y-92291426D01*
X176365000Y-92568665D01*
X176365000Y-92851335D01*
X176420147Y-93128574D01*
X176528320Y-93389727D01*
X176685363Y-93624759D01*
X176885241Y-93824637D01*
X177120273Y-93981680D01*
X177381426Y-94089853D01*
X177658665Y-94145000D01*
X177941335Y-94145000D01*
X178218574Y-94089853D01*
X178410001Y-94010562D01*
X178410001Y-95219438D01*
X178218574Y-95140147D01*
X177941335Y-95085000D01*
X177658665Y-95085000D01*
X177381426Y-95140147D01*
X177120273Y-95248320D01*
X176885241Y-95405363D01*
X176685363Y-95605241D01*
X176528320Y-95840273D01*
X176420147Y-96101426D01*
X176365000Y-96378665D01*
X176365000Y-96661335D01*
X176420147Y-96938574D01*
X176528320Y-97199727D01*
X176685363Y-97434759D01*
X176885241Y-97634637D01*
X177120273Y-97791680D01*
X177381426Y-97899853D01*
X177658665Y-97955000D01*
X177725737Y-97955000D01*
X177579514Y-98075965D01*
X177257304Y-98250184D01*
X176907385Y-98358502D01*
X176512557Y-98400000D01*
X141002279Y-98400000D01*
X140605455Y-98361091D01*
X140254794Y-98255220D01*
X139931377Y-98083257D01*
X139774117Y-97955000D01*
X139841335Y-97955000D01*
X140118574Y-97899853D01*
X140379727Y-97791680D01*
X140614759Y-97634637D01*
X140814637Y-97434759D01*
X140971680Y-97199727D01*
X141079853Y-96938574D01*
X141135000Y-96661335D01*
X141135000Y-96378665D01*
X141079853Y-96101426D01*
X140971680Y-95840273D01*
X140814637Y-95605241D01*
X140614759Y-95405363D01*
X140379727Y-95248320D01*
X140118574Y-95140147D01*
X139841335Y-95085000D01*
X139558665Y-95085000D01*
X139281426Y-95140147D01*
X139090000Y-95219438D01*
X139090000Y-94819469D01*
X140819465Y-94819469D01*
X140819465Y-94819655D01*
X140819466Y-94819663D01*
X140819500Y-94828405D01*
X140820711Y-94940075D01*
X140820765Y-94940574D01*
X140820722Y-94941081D01*
X140820896Y-94950016D01*
X140823633Y-95053748D01*
X140823922Y-95056065D01*
X140823772Y-95058403D01*
X140824135Y-95067332D01*
X140828394Y-95156705D01*
X140829438Y-95163834D01*
X140829238Y-95171040D01*
X140829927Y-95179950D01*
X140835703Y-95248535D01*
X140840127Y-95272609D01*
X140841661Y-95297049D01*
X140843150Y-95305860D01*
X140850438Y-95347231D01*
X140857836Y-95373744D01*
X140862289Y-95400898D01*
X140874580Y-95433751D01*
X140884009Y-95467541D01*
X140892590Y-95484536D01*
X140895301Y-95493269D01*
X140900302Y-95502501D01*
X140906057Y-95517884D01*
X140910046Y-95525880D01*
X140914418Y-95534493D01*
X140930769Y-95560146D01*
X140940309Y-95579040D01*
X140945050Y-95585110D01*
X140954793Y-95603097D01*
X140969319Y-95620629D01*
X140981553Y-95639823D01*
X141009069Y-95668604D01*
X141034485Y-95699279D01*
X141052142Y-95713657D01*
X141067869Y-95730107D01*
X141100455Y-95752999D01*
X141131341Y-95778149D01*
X141151446Y-95788820D01*
X141170076Y-95801907D01*
X141206492Y-95818034D01*
X141241670Y-95836705D01*
X141249958Y-95840046D01*
X141276089Y-95850369D01*
X141307423Y-95859328D01*
X141337782Y-95871180D01*
X141346401Y-95873542D01*
X141401771Y-95888301D01*
X141409487Y-95889568D01*
X141416873Y-95892130D01*
X141425576Y-95894160D01*
X141502862Y-95911620D01*
X141506140Y-95912030D01*
X141509284Y-95913036D01*
X141518033Y-95914854D01*
X141609910Y-95933282D01*
X141609976Y-95933289D01*
X141610046Y-95933310D01*
X141618821Y-95935004D01*
X141650892Y-95940965D01*
X141650984Y-95940973D01*
X141652529Y-95941267D01*
X141806030Y-95969385D01*
X141862919Y-95980008D01*
X141872047Y-96003314D01*
X141873814Y-96007994D01*
X141838838Y-96058989D01*
X141820729Y-96085336D01*
X141820656Y-96085468D01*
X141817938Y-96089429D01*
X141752082Y-96186850D01*
X141751665Y-96187620D01*
X141751109Y-96188294D01*
X141746176Y-96195746D01*
X141688226Y-96284634D01*
X141687256Y-96286497D01*
X141685947Y-96288153D01*
X141681169Y-96295704D01*
X141634281Y-96370953D01*
X141631562Y-96376448D01*
X141627919Y-96381383D01*
X141623393Y-96389088D01*
X141590724Y-96445596D01*
X141581138Y-96466696D01*
X141569030Y-96486461D01*
X141565184Y-96494527D01*
X141549891Y-96527188D01*
X141544982Y-96541057D01*
X141538065Y-96554032D01*
X141524180Y-96599835D01*
X141508217Y-96644937D01*
X141506098Y-96659481D01*
X141501828Y-96673565D01*
X141500144Y-96682341D01*
X141499403Y-96686354D01*
X141495892Y-96727607D01*
X141489665Y-96768546D01*
X141490608Y-96789709D01*
X141488812Y-96810810D01*
X141493380Y-96851951D01*
X141495223Y-96893328D01*
X141500259Y-96913908D01*
X141502596Y-96934953D01*
X141515072Y-96974437D01*
X141524914Y-97014655D01*
X141533846Y-97033853D01*
X141540229Y-97054055D01*
X141560137Y-97090364D01*
X141577602Y-97127903D01*
X141582199Y-97135567D01*
X141595048Y-97156658D01*
X141622586Y-97193268D01*
X141648176Y-97231268D01*
X141653915Y-97238118D01*
X141689419Y-97279898D01*
X141695830Y-97286098D01*
X141701117Y-97293283D01*
X141707137Y-97299887D01*
X141760732Y-97357868D01*
X141762306Y-97359268D01*
X141763591Y-97360941D01*
X141769745Y-97367421D01*
X141836868Y-97437111D01*
X141836888Y-97437128D01*
X141842844Y-97443234D01*
X141918928Y-97520144D01*
X141919021Y-97520221D01*
X141923759Y-97524975D01*
X142004242Y-97604613D01*
X142004343Y-97604695D01*
X142008878Y-97609154D01*
X142089195Y-97687032D01*
X142089269Y-97687091D01*
X142094507Y-97692124D01*
X142170095Y-97763749D01*
X142170507Y-97764069D01*
X142170855Y-97764469D01*
X142177395Y-97770559D01*
X142243689Y-97831443D01*
X142246918Y-97833873D01*
X142249656Y-97836855D01*
X142256355Y-97842769D01*
X142308791Y-97888420D01*
X142322129Y-97897914D01*
X142333966Y-97909233D01*
X142341035Y-97914699D01*
X142375049Y-97940628D01*
X142380288Y-97943866D01*
X142384876Y-97947971D01*
X142420189Y-97968872D01*
X142430258Y-97976717D01*
X142447418Y-97985356D01*
X142481300Y-98006297D01*
X142487063Y-98008454D01*
X142492365Y-98011592D01*
X142500489Y-98015315D01*
X142509899Y-98019547D01*
X142526327Y-98025082D01*
X142541824Y-98032884D01*
X142582611Y-98044212D01*
X142598282Y-98050077D01*
X142602627Y-98050790D01*
X142628267Y-98059429D01*
X142645462Y-98061668D01*
X142662174Y-98066310D01*
X142707279Y-98069719D01*
X142752127Y-98075560D01*
X142769431Y-98074417D01*
X142786725Y-98075724D01*
X142831627Y-98070308D01*
X142876762Y-98067326D01*
X142893518Y-98062842D01*
X142910733Y-98060766D01*
X142953732Y-98046731D01*
X142997423Y-98035040D01*
X143012981Y-98027391D01*
X143029473Y-98022008D01*
X143037631Y-98018362D01*
X143059534Y-98008391D01*
X143086971Y-97992500D01*
X143115815Y-97979325D01*
X143123510Y-97974782D01*
X143168353Y-97947890D01*
X143174005Y-97943700D01*
X143180294Y-97940550D01*
X143187822Y-97935735D01*
X143248301Y-97896451D01*
X143250016Y-97895082D01*
X143251954Y-97894060D01*
X143259380Y-97889089D01*
X143305912Y-97857470D01*
X143306026Y-97857375D01*
X143309015Y-97855349D01*
X143392704Y-97797760D01*
X143491136Y-97730416D01*
X143512568Y-97715820D01*
X143550695Y-97731094D01*
X143597193Y-97744630D01*
X143628403Y-97755224D01*
X143637160Y-97758453D01*
X143638579Y-97758679D01*
X143643090Y-97760210D01*
X143651806Y-97762181D01*
X143662014Y-97764416D01*
X143667317Y-97765044D01*
X143670623Y-97766006D01*
X143689453Y-97767664D01*
X143711388Y-97770260D01*
X143760516Y-97778074D01*
X143773326Y-97777590D01*
X143786055Y-97779097D01*
X143835622Y-97775239D01*
X143885333Y-97773363D01*
X143897811Y-97770399D01*
X143910584Y-97769405D01*
X143958460Y-97755993D01*
X144006858Y-97744497D01*
X144018515Y-97739169D01*
X144030860Y-97735711D01*
X144075236Y-97713246D01*
X144120462Y-97692576D01*
X144130863Y-97685085D01*
X144142300Y-97679295D01*
X144181471Y-97648636D01*
X144221817Y-97619578D01*
X144230562Y-97610212D01*
X144240660Y-97602309D01*
X144273124Y-97564632D01*
X144307064Y-97528285D01*
X144312446Y-97521152D01*
X144324720Y-97504648D01*
X144348895Y-97464475D01*
X144375000Y-97425537D01*
X144379173Y-97417635D01*
X144403389Y-97370995D01*
X144406057Y-97364339D01*
X144409832Y-97358240D01*
X144413715Y-97350192D01*
X144448065Y-97277719D01*
X144448335Y-97276966D01*
X144448746Y-97276278D01*
X144452497Y-97268167D01*
X144495172Y-97174164D01*
X144495216Y-97174035D01*
X144497724Y-97168469D01*
X144546918Y-97057237D01*
X144546968Y-97057085D01*
X144548666Y-97053248D01*
X144602570Y-96929089D01*
X144602615Y-96928949D01*
X144603925Y-96925945D01*
X144660731Y-96793162D01*
X144660774Y-96793027D01*
X144661895Y-96790422D01*
X144719797Y-96653318D01*
X144719837Y-96653189D01*
X144720905Y-96650678D01*
X144770699Y-96531284D01*
X144773494Y-96538053D01*
X144773558Y-96538173D01*
X144774624Y-96540772D01*
X144832128Y-96678224D01*
X144832194Y-96678347D01*
X144833230Y-96680840D01*
X144891087Y-96817429D01*
X144891151Y-96817546D01*
X144892270Y-96820205D01*
X144948673Y-96951634D01*
X144948746Y-96951767D01*
X144950072Y-96954868D01*
X145003212Y-97076837D01*
X145003288Y-97076973D01*
X145005057Y-97081031D01*
X145053125Y-97189235D01*
X145053184Y-97189339D01*
X145055903Y-97195400D01*
X145097092Y-97285540D01*
X145097829Y-97286808D01*
X145098312Y-97288194D01*
X145102120Y-97296279D01*
X145134620Y-97364053D01*
X145139674Y-97372391D01*
X145143289Y-97381449D01*
X145147451Y-97389357D01*
X145169455Y-97430464D01*
X145201744Y-97478771D01*
X145233376Y-97527521D01*
X145238860Y-97534297D01*
X145238867Y-97534308D01*
X145238875Y-97534316D01*
X145238998Y-97534468D01*
X145247859Y-97545264D01*
X145291600Y-97589039D01*
X145335038Y-97632705D01*
X145335633Y-97633106D01*
X145336147Y-97633620D01*
X145387308Y-97667897D01*
X145438649Y-97702464D01*
X145439323Y-97702747D01*
X145439916Y-97703144D01*
X145496789Y-97726844D01*
X145553838Y-97750767D01*
X145554540Y-97750911D01*
X145555211Y-97751190D01*
X145615816Y-97763434D01*
X145676214Y-97775778D01*
X145676938Y-97775782D01*
X145677644Y-97775925D01*
X145739542Y-97776165D01*
X145801118Y-97776541D01*
X145801821Y-97776406D01*
X145802549Y-97776409D01*
X145863249Y-97764634D01*
X145923792Y-97753031D01*
X145925095Y-97752636D01*
X145925169Y-97752622D01*
X145925246Y-97752591D01*
X145932344Y-97750441D01*
X145959420Y-97742034D01*
X145990015Y-97729142D01*
X146021670Y-97719106D01*
X146029001Y-97715904D01*
X146090728Y-97758020D01*
X146184981Y-97822635D01*
X146232063Y-97855085D01*
X146232133Y-97855124D01*
X146238461Y-97859437D01*
X146305706Y-97904594D01*
X146310323Y-97907078D01*
X146314423Y-97910345D01*
X146321956Y-97915152D01*
X146378898Y-97950937D01*
X146389837Y-97956402D01*
X146399788Y-97963517D01*
X146407561Y-97967926D01*
X146446771Y-97989807D01*
X146489775Y-98008562D01*
X146514522Y-98020825D01*
X146522831Y-98025328D01*
X146524912Y-98025974D01*
X146531799Y-98029387D01*
X146540177Y-98032495D01*
X146552912Y-98037120D01*
X146558584Y-98038572D01*
X146561262Y-98039740D01*
X146574364Y-98042612D01*
X146597818Y-98048616D01*
X146642117Y-98062374D01*
X146658231Y-98064082D01*
X146673916Y-98068098D01*
X146720205Y-98070653D01*
X146766327Y-98075543D01*
X146782463Y-98074090D01*
X146798632Y-98074982D01*
X146844534Y-98068498D01*
X146890729Y-98064337D01*
X146906273Y-98059777D01*
X146922311Y-98057512D01*
X146966101Y-98042228D01*
X147010586Y-98029179D01*
X147024943Y-98021690D01*
X147040240Y-98016351D01*
X147080218Y-97992858D01*
X147088137Y-97988728D01*
X147093670Y-97986409D01*
X147097424Y-97983883D01*
X147121331Y-97971413D01*
X147128778Y-97966475D01*
X147147315Y-97953996D01*
X147171390Y-97934117D01*
X147197302Y-97916682D01*
X147204154Y-97910946D01*
X147245177Y-97876113D01*
X147248489Y-97872691D01*
X147252365Y-97869918D01*
X147259049Y-97863986D01*
X147318583Y-97810413D01*
X147318816Y-97810157D01*
X147319092Y-97809954D01*
X147325686Y-97803923D01*
X147399753Y-97735229D01*
X147399829Y-97735143D01*
X147404794Y-97730503D01*
X147489417Y-97650301D01*
X147489525Y-97650176D01*
X147492904Y-97646970D01*
X147546425Y-97595475D01*
X147546505Y-97595382D01*
X147551233Y-97590800D01*
X147644866Y-97498800D01*
X147645524Y-97498014D01*
X147646326Y-97497362D01*
X147652636Y-97491034D01*
X147733558Y-97408747D01*
X147735253Y-97406648D01*
X147737311Y-97404899D01*
X147743478Y-97398432D01*
X147808414Y-97329378D01*
X147812882Y-97323585D01*
X147818277Y-97318647D01*
X147824202Y-97311958D01*
X147869883Y-97259657D01*
X147884417Y-97239308D01*
X147901241Y-97220794D01*
X147906526Y-97213589D01*
X147929679Y-97181561D01*
X147941953Y-97160525D01*
X147942777Y-97159535D01*
X147944389Y-97156575D01*
X147960373Y-97134945D01*
X147975159Y-97103616D01*
X147992628Y-97073677D01*
X147998023Y-97058064D01*
X148002504Y-97049834D01*
X148006358Y-97037511D01*
X148013684Y-97021988D01*
X148016633Y-97013552D01*
X148018854Y-97007052D01*
X148025731Y-96977881D01*
X148033423Y-96955620D01*
X148034574Y-96947284D01*
X148039785Y-96930622D01*
X148042250Y-96907805D01*
X148047513Y-96885479D01*
X148048941Y-96845867D01*
X148050234Y-96833902D01*
X148050512Y-96831889D01*
X148050491Y-96831525D01*
X148053201Y-96806438D01*
X148051187Y-96783580D01*
X148052014Y-96760654D01*
X148045719Y-96721505D01*
X148042240Y-96682013D01*
X148035827Y-96659989D01*
X148032184Y-96637331D01*
X148018405Y-96600153D01*
X148007322Y-96562088D01*
X148003940Y-96553816D01*
X147993632Y-96529094D01*
X147977134Y-96498369D01*
X147963353Y-96466332D01*
X147958983Y-96458537D01*
X147930498Y-96408548D01*
X147926250Y-96402542D01*
X147923093Y-96395891D01*
X147918438Y-96388262D01*
X147874936Y-96318069D01*
X147873631Y-96316361D01*
X147872666Y-96314432D01*
X147867854Y-96306902D01*
X147812494Y-96221565D01*
X147812138Y-96221119D01*
X147811873Y-96220609D01*
X147806944Y-96213155D01*
X147742887Y-96117737D01*
X147742799Y-96117631D01*
X147739572Y-96112847D01*
X147721355Y-96086245D01*
X147721327Y-96086211D01*
X147720935Y-96085632D01*
X147667641Y-96008002D01*
X147678571Y-95979990D01*
X147710346Y-95974023D01*
X147856982Y-95947093D01*
X147888447Y-95941355D01*
X147888562Y-95941322D01*
X147895020Y-95940121D01*
X147990088Y-95921754D01*
X147992765Y-95920959D01*
X147995548Y-95920675D01*
X148004294Y-95918842D01*
X148087173Y-95900873D01*
X148092500Y-95899159D01*
X148098055Y-95898415D01*
X148106739Y-95896308D01*
X148170105Y-95880472D01*
X148187555Y-95874247D01*
X148205700Y-95870476D01*
X148214211Y-95867752D01*
X148250739Y-95855783D01*
X148305456Y-95831716D01*
X148308282Y-95830501D01*
X148340228Y-95818410D01*
X148348744Y-95813103D01*
X148360433Y-95808077D01*
X148364934Y-95805555D01*
X148365074Y-95805493D01*
X148365196Y-95805408D01*
X148368229Y-95803708D01*
X148373127Y-95800918D01*
X148408967Y-95775573D01*
X148446235Y-95752348D01*
X148459867Y-95739578D01*
X148475109Y-95728799D01*
X148505340Y-95696979D01*
X148537391Y-95666954D01*
X148548283Y-95651779D01*
X148561141Y-95638245D01*
X148584624Y-95601147D01*
X148610224Y-95565480D01*
X148617957Y-95548488D01*
X148627947Y-95532706D01*
X148643775Y-95491757D01*
X148661962Y-95451794D01*
X148664792Y-95443318D01*
X148672863Y-95418580D01*
X148685505Y-95361408D01*
X148698853Y-95304354D01*
X148699817Y-95296687D01*
X148699832Y-95296620D01*
X148699833Y-95296559D01*
X148699968Y-95295488D01*
X148706528Y-95240206D01*
X148706794Y-95227155D01*
X148709070Y-95214295D01*
X148709699Y-95205381D01*
X148714745Y-95125980D01*
X148714600Y-95121739D01*
X148715225Y-95117544D01*
X148715611Y-95108616D01*
X148719137Y-95011523D01*
X148719061Y-95010289D01*
X148719223Y-95009052D01*
X148719450Y-95000118D01*
X148721452Y-94891761D01*
X148721444Y-94891661D01*
X148721456Y-94891559D01*
X148721555Y-94882624D01*
X148722029Y-94769612D01*
X148722030Y-94769604D01*
X148722007Y-94760668D01*
X148720948Y-94649056D01*
X148720893Y-94648549D01*
X148720938Y-94648036D01*
X148720776Y-94639101D01*
X148718181Y-94535503D01*
X148717892Y-94533164D01*
X148718047Y-94530802D01*
X148717695Y-94521873D01*
X148713559Y-94432712D01*
X148712512Y-94425496D01*
X148712721Y-94418207D01*
X148712042Y-94409296D01*
X148706359Y-94341000D01*
X148701889Y-94316541D01*
X148700327Y-94291725D01*
X148698836Y-94282914D01*
X148691604Y-94241908D01*
X148683407Y-94212553D01*
X148678192Y-94182531D01*
X148666651Y-94152549D01*
X148658010Y-94121605D01*
X148644270Y-94094408D01*
X148640693Y-94085115D01*
X148636193Y-94072457D01*
X148635140Y-94070689D01*
X148633321Y-94065963D01*
X148629256Y-94058005D01*
X148624896Y-94049613D01*
X148610343Y-94027249D01*
X148601688Y-94010117D01*
X148590693Y-93996045D01*
X148572288Y-93965136D01*
X148563737Y-93955630D01*
X148556769Y-93944922D01*
X148526371Y-93913722D01*
X148524785Y-93911692D01*
X148522323Y-93909567D01*
X148522058Y-93909295D01*
X148488755Y-93872272D01*
X148478518Y-93864606D01*
X148469604Y-93855457D01*
X148428608Y-93827232D01*
X148388774Y-93797403D01*
X148377258Y-93791878D01*
X148366724Y-93784626D01*
X148321022Y-93764900D01*
X148314613Y-93761826D01*
X148313178Y-93760943D01*
X148311380Y-93760275D01*
X148276157Y-93743377D01*
X148267740Y-93740376D01*
X148243467Y-93731910D01*
X148219358Y-93726065D01*
X148196101Y-93717419D01*
X148187445Y-93715198D01*
X148132173Y-93701425D01*
X148128257Y-93700847D01*
X148124512Y-93699566D01*
X148115801Y-93697573D01*
X148035036Y-93679688D01*
X148034925Y-93679675D01*
X148034813Y-93679638D01*
X148026074Y-93677771D01*
X147925324Y-93656969D01*
X147925209Y-93656957D01*
X147918695Y-93655636D01*
X147803466Y-93633111D01*
X147803305Y-93633096D01*
X147798952Y-93632246D01*
X147736171Y-93620441D01*
X147736129Y-93620437D01*
X147735504Y-93620316D01*
X147650940Y-93604508D01*
X147662383Y-93587643D01*
X147699251Y-93533959D01*
X147699300Y-93533871D01*
X147700301Y-93532425D01*
X147769347Y-93431256D01*
X147769409Y-93431143D01*
X147772994Y-93425854D01*
X147834319Y-93334003D01*
X147834351Y-93333943D01*
X147838695Y-93327360D01*
X147889308Y-93249474D01*
X147890106Y-93247936D01*
X147891177Y-93246580D01*
X147895953Y-93239028D01*
X147932861Y-93179753D01*
X147937358Y-93170658D01*
X147943277Y-93162420D01*
X147947704Y-93154658D01*
X147967915Y-93118640D01*
X147987252Y-93074585D01*
X147988944Y-93071158D01*
X148001521Y-93048156D01*
X148003666Y-93041340D01*
X148008559Y-93031430D01*
X148011656Y-93023047D01*
X148014575Y-93014973D01*
X148016172Y-93008698D01*
X148018117Y-93004266D01*
X148023644Y-92979332D01*
X148025599Y-92971648D01*
X148039018Y-92929010D01*
X148040970Y-92911240D01*
X148045376Y-92893925D01*
X148047774Y-92849305D01*
X148052658Y-92804851D01*
X148051121Y-92787037D01*
X148052080Y-92769198D01*
X148045765Y-92724957D01*
X148041922Y-92680407D01*
X148036956Y-92663238D01*
X148034431Y-92645546D01*
X148019638Y-92603360D01*
X148009604Y-92568665D01*
X148425000Y-92568665D01*
X148425000Y-92851335D01*
X148480147Y-93128574D01*
X148588320Y-93389727D01*
X148745363Y-93624759D01*
X148945241Y-93824637D01*
X149180273Y-93981680D01*
X149441426Y-94089853D01*
X149718665Y-94145000D01*
X150001335Y-94145000D01*
X150278574Y-94089853D01*
X150539727Y-93981680D01*
X150774759Y-93824637D01*
X150974637Y-93624759D01*
X151131680Y-93389727D01*
X151239853Y-93128574D01*
X151295000Y-92851335D01*
X151295000Y-92568665D01*
X151239853Y-92291426D01*
X151131680Y-92030273D01*
X150974637Y-91795241D01*
X150774759Y-91595363D01*
X150539727Y-91438320D01*
X150278574Y-91330147D01*
X150001335Y-91275000D01*
X149718665Y-91275000D01*
X149441426Y-91330147D01*
X149180273Y-91438320D01*
X148945241Y-91595363D01*
X148745363Y-91795241D01*
X148588320Y-92030273D01*
X148480147Y-92291426D01*
X148425000Y-92568665D01*
X148009604Y-92568665D01*
X148007218Y-92560419D01*
X147999012Y-92544541D01*
X147993098Y-92527676D01*
X147970401Y-92489180D01*
X147962480Y-92473854D01*
X147960754Y-92469835D01*
X147959330Y-92467759D01*
X147949871Y-92449456D01*
X147944960Y-92441990D01*
X147932412Y-92423197D01*
X147910061Y-92395920D01*
X147890109Y-92366827D01*
X147884312Y-92360026D01*
X147849622Y-92319899D01*
X147845693Y-92316163D01*
X147842491Y-92311790D01*
X147836487Y-92305171D01*
X147784087Y-92248208D01*
X147783884Y-92248026D01*
X147783712Y-92247799D01*
X147777610Y-92241270D01*
X147711931Y-92171962D01*
X147711826Y-92171871D01*
X147707698Y-92167538D01*
X147633170Y-92090384D01*
X147633053Y-92090285D01*
X147629819Y-92086940D01*
X147550875Y-92006434D01*
X147550754Y-92006332D01*
X147547695Y-92003214D01*
X147468765Y-91923851D01*
X147468641Y-91923749D01*
X147465205Y-91920300D01*
X147390722Y-91846577D01*
X147390627Y-91846499D01*
X147385925Y-91841879D01*
X147320319Y-91778291D01*
X147319466Y-91777613D01*
X147318758Y-91776783D01*
X147312277Y-91770630D01*
X147259979Y-91721672D01*
X147253281Y-91716531D01*
X147247543Y-91710333D01*
X147240819Y-91704446D01*
X147206262Y-91674613D01*
X147168040Y-91647646D01*
X147131193Y-91618833D01*
X147123616Y-91614095D01*
X147112056Y-91606976D01*
X147106660Y-91604341D01*
X147104200Y-91602606D01*
X147096726Y-91599278D01*
X147084751Y-91591080D01*
X147041810Y-91572680D01*
X146999813Y-91552175D01*
X146984504Y-91548123D01*
X146969941Y-91541883D01*
X146924219Y-91532169D01*
X146879064Y-91520218D01*
X146863261Y-91519217D01*
X146847762Y-91515924D01*
X146801038Y-91515276D01*
X146754408Y-91512322D01*
X146738705Y-91514411D01*
X146722868Y-91514191D01*
X146676917Y-91522629D01*
X146630592Y-91528791D01*
X146615591Y-91533891D01*
X146600016Y-91536751D01*
X146556578Y-91553953D01*
X146512333Y-91568995D01*
X146498614Y-91576908D01*
X146483885Y-91582741D01*
X146475967Y-91586882D01*
X146457143Y-91596893D01*
X146442288Y-91606764D01*
X146426191Y-91614474D01*
X146418580Y-91619156D01*
X146373556Y-91647281D01*
X146372720Y-91647925D01*
X146371778Y-91648396D01*
X146364248Y-91653208D01*
X146297404Y-91696584D01*
X146297289Y-91696676D01*
X146292658Y-91699694D01*
X146208369Y-91755458D01*
X146208246Y-91755558D01*
X146205038Y-91757677D01*
X146107683Y-91822965D01*
X146107573Y-91823056D01*
X146105239Y-91824613D01*
X146031802Y-91874352D01*
X146031747Y-91874398D01*
X146030830Y-91875012D01*
X145961937Y-91921859D01*
X145946197Y-91838367D01*
X145946197Y-91838366D01*
X145862376Y-91393742D01*
X145862181Y-91393074D01*
X145862118Y-91392383D01*
X145844648Y-91333026D01*
X145827368Y-91273842D01*
X145827049Y-91273229D01*
X145826852Y-91272559D01*
X145798163Y-91217683D01*
X145769739Y-91163025D01*
X145769305Y-91162483D01*
X145768983Y-91161867D01*
X145730351Y-91113818D01*
X145691684Y-91065511D01*
X145691151Y-91065062D01*
X145690717Y-91064522D01*
X145643381Y-91024803D01*
X145596173Y-90985017D01*
X145595567Y-90984682D01*
X145595033Y-90984234D01*
X145540605Y-90954312D01*
X145486847Y-90924607D01*
X145486190Y-90924397D01*
X145485577Y-90924060D01*
X145426530Y-90905330D01*
X145367870Y-90886582D01*
X145367179Y-90886503D01*
X145366517Y-90886293D01*
X145305115Y-90879405D01*
X145243773Y-90872390D01*
X145243081Y-90872447D01*
X145242390Y-90872369D01*
X145233454Y-90872307D01*
X144308006Y-90872307D01*
X144307316Y-90872375D01*
X144306621Y-90872308D01*
X144244946Y-90878490D01*
X144183696Y-90884496D01*
X144183032Y-90884696D01*
X144182338Y-90884766D01*
X144123190Y-90902764D01*
X144064121Y-90920598D01*
X144063506Y-90920925D01*
X144062842Y-90921127D01*
X144008382Y-90950234D01*
X143953835Y-90979237D01*
X143953297Y-90979676D01*
X143952683Y-90980004D01*
X143904722Y-91019293D01*
X143857040Y-91058182D01*
X143856600Y-91058714D01*
X143856058Y-91059158D01*
X143816593Y-91107074D01*
X143777422Y-91154424D01*
X143777092Y-91155034D01*
X143776649Y-91155572D01*
X143747371Y-91210003D01*
X143718014Y-91264297D01*
X143717808Y-91264962D01*
X143717479Y-91265574D01*
X143699338Y-91324628D01*
X143681078Y-91383617D01*
X143681005Y-91384308D01*
X143680801Y-91384973D01*
X143679084Y-91393743D01*
X143595269Y-91838340D01*
X143595264Y-91838366D01*
X143579524Y-91921859D01*
X143510630Y-91875012D01*
X143510552Y-91874970D01*
X143509202Y-91874043D01*
X143405291Y-91803793D01*
X143405157Y-91803720D01*
X143402259Y-91801756D01*
X143308329Y-91739032D01*
X143308187Y-91738956D01*
X143304614Y-91736570D01*
X143225049Y-91684236D01*
X143224948Y-91684183D01*
X143219331Y-91680518D01*
X143158513Y-91641437D01*
X143155671Y-91639981D01*
X143153149Y-91638028D01*
X143145551Y-91633325D01*
X143107864Y-91610361D01*
X143083668Y-91598687D01*
X143060921Y-91584390D01*
X143052899Y-91580451D01*
X143042635Y-91575500D01*
X143024202Y-91568736D01*
X143006847Y-91559569D01*
X142995643Y-91556220D01*
X142995366Y-91556086D01*
X142994074Y-91555750D01*
X142965693Y-91547266D01*
X142925374Y-91532471D01*
X142905989Y-91529418D01*
X142887174Y-91523793D01*
X142844399Y-91519717D01*
X142801989Y-91513037D01*
X142782380Y-91513807D01*
X142762831Y-91511944D01*
X142720095Y-91516252D01*
X142677179Y-91517937D01*
X142658086Y-91522503D01*
X142638555Y-91524472D01*
X142597467Y-91537000D01*
X142555698Y-91546989D01*
X142537859Y-91555175D01*
X142519079Y-91560901D01*
X142481202Y-91581173D01*
X142442174Y-91599082D01*
X142426268Y-91610574D01*
X142408954Y-91619841D01*
X142401559Y-91624859D01*
X142383070Y-91637593D01*
X142355968Y-91660461D01*
X142327030Y-91680952D01*
X142320317Y-91686851D01*
X142280806Y-91722057D01*
X142277135Y-91726036D01*
X142272818Y-91729297D01*
X142266290Y-91735399D01*
X142210187Y-91788579D01*
X142210009Y-91788784D01*
X142209795Y-91788951D01*
X142203358Y-91795150D01*
X142135093Y-91861805D01*
X142134999Y-91861916D01*
X142130749Y-91866088D01*
X142054750Y-91941724D01*
X142054651Y-91941844D01*
X142051366Y-91945117D01*
X141972061Y-92025234D01*
X141971961Y-92025357D01*
X141968907Y-92028443D01*
X141890724Y-92108545D01*
X141890628Y-92108665D01*
X141887237Y-92112145D01*
X141814605Y-92187735D01*
X141814526Y-92187835D01*
X141810002Y-92192577D01*
X141747349Y-92259158D01*
X141746709Y-92259988D01*
X141745917Y-92260684D01*
X141739861Y-92267255D01*
X141691617Y-92320328D01*
X141686632Y-92327023D01*
X141680584Y-92332786D01*
X141674795Y-92339593D01*
X141645388Y-92374662D01*
X141619363Y-92412698D01*
X141591422Y-92449341D01*
X141586776Y-92456974D01*
X141579745Y-92468710D01*
X141576846Y-92474835D01*
X141574854Y-92477747D01*
X141569012Y-92491390D01*
X141554968Y-92521066D01*
X141529437Y-92573092D01*
X141528261Y-92577500D01*
X141526315Y-92581612D01*
X141512192Y-92637732D01*
X141497240Y-92693777D01*
X141496943Y-92698328D01*
X141495832Y-92702741D01*
X141492876Y-92760572D01*
X141489096Y-92818418D01*
X141489688Y-92822935D01*
X141489455Y-92827485D01*
X141497798Y-92884847D01*
X141505319Y-92942266D01*
X141506776Y-92946580D01*
X141507432Y-92951091D01*
X141526744Y-93005704D01*
X141532415Y-93022496D01*
X141533365Y-93026515D01*
X141534941Y-93029973D01*
X141545286Y-93060605D01*
X141549015Y-93068726D01*
X141559133Y-93090363D01*
X141573483Y-93114568D01*
X141585152Y-93140179D01*
X141589687Y-93147879D01*
X141618051Y-93195281D01*
X141620677Y-93198830D01*
X141622620Y-93202800D01*
X141627367Y-93210371D01*
X141670997Y-93278902D01*
X141671155Y-93279103D01*
X141671275Y-93279340D01*
X141676133Y-93286840D01*
X141732044Y-93371862D01*
X141732118Y-93371953D01*
X141735860Y-93377597D01*
X141801072Y-93474475D01*
X141801171Y-93474595D01*
X141803706Y-93478358D01*
X141841178Y-93533153D01*
X141841195Y-93533178D01*
X141889965Y-93604623D01*
X141871074Y-93608184D01*
X141806337Y-93620245D01*
X141806221Y-93620278D01*
X141803856Y-93620712D01*
X141683348Y-93643656D01*
X141683223Y-93643693D01*
X141677183Y-93644861D01*
X141568336Y-93666694D01*
X141568262Y-93666716D01*
X141560878Y-93668236D01*
X141469199Y-93687763D01*
X141467861Y-93688188D01*
X141466460Y-93688352D01*
X141457742Y-93690314D01*
X141388736Y-93706340D01*
X141380046Y-93709277D01*
X141370976Y-93710732D01*
X141362349Y-93713063D01*
X141321526Y-93724394D01*
X141283284Y-93739160D01*
X141244116Y-93751326D01*
X141235906Y-93754855D01*
X141227699Y-93758450D01*
X141215651Y-93765198D01*
X141202714Y-93770041D01*
X141161240Y-93795677D01*
X141118725Y-93819492D01*
X141108219Y-93828451D01*
X141096467Y-93835715D01*
X141060760Y-93868921D01*
X141023682Y-93900538D01*
X141015117Y-93911366D01*
X141004999Y-93920775D01*
X140976429Y-93960275D01*
X140946191Y-93998501D01*
X140939889Y-94010793D01*
X140931796Y-94021982D01*
X140911443Y-94066275D01*
X140889205Y-94109650D01*
X140885412Y-94122926D01*
X140879644Y-94135479D01*
X140876782Y-94143945D01*
X140868745Y-94168277D01*
X140855581Y-94226793D01*
X140841971Y-94285133D01*
X140841364Y-94289985D01*
X140841330Y-94290137D01*
X140841326Y-94290290D01*
X140840862Y-94294000D01*
X140834377Y-94348953D01*
X140834116Y-94362178D01*
X140831827Y-94375201D01*
X140831208Y-94384116D01*
X140826271Y-94463265D01*
X140826423Y-94467546D01*
X140825797Y-94471781D01*
X140825422Y-94480710D01*
X140822028Y-94577627D01*
X140822107Y-94578884D01*
X140821945Y-94580134D01*
X140821730Y-94589067D01*
X140819876Y-94697328D01*
X140819885Y-94697433D01*
X140819872Y-94697542D01*
X140819785Y-94706478D01*
X140819466Y-94819464D01*
X140819465Y-94819469D01*
X139090000Y-94819469D01*
X139090000Y-94010562D01*
X139281426Y-94089853D01*
X139558665Y-94145000D01*
X139841335Y-94145000D01*
X140118574Y-94089853D01*
X140379727Y-93981680D01*
X140614759Y-93824637D01*
X140814637Y-93624759D01*
X140971680Y-93389727D01*
X141079853Y-93128574D01*
X141135000Y-92851335D01*
X141135000Y-92568665D01*
X141079853Y-92291426D01*
X140971680Y-92030273D01*
X140814637Y-91795241D01*
X140614759Y-91595363D01*
X140379727Y-91438320D01*
X140118574Y-91330147D01*
X139841335Y-91275000D01*
X139558665Y-91275000D01*
X139281426Y-91330147D01*
X139090000Y-91409438D01*
X139090000Y-90830000D01*
X140937581Y-90830000D01*
X140970000Y-90833193D01*
X141002419Y-90830000D01*
X141099383Y-90820450D01*
X141223793Y-90782710D01*
X141338450Y-90721425D01*
X141438948Y-90638948D01*
X141521425Y-90538450D01*
X141582710Y-90423793D01*
X141620450Y-90299383D01*
X141630238Y-90200000D01*
X143591928Y-90200000D01*
X143604188Y-90324482D01*
X143640498Y-90444180D01*
X143699463Y-90554494D01*
X143778815Y-90651185D01*
X143875506Y-90730537D01*
X143985820Y-90789502D01*
X144105518Y-90825812D01*
X144230000Y-90838072D01*
X144494250Y-90835000D01*
X144653000Y-90676250D01*
X144653000Y-89427000D01*
X144907000Y-89427000D01*
X144907000Y-90676250D01*
X145065750Y-90835000D01*
X145330000Y-90838072D01*
X145454482Y-90825812D01*
X145574180Y-90789502D01*
X145684494Y-90730537D01*
X145781185Y-90651185D01*
X145860537Y-90554494D01*
X145919502Y-90444180D01*
X145955812Y-90324482D01*
X145968072Y-90200000D01*
X145965000Y-89585750D01*
X145806250Y-89427000D01*
X144907000Y-89427000D01*
X144653000Y-89427000D01*
X143753750Y-89427000D01*
X143595000Y-89585750D01*
X143591928Y-90200000D01*
X141630238Y-90200000D01*
X141633193Y-90170000D01*
X141630000Y-90137581D01*
X141630000Y-88400000D01*
X143591928Y-88400000D01*
X143595000Y-89014250D01*
X143753750Y-89173000D01*
X144653000Y-89173000D01*
X144653000Y-87923750D01*
X144494250Y-87765000D01*
X144230000Y-87761928D01*
X144105518Y-87774188D01*
X143985820Y-87810498D01*
X143875506Y-87869463D01*
X143778815Y-87948815D01*
X143699463Y-88045506D01*
X143640498Y-88155820D01*
X143604188Y-88275518D01*
X143591928Y-88400000D01*
X141630000Y-88400000D01*
X141630000Y-86392418D01*
X141633193Y-86360000D01*
X141620450Y-86230617D01*
X141582710Y-86106207D01*
X141521425Y-85991550D01*
X141438948Y-85891052D01*
X141338450Y-85808575D01*
X141223793Y-85747290D01*
X141099383Y-85709550D01*
X141002419Y-85700000D01*
X140970000Y-85696807D01*
X140937581Y-85700000D01*
X139090000Y-85700000D01*
X139090000Y-80380000D01*
X139431928Y-80380000D01*
X139431928Y-82180000D01*
X139444188Y-82304482D01*
X139480498Y-82424180D01*
X139539463Y-82534494D01*
X139618815Y-82631185D01*
X139715506Y-82710537D01*
X139825820Y-82769502D01*
X139945518Y-82805812D01*
X140070000Y-82818072D01*
X140832640Y-82818072D01*
X143024611Y-85010045D01*
X143050459Y-85041541D01*
X143081955Y-85067389D01*
X143081958Y-85067392D01*
X143176157Y-85144699D01*
X143284188Y-85202443D01*
X143319566Y-85221353D01*
X143475174Y-85268556D01*
X143596447Y-85280500D01*
X143596449Y-85280500D01*
X143619588Y-85282779D01*
X143624188Y-85329482D01*
X143660498Y-85449180D01*
X143719463Y-85559494D01*
X143798815Y-85656185D01*
X143895506Y-85735537D01*
X144005820Y-85794502D01*
X144125518Y-85830812D01*
X144250000Y-85843072D01*
X144311978Y-85843072D01*
X144812444Y-86343539D01*
X144838297Y-86375041D01*
X144883853Y-86412427D01*
X144879472Y-86426868D01*
X144861928Y-86605000D01*
X144861928Y-87855000D01*
X144879472Y-88033132D01*
X144907000Y-88123880D01*
X144907000Y-89173000D01*
X145806250Y-89173000D01*
X145965000Y-89014250D01*
X145966231Y-88768072D01*
X146131928Y-88768072D01*
X146131928Y-89925000D01*
X146149472Y-90103132D01*
X146201431Y-90274418D01*
X146285808Y-90432276D01*
X146399361Y-90570639D01*
X146537724Y-90684192D01*
X146695582Y-90768569D01*
X146866868Y-90820528D01*
X147045000Y-90838072D01*
X147595000Y-90838072D01*
X147773132Y-90820528D01*
X147944418Y-90768569D01*
X148102276Y-90684192D01*
X148240639Y-90570639D01*
X148354192Y-90432276D01*
X148438569Y-90274418D01*
X148490528Y-90103132D01*
X148508072Y-89925000D01*
X148508072Y-89725500D01*
X149264068Y-89725500D01*
X151574500Y-92035934D01*
X151574501Y-95209440D01*
X151570506Y-95250000D01*
X151586445Y-95411826D01*
X151633647Y-95567433D01*
X151701566Y-95694500D01*
X151034278Y-95694500D01*
X150974637Y-95605241D01*
X150774759Y-95405363D01*
X150539727Y-95248320D01*
X150278574Y-95140147D01*
X150001335Y-95085000D01*
X149718665Y-95085000D01*
X149441426Y-95140147D01*
X149180273Y-95248320D01*
X148945241Y-95405363D01*
X148745363Y-95605241D01*
X148588320Y-95840273D01*
X148480147Y-96101426D01*
X148425000Y-96378665D01*
X148425000Y-96661335D01*
X148480147Y-96938574D01*
X148588320Y-97199727D01*
X148745363Y-97434759D01*
X148945241Y-97634637D01*
X149180273Y-97791680D01*
X149441426Y-97899853D01*
X149718665Y-97955000D01*
X150001335Y-97955000D01*
X150278574Y-97899853D01*
X150539727Y-97791680D01*
X150774759Y-97634637D01*
X150974637Y-97434759D01*
X151034278Y-97345500D01*
X153629449Y-97345500D01*
X153669999Y-97349494D01*
X153710550Y-97345500D01*
X158749450Y-97345500D01*
X158790000Y-97349494D01*
X158830550Y-97345500D01*
X158830553Y-97345500D01*
X158951826Y-97333556D01*
X159107434Y-97286353D01*
X159250842Y-97209699D01*
X159376541Y-97106541D01*
X159402398Y-97075034D01*
X161125182Y-95352250D01*
X161180147Y-95628574D01*
X161288320Y-95889727D01*
X161445363Y-96124759D01*
X161645241Y-96324637D01*
X161880273Y-96481680D01*
X162141426Y-96589853D01*
X162418665Y-96645000D01*
X162701335Y-96645000D01*
X162978574Y-96589853D01*
X163239727Y-96481680D01*
X163474759Y-96324637D01*
X163674637Y-96124759D01*
X163831680Y-95889727D01*
X163939853Y-95628574D01*
X163995000Y-95351335D01*
X163995000Y-95068665D01*
X163939853Y-94791426D01*
X163831680Y-94530273D01*
X163674637Y-94295241D01*
X163508057Y-94128661D01*
X163604180Y-94099502D01*
X163714494Y-94040537D01*
X163811185Y-93961185D01*
X163890537Y-93864494D01*
X163949502Y-93754180D01*
X163985812Y-93634482D01*
X163998072Y-93510000D01*
X163998072Y-92479360D01*
X166277432Y-90200000D01*
X168991928Y-90200000D01*
X169004188Y-90324482D01*
X169040498Y-90444180D01*
X169099463Y-90554494D01*
X169178815Y-90651185D01*
X169275506Y-90730537D01*
X169385820Y-90789502D01*
X169505518Y-90825812D01*
X169630000Y-90838072D01*
X169894250Y-90835000D01*
X170053000Y-90676250D01*
X170053000Y-89427000D01*
X169153750Y-89427000D01*
X168995000Y-89585750D01*
X168991928Y-90200000D01*
X166277432Y-90200000D01*
X168077432Y-88400000D01*
X168991928Y-88400000D01*
X168995000Y-89014250D01*
X169153750Y-89173000D01*
X170053000Y-89173000D01*
X170053000Y-87923750D01*
X169894250Y-87765000D01*
X169630000Y-87761928D01*
X169505518Y-87774188D01*
X169385820Y-87810498D01*
X169275506Y-87869463D01*
X169178815Y-87948815D01*
X169099463Y-88045506D01*
X169040498Y-88155820D01*
X169004188Y-88275518D01*
X168991928Y-88400000D01*
X168077432Y-88400000D01*
X170634361Y-85843072D01*
X170672843Y-85843072D01*
X170667724Y-85845808D01*
X170529361Y-85959361D01*
X170415808Y-86097724D01*
X170331431Y-86255582D01*
X170279472Y-86426868D01*
X170261928Y-86605000D01*
X170261928Y-87855000D01*
X170279472Y-88033132D01*
X170307000Y-88123880D01*
X170307000Y-89173000D01*
X170327000Y-89173000D01*
X170327000Y-89427000D01*
X170307000Y-89427000D01*
X170307000Y-90676250D01*
X170422658Y-90791908D01*
X169330068Y-91884500D01*
X168814278Y-91884500D01*
X168754637Y-91795241D01*
X168554759Y-91595363D01*
X168319727Y-91438320D01*
X168058574Y-91330147D01*
X167781335Y-91275000D01*
X167498665Y-91275000D01*
X167221426Y-91330147D01*
X166960273Y-91438320D01*
X166725241Y-91595363D01*
X166525363Y-91795241D01*
X166368320Y-92030273D01*
X166260147Y-92291426D01*
X166205000Y-92568665D01*
X166205000Y-92851335D01*
X166260147Y-93128574D01*
X166368320Y-93389727D01*
X166525363Y-93624759D01*
X166725241Y-93824637D01*
X166960273Y-93981680D01*
X167221426Y-94089853D01*
X167498665Y-94145000D01*
X167781335Y-94145000D01*
X168058574Y-94089853D01*
X168319727Y-93981680D01*
X168554759Y-93824637D01*
X168754637Y-93624759D01*
X168814278Y-93535500D01*
X169457067Y-93535500D01*
X167886624Y-95105944D01*
X167781335Y-95085000D01*
X167498665Y-95085000D01*
X167221426Y-95140147D01*
X166960273Y-95248320D01*
X166725241Y-95405363D01*
X166525363Y-95605241D01*
X166368320Y-95840273D01*
X166260147Y-96101426D01*
X166205000Y-96378665D01*
X166205000Y-96661335D01*
X166260147Y-96938574D01*
X166368320Y-97199727D01*
X166525363Y-97434759D01*
X166725241Y-97634637D01*
X166960273Y-97791680D01*
X167221426Y-97899853D01*
X167498665Y-97955000D01*
X167781335Y-97955000D01*
X168058574Y-97899853D01*
X168319727Y-97791680D01*
X168554759Y-97634637D01*
X168754637Y-97434759D01*
X168911680Y-97199727D01*
X169019853Y-96938574D01*
X169075000Y-96661335D01*
X169075000Y-96378665D01*
X169054056Y-96273376D01*
X173275045Y-92052389D01*
X173306541Y-92026541D01*
X173332389Y-91995045D01*
X173332392Y-91995042D01*
X173409699Y-91900843D01*
X173486353Y-91757434D01*
X173489136Y-91748260D01*
X173533556Y-91601826D01*
X173545500Y-91480553D01*
X173545500Y-91480551D01*
X173549494Y-91440000D01*
X173545500Y-91399450D01*
X173545500Y-90648719D01*
X173640639Y-90570639D01*
X173754192Y-90432276D01*
X173838569Y-90274418D01*
X173890528Y-90103132D01*
X173908072Y-89925000D01*
X173908072Y-88675000D01*
X173890528Y-88496868D01*
X173838569Y-88325582D01*
X173754192Y-88167724D01*
X173640639Y-88029361D01*
X173545500Y-87951281D01*
X173545500Y-85783106D01*
X173634494Y-85735537D01*
X173731185Y-85656185D01*
X173810537Y-85559494D01*
X173869502Y-85449180D01*
X173905812Y-85329482D01*
X173918072Y-85205000D01*
X173918072Y-84765860D01*
X174545040Y-84138893D01*
X174576541Y-84113041D01*
X174643328Y-84031661D01*
X174679699Y-83987343D01*
X174711173Y-83928459D01*
X174756353Y-83843934D01*
X174803556Y-83688326D01*
X174815500Y-83567053D01*
X174815500Y-83567051D01*
X174819494Y-83526501D01*
X174815500Y-83485950D01*
X174815500Y-82818072D01*
X174890000Y-82818072D01*
X175014482Y-82805812D01*
X175134180Y-82769502D01*
X175244494Y-82710537D01*
X175341185Y-82631185D01*
X175420537Y-82534494D01*
X175479502Y-82424180D01*
X175485056Y-82405873D01*
X175551495Y-82472312D01*
X175802905Y-82640299D01*
X176082257Y-82756011D01*
X176378816Y-82815000D01*
X176681184Y-82815000D01*
X176977743Y-82756011D01*
X177257095Y-82640299D01*
X177508505Y-82472312D01*
X177722312Y-82258505D01*
X177890299Y-82007095D01*
X178006011Y-81727743D01*
X178065000Y-81431184D01*
X178065000Y-81128816D01*
X178006011Y-80832257D01*
X177890299Y-80552905D01*
X177722312Y-80301495D01*
X177508505Y-80087688D01*
X177257095Y-79919701D01*
X176977743Y-79803989D01*
X176681184Y-79745000D01*
X176378816Y-79745000D01*
X176082257Y-79803989D01*
X175802905Y-79919701D01*
X175551495Y-80087688D01*
X175485056Y-80154127D01*
X175479502Y-80135820D01*
X175420537Y-80025506D01*
X175341185Y-79928815D01*
X175244494Y-79849463D01*
X175134180Y-79790498D01*
X175014482Y-79754188D01*
X174890000Y-79741928D01*
X173090000Y-79741928D01*
X172965518Y-79754188D01*
X172845820Y-79790498D01*
X172735506Y-79849463D01*
X172638815Y-79928815D01*
X172559463Y-80025506D01*
X172500498Y-80135820D01*
X172464188Y-80255518D01*
X172451928Y-80380000D01*
X172451928Y-82180000D01*
X172464188Y-82304482D01*
X172500498Y-82424180D01*
X172559463Y-82534494D01*
X172638815Y-82631185D01*
X172735506Y-82710537D01*
X172845820Y-82769502D01*
X172965518Y-82805812D01*
X173090000Y-82818072D01*
X173164501Y-82818072D01*
X173164500Y-83066928D01*
X172280000Y-83066928D01*
X172155518Y-83079188D01*
X172130000Y-83086929D01*
X172104482Y-83079188D01*
X171980000Y-83066928D01*
X171864361Y-83066928D01*
X171046398Y-82248966D01*
X171020541Y-82217459D01*
X170894842Y-82114301D01*
X170751434Y-82037647D01*
X170595826Y-81990444D01*
X170474553Y-81978500D01*
X170474550Y-81978500D01*
X170434000Y-81974506D01*
X170393450Y-81978500D01*
X170282143Y-81978500D01*
X170386011Y-81727743D01*
X170445000Y-81431184D01*
X170445000Y-81128816D01*
X170386011Y-80832257D01*
X170270299Y-80552905D01*
X170102312Y-80301495D01*
X169888505Y-80087688D01*
X169637095Y-79919701D01*
X169357743Y-79803989D01*
X169061184Y-79745000D01*
X168758816Y-79745000D01*
X168462257Y-79803989D01*
X168182905Y-79919701D01*
X167931495Y-80087688D01*
X167865056Y-80154127D01*
X167859502Y-80135820D01*
X167800537Y-80025506D01*
X167721185Y-79928815D01*
X167624494Y-79849463D01*
X167514180Y-79790498D01*
X167394482Y-79754188D01*
X167270000Y-79741928D01*
X165470000Y-79741928D01*
X165345518Y-79754188D01*
X165225820Y-79790498D01*
X165115506Y-79849463D01*
X165018815Y-79928815D01*
X164939463Y-80025506D01*
X164880498Y-80135820D01*
X164844188Y-80255518D01*
X164831928Y-80380000D01*
X164831928Y-82180000D01*
X164844188Y-82304482D01*
X164880498Y-82424180D01*
X164939463Y-82534494D01*
X165018815Y-82631185D01*
X165115506Y-82710537D01*
X165225820Y-82769502D01*
X165345518Y-82805812D01*
X165470000Y-82818072D01*
X166740639Y-82818072D01*
X167281606Y-83359039D01*
X167307459Y-83390541D01*
X167377033Y-83447639D01*
X167433156Y-83493698D01*
X167433158Y-83493699D01*
X167576566Y-83570353D01*
X167732174Y-83617556D01*
X167853447Y-83629500D01*
X167853456Y-83629500D01*
X167893999Y-83633493D01*
X167934542Y-83629500D01*
X169049364Y-83629500D01*
X169041928Y-83705000D01*
X169041928Y-85100639D01*
X162870640Y-91271928D01*
X161760000Y-91271928D01*
X161635518Y-91284188D01*
X161515820Y-91320498D01*
X161405506Y-91379463D01*
X161308815Y-91458815D01*
X161229463Y-91555506D01*
X161170498Y-91665820D01*
X161134188Y-91785518D01*
X161121928Y-91910000D01*
X161121928Y-93020639D01*
X158448068Y-95694500D01*
X156292546Y-95694500D01*
X156319853Y-95628574D01*
X156375000Y-95351335D01*
X156375000Y-95068665D01*
X156319853Y-94791426D01*
X156211680Y-94530273D01*
X156054637Y-94295241D01*
X155888057Y-94128661D01*
X155984180Y-94099502D01*
X156094494Y-94040537D01*
X156191185Y-93961185D01*
X156270537Y-93864494D01*
X156329502Y-93754180D01*
X156365812Y-93634482D01*
X156378072Y-93510000D01*
X156378072Y-91910000D01*
X156365812Y-91785518D01*
X156329502Y-91665820D01*
X156270537Y-91555506D01*
X156191185Y-91458815D01*
X156094494Y-91379463D01*
X155984180Y-91320498D01*
X155864482Y-91284188D01*
X155740000Y-91271928D01*
X155177361Y-91271928D01*
X150632098Y-86726665D01*
X152235000Y-86726665D01*
X152235000Y-87009335D01*
X152290147Y-87286574D01*
X152398320Y-87547727D01*
X152555363Y-87782759D01*
X152755241Y-87982637D01*
X152990273Y-88139680D01*
X153251426Y-88247853D01*
X153528665Y-88303000D01*
X153811335Y-88303000D01*
X154088574Y-88247853D01*
X154349727Y-88139680D01*
X154584759Y-87982637D01*
X154784637Y-87782759D01*
X154941680Y-87547727D01*
X155049853Y-87286574D01*
X155105000Y-87009335D01*
X155105000Y-86726665D01*
X162395000Y-86726665D01*
X162395000Y-87009335D01*
X162450147Y-87286574D01*
X162558320Y-87547727D01*
X162715363Y-87782759D01*
X162915241Y-87982637D01*
X163150273Y-88139680D01*
X163411426Y-88247853D01*
X163688665Y-88303000D01*
X163971335Y-88303000D01*
X164248574Y-88247853D01*
X164509727Y-88139680D01*
X164744759Y-87982637D01*
X164944637Y-87782759D01*
X165101680Y-87547727D01*
X165209853Y-87286574D01*
X165265000Y-87009335D01*
X165265000Y-86726665D01*
X165209853Y-86449426D01*
X165101680Y-86188273D01*
X164944637Y-85953241D01*
X164744759Y-85753363D01*
X164509727Y-85596320D01*
X164248574Y-85488147D01*
X163971335Y-85433000D01*
X163688665Y-85433000D01*
X163411426Y-85488147D01*
X163150273Y-85596320D01*
X162915241Y-85753363D01*
X162715363Y-85953241D01*
X162558320Y-86188273D01*
X162450147Y-86449426D01*
X162395000Y-86726665D01*
X155105000Y-86726665D01*
X155049853Y-86449426D01*
X155035839Y-86415593D01*
X158035039Y-83416393D01*
X158066541Y-83390541D01*
X158144984Y-83294958D01*
X158169698Y-83264844D01*
X158181077Y-83243556D01*
X158246353Y-83121434D01*
X158293556Y-82965826D01*
X158305500Y-82844553D01*
X158305500Y-82844544D01*
X158309493Y-82804001D01*
X158305954Y-82768072D01*
X158330000Y-82768072D01*
X158454482Y-82755812D01*
X158574180Y-82719502D01*
X158684494Y-82660537D01*
X158781185Y-82581185D01*
X158860537Y-82484494D01*
X158919502Y-82374180D01*
X158943966Y-82293534D01*
X159019731Y-82377588D01*
X159253080Y-82551641D01*
X159515901Y-82676825D01*
X159663110Y-82721476D01*
X159893000Y-82600155D01*
X159893000Y-81407000D01*
X160147000Y-81407000D01*
X160147000Y-82600155D01*
X160376890Y-82721476D01*
X160524099Y-82676825D01*
X160786920Y-82551641D01*
X161020269Y-82377588D01*
X161215178Y-82161355D01*
X161364157Y-81911252D01*
X161461481Y-81636891D01*
X161340814Y-81407000D01*
X160147000Y-81407000D01*
X159893000Y-81407000D01*
X159873000Y-81407000D01*
X159873000Y-81153000D01*
X159893000Y-81153000D01*
X159893000Y-79959845D01*
X160147000Y-79959845D01*
X160147000Y-81153000D01*
X161340814Y-81153000D01*
X161461481Y-80923109D01*
X161364157Y-80648748D01*
X161215178Y-80398645D01*
X161020269Y-80182412D01*
X160786920Y-80008359D01*
X160524099Y-79883175D01*
X160376890Y-79838524D01*
X160147000Y-79959845D01*
X159893000Y-79959845D01*
X159663110Y-79838524D01*
X159515901Y-79883175D01*
X159253080Y-80008359D01*
X159019731Y-80182412D01*
X158943966Y-80266466D01*
X158919502Y-80185820D01*
X158860537Y-80075506D01*
X158781185Y-79978815D01*
X158684494Y-79899463D01*
X158574180Y-79840498D01*
X158454482Y-79804188D01*
X158330000Y-79791928D01*
X156630000Y-79791928D01*
X156505518Y-79804188D01*
X156385820Y-79840498D01*
X156275506Y-79899463D01*
X156178815Y-79978815D01*
X156099463Y-80075506D01*
X156040498Y-80185820D01*
X156004188Y-80305518D01*
X155991928Y-80430000D01*
X155991928Y-82130000D01*
X156004188Y-82254482D01*
X156040498Y-82374180D01*
X156099463Y-82484494D01*
X156178815Y-82581185D01*
X156275506Y-82660537D01*
X156385820Y-82719502D01*
X156394448Y-82722119D01*
X153683568Y-85433000D01*
X153528665Y-85433000D01*
X153251426Y-85488147D01*
X152990273Y-85596320D01*
X152755241Y-85753363D01*
X152555363Y-85953241D01*
X152398320Y-86188273D01*
X152290147Y-86449426D01*
X152235000Y-86726665D01*
X150632098Y-86726665D01*
X148488072Y-84582640D01*
X148488072Y-83705000D01*
X148475812Y-83580518D01*
X148439502Y-83460820D01*
X148380537Y-83350506D01*
X148301185Y-83253815D01*
X148204494Y-83174463D01*
X148094180Y-83115498D01*
X147974482Y-83079188D01*
X147850000Y-83066928D01*
X147716504Y-83066928D01*
X147965361Y-82818072D01*
X149490000Y-82818072D01*
X149614482Y-82805812D01*
X149734180Y-82769502D01*
X149844494Y-82710537D01*
X149941185Y-82631185D01*
X150020537Y-82534494D01*
X150079502Y-82424180D01*
X150085056Y-82405873D01*
X150151495Y-82472312D01*
X150402905Y-82640299D01*
X150682257Y-82756011D01*
X150978816Y-82815000D01*
X151281184Y-82815000D01*
X151577743Y-82756011D01*
X151857095Y-82640299D01*
X152108505Y-82472312D01*
X152322312Y-82258505D01*
X152490299Y-82007095D01*
X152606011Y-81727743D01*
X152665000Y-81431184D01*
X152665000Y-81128816D01*
X152606011Y-80832257D01*
X152490299Y-80552905D01*
X152322312Y-80301495D01*
X152108505Y-80087688D01*
X151857095Y-79919701D01*
X151577743Y-79803989D01*
X151281184Y-79745000D01*
X150978816Y-79745000D01*
X150682257Y-79803989D01*
X150402905Y-79919701D01*
X150151495Y-80087688D01*
X150085056Y-80154127D01*
X150079502Y-80135820D01*
X150020537Y-80025506D01*
X149941185Y-79928815D01*
X149844494Y-79849463D01*
X149734180Y-79790498D01*
X149614482Y-79754188D01*
X149490000Y-79741928D01*
X147690000Y-79741928D01*
X147565518Y-79754188D01*
X147445820Y-79790498D01*
X147335506Y-79849463D01*
X147238815Y-79928815D01*
X147159463Y-80025506D01*
X147100498Y-80135820D01*
X147064188Y-80255518D01*
X147051928Y-80380000D01*
X147051928Y-81396639D01*
X145494961Y-82953607D01*
X145463460Y-82979459D01*
X145437609Y-83010959D01*
X145380193Y-83080920D01*
X145374482Y-83079188D01*
X145250000Y-83066928D01*
X144250000Y-83066928D01*
X144125518Y-83079188D01*
X144005820Y-83115498D01*
X143895506Y-83174463D01*
X143798815Y-83253815D01*
X143719463Y-83350506D01*
X143712662Y-83363229D01*
X143116168Y-82766734D01*
X143358816Y-82815000D01*
X143661184Y-82815000D01*
X143957743Y-82756011D01*
X144237095Y-82640299D01*
X144488505Y-82472312D01*
X144702312Y-82258505D01*
X144870299Y-82007095D01*
X144986011Y-81727743D01*
X145045000Y-81431184D01*
X145045000Y-81128816D01*
X144986011Y-80832257D01*
X144870299Y-80552905D01*
X144702312Y-80301495D01*
X144488505Y-80087688D01*
X144237095Y-79919701D01*
X143957743Y-79803989D01*
X143661184Y-79745000D01*
X143358816Y-79745000D01*
X143062257Y-79803989D01*
X142782905Y-79919701D01*
X142531495Y-80087688D01*
X142465056Y-80154127D01*
X142459502Y-80135820D01*
X142400537Y-80025506D01*
X142321185Y-79928815D01*
X142224494Y-79849463D01*
X142114180Y-79790498D01*
X141994482Y-79754188D01*
X141870000Y-79741928D01*
X140070000Y-79741928D01*
X139945518Y-79754188D01*
X139825820Y-79790498D01*
X139715506Y-79849463D01*
X139618815Y-79928815D01*
X139539463Y-80025506D01*
X139480498Y-80135820D01*
X139444188Y-80255518D01*
X139431928Y-80380000D01*
X139090000Y-80380000D01*
X139090000Y-80042279D01*
X139128909Y-79645455D01*
X139234780Y-79294792D01*
X139406744Y-78971375D01*
X139638254Y-78687516D01*
X139920486Y-78454035D01*
X140242695Y-78279817D01*
X140592614Y-78171498D01*
X140987443Y-78130000D01*
X176497721Y-78130000D01*
X176894545Y-78168909D01*
M02*
