G04 #@! TF.GenerationSoftware,KiCad,Pcbnew,(6.0.6)*
G04 #@! TF.CreationDate,2022-07-01T01:06:20-04:00*
G04 #@! TF.ProjectId,C,432e6b69-6361-4645-9f70-636258585858,rev?*
G04 #@! TF.SameCoordinates,Original*
G04 #@! TF.FileFunction,Legend,Top*
G04 #@! TF.FilePolarity,Positive*
%FSLAX46Y46*%
G04 Gerber Fmt 4.6, Leading zero omitted, Abs format (unit mm)*
G04 Created by KiCad (PCBNEW (6.0.6)) date 2022-07-01 01:06:20*
%MOMM*%
%LPD*%
G01*
G04 APERTURE LIST*
%ADD10C,0.150000*%
%ADD11C,0.152400*%
%ADD12C,0.120000*%
G04 APERTURE END LIST*
D10*
X154559047Y-81351428D02*
X155320952Y-81351428D01*
X154940000Y-81732380D02*
X154940000Y-80970476D01*
D11*
X151523095Y-89444285D02*
X151704523Y-89504761D01*
X151765000Y-89565238D01*
X151825476Y-89686190D01*
X151825476Y-89867619D01*
X151765000Y-89988571D01*
X151704523Y-90049047D01*
X151583571Y-90109523D01*
X151099761Y-90109523D01*
X151099761Y-88839523D01*
X151523095Y-88839523D01*
X151644047Y-88900000D01*
X151704523Y-88960476D01*
X151765000Y-89081428D01*
X151765000Y-89202380D01*
X151704523Y-89323333D01*
X151644047Y-89383809D01*
X151523095Y-89444285D01*
X151099761Y-89444285D01*
X152551190Y-90109523D02*
X152430238Y-90049047D01*
X152369761Y-89928095D01*
X152369761Y-88839523D01*
X153035000Y-90109523D02*
X153035000Y-89262857D01*
X153035000Y-88839523D02*
X152974523Y-88900000D01*
X153035000Y-88960476D01*
X153095476Y-88900000D01*
X153035000Y-88839523D01*
X153035000Y-88960476D01*
X153639761Y-89262857D02*
X153639761Y-90109523D01*
X153639761Y-89383809D02*
X153700238Y-89323333D01*
X153821190Y-89262857D01*
X154002619Y-89262857D01*
X154123571Y-89323333D01*
X154184047Y-89444285D01*
X154184047Y-90109523D01*
X154788809Y-90109523D02*
X154788809Y-88839523D01*
X154909761Y-89625714D02*
X155272619Y-90109523D01*
X155272619Y-89262857D02*
X154788809Y-89746666D01*
X155695952Y-89262857D02*
X155998333Y-90109523D01*
X156300714Y-89262857D02*
X155998333Y-90109523D01*
X155877380Y-90411904D01*
X155816904Y-90472380D01*
X155695952Y-90532857D01*
X158356904Y-90109523D02*
X157752142Y-90109523D01*
X157752142Y-88839523D01*
X158780238Y-90109523D02*
X158780238Y-89262857D01*
X158780238Y-88839523D02*
X158719761Y-88900000D01*
X158780238Y-88960476D01*
X158840714Y-88900000D01*
X158780238Y-88839523D01*
X158780238Y-88960476D01*
X159929285Y-89262857D02*
X159929285Y-90290952D01*
X159868809Y-90411904D01*
X159808333Y-90472380D01*
X159687380Y-90532857D01*
X159505952Y-90532857D01*
X159385000Y-90472380D01*
X159929285Y-90049047D02*
X159808333Y-90109523D01*
X159566428Y-90109523D01*
X159445476Y-90049047D01*
X159385000Y-89988571D01*
X159324523Y-89867619D01*
X159324523Y-89504761D01*
X159385000Y-89383809D01*
X159445476Y-89323333D01*
X159566428Y-89262857D01*
X159808333Y-89262857D01*
X159929285Y-89323333D01*
X160534047Y-90109523D02*
X160534047Y-88839523D01*
X161078333Y-90109523D02*
X161078333Y-89444285D01*
X161017857Y-89323333D01*
X160896904Y-89262857D01*
X160715476Y-89262857D01*
X160594523Y-89323333D01*
X160534047Y-89383809D01*
X161501666Y-89262857D02*
X161985476Y-89262857D01*
X161683095Y-88839523D02*
X161683095Y-89928095D01*
X161743571Y-90049047D01*
X161864523Y-90109523D01*
X161985476Y-90109523D01*
X162348333Y-90049047D02*
X162469285Y-90109523D01*
X162711190Y-90109523D01*
X162832142Y-90049047D01*
X162892619Y-89928095D01*
X162892619Y-89867619D01*
X162832142Y-89746666D01*
X162711190Y-89686190D01*
X162529761Y-89686190D01*
X162408809Y-89625714D01*
X162348333Y-89504761D01*
X162348333Y-89444285D01*
X162408809Y-89323333D01*
X162529761Y-89262857D01*
X162711190Y-89262857D01*
X162832142Y-89323333D01*
X164404523Y-90109523D02*
X164404523Y-88839523D01*
X165130238Y-90109523D02*
X164585952Y-89383809D01*
X165130238Y-88839523D02*
X164404523Y-89565238D01*
X165674523Y-90109523D02*
X165674523Y-89262857D01*
X165674523Y-88839523D02*
X165614047Y-88900000D01*
X165674523Y-88960476D01*
X165735000Y-88900000D01*
X165674523Y-88839523D01*
X165674523Y-88960476D01*
X166097857Y-89262857D02*
X166581666Y-89262857D01*
X166279285Y-88839523D02*
X166279285Y-89928095D01*
X166339761Y-90049047D01*
X166460714Y-90109523D01*
X166581666Y-90109523D01*
D10*
X162179047Y-81351428D02*
X162940952Y-81351428D01*
X157837285Y-78795571D02*
X157980142Y-78843190D01*
X158027761Y-78890809D01*
X158075380Y-78986047D01*
X158075380Y-79128904D01*
X158027761Y-79224142D01*
X157980142Y-79271761D01*
X157884904Y-79319380D01*
X157503952Y-79319380D01*
X157503952Y-78319380D01*
X157837285Y-78319380D01*
X157932523Y-78367000D01*
X157980142Y-78414619D01*
X158027761Y-78509857D01*
X158027761Y-78605095D01*
X157980142Y-78700333D01*
X157932523Y-78747952D01*
X157837285Y-78795571D01*
X157503952Y-78795571D01*
X158361095Y-78319380D02*
X158932523Y-78319380D01*
X158646809Y-79319380D02*
X158646809Y-78319380D01*
X159789666Y-79319380D02*
X159218238Y-79319380D01*
X159503952Y-79319380D02*
X159503952Y-78319380D01*
X159408714Y-78462238D01*
X159313476Y-78557476D01*
X159218238Y-78605095D01*
X144676904Y-79192380D02*
X144676904Y-78192380D01*
X144915000Y-78192380D01*
X145057857Y-78240000D01*
X145153095Y-78335238D01*
X145200714Y-78430476D01*
X145248333Y-78620952D01*
X145248333Y-78763809D01*
X145200714Y-78954285D01*
X145153095Y-79049523D01*
X145057857Y-79144761D01*
X144915000Y-79192380D01*
X144676904Y-79192380D01*
X146200714Y-79192380D02*
X145629285Y-79192380D01*
X145915000Y-79192380D02*
X145915000Y-78192380D01*
X145819761Y-78335238D01*
X145724523Y-78430476D01*
X145629285Y-78478095D01*
X152296904Y-79192380D02*
X152296904Y-78192380D01*
X152535000Y-78192380D01*
X152677857Y-78240000D01*
X152773095Y-78335238D01*
X152820714Y-78430476D01*
X152868333Y-78620952D01*
X152868333Y-78763809D01*
X152820714Y-78954285D01*
X152773095Y-79049523D01*
X152677857Y-79144761D01*
X152535000Y-79192380D01*
X152296904Y-79192380D01*
X153249285Y-78287619D02*
X153296904Y-78240000D01*
X153392142Y-78192380D01*
X153630238Y-78192380D01*
X153725476Y-78240000D01*
X153773095Y-78287619D01*
X153820714Y-78382857D01*
X153820714Y-78478095D01*
X153773095Y-78620952D01*
X153201666Y-79192380D01*
X153820714Y-79192380D01*
X163726904Y-79192380D02*
X163726904Y-78192380D01*
X163965000Y-78192380D01*
X164107857Y-78240000D01*
X164203095Y-78335238D01*
X164250714Y-78430476D01*
X164298333Y-78620952D01*
X164298333Y-78763809D01*
X164250714Y-78954285D01*
X164203095Y-79049523D01*
X164107857Y-79144761D01*
X163965000Y-79192380D01*
X163726904Y-79192380D01*
X164631666Y-78192380D02*
X165250714Y-78192380D01*
X164917380Y-78573333D01*
X165060238Y-78573333D01*
X165155476Y-78620952D01*
X165203095Y-78668571D01*
X165250714Y-78763809D01*
X165250714Y-79001904D01*
X165203095Y-79097142D01*
X165155476Y-79144761D01*
X165060238Y-79192380D01*
X164774523Y-79192380D01*
X164679285Y-79144761D01*
X164631666Y-79097142D01*
X144613333Y-96972380D02*
X144280000Y-96496190D01*
X144041904Y-96972380D02*
X144041904Y-95972380D01*
X144422857Y-95972380D01*
X144518095Y-96020000D01*
X144565714Y-96067619D01*
X144613333Y-96162857D01*
X144613333Y-96305714D01*
X144565714Y-96400952D01*
X144518095Y-96448571D01*
X144422857Y-96496190D01*
X144041904Y-96496190D01*
X145565714Y-96972380D02*
X144994285Y-96972380D01*
X145280000Y-96972380D02*
X145280000Y-95972380D01*
X145184761Y-96115238D01*
X145089523Y-96210476D01*
X144994285Y-96258095D01*
X144613333Y-93162380D02*
X144280000Y-92686190D01*
X144041904Y-93162380D02*
X144041904Y-92162380D01*
X144422857Y-92162380D01*
X144518095Y-92210000D01*
X144565714Y-92257619D01*
X144613333Y-92352857D01*
X144613333Y-92495714D01*
X144565714Y-92590952D01*
X144518095Y-92638571D01*
X144422857Y-92686190D01*
X144041904Y-92686190D01*
X144994285Y-92257619D02*
X145041904Y-92210000D01*
X145137142Y-92162380D01*
X145375238Y-92162380D01*
X145470476Y-92210000D01*
X145518095Y-92257619D01*
X145565714Y-92352857D01*
X145565714Y-92448095D01*
X145518095Y-92590952D01*
X144946666Y-93162380D01*
X145565714Y-93162380D01*
X172553333Y-93162380D02*
X172220000Y-92686190D01*
X171981904Y-93162380D02*
X171981904Y-92162380D01*
X172362857Y-92162380D01*
X172458095Y-92210000D01*
X172505714Y-92257619D01*
X172553333Y-92352857D01*
X172553333Y-92495714D01*
X172505714Y-92590952D01*
X172458095Y-92638571D01*
X172362857Y-92686190D01*
X171981904Y-92686190D01*
X172886666Y-92162380D02*
X173505714Y-92162380D01*
X173172380Y-92543333D01*
X173315238Y-92543333D01*
X173410476Y-92590952D01*
X173458095Y-92638571D01*
X173505714Y-92733809D01*
X173505714Y-92971904D01*
X173458095Y-93067142D01*
X173410476Y-93114761D01*
X173315238Y-93162380D01*
X173029523Y-93162380D01*
X172934285Y-93114761D01*
X172886666Y-93067142D01*
X172553333Y-96972380D02*
X172220000Y-96496190D01*
X171981904Y-96972380D02*
X171981904Y-95972380D01*
X172362857Y-95972380D01*
X172458095Y-96020000D01*
X172505714Y-96067619D01*
X172553333Y-96162857D01*
X172553333Y-96305714D01*
X172505714Y-96400952D01*
X172458095Y-96448571D01*
X172362857Y-96496190D01*
X171981904Y-96496190D01*
X173410476Y-96305714D02*
X173410476Y-96972380D01*
X173172380Y-95924761D02*
X172934285Y-96639047D01*
X173553333Y-96639047D01*
X158583333Y-87447380D02*
X158250000Y-86971190D01*
X158011904Y-87447380D02*
X158011904Y-86447380D01*
X158392857Y-86447380D01*
X158488095Y-86495000D01*
X158535714Y-86542619D01*
X158583333Y-86637857D01*
X158583333Y-86780714D01*
X158535714Y-86875952D01*
X158488095Y-86923571D01*
X158392857Y-86971190D01*
X158011904Y-86971190D01*
X159488095Y-86447380D02*
X159011904Y-86447380D01*
X158964285Y-86923571D01*
X159011904Y-86875952D01*
X159107142Y-86828333D01*
X159345238Y-86828333D01*
X159440476Y-86875952D01*
X159488095Y-86923571D01*
X159535714Y-87018809D01*
X159535714Y-87256904D01*
X159488095Y-87352142D01*
X159440476Y-87399761D01*
X159345238Y-87447380D01*
X159107142Y-87447380D01*
X159011904Y-87399761D01*
X158964285Y-87352142D01*
X171346904Y-79192380D02*
X171346904Y-78192380D01*
X171585000Y-78192380D01*
X171727857Y-78240000D01*
X171823095Y-78335238D01*
X171870714Y-78430476D01*
X171918333Y-78620952D01*
X171918333Y-78763809D01*
X171870714Y-78954285D01*
X171823095Y-79049523D01*
X171727857Y-79144761D01*
X171585000Y-79192380D01*
X171346904Y-79192380D01*
X172775476Y-78525714D02*
X172775476Y-79192380D01*
X172537380Y-78144761D02*
X172299285Y-78859047D01*
X172918333Y-78859047D01*
X152233333Y-97893142D02*
X152185714Y-97940761D01*
X152042857Y-97988380D01*
X151947619Y-97988380D01*
X151804761Y-97940761D01*
X151709523Y-97845523D01*
X151661904Y-97750285D01*
X151614285Y-97559809D01*
X151614285Y-97416952D01*
X151661904Y-97226476D01*
X151709523Y-97131238D01*
X151804761Y-97036000D01*
X151947619Y-96988380D01*
X152042857Y-96988380D01*
X152185714Y-97036000D01*
X152233333Y-97083619D01*
X152614285Y-97083619D02*
X152661904Y-97036000D01*
X152757142Y-96988380D01*
X152995238Y-96988380D01*
X153090476Y-97036000D01*
X153138095Y-97083619D01*
X153185714Y-97178857D01*
X153185714Y-97274095D01*
X153138095Y-97416952D01*
X152566666Y-97988380D01*
X153185714Y-97988380D01*
X165441333Y-97893142D02*
X165393714Y-97940761D01*
X165250857Y-97988380D01*
X165155619Y-97988380D01*
X165012761Y-97940761D01*
X164917523Y-97845523D01*
X164869904Y-97750285D01*
X164822285Y-97559809D01*
X164822285Y-97416952D01*
X164869904Y-97226476D01*
X164917523Y-97131238D01*
X165012761Y-97036000D01*
X165155619Y-96988380D01*
X165250857Y-96988380D01*
X165393714Y-97036000D01*
X165441333Y-97083619D01*
X166393714Y-97988380D02*
X165822285Y-97988380D01*
X166108000Y-97988380D02*
X166108000Y-96988380D01*
X166012761Y-97131238D01*
X165917523Y-97226476D01*
X165822285Y-97274095D01*
X145964761Y-85392619D02*
X145869523Y-85345000D01*
X145774285Y-85249761D01*
X145631428Y-85106904D01*
X145536190Y-85059285D01*
X145440952Y-85059285D01*
X145488571Y-85297380D02*
X145393333Y-85249761D01*
X145298095Y-85154523D01*
X145250476Y-84964047D01*
X145250476Y-84630714D01*
X145298095Y-84440238D01*
X145393333Y-84345000D01*
X145488571Y-84297380D01*
X145679047Y-84297380D01*
X145774285Y-84345000D01*
X145869523Y-84440238D01*
X145917142Y-84630714D01*
X145917142Y-84964047D01*
X145869523Y-85154523D01*
X145774285Y-85249761D01*
X145679047Y-85297380D01*
X145488571Y-85297380D01*
X146869523Y-85297380D02*
X146298095Y-85297380D01*
X146583809Y-85297380D02*
X146583809Y-84297380D01*
X146488571Y-84440238D01*
X146393333Y-84535476D01*
X146298095Y-84583095D01*
X171364761Y-85392619D02*
X171269523Y-85345000D01*
X171174285Y-85249761D01*
X171031428Y-85106904D01*
X170936190Y-85059285D01*
X170840952Y-85059285D01*
X170888571Y-85297380D02*
X170793333Y-85249761D01*
X170698095Y-85154523D01*
X170650476Y-84964047D01*
X170650476Y-84630714D01*
X170698095Y-84440238D01*
X170793333Y-84345000D01*
X170888571Y-84297380D01*
X171079047Y-84297380D01*
X171174285Y-84345000D01*
X171269523Y-84440238D01*
X171317142Y-84630714D01*
X171317142Y-84964047D01*
X171269523Y-85154523D01*
X171174285Y-85249761D01*
X171079047Y-85297380D01*
X170888571Y-85297380D01*
X171698095Y-84392619D02*
X171745714Y-84345000D01*
X171840952Y-84297380D01*
X172079047Y-84297380D01*
X172174285Y-84345000D01*
X172221904Y-84392619D01*
X172269523Y-84487857D01*
X172269523Y-84583095D01*
X172221904Y-84725952D01*
X171650476Y-85297380D01*
X172269523Y-85297380D01*
D12*
X158750000Y-79950000D02*
X161350000Y-79950000D01*
X158750000Y-82610000D02*
X161350000Y-82610000D01*
X157480000Y-82610000D02*
X156150000Y-82610000D01*
X161350000Y-82610000D02*
X161350000Y-79950000D01*
X158750000Y-82610000D02*
X158750000Y-79950000D01*
X156150000Y-82610000D02*
X156150000Y-81280000D01*
X139680000Y-79735000D02*
X139680000Y-82825000D01*
X145230000Y-81280462D02*
G75*
G03*
X139680000Y-79735170I-2990000J462D01*
G01*
X139680000Y-82824830D02*
G75*
G03*
X145230000Y-81279538I2560000J1544830D01*
G01*
X144740000Y-81280000D02*
G75*
G03*
X144740000Y-81280000I-2500000J0D01*
G01*
X147300000Y-79735000D02*
X147300000Y-82825000D01*
X147300000Y-82824830D02*
G75*
G03*
X152850000Y-81279538I2560000J1544830D01*
G01*
X152850000Y-81280462D02*
G75*
G03*
X147300000Y-79735170I-2990000J462D01*
G01*
X152360000Y-81280000D02*
G75*
G03*
X152360000Y-81280000I-2500000J0D01*
G01*
X165080000Y-79735000D02*
X165080000Y-82825000D01*
X170630000Y-81280462D02*
G75*
G03*
X165080000Y-79735170I-2990000J462D01*
G01*
X165080000Y-82824830D02*
G75*
G03*
X170630000Y-81279538I2560000J1544830D01*
G01*
X170140000Y-81280000D02*
G75*
G03*
X170140000Y-81280000I-2500000J0D01*
G01*
X148820000Y-96520000D02*
X148050000Y-96520000D01*
X148050000Y-95150000D02*
X141510000Y-95150000D01*
X148050000Y-97890000D02*
X148050000Y-95150000D01*
X141510000Y-95150000D02*
X141510000Y-97890000D01*
X141510000Y-97890000D02*
X148050000Y-97890000D01*
X140740000Y-96520000D02*
X141510000Y-96520000D01*
X141510000Y-94080000D02*
X148050000Y-94080000D01*
X148050000Y-94080000D02*
X148050000Y-91340000D01*
X140740000Y-92710000D02*
X141510000Y-92710000D01*
X148050000Y-91340000D02*
X141510000Y-91340000D01*
X141510000Y-91340000D02*
X141510000Y-94080000D01*
X148820000Y-92710000D02*
X148050000Y-92710000D01*
X168680000Y-92710000D02*
X169450000Y-92710000D01*
X169450000Y-94080000D02*
X175990000Y-94080000D01*
X176760000Y-92710000D02*
X175990000Y-92710000D01*
X175990000Y-91340000D02*
X169450000Y-91340000D01*
X169450000Y-91340000D02*
X169450000Y-94080000D01*
X175990000Y-94080000D02*
X175990000Y-91340000D01*
X169450000Y-97890000D02*
X175990000Y-97890000D01*
X175990000Y-97890000D02*
X175990000Y-95150000D01*
X176760000Y-96520000D02*
X175990000Y-96520000D01*
X168680000Y-96520000D02*
X169450000Y-96520000D01*
X169450000Y-95150000D02*
X169450000Y-97890000D01*
X175990000Y-95150000D02*
X169450000Y-95150000D01*
X162790000Y-86995000D02*
X162020000Y-86995000D01*
X155480000Y-85625000D02*
X155480000Y-88365000D01*
X154710000Y-86995000D02*
X155480000Y-86995000D01*
X162020000Y-85625000D02*
X155480000Y-85625000D01*
X162020000Y-88365000D02*
X162020000Y-85625000D01*
X155480000Y-88365000D02*
X162020000Y-88365000D01*
X172700000Y-79735000D02*
X172700000Y-82825000D01*
X178250000Y-81280462D02*
G75*
G03*
X172700000Y-79735170I-2990000J462D01*
G01*
X172700000Y-82824830D02*
G75*
G03*
X178250000Y-81279538I2560000J1544830D01*
G01*
X177760000Y-81280000D02*
G75*
G03*
X177760000Y-81280000I-2500000J0D01*
G01*
X153900000Y-96081000D02*
X152490000Y-96081000D01*
X153900000Y-94480000D02*
X151751000Y-94480000D01*
X157656000Y-95721000D02*
X155980000Y-95721000D01*
X157682000Y-95681000D02*
X155980000Y-95681000D01*
X153900000Y-95241000D02*
X151970000Y-95241000D01*
X158146000Y-94360000D02*
X155980000Y-94360000D01*
X158164000Y-94160000D02*
X151716000Y-94160000D01*
X156202000Y-96961000D02*
X153678000Y-96961000D01*
X157987000Y-95041000D02*
X155980000Y-95041000D01*
X153900000Y-94841000D02*
X151830000Y-94841000D01*
X153900000Y-95361000D02*
X152024000Y-95361000D01*
X153900000Y-94761000D02*
X151809000Y-94761000D01*
X157122000Y-96361000D02*
X152758000Y-96361000D01*
X158038000Y-94881000D02*
X155980000Y-94881000D01*
X153900000Y-94360000D02*
X151734000Y-94360000D01*
X157958000Y-95121000D02*
X155980000Y-95121000D01*
X153900000Y-95081000D02*
X151907000Y-95081000D01*
X156105000Y-97001000D02*
X153775000Y-97001000D01*
X157926000Y-95201000D02*
X155980000Y-95201000D01*
X156774000Y-96641000D02*
X153106000Y-96641000D01*
X153900000Y-95801000D02*
X152276000Y-95801000D01*
X157816000Y-95441000D02*
X155980000Y-95441000D01*
X153900000Y-94560000D02*
X151765000Y-94560000D01*
X153900000Y-95601000D02*
X152150000Y-95601000D01*
X153900000Y-95401000D02*
X152044000Y-95401000D01*
X155573000Y-97161000D02*
X154307000Y-97161000D01*
X157518000Y-95921000D02*
X155980000Y-95921000D01*
X153900000Y-95281000D02*
X151988000Y-95281000D01*
X153900000Y-95721000D02*
X152224000Y-95721000D01*
X153900000Y-95561000D02*
X152128000Y-95561000D01*
X155999000Y-97041000D02*
X153881000Y-97041000D01*
X158155000Y-94280000D02*
X155980000Y-94280000D01*
X153900000Y-94640000D02*
X151781000Y-94640000D01*
X157730000Y-95601000D02*
X155980000Y-95601000D01*
X158071000Y-94761000D02*
X155980000Y-94761000D01*
X158141000Y-94400000D02*
X155980000Y-94400000D01*
X153900000Y-95921000D02*
X152362000Y-95921000D01*
X153900000Y-94240000D02*
X151722000Y-94240000D01*
X157205000Y-96281000D02*
X152675000Y-96281000D01*
X153900000Y-96001000D02*
X152424000Y-96001000D01*
X156290000Y-96921000D02*
X153590000Y-96921000D01*
X153900000Y-95161000D02*
X151938000Y-95161000D01*
X157245000Y-96241000D02*
X155980000Y-96241000D01*
X153900000Y-94600000D02*
X151773000Y-94600000D01*
X158167000Y-94120000D02*
X151713000Y-94120000D01*
X157856000Y-95361000D02*
X155980000Y-95361000D01*
X153900000Y-96241000D02*
X152635000Y-96241000D01*
X157973000Y-95081000D02*
X155980000Y-95081000D01*
X153900000Y-96041000D02*
X152456000Y-96041000D01*
X153900000Y-95521000D02*
X152106000Y-95521000D01*
X155342000Y-97201000D02*
X154538000Y-97201000D01*
X158026000Y-94921000D02*
X155980000Y-94921000D01*
X156884000Y-96561000D02*
X152996000Y-96561000D01*
X158061000Y-94801000D02*
X155980000Y-94801000D01*
X157874000Y-95321000D02*
X155980000Y-95321000D01*
X158170000Y-94040000D02*
X151710000Y-94040000D01*
X153900000Y-95001000D02*
X151879000Y-95001000D01*
X157892000Y-95281000D02*
X155980000Y-95281000D01*
X153900000Y-95641000D02*
X152174000Y-95641000D01*
X157456000Y-96001000D02*
X155980000Y-96001000D01*
X157706000Y-95641000D02*
X155980000Y-95641000D01*
X153900000Y-95761000D02*
X152250000Y-95761000D01*
X158162000Y-94200000D02*
X155980000Y-94200000D01*
X153900000Y-95041000D02*
X151893000Y-95041000D01*
X158090000Y-94681000D02*
X155980000Y-94681000D01*
X157320000Y-96161000D02*
X155980000Y-96161000D01*
X156521000Y-96801000D02*
X153359000Y-96801000D01*
X153900000Y-95321000D02*
X152006000Y-95321000D01*
X156590000Y-96761000D02*
X153290000Y-96761000D01*
X157836000Y-95401000D02*
X155980000Y-95401000D01*
X153900000Y-94280000D02*
X151725000Y-94280000D01*
X153900000Y-95481000D02*
X152084000Y-95481000D01*
X153900000Y-94921000D02*
X151854000Y-94921000D01*
X153900000Y-96121000D02*
X152524000Y-96121000D01*
X157356000Y-96121000D02*
X155980000Y-96121000D01*
X157576000Y-95841000D02*
X155980000Y-95841000D01*
X157390000Y-96081000D02*
X155980000Y-96081000D01*
X157032000Y-96441000D02*
X152848000Y-96441000D01*
X157630000Y-95761000D02*
X155980000Y-95761000D01*
X158170000Y-93960000D02*
X151710000Y-93960000D01*
X153900000Y-94881000D02*
X151842000Y-94881000D01*
X153900000Y-94721000D02*
X151799000Y-94721000D01*
X157774000Y-95521000D02*
X155980000Y-95521000D01*
X156449000Y-96841000D02*
X153431000Y-96841000D01*
X153900000Y-94440000D02*
X151745000Y-94440000D01*
X158014000Y-94961000D02*
X155980000Y-94961000D01*
X153900000Y-96161000D02*
X152560000Y-96161000D01*
X157488000Y-95961000D02*
X155980000Y-95961000D01*
X157752000Y-95561000D02*
X155980000Y-95561000D01*
X153900000Y-94400000D02*
X151739000Y-94400000D01*
X156984000Y-96481000D02*
X152896000Y-96481000D01*
X157547000Y-95881000D02*
X155980000Y-95881000D01*
X158158000Y-94240000D02*
X155980000Y-94240000D01*
X157796000Y-95481000D02*
X155980000Y-95481000D01*
X156372000Y-96881000D02*
X153508000Y-96881000D01*
X156935000Y-96521000D02*
X152945000Y-96521000D01*
X153900000Y-96201000D02*
X152597000Y-96201000D01*
X153900000Y-95121000D02*
X151922000Y-95121000D01*
X156654000Y-96721000D02*
X153226000Y-96721000D01*
X153900000Y-95441000D02*
X152064000Y-95441000D01*
X158151000Y-94320000D02*
X155980000Y-94320000D01*
X157604000Y-95801000D02*
X155980000Y-95801000D01*
X156830000Y-96601000D02*
X153050000Y-96601000D01*
X158168000Y-94080000D02*
X151712000Y-94080000D01*
X157283000Y-96201000D02*
X155980000Y-96201000D01*
X155880000Y-97081000D02*
X154000000Y-97081000D01*
X153900000Y-95201000D02*
X151954000Y-95201000D01*
X157164000Y-96321000D02*
X152716000Y-96321000D01*
X153900000Y-94520000D02*
X151758000Y-94520000D01*
X155742000Y-97121000D02*
X154138000Y-97121000D01*
X153900000Y-94681000D02*
X151790000Y-94681000D01*
X157094000Y-90774759D02*
X156464000Y-90774759D01*
X153900000Y-94320000D02*
X151729000Y-94320000D01*
X158170000Y-94000000D02*
X151710000Y-94000000D01*
X158122000Y-94520000D02*
X155980000Y-94520000D01*
X158081000Y-94721000D02*
X155980000Y-94721000D01*
X153900000Y-95961000D02*
X152392000Y-95961000D01*
X158135000Y-94440000D02*
X155980000Y-94440000D01*
X158115000Y-94560000D02*
X155980000Y-94560000D01*
X153900000Y-94961000D02*
X151866000Y-94961000D01*
X157910000Y-95241000D02*
X155980000Y-95241000D01*
X153900000Y-94200000D02*
X151718000Y-94200000D01*
X153900000Y-95681000D02*
X152198000Y-95681000D01*
X156716000Y-96681000D02*
X153164000Y-96681000D01*
X153900000Y-95881000D02*
X152333000Y-95881000D01*
X153900000Y-94801000D02*
X151819000Y-94801000D01*
X157942000Y-95161000D02*
X155980000Y-95161000D01*
X157077000Y-96401000D02*
X152803000Y-96401000D01*
X153900000Y-95841000D02*
X152304000Y-95841000D01*
X158001000Y-95001000D02*
X155980000Y-95001000D01*
X157424000Y-96041000D02*
X155980000Y-96041000D01*
X158099000Y-94640000D02*
X155980000Y-94640000D01*
X158107000Y-94600000D02*
X155980000Y-94600000D01*
X156779000Y-90459759D02*
X156779000Y-91089759D01*
X158129000Y-94480000D02*
X155980000Y-94480000D01*
X158050000Y-94841000D02*
X155980000Y-94841000D01*
X158210000Y-93960000D02*
G75*
G03*
X158210000Y-93960000I-3270000J0D01*
G01*
X165749000Y-94480000D02*
X163600000Y-94480000D01*
X165710000Y-94681000D02*
X163600000Y-94681000D01*
X161520000Y-96081000D02*
X160110000Y-96081000D01*
X161520000Y-95041000D02*
X159513000Y-95041000D01*
X165658000Y-94881000D02*
X163600000Y-94881000D01*
X164274000Y-96721000D02*
X160846000Y-96721000D01*
X165350000Y-95601000D02*
X163600000Y-95601000D01*
X165788000Y-94080000D02*
X159332000Y-94080000D01*
X165276000Y-95721000D02*
X163600000Y-95721000D01*
X161520000Y-94400000D02*
X159359000Y-94400000D01*
X165546000Y-95201000D02*
X163600000Y-95201000D01*
X161520000Y-95641000D02*
X159794000Y-95641000D01*
X163193000Y-97161000D02*
X161927000Y-97161000D01*
X161520000Y-95401000D02*
X159664000Y-95401000D01*
X165766000Y-94360000D02*
X163600000Y-94360000D01*
X161520000Y-94480000D02*
X159371000Y-94480000D01*
X161520000Y-96041000D02*
X160076000Y-96041000D01*
X161520000Y-96241000D02*
X160255000Y-96241000D01*
X165076000Y-96001000D02*
X163600000Y-96001000D01*
X165593000Y-95081000D02*
X163600000Y-95081000D01*
X161520000Y-95561000D02*
X159748000Y-95561000D01*
X163362000Y-97121000D02*
X161758000Y-97121000D01*
X161520000Y-94721000D02*
X159419000Y-94721000D01*
X163992000Y-96881000D02*
X161128000Y-96881000D01*
X161520000Y-94280000D02*
X159345000Y-94280000D01*
X161520000Y-96201000D02*
X160217000Y-96201000D01*
X161520000Y-95161000D02*
X159558000Y-95161000D01*
X164394000Y-96641000D02*
X160726000Y-96641000D01*
X165778000Y-94240000D02*
X163600000Y-94240000D01*
X165607000Y-95041000D02*
X163600000Y-95041000D01*
X161520000Y-94801000D02*
X159439000Y-94801000D01*
X165562000Y-95161000D02*
X163600000Y-95161000D01*
X161520000Y-95801000D02*
X159896000Y-95801000D01*
X163500000Y-97081000D02*
X161620000Y-97081000D01*
X161520000Y-95841000D02*
X159924000Y-95841000D01*
X161520000Y-95521000D02*
X159726000Y-95521000D01*
X164742000Y-96361000D02*
X160378000Y-96361000D01*
X165761000Y-94400000D02*
X163600000Y-94400000D01*
X164976000Y-96121000D02*
X163600000Y-96121000D01*
X165512000Y-95281000D02*
X163600000Y-95281000D01*
X164825000Y-96281000D02*
X160295000Y-96281000D01*
X161520000Y-94681000D02*
X159410000Y-94681000D01*
X164903000Y-96201000D02*
X163600000Y-96201000D01*
X161520000Y-94881000D02*
X159462000Y-94881000D01*
X165755000Y-94440000D02*
X163600000Y-94440000D01*
X165372000Y-95561000D02*
X163600000Y-95561000D01*
X165646000Y-94921000D02*
X163600000Y-94921000D01*
X161520000Y-95361000D02*
X159644000Y-95361000D01*
X163619000Y-97041000D02*
X161501000Y-97041000D01*
X161520000Y-96121000D02*
X160144000Y-96121000D01*
X163822000Y-96961000D02*
X161298000Y-96961000D01*
X165436000Y-95441000D02*
X163600000Y-95441000D01*
X165790000Y-94040000D02*
X159330000Y-94040000D01*
X161520000Y-95281000D02*
X159608000Y-95281000D01*
X165476000Y-95361000D02*
X163600000Y-95361000D01*
X161520000Y-95761000D02*
X159870000Y-95761000D01*
X165108000Y-95961000D02*
X163600000Y-95961000D01*
X164555000Y-96521000D02*
X160565000Y-96521000D01*
X164210000Y-96761000D02*
X160910000Y-96761000D01*
X165775000Y-94280000D02*
X163600000Y-94280000D01*
X165196000Y-95841000D02*
X163600000Y-95841000D01*
X165302000Y-95681000D02*
X163600000Y-95681000D01*
X161520000Y-95121000D02*
X159542000Y-95121000D01*
X165010000Y-96081000D02*
X163600000Y-96081000D01*
X161520000Y-94600000D02*
X159393000Y-94600000D01*
X164450000Y-96601000D02*
X160670000Y-96601000D01*
X165670000Y-94841000D02*
X163600000Y-94841000D01*
X161520000Y-94921000D02*
X159474000Y-94921000D01*
X161520000Y-94761000D02*
X159429000Y-94761000D01*
X165735000Y-94560000D02*
X163600000Y-94560000D01*
X161520000Y-95961000D02*
X160012000Y-95961000D01*
X161520000Y-94961000D02*
X159486000Y-94961000D01*
X161520000Y-94320000D02*
X159349000Y-94320000D01*
X164714000Y-90774759D02*
X164084000Y-90774759D01*
X165790000Y-94000000D02*
X159330000Y-94000000D01*
X165416000Y-95481000D02*
X163600000Y-95481000D01*
X165727000Y-94600000D02*
X163600000Y-94600000D01*
X164865000Y-96241000D02*
X163600000Y-96241000D01*
X164069000Y-96841000D02*
X161051000Y-96841000D01*
X161520000Y-95241000D02*
X159590000Y-95241000D01*
X163725000Y-97001000D02*
X161395000Y-97001000D01*
X161520000Y-95881000D02*
X159953000Y-95881000D01*
X161520000Y-94440000D02*
X159365000Y-94440000D01*
X165701000Y-94721000D02*
X163600000Y-94721000D01*
X164652000Y-96441000D02*
X160468000Y-96441000D01*
X165790000Y-93960000D02*
X159330000Y-93960000D01*
X165167000Y-95881000D02*
X163600000Y-95881000D01*
X165326000Y-95641000D02*
X163600000Y-95641000D01*
X161520000Y-95681000D02*
X159818000Y-95681000D01*
X161520000Y-94200000D02*
X159338000Y-94200000D01*
X161520000Y-95081000D02*
X159527000Y-95081000D01*
X162962000Y-97201000D02*
X162158000Y-97201000D01*
X165621000Y-95001000D02*
X163600000Y-95001000D01*
X161520000Y-95601000D02*
X159770000Y-95601000D01*
X161520000Y-95481000D02*
X159704000Y-95481000D01*
X165681000Y-94801000D02*
X163600000Y-94801000D01*
X161520000Y-94640000D02*
X159401000Y-94640000D01*
X165394000Y-95521000D02*
X163600000Y-95521000D01*
X161520000Y-96161000D02*
X160180000Y-96161000D01*
X165742000Y-94520000D02*
X163600000Y-94520000D01*
X161520000Y-95201000D02*
X159574000Y-95201000D01*
X164697000Y-96401000D02*
X160423000Y-96401000D01*
X164504000Y-96561000D02*
X160616000Y-96561000D01*
X165044000Y-96041000D02*
X163600000Y-96041000D01*
X165530000Y-95241000D02*
X163600000Y-95241000D01*
X165456000Y-95401000D02*
X163600000Y-95401000D01*
X161520000Y-95921000D02*
X159982000Y-95921000D01*
X161520000Y-95721000D02*
X159844000Y-95721000D01*
X165634000Y-94961000D02*
X163600000Y-94961000D01*
X164940000Y-96161000D02*
X163600000Y-96161000D01*
X165494000Y-95321000D02*
X163600000Y-95321000D01*
X165719000Y-94640000D02*
X163600000Y-94640000D01*
X165771000Y-94320000D02*
X163600000Y-94320000D01*
X161520000Y-95001000D02*
X159499000Y-95001000D01*
X164784000Y-96321000D02*
X160336000Y-96321000D01*
X161520000Y-94520000D02*
X159378000Y-94520000D01*
X163910000Y-96921000D02*
X161210000Y-96921000D01*
X164336000Y-96681000D02*
X160784000Y-96681000D01*
X165784000Y-94160000D02*
X159336000Y-94160000D01*
X165787000Y-94120000D02*
X159333000Y-94120000D01*
X165138000Y-95921000D02*
X163600000Y-95921000D01*
X161520000Y-96001000D02*
X160044000Y-96001000D01*
X161520000Y-94360000D02*
X159354000Y-94360000D01*
X165691000Y-94761000D02*
X163600000Y-94761000D01*
X164141000Y-96801000D02*
X160979000Y-96801000D01*
X164604000Y-96481000D02*
X160516000Y-96481000D01*
X165782000Y-94200000D02*
X163600000Y-94200000D01*
X165250000Y-95761000D02*
X163600000Y-95761000D01*
X161520000Y-95321000D02*
X159626000Y-95321000D01*
X165578000Y-95121000D02*
X163600000Y-95121000D01*
X161520000Y-95441000D02*
X159684000Y-95441000D01*
X161520000Y-94841000D02*
X159450000Y-94841000D01*
X161520000Y-94560000D02*
X159385000Y-94560000D01*
X165224000Y-95801000D02*
X163600000Y-95801000D01*
X161520000Y-94240000D02*
X159342000Y-94240000D01*
X164399000Y-90459759D02*
X164399000Y-91089759D01*
X165830000Y-93960000D02*
G75*
G03*
X165830000Y-93960000I-3270000J0D01*
G01*
X144250000Y-90885000D02*
X147850000Y-90885000D01*
X147850000Y-90885000D02*
G75*
G03*
X148374184Y-90157795I-1800000J1850000D01*
G01*
X148405457Y-87936629D02*
G75*
G03*
X147160000Y-86685000I-2355457J-1098371D01*
G01*
X143725816Y-90157795D02*
G75*
G03*
X144250000Y-90885000I2324184J1122795D01*
G01*
X144910000Y-86685000D02*
G75*
G03*
X143682801Y-87931158I1140000J-2350000D01*
G01*
X169650000Y-90885000D02*
X173250000Y-90885000D01*
X173250000Y-90885000D02*
G75*
G03*
X173774184Y-90157795I-1800000J1850000D01*
G01*
X170310000Y-86685000D02*
G75*
G03*
X169082801Y-87931158I1140000J-2350000D01*
G01*
X169125816Y-90157795D02*
G75*
G03*
X169650000Y-90885000I2324184J1122795D01*
G01*
X173805457Y-87936629D02*
G75*
G03*
X172560000Y-86685000I-2355457J-1098371D01*
G01*
M02*
