G04 #@! TF.GenerationSoftware,KiCad,Pcbnew,(6.0.6)*
G04 #@! TF.CreationDate,2022-07-01T01:06:20-04:00*
G04 #@! TF.ProjectId,C,432e6b69-6361-4645-9f70-636258585858,rev?*
G04 #@! TF.SameCoordinates,Original*
G04 #@! TF.FileFunction,Copper,L1,Top*
G04 #@! TF.FilePolarity,Positive*
%FSLAX46Y46*%
G04 Gerber Fmt 4.6, Leading zero omitted, Abs format (unit mm)*
G04 Created by KiCad (PCBNEW (6.0.6)) date 2022-07-01 01:06:20*
%MOMM*%
%LPD*%
G01*
G04 APERTURE LIST*
G04 #@! TA.AperFunction,ComponentPad*
%ADD10R,1.700000X1.700000*%
G04 #@! TD*
G04 #@! TA.AperFunction,ComponentPad*
%ADD11O,1.700000X1.700000*%
G04 #@! TD*
G04 #@! TA.AperFunction,ComponentPad*
%ADD12R,1.800000X1.800000*%
G04 #@! TD*
G04 #@! TA.AperFunction,ComponentPad*
%ADD13C,1.800000*%
G04 #@! TD*
G04 #@! TA.AperFunction,ComponentPad*
%ADD14C,1.600000*%
G04 #@! TD*
G04 #@! TA.AperFunction,ComponentPad*
%ADD15O,1.600000X1.600000*%
G04 #@! TD*
G04 #@! TA.AperFunction,ComponentPad*
%ADD16R,1.600000X1.600000*%
G04 #@! TD*
G04 #@! TA.AperFunction,ComponentPad*
%ADD17R,1.500000X1.500000*%
G04 #@! TD*
G04 #@! TA.AperFunction,ComponentPad*
%ADD18C,1.500000*%
G04 #@! TD*
G04 #@! TA.AperFunction,Conductor*
%ADD19C,0.381000*%
G04 #@! TD*
G04 APERTURE END LIST*
D10*
X157480000Y-81280000D03*
D11*
X160020000Y-81280000D03*
D12*
X140970000Y-81280000D03*
D13*
X143510000Y-81280000D03*
D12*
X148590000Y-81280000D03*
D13*
X151130000Y-81280000D03*
D12*
X166370000Y-81280000D03*
D13*
X168910000Y-81280000D03*
D14*
X139700000Y-96520000D03*
D15*
X149860000Y-96520000D03*
D14*
X139700000Y-92710000D03*
D15*
X149860000Y-92710000D03*
D14*
X177800000Y-92710000D03*
D15*
X167640000Y-92710000D03*
D14*
X177800000Y-96520000D03*
D15*
X167640000Y-96520000D03*
D14*
X153670000Y-86995000D03*
D15*
X163830000Y-86995000D03*
D12*
X173990000Y-81280000D03*
D13*
X176530000Y-81280000D03*
D16*
X154940000Y-92710000D03*
D14*
X154940000Y-95210000D03*
D16*
X162560000Y-92710000D03*
D14*
X162560000Y-95210000D03*
D17*
X143510000Y-89035000D03*
D18*
X146050000Y-86495000D03*
X148590000Y-89035000D03*
D17*
X168910000Y-89035000D03*
D18*
X171450000Y-86495000D03*
X173990000Y-89035000D03*
D19*
X177800000Y-92710000D02*
X177800000Y-96520000D01*
X139700000Y-96520000D02*
X139700000Y-92710000D01*
X141605000Y-88519000D02*
X145034000Y-85090000D01*
X139700000Y-92710000D02*
X141605000Y-90805000D01*
X145034000Y-85090000D02*
X151892000Y-85090000D01*
X176149000Y-91059000D02*
X177800000Y-92710000D01*
X157861000Y-91059000D02*
X176149000Y-91059000D01*
X151892000Y-85090000D02*
X157861000Y-91059000D01*
X141605000Y-90805000D02*
X141605000Y-88519000D01*
X154940000Y-92750000D02*
X158710000Y-96520000D01*
X158710000Y-96520000D02*
X167640000Y-96520000D01*
X160782000Y-83820000D02*
X163766500Y-86804500D01*
X145796000Y-83820000D02*
X160782000Y-83820000D01*
X143510000Y-81280000D02*
X143510000Y-81534000D01*
X174498000Y-83820000D02*
X166751000Y-83820000D01*
X164973000Y-85598000D02*
X168910000Y-81661000D01*
X168910000Y-81661000D02*
X168910000Y-81280000D01*
X149098000Y-83820000D02*
X151130000Y-81788000D01*
X166751000Y-83820000D02*
X164973000Y-85598000D01*
X148082000Y-83820000D02*
X149098000Y-83820000D01*
X151130000Y-81788000D02*
X151130000Y-81280000D01*
X143510000Y-81534000D02*
X145796000Y-83820000D01*
X176530000Y-81788000D02*
X174498000Y-83820000D01*
X176530000Y-81280000D02*
X176530000Y-81788000D01*
X163766500Y-86804500D02*
X164973000Y-85598000D01*
X165100000Y-95250000D02*
X162560000Y-95250000D01*
X167640000Y-92710000D02*
X165100000Y-95250000D01*
X152400000Y-92710000D02*
X154940000Y-95250000D01*
X149860000Y-92710000D02*
X152400000Y-92710000D01*
X147574000Y-92710000D02*
X146050000Y-91186000D01*
X146050000Y-91186000D02*
X146050000Y-86495000D01*
X149860000Y-92710000D02*
X147574000Y-92710000D01*
G04 #@! TA.AperFunction,Conductor*
G36*
X144715145Y-86501556D02*
G01*
X144771981Y-86544103D01*
X144796634Y-86608630D01*
X144805885Y-86714371D01*
X144862880Y-86927076D01*
X144897107Y-87000476D01*
X144953618Y-87121666D01*
X144953621Y-87121671D01*
X144955944Y-87126653D01*
X144959100Y-87131160D01*
X144959101Y-87131162D01*
X145019631Y-87217607D01*
X145082251Y-87307038D01*
X145237962Y-87462749D01*
X145242471Y-87465906D01*
X145242473Y-87465908D01*
X145297271Y-87504278D01*
X145341599Y-87559736D01*
X145351000Y-87607491D01*
X145351000Y-91157401D01*
X145350708Y-91165971D01*
X145346830Y-91222852D01*
X145348135Y-91230328D01*
X145348135Y-91230332D01*
X145357663Y-91284924D01*
X145358626Y-91291449D01*
X145366191Y-91353960D01*
X145368875Y-91361062D01*
X145369719Y-91364500D01*
X145373583Y-91378623D01*
X145374613Y-91382034D01*
X145375919Y-91389517D01*
X145378972Y-91396472D01*
X145401239Y-91447198D01*
X145403730Y-91453304D01*
X145418226Y-91491664D01*
X145425994Y-91512222D01*
X145430293Y-91518477D01*
X145431935Y-91521618D01*
X145439033Y-91534372D01*
X145440870Y-91537478D01*
X145443923Y-91544433D01*
X145448548Y-91550460D01*
X145448550Y-91550464D01*
X145482265Y-91594402D01*
X145486129Y-91599720D01*
X145521821Y-91651652D01*
X145527491Y-91656704D01*
X145527492Y-91656705D01*
X145567688Y-91692518D01*
X145572964Y-91697499D01*
X147059503Y-93184038D01*
X147065356Y-93190303D01*
X147102842Y-93233274D01*
X147109056Y-93237641D01*
X147154389Y-93269502D01*
X147159684Y-93273435D01*
X147209239Y-93312291D01*
X147216163Y-93315417D01*
X147219212Y-93317264D01*
X147231878Y-93324489D01*
X147235043Y-93326186D01*
X147241261Y-93330556D01*
X147299996Y-93353456D01*
X147306009Y-93355983D01*
X147363435Y-93381912D01*
X147370903Y-93383296D01*
X147374311Y-93384364D01*
X147388350Y-93388364D01*
X147391814Y-93389253D01*
X147398889Y-93392012D01*
X147406418Y-93393003D01*
X147406421Y-93393004D01*
X147461345Y-93400235D01*
X147467859Y-93401267D01*
X147522317Y-93411360D01*
X147522320Y-93411360D01*
X147529786Y-93412744D01*
X147537366Y-93412307D01*
X147537367Y-93412307D01*
X147591094Y-93409209D01*
X147598347Y-93409000D01*
X148686470Y-93409000D01*
X148754591Y-93429002D01*
X148789683Y-93462729D01*
X148853802Y-93554300D01*
X149015700Y-93716198D01*
X149020208Y-93719355D01*
X149020211Y-93719357D01*
X149061542Y-93748297D01*
X149203251Y-93847523D01*
X149208233Y-93849846D01*
X149208238Y-93849849D01*
X149405775Y-93941961D01*
X149410757Y-93944284D01*
X149416065Y-93945706D01*
X149416067Y-93945707D01*
X149626598Y-94002119D01*
X149626600Y-94002119D01*
X149631913Y-94003543D01*
X149860000Y-94023498D01*
X150088087Y-94003543D01*
X150093400Y-94002119D01*
X150093402Y-94002119D01*
X150303933Y-93945707D01*
X150303935Y-93945706D01*
X150309243Y-93944284D01*
X150314225Y-93941961D01*
X150511762Y-93849849D01*
X150511767Y-93849846D01*
X150516749Y-93847523D01*
X150658458Y-93748297D01*
X150699789Y-93719357D01*
X150699792Y-93719355D01*
X150704300Y-93716198D01*
X150866198Y-93554300D01*
X150930317Y-93462729D01*
X150985774Y-93418401D01*
X151033530Y-93409000D01*
X152058275Y-93409000D01*
X152126396Y-93429002D01*
X152147370Y-93445905D01*
X153607881Y-94906416D01*
X153641907Y-94968728D01*
X153644307Y-95006490D01*
X153626502Y-95210000D01*
X153646457Y-95438087D01*
X153705716Y-95659243D01*
X153708039Y-95664224D01*
X153708039Y-95664225D01*
X153800151Y-95861762D01*
X153800154Y-95861767D01*
X153802477Y-95866749D01*
X153933802Y-96054300D01*
X154095700Y-96216198D01*
X154100208Y-96219355D01*
X154100211Y-96219357D01*
X154178389Y-96274098D01*
X154283251Y-96347523D01*
X154288233Y-96349846D01*
X154288238Y-96349849D01*
X154485775Y-96441961D01*
X154490757Y-96444284D01*
X154496065Y-96445706D01*
X154496067Y-96445707D01*
X154706598Y-96502119D01*
X154706600Y-96502119D01*
X154711913Y-96503543D01*
X154940000Y-96523498D01*
X155168087Y-96503543D01*
X155173400Y-96502119D01*
X155173402Y-96502119D01*
X155383933Y-96445707D01*
X155383935Y-96445706D01*
X155389243Y-96444284D01*
X155394225Y-96441961D01*
X155591762Y-96349849D01*
X155591767Y-96349846D01*
X155596749Y-96347523D01*
X155701611Y-96274098D01*
X155779789Y-96219357D01*
X155779792Y-96219355D01*
X155784300Y-96216198D01*
X155946198Y-96054300D01*
X156077523Y-95866749D01*
X156079846Y-95861767D01*
X156079849Y-95861762D01*
X156171961Y-95664225D01*
X156171961Y-95664224D01*
X156174284Y-95659243D01*
X156233543Y-95438087D01*
X156234022Y-95432611D01*
X156234023Y-95432606D01*
X156242656Y-95333921D01*
X156268519Y-95267803D01*
X156326023Y-95226163D01*
X156396910Y-95222222D01*
X156457272Y-95255807D01*
X158195503Y-96994038D01*
X158201356Y-97000303D01*
X158238842Y-97043274D01*
X158245056Y-97047641D01*
X158290378Y-97079494D01*
X158295674Y-97083427D01*
X158339263Y-97117606D01*
X158339266Y-97117608D01*
X158345240Y-97122292D01*
X158352164Y-97125418D01*
X158355199Y-97127256D01*
X158367898Y-97134500D01*
X158371046Y-97136188D01*
X158377261Y-97140556D01*
X158435950Y-97163438D01*
X158441995Y-97165978D01*
X158499435Y-97191913D01*
X158506908Y-97193298D01*
X158510326Y-97194369D01*
X158524315Y-97198354D01*
X158527807Y-97199251D01*
X158534889Y-97202012D01*
X158542422Y-97203004D01*
X158542423Y-97203004D01*
X158597330Y-97210233D01*
X158603843Y-97211265D01*
X158658318Y-97221361D01*
X158658320Y-97221361D01*
X158665787Y-97222745D01*
X158673367Y-97222308D01*
X158673368Y-97222308D01*
X158727112Y-97219209D01*
X158734365Y-97219000D01*
X166466470Y-97219000D01*
X166534591Y-97239002D01*
X166569683Y-97272729D01*
X166633802Y-97364300D01*
X166795700Y-97526198D01*
X166800208Y-97529355D01*
X166800211Y-97529357D01*
X166878389Y-97584098D01*
X166983251Y-97657523D01*
X166988233Y-97659846D01*
X166988238Y-97659849D01*
X167185775Y-97751961D01*
X167190757Y-97754284D01*
X167196065Y-97755706D01*
X167196067Y-97755707D01*
X167406598Y-97812119D01*
X167406600Y-97812119D01*
X167411913Y-97813543D01*
X167640000Y-97833498D01*
X167868087Y-97813543D01*
X167873400Y-97812119D01*
X167873402Y-97812119D01*
X168083933Y-97755707D01*
X168083935Y-97755706D01*
X168089243Y-97754284D01*
X168094225Y-97751961D01*
X168291762Y-97659849D01*
X168291767Y-97659846D01*
X168296749Y-97657523D01*
X168401611Y-97584098D01*
X168479789Y-97529357D01*
X168479792Y-97529355D01*
X168484300Y-97526198D01*
X168646198Y-97364300D01*
X168777523Y-97176749D01*
X168779846Y-97171767D01*
X168779849Y-97171762D01*
X168871961Y-96974225D01*
X168871961Y-96974224D01*
X168874284Y-96969243D01*
X168933543Y-96748087D01*
X168953498Y-96520000D01*
X168933543Y-96291913D01*
X168874284Y-96070757D01*
X168864507Y-96049789D01*
X168779849Y-95868238D01*
X168779846Y-95868233D01*
X168777523Y-95863251D01*
X168696362Y-95747342D01*
X168649357Y-95680211D01*
X168649355Y-95680208D01*
X168646198Y-95675700D01*
X168484300Y-95513802D01*
X168479792Y-95510645D01*
X168479789Y-95510643D01*
X168401611Y-95455902D01*
X168296749Y-95382477D01*
X168291767Y-95380154D01*
X168291762Y-95380151D01*
X168094225Y-95288039D01*
X168094224Y-95288039D01*
X168089243Y-95285716D01*
X168083935Y-95284294D01*
X168083933Y-95284293D01*
X167873402Y-95227881D01*
X167873400Y-95227881D01*
X167868087Y-95226457D01*
X167640000Y-95206502D01*
X167411913Y-95226457D01*
X167406600Y-95227881D01*
X167406598Y-95227881D01*
X167196067Y-95284293D01*
X167196065Y-95284294D01*
X167190757Y-95285716D01*
X167185776Y-95288039D01*
X167185775Y-95288039D01*
X166988238Y-95380151D01*
X166988233Y-95380154D01*
X166983251Y-95382477D01*
X166878389Y-95455902D01*
X166800211Y-95510643D01*
X166800208Y-95510645D01*
X166795700Y-95513802D01*
X166633802Y-95675700D01*
X166630645Y-95680208D01*
X166630643Y-95680211D01*
X166569683Y-95767271D01*
X166514226Y-95811599D01*
X166466470Y-95821000D01*
X165821725Y-95821000D01*
X165753604Y-95800998D01*
X165707111Y-95747342D01*
X165697007Y-95677068D01*
X165726501Y-95612488D01*
X165732630Y-95605905D01*
X167300555Y-94037980D01*
X167362867Y-94003954D01*
X167409961Y-94003020D01*
X167411913Y-94003543D01*
X167417384Y-94004022D01*
X167417386Y-94004022D01*
X167634525Y-94023019D01*
X167640000Y-94023498D01*
X167868087Y-94003543D01*
X167873400Y-94002119D01*
X167873402Y-94002119D01*
X168083933Y-93945707D01*
X168083935Y-93945706D01*
X168089243Y-93944284D01*
X168094225Y-93941961D01*
X168291762Y-93849849D01*
X168291767Y-93849846D01*
X168296749Y-93847523D01*
X168438458Y-93748297D01*
X168479789Y-93719357D01*
X168479792Y-93719355D01*
X168484300Y-93716198D01*
X168646198Y-93554300D01*
X168777523Y-93366749D01*
X168779846Y-93361767D01*
X168779849Y-93361762D01*
X168871961Y-93164225D01*
X168871961Y-93164224D01*
X168874284Y-93159243D01*
X168888318Y-93106870D01*
X168932119Y-92943402D01*
X168932119Y-92943400D01*
X168933543Y-92938087D01*
X168953498Y-92710000D01*
X168933543Y-92481913D01*
X168917288Y-92421248D01*
X168875707Y-92266067D01*
X168875706Y-92266065D01*
X168874284Y-92260757D01*
X168837727Y-92182359D01*
X168779849Y-92058238D01*
X168779846Y-92058233D01*
X168777523Y-92053251D01*
X168766905Y-92038087D01*
X168709617Y-91956271D01*
X168686929Y-91888997D01*
X168704214Y-91820136D01*
X168755984Y-91771552D01*
X168812830Y-91758000D01*
X175807274Y-91758000D01*
X175875395Y-91778002D01*
X175896370Y-91794905D01*
X176472021Y-92370557D01*
X176506046Y-92432869D01*
X176506979Y-92479965D01*
X176506457Y-92481913D01*
X176505979Y-92487380D01*
X176505978Y-92487384D01*
X176486992Y-92704395D01*
X176486502Y-92710000D01*
X176506457Y-92938087D01*
X176507881Y-92943400D01*
X176507881Y-92943402D01*
X176551683Y-93106870D01*
X176565716Y-93159243D01*
X176568039Y-93164224D01*
X176568039Y-93164225D01*
X176660151Y-93361762D01*
X176660154Y-93361767D01*
X176662477Y-93366749D01*
X176793802Y-93554300D01*
X176955700Y-93716198D01*
X176960208Y-93719355D01*
X176960211Y-93719357D01*
X177047271Y-93780317D01*
X177091599Y-93835774D01*
X177101000Y-93883530D01*
X177101000Y-95346470D01*
X177080998Y-95414591D01*
X177047271Y-95449683D01*
X176960211Y-95510643D01*
X176960208Y-95510645D01*
X176955700Y-95513802D01*
X176793802Y-95675700D01*
X176790645Y-95680208D01*
X176790643Y-95680211D01*
X176743638Y-95747342D01*
X176662477Y-95863251D01*
X176660154Y-95868233D01*
X176660151Y-95868238D01*
X176575493Y-96049789D01*
X176565716Y-96070757D01*
X176506457Y-96291913D01*
X176486502Y-96520000D01*
X176506457Y-96748087D01*
X176565716Y-96969243D01*
X176568039Y-96974224D01*
X176568039Y-96974225D01*
X176660151Y-97171762D01*
X176660154Y-97171767D01*
X176662477Y-97176749D01*
X176793802Y-97364300D01*
X176955700Y-97526198D01*
X176960208Y-97529355D01*
X176960211Y-97529357D01*
X177038389Y-97584098D01*
X177143251Y-97657523D01*
X177148233Y-97659846D01*
X177148238Y-97659849D01*
X177345775Y-97751961D01*
X177350757Y-97754284D01*
X177356065Y-97755706D01*
X177356067Y-97755707D01*
X177566598Y-97812119D01*
X177566600Y-97812119D01*
X177571913Y-97813543D01*
X177784981Y-97832184D01*
X177851099Y-97858048D01*
X177892738Y-97915551D01*
X177896679Y-97986438D01*
X177857077Y-98052437D01*
X177772905Y-98126254D01*
X177759829Y-98136287D01*
X177552616Y-98274743D01*
X177538342Y-98282984D01*
X177314826Y-98393209D01*
X177299602Y-98399515D01*
X177063606Y-98479625D01*
X177047696Y-98483888D01*
X176925478Y-98508199D01*
X176803262Y-98532509D01*
X176786922Y-98534660D01*
X176638134Y-98544413D01*
X176571763Y-98548763D01*
X176548650Y-98547733D01*
X176545146Y-98547690D01*
X176536276Y-98546309D01*
X176527374Y-98547473D01*
X176527372Y-98547473D01*
X176513915Y-98549233D01*
X176504714Y-98550436D01*
X176488379Y-98551500D01*
X141019367Y-98551500D01*
X140999982Y-98550000D01*
X140985149Y-98547690D01*
X140985145Y-98547690D01*
X140976276Y-98546309D01*
X140967374Y-98547473D01*
X140967371Y-98547473D01*
X140959988Y-98548439D01*
X140935409Y-98549233D01*
X140890799Y-98546309D01*
X140713078Y-98534660D01*
X140696738Y-98532509D01*
X140574523Y-98508199D01*
X140452304Y-98483888D01*
X140436394Y-98479625D01*
X140200398Y-98399515D01*
X140185174Y-98393209D01*
X139961658Y-98282984D01*
X139947384Y-98274743D01*
X139740171Y-98136287D01*
X139727095Y-98126254D01*
X139642923Y-98052437D01*
X139604896Y-97992483D01*
X139605318Y-97921488D01*
X139644057Y-97861991D01*
X139715019Y-97832184D01*
X139928087Y-97813543D01*
X139933400Y-97812119D01*
X139933402Y-97812119D01*
X140143933Y-97755707D01*
X140143935Y-97755706D01*
X140149243Y-97754284D01*
X140154225Y-97751961D01*
X140351762Y-97659849D01*
X140351767Y-97659846D01*
X140356749Y-97657523D01*
X140461611Y-97584098D01*
X140539789Y-97529357D01*
X140539792Y-97529355D01*
X140544300Y-97526198D01*
X140706198Y-97364300D01*
X140837523Y-97176749D01*
X140839846Y-97171767D01*
X140839849Y-97171762D01*
X140931961Y-96974225D01*
X140931961Y-96974224D01*
X140934284Y-96969243D01*
X140993543Y-96748087D01*
X141013498Y-96520000D01*
X148546502Y-96520000D01*
X148566457Y-96748087D01*
X148625716Y-96969243D01*
X148628039Y-96974224D01*
X148628039Y-96974225D01*
X148720151Y-97171762D01*
X148720154Y-97171767D01*
X148722477Y-97176749D01*
X148853802Y-97364300D01*
X149015700Y-97526198D01*
X149020208Y-97529355D01*
X149020211Y-97529357D01*
X149098389Y-97584098D01*
X149203251Y-97657523D01*
X149208233Y-97659846D01*
X149208238Y-97659849D01*
X149405775Y-97751961D01*
X149410757Y-97754284D01*
X149416065Y-97755706D01*
X149416067Y-97755707D01*
X149626598Y-97812119D01*
X149626600Y-97812119D01*
X149631913Y-97813543D01*
X149860000Y-97833498D01*
X150088087Y-97813543D01*
X150093400Y-97812119D01*
X150093402Y-97812119D01*
X150303933Y-97755707D01*
X150303935Y-97755706D01*
X150309243Y-97754284D01*
X150314225Y-97751961D01*
X150511762Y-97659849D01*
X150511767Y-97659846D01*
X150516749Y-97657523D01*
X150621611Y-97584098D01*
X150699789Y-97529357D01*
X150699792Y-97529355D01*
X150704300Y-97526198D01*
X150866198Y-97364300D01*
X150997523Y-97176749D01*
X150999846Y-97171767D01*
X150999849Y-97171762D01*
X151091961Y-96974225D01*
X151091961Y-96974224D01*
X151094284Y-96969243D01*
X151153543Y-96748087D01*
X151173498Y-96520000D01*
X151153543Y-96291913D01*
X151094284Y-96070757D01*
X151084507Y-96049789D01*
X150999849Y-95868238D01*
X150999846Y-95868233D01*
X150997523Y-95863251D01*
X150916362Y-95747342D01*
X150869357Y-95680211D01*
X150869355Y-95680208D01*
X150866198Y-95675700D01*
X150704300Y-95513802D01*
X150699792Y-95510645D01*
X150699789Y-95510643D01*
X150621611Y-95455902D01*
X150516749Y-95382477D01*
X150511767Y-95380154D01*
X150511762Y-95380151D01*
X150314225Y-95288039D01*
X150314224Y-95288039D01*
X150309243Y-95285716D01*
X150303935Y-95284294D01*
X150303933Y-95284293D01*
X150093402Y-95227881D01*
X150093400Y-95227881D01*
X150088087Y-95226457D01*
X149860000Y-95206502D01*
X149631913Y-95226457D01*
X149626600Y-95227881D01*
X149626598Y-95227881D01*
X149416067Y-95284293D01*
X149416065Y-95284294D01*
X149410757Y-95285716D01*
X149405776Y-95288039D01*
X149405775Y-95288039D01*
X149208238Y-95380151D01*
X149208233Y-95380154D01*
X149203251Y-95382477D01*
X149098389Y-95455902D01*
X149020211Y-95510643D01*
X149020208Y-95510645D01*
X149015700Y-95513802D01*
X148853802Y-95675700D01*
X148850645Y-95680208D01*
X148850643Y-95680211D01*
X148803638Y-95747342D01*
X148722477Y-95863251D01*
X148720154Y-95868233D01*
X148720151Y-95868238D01*
X148635493Y-96049789D01*
X148625716Y-96070757D01*
X148566457Y-96291913D01*
X148546502Y-96520000D01*
X141013498Y-96520000D01*
X140993543Y-96291913D01*
X140934284Y-96070757D01*
X140924507Y-96049789D01*
X140839849Y-95868238D01*
X140839846Y-95868233D01*
X140837523Y-95863251D01*
X140756362Y-95747342D01*
X140709357Y-95680211D01*
X140709355Y-95680208D01*
X140706198Y-95675700D01*
X140544300Y-95513802D01*
X140539792Y-95510645D01*
X140539789Y-95510643D01*
X140452729Y-95449683D01*
X140408401Y-95394226D01*
X140399000Y-95346470D01*
X140399000Y-93883530D01*
X140419002Y-93815409D01*
X140452729Y-93780317D01*
X140539789Y-93719357D01*
X140539792Y-93719355D01*
X140544300Y-93716198D01*
X140706198Y-93554300D01*
X140837523Y-93366749D01*
X140839846Y-93361767D01*
X140839849Y-93361762D01*
X140931961Y-93164225D01*
X140931961Y-93164224D01*
X140934284Y-93159243D01*
X140948318Y-93106870D01*
X140992119Y-92943402D01*
X140992119Y-92943400D01*
X140993543Y-92938087D01*
X141013498Y-92710000D01*
X141008141Y-92648774D01*
X140994022Y-92487386D01*
X140994022Y-92487384D01*
X140993543Y-92481913D01*
X140993122Y-92480340D01*
X141000859Y-92410969D01*
X141027980Y-92370555D01*
X142079038Y-91319497D01*
X142085304Y-91313643D01*
X142128274Y-91276158D01*
X142164494Y-91224622D01*
X142168427Y-91219326D01*
X142202606Y-91175737D01*
X142202608Y-91175734D01*
X142207292Y-91169760D01*
X142210418Y-91162836D01*
X142212256Y-91159801D01*
X142219500Y-91147102D01*
X142221188Y-91143954D01*
X142225556Y-91137739D01*
X142248438Y-91079050D01*
X142250978Y-91073005D01*
X142276913Y-91015565D01*
X142278298Y-91008092D01*
X142279369Y-91004674D01*
X142283354Y-90990685D01*
X142284251Y-90987193D01*
X142287012Y-90980111D01*
X142295233Y-90917670D01*
X142296265Y-90911157D01*
X142306361Y-90856682D01*
X142306361Y-90856680D01*
X142307745Y-90849213D01*
X142304209Y-90787887D01*
X142304000Y-90780635D01*
X142304000Y-90330023D01*
X142324002Y-90261902D01*
X142377658Y-90215409D01*
X142447932Y-90205305D01*
X142498134Y-90226115D01*
X142498483Y-90225478D01*
X142504361Y-90228696D01*
X142505562Y-90229194D01*
X142506353Y-90229787D01*
X142521946Y-90238324D01*
X142642394Y-90283478D01*
X142657649Y-90287105D01*
X142708514Y-90292631D01*
X142715328Y-90293000D01*
X143237885Y-90293000D01*
X143253124Y-90288525D01*
X143254329Y-90287135D01*
X143256000Y-90279452D01*
X143256000Y-90274884D01*
X143764000Y-90274884D01*
X143768475Y-90290123D01*
X143769865Y-90291328D01*
X143777548Y-90292999D01*
X144304669Y-90292999D01*
X144311490Y-90292629D01*
X144362352Y-90287105D01*
X144377604Y-90283479D01*
X144498054Y-90238324D01*
X144513649Y-90229786D01*
X144615724Y-90153285D01*
X144628285Y-90140724D01*
X144704786Y-90038649D01*
X144713324Y-90023054D01*
X144758478Y-89902606D01*
X144762105Y-89887351D01*
X144767631Y-89836486D01*
X144768000Y-89829672D01*
X144768000Y-89307115D01*
X144763525Y-89291876D01*
X144762135Y-89290671D01*
X144754452Y-89289000D01*
X143782115Y-89289000D01*
X143766876Y-89293475D01*
X143765671Y-89294865D01*
X143764000Y-89302548D01*
X143764000Y-90274884D01*
X143256000Y-90274884D01*
X143256000Y-88907000D01*
X143276002Y-88838879D01*
X143329658Y-88792386D01*
X143382000Y-88781000D01*
X144749884Y-88781000D01*
X144765123Y-88776525D01*
X144766328Y-88775135D01*
X144767999Y-88767452D01*
X144767999Y-88240331D01*
X144767629Y-88233510D01*
X144762105Y-88182648D01*
X144758479Y-88167396D01*
X144713324Y-88046946D01*
X144704786Y-88031351D01*
X144628285Y-87929276D01*
X144615724Y-87916715D01*
X144513649Y-87840214D01*
X144498054Y-87831676D01*
X144377606Y-87786522D01*
X144362351Y-87782895D01*
X144311486Y-87777369D01*
X144304672Y-87777000D01*
X143639724Y-87777001D01*
X143571603Y-87756999D01*
X143525110Y-87703343D01*
X143515006Y-87633070D01*
X143544499Y-87568489D01*
X143550629Y-87561906D01*
X144582018Y-86530517D01*
X144644330Y-86496491D01*
X144715145Y-86501556D01*
G37*
G04 #@! TD.AperFunction*
G04 #@! TA.AperFunction,Conductor*
G36*
X176500018Y-77980000D02*
G01*
X176514851Y-77982310D01*
X176514855Y-77982310D01*
X176523724Y-77983691D01*
X176532626Y-77982527D01*
X176532629Y-77982527D01*
X176540012Y-77981561D01*
X176564591Y-77980767D01*
X176591442Y-77982527D01*
X176786922Y-77995340D01*
X176803262Y-77997491D01*
X176925478Y-78021801D01*
X177047696Y-78046112D01*
X177063606Y-78050375D01*
X177299600Y-78130484D01*
X177314826Y-78136791D01*
X177538342Y-78247016D01*
X177552616Y-78255257D01*
X177759829Y-78393713D01*
X177772905Y-78403746D01*
X177960278Y-78568068D01*
X177971932Y-78579722D01*
X178136254Y-78767095D01*
X178146287Y-78780171D01*
X178284743Y-78987384D01*
X178292984Y-79001658D01*
X178403209Y-79225174D01*
X178409515Y-79240398D01*
X178489625Y-79476394D01*
X178493889Y-79492307D01*
X178542509Y-79736738D01*
X178544660Y-79753078D01*
X178558763Y-79968236D01*
X178557733Y-79991350D01*
X178557690Y-79994854D01*
X178556309Y-80003724D01*
X178557473Y-80012626D01*
X178557473Y-80012628D01*
X178560436Y-80035283D01*
X178561500Y-80051621D01*
X178561500Y-85725500D01*
X178541498Y-85793621D01*
X178487842Y-85840114D01*
X178435500Y-85851500D01*
X176538623Y-85851500D01*
X176537853Y-85851498D01*
X176537037Y-85851493D01*
X176460279Y-85851024D01*
X176437918Y-85857415D01*
X176431847Y-85859150D01*
X176415085Y-85862728D01*
X176385813Y-85866920D01*
X176377645Y-85870634D01*
X176377644Y-85870634D01*
X176362438Y-85877548D01*
X176344914Y-85883996D01*
X176320229Y-85891051D01*
X176312635Y-85895843D01*
X176312632Y-85895844D01*
X176295220Y-85906830D01*
X176280137Y-85914969D01*
X176253218Y-85927208D01*
X176246416Y-85933069D01*
X176233765Y-85943970D01*
X176218761Y-85955073D01*
X176197042Y-85968776D01*
X176191103Y-85975501D01*
X176191099Y-85975504D01*
X176177468Y-85990938D01*
X176165276Y-86002982D01*
X176149673Y-86016427D01*
X176149671Y-86016430D01*
X176142873Y-86022287D01*
X176137993Y-86029816D01*
X176137992Y-86029817D01*
X176128906Y-86043835D01*
X176117615Y-86058709D01*
X176106569Y-86071217D01*
X176100622Y-86077951D01*
X176094312Y-86091391D01*
X176088058Y-86104711D01*
X176079737Y-86119691D01*
X176068529Y-86136983D01*
X176068527Y-86136988D01*
X176063648Y-86144515D01*
X176061078Y-86153108D01*
X176061076Y-86153113D01*
X176056289Y-86169120D01*
X176049628Y-86186564D01*
X176042533Y-86201676D01*
X176038719Y-86209800D01*
X176037338Y-86218667D01*
X176037338Y-86218668D01*
X176034170Y-86239015D01*
X176030387Y-86255732D01*
X176024485Y-86275466D01*
X176024484Y-86275472D01*
X176021914Y-86284066D01*
X176021859Y-86293037D01*
X176021859Y-86293038D01*
X176021704Y-86318497D01*
X176021671Y-86319289D01*
X176021500Y-86320386D01*
X176021500Y-86351377D01*
X176021498Y-86352147D01*
X176021024Y-86429721D01*
X176021408Y-86431065D01*
X176021500Y-86432410D01*
X176021500Y-90161377D01*
X176021498Y-90162147D01*
X176021054Y-90234770D01*
X176000635Y-90302768D01*
X175946697Y-90348931D01*
X175895056Y-90360000D01*
X174690927Y-90360000D01*
X174622806Y-90339998D01*
X174576313Y-90286342D01*
X174566209Y-90216068D01*
X174595703Y-90151488D01*
X174622099Y-90129692D01*
X174621654Y-90129056D01*
X174797527Y-90005908D01*
X174797529Y-90005906D01*
X174802038Y-90002749D01*
X174957749Y-89847038D01*
X174964749Y-89837042D01*
X175080899Y-89671162D01*
X175080900Y-89671160D01*
X175084056Y-89666653D01*
X175086379Y-89661671D01*
X175086382Y-89661666D01*
X175174795Y-89472061D01*
X175177120Y-89467076D01*
X175234115Y-89254371D01*
X175253307Y-89035000D01*
X175234115Y-88815629D01*
X175177120Y-88602924D01*
X175133585Y-88509562D01*
X175086382Y-88408334D01*
X175086379Y-88408329D01*
X175084056Y-88403347D01*
X175017307Y-88308019D01*
X174960908Y-88227473D01*
X174960906Y-88227470D01*
X174957749Y-88222962D01*
X174802038Y-88067251D01*
X174621654Y-87940944D01*
X174422076Y-87847880D01*
X174209371Y-87790885D01*
X173990000Y-87771693D01*
X173770629Y-87790885D01*
X173557924Y-87847880D01*
X173464562Y-87891415D01*
X173363334Y-87938618D01*
X173363329Y-87938621D01*
X173358347Y-87940944D01*
X173353840Y-87944100D01*
X173353838Y-87944101D01*
X173182473Y-88064092D01*
X173182470Y-88064094D01*
X173177962Y-88067251D01*
X173022251Y-88222962D01*
X173019094Y-88227470D01*
X173019092Y-88227473D01*
X172962693Y-88308019D01*
X172895944Y-88403347D01*
X172893621Y-88408329D01*
X172893618Y-88408334D01*
X172846415Y-88509562D01*
X172802880Y-88602924D01*
X172745885Y-88815629D01*
X172726693Y-89035000D01*
X172745885Y-89254371D01*
X172802880Y-89467076D01*
X172805205Y-89472061D01*
X172893618Y-89661666D01*
X172893621Y-89661671D01*
X172895944Y-89666653D01*
X172899100Y-89671160D01*
X172899101Y-89671162D01*
X173015252Y-89837042D01*
X173022251Y-89847038D01*
X173177962Y-90002749D01*
X173182471Y-90005906D01*
X173182473Y-90005908D01*
X173358346Y-90129056D01*
X173357376Y-90130441D01*
X173401068Y-90176266D01*
X173414502Y-90245980D01*
X173388114Y-90311891D01*
X173330280Y-90353071D01*
X173289073Y-90360000D01*
X170113199Y-90360000D01*
X170045078Y-90339998D01*
X169998585Y-90286342D01*
X169988481Y-90216068D01*
X170017975Y-90151488D01*
X170024104Y-90144905D01*
X170028285Y-90140724D01*
X170104786Y-90038649D01*
X170113324Y-90023054D01*
X170158478Y-89902606D01*
X170162105Y-89887351D01*
X170167631Y-89836486D01*
X170168000Y-89829672D01*
X170168000Y-89307115D01*
X170163525Y-89291876D01*
X170162135Y-89290671D01*
X170154452Y-89289000D01*
X167670116Y-89289000D01*
X167654877Y-89293475D01*
X167653672Y-89294865D01*
X167652001Y-89302548D01*
X167652001Y-89829669D01*
X167652371Y-89836490D01*
X167657895Y-89887352D01*
X167661521Y-89902604D01*
X167706676Y-90023054D01*
X167715214Y-90038649D01*
X167791715Y-90140724D01*
X167795896Y-90144905D01*
X167829922Y-90207217D01*
X167824857Y-90278032D01*
X167782310Y-90334868D01*
X167715790Y-90359679D01*
X167706801Y-90360000D01*
X158202725Y-90360000D01*
X158134604Y-90339998D01*
X158113630Y-90323095D01*
X156553420Y-88762885D01*
X167652000Y-88762885D01*
X167656475Y-88778124D01*
X167657865Y-88779329D01*
X167665548Y-88781000D01*
X168637885Y-88781000D01*
X168653124Y-88776525D01*
X168654329Y-88775135D01*
X168656000Y-88767452D01*
X168656000Y-88762885D01*
X169164000Y-88762885D01*
X169168475Y-88778124D01*
X169169865Y-88779329D01*
X169177548Y-88781000D01*
X170149884Y-88781000D01*
X170165123Y-88776525D01*
X170166328Y-88775135D01*
X170167999Y-88767452D01*
X170167999Y-88240331D01*
X170167629Y-88233510D01*
X170162105Y-88182648D01*
X170158479Y-88167396D01*
X170113324Y-88046946D01*
X170104786Y-88031351D01*
X170028285Y-87929276D01*
X170015724Y-87916715D01*
X169913649Y-87840214D01*
X169898054Y-87831676D01*
X169777606Y-87786522D01*
X169762351Y-87782895D01*
X169711486Y-87777369D01*
X169704672Y-87777000D01*
X169182115Y-87777000D01*
X169166876Y-87781475D01*
X169165671Y-87782865D01*
X169164000Y-87790548D01*
X169164000Y-88762885D01*
X168656000Y-88762885D01*
X168656000Y-87795116D01*
X168651525Y-87779877D01*
X168650135Y-87778672D01*
X168642452Y-87777001D01*
X168115331Y-87777001D01*
X168108510Y-87777371D01*
X168057648Y-87782895D01*
X168042396Y-87786521D01*
X167921946Y-87831676D01*
X167906351Y-87840214D01*
X167804276Y-87916715D01*
X167791715Y-87929276D01*
X167715214Y-88031351D01*
X167706676Y-88046946D01*
X167661522Y-88167394D01*
X167657895Y-88182649D01*
X167652369Y-88233514D01*
X167652000Y-88240328D01*
X167652000Y-88762885D01*
X156553420Y-88762885D01*
X155009119Y-87218584D01*
X154975093Y-87156272D01*
X154972693Y-87118508D01*
X154983019Y-87000476D01*
X154983019Y-87000475D01*
X154983498Y-86995000D01*
X154963543Y-86766913D01*
X154958241Y-86747127D01*
X154905707Y-86551067D01*
X154905706Y-86551065D01*
X154904284Y-86545757D01*
X154867284Y-86466410D01*
X154809849Y-86343238D01*
X154809846Y-86343233D01*
X154807523Y-86338251D01*
X154711892Y-86201676D01*
X154679357Y-86155211D01*
X154679355Y-86155208D01*
X154676198Y-86150700D01*
X154514300Y-85988802D01*
X154509792Y-85985645D01*
X154509789Y-85985643D01*
X154385377Y-85898529D01*
X154326749Y-85857477D01*
X154321767Y-85855154D01*
X154321762Y-85855151D01*
X154124225Y-85763039D01*
X154124224Y-85763039D01*
X154119243Y-85760716D01*
X154113935Y-85759294D01*
X154113933Y-85759293D01*
X153903402Y-85702881D01*
X153903400Y-85702881D01*
X153898087Y-85701457D01*
X153670000Y-85681502D01*
X153664525Y-85681981D01*
X153664524Y-85681981D01*
X153546492Y-85692307D01*
X153476887Y-85678317D01*
X153446416Y-85655881D01*
X152524630Y-84734095D01*
X152490604Y-84671783D01*
X152495669Y-84600968D01*
X152538216Y-84544132D01*
X152604736Y-84519321D01*
X152613725Y-84519000D01*
X160440275Y-84519000D01*
X160508396Y-84539002D01*
X160529370Y-84555905D01*
X162528111Y-86554646D01*
X162562137Y-86616958D01*
X162560722Y-86676353D01*
X162537882Y-86761591D01*
X162537881Y-86761598D01*
X162536457Y-86766913D01*
X162516502Y-86995000D01*
X162536457Y-87223087D01*
X162537881Y-87228400D01*
X162537881Y-87228402D01*
X162573616Y-87361764D01*
X162595716Y-87444243D01*
X162598039Y-87449224D01*
X162598039Y-87449225D01*
X162690151Y-87646762D01*
X162690154Y-87646767D01*
X162692477Y-87651749D01*
X162728604Y-87703343D01*
X162818464Y-87831676D01*
X162823802Y-87839300D01*
X162985700Y-88001198D01*
X162990208Y-88004355D01*
X162990211Y-88004357D01*
X163028763Y-88031351D01*
X163173251Y-88132523D01*
X163178233Y-88134846D01*
X163178238Y-88134849D01*
X163280747Y-88182649D01*
X163380757Y-88229284D01*
X163386065Y-88230706D01*
X163386067Y-88230707D01*
X163596598Y-88287119D01*
X163596600Y-88287119D01*
X163601913Y-88288543D01*
X163830000Y-88308498D01*
X164058087Y-88288543D01*
X164063400Y-88287119D01*
X164063402Y-88287119D01*
X164273933Y-88230707D01*
X164273935Y-88230706D01*
X164279243Y-88229284D01*
X164379253Y-88182649D01*
X164481762Y-88134849D01*
X164481767Y-88134846D01*
X164486749Y-88132523D01*
X164631237Y-88031351D01*
X164669789Y-88004357D01*
X164669792Y-88004355D01*
X164674300Y-88001198D01*
X164836198Y-87839300D01*
X164841537Y-87831676D01*
X164931396Y-87703343D01*
X164967523Y-87651749D01*
X164969846Y-87646767D01*
X164969849Y-87646762D01*
X165061961Y-87449225D01*
X165061961Y-87449224D01*
X165064284Y-87444243D01*
X165086385Y-87361764D01*
X165122119Y-87228402D01*
X165122119Y-87228400D01*
X165123543Y-87223087D01*
X165143498Y-86995000D01*
X165123543Y-86766913D01*
X165118241Y-86747127D01*
X165072439Y-86576191D01*
X165074129Y-86505215D01*
X165080355Y-86495000D01*
X170186693Y-86495000D01*
X170205885Y-86714371D01*
X170262880Y-86927076D01*
X170297107Y-87000476D01*
X170353618Y-87121666D01*
X170353621Y-87121671D01*
X170355944Y-87126653D01*
X170359100Y-87131160D01*
X170359101Y-87131162D01*
X170419631Y-87217607D01*
X170482251Y-87307038D01*
X170637962Y-87462749D01*
X170642471Y-87465906D01*
X170642473Y-87465908D01*
X170697271Y-87504278D01*
X170818346Y-87589056D01*
X171017924Y-87682120D01*
X171230629Y-87739115D01*
X171450000Y-87758307D01*
X171669371Y-87739115D01*
X171882076Y-87682120D01*
X172081654Y-87589056D01*
X172202729Y-87504278D01*
X172257527Y-87465908D01*
X172257529Y-87465906D01*
X172262038Y-87462749D01*
X172417749Y-87307038D01*
X172480370Y-87217607D01*
X172540899Y-87131162D01*
X172540900Y-87131160D01*
X172544056Y-87126653D01*
X172546379Y-87121671D01*
X172546382Y-87121666D01*
X172602893Y-87000476D01*
X172637120Y-86927076D01*
X172694115Y-86714371D01*
X172713307Y-86495000D01*
X172694115Y-86275629D01*
X172637120Y-86062924D01*
X172573648Y-85926807D01*
X172546382Y-85868334D01*
X172546379Y-85868329D01*
X172544056Y-85863347D01*
X172536012Y-85851859D01*
X172420908Y-85687473D01*
X172420906Y-85687470D01*
X172417749Y-85682962D01*
X172262038Y-85527251D01*
X172081654Y-85400944D01*
X171882076Y-85307880D01*
X171669371Y-85250885D01*
X171450000Y-85231693D01*
X171230629Y-85250885D01*
X171017924Y-85307880D01*
X170924562Y-85351415D01*
X170823334Y-85398618D01*
X170823329Y-85398621D01*
X170818347Y-85400944D01*
X170813840Y-85404100D01*
X170813838Y-85404101D01*
X170642473Y-85524092D01*
X170642470Y-85524094D01*
X170637962Y-85527251D01*
X170482251Y-85682962D01*
X170479094Y-85687470D01*
X170479092Y-85687473D01*
X170363988Y-85851859D01*
X170355944Y-85863347D01*
X170353621Y-85868329D01*
X170353618Y-85868334D01*
X170326352Y-85926807D01*
X170262880Y-86062924D01*
X170205885Y-86275629D01*
X170186693Y-86495000D01*
X165080355Y-86495000D01*
X165105051Y-86454485D01*
X167003631Y-84555905D01*
X167065943Y-84521879D01*
X167092726Y-84519000D01*
X174469401Y-84519000D01*
X174477971Y-84519292D01*
X174527277Y-84522654D01*
X174527281Y-84522654D01*
X174534852Y-84523170D01*
X174542328Y-84521865D01*
X174542332Y-84521865D01*
X174596924Y-84512337D01*
X174603449Y-84511374D01*
X174658418Y-84504722D01*
X174658420Y-84504721D01*
X174665960Y-84503809D01*
X174673062Y-84501125D01*
X174676500Y-84500281D01*
X174690623Y-84496417D01*
X174694034Y-84495387D01*
X174701517Y-84494081D01*
X174759197Y-84468761D01*
X174765304Y-84466270D01*
X174817117Y-84446691D01*
X174817118Y-84446690D01*
X174824222Y-84444006D01*
X174830477Y-84439707D01*
X174833618Y-84438065D01*
X174846372Y-84430967D01*
X174849478Y-84429130D01*
X174856433Y-84426077D01*
X174862460Y-84421452D01*
X174862464Y-84421450D01*
X174906402Y-84387735D01*
X174911720Y-84383871D01*
X174963652Y-84348179D01*
X175004519Y-84302311D01*
X175009499Y-84297036D01*
X176587264Y-82719271D01*
X176649576Y-82685245D01*
X176660347Y-82683387D01*
X176823847Y-82662442D01*
X177045690Y-82595886D01*
X177050324Y-82593616D01*
X177249049Y-82496262D01*
X177249052Y-82496260D01*
X177253684Y-82493991D01*
X177442243Y-82359494D01*
X177606303Y-82196005D01*
X177741458Y-82007917D01*
X177824477Y-81839941D01*
X177841784Y-81804922D01*
X177841785Y-81804920D01*
X177844078Y-81800280D01*
X177911408Y-81578671D01*
X177941640Y-81349041D01*
X177943327Y-81280000D01*
X177937032Y-81203434D01*
X177924773Y-81054318D01*
X177924772Y-81054312D01*
X177924349Y-81049167D01*
X177873286Y-80845875D01*
X177869184Y-80829544D01*
X177869183Y-80829540D01*
X177867925Y-80824533D01*
X177775570Y-80612131D01*
X177649764Y-80417665D01*
X177617190Y-80381866D01*
X177545211Y-80302763D01*
X177493887Y-80246358D01*
X177489836Y-80243159D01*
X177489832Y-80243155D01*
X177316177Y-80106011D01*
X177316172Y-80106008D01*
X177312123Y-80102810D01*
X177307607Y-80100317D01*
X177307604Y-80100315D01*
X177113879Y-79993373D01*
X177113875Y-79993371D01*
X177109355Y-79990876D01*
X177104486Y-79989152D01*
X177104482Y-79989150D01*
X176895903Y-79915288D01*
X176895899Y-79915287D01*
X176891028Y-79913562D01*
X176885935Y-79912655D01*
X176885932Y-79912654D01*
X176668095Y-79873851D01*
X176668089Y-79873850D01*
X176663006Y-79872945D01*
X176590096Y-79872054D01*
X176436581Y-79870179D01*
X176436579Y-79870179D01*
X176431411Y-79870116D01*
X176202464Y-79905150D01*
X175982314Y-79977106D01*
X175977726Y-79979494D01*
X175977722Y-79979496D01*
X175820467Y-80061358D01*
X175776872Y-80084052D01*
X175772739Y-80087155D01*
X175772736Y-80087157D01*
X175633494Y-80191703D01*
X175591655Y-80223117D01*
X175574170Y-80241414D01*
X175512646Y-80276844D01*
X175441733Y-80273387D01*
X175383947Y-80232141D01*
X175365094Y-80198592D01*
X175343768Y-80141705D01*
X175343767Y-80141703D01*
X175340615Y-80133295D01*
X175253261Y-80016739D01*
X175136705Y-79929385D01*
X175000316Y-79878255D01*
X174938134Y-79871500D01*
X173041866Y-79871500D01*
X172979684Y-79878255D01*
X172843295Y-79929385D01*
X172726739Y-80016739D01*
X172639385Y-80133295D01*
X172588255Y-80269684D01*
X172581500Y-80331866D01*
X172581500Y-82228134D01*
X172588255Y-82290316D01*
X172639385Y-82426705D01*
X172726739Y-82543261D01*
X172843295Y-82630615D01*
X172979684Y-82681745D01*
X173041866Y-82688500D01*
X174336775Y-82688500D01*
X174404896Y-82708502D01*
X174451389Y-82762158D01*
X174461493Y-82832432D01*
X174431999Y-82897012D01*
X174425870Y-82903595D01*
X174245370Y-83084095D01*
X174183058Y-83118121D01*
X174156275Y-83121000D01*
X168742725Y-83121000D01*
X168674604Y-83100998D01*
X168628111Y-83047342D01*
X168618007Y-82977068D01*
X168647501Y-82912488D01*
X168653630Y-82905905D01*
X168832596Y-82726939D01*
X168894908Y-82692913D01*
X168926306Y-82690119D01*
X168942290Y-82690705D01*
X168968949Y-82691683D01*
X168968953Y-82691683D01*
X168974113Y-82691872D01*
X168979233Y-82691216D01*
X168979235Y-82691216D01*
X169067388Y-82679923D01*
X169203847Y-82662442D01*
X169208795Y-82660957D01*
X169208802Y-82660956D01*
X169420747Y-82597369D01*
X169425690Y-82595886D01*
X169430324Y-82593616D01*
X169629049Y-82496262D01*
X169629052Y-82496260D01*
X169633684Y-82493991D01*
X169822243Y-82359494D01*
X169986303Y-82196005D01*
X170121458Y-82007917D01*
X170204477Y-81839941D01*
X170221784Y-81804922D01*
X170221785Y-81804920D01*
X170224078Y-81800280D01*
X170291408Y-81578671D01*
X170321640Y-81349041D01*
X170323327Y-81280000D01*
X170317032Y-81203434D01*
X170304773Y-81054318D01*
X170304772Y-81054312D01*
X170304349Y-81049167D01*
X170253286Y-80845875D01*
X170249184Y-80829544D01*
X170249183Y-80829540D01*
X170247925Y-80824533D01*
X170155570Y-80612131D01*
X170029764Y-80417665D01*
X169997190Y-80381866D01*
X169925211Y-80302763D01*
X169873887Y-80246358D01*
X169869836Y-80243159D01*
X169869832Y-80243155D01*
X169696177Y-80106011D01*
X169696172Y-80106008D01*
X169692123Y-80102810D01*
X169687607Y-80100317D01*
X169687604Y-80100315D01*
X169493879Y-79993373D01*
X169493875Y-79993371D01*
X169489355Y-79990876D01*
X169484486Y-79989152D01*
X169484482Y-79989150D01*
X169275903Y-79915288D01*
X169275899Y-79915287D01*
X169271028Y-79913562D01*
X169265935Y-79912655D01*
X169265932Y-79912654D01*
X169048095Y-79873851D01*
X169048089Y-79873850D01*
X169043006Y-79872945D01*
X168970096Y-79872054D01*
X168816581Y-79870179D01*
X168816579Y-79870179D01*
X168811411Y-79870116D01*
X168582464Y-79905150D01*
X168362314Y-79977106D01*
X168357726Y-79979494D01*
X168357722Y-79979496D01*
X168200467Y-80061358D01*
X168156872Y-80084052D01*
X168152739Y-80087155D01*
X168152736Y-80087157D01*
X168013494Y-80191703D01*
X167971655Y-80223117D01*
X167954170Y-80241414D01*
X167892646Y-80276844D01*
X167821733Y-80273387D01*
X167763947Y-80232141D01*
X167745094Y-80198592D01*
X167723768Y-80141705D01*
X167723767Y-80141703D01*
X167720615Y-80133295D01*
X167633261Y-80016739D01*
X167516705Y-79929385D01*
X167380316Y-79878255D01*
X167318134Y-79871500D01*
X165421866Y-79871500D01*
X165359684Y-79878255D01*
X165223295Y-79929385D01*
X165106739Y-80016739D01*
X165019385Y-80133295D01*
X164968255Y-80269684D01*
X164961500Y-80331866D01*
X164961500Y-82228134D01*
X164968255Y-82290316D01*
X165019385Y-82426705D01*
X165106739Y-82543261D01*
X165223295Y-82630615D01*
X165359684Y-82681745D01*
X165421866Y-82688500D01*
X166589775Y-82688500D01*
X166657896Y-82708502D01*
X166704389Y-82762158D01*
X166714493Y-82832432D01*
X166684999Y-82897012D01*
X166678870Y-82903595D01*
X166310472Y-83271993D01*
X166292746Y-83286737D01*
X166285348Y-83291821D01*
X166280296Y-83297491D01*
X166280295Y-83297492D01*
X166244482Y-83337688D01*
X166239501Y-83342964D01*
X163936801Y-85645664D01*
X163874489Y-85679690D01*
X163840982Y-85681820D01*
X163840982Y-85681981D01*
X163838444Y-85681981D01*
X163836729Y-85682090D01*
X163835483Y-85681981D01*
X163835475Y-85681981D01*
X163830000Y-85681502D01*
X163824525Y-85681981D01*
X163824524Y-85681981D01*
X163706493Y-85692307D01*
X163636888Y-85678318D01*
X163606417Y-85655881D01*
X161296497Y-83345962D01*
X161290643Y-83339696D01*
X161258152Y-83302451D01*
X161253158Y-83296726D01*
X161201622Y-83260506D01*
X161196326Y-83256573D01*
X161152737Y-83222394D01*
X161152734Y-83222392D01*
X161146760Y-83217708D01*
X161139836Y-83214582D01*
X161136801Y-83212744D01*
X161124102Y-83205500D01*
X161120954Y-83203812D01*
X161114739Y-83199444D01*
X161056050Y-83176562D01*
X161050005Y-83174022D01*
X160992565Y-83148087D01*
X160985092Y-83146702D01*
X160981674Y-83145631D01*
X160967685Y-83141646D01*
X160964193Y-83140749D01*
X160957111Y-83137988D01*
X160949578Y-83136996D01*
X160949577Y-83136996D01*
X160894670Y-83129767D01*
X160888157Y-83128735D01*
X160833682Y-83118639D01*
X160833680Y-83118639D01*
X160826213Y-83117255D01*
X160818633Y-83117692D01*
X160818632Y-83117692D01*
X160764888Y-83120791D01*
X160757635Y-83121000D01*
X151089725Y-83121000D01*
X151021604Y-83100998D01*
X150975111Y-83047342D01*
X150965007Y-82977068D01*
X150994501Y-82912488D01*
X151000630Y-82905905D01*
X151187264Y-82719271D01*
X151249576Y-82685245D01*
X151260347Y-82683387D01*
X151423847Y-82662442D01*
X151645690Y-82595886D01*
X151650324Y-82593616D01*
X151849049Y-82496262D01*
X151849052Y-82496260D01*
X151853684Y-82493991D01*
X152042243Y-82359494D01*
X152206303Y-82196005D01*
X152219145Y-82178134D01*
X156121500Y-82178134D01*
X156128255Y-82240316D01*
X156179385Y-82376705D01*
X156266739Y-82493261D01*
X156383295Y-82580615D01*
X156519684Y-82631745D01*
X156581866Y-82638500D01*
X158378134Y-82638500D01*
X158440316Y-82631745D01*
X158576705Y-82580615D01*
X158693261Y-82493261D01*
X158780615Y-82376705D01*
X158802945Y-82317139D01*
X158824798Y-82258848D01*
X158867440Y-82202084D01*
X158934001Y-82177384D01*
X159003350Y-82192592D01*
X159038017Y-82220580D01*
X159063218Y-82249673D01*
X159070580Y-82256883D01*
X159234434Y-82392916D01*
X159242881Y-82398831D01*
X159426756Y-82506279D01*
X159436042Y-82510729D01*
X159635001Y-82586703D01*
X159644899Y-82589579D01*
X159748250Y-82610606D01*
X159762299Y-82609410D01*
X159766000Y-82599065D01*
X159766000Y-82598517D01*
X160274000Y-82598517D01*
X160278064Y-82612359D01*
X160291478Y-82614393D01*
X160298184Y-82613534D01*
X160308262Y-82611392D01*
X160512255Y-82550191D01*
X160521842Y-82546433D01*
X160713095Y-82452739D01*
X160721945Y-82447464D01*
X160895328Y-82323792D01*
X160903200Y-82317139D01*
X161054052Y-82166812D01*
X161060730Y-82158965D01*
X161185003Y-81986020D01*
X161190313Y-81977183D01*
X161284670Y-81786267D01*
X161288469Y-81776672D01*
X161350377Y-81572910D01*
X161352555Y-81562837D01*
X161353986Y-81551962D01*
X161351775Y-81537778D01*
X161338617Y-81534000D01*
X160292115Y-81534000D01*
X160276876Y-81538475D01*
X160275671Y-81539865D01*
X160274000Y-81547548D01*
X160274000Y-82598517D01*
X159766000Y-82598517D01*
X159766000Y-81007885D01*
X160274000Y-81007885D01*
X160278475Y-81023124D01*
X160279865Y-81024329D01*
X160287548Y-81026000D01*
X161338344Y-81026000D01*
X161351875Y-81022027D01*
X161353180Y-81012947D01*
X161311214Y-80845875D01*
X161307894Y-80836124D01*
X161222972Y-80640814D01*
X161218105Y-80631739D01*
X161102426Y-80452926D01*
X161096136Y-80444757D01*
X160952806Y-80287240D01*
X160945273Y-80280215D01*
X160778139Y-80148222D01*
X160769552Y-80142517D01*
X160583117Y-80039599D01*
X160573705Y-80035369D01*
X160372959Y-79964280D01*
X160362988Y-79961646D01*
X160291837Y-79948972D01*
X160278540Y-79950432D01*
X160274000Y-79964989D01*
X160274000Y-81007885D01*
X159766000Y-81007885D01*
X159766000Y-79963102D01*
X159762082Y-79949758D01*
X159747806Y-79947771D01*
X159709324Y-79953660D01*
X159699288Y-79956051D01*
X159496868Y-80022212D01*
X159487359Y-80026209D01*
X159298463Y-80124542D01*
X159289738Y-80130036D01*
X159119433Y-80257905D01*
X159111726Y-80264748D01*
X159034478Y-80345584D01*
X158972954Y-80381014D01*
X158902042Y-80377557D01*
X158844255Y-80336311D01*
X158825402Y-80302763D01*
X158783767Y-80191703D01*
X158780615Y-80183295D01*
X158693261Y-80066739D01*
X158576705Y-79979385D01*
X158440316Y-79928255D01*
X158378134Y-79921500D01*
X156581866Y-79921500D01*
X156519684Y-79928255D01*
X156383295Y-79979385D01*
X156266739Y-80066739D01*
X156179385Y-80183295D01*
X156128255Y-80319684D01*
X156121500Y-80381866D01*
X156121500Y-82178134D01*
X152219145Y-82178134D01*
X152341458Y-82007917D01*
X152424477Y-81839941D01*
X152441784Y-81804922D01*
X152441785Y-81804920D01*
X152444078Y-81800280D01*
X152511408Y-81578671D01*
X152541640Y-81349041D01*
X152543327Y-81280000D01*
X152537032Y-81203434D01*
X152524773Y-81054318D01*
X152524772Y-81054312D01*
X152524349Y-81049167D01*
X152473286Y-80845875D01*
X152469184Y-80829544D01*
X152469183Y-80829540D01*
X152467925Y-80824533D01*
X152375570Y-80612131D01*
X152249764Y-80417665D01*
X152217190Y-80381866D01*
X152145211Y-80302763D01*
X152093887Y-80246358D01*
X152089836Y-80243159D01*
X152089832Y-80243155D01*
X151916177Y-80106011D01*
X151916172Y-80106008D01*
X151912123Y-80102810D01*
X151907607Y-80100317D01*
X151907604Y-80100315D01*
X151713879Y-79993373D01*
X151713875Y-79993371D01*
X151709355Y-79990876D01*
X151704486Y-79989152D01*
X151704482Y-79989150D01*
X151495903Y-79915288D01*
X151495899Y-79915287D01*
X151491028Y-79913562D01*
X151485935Y-79912655D01*
X151485932Y-79912654D01*
X151268095Y-79873851D01*
X151268089Y-79873850D01*
X151263006Y-79872945D01*
X151190096Y-79872054D01*
X151036581Y-79870179D01*
X151036579Y-79870179D01*
X151031411Y-79870116D01*
X150802464Y-79905150D01*
X150582314Y-79977106D01*
X150577726Y-79979494D01*
X150577722Y-79979496D01*
X150420467Y-80061358D01*
X150376872Y-80084052D01*
X150372739Y-80087155D01*
X150372736Y-80087157D01*
X150233494Y-80191703D01*
X150191655Y-80223117D01*
X150174170Y-80241414D01*
X150112646Y-80276844D01*
X150041733Y-80273387D01*
X149983947Y-80232141D01*
X149965094Y-80198592D01*
X149943768Y-80141705D01*
X149943767Y-80141703D01*
X149940615Y-80133295D01*
X149853261Y-80016739D01*
X149736705Y-79929385D01*
X149600316Y-79878255D01*
X149538134Y-79871500D01*
X147641866Y-79871500D01*
X147579684Y-79878255D01*
X147443295Y-79929385D01*
X147326739Y-80016739D01*
X147239385Y-80133295D01*
X147188255Y-80269684D01*
X147181500Y-80331866D01*
X147181500Y-82228134D01*
X147188255Y-82290316D01*
X147239385Y-82426705D01*
X147326739Y-82543261D01*
X147443295Y-82630615D01*
X147579684Y-82681745D01*
X147641866Y-82688500D01*
X148936775Y-82688500D01*
X149004896Y-82708502D01*
X149051389Y-82762158D01*
X149061493Y-82832432D01*
X149031999Y-82897012D01*
X149025870Y-82903595D01*
X148845370Y-83084095D01*
X148783058Y-83118121D01*
X148756275Y-83121000D01*
X146137726Y-83121000D01*
X146069605Y-83100998D01*
X146048631Y-83084095D01*
X145457797Y-82493261D01*
X144863697Y-81899162D01*
X144829672Y-81836850D01*
X144832233Y-81773439D01*
X144889905Y-81583617D01*
X144891408Y-81578671D01*
X144921640Y-81349041D01*
X144923327Y-81280000D01*
X144917032Y-81203434D01*
X144904773Y-81054318D01*
X144904772Y-81054312D01*
X144904349Y-81049167D01*
X144853286Y-80845875D01*
X144849184Y-80829544D01*
X144849183Y-80829540D01*
X144847925Y-80824533D01*
X144755570Y-80612131D01*
X144629764Y-80417665D01*
X144597190Y-80381866D01*
X144525211Y-80302763D01*
X144473887Y-80246358D01*
X144469836Y-80243159D01*
X144469832Y-80243155D01*
X144296177Y-80106011D01*
X144296172Y-80106008D01*
X144292123Y-80102810D01*
X144287607Y-80100317D01*
X144287604Y-80100315D01*
X144093879Y-79993373D01*
X144093875Y-79993371D01*
X144089355Y-79990876D01*
X144084486Y-79989152D01*
X144084482Y-79989150D01*
X143875903Y-79915288D01*
X143875899Y-79915287D01*
X143871028Y-79913562D01*
X143865935Y-79912655D01*
X143865932Y-79912654D01*
X143648095Y-79873851D01*
X143648089Y-79873850D01*
X143643006Y-79872945D01*
X143570096Y-79872054D01*
X143416581Y-79870179D01*
X143416579Y-79870179D01*
X143411411Y-79870116D01*
X143182464Y-79905150D01*
X142962314Y-79977106D01*
X142957726Y-79979494D01*
X142957722Y-79979496D01*
X142800467Y-80061358D01*
X142756872Y-80084052D01*
X142752739Y-80087155D01*
X142752736Y-80087157D01*
X142613494Y-80191703D01*
X142571655Y-80223117D01*
X142554170Y-80241414D01*
X142492646Y-80276844D01*
X142421733Y-80273387D01*
X142363947Y-80232141D01*
X142345094Y-80198592D01*
X142323768Y-80141705D01*
X142323767Y-80141703D01*
X142320615Y-80133295D01*
X142233261Y-80016739D01*
X142116705Y-79929385D01*
X141980316Y-79878255D01*
X141918134Y-79871500D01*
X140021866Y-79871500D01*
X139959684Y-79878255D01*
X139823295Y-79929385D01*
X139706739Y-80016739D01*
X139619385Y-80133295D01*
X139568255Y-80269684D01*
X139561500Y-80331866D01*
X139561500Y-82228134D01*
X139568255Y-82290316D01*
X139619385Y-82426705D01*
X139706739Y-82543261D01*
X139823295Y-82630615D01*
X139959684Y-82681745D01*
X140021866Y-82688500D01*
X141918134Y-82688500D01*
X141980316Y-82681745D01*
X142116705Y-82630615D01*
X142233261Y-82543261D01*
X142320615Y-82426705D01*
X142345180Y-82361178D01*
X142387822Y-82304414D01*
X142454383Y-82279714D01*
X142523732Y-82294921D01*
X142543647Y-82308464D01*
X142645370Y-82392916D01*
X142699349Y-82437730D01*
X142899322Y-82554584D01*
X142904147Y-82556426D01*
X142904148Y-82556427D01*
X142967490Y-82580615D01*
X143115694Y-82637209D01*
X143120760Y-82638240D01*
X143120761Y-82638240D01*
X143122039Y-82638500D01*
X143342656Y-82683385D01*
X143471434Y-82688107D01*
X143568949Y-82691683D01*
X143568953Y-82691683D01*
X143574113Y-82691872D01*
X143579232Y-82691216D01*
X143579237Y-82691216D01*
X143606029Y-82687784D01*
X143676139Y-82698969D01*
X143711133Y-82723668D01*
X145163370Y-84175905D01*
X145197396Y-84238217D01*
X145192331Y-84309032D01*
X145149784Y-84365868D01*
X145083264Y-84390679D01*
X145074275Y-84391000D01*
X145062589Y-84391000D01*
X145054019Y-84390708D01*
X145004724Y-84387347D01*
X145004720Y-84387347D01*
X144997148Y-84386831D01*
X144989671Y-84388136D01*
X144989670Y-84388136D01*
X144962380Y-84392899D01*
X144935085Y-84397663D01*
X144928568Y-84398624D01*
X144914461Y-84400331D01*
X144873582Y-84405278D01*
X144873579Y-84405279D01*
X144866040Y-84406191D01*
X144858931Y-84408877D01*
X144855488Y-84409723D01*
X144841363Y-84413586D01*
X144837958Y-84414614D01*
X144830482Y-84415919D01*
X144772810Y-84441235D01*
X144766715Y-84443723D01*
X144714880Y-84463310D01*
X144714878Y-84463311D01*
X144707778Y-84465994D01*
X144701526Y-84470291D01*
X144698383Y-84471934D01*
X144685635Y-84479029D01*
X144682523Y-84480870D01*
X144675567Y-84483923D01*
X144669539Y-84488549D01*
X144669538Y-84488549D01*
X144659284Y-84496417D01*
X144629435Y-84519321D01*
X144625602Y-84522262D01*
X144620266Y-84526139D01*
X144576956Y-84555905D01*
X144568348Y-84561821D01*
X144563296Y-84567491D01*
X144563295Y-84567492D01*
X144527490Y-84607679D01*
X144522509Y-84612955D01*
X143010245Y-86125220D01*
X141693595Y-87441870D01*
X141631283Y-87475896D01*
X141560468Y-87470831D01*
X141503632Y-87428284D01*
X141478821Y-87361764D01*
X141478500Y-87352775D01*
X141478500Y-86368623D01*
X141478502Y-86367853D01*
X141478800Y-86319102D01*
X141478976Y-86290279D01*
X141470850Y-86261847D01*
X141467272Y-86245085D01*
X141464352Y-86224698D01*
X141463080Y-86215813D01*
X141452451Y-86192436D01*
X141446004Y-86174913D01*
X141441416Y-86158862D01*
X141438949Y-86150229D01*
X141434156Y-86142632D01*
X141423170Y-86125220D01*
X141415030Y-86110135D01*
X141412564Y-86104711D01*
X141402792Y-86083218D01*
X141386030Y-86063765D01*
X141374927Y-86048761D01*
X141361224Y-86027042D01*
X141354499Y-86021103D01*
X141354496Y-86021099D01*
X141339062Y-86007468D01*
X141327018Y-85995276D01*
X141313573Y-85979673D01*
X141313570Y-85979671D01*
X141307713Y-85972873D01*
X141294009Y-85963990D01*
X141286165Y-85958906D01*
X141271291Y-85947615D01*
X141258783Y-85936569D01*
X141258782Y-85936568D01*
X141252049Y-85930622D01*
X141225287Y-85918057D01*
X141210309Y-85909737D01*
X141193017Y-85898529D01*
X141193012Y-85898527D01*
X141185485Y-85893648D01*
X141176892Y-85891078D01*
X141176887Y-85891076D01*
X141160880Y-85886289D01*
X141143436Y-85879628D01*
X141128324Y-85872533D01*
X141128322Y-85872532D01*
X141120200Y-85868719D01*
X141111333Y-85867338D01*
X141111332Y-85867338D01*
X141100478Y-85865648D01*
X141090983Y-85864170D01*
X141074268Y-85860387D01*
X141054534Y-85854485D01*
X141054528Y-85854484D01*
X141045934Y-85851914D01*
X141036963Y-85851859D01*
X141036962Y-85851859D01*
X141026903Y-85851798D01*
X141011494Y-85851704D01*
X141010711Y-85851671D01*
X141009614Y-85851500D01*
X140978623Y-85851500D01*
X140977853Y-85851498D01*
X140904215Y-85851048D01*
X140904214Y-85851048D01*
X140900279Y-85851024D01*
X140898935Y-85851408D01*
X140897590Y-85851500D01*
X139064500Y-85851500D01*
X138996379Y-85831498D01*
X138949886Y-85777842D01*
X138938500Y-85725500D01*
X138938500Y-80063250D01*
X138940246Y-80042345D01*
X138942770Y-80027344D01*
X138942770Y-80027341D01*
X138943576Y-80022552D01*
X138943729Y-80010000D01*
X138942003Y-79997947D01*
X138941001Y-79971845D01*
X138955340Y-79753078D01*
X138957491Y-79736738D01*
X139006111Y-79492307D01*
X139010375Y-79476394D01*
X139090485Y-79240398D01*
X139096791Y-79225174D01*
X139207016Y-79001658D01*
X139215257Y-78987384D01*
X139353713Y-78780171D01*
X139363746Y-78767095D01*
X139528068Y-78579722D01*
X139539722Y-78568068D01*
X139727095Y-78403746D01*
X139740171Y-78393713D01*
X139947384Y-78255257D01*
X139961658Y-78247016D01*
X140185174Y-78136791D01*
X140200400Y-78130484D01*
X140436394Y-78050375D01*
X140452304Y-78046112D01*
X140574522Y-78021801D01*
X140696738Y-77997491D01*
X140713078Y-77995340D01*
X140861866Y-77985587D01*
X140928237Y-77981237D01*
X140951350Y-77982267D01*
X140954854Y-77982310D01*
X140963724Y-77983691D01*
X140972626Y-77982527D01*
X140972628Y-77982527D01*
X140989449Y-77980327D01*
X140995286Y-77979564D01*
X141011621Y-77978500D01*
X176480633Y-77978500D01*
X176500018Y-77980000D01*
G37*
G04 #@! TD.AperFunction*
M02*
