%FSLAX45Y45*%
G04 Gerber Fmt 4.5, Leading zero omitted, Abs format (unit mm)*
G04 Created by KiCad (PCBNEW (6.0.6)) date 2022-07-01 01:06:25*
%MOMM*%
%LPD*%
G01*
G04 APERTURE LIST*
%TA.AperFunction,Profile*%
%ADD10C,0.050000*%
%TD*%
%ADD11C,0.200000*%
G04 APERTURE END LIST*
D10*
X17907000Y-9017000D02*
X17907000Y-9652000D01*
X13843000Y-8636000D02*
X13843000Y-8001000D01*
X13843000Y-9652000D02*
X13843000Y-9017000D01*
X14097000Y-9017000D02*
X14097000Y-8636000D01*
X17907000Y-8001000D02*
G75*
G03*
X17653000Y-7747000I-254000J0D01*
G01*
X17653000Y-8636000D02*
X17653000Y-9017000D01*
X17907000Y-8001000D02*
X17907000Y-8636000D01*
X13843000Y-9652000D02*
G75*
G03*
X14097000Y-9906000I254000J0D01*
G01*
X17653000Y-9906000D02*
G75*
G03*
X17907000Y-9652000I0J254000D01*
G01*
X17653000Y-9017000D02*
X17907000Y-9017000D01*
X14097000Y-7747000D02*
X17653000Y-7747000D01*
X14097000Y-8636000D02*
X13843000Y-8636000D01*
X13843000Y-9017000D02*
X14097000Y-9017000D01*
X17653000Y-9906000D02*
X14097000Y-9906000D01*
X17907000Y-8636000D02*
X17653000Y-8636000D01*
X14097000Y-7747000D02*
G75*
G03*
X13843000Y-8001000I0J-254000D01*
G01*
D11*
X14098119Y-10218976D02*
X14098119Y-10018976D01*
X14145738Y-10018976D01*
X14174309Y-10028500D01*
X14193357Y-10047548D01*
X14202881Y-10066595D01*
X14212405Y-10104690D01*
X14212405Y-10133262D01*
X14202881Y-10171357D01*
X14193357Y-10190405D01*
X14174309Y-10209452D01*
X14145738Y-10218976D01*
X14098119Y-10218976D01*
X14298119Y-10218976D02*
X14298119Y-10085643D01*
X14298119Y-10123738D02*
X14307643Y-10104690D01*
X14317167Y-10095167D01*
X14336214Y-10085643D01*
X14355262Y-10085643D01*
X14421928Y-10218976D02*
X14421928Y-10085643D01*
X14421928Y-10018976D02*
X14412405Y-10028500D01*
X14421928Y-10038024D01*
X14431452Y-10028500D01*
X14421928Y-10018976D01*
X14421928Y-10038024D01*
X14545738Y-10218976D02*
X14526690Y-10209452D01*
X14517167Y-10190405D01*
X14517167Y-10018976D01*
X14650500Y-10218976D02*
X14631452Y-10209452D01*
X14621928Y-10190405D01*
X14621928Y-10018976D01*
X14879071Y-10218976D02*
X14879071Y-10018976D01*
X14945738Y-10161833D01*
X15012405Y-10018976D01*
X15012405Y-10218976D01*
X15193357Y-10218976D02*
X15193357Y-10114214D01*
X15183833Y-10095167D01*
X15164786Y-10085643D01*
X15126690Y-10085643D01*
X15107643Y-10095167D01*
X15193357Y-10209452D02*
X15174309Y-10218976D01*
X15126690Y-10218976D01*
X15107643Y-10209452D01*
X15098119Y-10190405D01*
X15098119Y-10171357D01*
X15107643Y-10152310D01*
X15126690Y-10142786D01*
X15174309Y-10142786D01*
X15193357Y-10133262D01*
X15288595Y-10085643D02*
X15288595Y-10285643D01*
X15288595Y-10095167D02*
X15307643Y-10085643D01*
X15345738Y-10085643D01*
X15364786Y-10095167D01*
X15374309Y-10104690D01*
X15383833Y-10123738D01*
X15383833Y-10180881D01*
X15374309Y-10199929D01*
X15364786Y-10209452D01*
X15345738Y-10218976D01*
X15307643Y-10218976D01*
X15288595Y-10209452D01*
X15469548Y-10199929D02*
X15479071Y-10209452D01*
X15469548Y-10218976D01*
X15460024Y-10209452D01*
X15469548Y-10199929D01*
X15469548Y-10218976D01*
X15469548Y-10095167D02*
X15479071Y-10104690D01*
X15469548Y-10114214D01*
X15460024Y-10104690D01*
X15469548Y-10095167D01*
X15469548Y-10114214D01*
M02*
