M48
; DRILL file {KiCad (6.0.6)} date Fri 01 Jul 2022 01:06:25 AM EDT
; FORMAT={-:-/ absolute / inch / decimal}
; #@! TF.CreationDate,2022-07-01T01:06:25-04:00
; #@! TF.GenerationSoftware,Kicad,Pcbnew,(6.0.6)
; #@! TF.FileFunction,Plated,1,2,PTH
FMAT,2
INCH
; #@! TA.AperFunction,Plated,PTH,ComponentDrill
T1C0.0315
; #@! TA.AperFunction,Plated,PTH,ComponentDrill
T2C0.0354
; #@! TA.AperFunction,Plated,PTH,ComponentDrill
T3C0.0394
%
G90
G05
T1
X5.5Y-3.65
X5.5Y-3.8
X5.65Y-3.5053
X5.75Y-3.4053
X5.85Y-3.5053
X5.9Y-3.65
X5.9Y-3.8
X6.05Y-3.425
X6.1Y-3.65
X6.1Y-3.7484
X6.4Y-3.65
X6.4Y-3.7484
X6.45Y-3.425
X6.6Y-3.65
X6.6Y-3.8
X6.65Y-3.5053
X6.75Y-3.4053
X6.85Y-3.5053
X7.0Y-3.65
X7.0Y-3.8
T2
X5.55Y-3.2
X5.65Y-3.2
X5.85Y-3.2
X5.95Y-3.2
X6.55Y-3.2
X6.65Y-3.2
X6.85Y-3.2
X6.95Y-3.2
T3
X6.2Y-3.2
X6.3Y-3.2
T0
M30
