M48
; DRILL file {KiCad 5.1.6+dfsg1-1} date Sat Jun 27 19:18:31 2020
; FORMAT={-:-/ absolute / inch / decimal}
; #@! TF.CreationDate,2020-06-27T19:18:31-04:00
; #@! TF.GenerationSoftware,Kicad,Pcbnew,5.1.6+dfsg1-1
; #@! TF.FileFunction,Plated,1,2,PTH
FMAT,2
INCH
T1C0.0295
T2C0.0315
T3C0.0354
T4C0.0394
%
G90
G05
T1
X6.7Y-3.5
X6.75Y-3.45
X6.8Y-3.5
X5.7Y-3.5
X5.75Y-3.45
X5.8Y-3.5
T2
X6.4Y-3.65
X6.4Y-3.7484
X6.1Y-3.65
X6.1Y-3.7484
X5.5Y-3.65
X5.9Y-3.65
X5.5Y-3.8
X5.9Y-3.8
X6.6Y-3.65
X7.0Y-3.65
X6.6Y-3.8
X7.0Y-3.8
X6.05Y-3.42
X6.45Y-3.42
T3
X6.85Y-3.2
X6.95Y-3.2
X5.55Y-3.2
X5.65Y-3.2
X6.55Y-3.2
X6.65Y-3.2
X5.85Y-3.2
X5.95Y-3.2
T4
X6.2Y-3.2
X6.3Y-3.2
T0
M30
