<?xml version="1.0" standalone="no"?>
 <!DOCTYPE svg PUBLIC "-//W3C//DTD SVG 1.1//EN" 
 "http://www.w3.org/Graphics/SVG/1.1/DTD/svg11.dtd"> 
<svg
  xmlns:svg="http://www.w3.org/2000/svg"
  xmlns="http://www.w3.org/2000/svg"
  xmlns:xlink="http://www.w3.org/1999/xlink"
  version="1.1"
  width="6.852920cm" height="2.540000cm" viewBox="0 0 26980 10000">
<title>SVG Picture created as C-B_SilkS.svg date 2020/07/03 20:33:56 </title>
  <desc>Picture generated by PCBNEW </desc>
<g style="fill:#000000; fill-opacity:1;stroke:#000000; stroke-opacity:1;
stroke-linecap:round; stroke-linejoin:round;"
 transform="translate(0 0) scale(1 1)">
</g>
<g style="fill:#000000; fill-opacity:0.0; 
stroke:#000000; stroke-width:-0.000393701; stroke-opacity:1; 
stroke-linecap:round; stroke-linejoin:round;">
</g>
<g style="fill:#840084; fill-opacity:0.0; 
stroke:#840084; stroke-width:-0.000393701; stroke-opacity:1; 
stroke-linecap:round; stroke-linejoin:round;">
</g>
<g style="fill:#840084; fill-opacity:0.0; 
stroke:#840084; stroke-width:59.0551; stroke-opacity:1; 
stroke-linecap:round; stroke-linejoin:round;">
<text x="14744.3" y="2196.85"
textLength="487.439" font-size="524.934" lengthAdjust="spacingAndGlyphs"
text-anchor="middle" opacity="0">-</text>
<path d="M14594 2028
L14894 2028
" />
<text x="11744.3" y="2196.85"
textLength="564.211" font-size="524.934" lengthAdjust="spacingAndGlyphs"
text-anchor="middle" opacity="0">+</text>
<path d="M11594 2028
L11894 2028
" />
<path d="M11744 2178
L11744 1878
" />
</g>
<g style="fill:#840084; fill-opacity:0.0; 
stroke:#840084; stroke-width:90; stroke-opacity:1; 
stroke-linecap:round; stroke-linejoin:round;">
<text x="13244.3" y="1250"
textLength="8923.23" font-size="666.667" lengthAdjust="spacingAndGlyphs"
text-anchor="middle" opacity="0">Designed by Electro707</text>
<path d="M17625 1226
L17625 726
L17506 726
L17434 750
L17387 797
L17363 845
L17339 940
L17339 1011
L17363 1107
L17387 1154
L17434 1202
L17506 1226
L17625 1226
" />
<path d="M16934 1202
L16982 1226
L17077 1226
L17125 1202
L17149 1154
L17149 964
L17125 916
L17077 892
L16982 892
L16934 916
L16910 964
L16910 1011
L17149 1059
" />
<path d="M16720 1202
L16672 1226
L16577 1226
L16529 1202
L16506 1154
L16506 1130
L16529 1083
L16577 1059
L16649 1059
L16696 1035
L16720 988
L16720 964
L16696 916
L16649 892
L16577 892
L16529 916
" />
<path d="M16291 1226
L16291 892
" />
<path d="M16291 726
L16315 750
L16291 773
L16268 750
L16291 726
L16291 773
" />
<path d="M15839 892
L15839 1297
L15863 1345
L15887 1369
L15934 1392
L16006 1392
L16053 1369
" />
<path d="M15839 1202
L15887 1226
L15982 1226
L16029 1202
L16053 1178
L16077 1130
L16077 988
L16053 940
L16029 916
L15982 892
L15887 892
L15839 916
" />
<path d="M15601 892
L15601 1226
" />
<path d="M15601 940
L15577 916
L15529 892
L15458 892
L15410 916
L15387 964
L15387 1226
" />
<path d="M14958 1202
L15006 1226
L15101 1226
L15149 1202
L15172 1154
L15172 964
L15149 916
L15101 892
L15006 892
L14958 916
L14934 964
L14934 1011
L15172 1059
" />
<path d="M14506 1226
L14506 726
" />
<path d="M14506 1202
L14553 1226
L14649 1226
L14696 1202
L14720 1178
L14744 1130
L14744 988
L14720 940
L14696 916
L14649 892
L14553 892
L14506 916
" />
<path d="M13887 1226
L13887 726
" />
<path d="M13887 916
L13839 892
L13744 892
L13696 916
L13672 940
L13649 988
L13649 1130
L13672 1178
L13696 1202
L13744 1226
L13839 1226
L13887 1202
" />
<path d="M13482 892
L13363 1226
" />
<path d="M13244 892
L13363 1226
L13410 1345
L13434 1369
L13482 1392
" />
<path d="M12672 964
L12506 964
" />
<path d="M12434 1226
L12672 1226
L12672 726
L12434 726
" />
<path d="M12149 1226
L12196 1202
L12220 1154
L12220 726
" />
<path d="M11768 1202
L11815 1226
L11910 1226
L11958 1202
L11982 1154
L11982 964
L11958 916
L11910 892
L11815 892
L11768 916
L11744 964
L11744 1011
L11982 1059
" />
<path d="M11315 1202
L11363 1226
L11458 1226
L11506 1202
L11529 1178
L11553 1130
L11553 988
L11529 940
L11506 916
L11458 892
L11363 892
L11315 916
" />
<path d="M11172 892
L10982 892
" />
<path d="M11101 726
L11101 1154
L11077 1202
L11029 1226
L10982 1226
" />
<path d="M10815 1226
L10815 892
" />
<path d="M10815 988
L10791 940
L10768 916
L10720 892
L10672 892
" />
<path d="M10434 1226
L10482 1202
L10506 1178
L10529 1130
L10529 988
L10506 940
L10482 916
L10434 892
L10363 892
L10315 916
L10291 940
L10268 988
L10268 1130
L10291 1178
L10315 1202
L10363 1226
L10434 1226
" />
<path d="M10101 726
L9768 726
L9982 1226
" />
<path d="M9482 726
L9434 726
L9387 750
L9363 773
L9339 821
L9315 916
L9315 1035
L9339 1130
L9363 1178
L9387 1202
L9434 1226
L9482 1226
L9529 1202
L9553 1178
L9577 1130
L9601 1035
L9601 916
L9577 821
L9553 773
L9529 750
L9482 726
" />
<path d="M9149 726
L8815 726
L9029 1226
" />
</g>
<g style="fill:#840084; fill-opacity:1.0; 
stroke:#840084; stroke-width:3.93701; stroke-opacity:1; 
stroke-linecap:round; stroke-linejoin:round;">
<path style="fill:#840084; fill-opacity:1.0; 
stroke:#840084; stroke-width:3.93701; stroke-opacity:1; 
stroke-linecap:round; stroke-linejoin:round;fill-rule:evenodd;"
d="M 17792.2,6709.74
17800.7,6735.96
17807.5,6757.5
17815.3,6783.17
17823.9,6812.52
17833.3,6845.09
17843.3,6880.42
17853.8,6918.06
17864.7,6957.54
17875.9,6998.41
17887.1,7040.22
17898.3,7082.5
17909.5,7124.8
17920.3,7166.66
17930.8,7207.63
17940.8,7247.24
17948.5,7278.32
17973.9,7383.56
17997.4,7484.54
18018.8,7581.26
18038.2,7673.73
18055.6,7761.96
18071,7845.96
18084.4,7925.74
18095.8,8001.31
18105.2,8072.68
18112.7,8139.86
18118.1,8202.85
18121.6,8261.67
18122.1,8274.69
18123.7,8320.16
18326.1,8320.16
18326.1,8288.86
18325.7,8255.89
18324.3,8219.1
18322,8178.37
18318.9,8133.56
18314.8,8084.56
18309.7,8031.23
18303.8,7973.44
18301.3,7950.29
18301.2,7947
18302,7947.65
18304,7952.4
18307,7961.42
18310.2,7971.71
18327.7,8022.3
18347.5,8068.8
18369.7,8111.26
18394.2,8149.72
18421.2,8184.23
18450.6,8214.84
18482.5,8241.6
18516.9,8264.55
18539.9,8277.07
18571.6,8291.32
18604.1,8302.54
18638,8310.88
18674,8316.48
18712.9,8319.5
18744.3,8320.16
18785.9,8318.97
18824,8315.3
18859.5,8309.01
18893,8299.93
18925.1,8287.94
18948.6,8277.07
18971,8265.1
18990.9,8252.7
19009.7,8238.94
19028.5,8222.92
19046.3,8206.06
19073.8,8176.19
19098.9,8143.07
19121.8,8106.48
19142.4,8066.18
19161,8021.97
19177.7,7973.62
19178.3,7971.71
19182.3,7959.19
19185.1,7951.07
19186.8,7947.19
19187.5,7947.37
19187.3,7950.29
19181,8009.8
19175.6,8064.81
19171.2,8115.44
19167.6,8161.83
19165,8204.1
19163.3,8242.37
19162.5,8276.78
19162.4,8288.86
19162.4,8320.16
19365.6,8320.16
19365.6,8300.67
19365.9,8287.3
19366.5,8270.2
19367.5,8250.38
19368.7,8228.81
19370.2,8206.48
19371.8,8184.38
19373.6,8163.49
19374,8159.52
19380.4,8097.62
19388.7,8031.55
19398.7,7961.48
19403.3,7932.73
19190.8,7932.73
19189.9,7934.68
19189.2,7934.31
19188.9,7931.5
19189.2,7931.16
19190.6,7931.48
19190.8,7932.73
19403.3,7932.73
19410.6,7887.57
19424.2,7810
19439.5,7728.93
19456.4,7644.52
19475,7556.95
19495.3,7466.38
19517,7372.98
19540.3,7276.92
19565.1,7178.35
19591.4,7077.46
19611.6,7001.95
19618.2,6977.97
19625.3,6952.23
19632.8,6925.34
19640.5,6897.92
19648.3,6870.57
19655.9,6843.93
19663.2,6818.59
19670,6795.17
19676.2,6774.29
19681.5,6756.56
19685.8,6742.6
19686.8,6739.31
19696.3,6709.56
19696.3,6383
19445.9,6383
19445.9,6699.56
18926.2,6699.56
18926.2,6902.73
19395.5,6902.73
19387.5,6930.49
19379.2,6960.04
19370.2,6993.77
19360.7,7031.21
19350.7,7071.89
19340.3,7115.34
19329.7,7161.07
19318.9,7208.62
19308.1,7257.51
19297.4,7307.27
19286.9,7357.43
19280.6,7388.2
19276.8,7407.31
19272.4,7429.45
19267.7,7453.95
19262.7,7480.15
19257.6,7507.37
19252.4,7534.96
19247.4,7562.24
19242.6,7588.55
19238.1,7613.22
19234.2,7635.58
19230.8,7654.97
19228.1,7670.73
19227.1,7677
19225.5,7687.51
19224.1,7696.06
19223.1,7701.72
19222.8,7703.58
19222.8,7701.3
19222.7,7694.79
19222.7,7684.53
19222.7,7671.03
19222.7,7654.78
19222.7,7636.26
19222.7,7615.97
19222.7,7606.13
19222.6,7593.25
18972,7593.25
18972,7618.33
18971.8,7642.93
18971.4,7666.17
18970.8,7687.2
18970,7705.14
18969.1,7717.75
18963.3,7770.33
18955.5,7818.68
18945.7,7862.81
18934,7902.7
18920.2,7938.34
18904.6,7969.74
18886.9,7996.87
18867.3,8019.73
18845.8,8038.3
18822.3,8052.6
18796.9,8062.59
18782.1,8066.24
18764.1,8068.65
18743.9,8069.4
18723.8,8068.5
18708.3,8066.4
18681.5,8058.94
18656.7,8047.19
18633.8,8031.15
18613,8010.83
18594.1,7986.23
18577.2,7957.34
18566.2,7932.73
18300.2,7932.73
18299.3,7934.68
18298.6,7934.31
18298.3,7931.5
18298.6,7931.16
18300,7931.48
18300.2,7932.73
18566.2,7932.73
18562.3,7924.17
18549.4,7886.72
18538.5,7844.99
18529.6,7798.99
18522.6,7748.71
18519.5,7717.75
18518.5,7703.31
18517.8,7685.01
18517.2,7663.72
18516.8,7640.31
18516.6,7615.65
18516.6,7590.59
18516.8,7566.01
18517.2,7542.77
18517.8,7521.74
18518.6,7503.79
18519.5,7490.96
18525.2,7438.59
18532.9,7390.49
18542.5,7346.66
18554.1,7307.06
18567.6,7271.67
18583.1,7240.45
18600.6,7213.38
18620.1,7190.44
18621.1,7189.42
18642.7,7170.72
18666.1,7156.38
18691.4,7146.35
18718.7,7140.57
18744.3,7138.97
18773.5,7141.11
18800.8,7147.54
18826.1,7158.27
18849.4,7173.27
18870.7,7192.57
18890.1,7216.16
18907.4,7244.03
18922.8,7276.19
18936.2,7312.65
18947.6,7353.38
18957,7398.41
18964.5,7447.73
18969.1,7490.96
18970.1,7505.45
18970.8,7523.79
18971.4,7545.11
18971.8,7568.56
18972,7593.25
19222.6,7593.25
19222.6,7574.87
19222.3,7547.54
19221.8,7523.31
19221.1,7501.4
19220,7480.99
19218.5,7461.29
19216.6,7441.48
19214.3,7420.77
19211.5,7398.35
19210.7,7392.28
19201,7332.03
19188.6,7275.38
19173.5,7222.38
19155.7,7173.1
19135.2,7127.59
19112.1,7085.89
19086.3,7048.08
19082.4,7042.94
19072.4,7030.89
19060.4,7017.44
19047.2,7003.67
19034.1,6990.69
19022.1,6979.58
19014.8,6973.46
18980.9,6949.61
18944.3,6929.49
18905.2,6913.22
18864.1,6900.93
18821.1,6892.73
18807.6,6891.05
18792.7,6889.87
18774.6,6889.08
18754.4,6888.69
18733.5,6888.7
18713.4,6889.1
18695.3,6889.9
18681,6891.05
18636.7,6898.04
18594.8,6909.13
18555.2,6924.27
18518,6943.44
18483.3,6966.61
18451,6993.73
18421.1,7024.79
18393.8,7059.74
18369.1,7098.55
18346.9,7141.19
18327.3,7187.63
18310.3,7237.84
18296,7291.78
18289.5,7322.05
18283.7,7352.96
18278.8,7382.93
18274.9,7412.73
18271.7,7443.12
18269.3,7474.86
18267.6,7508.7
18266.5,7545.41
18266,7585.73
18266,7603.9
18265.9,7703.84
18261.7,7678.31
18254.5,7635.49
18246.6,7590.18
18237.9,7542.82
18228.6,7493.89
18218.8,7443.85
18208.7,7393.14
18198.2,7342.23
18187.6,7291.58
18176.8,7241.65
18166.1,7192.9
18155.4,7145.78
18144.9,7100.76
18134.7,7058.29
18124.9,7018.84
18115.6,6982.85
18106.9,6950.8
18102,6933.62
18093,6902.73
18562.4,6902.73
18562.4,6699.56
18042.7,6699.56
18042.7,6383
18642.7,6383
18642.7,6619.24
18845.9,6619.24
18845.9,6383
19445.9,6383
19696.3,6383
19696.3,6179.84
17792.2,6179.84
Z" /> 
</g>
<g style="fill:#840084; fill-opacity:1.0; 
stroke:#840084; stroke-width:47.2441; stroke-opacity:1; 
stroke-linecap:round; stroke-linejoin:round;">
</g>
<g style="fill:#840084; fill-opacity:0.0; 
stroke:#840084; stroke-width:47.2441; stroke-opacity:1; 
stroke-linecap:round; stroke-linejoin:round;">
<path d="M19063 2856
L17449 2856
" />
<path d="M17449 2856
L17449 3643
" />
<path d="M17449 3643
L19063 3643
" />
<path d="M19063 3643
L19063 2856
" />
<path d="M18767 3722
L18886 3840
" />
<path d="M18886 3840
L18649 3840
" />
<path d="M18767 3722
L18649 3840
" />
<path d="M7437 3643
L9051 3643
" />
<path d="M9051 3643
L9051 2856
" />
<path d="M9051 2856
L7437 2856
" />
<path d="M7437 2856
L7437 3643
" />
<path d="M7732 2777
L7614 2659
" />
<path d="M7614 2659
L7850 2659
" />
<path d="M7732 2777
L7850 2659
" />
</g>
<g style="fill:#840084; fill-opacity:0.0; 
stroke:#840084; stroke-width:59.0551; stroke-opacity:1; 
stroke-linecap:round; stroke-linejoin:round;">
<text x="19744.3" y="3446.85"
textLength="951.617" font-size="524.934" lengthAdjust="spacingAndGlyphs"
text-anchor="middle" opacity="0">JP2</text>
<path d="M20072 3034
L20072 3315
L20091 3371
L20128 3409
L20184 3428
L20222 3428
" />
<path d="M19884 3428
L19884 3034
L19734 3034
L19697 3053
L19678 3071
L19659 3109
L19659 3165
L19678 3203
L19697 3221
L19734 3240
L19884 3240
" />
<path d="M19509 3071
L19491 3053
L19453 3034
L19359 3034
L19322 3053
L19303 3071
L19284 3109
L19284 3146
L19303 3203
L19528 3428
L19284 3428
" />
<text x="6744.28" y="3446.85"
textLength="991.845" font-size="524.934" lengthAdjust="spacingAndGlyphs"
text-anchor="middle" opacity="0">JP1</text>
<path d="M7072 3034
L7072 3315
L7091 3371
L7128 3409
L7184 3428
L7222 3428
" />
<path d="M6884 3428
L6884 3034
L6734 3034
L6697 3053
L6678 3071
L6659 3109
L6659 3165
L6678 3203
L6697 3221
L6734 3240
L6884 3240
" />
<path d="M6284 3428
L6509 3428
" />
<path d="M6397 3428
L6397 3034
L6434 3090
L6472 3128
L6509 3146
" />
<g >
</g>
</g>
<g style="fill:#000000; fill-opacity:0.0; 
stroke:#000000; stroke-width:59.0551; stroke-opacity:1; 
stroke-linecap:round; stroke-linejoin:round;">
</g>
<g style="fill:#C2C200; fill-opacity:0.0; 
stroke:#C2C200; stroke-width:59.0551; stroke-opacity:1; 
stroke-linecap:round; stroke-linejoin:round;">
</g>
<g style="fill:#C2C200; fill-opacity:0.0; 
stroke:#C2C200; stroke-width:19.685; stroke-opacity:1; 
stroke-linecap:round; stroke-linejoin:round;">
<circle cx="5244.28" cy="9000" r="262.467" /> 
<path d="M4850 9000
L5637 9000
" />
<path d="M5244 8606
L5244 9393
" />
<path d="M5244 4000
L5244 1500
" />
<path d="M6244 4000
L5244 4000
" />
<path d="M6244 5500
L6244 4000
" />
<path d="M5244 5500
L6244 5500
" />
<path d="M5244 8000
L5244 5500
" />
<path d="M21244 5500
L21244 8000
" />
<path d="M20244 5500
L21244 5500
" />
<path d="M20244 4000
L20244 5500
" />
<path d="M21244 4000
L20244 4000
" />
<path d="M21244 1500
L21244 4000
" />
<path d="M20244.3 9000 A1000 1000 0.0 0 0 21244.3 8000" />
<path d="M5244.28 8000 A1000 1000 0.0 0 0 6244.28 9000" />
<path d="M6244.28 500 A1000 1000 0.0 0 0 5244.28 1500" />
<path d="M21244.3 1500 A1000 1000 0.0 0 0 20244.3 500" />
<path d="M20244 9000
L6244 9000
" />
<path d="M6244 500
L20244 500
" />
<g >
</g>
<g >
</g>
<g >
</g>
<g >
</g>
<g >
</g>
<g >
</g>
<g >
</g>
<g >
</g>
<g >
</g>
<g >
</g>
<g >
</g>
<g >
</g>
<g >
</g>
<g >
</g>
<g >
</g>
<g >
</g>
<g >
</g>
<g >
</g>
<g >
</g>
</g> 
</svg>
