<?xml version="1.0" standalone="no"?>
 <!DOCTYPE svg PUBLIC "-//W3C//DTD SVG 1.1//EN" 
 "http://www.w3.org/Graphics/SVG/1.1/DTD/svg11.dtd"> 
<svg
  xmlns:svg="http://www.w3.org/2000/svg"
  xmlns="http://www.w3.org/2000/svg"
  xmlns:xlink="http://www.w3.org/1999/xlink"
  version="1.1"
  width="6.852920cm" height="2.540000cm" viewBox="0 0 26980 10000">
<title>SVG Picture created as C-B_Mask.svg date 2020/07/03 20:33:56 </title>
  <desc>Picture generated by PCBNEW </desc>
<g style="fill:#000000; fill-opacity:1;stroke:#000000; stroke-opacity:1;
stroke-linecap:round; stroke-linejoin:round;"
 transform="translate(0 0) scale(1 1)">
</g>
<g style="fill:#000000; fill-opacity:0.0; 
stroke:#000000; stroke-width:-0.000393701; stroke-opacity:1; 
stroke-linecap:round; stroke-linejoin:round;">
</g>
<g style="fill:#848400; fill-opacity:0.0; 
stroke:#848400; stroke-width:-0.000393701; stroke-opacity:1; 
stroke-linecap:round; stroke-linejoin:round;">
</g>
<g style="fill:#848400; fill-opacity:0.0; 
stroke:#848400; stroke-width:39.3701; stroke-opacity:1; 
stroke-linecap:round; stroke-linejoin:round;">
</g>
<g style="fill:#848400; fill-opacity:1.0; 
stroke:#848400; stroke-width:39.3701; stroke-opacity:1; 
stroke-linecap:round; stroke-linejoin:round;">
<path style="fill:#848400; fill-opacity:1.0; 
stroke:#848400; stroke-width:39.3701; stroke-opacity:1; 
stroke-linecap:round; stroke-linejoin:round;fill-rule:evenodd;"
d="M 9044.28,3650
7444.28,3650
7444.28,2850
9044.28,2850
Z" /> 
<path style="fill:#848400; fill-opacity:1.0; 
stroke:#848400; stroke-width:39.3701; stroke-opacity:1; 
stroke-linecap:round; stroke-linejoin:round;fill-rule:evenodd;"
d="M 19069.3,3650
17444.3,3650
17444.3,2850
19069.3,2850
Z" /> 
</g>
<g style="fill:#848400; fill-opacity:1.0; 
stroke:#848400; stroke-width:3.93701; stroke-opacity:1; 
stroke-linecap:round; stroke-linejoin:round;">
<path style="fill:#848400; fill-opacity:1.0; 
stroke:#848400; stroke-width:3.93701; stroke-opacity:1; 
stroke-linecap:round; stroke-linejoin:round;fill-rule:evenodd;"
d="M 7525.46,6203.52
7492.46,6378.56
7370.69,6428.76
7248.93,6478.96
7102.85,6379.62
7061.94,6351.97
7024.96,6327.27
6993.63,6306.67
6969.69,6291.28
6954.85,6282.24
6950.81,6280.29
6943.53,6285.31
6927.97,6299.17
6905.89,6320.1
6879.01,6346.35
6849.09,6376.12
6817.87,6407.67
6787.09,6439.2
6758.49,6468.96
6733.83,6495.18
6714.83,6516.07
6703.25,6529.88
6700.49,6534.5
6704.47,6543.02
6715.64,6561.68
6732.81,6588.66
6754.83,6622.13
6780.5,6660.27
6795.38,6682.03
6822.49,6721.75
6846.59,6757.6
6866.5,6787.78
6881.04,6810.52
6889.06,6824.03
6890.27,6826.87
6887.54,6834.94
6880.09,6853.75
6869.05,6880.64
6855.55,6912.99
6840.7,6948.14
6825.63,6983.45
6811.46,7016.27
6799.32,7043.97
6790.33,7063.9
6785.61,7073.41
6785.34,7073.79
6777.93,7075.6
6758.21,7079.66
6728.22,7085.55
6690,7092.87
6645.6,7101.24
6619.7,7106.07
6572.25,7115.1
6529.4,7123.7
6493.31,7131.39
6466.14,7137.7
6450.07,7142.16
6446.84,7143.57
6443.67,7153.15
6441.12,7174.79
6439.18,7205.95
6437.84,7244.1
6437.11,7286.73
6436.98,7331.29
6437.46,7375.25
6438.54,7416.09
6440.21,7451.28
6442.49,7478.28
6445.36,7494.57
6447.08,7497.96
6457.37,7502.02
6479.17,7507.83
6509.59,7514.71
6545.77,7521.96
6558.39,7524.31
6619.27,7535.46
6667.36,7544.44
6704.25,7551.61
6731.53,7557.32
6750.79,7561.93
6763.61,7565.79
6771.59,7569.27
6776.32,7572.73
6776.98,7573.41
6783.58,7584.4
6793.65,7605.79
6806.18,7634.95
6820.16,7669.28
6834.6,7706.14
6848.49,7742.93
6860.82,7777.03
6870.58,7805.8
6876.78,7826.64
6878.4,7836.93
6878.27,7837.29
6872.77,7845.7
6860.3,7864.21
6842.16,7890.88
6819.67,7923.79
6794.14,7961.02
6786.86,7971.6
6760.94,8009.95
6738.12,8044.95
6719.66,8074.57
6706.8,8096.82
6700.78,8109.68
6700.49,8111.26
6705.54,8119.56
6719.52,8136.01
6740.62,8158.84
6767.05,8186.27
6797,8216.55
6828.69,8247.91
6860.31,8278.57
6890.07,8306.77
6916.17,8330.74
6936.81,8348.71
6950.21,8358.92
6953.91,8360.58
6962.53,8356.66
6980.19,8346.07
7004,8330.6
7022.32,8318.16
7055.51,8295.31
7094.82,8268.42
7134.25,8241.57
7155.45,8227.19
7227.21,8178.66
7287.44,8211.23
7314.88,8225.5
7338.21,8236.59
7354,8242.91
7358.02,8243.79
7362.85,8237.29
7372.39,8218.93
7385.91,8190.4
7402.71,8153.39
7422.08,8109.6
7443.3,8060.71
7465.67,8008.44
7488.46,7954.46
7510.98,7900.47
7532.5,7848.17
7552.32,7799.25
7569.72,7755.4
7584,7718.32
7594.44,7689.7
7600.32,7671.24
7601.27,7664.89
7593.77,7656.81
7577.34,7643.67
7555.42,7628.23
7553.58,7627.01
7496.93,7581.66
7451.26,7528.76
7416.95,7469.99
7394.4,7407.05
7384.01,7341.63
7386.18,7275.41
7401.29,7210.1
7429.76,7147.38
7438.13,7133.66
7481.69,7078.24
7533.14,7033.75
7590.71,7000.39
7652.63,6978.42
7717.09,6968.06
7782.34,6969.54
7846.58,6983.09
7908.04,7008.95
7964.92,7047.34
7982.52,7062.92
8027.31,7111.69
8059.94,7163.04
8082.33,7220.6
8094.8,7277.59
8097.88,7341.68
8087.61,7406.08
8065.05,7468.62
8031.23,7527.13
7987.2,7579.42
7934,7623.33
7927.01,7627.96
7904.85,7643.11
7888.01,7656.25
7879.96,7664.63
7879.85,7664.89
7881.57,7673.96
7888.43,7694.55
7899.69,7724.96
7914.65,7763.49
7932.6,7808.46
7952.82,7858.17
7974.61,7910.93
7997.25,7965.05
8020.03,8018.82
8042.24,8070.57
8063.16,8118.58
8082.08,8161.18
8098.3,8196.67
8111.09,8223.36
8119.76,8239.54
8123.24,8243.79
8133.9,8240.48
8153.85,8231.6
8179.64,8218.75
8193.83,8211.23
8254.06,8178.66
8325.81,8227.19
8362.44,8252.06
8402.54,8279.42
8440.12,8305.18
8458.95,8318.16
8485.42,8335.93
8507.84,8350.02
8523.28,8358.64
8528.29,8360.46
8535.59,8355.55
8551.74,8341.83
8575.18,8320.74
8604.34,8293.69
8637.65,8262.12
8658.72,8241.84
8695.59,8205.62
8727.45,8173.23
8753.01,8146.04
8771,8125.45
8780.11,8112.84
8780.99,8110.28
8776.93,8100.55
8765.71,8080.87
8748.59,8053.23
8726.79,8019.64
8701.57,7982.07
8694.4,7971.6
8668.27,7933.53
8644.82,7899.26
8625.38,7870.71
8611.24,7849.8
8603.72,7838.47
8603,7837.29
8604.08,7828.26
8609.85,7808.4
8619.29,7780.33
8631.39,7746.67
8645.17,7710.04
8659.59,7673.06
8673.68,7638.35
8686.41,7608.52
8696.78,7586.19
8703.79,7573.99
8704.28,7573.41
8708.57,7569.92
8715.81,7566.47
8727.59,7562.71
8745.5,7558.27
8771.14,7552.79
8806.08,7545.93
8851.92,7537.32
8910.24,7526.61
8922.87,7524.31
8960.3,7517.08
8992.93,7510
9017.88,7503.77
9032.26,7499.06
9034.19,7497.96
9037.36,7488.22
9039.95,7466.45
9041.93,7435.19
9043.32,7396.97
9044.11,7354.31
9044.3,7309.74
9043.88,7265.8
9042.86,7225.01
9041.23,7189.91
9038.99,7163.02
9036.14,7146.88
9034.43,7143.57
9024.87,7140.24
9003.11,7134.82
8971.31,7127.78
8931.65,7119.59
8886.28,7110.72
8861.57,7106.07
8814.67,7097.3
8772.85,7089.36
8738.15,7082.64
8712.61,7077.55
8698.29,7074.47
8695.93,7073.79
8691.94,7066.1
8683.52,7047.58
8671.78,7020.87
8657.84,6988.62
8642.84,6953.48
8627.89,6918.08
8614.11,6885.09
8602.63,6857.14
8594.57,6836.89
8591.06,6826.97
8591,6826.53
8594.98,6818.71
8606.14,6800.7
8623.31,6774.3
8645.31,6741.29
8670.97,6703.47
8685.89,6681.75
8713.07,6641.92
8737.21,6605.76
8757.14,6575.1
8771.67,6551.76
8779.63,6537.58
8780.78,6534.4
8775.84,6527
8762.18,6511.2
8741.55,6488.78
8715.69,6461.49
8686.35,6431.11
8655.27,6399.42
8624.2,6368.17
8594.87,6339.15
8569.04,6314.11
8548.45,6294.84
8534.85,6283.09
8530.3,6280.29
8522.89,6284.23
8505.16,6295.31
8478.84,6312.38
8445.66,6334.34
8407.33,6360.04
8378.42,6379.62
8232.34,6478.96
7988.81,6378.56
7955.81,6203.52
7922.81,6028.47
7558.46,6028.47
Z" /> 
</g>
<g style="fill:#848400; fill-opacity:1.0; 
stroke:#848400; stroke-width:0; stroke-opacity:1; 
stroke-linecap:round; stroke-linejoin:round;">
<path style="fill:#848400; fill-opacity:1.0; 
stroke:#848400; stroke-width:0; stroke-opacity:1; 
stroke-linecap:round; stroke-linejoin:round;fill-rule:evenodd;"
d="M 20842,7677.84
20903,7703.09
20957.9,7739.76
21004.5,7786.42
21041.2,7841.3
21066.4,7902.27
21079.3,7967
21079.3,8033
21066.4,8097.73
21041.2,8158.7
21004.5,8213.58
20957.9,8260.24
20903,8296.91
20842,8322.16
20777.3,8335.04
20711.3,8335.04
20646.6,8322.16
20585.6,8296.91
20530.7,8260.24
20484,8213.58
20447.4,8158.7
20422.1,8097.73
20409.2,8033
20409.2,7967
20422.1,7902.27
20447.4,7841.3
20484,7786.42
20530.7,7739.76
20585.6,7703.09
20646.6,7677.84
20711.3,7664.96
20777.3,7664.96
Z" /> 
<path style="fill:#848400; fill-opacity:1.0; 
stroke:#848400; stroke-width:0; stroke-opacity:1; 
stroke-linecap:round; stroke-linejoin:round;fill-rule:evenodd;"
d="M 16842,7677.84
16903,7703.09
16957.9,7739.76
17004.5,7786.42
17041.2,7841.3
17066.4,7902.27
17079.3,7967
17079.3,8033
17066.4,8097.73
17041.2,8158.7
17004.5,8213.58
16957.9,8260.24
16903,8296.91
16842,8322.16
16777.3,8335.04
16711.3,8335.04
16646.6,8322.16
16585.6,8296.91
16530.7,8260.24
16484,8213.58
16447.4,8158.7
16422.1,8097.73
16409.2,8033
16409.2,7967
16422.1,7902.27
16447.4,7841.3
16484,7786.42
16530.7,7739.76
16585.6,7703.09
16646.6,7677.84
16711.3,7664.96
16777.3,7664.96
Z" /> 
<path style="fill:#848400; fill-opacity:1.0; 
stroke:#848400; stroke-width:0; stroke-opacity:1; 
stroke-linecap:round; stroke-linejoin:round;fill-rule:evenodd;"
d="M 5842.01,7677.84
5902.98,7703.09
5957.86,7739.76
6004.52,7786.42
6041.19,7841.3
6066.45,7902.27
6079.32,7967
6079.32,8033
6066.45,8097.73
6041.19,8158.7
6004.52,8213.58
5957.86,8260.24
5902.98,8296.91
5842.01,8322.16
5777.28,8335.04
5711.28,8335.04
5646.55,8322.16
5585.58,8296.91
5530.71,8260.24
5484.04,8213.58
5447.37,8158.7
5422.12,8097.73
5409.24,8033
5409.24,7967
5422.12,7902.27
5447.37,7841.3
5484.04,7786.42
5530.71,7739.76
5585.58,7703.09
5646.55,7677.84
5711.28,7664.96
5777.28,7664.96
Z" /> 
<path style="fill:#848400; fill-opacity:1.0; 
stroke:#848400; stroke-width:0; stroke-opacity:1; 
stroke-linecap:round; stroke-linejoin:round;fill-rule:evenodd;"
d="M 9842.01,7677.84
9902.98,7703.09
9957.86,7739.76
10004.5,7786.42
10041.2,7841.3
10066.4,7902.27
10079.3,7967
10079.3,8033
10066.4,8097.73
10041.2,8158.7
10004.5,8213.58
9957.86,8260.24
9902.98,8296.91
9842.01,8322.16
9777.28,8335.04
9711.28,8335.04
9646.55,8322.16
9585.58,8296.91
9530.71,8260.24
9484.04,8213.58
9447.37,8158.7
9422.12,8097.73
9409.24,8033
9409.24,7967
9422.12,7902.27
9447.37,7841.3
9484.04,7786.42
9530.71,7739.76
9585.58,7703.09
9646.55,7677.84
9711.28,7664.96
9777.28,7664.96
Z" /> 
<path style="fill:#848400; fill-opacity:1.0; 
stroke:#848400; stroke-width:0; stroke-opacity:1; 
stroke-linecap:round; stroke-linejoin:round;fill-rule:evenodd;"
d="M 11842,7162.09
11903,7187.34
11957.9,7224.01
12004.5,7270.68
12041.2,7325.55
12066.4,7386.52
12079.3,7451.25
12079.3,7517.25
12066.4,7581.98
12041.2,7642.95
12004.5,7697.83
11957.9,7744.49
11903,7781.16
11842,7806.42
11777.3,7819.29
11711.3,7819.29
11646.6,7806.42
11585.6,7781.16
11530.7,7744.49
11484,7697.83
11447.4,7642.95
11422.1,7581.98
11409.2,7517.25
11409.2,7451.25
11422.1,7386.52
11447.4,7325.55
11484,7270.68
11530.7,7224.01
11585.6,7187.34
11646.6,7162.09
11711.3,7149.21
11777.3,7149.21
Z" /> 
<path style="fill:#848400; fill-opacity:1.0; 
stroke:#848400; stroke-width:0; stroke-opacity:1; 
stroke-linecap:round; stroke-linejoin:round;fill-rule:evenodd;"
d="M 14842,7162.09
14903,7187.34
14957.9,7224.01
15004.5,7270.68
15041.2,7325.55
15066.4,7386.52
15079.3,7451.25
15079.3,7517.25
15066.4,7581.98
15041.2,7642.95
15004.5,7697.83
14957.9,7744.49
14903,7781.16
14842,7806.42
14777.3,7819.29
14711.3,7819.29
14646.6,7806.42
14585.6,7781.16
14530.7,7744.49
14484,7697.83
14447.4,7642.95
14422.1,7581.98
14409.2,7517.25
14409.2,7451.25
14422.1,7386.52
14447.4,7325.55
14484,7270.68
14530.7,7224.01
14585.6,7187.34
14646.6,7162.09
14711.3,7149.21
14777.3,7149.21
Z" /> 
<path style="fill:#848400; fill-opacity:1.0; 
stroke:#848400; stroke-width:0; stroke-opacity:1; 
stroke-linecap:round; stroke-linejoin:round;fill-rule:evenodd;"
d="M 16842,6177.84
16903,6203.09
16957.9,6239.76
17004.5,6286.42
17041.2,6341.3
17066.4,6402.27
17079.3,6467
17079.3,6533
17066.4,6597.73
17041.2,6658.7
17004.5,6713.58
16957.9,6760.24
16903,6796.91
16842,6822.16
16777.3,6835.04
16711.3,6835.04
16646.6,6822.16
16585.6,6796.91
16530.7,6760.24
16484,6713.58
16447.4,6658.7
16422.1,6597.73
16409.2,6533
16409.2,6467
16422.1,6402.27
16447.4,6341.3
16484,6286.42
16530.7,6239.76
16585.6,6203.09
16646.6,6177.84
16711.3,6164.96
16777.3,6164.96
Z" /> 
<path style="fill:#848400; fill-opacity:1.0; 
stroke:#848400; stroke-width:0; stroke-opacity:1; 
stroke-linecap:round; stroke-linejoin:round;fill-rule:evenodd;"
d="M 12079.3,6835.04
11409.2,6835.04
11409.2,6164.96
12079.3,6164.96
Z" /> 
<path style="fill:#848400; fill-opacity:1.0; 
stroke:#848400; stroke-width:0; stroke-opacity:1; 
stroke-linecap:round; stroke-linejoin:round;fill-rule:evenodd;"
d="M 15079.3,6835.04
14409.2,6835.04
14409.2,6164.96
15079.3,6164.96
Z" /> 
<path style="fill:#848400; fill-opacity:1.0; 
stroke:#848400; stroke-width:0; stroke-opacity:1; 
stroke-linecap:round; stroke-linejoin:round;fill-rule:evenodd;"
d="M 20842,6177.84
20903,6203.09
20957.9,6239.76
21004.5,6286.42
21041.2,6341.3
21066.4,6402.27
21079.3,6467
21079.3,6533
21066.4,6597.73
21041.2,6658.7
21004.5,6713.58
20957.9,6760.24
20903,6796.91
20842,6822.16
20777.3,6835.04
20711.3,6835.04
20646.6,6822.16
20585.6,6796.91
20530.7,6760.24
20484,6713.58
20447.4,6658.7
20422.1,6597.73
20409.2,6533
20409.2,6467
20422.1,6402.27
20447.4,6341.3
20484,6286.42
20530.7,6239.76
20585.6,6203.09
20646.6,6177.84
20711.3,6164.96
20777.3,6164.96
Z" /> 
<path style="fill:#848400; fill-opacity:1.0; 
stroke:#848400; stroke-width:0; stroke-opacity:1; 
stroke-linecap:round; stroke-linejoin:round;fill-rule:evenodd;"
d="M 9842.01,6177.84
9902.98,6203.09
9957.86,6239.76
10004.5,6286.42
10041.2,6341.3
10066.4,6402.27
10079.3,6467
10079.3,6533
10066.4,6597.73
10041.2,6658.7
10004.5,6713.58
9957.86,6760.24
9902.98,6796.91
9842.01,6822.16
9777.28,6835.04
9711.28,6835.04
9646.55,6822.16
9585.58,6796.91
9530.71,6760.24
9484.04,6713.58
9447.37,6658.7
9422.12,6597.73
9409.24,6533
9409.24,6467
9422.12,6402.27
9447.37,6341.3
9484.04,6286.42
9530.71,6239.76
9585.58,6203.09
9646.55,6177.84
9711.28,6164.96
9777.28,6164.96
Z" /> 
<path style="fill:#848400; fill-opacity:1.0; 
stroke:#848400; stroke-width:0; stroke-opacity:1; 
stroke-linecap:round; stroke-linejoin:round;fill-rule:evenodd;"
d="M 5842.01,6177.84
5902.98,6203.09
5957.86,6239.76
6004.52,6286.42
6041.19,6341.3
6066.45,6402.27
6079.32,6467
6079.32,6533
6066.45,6597.73
6041.19,6658.7
6004.52,6713.58
5957.86,6760.24
5902.98,6796.91
5842.01,6822.16
5777.28,6835.04
5711.28,6835.04
5646.55,6822.16
5585.58,6796.91
5530.71,6760.24
5484.04,6713.58
5447.37,6658.7
5422.12,6597.73
5409.24,6533
5409.24,6467
5422.12,6402.27
5447.37,6341.3
5484.04,6286.42
5530.71,6239.76
5585.58,6203.09
5646.55,6177.84
5711.28,6164.96
5777.28,6164.96
Z" /> 
<path style="fill:#848400; fill-opacity:1.0; 
stroke:#848400; stroke-width:0; stroke-opacity:1; 
stroke-linecap:round; stroke-linejoin:round;fill-rule:evenodd;"
d="M 7980.9,5531.89
7507.67,5531.89
7507.67,4783.07
7980.9,4783.07
Z" /> 
<path style="fill:#848400; fill-opacity:1.0; 
stroke:#848400; stroke-width:0; stroke-opacity:1; 
stroke-linecap:round; stroke-linejoin:round;fill-rule:evenodd;"
d="M 8905.43,4785.1
8922.96,4790.42
8939.12,4799.06
8953.28,4810.68
8964.91,4824.85
8973.54,4841.01
8978.86,4858.54
8980.9,4879.19
8980.9,5435.77
8978.86,5456.42
8973.54,5473.95
8964.91,5490.11
8953.28,5504.28
8939.12,5515.9
8922.96,5524.54
8905.43,5529.86
8884.78,5531.89
8603.79,5531.89
8583.13,5529.86
8565.6,5524.54
8549.44,5515.9
8535.28,5504.28
8523.66,5490.11
8515.02,5473.95
8509.7,5456.42
8507.67,5435.77
8507.67,4879.19
8509.7,4858.54
8515.02,4841.01
8523.66,4824.85
8535.28,4810.68
8549.44,4799.06
8565.6,4790.42
8583.13,4785.1
8603.79,4783.07
8884.78,4783.07
Z" /> 
<path style="fill:#848400; fill-opacity:1.0; 
stroke:#848400; stroke-width:0; stroke-opacity:1; 
stroke-linecap:round; stroke-linejoin:round;fill-rule:evenodd;"
d="M 17980.9,5531.89
17507.7,5531.89
17507.7,4783.07
17980.9,4783.07
Z" /> 
<path style="fill:#848400; fill-opacity:1.0; 
stroke:#848400; stroke-width:0; stroke-opacity:1; 
stroke-linecap:round; stroke-linejoin:round;fill-rule:evenodd;"
d="M 18905.4,4785.1
18923,4790.42
18939.1,4799.06
18953.3,4810.68
18964.9,4824.85
18973.5,4841.01
18978.9,4858.54
18980.9,4879.19
18980.9,5435.77
18978.9,5456.42
18973.5,5473.95
18964.9,5490.11
18953.3,5504.28
18939.1,5515.9
18923,5524.54
18905.4,5529.86
18884.8,5531.89
18603.8,5531.89
18583.1,5529.86
18565.6,5524.54
18549.4,5515.9
18535.3,5504.28
18523.7,5490.11
18515,5473.95
18509.7,5456.42
18507.7,5435.77
18507.7,4879.19
18509.7,4858.54
18515,4841.01
18523.7,4824.85
18535.3,4810.68
18549.4,4799.06
18565.6,4790.42
18583.1,4785.1
18603.8,4783.07
18884.8,4783.07
Z" /> 
<path style="fill:#848400; fill-opacity:1.0; 
stroke:#848400; stroke-width:0; stroke-opacity:1; 
stroke-linecap:round; stroke-linejoin:round;fill-rule:evenodd;"
d="M 8405.43,3970.14
8422.96,3975.46
8439.12,3984.1
8453.28,3995.72
8464.91,4009.89
8473.54,4026.05
8478.86,4043.58
8480.9,4064.23
8480.9,4620.81
8478.86,4641.46
8473.54,4658.99
8464.91,4675.15
8453.28,4689.32
8439.12,4700.94
8422.96,4709.58
8405.43,4714.9
8384.78,4716.93
8103.79,4716.93
8083.13,4714.9
8065.6,4709.58
8053.31,4703
8047.56,4700.62
8043.2,4695.82
8035.28,4689.32
8023.66,4675.15
8015.02,4658.99
8009.7,4641.46
8007.67,4620.81
8007.67,4064.23
8009.7,4043.58
8015.02,4026.05
8023.66,4009.89
8035.28,3995.72
8049.44,3984.1
8065.6,3975.46
8083.13,3970.14
8103.79,3968.11
8384.78,3968.11
Z" /> 
<path style="fill:#848400; fill-opacity:1.0; 
stroke:#848400; stroke-width:0; stroke-opacity:1; 
stroke-linecap:round; stroke-linejoin:round;fill-rule:evenodd;"
d="M 18405.4,3970.14
18423,3975.46
18439.1,3984.1
18453.3,3995.72
18464.9,4009.89
18473.5,4026.05
18478.9,4043.58
18480.9,4064.23
18480.9,4620.81
18478.9,4641.46
18473.5,4658.99
18464.9,4675.15
18453.3,4689.32
18439.1,4700.94
18423,4709.58
18405.4,4714.9
18384.8,4716.93
18103.8,4716.93
18083.1,4714.9
18065.6,4709.58
18053.3,4703
18047.6,4700.62
18043.2,4695.82
18035.3,4689.32
18023.7,4675.15
18015,4658.99
18009.7,4641.46
18007.7,4620.81
18007.7,4064.23
18009.7,4043.58
18015,4026.05
18023.7,4009.89
18035.3,3995.72
18049.4,3984.1
18065.6,3975.46
18083.1,3970.14
18103.8,3968.11
18384.8,3968.11
Z" /> 
<path style="fill:#848400; fill-opacity:1.0; 
stroke:#848400; stroke-width:0; stroke-opacity:1; 
stroke-linecap:round; stroke-linejoin:round;fill-rule:evenodd;"
d="M 15342,3877.84
15403,3903.09
15457.9,3939.76
15504.5,3986.42
15541.2,4041.3
15566.4,4102.27
15579.3,4167
15579.3,4233
15566.4,4297.73
15541.2,4358.7
15504.5,4413.58
15457.9,4460.24
15403,4496.91
15342,4522.16
15277.3,4535.04
15211.3,4535.04
15146.6,4522.16
15085.6,4496.91
15030.7,4460.24
14984,4413.58
14947.4,4358.7
14922.1,4297.73
14909.2,4233
14909.2,4167
14922.1,4102.27
14947.4,4041.3
14984,3986.42
15030.7,3939.76
15085.6,3903.09
15146.6,3877.84
15211.3,3864.96
15277.3,3864.96
Z" /> 
<path style="fill:#848400; fill-opacity:1.0; 
stroke:#848400; stroke-width:0; stroke-opacity:1; 
stroke-linecap:round; stroke-linejoin:round;fill-rule:evenodd;"
d="M 11342,3877.84
11403,3903.09
11457.9,3939.76
11504.5,3986.42
11541.2,4041.3
11566.4,4102.27
11579.3,4167
11579.3,4233
11566.4,4297.73
11541.2,4358.7
11504.5,4413.58
11457.9,4460.24
11403,4496.91
11342,4522.16
11277.3,4535.04
11211.3,4535.04
11146.6,4522.16
11085.6,4496.91
11030.7,4460.24
10984,4413.58
10947.4,4358.7
10922.1,4297.73
10909.2,4233
10909.2,4167
10922.1,4102.27
10947.4,4041.3
10984,3986.42
11030.7,3939.76
11085.6,3903.09
11146.6,3877.84
11211.3,3864.96
11277.3,3864.96
Z" /> 
<path style="fill:#848400; fill-opacity:1.0; 
stroke:#848400; stroke-width:0; stroke-opacity:1; 
stroke-linecap:round; stroke-linejoin:round;fill-rule:evenodd;"
d="M 8973.02,3565.35
7515.54,3565.35
7515.54,2934.65
8973.02,2934.65
Z" /> 
<path style="fill:#848400; fill-opacity:1.0; 
stroke:#848400; stroke-width:0; stroke-opacity:1; 
stroke-linecap:round; stroke-linejoin:round;fill-rule:evenodd;"
d="M 18984.8,3565.35
17527.4,3565.35
17527.4,2934.65
18984.8,2934.65
Z" /> 
<path style="fill:#848400; fill-opacity:1.0; 
stroke:#848400; stroke-width:0; stroke-opacity:1; 
stroke-linecap:round; stroke-linejoin:round;fill-rule:evenodd;"
d="M 19618.7,2374.41
18869.9,2374.41
18869.9,1625.59
19618.7,1625.59
Z" /> 
<path style="fill:#848400; fill-opacity:1.0; 
stroke:#848400; stroke-width:0; stroke-opacity:1; 
stroke-linecap:round; stroke-linejoin:round;fill-rule:evenodd;"
d="M 20353.5,1639.98
20421.6,1668.2
20421.6,1668.2
20483,1709.18
20535.1,1761.33
20535.1,1761.33
20576.1,1822.65
20604.3,1890.79
20618.7,1963.12
20618.7,2036.88
20604.3,2109.21
20576.1,2177.35
20576.1,2177.35
20535.1,2238.67
20483,2290.82
20452.1,2311.45
20421.6,2331.8
20353.5,2360.02
20281.2,2374.41
20207.4,2374.41
20135.1,2360.02
20066.9,2331.8
20036.5,2311.45
20005.6,2290.82
19953.5,2238.67
19912.5,2177.35
19912.5,2177.35
19884.3,2109.21
19869.9,2036.88
19869.9,1963.12
19884.3,1890.79
19912.5,1822.65
19953.5,1761.33
19953.5,1761.33
20005.6,1709.18
20066.9,1668.2
20066.9,1668.2
20135.1,1639.98
20207.4,1625.59
20281.2,1625.59
Z" /> 
<path style="fill:#848400; fill-opacity:1.0; 
stroke:#848400; stroke-width:0; stroke-opacity:1; 
stroke-linecap:round; stroke-linejoin:round;fill-rule:evenodd;"
d="M 17353.5,1639.98
17421.6,1668.2
17421.6,1668.2
17483,1709.18
17535.1,1761.33
17535.1,1761.33
17576.1,1822.65
17604.3,1890.79
17618.7,1963.12
17618.7,2036.88
17604.3,2109.21
17576.1,2177.35
17576.1,2177.35
17535.1,2238.67
17483,2290.82
17452.1,2311.45
17421.6,2331.8
17353.5,2360.02
17281.2,2374.41
17207.4,2374.41
17135.1,2360.02
17066.9,2331.8
17036.5,2311.45
17005.6,2290.82
16953.5,2238.67
16912.5,2177.35
16912.5,2177.35
16884.3,2109.21
16869.9,2036.88
16869.9,1963.12
16884.3,1890.79
16912.5,1822.65
16953.5,1761.33
16953.5,1761.33
17005.6,1709.18
17066.9,1668.2
17066.9,1668.2
17135.1,1639.98
17207.4,1625.59
17281.2,1625.59
Z" /> 
<path style="fill:#848400; fill-opacity:1.0; 
stroke:#848400; stroke-width:0; stroke-opacity:1; 
stroke-linecap:round; stroke-linejoin:round;fill-rule:evenodd;"
d="M 16618.7,2374.41
15869.9,2374.41
15869.9,1625.59
16618.7,1625.59
Z" /> 
<path style="fill:#848400; fill-opacity:1.0; 
stroke:#848400; stroke-width:0; stroke-opacity:1; 
stroke-linecap:round; stroke-linejoin:round;fill-rule:evenodd;"
d="M 10353.5,1639.98
10421.6,1668.2
10421.6,1668.2
10483,1709.18
10535.1,1761.33
10535.1,1761.33
10576.1,1822.65
10604.3,1890.79
10618.7,1963.12
10618.7,2036.88
10604.3,2109.21
10576.1,2177.35
10576.1,2177.35
10535.1,2238.67
10483,2290.82
10452.1,2311.45
10421.6,2331.8
10353.5,2360.02
10281.2,2374.41
10207.4,2374.41
10135.1,2360.02
10066.9,2331.8
10036.5,2311.45
10005.6,2290.82
9953.46,2238.67
9912.48,2177.35
9912.48,2177.35
9884.26,2109.21
9869.87,2036.88
9869.87,1963.12
9884.26,1890.79
9912.48,1822.65
9953.46,1761.33
9953.46,1761.33
10005.6,1709.18
10066.9,1668.2
10066.9,1668.2
10135.1,1639.98
10207.4,1625.59
10281.2,1625.59
Z" /> 
<path style="fill:#848400; fill-opacity:1.0; 
stroke:#848400; stroke-width:0; stroke-opacity:1; 
stroke-linecap:round; stroke-linejoin:round;fill-rule:evenodd;"
d="M 9618.69,2374.41
8869.87,2374.41
8869.87,1625.59
9618.69,1625.59
Z" /> 
<path style="fill:#848400; fill-opacity:1.0; 
stroke:#848400; stroke-width:0; stroke-opacity:1; 
stroke-linecap:round; stroke-linejoin:round;fill-rule:evenodd;"
d="M 7353.49,1639.98
7421.63,1668.2
7421.63,1668.2
7482.95,1709.18
7535.1,1761.33
7535.11,1761.33
7576.08,1822.65
7604.3,1890.79
7618.69,1963.12
7618.69,2036.88
7604.3,2109.21
7576.08,2177.35
7576.08,2177.35
7535.1,2238.67
7482.95,2290.82
7452.08,2311.45
7421.63,2331.8
7353.49,2360.02
7281.16,2374.41
7207.41,2374.41
7135.07,2360.02
7066.93,2331.8
7036.48,2311.45
7005.61,2290.82
6953.46,2238.67
6912.48,2177.35
6912.48,2177.35
6884.26,2109.21
6869.87,2036.88
6869.87,1963.12
6884.26,1890.79
6912.48,1822.65
6953.46,1761.33
6953.46,1761.33
7005.61,1709.18
7066.93,1668.2
7066.93,1668.2
7135.07,1639.98
7207.41,1625.59
7281.16,1625.59
Z" /> 
<path style="fill:#848400; fill-opacity:1.0; 
stroke:#848400; stroke-width:0; stroke-opacity:1; 
stroke-linecap:round; stroke-linejoin:round;fill-rule:evenodd;"
d="M 6618.69,2374.41
5869.87,2374.41
5869.87,1625.59
6618.69,1625.59
Z" /> 
<path style="fill:#848400; fill-opacity:1.0; 
stroke:#848400; stroke-width:0; stroke-opacity:1; 
stroke-linecap:round; stroke-linejoin:round;fill-rule:evenodd;"
d="M 13099,2354.72
12389.6,2354.72
12389.6,1645.28
13099,1645.28
Z" /> 
<path style="fill:#848400; fill-opacity:1.0; 
stroke:#848400; stroke-width:0; stroke-opacity:1; 
stroke-linecap:round; stroke-linejoin:round;fill-rule:evenodd;"
d="M 13789,1647.22
13847.8,1658.91
13912.3,1685.65
13970.4,1724.47
14019.8,1773.88
14058.6,1831.97
14085.4,1896.53
14099,1965.06
14099,2034.94
14085.4,2103.47
14058.6,2168.03
14019.8,2226.12
13970.4,2275.53
13912.3,2314.35
13847.8,2341.09
13789,2352.78
13779.2,2354.72
13709.3,2354.72
13699.6,2352.78
13640.8,2341.09
13576.3,2314.35
13518.2,2275.53
13468.7,2226.12
13429.9,2168.03
13403.2,2103.47
13389.6,2034.94
13389.6,1965.06
13403.2,1896.53
13429.9,1831.97
13468.7,1773.88
13518.2,1724.47
13576.3,1685.65
13640.8,1658.91
13699.6,1647.22
13709.3,1645.28
13779.2,1645.28
Z" /> 
</g>
<g style="fill:#000000; fill-opacity:1.0; 
stroke:#000000; stroke-width:0; stroke-opacity:1; 
stroke-linecap:round; stroke-linejoin:round;">
</g>
<g style="fill:#C2C200; fill-opacity:1.0; 
stroke:#C2C200; stroke-width:0; stroke-opacity:1; 
stroke-linecap:round; stroke-linejoin:round;">
</g>
<g style="fill:#C2C200; fill-opacity:0.0; 
stroke:#C2C200; stroke-width:19.685; stroke-opacity:1; 
stroke-linecap:round; stroke-linejoin:round;">
<circle cx="5244.28" cy="9000" r="262.467" /> 
<path d="M4850 9000
L5637 9000
" />
<path d="M5244 8606
L5244 9393
" />
<path d="M5244 4000
L5244 1500
" />
<path d="M6244 4000
L5244 4000
" />
<path d="M6244 5500
L6244 4000
" />
<path d="M5244 5500
L6244 5500
" />
<path d="M5244 8000
L5244 5500
" />
<path d="M21244 5500
L21244 8000
" />
<path d="M20244 5500
L21244 5500
" />
<path d="M20244 4000
L20244 5500
" />
<path d="M21244 4000
L20244 4000
" />
<path d="M21244 1500
L21244 4000
" />
<path d="M20244.3 9000 A1000 1000 0.0 0 0 21244.3 8000" />
<path d="M5244.28 8000 A1000 1000 0.0 0 0 6244.28 9000" />
<path d="M6244.28 500 A1000 1000 0.0 0 0 5244.28 1500" />
<path d="M21244.3 1500 A1000 1000 0.0 0 0 20244.3 500" />
<path d="M20244 9000
L6244 9000
" />
<path d="M6244 500
L20244 500
" />
<g >
</g>
<g >
</g>
<g >
</g>
<g >
</g>
<g >
</g>
<g >
</g>
<g >
</g>
<g >
</g>
<g >
</g>
<g >
</g>
<g >
</g>
<g >
</g>
<g >
</g>
<g >
</g>
<g >
</g>
<g >
</g>
<g >
</g>
<g >
</g>
<g >
</g>
</g> 
</svg>
