<?xml version="1.0" standalone="no"?>
 <!DOCTYPE svg PUBLIC "-//W3C//DTD SVG 1.1//EN" 
 "http://www.w3.org/Graphics/SVG/1.1/DTD/svg11.dtd"> 
<svg
  xmlns:svg="http://www.w3.org/2000/svg"
  xmlns="http://www.w3.org/2000/svg"
  xmlns:xlink="http://www.w3.org/1999/xlink"
  version="1.1"
  width="6.852920cm" height="2.540000cm" viewBox="0 0 26980 10000">
<title>SVG Picture created as C-B_Cu.svg date 2020/07/03 20:33:56 </title>
  <desc>Picture generated by PCBNEW </desc>
<g style="fill:#000000; fill-opacity:1;stroke:#000000; stroke-opacity:1;
stroke-linecap:round; stroke-linejoin:round;"
 transform="translate(0 0) scale(1 1)">
</g>
<g style="fill:#000000; fill-opacity:0.0; 
stroke:#000000; stroke-width:-0.000393701; stroke-opacity:1; 
stroke-linecap:round; stroke-linejoin:round;">
</g>
<g style="fill:#008400; fill-opacity:0.0; 
stroke:#008400; stroke-width:-0.000393701; stroke-opacity:1; 
stroke-linecap:round; stroke-linejoin:round;">
</g>
<g style="fill:#008400; fill-opacity:1.0; 
stroke:#008400; stroke-width:3.93701; stroke-opacity:1; 
stroke-linecap:round; stroke-linejoin:round;">
<path style="fill:#008400; fill-opacity:1.0; 
stroke:#008400; stroke-width:3.93701; stroke-opacity:1; 
stroke-linecap:round; stroke-linejoin:round;fill-rule:evenodd;"
d="M 7525.46,6203.52
7492.46,6378.56
7370.69,6428.76
7248.93,6478.96
7102.85,6379.62
7061.94,6351.97
7024.96,6327.27
6993.63,6306.67
6969.69,6291.28
6954.85,6282.24
6950.81,6280.29
6943.53,6285.31
6927.97,6299.17
6905.89,6320.1
6879.01,6346.35
6849.09,6376.12
6817.87,6407.67
6787.09,6439.2
6758.49,6468.96
6733.83,6495.18
6714.83,6516.07
6703.25,6529.88
6700.49,6534.5
6704.47,6543.02
6715.64,6561.68
6732.81,6588.66
6754.83,6622.13
6780.5,6660.27
6795.38,6682.03
6822.49,6721.75
6846.59,6757.6
6866.5,6787.78
6881.04,6810.52
6889.06,6824.03
6890.27,6826.87
6887.54,6834.94
6880.09,6853.75
6869.05,6880.64
6855.55,6912.99
6840.7,6948.14
6825.63,6983.45
6811.46,7016.27
6799.32,7043.97
6790.33,7063.9
6785.61,7073.41
6785.34,7073.79
6777.93,7075.6
6758.21,7079.66
6728.22,7085.55
6690,7092.87
6645.6,7101.24
6619.7,7106.07
6572.25,7115.1
6529.4,7123.7
6493.31,7131.39
6466.14,7137.7
6450.07,7142.16
6446.84,7143.57
6443.67,7153.15
6441.12,7174.79
6439.18,7205.95
6437.84,7244.1
6437.11,7286.73
6436.98,7331.29
6437.46,7375.25
6438.54,7416.09
6440.21,7451.28
6442.49,7478.28
6445.36,7494.57
6447.08,7497.96
6457.37,7502.02
6479.17,7507.83
6509.59,7514.71
6545.77,7521.96
6558.39,7524.31
6619.27,7535.46
6667.36,7544.44
6704.25,7551.61
6731.53,7557.32
6750.79,7561.93
6763.61,7565.79
6771.59,7569.27
6776.32,7572.73
6776.98,7573.41
6783.58,7584.4
6793.65,7605.79
6806.18,7634.95
6820.16,7669.28
6834.6,7706.14
6848.49,7742.93
6860.82,7777.03
6870.58,7805.8
6876.78,7826.64
6878.4,7836.93
6878.27,7837.29
6872.77,7845.7
6860.3,7864.21
6842.16,7890.88
6819.67,7923.79
6794.14,7961.02
6786.86,7971.6
6760.94,8009.95
6738.12,8044.95
6719.66,8074.57
6706.8,8096.82
6700.78,8109.68
6700.49,8111.26
6705.54,8119.56
6719.52,8136.01
6740.62,8158.84
6767.05,8186.27
6797,8216.55
6828.69,8247.91
6860.31,8278.57
6890.07,8306.77
6916.17,8330.74
6936.81,8348.71
6950.21,8358.92
6953.91,8360.58
6962.53,8356.66
6980.19,8346.07
7004,8330.6
7022.32,8318.16
7055.51,8295.31
7094.82,8268.42
7134.25,8241.57
7155.45,8227.19
7227.21,8178.66
7287.44,8211.23
7314.88,8225.5
7338.21,8236.59
7354,8242.91
7358.02,8243.79
7362.85,8237.29
7372.39,8218.93
7385.91,8190.4
7402.71,8153.39
7422.08,8109.6
7443.3,8060.71
7465.67,8008.44
7488.46,7954.46
7510.98,7900.47
7532.5,7848.17
7552.32,7799.25
7569.72,7755.4
7584,7718.32
7594.44,7689.7
7600.32,7671.24
7601.27,7664.89
7593.77,7656.81
7577.34,7643.67
7555.42,7628.23
7553.58,7627.01
7496.93,7581.66
7451.26,7528.76
7416.95,7469.99
7394.4,7407.05
7384.01,7341.63
7386.18,7275.41
7401.29,7210.1
7429.76,7147.38
7438.13,7133.66
7481.69,7078.24
7533.14,7033.75
7590.71,7000.39
7652.63,6978.42
7717.09,6968.06
7782.34,6969.54
7846.58,6983.09
7908.04,7008.95
7964.92,7047.34
7982.52,7062.92
8027.31,7111.69
8059.94,7163.04
8082.33,7220.6
8094.8,7277.59
8097.88,7341.68
8087.61,7406.08
8065.05,7468.62
8031.23,7527.13
7987.2,7579.42
7934,7623.33
7927.01,7627.96
7904.85,7643.11
7888.01,7656.25
7879.96,7664.63
7879.85,7664.89
7881.57,7673.96
7888.43,7694.55
7899.69,7724.96
7914.65,7763.49
7932.6,7808.46
7952.82,7858.17
7974.61,7910.93
7997.25,7965.05
8020.03,8018.82
8042.24,8070.57
8063.16,8118.58
8082.08,8161.18
8098.3,8196.67
8111.09,8223.36
8119.76,8239.54
8123.24,8243.79
8133.9,8240.48
8153.85,8231.6
8179.64,8218.75
8193.83,8211.23
8254.06,8178.66
8325.81,8227.19
8362.44,8252.06
8402.54,8279.42
8440.12,8305.18
8458.95,8318.16
8485.42,8335.93
8507.84,8350.02
8523.28,8358.64
8528.29,8360.46
8535.59,8355.55
8551.74,8341.83
8575.18,8320.74
8604.34,8293.69
8637.65,8262.12
8658.72,8241.84
8695.59,8205.62
8727.45,8173.23
8753.01,8146.04
8771,8125.45
8780.11,8112.84
8780.99,8110.28
8776.93,8100.55
8765.71,8080.87
8748.59,8053.23
8726.79,8019.64
8701.57,7982.07
8694.4,7971.6
8668.27,7933.53
8644.82,7899.26
8625.38,7870.71
8611.24,7849.8
8603.72,7838.47
8603,7837.29
8604.08,7828.26
8609.85,7808.4
8619.29,7780.33
8631.39,7746.67
8645.17,7710.04
8659.59,7673.06
8673.68,7638.35
8686.41,7608.52
8696.78,7586.19
8703.79,7573.99
8704.28,7573.41
8708.57,7569.92
8715.81,7566.47
8727.59,7562.71
8745.5,7558.27
8771.14,7552.79
8806.08,7545.93
8851.92,7537.32
8910.24,7526.61
8922.87,7524.31
8960.3,7517.08
8992.93,7510
9017.88,7503.77
9032.26,7499.06
9034.19,7497.96
9037.36,7488.22
9039.95,7466.45
9041.93,7435.19
9043.32,7396.97
9044.11,7354.31
9044.3,7309.74
9043.88,7265.8
9042.86,7225.01
9041.23,7189.91
9038.99,7163.02
9036.14,7146.88
9034.43,7143.57
9024.87,7140.24
9003.11,7134.82
8971.31,7127.78
8931.65,7119.59
8886.28,7110.72
8861.57,7106.07
8814.67,7097.3
8772.85,7089.36
8738.15,7082.64
8712.61,7077.55
8698.29,7074.47
8695.93,7073.79
8691.94,7066.1
8683.52,7047.58
8671.78,7020.87
8657.84,6988.62
8642.84,6953.48
8627.89,6918.08
8614.11,6885.09
8602.63,6857.14
8594.57,6836.89
8591.06,6826.97
8591,6826.53
8594.98,6818.71
8606.14,6800.7
8623.31,6774.3
8645.31,6741.29
8670.97,6703.47
8685.89,6681.75
8713.07,6641.92
8737.21,6605.76
8757.14,6575.1
8771.67,6551.76
8779.63,6537.58
8780.78,6534.4
8775.84,6527
8762.18,6511.2
8741.55,6488.78
8715.69,6461.49
8686.35,6431.11
8655.27,6399.42
8624.2,6368.17
8594.87,6339.15
8569.04,6314.11
8548.45,6294.84
8534.85,6283.09
8530.3,6280.29
8522.89,6284.23
8505.16,6295.31
8478.84,6312.38
8445.66,6334.34
8407.33,6360.04
8378.42,6379.62
8232.34,6478.96
7988.81,6378.56
7955.81,6203.52
7922.81,6028.47
7558.46,6028.47
Z" /> 
</g>
<g style="fill:#008400; fill-opacity:1.0; 
stroke:#008400; stroke-width:0; stroke-opacity:1; 
stroke-linecap:round; stroke-linejoin:round;">
<path style="fill:#008400; fill-opacity:1.0; 
stroke:#008400; stroke-width:0; stroke-opacity:1; 
stroke-linecap:round; stroke-linejoin:round;fill-rule:evenodd;"
d="M 18610.4,3131.89
18413.6,3131.89
18413.6,3368.11
18610.4,3368.11
" /> 
<path style="fill:#008400; fill-opacity:1.0; 
stroke:#008400; stroke-width:0; stroke-opacity:1; 
stroke-linecap:round; stroke-linejoin:round;fill-rule:evenodd;"
d="M 7889.95,3368.11
8086.8,3368.11
8086.8,3131.89
7889.95,3131.89
" /> 
<g >
</g>
<g >
</g>
<g style="fill:#848400; fill-opacity:1.0; 
stroke:#848400; stroke-width:0; stroke-opacity:1; 
stroke-linecap:round; stroke-linejoin:round;">
<path style="fill:#848400; fill-opacity:1.0; 
stroke:#848400; stroke-width:0; stroke-opacity:1; 
stroke-linecap:round; stroke-linejoin:round;fill-rule:evenodd;"
d="M 17527.7,5511.81
17527.7,4803.15
17960.8,4803.15
17960.8,5511.81
Z" /> 
<path style="fill:#848400; fill-opacity:1.0; 
stroke:#848400; stroke-width:0; stroke-opacity:1; 
stroke-linecap:round; stroke-linejoin:round;fill-rule:evenodd;"
d="M 18863.2,4803.67
18873.7,4805.23
18884,4807.81
18894,4811.39
18903.6,4815.93
18912.7,4821.4
18921.2,4827.73
18929.1,4834.86
18936.2,4842.73
18942.6,4851.27
18948,4860.38
18952.6,4869.99
18956.2,4879.99
18958.7,4890.3
18960.3,4900.81
18960.8,4911.42
18960.8,5403.54
18960.3,5414.16
18958.7,5424.67
18956.2,5434.97
18952.6,5444.98
18948,5454.58
18942.6,5463.69
18936.2,5472.23
18929.1,5480.1
18921.2,5487.24
18912.7,5493.56
18903.6,5499.03
18894,5503.57
18884,5507.15
18873.7,5509.73
18863.2,5511.29
18852.5,5511.81
18636,5511.81
18625.4,5511.29
18614.9,5509.73
18604.6,5507.15
18594.6,5503.57
18585,5499.03
18575.9,5493.56
18567.3,5487.24
18559.5,5480.1
18552.3,5472.23
18546,5463.69
18540.5,5454.58
18536,5444.98
18532.4,5434.97
18529.8,5424.67
18528.3,5414.16
18527.7,5403.54
18527.7,4911.42
18528.3,4900.81
18529.8,4890.3
18532.4,4879.99
18536,4869.99
18540.5,4860.38
18546,4851.27
18552.3,4842.73
18559.5,4834.86
18567.3,4827.73
18575.9,4821.4
18585,4815.93
18594.6,4811.39
18604.6,4807.81
18614.9,4805.23
18625.4,4803.67
18636,4803.15
18852.5,4803.15
Z" /> 
<path style="fill:#848400; fill-opacity:1.0; 
stroke:#848400; stroke-width:0; stroke-opacity:1; 
stroke-linecap:round; stroke-linejoin:round;fill-rule:evenodd;"
d="M 18363.2,3988.71
18373.7,3990.27
18384,3992.85
18394,3996.43
18403.6,4000.97
18412.7,4006.44
18421.2,4012.76
18429.1,4019.9
18436.2,4027.77
18442.6,4036.31
18448,4045.42
18452.6,4055.02
18456.2,4065.03
18458.7,4075.33
18460.3,4085.84
18460.8,4096.46
18460.8,4588.58
18460.3,4599.19
18458.7,4609.7
18456.2,4620.01
18452.6,4630.01
18448,4639.62
18442.6,4648.73
18436.2,4657.27
18429.1,4665.14
18421.2,4672.27
18412.7,4678.6
18403.6,4684.07
18394,4688.61
18384,4692.19
18373.7,4694.77
18363.2,4696.33
18352.5,4696.85
18136,4696.85
18125.4,4696.33
18114.9,4694.77
18104.6,4692.19
18094.6,4688.61
18085,4684.07
18075.9,4678.6
18067.3,4672.27
18059.5,4665.14
18052.3,4657.27
18046,4648.73
18040.5,4639.62
18036,4630.01
18032.4,4620.01
18029.8,4609.7
18028.3,4599.19
18027.7,4588.58
18027.7,4096.46
18028.3,4085.84
18029.8,4075.33
18032.4,4065.03
18036,4055.02
18040.5,4045.42
18046,4036.31
18052.3,4027.77
18059.5,4019.9
18067.3,4012.76
18075.9,4006.44
18085,4000.97
18094.6,3996.43
18104.6,3992.85
18114.9,3990.27
18125.4,3988.71
18136,3988.19
18352.5,3988.19
Z" /> 
</g>
<g >
</g>
<g style="fill:#848400; fill-opacity:1.0; 
stroke:#848400; stroke-width:0; stroke-opacity:1; 
stroke-linecap:round; stroke-linejoin:round;">
<path style="fill:#848400; fill-opacity:1.0; 
stroke:#848400; stroke-width:0; stroke-opacity:1; 
stroke-linecap:round; stroke-linejoin:round;fill-rule:evenodd;"
d="M 7527.75,5511.81
7527.75,4803.15
7960.82,4803.15
7960.82,5511.81
Z" /> 
<path style="fill:#848400; fill-opacity:1.0; 
stroke:#848400; stroke-width:0; stroke-opacity:1; 
stroke-linecap:round; stroke-linejoin:round;fill-rule:evenodd;"
d="M 8863.16,4803.67
8873.67,4805.23
8883.98,4807.81
8893.98,4811.39
8903.59,4815.93
8912.7,4821.4
8921.23,4827.73
8929.11,4834.86
8936.24,4842.73
8942.57,4851.27
8948.03,4860.38
8952.58,4869.99
8956.16,4879.99
8958.74,4890.3
8960.3,4900.81
8960.82,4911.42
8960.82,5403.54
8960.3,5414.16
8958.74,5424.67
8956.16,5434.97
8952.58,5444.98
8948.03,5454.58
8942.57,5463.69
8936.24,5472.23
8929.11,5480.1
8921.23,5487.24
8912.7,5493.56
8903.59,5499.03
8893.98,5503.57
8883.98,5507.15
8873.67,5509.73
8863.16,5511.29
8852.55,5511.81
8636.01,5511.81
8625.4,5511.29
8614.89,5509.73
8604.59,5507.15
8594.58,5503.57
8584.98,5499.03
8575.86,5493.56
8567.33,5487.24
8559.46,5480.1
8552.32,5472.23
8545.99,5463.69
8540.53,5454.58
8535.99,5444.98
8532.41,5434.97
8529.83,5424.67
8528.27,5414.16
8527.75,5403.54
8527.75,4911.42
8528.27,4900.81
8529.83,4890.3
8532.41,4879.99
8535.99,4869.99
8540.53,4860.38
8545.99,4851.27
8552.32,4842.73
8559.46,4834.86
8567.33,4827.73
8575.86,4821.4
8584.98,4815.93
8594.58,4811.39
8604.59,4807.81
8614.89,4805.23
8625.4,4803.67
8636.01,4803.15
8852.55,4803.15
Z" /> 
<path style="fill:#848400; fill-opacity:1.0; 
stroke:#848400; stroke-width:0; stroke-opacity:1; 
stroke-linecap:round; stroke-linejoin:round;fill-rule:evenodd;"
d="M 8363.16,3988.71
8373.67,3990.27
8383.98,3992.85
8393.98,3996.43
8403.59,4000.97
8412.7,4006.44
8421.23,4012.76
8429.11,4019.9
8436.24,4027.77
8442.57,4036.31
8448.03,4045.42
8452.58,4055.02
8456.16,4065.03
8458.74,4075.33
8460.3,4085.84
8460.82,4096.46
8460.82,4588.58
8460.3,4599.19
8458.74,4609.7
8456.16,4620.01
8452.58,4630.01
8448.03,4639.62
8442.57,4648.73
8436.24,4657.27
8429.11,4665.14
8421.23,4672.27
8412.7,4678.6
8403.59,4684.07
8393.98,4688.61
8383.98,4692.19
8373.67,4694.77
8363.16,4696.33
8352.55,4696.85
8136.01,4696.85
8125.4,4696.33
8114.89,4694.77
8104.59,4692.19
8094.58,4688.61
8084.98,4684.07
8075.86,4678.6
8067.33,4672.27
8059.46,4665.14
8052.32,4657.27
8045.99,4648.73
8040.53,4639.62
8035.99,4630.01
8032.41,4620.01
8029.83,4609.7
8028.27,4599.19
8027.75,4588.58
8027.75,4096.46
8028.27,4085.84
8029.83,4075.33
8032.41,4065.03
8035.99,4055.02
8040.53,4045.42
8045.99,4036.31
8052.32,4027.77
8059.46,4019.9
8067.33,4012.76
8075.86,4006.44
8084.98,4000.97
8094.58,3996.43
8104.59,3992.85
8114.89,3990.27
8125.4,3988.71
8136.01,3988.19
8352.55,3988.19
Z" /> 
</g>
<g >
</g>
<g >
</g>
<g style="fill:#848400; fill-opacity:1.0; 
stroke:#848400; stroke-width:0; stroke-opacity:1; 
stroke-linecap:round; stroke-linejoin:round;">
<circle cx="11744.3" cy="7484.25" r="314.961" /> 
</g>
<g style="fill:#848400; fill-opacity:1.0; 
stroke:#848400; stroke-width:39.3701; stroke-opacity:1; 
stroke-linecap:round; stroke-linejoin:round;">
</g>
<g style="fill:#848400; fill-opacity:1.0; 
stroke:#848400; stroke-width:0; stroke-opacity:1; 
stroke-linecap:round; stroke-linejoin:round;">
<path style="fill:#848400; fill-opacity:1.0; 
stroke:#848400; stroke-width:0; stroke-opacity:1; 
stroke-linecap:round; stroke-linejoin:round;fill-rule:evenodd;"
d="M 11429.3,6185.04
12059.2,6185.04
12059.2,6814.96
11429.3,6814.96
Z" /> 
</g>
<g >
</g>
<g style="fill:#848400; fill-opacity:1.0; 
stroke:#848400; stroke-width:0; stroke-opacity:1; 
stroke-linecap:round; stroke-linejoin:round;">
<circle cx="14744.3" cy="7484.25" r="314.961" /> 
</g>
<g style="fill:#848400; fill-opacity:1.0; 
stroke:#848400; stroke-width:39.3701; stroke-opacity:1; 
stroke-linecap:round; stroke-linejoin:round;">
</g>
<g style="fill:#848400; fill-opacity:1.0; 
stroke:#848400; stroke-width:0; stroke-opacity:1; 
stroke-linecap:round; stroke-linejoin:round;">
<path style="fill:#848400; fill-opacity:1.0; 
stroke:#848400; stroke-width:0; stroke-opacity:1; 
stroke-linecap:round; stroke-linejoin:round;fill-rule:evenodd;"
d="M 14429.3,6185.04
15059.2,6185.04
15059.2,6814.96
14429.3,6814.96
Z" /> 
</g>
<g >
</g>
<g style="fill:#008400; fill-opacity:1.0; 
stroke:#008400; stroke-width:0; stroke-opacity:1; 
stroke-linecap:round; stroke-linejoin:round;">
<path style="fill:#008400; fill-opacity:1.0; 
stroke:#008400; stroke-width:0; stroke-opacity:1; 
stroke-linecap:round; stroke-linejoin:round;fill-rule:evenodd;"
d="M 18452.9,2954.72
18452.9,3545.28
18059.2,3545.28
18059.2,2954.72
Z" /> 
<path style="fill:#008400; fill-opacity:1.0; 
stroke:#008400; stroke-width:0; stroke-opacity:1; 
stroke-linecap:round; stroke-linejoin:round;fill-rule:evenodd;"
d="M 17941.1,2954.72
17941.1,3545.28
17547.4,3545.28
17547.4,2954.72
Z" /> 
<path style="fill:#008400; fill-opacity:1.0; 
stroke:#008400; stroke-width:0; stroke-opacity:1; 
stroke-linecap:round; stroke-linejoin:round;fill-rule:evenodd;"
d="M 18964.8,2954.72
18964.8,3545.28
18571.1,3545.28
18571.1,2954.72
Z" /> 
</g>
<g >
</g>
<g style="fill:#008400; fill-opacity:1.0; 
stroke:#008400; stroke-width:0; stroke-opacity:1; 
stroke-linecap:round; stroke-linejoin:round;">
<path style="fill:#008400; fill-opacity:1.0; 
stroke:#008400; stroke-width:0; stroke-opacity:1; 
stroke-linecap:round; stroke-linejoin:round;fill-rule:evenodd;"
d="M 8047.43,3545.28
8047.43,2954.72
8441.13,2954.72
8441.13,3545.28
Z" /> 
<path style="fill:#008400; fill-opacity:1.0; 
stroke:#008400; stroke-width:0; stroke-opacity:1; 
stroke-linecap:round; stroke-linejoin:round;fill-rule:evenodd;"
d="M 8559.24,3545.28
8559.24,2954.72
8952.94,2954.72
8952.94,3545.28
Z" /> 
<path style="fill:#008400; fill-opacity:1.0; 
stroke:#008400; stroke-width:0; stroke-opacity:1; 
stroke-linecap:round; stroke-linejoin:round;fill-rule:evenodd;"
d="M 7535.62,3545.28
7535.62,2954.72
7929.32,2954.72
7929.32,3545.28
Z" /> 
</g>
<g >
</g>
<g style="fill:#848400; fill-opacity:1.0; 
stroke:#848400; stroke-width:0; stroke-opacity:1; 
stroke-linecap:round; stroke-linejoin:round;">
</g>
<g style="fill:#848400; fill-opacity:1.0; 
stroke:#848400; stroke-width:629.921; stroke-opacity:1; 
stroke-linecap:round; stroke-linejoin:round;">
</g>
<g style="fill:#848400; fill-opacity:0.0; 
stroke:#848400; stroke-width:629.921; stroke-opacity:1; 
stroke-linecap:round; stroke-linejoin:round;">
<path d="M15244 4200
L15244 4200
" />
</g>
<g style="fill:#848400; fill-opacity:1.0; 
stroke:#848400; stroke-width:0; stroke-opacity:1; 
stroke-linecap:round; stroke-linejoin:round;">
<circle cx="11244.3" cy="4200" r="314.961" /> 
</g>
<g style="fill:#848400; fill-opacity:1.0; 
stroke:#848400; stroke-width:39.3701; stroke-opacity:1; 
stroke-linecap:round; stroke-linejoin:round;">
</g>
<g >
</g>
<g style="fill:#848400; fill-opacity:1.0; 
stroke:#848400; stroke-width:39.3701; stroke-opacity:1; 
stroke-linecap:round; stroke-linejoin:round;">
</g>
<g style="fill:#848400; fill-opacity:1.0; 
stroke:#848400; stroke-width:629.921; stroke-opacity:1; 
stroke-linecap:round; stroke-linejoin:round;">
</g>
<g style="fill:#848400; fill-opacity:0.0; 
stroke:#848400; stroke-width:629.921; stroke-opacity:1; 
stroke-linecap:round; stroke-linejoin:round;">
<path d="M16744 8000
L16744 8000
" />
</g>
<g style="fill:#848400; fill-opacity:1.0; 
stroke:#848400; stroke-width:0; stroke-opacity:1; 
stroke-linecap:round; stroke-linejoin:round;">
<circle cx="20744.3" cy="8000" r="314.961" /> 
</g>
<g style="fill:#848400; fill-opacity:1.0; 
stroke:#848400; stroke-width:39.3701; stroke-opacity:1; 
stroke-linecap:round; stroke-linejoin:round;">
</g>
<g >
</g>
<g style="fill:#848400; fill-opacity:1.0; 
stroke:#848400; stroke-width:39.3701; stroke-opacity:1; 
stroke-linecap:round; stroke-linejoin:round;">
</g>
<g style="fill:#848400; fill-opacity:1.0; 
stroke:#848400; stroke-width:629.921; stroke-opacity:1; 
stroke-linecap:round; stroke-linejoin:round;">
</g>
<g style="fill:#848400; fill-opacity:0.0; 
stroke:#848400; stroke-width:629.921; stroke-opacity:1; 
stroke-linecap:round; stroke-linejoin:round;">
<path d="M16744 6500
L16744 6500
" />
</g>
<g style="fill:#848400; fill-opacity:1.0; 
stroke:#848400; stroke-width:0; stroke-opacity:1; 
stroke-linecap:round; stroke-linejoin:round;">
<circle cx="20744.3" cy="6500" r="314.961" /> 
</g>
<g style="fill:#848400; fill-opacity:1.0; 
stroke:#848400; stroke-width:39.3701; stroke-opacity:1; 
stroke-linecap:round; stroke-linejoin:round;">
</g>
<g >
</g>
<g style="fill:#848400; fill-opacity:1.0; 
stroke:#848400; stroke-width:39.3701; stroke-opacity:1; 
stroke-linecap:round; stroke-linejoin:round;">
</g>
<g style="fill:#848400; fill-opacity:1.0; 
stroke:#848400; stroke-width:629.921; stroke-opacity:1; 
stroke-linecap:round; stroke-linejoin:round;">
</g>
<g style="fill:#848400; fill-opacity:0.0; 
stroke:#848400; stroke-width:629.921; stroke-opacity:1; 
stroke-linecap:round; stroke-linejoin:round;">
<path d="M9744 6500
L9744 6500
" />
</g>
<g style="fill:#848400; fill-opacity:1.0; 
stroke:#848400; stroke-width:0; stroke-opacity:1; 
stroke-linecap:round; stroke-linejoin:round;">
<circle cx="5744.28" cy="6500" r="314.961" /> 
</g>
<g style="fill:#848400; fill-opacity:1.0; 
stroke:#848400; stroke-width:39.3701; stroke-opacity:1; 
stroke-linecap:round; stroke-linejoin:round;">
</g>
<g >
</g>
<g style="fill:#848400; fill-opacity:1.0; 
stroke:#848400; stroke-width:39.3701; stroke-opacity:1; 
stroke-linecap:round; stroke-linejoin:round;">
</g>
<g style="fill:#848400; fill-opacity:1.0; 
stroke:#848400; stroke-width:629.921; stroke-opacity:1; 
stroke-linecap:round; stroke-linejoin:round;">
</g>
<g style="fill:#848400; fill-opacity:0.0; 
stroke:#848400; stroke-width:629.921; stroke-opacity:1; 
stroke-linecap:round; stroke-linejoin:round;">
<path d="M9744 8000
L9744 8000
" />
</g>
<g style="fill:#848400; fill-opacity:1.0; 
stroke:#848400; stroke-width:0; stroke-opacity:1; 
stroke-linecap:round; stroke-linejoin:round;">
<circle cx="5744.28" cy="8000" r="314.961" /> 
</g>
<g style="fill:#848400; fill-opacity:1.0; 
stroke:#848400; stroke-width:39.3701; stroke-opacity:1; 
stroke-linecap:round; stroke-linejoin:round;">
</g>
<g >
</g>
<g style="fill:#848400; fill-opacity:1.0; 
stroke:#848400; stroke-width:39.3701; stroke-opacity:1; 
stroke-linecap:round; stroke-linejoin:round;">
</g>
<g style="fill:#848400; fill-opacity:1.0; 
stroke:#848400; stroke-width:0; stroke-opacity:1; 
stroke-linecap:round; stroke-linejoin:round;">
<circle cx="20244.3" cy="2000" r="354.331" /> 
</g>
<g style="fill:#848400; fill-opacity:1.0; 
stroke:#848400; stroke-width:39.3701; stroke-opacity:1; 
stroke-linecap:round; stroke-linejoin:round;">
</g>
<g style="fill:#848400; fill-opacity:1.0; 
stroke:#848400; stroke-width:0; stroke-opacity:1; 
stroke-linecap:round; stroke-linejoin:round;">
<path style="fill:#848400; fill-opacity:1.0; 
stroke:#848400; stroke-width:0; stroke-opacity:1; 
stroke-linecap:round; stroke-linejoin:round;fill-rule:evenodd;"
d="M 18890,2354.33
18890,1645.67
19598.6,1645.67
19598.6,2354.33
Z" /> 
</g>
<g >
</g>
<g style="fill:#848400; fill-opacity:1.0; 
stroke:#848400; stroke-width:0; stroke-opacity:1; 
stroke-linecap:round; stroke-linejoin:round;">
<circle cx="17244.3" cy="2000" r="354.331" /> 
</g>
<g style="fill:#848400; fill-opacity:1.0; 
stroke:#848400; stroke-width:39.3701; stroke-opacity:1; 
stroke-linecap:round; stroke-linejoin:round;">
</g>
<g style="fill:#848400; fill-opacity:1.0; 
stroke:#848400; stroke-width:0; stroke-opacity:1; 
stroke-linecap:round; stroke-linejoin:round;">
<path style="fill:#848400; fill-opacity:1.0; 
stroke:#848400; stroke-width:0; stroke-opacity:1; 
stroke-linecap:round; stroke-linejoin:round;fill-rule:evenodd;"
d="M 15890,2354.33
15890,1645.67
16598.6,1645.67
16598.6,2354.33
Z" /> 
</g>
<g >
</g>
<g style="fill:#848400; fill-opacity:1.0; 
stroke:#848400; stroke-width:0; stroke-opacity:1; 
stroke-linecap:round; stroke-linejoin:round;">
<circle cx="10244.3" cy="2000" r="354.331" /> 
</g>
<g style="fill:#848400; fill-opacity:1.0; 
stroke:#848400; stroke-width:39.3701; stroke-opacity:1; 
stroke-linecap:round; stroke-linejoin:round;">
</g>
<g style="fill:#848400; fill-opacity:1.0; 
stroke:#848400; stroke-width:0; stroke-opacity:1; 
stroke-linecap:round; stroke-linejoin:round;">
<path style="fill:#848400; fill-opacity:1.0; 
stroke:#848400; stroke-width:0; stroke-opacity:1; 
stroke-linecap:round; stroke-linejoin:round;fill-rule:evenodd;"
d="M 8889.95,2354.33
8889.95,1645.67
9598.61,1645.67
9598.61,2354.33
Z" /> 
</g>
<g >
</g>
<g style="fill:#848400; fill-opacity:1.0; 
stroke:#848400; stroke-width:0; stroke-opacity:1; 
stroke-linecap:round; stroke-linejoin:round;">
<circle cx="7244.28" cy="2000" r="354.331" /> 
</g>
<g style="fill:#848400; fill-opacity:1.0; 
stroke:#848400; stroke-width:39.3701; stroke-opacity:1; 
stroke-linecap:round; stroke-linejoin:round;">
</g>
<g style="fill:#848400; fill-opacity:1.0; 
stroke:#848400; stroke-width:0; stroke-opacity:1; 
stroke-linecap:round; stroke-linejoin:round;">
<path style="fill:#848400; fill-opacity:1.0; 
stroke:#848400; stroke-width:0; stroke-opacity:1; 
stroke-linecap:round; stroke-linejoin:round;fill-rule:evenodd;"
d="M 5889.95,2354.33
5889.95,1645.67
6598.61,1645.67
6598.61,2354.33
Z" /> 
</g>
<g >
</g>
<g style="fill:#848400; fill-opacity:1.0; 
stroke:#848400; stroke-width:0; stroke-opacity:1; 
stroke-linecap:round; stroke-linejoin:round;">
</g>
<g style="fill:#848400; fill-opacity:1.0; 
stroke:#848400; stroke-width:669.291; stroke-opacity:1; 
stroke-linecap:round; stroke-linejoin:round;">
</g>
<g style="fill:#848400; fill-opacity:0.0; 
stroke:#848400; stroke-width:669.291; stroke-opacity:1; 
stroke-linecap:round; stroke-linejoin:round;">
<path d="M13744 2000
L13744 2000
" />
</g>
<g style="fill:#848400; fill-opacity:0.0; 
stroke:#848400; stroke-width:0; stroke-opacity:1; 
stroke-linecap:round; stroke-linejoin:round;">
</g>
<g style="fill:#848400; fill-opacity:1.0; 
stroke:#848400; stroke-width:0; stroke-opacity:1; 
stroke-linecap:round; stroke-linejoin:round;">
<path style="fill:#848400; fill-opacity:1.0; 
stroke:#848400; stroke-width:0; stroke-opacity:1; 
stroke-linecap:round; stroke-linejoin:round;fill-rule:evenodd;"
d="M 13078.9,2334.65
12409.6,2334.65
12409.6,1665.35
13078.9,1665.35
Z" /> 
</g>
<g >
</g>
<g >
</g>
<g style="fill:#008400; fill-opacity:1.0; 
stroke:#008400; stroke-width:0; stroke-opacity:1; 
stroke-linecap:round; stroke-linejoin:round;">
</g>
<g style="fill:#008400; fill-opacity:1.0; 
stroke:#008400; stroke-width:150; stroke-opacity:1; 
stroke-linecap:round; stroke-linejoin:round;">
</g>
<g style="fill:#008400; fill-opacity:0.0; 
stroke:#008400; stroke-width:150; stroke-opacity:1; 
stroke-linecap:round; stroke-linejoin:round;">
<path d="M11344 4000
L11244 4000
" />
<path d="M12744 2600
L11344 4000
" />
<path d="M12744 2000
L12744 2600
" />
<path d="M11144 8000
L9744 8000
" />
<path d="M6244 2200
L6244 2000
" />
<path d="M7732 3250
L7294 3250
" />
<path d="M7294 3250
L6244 2200
" />
<path d="M14744 6515
L13260 8000
" />
<path d="M17744 3515
L14744 6515
" />
<path d="M17744 3250
L17744 3515
" />
<path d="M8744 5000
L9644 5000
" />
<path d="M9644 5000
L10744 6100
" />
<path d="M10744 7500
L11244 8000
" />
<path d="M11244 8000
L11144 8000
" />
<path d="M10744 6100
L10744 7500
" />
<path d="M13260 8000
L11244 8000
" />
<path d="M8744 4000
L8744 4950
" />
<path d="M7998 3775
L8519 3775
" />
<path d="M8519 3775
L8744 4000
" />
<path d="M7732 3509
L7998 3775
" />
<path d="M7732 3250
L7732 3509
" />
<path d="M19244 2452
L19244 2000
" />
<path d="M19244 2884
L19244 2452
" />
<path d="M18878 3250
L19244 2884
" />
<path d="M18767 3250
L18878 3250
" />
<path d="M8756 3311
L11744 6300
" />
<path d="M8756 3250
L8756 3311
" />
<path d="M11744 6300
L11744 6515
" />
<path d="M18744 6000
L16744 8000
" />
<path d="M18744 3273
L18744 6000
" />
<path d="M18767 3250
L18744 3273
" />
<path d="M9144 2000
L9244 2000
" />
<path d="M8244 2900
L9144 2000
" />
<path d="M8244 3250
L8244 2900
" />
<path d="M17844 2600
L18256 3011
" />
<path d="M18256 3011
L18256 3250
" />
<path d="M16244 2000
L16844 2600
" />
<path d="M16844 2600
L17844 2600
" />
<path d="M18244 5800
L18244 4500
" />
<path d="M17544 6500
L18244 5800
" />
<path d="M16744 6500
L17544 6500
" />
</g>
<g >
</g>
<g style="fill:#008400; fill-opacity:0.0; 
stroke:#008400; stroke-width:150; stroke-opacity:1; 
stroke-linecap:round; stroke-linejoin:round;">
</g>
<g style="fill:#008400; fill-opacity:1.0; 
stroke:#008400; stroke-width:100; stroke-opacity:1; 
stroke-linecap:round; stroke-linejoin:round;">
<path style="fill:#008400; fill-opacity:1.0; 
stroke:#008400; stroke-width:100; stroke-opacity:1; 
stroke-linecap:round; stroke-linejoin:round;fill-rule:evenodd;"
d="M 20387.8,775.161
20525.9,816.843
20653.2,884.545
20764.9,975.691
20856.9,1086.81
20925.5,1213.66
20968.1,1351.42
20984.4,1506.87
20984.4,3740.16
20257,3740.16
20244.3,3738.9
20231.5,3740.16
20193.3,3743.92
20144.4,3758.78
20099.2,3782.9
20059.7,3815.37
20027.2,3854.94
20003.1,3900.08
19988.2,3949.06
19983.2,4000
19984.4,4012.76
19984.4,5487.23
19983.2,5500
19988.2,5550.94
20003.1,5599.92
20027.2,5645.06
20059.7,5684.63
20099.2,5717.1
20144.4,5741.22
20193.3,5756.08
20231.5,5759.84
20244.3,5761.1
20257,5759.84
20984.4,5759.84
20984.4,5987.97
20909.1,5956.75
20799.9,5935.04
20688.6,5935.04
20579.5,5956.75
20476.7,5999.34
20384.1,6061.17
20305.4,6139.86
20243.6,6232.39
20201,6335.21
20179.3,6444.36
20179.3,6555.64
20201,6664.79
20243.6,6767.61
20305.4,6860.14
20384.1,6938.83
20476.7,7000.66
20579.5,7043.25
20688.6,7064.96
20799.9,7064.96
20909.1,7043.25
20984.4,7012.03
20984.4,7487.97
20909.1,7456.75
20799.9,7435.04
20688.6,7435.04
20579.5,7456.75
20476.7,7499.34
20384.1,7561.17
20305.4,7639.86
20243.6,7732.39
20201,7835.21
20179.3,7944.36
20179.3,8055.64
20201,8164.79
20243.6,8267.61
20305.4,8360.14
20384.1,8438.83
20476.7,8500.66
20579.5,8543.25
20688.6,8564.96
20715,8564.96
20657.5,8612.58
20530.6,8681.17
20392.9,8723.82
20237.4,8740.16
6256.99,8740.16
6100.76,8724.84
5962.7,8683.16
5835.38,8615.46
5773.46,8564.96
5799.93,8564.96
5909.07,8543.25
6011.89,8500.66
6104.42,8438.83
6183.12,8360.14
6244.94,8267.61
6287.53,8164.79
6309.24,8055.64
6309.24,7944.36
6287.53,7835.21
6244.94,7732.39
6183.12,7639.86
6104.42,7561.17
6011.89,7499.34
5909.07,7456.75
5799.93,7435.04
5688.64,7435.04
5579.49,7456.75
5504.12,7487.97
5504.12,7330.5
6185.02,7330.5
6185.02,7330.57
6185.02,7330.58
6185.03,7334.02
6185.51,7377.98
6185.53,7378.18
6185.51,7378.38
6185.58,7381.9
6186.66,7422.74
6186.77,7423.65
6186.71,7424.57
6186.85,7428.08
6188.53,7463.27
6188.94,7466.08
6188.86,7468.91
6189.14,7472.42
6191.41,7499.42
6193.15,7508.9
6193.75,7518.52
6194.34,7521.99
6197.21,7538.28
6200.12,7548.72
6201.88,7559.41
6206.71,7572.34
6210.43,7585.65
6213.81,7592.34
6214.87,7595.78
6216.84,7599.41
6219.11,7605.47
6220.68,7608.61
6222.4,7612.01
6228.84,7622.1
6232.59,7629.54
6234.46,7631.93
6238.29,7639.01
6244.01,7645.92
6248.83,7653.47
6259.66,7664.8
6269.67,7676.88
6276.62,7682.54
6282.81,7689.02
6295.64,7698.03
6307.8,7707.93
6315.72,7712.13
6323.05,7717.29
6337.39,7723.64
6351.24,7730.99
6354.5,7732.3
6364.79,7736.37
6377.13,7739.89
6389.08,7744.56
6392.47,7745.49
6414.27,7751.3
6417.31,7751.8
6420.22,7752.81
6423.64,7753.61
6454.07,7760.48
6455.36,7760.64
6456.6,7761.04
6460.04,7761.75
6496.21,7769.01
6496.24,7769.01
6496.27,7769.02
6499.72,7769.69
6512.35,7772.03
6512.39,7772.04
6512.99,7772.15
6573.43,7783.22
6595.82,7787.4
6599.42,7796.58
6600.11,7798.42
6586.34,7818.5
6579.21,7828.87
6579.19,7828.92
6578.12,7830.48
6552.19,7868.84
6552.02,7869.14
6551.81,7869.41
6549.86,7872.34
6527.05,7907.34
6526.67,7908.07
6526.15,7908.72
6524.27,7911.69
6505.81,7941.32
6504.74,7943.48
6503.31,7945.43
6501.52,7948.46
6488.66,7970.71
6484.89,7979.01
6480.12,7986.8
6478.61,7989.97
6472.59,8002.83
6470.65,8008.29
6467.93,8013.4
6462.46,8031.43
6456.18,8049.19
6455.34,8054.91
6453.66,8060.46
6453,8063.91
6452.71,8065.49
6451.33,8081.74
6448.87,8097.85
6449.25,8106.18
6448.54,8114.49
6450.34,8130.69
6451.06,8146.98
6453.05,8155.08
6453.97,8163.37
6458.88,8178.91
6462.75,8194.75
6466.27,8202.3
6468.78,8210.26
6476.62,8224.55
6483.5,8239.33
6485.31,8242.35
6490.36,8250.65
6501.21,8265.07
6511.28,8280.03
6513.54,8282.72
6527.52,8299.17
6530.04,8301.61
6532.12,8304.44
6534.49,8307.04
6555.59,8329.87
6556.21,8330.42
6556.72,8331.08
6559.14,8333.63
6585.57,8361.07
6585.58,8361.07
6587.92,8363.48
6617.88,8393.76
6617.91,8393.79
6619.78,8395.66
6651.46,8427.01
6651.5,8427.05
6653.29,8428.8
6684.91,8459.46
6684.94,8459.48
6687,8461.47
6716.76,8489.66
6716.92,8489.79
6717.06,8489.95
6719.63,8492.35
6745.73,8516.32
6747.01,8517.27
6748.08,8518.45
6750.72,8520.78
6771.36,8538.75
6776.62,8542.49
6781.28,8546.94
6784.06,8549.09
6797.45,8559.3
6799.51,8560.58
6801.32,8562.19
6815.22,8570.42
6819.19,8573.51
6825.94,8576.91
6839.28,8585.16
6841.55,8586.01
6843.64,8587.24
6846.84,8588.71
6850.54,8590.37
6857.01,8592.55
6863.11,8595.62
6879.17,8600.08
6885.34,8602.39
6887.05,8602.67
6897.14,8606.07
6903.91,8606.96
6910.49,8608.78
6928.25,8610.13
6945.91,8612.43
6952.72,8611.98
6959.53,8612.49
6977.21,8610.36
6994.98,8609.18
7001.57,8607.42
7008.35,8606.6
7025.28,8601.08
7042.48,8596.47
7048.61,8593.46
7055.1,8591.34
7058.31,8589.91
7066.93,8585.98
7077.74,8579.72
7089.09,8574.54
7092.12,8572.75
7109.78,8562.16
7112,8560.51
7114.48,8559.27
7117.44,8557.38
7141.25,8541.91
7141.93,8541.37
7142.69,8540.97
7145.61,8539.01
7163.93,8526.56
7163.98,8526.53
7165.15,8525.73
7198.1,8503.06
7236.86,8476.54
7245.29,8470.8
7260.3,8476.81
7278.61,8482.14
7290.9,8486.31
7294.34,8487.58
7294.9,8487.67
7296.68,8488.27
7300.11,8489.05
7304.13,8489.93
7306.22,8490.17
7307.52,8490.55
7314.93,8491.21
7323.57,8492.23
7342.91,8495.3
7347.95,8495.11
7352.96,8495.71
7372.48,8494.19
7392.05,8493.45
7396.96,8492.28
7401.99,8491.89
7420.84,8486.61
7439.9,8482.09
7444.48,8479.99
7449.34,8478.63
7466.82,8469.78
7484.62,8461.64
7488.72,8458.69
7493.22,8456.42
7508.64,8444.34
7524.52,8432.9
7527.97,8429.22
7531.94,8426.11
7544.72,8411.27
7558.09,8396.96
7560.21,8394.15
7565.04,8387.66
7574.56,8371.84
7584.83,8356.51
7586.48,8353.4
7596.01,8335.04
7597.06,8332.42
7598.55,8330.02
7600.08,8326.85
7613.6,8298.31
7613.71,8298.02
7613.87,8297.75
7615.34,8294.55
7632.14,8257.54
7632.16,8257.49
7633.15,8255.3
7652.52,8211.51
7652.54,8211.45
7653.21,8209.94
7674.43,8161.06
7674.45,8161
7674.96,8159.82
7697.33,8107.54
7697.34,8107.49
7697.78,8106.47
7720.58,8052.49
7720.6,8052.44
7721.02,8051.45
7740.62,8004.44
7741.72,8007.11
7741.75,8007.15
7742.17,8008.18
7764.8,8062.29
7764.83,8062.34
7765.24,8063.32
7788.02,8117.1
7788.04,8117.14
7788.48,8118.19
7810.69,8169.93
7810.72,8169.99
7811.24,8171.21
7832.16,8219.23
7832.19,8219.28
7832.89,8220.88
7851.81,8263.48
7851.83,8263.52
7852.91,8265.91
7869.12,8301.39
7869.41,8301.89
7869.6,8302.44
7871.1,8305.62
7883.9,8332.3
7885.89,8335.59
7887.31,8339.15
7888.95,8342.27
7897.61,8358.45
7910.32,8377.47
7922.78,8396.66
7924.94,8399.33
7924.94,8399.33
7924.94,8399.34
7924.99,8399.4
7928.48,8403.65
7945.7,8420.88
7962.8,8438.07
7963.04,8438.23
7963.24,8438.43
7983.38,8451.93
8003.59,8465.54
8003.86,8465.65
8004.09,8465.8
8026.48,8475.14
8048.94,8484.55
8049.22,8484.61
8049.48,8484.72
8073.34,8489.54
8097.12,8494.4
8097.41,8494.4
8097.69,8494.46
8122.05,8494.55
8146.3,8494.7
8146.57,8494.65
8146.86,8494.65
8170.76,8490.01
8194.59,8485.45
8195.11,8485.29
8195.14,8485.28
8195.17,8485.27
8197.96,8484.43
8208.62,8481.12
8220.67,8476.04
8233.13,8472.09
8236.01,8470.83
8260.32,8487.41
8297.42,8512.85
8315.96,8525.62
8315.99,8525.64
8318.48,8527.34
8344.95,8545.12
8346.77,8546.09
8348.39,8547.38
8351.35,8549.27
8373.77,8563.36
8378.08,8565.51
8381.99,8568.31
8385.05,8570.05
8400.49,8578.66
8417.42,8586.05
8427.16,8590.88
8430.44,8592.65
8431.26,8592.9
8433.97,8594.25
8437.26,8595.47
8442.28,8597.29
8444.51,8597.86
8445.57,8598.32
8450.72,8599.45
8459.96,8601.82
8477.4,8607.23
8483.74,8607.91
8489.92,8609.49
8508.14,8610.49
8526.3,8612.42
8532.65,8611.85
8539.02,8612.2
8557.09,8609.64
8575.28,8608.01
8581.4,8606.21
8587.71,8605.32
8604.95,8599.3
8622.47,8594.16
8628.12,8591.22
8634.14,8589.11
8649.88,8579.87
8653,8578.24
8655.18,8577.33
8656.65,8576.33
8666.07,8571.42
8669,8569.48
8676.3,8564.57
8685.77,8556.74
8695.98,8549.87
8698.67,8547.62
8714.82,8533.9
8716.13,8532.56
8717.65,8531.46
8720.29,8529.13
8743.72,8508.04
8743.82,8507.94
8743.92,8507.86
8746.52,8505.48
8775.68,8478.44
8775.71,8478.4
8777.67,8476.58
8810.98,8445
8811.02,8444.95
8812.35,8443.69
8833.43,8423.42
8833.46,8423.38
8835.32,8421.57
8872.18,8385.35
8872.44,8385.04
8872.76,8384.79
8875.24,8382.3
8907.1,8349.9
8907.77,8349.07
8908.58,8348.39
8911.01,8345.84
8936.57,8318.65
8938.33,8316.37
8940.45,8314.43
8942.79,8311.79
8960.77,8291.2
8966.49,8283.19
8973.12,8275.9
8975.2,8273.07
8984.31,8260.46
8989.15,8252.18
8989.47,8251.79
8990.1,8250.62
8996.4,8242.1
9002.22,8229.77
9009.1,8217.98
9011.22,8211.84
9012.98,8208.6
9014.5,8203.74
9017.39,8197.63
9018.55,8194.31
9019.42,8191.75
9022.13,8180.27
9025.16,8171.5
9025.61,8168.22
9027.66,8161.66
9028.63,8152.68
9030.7,8143.89
9031.27,8128.29
9031.78,8123.58
9031.89,8122.79
9031.88,8122.65
9032.94,8112.77
9032.15,8103.77
9032.48,8094.75
9030,8079.33
9028.63,8063.78
9026.1,8055.11
9024.67,8046.19
9019.24,8031.56
9014.88,8016.57
9013.55,8013.31
9009.49,8003.58
9003,7991.48
8997.57,7978.87
8995.85,7975.8
8984.64,7956.12
8982.96,7953.76
8981.72,7951.14
8979.89,7948.13
8962.76,7920.5
8962.25,7919.83
8961.87,7919.07
8959.97,7916.1
8938.18,7882.51
8938.04,7882.33
8937.93,7882.13
8935.99,7879.19
8910.77,7841.63
8910.74,7841.59
8909.47,7839.7
8902.3,7829.23
8902.28,7829.22
8902.13,7828.99
8881.15,7798.43
8885.45,7787.4
8897.96,7785.05
8955.69,7774.45
8968.08,7772.19
8968.13,7772.17
8970.67,7771.7
9008.1,7764.47
9009.15,7764.16
9010.25,7764.05
9013.69,7763.32
9046.32,7756.25
9048.42,7755.57
9050.6,7755.28
9054.02,7754.45
9078.97,7748.22
9085.84,7745.77
9092.98,7744.28
9096.33,7743.21
9110.71,7738.5
9132.26,7729.02
9133.37,7728.54
9145.95,7723.78
9149.3,7721.69
9153.9,7719.72
9155.67,7718.72
9155.73,7718.7
9155.78,7718.66
9156.97,7718
9158.9,7716.9
9173.01,7706.92
9187.68,7697.77
9193.05,7692.75
9199.05,7688.5
9210.95,7675.98
9223.57,7664.16
9227.86,7658.18
9232.92,7652.85
9242.17,7638.25
9252.24,7624.2
9255.29,7617.51
9259.22,7611.3
9265.45,7595.18
9272.61,7579.45
9273.73,7576.11
9276.91,7566.37
9281.88,7543.86
9287.14,7521.4
9287.52,7518.38
9287.52,7518.35
9287.52,7518.33
9287.58,7517.91
9290.16,7496.14
9290.26,7491.01
9291.16,7485.94
9291.41,7482.43
9293.39,7451.17
9293.34,7449.5
9293.58,7447.85
9293.74,7444.34
9295.12,7406.11
9295.09,7405.63
9295.16,7405.14
9295.25,7401.62
9296.03,7358.96
9296.03,7358.92
9296.04,7358.88
9296.08,7355.36
9296.26,7310.87
9296.26,7310.87
9296.25,7307.35
9295.84,7263.41
9295.81,7263.21
9295.83,7263.01
9295.77,7259.49
9294.75,7218.7
9294.63,7217.78
9294.69,7216.85
9294.56,7213.34
9292.93,7178.23
9292.51,7175.39
9292.6,7172.52
9292.33,7169.01
9290.09,7142.13
9288.33,7132.5
9287.72,7122.73
9287.13,7119.26
9284.28,7103.11
9281.06,7091.56
9279,7079.74
9274.46,7067.93
9271.06,7055.75
9265.65,7045.04
9264.24,7041.38
9262.47,7036.4
9262.05,7035.7
9261.34,7033.84
9259.74,7030.71
9258.02,7027.41
9252.29,7018.6
9248.88,7011.86
9244.55,7006.32
9237.31,6994.15
9233.94,6990.41
9231.2,6986.19
9219.23,6973.91
9218.61,6973.11
9217.64,6972.27
9217.53,6972.16
9204.42,6957.59
9200.39,6954.57
9196.88,6950.97
9180.74,6939.86
9165.06,6928.11
9160.53,6925.94
9156.38,6923.08
9138.39,6915.31
9135.86,6914.1
9135.3,6913.76
9134.59,6913.49
9120.72,6906.84
9117.41,6905.66
9107.85,6902.33
9098.36,6900.03
9089.2,6896.62
9085.8,6895.75
9064.04,6890.32
9062.49,6890.1
9061.02,6889.59
9057.59,6888.81
9025.79,6881.77
9025.75,6881.76
9025.7,6881.75
9022.26,6881.01
8982.6,6872.82
8982.55,6872.82
8979.99,6872.3
8934.62,6863.43
8934.56,6863.42
8932.85,6863.09
8908.13,6858.44
8908.11,6858.44
8907.87,6858.39
8874.57,6852.17
8879.08,6845.53
8893.59,6824.39
8893.61,6824.36
8894.01,6823.79
8921.19,6783.96
8921.21,6783.91
8922.63,6781.83
8946.77,6745.67
8946.78,6745.65
8948.49,6743.06
8968.42,6712.39
8968.73,6711.79
8969.15,6711.25
8971.04,6708.28
8985.57,6684.94
8987.34,6681.36
8989.67,6678.12
8991.41,6675.06
8999.37,6660.88
9006.98,6643.54
9007.65,6642.19
9012.6,6633.13
9013.44,6630.45
9015.37,6626.55
9016.59,6623.25
9017.74,6620.07
9018.37,6617.6
9019.13,6615.85
9021.31,6606.04
9022.08,6603.01
9027.36,6586.22
9028.13,6579.23
9029.86,6572.41
9030.81,6554.84
9032.73,6537.34
9032.12,6530.33
9032.5,6523.31
9030.02,6505.89
9028.5,6488.35
9026.55,6481.59
9025.55,6474.62
9019.73,6458.02
9015.78,6444.36
9179.32,6444.36
9179.32,6555.64
9201.03,6664.79
9243.62,6767.61
9305.45,6860.14
9384.14,6938.83
9476.67,7000.66
9579.49,7043.25
9688.64,7064.96
9799.93,7064.96
9909.07,7043.25
10011.9,7000.66
10104.4,6938.83
10183.1,6860.14
10244.9,6767.61
10287.5,6664.79
10309.2,6555.64
10309.2,6444.36
10287.5,6335.21
10244.9,6232.39
10183.1,6139.86
10104.4,6061.17
10011.9,5999.34
9909.07,5956.75
9799.93,5935.04
9688.64,5935.04
9579.49,5956.75
9476.67,5999.34
9384.14,6061.17
9305.45,6139.86
9243.62,6232.39
9201.03,6335.21
9179.32,6444.36
9015.78,6444.36
9014.84,6441.11
9011.61,6434.86
9009.28,6428.22
9000.35,6413.06
8997.23,6407.03
8996.55,6405.45
8995.99,6404.63
8992.26,6397.42
8990.33,6394.48
8985.39,6387.09
8976.59,6376.35
8968.73,6364.89
8966.45,6362.21
8952.79,6346.42
8951.25,6344.95
8949.99,6343.22
8947.62,6340.62
8926.99,6318.19
8926.91,6318.12
8926.85,6318.03
8924.44,6315.46
8898.59,6288.17
8898.54,6288.14
8896.92,6286.43
8867.58,6256.06
8867.53,6256.02
8866.26,6254.7
8835.18,6223.01
8835.13,6222.97
8833.93,6221.74
8802.85,6190.49
8802.8,6190.45
8801.45,6189.09
8772.13,6160.07
8772.09,6160.04
8770.24,6158.22
8744.41,6133.19
8744.07,6132.92
8743.79,6132.59
8741.24,6130.17
8720.65,6110.89
8718.01,6108.87
8715.76,6106.43
8713.11,6104.11
8699.5,6092.37
8684.46,6081.75
8669.95,6070.41
8666.97,6068.54
8662.41,6065.74
8660.29,6064.7
8659.32,6064.02
8656.38,6062.71
8651.66,6059.48
8634.76,6052.24
8618.22,6044.16
8612.2,6042.57
8606.46,6040.11
8588.46,6036.29
8570.69,6031.58
8564.46,6031.19
8558.36,6029.89
8539.97,6029.64
8521.61,6028.47
8515.43,6029.3
8509.19,6029.21
8491.1,6032.53
8472.86,6034.96
8466.96,6036.96
8460.82,6038.09
8443.72,6044.86
8426.3,6050.79
8420.9,6053.9
8415.1,6056.2
8411.99,6057.83
8404.57,6061.77
8398.73,6065.66
8392.39,6068.69
8389.39,6070.53
8371.67,6081.61
8371.34,6081.86
8370.97,6082.05
8368,6083.94
8341.69,6101.02
8341.64,6101.05
8339.82,6102.24
8306.63,6124.2
8306.58,6124.24
8305.32,6125.07
8266.99,6150.77
8266.95,6150.81
8266.03,6151.42
8237.12,6171
8237.1,6171.02
8236.73,6171.26
8209.61,6189.71
8203.41,6156.84
8203.41,6156.84
8170.41,5981.79
8170.34,5981.53
8170.31,5981.25
8163.43,5957.88
8156.63,5934.58
8156.51,5934.34
8156.43,5934.08
8145.13,5912.47
8133.94,5890.95
8133.77,5890.74
8133.65,5890.5
8118.44,5871.58
8103.21,5852.56
8103,5852.39
8102.83,5852.17
8084.2,5836.54
8065.61,5820.87
8065.37,5820.74
8065.16,5820.56
8043.73,5808.78
8022.57,5797.09
8022.31,5797.01
8022.07,5796.87
7998.82,5789.5
7975.73,5782.12
7975.45,5782.09
7975.19,5782.01
7951.02,5779.29
7926.87,5776.53
7926.6,5776.55
7926.33,5776.52
7922.81,5776.5
7558.46,5776.5
7558.19,5776.53
7557.91,5776.5
7533.63,5778.93
7509.52,5781.3
7509.26,5781.38
7508.98,5781.4
7485.7,5788.49
7462.44,5795.51
7462.2,5795.64
7461.94,5795.72
7440.5,5807.18
7419.02,5818.6
7418.81,5818.77
7418.57,5818.9
7399.68,5834.37
7380.91,5849.68
7380.74,5849.89
7380.53,5850.06
7364.99,5868.93
7349.57,5887.57
7349.44,5887.81
7349.26,5888.02
7337.74,5909.45
7326.18,5930.83
7326.1,5931.09
7325.97,5931.33
7318.82,5954.58
7311.64,5977.8
7311.61,5978.07
7311.53,5978.34
7310.85,5981.79
7277.85,6156.83
7277.85,6156.84
7271.65,6189.71
7244.53,6171.26
7244.5,6171.25
7243.97,6170.88
7203.06,6143.23
7203.01,6143.2
7201.86,6142.42
7164.88,6117.73
7164.83,6117.7
7163.42,6116.76
7132.1,6096.16
7132.06,6096.14
7129.85,6094.69
7105.9,6079.31
7104.78,6078.73
7103.79,6077.96
7100.8,6076.11
7085.96,6067.07
7076.43,6062.48
7067.48,6056.85
7064.32,6055.3
7060.28,6053.35
7053.02,6050.68
7046.19,6047.07
7041.78,6045.76
7041.67,6045.7
7041.16,6045.57
7029.99,6042.23
7014.11,6036.41
7006.48,6035.2
6999.07,6032.99
6982.23,6031.38
6965.54,6028.75
6957.82,6029.06
6950.12,6028.32
6933.3,6030.02
6916.4,6030.68
6908.88,6032.48
6901.19,6033.26
6885.02,6038.19
6868.57,6042.12
6861.55,6045.34
6854.16,6047.6
6839.24,6055.58
6823.88,6062.63
6817.62,6067.16
6810.8,6070.8
6807.89,6072.78
6800.61,6077.79
6789.94,6086.8
6778.55,6094.86
6775.9,6097.19
6760.35,6111.05
6758.9,6112.61
6757.2,6113.9
6754.63,6116.3
6732.54,6137.24
6732.47,6137.32
6732.39,6137.38
6729.86,6139.82
6702.98,6166.06
6702.94,6166.11
6701.27,6167.75
6671.35,6197.53
6671.31,6197.58
6670.02,6198.86
6638.79,6230.41
6638.75,6230.46
6637.55,6231.67
6606.77,6263.21
6606.73,6263.25
6605.4,6264.62
6576.8,6294.38
6576.77,6294.42
6574.99,6296.29
6550.32,6322.5
6550.07,6322.83
6549.76,6323.1
6547.38,6325.69
6528.38,6346.59
6526.42,6349.22
6524.04,6351.49
6521.76,6354.17
6510.18,6367.98
6499.94,6382.95
6488.94,6397.38
6487.11,6400.38
6484.34,6405
6483.2,6407.42
6482.41,6408.56
6480.11,6413.93
6474.58,6425.62
6464.53,6446.1
6464.07,6447.83
6463.3,6449.45
6457.74,6471.55
6451.86,6493.61
6451.74,6495.4
6451.3,6497.14
6450.14,6519.91
6448.65,6542.68
6448.88,6544.46
6448.79,6546.25
6452.08,6568.84
6455.04,6591.44
6455.61,6593.14
6455.87,6594.92
6463.47,6616.42
6465.71,6623.03
6466.08,6624.61
6466.7,6625.97
6470.77,6638.03
6472.24,6641.23
6476.22,6649.75
6481.87,6659.28
6486.47,6669.36
6488.25,6672.39
6499.42,6691.06
6500.45,6692.45
6501.22,6694.02
6503.09,6697
6520.26,6723.98
6520.33,6724.06
6520.37,6724.15
6522.29,6727.1
6544.3,6760.58
6544.33,6760.61
6545.8,6762.83
6571.48,6800.97
6571.51,6801.02
6572.51,6802.5
6587.27,6824.08
6587.27,6824.09
6606.47,6852.21
6599.04,6853.62
6573.55,6858.36
6573.5,6858.38
6572.57,6858.55
6525.13,6867.58
6525.08,6867.6
6522.7,6868.06
6479.85,6876.65
6479.82,6876.66
6476.91,6877.26
6440.82,6884.95
6440.29,6885.11
6439.74,6885.18
6436.31,6885.95
6409.14,6892.26
6405.72,6893.42
6402.15,6893.99
6398.75,6894.91
6382.68,6899.37
6367.62,6905.18
6352.2,6909.97
6348.97,6911.36
6345.74,6912.78
6340.99,6915.43
6335.9,6917.34
6319.57,6927.43
6302.84,6936.81
6298.7,6940.34
6294.07,6943.19
6280.01,6956.27
6265.42,6968.72
6262.04,6972.98
6258.06,6976.68
6246.81,6992.23
6234.91,7007.28
6232.43,7012.12
6229.24,7016.53
6221.23,7033.97
6212.47,7051.04
6210.98,7056.27
6208.71,7061.21
6207.58,7064.55
6204.42,7074.12
6199.24,7097.16
6193.88,7120.13
6193.64,7122.04
6193.62,7122.1
6193.62,7122.16
6193.44,7123.62
6190.89,7145.26
6190.78,7150.46
6189.88,7155.59
6189.64,7159.1
6187.7,7190.26
6187.76,7191.95
6187.51,7193.61
6187.36,7197.13
6186.03,7235.29
6186.06,7235.78
6185.99,7236.27
6185.91,7239.79
6185.18,7282.41
6185.18,7282.45
6185.18,7282.5
6185.14,7286.01
6185.02,7330.5
6185.02,7330.5
5504.12,7330.5
5504.12,7012.03
5579.49,7043.25
5688.64,7064.96
5799.93,7064.96
5909.07,7043.25
6011.89,7000.66
6104.42,6938.83
6183.12,6860.14
6244.94,6767.61
6287.53,6664.79
6309.24,6555.64
6309.24,6444.36
6287.53,6335.21
6244.94,6232.39
6183.12,6139.86
6104.42,6061.17
6011.89,5999.34
5909.07,5956.75
5799.93,5935.04
5688.64,5935.04
5579.49,5956.75
5504.12,5987.97
5504.12,5759.84
6231.52,5759.84
6244.28,5761.1
6257.05,5759.84
6295.22,5756.08
6344.2,5741.22
6389.34,5717.1
6428.91,5684.63
6461.38,5645.06
6485.51,5599.92
6500.36,5550.94
6504.22,5511.81
7276.54,5511.81
7281.36,5560.82
7295.66,5607.94
7318.87,5651.38
7350.11,5689.44
7388.18,5720.68
7431.61,5743.9
7478.74,5758.19
7527.75,5763.02
7631.78,5761.81
7694.28,5699.31
7694.28,5207.48
7794.28,5207.48
7794.28,5699.31
7856.78,5761.81
7960.82,5763.02
8009.83,5758.19
8056.95,5743.9
8100.38,5720.68
8138.45,5689.44
8169.69,5651.38
8192.9,5607.94
8207.2,5560.82
8212.03,5511.81
8210.82,5269.98
8148.32,5207.48
7794.28,5207.48
7694.28,5207.48
7340.25,5207.48
7277.75,5269.98
7276.54,5511.81
6504.22,5511.81
6505.38,5500
6504.12,5487.24
6504.12,4803.15
7276.54,4803.15
7277.75,5044.98
7340.25,5107.48
7694.28,5107.48
7694.28,4615.65
7631.78,4553.15
7527.75,4551.94
7478.74,4556.77
7431.61,4571.06
7388.18,4594.28
7350.11,4625.52
7318.87,4663.59
7295.66,4707.02
7281.36,4754.14
7276.54,4803.15
6504.12,4803.15
6504.12,4012.76
6505.38,4000
6500.36,3949.06
6485.51,3900.08
6461.38,3854.94
6428.91,3815.37
6389.34,3782.9
6344.2,3758.78
6295.22,3743.92
6257.05,3740.16
6244.28,3738.9
6231.52,3740.16
5504.12,3740.16
5504.12,1645.67
5638.74,1645.67
5638.74,2354.33
5643.57,2403.34
5657.86,2450.46
5681.08,2493.9
5712.32,2531.96
5750.39,2563.2
5793.82,2586.42
5840.94,2600.71
5889.95,2605.54
6190.2,2605.54
7053.18,3468.52
7063.36,3480.92
7075.76,3491.1
7075.76,3491.1
7112.85,3521.54
7155.38,3544.27
7169.31,3551.71
7230.57,3570.3
7278.32,3575
7278.32,3575
7287.43,3575.9
7289.24,3594.28
7303.53,3641.41
7326.75,3684.84
7357.99,3722.91
7396.06,3754.15
7439.49,3777.36
7486.61,3791.66
7535.62,3796.49
7560.02,3796.49
7757.06,3993.52
7767.23,4005.92
7785.17,4020.64
7783.44,4026.33
7776.54,4096.46
7776.54,4588.58
7783.44,4658.71
7794.28,4694.44
7794.28,5107.48
8148.32,5107.48
8210.82,5044.98
8211.3,4948.06
8276.54,4948.06
8276.54,5403.54
8283.44,5473.67
8303.9,5541.11
8337.12,5603.26
8381.83,5657.73
8436.3,5702.44
8498.45,5735.66
8565.88,5756.11
8636.01,5763.02
8852.55,5763.02
8922.68,5756.11
8990.12,5735.66
9052.26,5702.44
9106.74,5657.73
9151.44,5603.26
9184.66,5541.11
9205.12,5473.67
9212.03,5403.54
9212.03,5325
9509.66,5325
10419.3,6234.62
10419.3,7484.03
10417.7,7500
10424,7563.71
10442.6,7624.97
10469.3,7675
10206.6,7675
10183.1,7639.86
10104.4,7561.17
10011.9,7499.34
9909.07,7456.75
9799.93,7435.04
9688.64,7435.04
9579.49,7456.75
9476.67,7499.34
9384.14,7561.17
9305.45,7639.86
9243.62,7732.39
9201.03,7835.21
9179.32,7944.36
9179.32,8055.64
9201.03,8164.79
9243.62,8267.61
9305.45,8360.14
9384.14,8438.83
9476.67,8500.66
9579.49,8543.25
9688.64,8564.96
9799.93,8564.96
9909.07,8543.25
10011.9,8500.66
10104.4,8438.83
10183.1,8360.14
10206.6,8325
11228.3,8325
11244.3,8326.57
11260.2,8325
13244.1,8325
13260,8326.57
13276,8325
13276,8325
13323.7,8320.3
13385,8301.71
13441.5,8271.54
13491,8230.92
13501.1,8218.52
14179.4,7540.26
14201,7649.04
14243.6,7751.86
14305.4,7844.39
14384.1,7923.09
14476.7,7984.91
14579.5,8027.5
14688.6,8049.21
14799.9,8049.21
14909.1,8027.5
15011.9,7984.91
15104.4,7923.09
15183.1,7844.39
15244.9,7751.86
15287.5,7649.04
15309.2,7539.9
15309.2,7428.61
15287.5,7319.46
15244.9,7216.64
15183.1,7124.11
15117.5,7058.53
15155.4,7047.05
15198.8,7023.83
15236.9,6992.59
15268.1,6954.53
15291.3,6911.09
15305.6,6863.97
15310.5,6814.96
15310.5,6409.2
16207.8,5511.81
17276.5,5511.81
17281.4,5560.82
17295.7,5607.94
17318.9,5651.38
17350.1,5689.44
17388.2,5720.68
17431.6,5743.9
17478.7,5758.19
17527.7,5763.02
17631.8,5761.81
17694.3,5699.31
17694.3,5207.48
17340.2,5207.48
17277.7,5269.98
17276.5,5511.81
16207.8,5511.81
16916.5,4803.15
17276.5,4803.15
17277.7,5044.98
17340.2,5107.48
17694.3,5107.48
17694.3,4615.65
17631.8,4553.15
17527.7,4551.94
17478.7,4556.77
17431.6,4571.06
17388.2,4594.28
17350.1,4625.52
17318.9,4663.59
17295.7,4707.02
17281.4,4754.14
17276.5,4803.15
16916.5,4803.15
17923.2,3796.49
17938.3,3796.49
17936.3,3797.56
17881.8,3842.27
17837.1,3896.74
17803.9,3958.89
17783.4,4026.33
17776.5,4096.46
17776.5,4588.58
17783.4,4658.71
17794.3,4694.44
17794.3,5107.48
17802.2,5107.48
17802.2,5207.48
17794.3,5207.48
17794.3,5699.31
17839.8,5744.85
17409.7,6175
17206.6,6175
17183.1,6139.86
17104.4,6061.17
17011.9,5999.34
16909.1,5956.75
16799.9,5935.04
16688.6,5935.04
16579.5,5956.75
16476.7,5999.34
16384.1,6061.17
16305.4,6139.86
16243.6,6232.39
16201,6335.21
16179.3,6444.36
16179.3,6555.64
16201,6664.79
16243.6,6767.61
16305.4,6860.14
16384.1,6938.83
16476.7,7000.66
16579.5,7043.25
16688.6,7064.96
16799.9,7064.96
16909.1,7043.25
17011.9,7000.66
17104.4,6938.83
17183.1,6860.14
17206.6,6825
17459.7,6825
16841.4,7443.29
16799.9,7435.04
16688.6,7435.04
16579.5,7456.75
16476.7,7499.34
16384.1,7561.17
16305.4,7639.86
16243.6,7732.39
16201,7835.21
16179.3,7944.36
16179.3,8055.64
16201,8164.79
16243.6,8267.61
16305.4,8360.14
16384.1,8438.83
16476.7,8500.66
16579.5,8543.25
16688.6,8564.96
16799.9,8564.96
16909.1,8543.25
17011.9,8500.66
17104.4,8438.83
17183.1,8360.14
17244.9,8267.61
17287.5,8164.79
17309.2,8055.64
17309.2,7944.36
17301,7902.9
18962.8,6241.1
18975.2,6230.92
18985.4,6218.52
18985.4,6218.52
19015.8,6181.43
19046,6124.97
19047.1,6121.36
19064.6,6063.71
19069.3,6015.97
19069.3,6015.96
19070.9,6000
19069.3,5984.04
19069.3,5688.47
19106.7,5657.73
19151.4,5603.26
19184.7,5541.11
19205.1,5473.67
19212,5403.54
19212,4911.42
19205.1,4841.29
19184.7,4773.85
19151.4,4711.7
19106.7,4657.23
19069.3,4626.49
19069.3,3772.88
19104.3,3754.15
19142.4,3722.91
19173.6,3684.84
19196.8,3641.41
19211.1,3594.28
19216,3545.28
19216,3372.39
19462.8,3125.55
19475.2,3115.37
19501.5,3083.33
19515.8,3065.88
19528.2,3042.7
19546,3009.42
19564.6,2948.16
19569.3,2900.41
19569.3,2900.41
19570.9,2884.45
19569.3,2868.48
19569.3,2605.54
19598.6,2605.54
19647.6,2600.71
19694.7,2586.42
19738.2,2563.2
19776.2,2531.96
19807.5,2493.9
19830.7,2450.46
19832.9,2443.26
19859,2469.41
19958,2535.55
20068,2581.11
20184.8,2604.33
20303.8,2604.33
20420.6,2581.11
20530.5,2535.55
20629.5,2469.41
20713.7,2385.24
20779.8,2286.26
20825.4,2176.28
20848.6,2059.52
20848.6,1940.48
20825.4,1823.72
20779.8,1713.74
20713.7,1614.76
20629.5,1530.59
20530.5,1464.45
20420.6,1418.89
20303.8,1395.67
20184.8,1395.67
20068,1418.89
19958,1464.45
19859,1530.59
19832.9,1556.74
19830.7,1549.54
19807.5,1506.1
19776.2,1468.04
19738.2,1436.8
19694.7,1413.58
19647.6,1399.29
19598.6,1394.46
18890,1394.46
18840.9,1399.29
18793.8,1413.58
18750.4,1436.8
18712.3,1468.04
18681.1,1506.1
18657.9,1549.54
18643.6,1596.66
18638.7,1645.67
18638.7,2354.33
18643.6,2403.34
18657.9,2450.46
18681.1,2493.9
18712.3,2531.96
18750.4,2563.2
18793.8,2586.42
18840.9,2600.71
18890,2605.54
18919.3,2605.54
18919.3,2703.51
18571.1,2703.51
18522,2708.34
18512,2711.39
18502,2708.34
18452.9,2703.51
18407.4,2703.51
18085.4,2381.48
18075.2,2369.08
18025.7,2328.46
17969.3,2298.29
17908,2279.7
17860.2,2275
17860.2,2275
17844.3,2273.43
17828.3,2275
17784.5,2275
17825.4,2176.28
17848.6,2059.52
17848.6,1940.48
17825.4,1823.72
17779.8,1713.74
17713.7,1614.76
17629.5,1530.59
17530.5,1464.45
17420.6,1418.89
17303.8,1395.67
17184.8,1395.67
17068,1418.89
16958,1464.45
16859,1530.59
16832.9,1556.74
16830.7,1549.54
16807.5,1506.1
16776.2,1468.04
16738.2,1436.8
16694.7,1413.58
16647.6,1399.29
16598.6,1394.46
15890,1394.46
15840.9,1399.29
15793.8,1413.58
15750.4,1436.8
15712.3,1468.04
15681.1,1506.1
15657.9,1549.54
15643.6,1596.66
15638.7,1645.67
15638.7,2354.33
15643.6,2403.34
15657.9,2450.46
15681.1,2493.9
15712.3,2531.96
15750.4,2563.2
15793.8,2586.42
15840.9,2600.71
15890,2605.54
16390.2,2605.54
16603.2,2818.52
16613.4,2830.92
16640.8,2853.4
16662.8,2871.53
16662.8,2871.54
16719.3,2901.71
16780.6,2920.3
16828.3,2925
16828.3,2925
16844.3,2926.57
16860.2,2925
17299.1,2925
17296.2,2954.72
17296.2,3504.19
14866.6,5933.83
14429.3,5933.83
14380.3,5938.66
14333.2,5952.95
14289.8,5976.17
14251.7,6007.41
14220.4,6045.47
14197.2,6088.91
14182.9,6136.03
14178.1,6185.04
14178.1,6622.3
13125.4,7675
12276.8,7675
12287.5,7649.04
12309.2,7539.9
12309.2,7428.61
12287.5,7319.46
12244.9,7216.64
12183.1,7124.11
12117.5,7058.53
12155.4,7047.05
12198.8,7023.83
12236.9,6992.59
12268.1,6954.53
12291.3,6911.09
12305.6,6863.97
12310.5,6814.96
12310.5,6185.04
12305.6,6136.03
12291.3,6088.91
12268.1,6045.47
12236.9,6007.41
12198.8,5976.17
12155.4,5952.95
12108.3,5938.66
12059.2,5933.83
11837.7,5933.83
10048.3,4144.36
10679.3,4144.36
10679.3,4255.64
10701,4364.79
10743.6,4467.61
10805.4,4560.14
10884.1,4638.83
10976.7,4700.66
11079.5,4743.25
11188.6,4764.96
11299.9,4764.96
11409.1,4743.25
11511.9,4700.66
11604.4,4638.83
11683.1,4560.14
11744.9,4467.61
11787.5,4364.79
11809.2,4255.64
11809.2,4144.36
14679.3,4144.36
14679.3,4255.64
14701,4364.79
14743.6,4467.61
14805.4,4560.14
14884.1,4638.83
14976.7,4700.66
15079.5,4743.25
15188.6,4764.96
15299.9,4764.96
15409.1,4743.25
15511.9,4700.66
15604.4,4638.83
15683.1,4560.14
15744.9,4467.61
15787.5,4364.79
15809.2,4255.64
15809.2,4144.36
15787.5,4035.21
15744.9,3932.39
15683.1,3839.86
15604.4,3761.17
15511.9,3699.34
15409.1,3656.75
15299.9,3635.04
15188.6,3635.04
15079.5,3656.75
14976.7,3699.34
14884.1,3761.17
14805.4,3839.86
14743.6,3932.39
14701,4035.21
14679.3,4144.36
11809.2,4144.36
11787.5,4035.21
11782,4021.89
12962.8,2841.1
12975.2,2830.92
13006.1,2793.29
13015.8,2781.43
13020.3,2773.05
13046,2724.97
13064.6,2663.71
13069.3,2615.97
13069.3,2615.96
13070.9,2600
13069.5,2585.86
13078.9,2585.86
13127.9,2581.03
13175.1,2566.73
13218.5,2543.52
13256.6,2512.28
13287.8,2474.21
13311,2430.78
13320.6,2399.03
13350.5,2432.12
13442.3,2500.65
13545.8,2549.93
13603.8,2567.51
13694.3,2519.75
13694.3,2050
13794.3,2050
13794.3,2519.75
13884.8,2567.51
13942.7,2549.93
14046.2,2500.65
14138.1,2432.12
14214.8,2346.99
14273.5,2248.52
14311.8,2140.51
14264.3,2050
13794.3,2050
13694.3,2050
13686.4,2050
13686.4,1950
13694.3,1950
13694.3,1480.25
13794.3,1480.25
13794.3,1950
14264.3,1950
14311.8,1859.49
14273.5,1751.48
14214.8,1653.01
14138.1,1567.88
14046.2,1499.35
13942.7,1450.07
13884.8,1432.49
13794.3,1480.25
13694.3,1480.25
13603.8,1432.49
13545.8,1450.07
13442.3,1499.35
13350.5,1567.88
13320.6,1600.97
13311,1569.22
13287.8,1525.79
13256.6,1487.72
13218.5,1456.48
13175.1,1433.27
13127.9,1418.97
13078.9,1414.14
12409.6,1414.14
12360.6,1418.97
12313.5,1433.27
12270.1,1456.48
12232,1487.72
12200.8,1525.79
12177.5,1569.22
12163.3,1616.35
12158.4,1665.35
12158.4,2334.65
12163.3,2383.65
12177.5,2430.78
12200.8,2474.21
12232,2512.28
12270.1,2543.52
12313.5,2566.73
12316.9,2567.76
11249.6,3635.04
11188.6,3635.04
11079.5,3656.75
10976.7,3699.34
10884.1,3761.17
10805.4,3839.86
10743.6,3932.39
10701,4035.21
10679.3,4144.36
10048.3,4144.36
9204.15,3300.25
9204.15,2954.72
9199.33,2905.72
9185.03,2858.59
9161.82,2815.16
9130.58,2777.09
9092.51,2745.85
9049.08,2722.64
9001.95,2708.34
8952.94,2703.51
8900.39,2703.51
8998.36,2605.54
9598.61,2605.54
9647.62,2600.71
9694.75,2586.42
9738.18,2563.2
9776.24,2531.96
9807.49,2493.9
9830.7,2450.46
9832.89,2443.26
9859.04,2469.41
9958.02,2535.55
10068,2581.11
10184.8,2604.33
10303.8,2604.33
10420.6,2581.11
10530.5,2535.55
10629.5,2469.41
10713.7,2385.24
10779.8,2286.26
10825.4,2176.28
10848.6,2059.52
10848.6,1940.48
10825.4,1823.72
10779.8,1713.74
10713.7,1614.76
10629.5,1530.59
10530.5,1464.45
10420.6,1418.89
10303.8,1395.67
10184.8,1395.67
10068,1418.89
9958.02,1464.45
9859.04,1530.59
9832.89,1556.74
9830.7,1549.54
9807.49,1506.1
9776.24,1468.04
9738.18,1436.8
9694.75,1413.58
9647.62,1399.29
9598.61,1394.46
8889.95,1394.46
8840.94,1399.29
8793.82,1413.58
8750.39,1436.8
8712.32,1468.04
8681.08,1506.1
8657.86,1549.54
8643.57,1596.66
8638.74,1645.67
8638.74,2045.92
8025.76,2658.9
8013.36,2669.08
8003.18,2681.48
7980.58,2709.02
7978.33,2708.34
7929.32,2703.51
7535.62,2703.51
7486.61,2708.34
7439.49,2722.64
7396.06,2745.85
7357.99,2777.09
7326.75,2815.16
7324.07,2820.17
7089.23,2585.33
7184.76,2604.33
7303.8,2604.33
7420.56,2581.11
7530.54,2535.55
7629.52,2469.41
7713.7,2385.24
7779.83,2286.26
7825.39,2176.28
7848.61,2059.52
7848.61,1940.48
7825.39,1823.72
7779.83,1713.74
7713.7,1614.76
7629.52,1530.59
7530.54,1464.45
7420.56,1418.89
7303.8,1395.67
7184.76,1395.67
7068.01,1418.89
6958.02,1464.45
6859.04,1530.59
6832.89,1556.74
6830.7,1549.54
6807.49,1506.1
6776.24,1468.04
6738.18,1436.8
6694.75,1413.58
6647.62,1399.29
6598.61,1394.46
5889.95,1394.46
5840.94,1399.29
5793.82,1413.58
5750.39,1436.8
5712.32,1468.04
5681.08,1506.1
5657.86,1549.54
5643.57,1596.66
5638.74,1645.67
5504.12,1645.67
5504.12,1512.71
5519.44,1356.48
5561.12,1218.42
5628.83,1091.09
5719.97,979.337
5831.09,887.415
5957.94,818.826
6095.7,776.18
6251.15,759.843
20231.6,759.843
Z" /> 
</g>
</g>
<g style="fill:#FFFFFF; fill-opacity:1.0; 
stroke:#FFFFFF; stroke-width:100; stroke-opacity:1; 
stroke-linecap:round; stroke-linejoin:round;">
</g>
<g style="fill:#FFFFFF; fill-opacity:1.0; 
stroke:#FFFFFF; stroke-width:0; stroke-opacity:1; 
stroke-linecap:round; stroke-linejoin:round;">
<circle cx="17744.3" cy="5000" r="147.638" /> 
</g>
<g style="fill:#FFFFFF; fill-opacity:1.0; 
stroke:#FFFFFF; stroke-width:39.3701; stroke-opacity:1; 
stroke-linecap:round; stroke-linejoin:round;">
</g>
<g style="fill:#FFFFFF; fill-opacity:1.0; 
stroke:#FFFFFF; stroke-width:0; stroke-opacity:1; 
stroke-linecap:round; stroke-linejoin:round;">
<circle cx="18744.3" cy="5000" r="147.638" /> 
</g>
<g style="fill:#FFFFFF; fill-opacity:1.0; 
stroke:#FFFFFF; stroke-width:39.3701; stroke-opacity:1; 
stroke-linecap:round; stroke-linejoin:round;">
</g>
<g style="fill:#FFFFFF; fill-opacity:1.0; 
stroke:#FFFFFF; stroke-width:0; stroke-opacity:1; 
stroke-linecap:round; stroke-linejoin:round;">
<circle cx="18244.3" cy="4500" r="147.638" /> 
</g>
<g style="fill:#FFFFFF; fill-opacity:1.0; 
stroke:#FFFFFF; stroke-width:39.3701; stroke-opacity:1; 
stroke-linecap:round; stroke-linejoin:round;">
</g>
<g style="fill:#FFFFFF; fill-opacity:1.0; 
stroke:#FFFFFF; stroke-width:0; stroke-opacity:1; 
stroke-linecap:round; stroke-linejoin:round;">
<circle cx="7744.28" cy="5000" r="147.638" /> 
</g>
<g style="fill:#FFFFFF; fill-opacity:1.0; 
stroke:#FFFFFF; stroke-width:39.3701; stroke-opacity:1; 
stroke-linecap:round; stroke-linejoin:round;">
</g>
<g style="fill:#FFFFFF; fill-opacity:1.0; 
stroke:#FFFFFF; stroke-width:0; stroke-opacity:1; 
stroke-linecap:round; stroke-linejoin:round;">
<circle cx="8744.28" cy="5000" r="147.638" /> 
</g>
<g style="fill:#FFFFFF; fill-opacity:1.0; 
stroke:#FFFFFF; stroke-width:39.3701; stroke-opacity:1; 
stroke-linecap:round; stroke-linejoin:round;">
</g>
<g style="fill:#FFFFFF; fill-opacity:1.0; 
stroke:#FFFFFF; stroke-width:0; stroke-opacity:1; 
stroke-linecap:round; stroke-linejoin:round;">
<circle cx="8244.28" cy="4500" r="147.638" /> 
</g>
<g style="fill:#FFFFFF; fill-opacity:1.0; 
stroke:#FFFFFF; stroke-width:39.3701; stroke-opacity:1; 
stroke-linecap:round; stroke-linejoin:round;">
</g>
<g style="fill:#FFFFFF; fill-opacity:1.0; 
stroke:#FFFFFF; stroke-width:0; stroke-opacity:1; 
stroke-linecap:round; stroke-linejoin:round;">
<circle cx="11744.3" cy="7484.25" r="157.48" /> 
</g>
<g style="fill:#FFFFFF; fill-opacity:1.0; 
stroke:#FFFFFF; stroke-width:39.3701; stroke-opacity:1; 
stroke-linecap:round; stroke-linejoin:round;">
</g>
<g style="fill:#FFFFFF; fill-opacity:1.0; 
stroke:#FFFFFF; stroke-width:0; stroke-opacity:1; 
stroke-linecap:round; stroke-linejoin:round;">
<circle cx="11744.3" cy="6500" r="157.48" /> 
</g>
<g style="fill:#FFFFFF; fill-opacity:1.0; 
stroke:#FFFFFF; stroke-width:39.3701; stroke-opacity:1; 
stroke-linecap:round; stroke-linejoin:round;">
</g>
<g style="fill:#FFFFFF; fill-opacity:1.0; 
stroke:#FFFFFF; stroke-width:0; stroke-opacity:1; 
stroke-linecap:round; stroke-linejoin:round;">
<circle cx="14744.3" cy="7484.25" r="157.48" /> 
</g>
<g style="fill:#FFFFFF; fill-opacity:1.0; 
stroke:#FFFFFF; stroke-width:39.3701; stroke-opacity:1; 
stroke-linecap:round; stroke-linejoin:round;">
</g>
<g style="fill:#FFFFFF; fill-opacity:1.0; 
stroke:#FFFFFF; stroke-width:0; stroke-opacity:1; 
stroke-linecap:round; stroke-linejoin:round;">
<circle cx="14744.3" cy="6500" r="157.48" /> 
</g>
<g style="fill:#FFFFFF; fill-opacity:1.0; 
stroke:#FFFFFF; stroke-width:39.3701; stroke-opacity:1; 
stroke-linecap:round; stroke-linejoin:round;">
</g>
<g style="fill:#FFFFFF; fill-opacity:1.0; 
stroke:#FFFFFF; stroke-width:0; stroke-opacity:1; 
stroke-linecap:round; stroke-linejoin:round;">
<circle cx="15244.3" cy="4200" r="157.48" /> 
</g>
<g style="fill:#FFFFFF; fill-opacity:1.0; 
stroke:#FFFFFF; stroke-width:39.3701; stroke-opacity:1; 
stroke-linecap:round; stroke-linejoin:round;">
</g>
<g style="fill:#FFFFFF; fill-opacity:1.0; 
stroke:#FFFFFF; stroke-width:0; stroke-opacity:1; 
stroke-linecap:round; stroke-linejoin:round;">
<circle cx="11244.3" cy="4200" r="157.48" /> 
</g>
<g style="fill:#FFFFFF; fill-opacity:1.0; 
stroke:#FFFFFF; stroke-width:39.3701; stroke-opacity:1; 
stroke-linecap:round; stroke-linejoin:round;">
</g>
<g style="fill:#FFFFFF; fill-opacity:1.0; 
stroke:#FFFFFF; stroke-width:0; stroke-opacity:1; 
stroke-linecap:round; stroke-linejoin:round;">
<circle cx="16744.3" cy="8000" r="157.48" /> 
</g>
<g style="fill:#FFFFFF; fill-opacity:1.0; 
stroke:#FFFFFF; stroke-width:39.3701; stroke-opacity:1; 
stroke-linecap:round; stroke-linejoin:round;">
</g>
<g style="fill:#FFFFFF; fill-opacity:1.0; 
stroke:#FFFFFF; stroke-width:0; stroke-opacity:1; 
stroke-linecap:round; stroke-linejoin:round;">
<circle cx="20744.3" cy="8000" r="157.48" /> 
</g>
<g style="fill:#FFFFFF; fill-opacity:1.0; 
stroke:#FFFFFF; stroke-width:39.3701; stroke-opacity:1; 
stroke-linecap:round; stroke-linejoin:round;">
</g>
<g style="fill:#FFFFFF; fill-opacity:1.0; 
stroke:#FFFFFF; stroke-width:0; stroke-opacity:1; 
stroke-linecap:round; stroke-linejoin:round;">
<circle cx="16744.3" cy="6500" r="157.48" /> 
</g>
<g style="fill:#FFFFFF; fill-opacity:1.0; 
stroke:#FFFFFF; stroke-width:39.3701; stroke-opacity:1; 
stroke-linecap:round; stroke-linejoin:round;">
</g>
<g style="fill:#FFFFFF; fill-opacity:1.0; 
stroke:#FFFFFF; stroke-width:0; stroke-opacity:1; 
stroke-linecap:round; stroke-linejoin:round;">
<circle cx="20744.3" cy="6500" r="157.48" /> 
</g>
<g style="fill:#FFFFFF; fill-opacity:1.0; 
stroke:#FFFFFF; stroke-width:39.3701; stroke-opacity:1; 
stroke-linecap:round; stroke-linejoin:round;">
</g>
<g style="fill:#FFFFFF; fill-opacity:1.0; 
stroke:#FFFFFF; stroke-width:0; stroke-opacity:1; 
stroke-linecap:round; stroke-linejoin:round;">
<circle cx="9744.28" cy="6500" r="157.48" /> 
</g>
<g style="fill:#FFFFFF; fill-opacity:1.0; 
stroke:#FFFFFF; stroke-width:39.3701; stroke-opacity:1; 
stroke-linecap:round; stroke-linejoin:round;">
</g>
<g style="fill:#FFFFFF; fill-opacity:1.0; 
stroke:#FFFFFF; stroke-width:0; stroke-opacity:1; 
stroke-linecap:round; stroke-linejoin:round;">
<circle cx="5744.28" cy="6500" r="157.48" /> 
</g>
<g style="fill:#FFFFFF; fill-opacity:1.0; 
stroke:#FFFFFF; stroke-width:39.3701; stroke-opacity:1; 
stroke-linecap:round; stroke-linejoin:round;">
</g>
<g style="fill:#FFFFFF; fill-opacity:1.0; 
stroke:#FFFFFF; stroke-width:0; stroke-opacity:1; 
stroke-linecap:round; stroke-linejoin:round;">
<circle cx="9744.28" cy="8000" r="157.48" /> 
</g>
<g style="fill:#FFFFFF; fill-opacity:1.0; 
stroke:#FFFFFF; stroke-width:39.3701; stroke-opacity:1; 
stroke-linecap:round; stroke-linejoin:round;">
</g>
<g style="fill:#FFFFFF; fill-opacity:1.0; 
stroke:#FFFFFF; stroke-width:0; stroke-opacity:1; 
stroke-linecap:round; stroke-linejoin:round;">
<circle cx="5744.28" cy="8000" r="157.48" /> 
</g>
<g style="fill:#FFFFFF; fill-opacity:1.0; 
stroke:#FFFFFF; stroke-width:39.3701; stroke-opacity:1; 
stroke-linecap:round; stroke-linejoin:round;">
</g>
<g style="fill:#FFFFFF; fill-opacity:1.0; 
stroke:#FFFFFF; stroke-width:0; stroke-opacity:1; 
stroke-linecap:round; stroke-linejoin:round;">
<circle cx="20244.3" cy="2000" r="177.165" /> 
</g>
<g style="fill:#FFFFFF; fill-opacity:1.0; 
stroke:#FFFFFF; stroke-width:39.3701; stroke-opacity:1; 
stroke-linecap:round; stroke-linejoin:round;">
</g>
<g style="fill:#FFFFFF; fill-opacity:1.0; 
stroke:#FFFFFF; stroke-width:0; stroke-opacity:1; 
stroke-linecap:round; stroke-linejoin:round;">
<circle cx="19244.3" cy="2000" r="177.165" /> 
</g>
<g style="fill:#FFFFFF; fill-opacity:1.0; 
stroke:#FFFFFF; stroke-width:39.3701; stroke-opacity:1; 
stroke-linecap:round; stroke-linejoin:round;">
</g>
<g style="fill:#FFFFFF; fill-opacity:1.0; 
stroke:#FFFFFF; stroke-width:0; stroke-opacity:1; 
stroke-linecap:round; stroke-linejoin:round;">
<circle cx="17244.3" cy="2000" r="177.165" /> 
</g>
<g style="fill:#FFFFFF; fill-opacity:1.0; 
stroke:#FFFFFF; stroke-width:39.3701; stroke-opacity:1; 
stroke-linecap:round; stroke-linejoin:round;">
</g>
<g style="fill:#FFFFFF; fill-opacity:1.0; 
stroke:#FFFFFF; stroke-width:0; stroke-opacity:1; 
stroke-linecap:round; stroke-linejoin:round;">
<circle cx="16244.3" cy="2000" r="177.165" /> 
</g>
<g style="fill:#FFFFFF; fill-opacity:1.0; 
stroke:#FFFFFF; stroke-width:39.3701; stroke-opacity:1; 
stroke-linecap:round; stroke-linejoin:round;">
</g>
<g style="fill:#FFFFFF; fill-opacity:1.0; 
stroke:#FFFFFF; stroke-width:0; stroke-opacity:1; 
stroke-linecap:round; stroke-linejoin:round;">
<circle cx="10244.3" cy="2000" r="177.165" /> 
</g>
<g style="fill:#FFFFFF; fill-opacity:1.0; 
stroke:#FFFFFF; stroke-width:39.3701; stroke-opacity:1; 
stroke-linecap:round; stroke-linejoin:round;">
</g>
<g style="fill:#FFFFFF; fill-opacity:1.0; 
stroke:#FFFFFF; stroke-width:0; stroke-opacity:1; 
stroke-linecap:round; stroke-linejoin:round;">
<circle cx="9244.28" cy="2000" r="177.165" /> 
</g>
<g style="fill:#FFFFFF; fill-opacity:1.0; 
stroke:#FFFFFF; stroke-width:39.3701; stroke-opacity:1; 
stroke-linecap:round; stroke-linejoin:round;">
</g>
<g style="fill:#FFFFFF; fill-opacity:1.0; 
stroke:#FFFFFF; stroke-width:0; stroke-opacity:1; 
stroke-linecap:round; stroke-linejoin:round;">
<circle cx="7244.28" cy="2000" r="177.165" /> 
</g>
<g style="fill:#FFFFFF; fill-opacity:1.0; 
stroke:#FFFFFF; stroke-width:39.3701; stroke-opacity:1; 
stroke-linecap:round; stroke-linejoin:round;">
</g>
<g style="fill:#FFFFFF; fill-opacity:1.0; 
stroke:#FFFFFF; stroke-width:0; stroke-opacity:1; 
stroke-linecap:round; stroke-linejoin:round;">
<circle cx="6244.28" cy="2000" r="177.165" /> 
</g>
<g style="fill:#FFFFFF; fill-opacity:1.0; 
stroke:#FFFFFF; stroke-width:39.3701; stroke-opacity:1; 
stroke-linecap:round; stroke-linejoin:round;">
</g>
<g style="fill:#FFFFFF; fill-opacity:1.0; 
stroke:#FFFFFF; stroke-width:0; stroke-opacity:1; 
stroke-linecap:round; stroke-linejoin:round;">
<circle cx="13744.3" cy="2000" r="196.85" /> 
</g>
<g style="fill:#FFFFFF; fill-opacity:1.0; 
stroke:#FFFFFF; stroke-width:39.3701; stroke-opacity:1; 
stroke-linecap:round; stroke-linejoin:round;">
</g>
<g style="fill:#FFFFFF; fill-opacity:1.0; 
stroke:#FFFFFF; stroke-width:0; stroke-opacity:1; 
stroke-linecap:round; stroke-linejoin:round;">
<circle cx="12744.3" cy="2000" r="196.85" /> 
</g>
<g style="fill:#FFFFFF; fill-opacity:1.0; 
stroke:#FFFFFF; stroke-width:39.3701; stroke-opacity:1; 
stroke-linecap:round; stroke-linejoin:round;">
</g>
<g style="fill:#000000; fill-opacity:1.0; 
stroke:#000000; stroke-width:39.3701; stroke-opacity:1; 
stroke-linecap:round; stroke-linejoin:round;">
</g>
<g style="fill:#C2C200; fill-opacity:1.0; 
stroke:#C2C200; stroke-width:39.3701; stroke-opacity:1; 
stroke-linecap:round; stroke-linejoin:round;">
</g>
<g style="fill:#C2C200; fill-opacity:0.0; 
stroke:#C2C200; stroke-width:19.685; stroke-opacity:1; 
stroke-linecap:round; stroke-linejoin:round;">
<circle cx="5244.28" cy="9000" r="262.467" /> 
<path d="M4850 9000
L5637 9000
" />
<path d="M5244 8606
L5244 9393
" />
<path d="M5244 4000
L5244 1500
" />
<path d="M6244 4000
L5244 4000
" />
<path d="M6244 5500
L6244 4000
" />
<path d="M5244 5500
L6244 5500
" />
<path d="M5244 8000
L5244 5500
" />
<path d="M21244 5500
L21244 8000
" />
<path d="M20244 5500
L21244 5500
" />
<path d="M20244 4000
L20244 5500
" />
<path d="M21244 4000
L20244 4000
" />
<path d="M21244 1500
L21244 4000
" />
<path d="M20244.3 9000 A1000 1000 0.0 0 0 21244.3 8000" />
<path d="M5244.28 8000 A1000 1000 0.0 0 0 6244.28 9000" />
<path d="M6244.28 500 A1000 1000 0.0 0 0 5244.28 1500" />
<path d="M21244.3 1500 A1000 1000 0.0 0 0 20244.3 500" />
<path d="M20244 9000
L6244 9000
" />
<path d="M6244 500
L20244 500
" />
<g >
</g>
<g >
</g>
<g >
</g>
<g >
</g>
<g >
</g>
<g >
</g>
<g >
</g>
<g >
</g>
<g >
</g>
<g >
</g>
<g >
</g>
<g >
</g>
<g >
</g>
<g >
</g>
<g >
</g>
<g >
</g>
<g >
</g>
<g >
</g>
<g >
</g>
</g> 
</svg>
