<?xml version="1.0" standalone="no"?>
 <!DOCTYPE svg PUBLIC "-//W3C//DTD SVG 1.1//EN" 
 "http://www.w3.org/Graphics/SVG/1.1/DTD/svg11.dtd"> 
<svg
  xmlns:svg="http://www.w3.org/2000/svg"
  xmlns="http://www.w3.org/2000/svg"
  xmlns:xlink="http://www.w3.org/1999/xlink"
  version="1.1"
  width="6.852920cm" height="2.540000cm" viewBox="0 0 26980 10000">
<title>SVG Picture created as C-Edge_Cuts.svg date 2020/07/03 20:33:57 </title>
  <desc>Picture generated by PCBNEW </desc>
<g style="fill:#000000; fill-opacity:1;stroke:#000000; stroke-opacity:1;
stroke-linecap:round; stroke-linejoin:round;"
 transform="translate(0 0) scale(1 1)">
</g>
<g style="fill:#000000; fill-opacity:0.0; 
stroke:#000000; stroke-width:-0.000393701; stroke-opacity:1; 
stroke-linecap:round; stroke-linejoin:round;">
</g>
<g style="fill:#C2C200; fill-opacity:0.0; 
stroke:#C2C200; stroke-width:-0.000393701; stroke-opacity:1; 
stroke-linecap:round; stroke-linejoin:round;">
</g>
<g style="fill:#C2C200; fill-opacity:0.0; 
stroke:#C2C200; stroke-width:19.685; stroke-opacity:1; 
stroke-linecap:round; stroke-linejoin:round;">
<circle cx="5244.28" cy="9000" r="262.467" /> 
<path d="M4850 9000
L5637 9000
" />
<path d="M5244 8606
L5244 9393
" />
<path d="M5244 4000
L5244 1500
" />
<path d="M6244 4000
L5244 4000
" />
<path d="M6244 5500
L6244 4000
" />
<path d="M5244 5500
L6244 5500
" />
<path d="M5244 8000
L5244 5500
" />
<path d="M21244 5500
L21244 8000
" />
<path d="M20244 5500
L21244 5500
" />
<path d="M20244 4000
L20244 5500
" />
<path d="M21244 4000
L20244 4000
" />
<path d="M21244 1500
L21244 4000
" />
<path d="M20244.3 9000 A1000 1000 0.0 0 0 21244.3 8000" />
<path d="M5244.28 8000 A1000 1000 0.0 0 0 6244.28 9000" />
<path d="M6244.28 500 A1000 1000 0.0 0 0 5244.28 1500" />
<path d="M21244.3 1500 A1000 1000 0.0 0 0 20244.3 500" />
<path d="M20244 9000
L6244 9000
" />
<path d="M6244 500
L20244 500
" />
<g >
</g>
<g >
</g>
<g >
</g>
<g >
</g>
<g >
</g>
<g >
</g>
<g >
</g>
<g >
</g>
<g >
</g>
<g >
</g>
<g >
</g>
<g >
</g>
<g >
</g>
<g >
</g>
<g >
</g>
<g >
</g>
<g >
</g>
<g >
</g>
<g >
</g>
</g> 
</svg>
