<?xml version="1.0" standalone="no"?>
 <!DOCTYPE svg PUBLIC "-//W3C//DTD SVG 1.1//EN" 
 "http://www.w3.org/Graphics/SVG/1.1/DTD/svg11.dtd"> 
<svg
  xmlns:svg="http://www.w3.org/2000/svg"
  xmlns="http://www.w3.org/2000/svg"
  xmlns:xlink="http://www.w3.org/1999/xlink"
  version="1.1"
  width="6.852920cm" height="2.540000cm" viewBox="0 0 26980 10000">
<title>SVG Picture created as C-F_SilkS.svg date 2020/07/03 20:33:56 </title>
  <desc>Picture generated by PCBNEW </desc>
<g style="fill:#000000; fill-opacity:1;stroke:#000000; stroke-opacity:1;
stroke-linecap:round; stroke-linejoin:round;"
 transform="translate(0 0) scale(1 1)">
</g>
<g style="fill:#000000; fill-opacity:0.0; 
stroke:#000000; stroke-width:-0.000393701; stroke-opacity:1; 
stroke-linecap:round; stroke-linejoin:round;">
</g>
<g style="fill:#008484; fill-opacity:0.0; 
stroke:#008484; stroke-width:-0.000393701; stroke-opacity:1; 
stroke-linecap:round; stroke-linejoin:round;">
</g>
<g style="fill:#008484; fill-opacity:0.0; 
stroke:#008484; stroke-width:59.0551; stroke-opacity:1; 
stroke-linecap:round; stroke-linejoin:round;">
<text x="14744.3" y="2196.85"
textLength="564.211" font-size="524.934" lengthAdjust="spacingAndGlyphs"
text-anchor="middle" opacity="0">-</text>
<path d="M14594 2028
L14894 2028
" />
<text x="11744.3" y="2196.85"
textLength="564.211" font-size="524.934" lengthAdjust="spacingAndGlyphs"
text-anchor="middle" opacity="0">+</text>
<path d="M11594 2028
L11894 2028
" />
<path d="M11744 2178
L11744 1878
" />
</g>
<g style="fill:#008484; fill-opacity:0.0; 
stroke:#008484; stroke-width:60; stroke-opacity:1; 
stroke-linecap:round; stroke-linejoin:round;">
<text x="13244.3" y="5350"
textLength="6338.68" font-size="666.667" lengthAdjust="spacingAndGlyphs"
text-anchor="middle" opacity="0">Blinky Lights Kit</text>
<path d="M10399 5064
L10470 5088
L10494 5111
L10518 5159
L10518 5230
L10494 5278
L10470 5302
L10422 5326
L10232 5326
L10232 4826
L10399 4826
L10446 4850
L10470 4873
L10494 4921
L10494 4969
L10470 5016
L10446 5040
L10399 5064
L10232 5064
" />
<path d="M10803 5326
L10756 5302
L10732 5254
L10732 4826
" />
<path d="M10994 5326
L10994 4992
" />
<path d="M10994 4826
L10970 4850
L10994 4873
L11018 4850
L10994 4826
L10994 4873
" />
<path d="M11232 4992
L11232 5326
" />
<path d="M11232 5040
L11256 5016
L11303 4992
L11375 4992
L11422 5016
L11446 5064
L11446 5326
" />
<path d="M11684 5326
L11684 4826
" />
<path d="M11732 5135
L11875 5326
" />
<path d="M11875 4992
L11684 5183
" />
<path d="M12041 4992
L12160 5326
" />
<path d="M12279 4992
L12160 5326
L12113 5445
L12089 5469
L12041 5492
" />
<path d="M13089 5326
L12851 5326
L12851 4826
" />
<path d="M13256 5326
L13256 4992
" />
<path d="M13256 4826
L13232 4850
L13256 4873
L13279 4850
L13256 4826
L13256 4873
" />
<path d="M13708 4992
L13708 5397
L13684 5445
L13660 5469
L13613 5492
L13541 5492
L13494 5469
" />
<path d="M13708 5302
L13660 5326
L13565 5326
L13518 5302
L13494 5278
L13470 5230
L13470 5088
L13494 5040
L13518 5016
L13565 4992
L13660 4992
L13708 5016
" />
<path d="M13946 5326
L13946 4826
" />
<path d="M14160 5326
L14160 5064
L14137 5016
L14089 4992
L14018 4992
L13970 5016
L13946 5040
" />
<path d="M14327 4992
L14518 4992
" />
<path d="M14399 4826
L14399 5254
L14422 5302
L14470 5326
L14518 5326
" />
<path d="M14660 5302
L14708 5326
L14803 5326
L14851 5302
L14875 5254
L14875 5230
L14851 5183
L14803 5159
L14732 5159
L14684 5135
L14660 5088
L14660 5064
L14684 5016
L14732 4992
L14803 4992
L14851 5016
" />
<path d="M15470 5326
L15470 4826
" />
<path d="M15756 5326
L15541 5040
" />
<path d="M15756 4826
L15470 5111
" />
<path d="M15970 5326
L15970 4992
" />
<path d="M15970 4826
L15946 4850
L15970 4873
L15994 4850
L15970 4826
L15970 4873
" />
<path d="M16137 4992
L16327 4992
" />
<path d="M16208 4826
L16208 5254
L16232 5302
L16279 5326
L16327 5326
" />
</g>
<g style="fill:#008484; fill-opacity:0.0; 
stroke:#008484; stroke-width:47.2441; stroke-opacity:1; 
stroke-linecap:round; stroke-linejoin:round;">
<path d="M17535 5728
L18952 5728
" />
<path d="M18956.3 5719.56 A1012.27 1012.27 0.0 0 0 18551.4 4035.43" />
<path d="M17921.4 4035.43 A1017.16 1017.16 0.0 0 0 17530.9 5725.09" />
<path d="M7535 5728
L8952 5728
" />
<path d="M8956.27 5719.56 A1012.27 1012.27 0.0 0 0 8551.37 4035.43" />
<path d="M7921.45 4035.43 A1017.16 1017.16 0.0 0 0 7530.95 5725.09" />
<path d="M12592 5738
L12344 5738
" />
<path d="M12468 5614
L12468 5862
" />
<path d="M11902 8268
L11586 8268
" />
<path d="M11993 8252
L11495 8252
" />
<path d="M12060 8236
L11428 8236
" />
<path d="M12114 8220
L11374 8220
" />
<path d="M12161 8205
L11327 8205
" />
<path d="M12202 8189
L11285 8189
" />
<path d="M12241 8173
L11247 8173
" />
<path d="M12275 8157
L11212 8157
" />
<path d="M12308 8142
L11180 8142
" />
<path d="M12338 8126
L11150 8126
" />
<path d="M12366 8110
L11121 8110
" />
<path d="M12393 8094
L11094 8094
" />
<path d="M12419 8079
L11069 8079
" />
<path d="M12443 8063
L11045 8063
" />
<path d="M12466 8047
L11022 8047
" />
<path d="M12488 8031
L11000 8031
" />
<path d="M12509 8016
L10978 8016
" />
<path d="M12529 8000
L10958 8000
" />
<path d="M12549 7984
L10939 7984
" />
<path d="M12567 7968
L10920 7968
" />
<path d="M12585 7953
L10902 7953
" />
<path d="M12603 7937
L10885 7937
" />
<path d="M12619 7921
L10868 7921
" />
<path d="M12636 7905
L10852 7905
" />
<path d="M11334 7890
L10836 7890
" />
<path d="M12651 7890
L12153 7890
" />
<path d="M11334 7874
L10821 7874
" />
<path d="M12666 7874
L12153 7874
" />
<path d="M11334 7858
L10807 7858
" />
<path d="M12681 7858
L12153 7858
" />
<path d="M11334 7842
L10793 7842
" />
<path d="M12695 7842
L12153 7842
" />
<path d="M11334 7827
L10779 7827
" />
<path d="M12708 7827
L12153 7827
" />
<path d="M11334 7811
L10766 7811
" />
<path d="M12722 7811
L12153 7811
" />
<path d="M11334 7795
L10753 7795
" />
<path d="M12734 7795
L12153 7795
" />
<path d="M11334 7779
L10741 7779
" />
<path d="M12747 7779
L12153 7779
" />
<path d="M11334 7764
L10729 7764
" />
<path d="M12759 7764
L12153 7764
" />
<path d="M11334 7748
L10717 7748
" />
<path d="M12770 7748
L12153 7748
" />
<path d="M11334 7732
L10706 7732
" />
<path d="M12782 7732
L12153 7732
" />
<path d="M11334 7716
L10695 7716
" />
<path d="M12793 7716
L12153 7716
" />
<path d="M11334 7701
L10685 7701
" />
<path d="M12803 7701
L12153 7701
" />
<path d="M11334 7685
L10674 7685
" />
<path d="M12813 7685
L12153 7685
" />
<path d="M11334 7669
L10664 7669
" />
<path d="M12823 7669
L12153 7669
" />
<path d="M11334 7653
L10655 7653
" />
<path d="M12833 7653
L12153 7653
" />
<path d="M11334 7638
L10645 7638
" />
<path d="M12842 7638
L12153 7638
" />
<path d="M11334 7622
L10637 7622
" />
<path d="M12851 7622
L12153 7622
" />
<path d="M11334 7606
L10628 7606
" />
<path d="M12860 7606
L12153 7606
" />
<path d="M11334 7590
L10619 7590
" />
<path d="M12868 7590
L12153 7590
" />
<path d="M11334 7575
L10611 7575
" />
<path d="M12876 7575
L12153 7575
" />
<path d="M11334 7559
L10604 7559
" />
<path d="M12884 7559
L12153 7559
" />
<path d="M11334 7543
L10596 7543
" />
<path d="M12892 7543
L12153 7543
" />
<path d="M11334 7527
L10589 7527
" />
<path d="M12899 7527
L12153 7527
" />
<path d="M11334 7512
L10582 7512
" />
<path d="M12906 7512
L12153 7512
" />
<path d="M11334 7496
L10574 7496
" />
<path d="M12913 7496
L12153 7496
" />
<path d="M11334 7480
L10568 7480
" />
<path d="M12919 7480
L12153 7480
" />
<path d="M11334 7464
L10562 7464
" />
<path d="M12926 7464
L12153 7464
" />
<path d="M11334 7449
L10556 7449
" />
<path d="M12932 7449
L12153 7449
" />
<path d="M11334 7433
L10550 7433
" />
<path d="M12938 7433
L12153 7433
" />
<path d="M11334 7417
L10544 7417
" />
<path d="M12943 7417
L12153 7417
" />
<path d="M11334 7401
L10539 7401
" />
<path d="M12949 7401
L12153 7401
" />
<path d="M11334 7386
L10534 7386
" />
<path d="M12954 7386
L12153 7386
" />
<path d="M11334 7370
L10529 7370
" />
<path d="M12959 7370
L12153 7370
" />
<path d="M11334 7354
L10524 7354
" />
<path d="M12963 7354
L12153 7354
" />
<path d="M11334 7338
L10519 7338
" />
<path d="M12968 7338
L12153 7338
" />
<path d="M11334 7323
L10515 7323
" />
<path d="M12973 7323
L12153 7323
" />
<path d="M11334 7307
L10511 7307
" />
<path d="M12976 7307
L12153 7307
" />
<path d="M11334 7291
L10507 7291
" />
<path d="M12980 7291
L12153 7291
" />
<path d="M11334 7275
L10504 7275
" />
<path d="M12984 7275
L12153 7275
" />
<path d="M11334 7259
L10500 7259
" />
<path d="M12987 7259
L12153 7259
" />
<path d="M11334 7244
L10497 7244
" />
<path d="M12991 7244
L12153 7244
" />
<path d="M11334 7228
L10494 7228
" />
<path d="M12994 7228
L12153 7228
" />
<path d="M11334 7212
L10491 7212
" />
<path d="M12997 7212
L12153 7212
" />
<path d="M11334 7196
L10488 7196
" />
<path d="M12999 7196
L12153 7196
" />
<path d="M11334 7181
L10486 7181
" />
<path d="M13002 7181
L12153 7181
" />
<path d="M11334 7165
L10484 7165
" />
<path d="M13004 7165
L12153 7165
" />
<path d="M11334 7149
L10482 7149
" />
<path d="M13006 7149
L12153 7149
" />
<path d="M11334 7133
L10480 7133
" />
<path d="M13008 7133
L12153 7133
" />
<path d="M11334 7118
L10478 7118
" />
<path d="M13010 7118
L12153 7118
" />
<path d="M11334 7102
L10477 7102
" />
<path d="M13011 7102
L12153 7102
" />
<path d="M11334 7086
L10475 7086
" />
<path d="M13012 7086
L12153 7086
" />
<path d="M13013 7070
L10474 7070
" />
<path d="M13014 7055
L10473 7055
" />
<path d="M13015 7039
L10473 7039
" />
<path d="M13015 7023
L10472 7023
" />
<path d="M13015 7007
L10472 7007
" />
<path d="M13015 6992
L10472 6992
" />
<circle cx="11744.3" cy="6992.13" r="1287.4" /> 
<path d="M15592 5738
L15344 5738
" />
<path d="M15468 5614
L15468 5862
" />
<path d="M14902 8268
L14586 8268
" />
<path d="M14993 8252
L14495 8252
" />
<path d="M15060 8236
L14428 8236
" />
<path d="M15114 8220
L14374 8220
" />
<path d="M15161 8205
L14327 8205
" />
<path d="M15202 8189
L14285 8189
" />
<path d="M15241 8173
L14247 8173
" />
<path d="M15275 8157
L14212 8157
" />
<path d="M15308 8142
L14180 8142
" />
<path d="M15338 8126
L14150 8126
" />
<path d="M15366 8110
L14121 8110
" />
<path d="M15393 8094
L14094 8094
" />
<path d="M15419 8079
L14069 8079
" />
<path d="M15443 8063
L14045 8063
" />
<path d="M15466 8047
L14022 8047
" />
<path d="M15488 8031
L14000 8031
" />
<path d="M15509 8016
L13978 8016
" />
<path d="M15529 8000
L13958 8000
" />
<path d="M15549 7984
L13939 7984
" />
<path d="M15567 7968
L13920 7968
" />
<path d="M15585 7953
L13902 7953
" />
<path d="M15603 7937
L13885 7937
" />
<path d="M15619 7921
L13868 7921
" />
<path d="M15636 7905
L13852 7905
" />
<path d="M14334 7890
L13836 7890
" />
<path d="M15651 7890
L15153 7890
" />
<path d="M14334 7874
L13821 7874
" />
<path d="M15666 7874
L15153 7874
" />
<path d="M14334 7858
L13807 7858
" />
<path d="M15681 7858
L15153 7858
" />
<path d="M14334 7842
L13793 7842
" />
<path d="M15695 7842
L15153 7842
" />
<path d="M14334 7827
L13779 7827
" />
<path d="M15708 7827
L15153 7827
" />
<path d="M14334 7811
L13766 7811
" />
<path d="M15722 7811
L15153 7811
" />
<path d="M14334 7795
L13753 7795
" />
<path d="M15734 7795
L15153 7795
" />
<path d="M14334 7779
L13741 7779
" />
<path d="M15747 7779
L15153 7779
" />
<path d="M14334 7764
L13729 7764
" />
<path d="M15759 7764
L15153 7764
" />
<path d="M14334 7748
L13717 7748
" />
<path d="M15770 7748
L15153 7748
" />
<path d="M14334 7732
L13706 7732
" />
<path d="M15782 7732
L15153 7732
" />
<path d="M14334 7716
L13695 7716
" />
<path d="M15793 7716
L15153 7716
" />
<path d="M14334 7701
L13685 7701
" />
<path d="M15803 7701
L15153 7701
" />
<path d="M14334 7685
L13674 7685
" />
<path d="M15813 7685
L15153 7685
" />
<path d="M14334 7669
L13664 7669
" />
<path d="M15823 7669
L15153 7669
" />
<path d="M14334 7653
L13655 7653
" />
<path d="M15833 7653
L15153 7653
" />
<path d="M14334 7638
L13645 7638
" />
<path d="M15842 7638
L15153 7638
" />
<path d="M14334 7622
L13637 7622
" />
<path d="M15851 7622
L15153 7622
" />
<path d="M14334 7606
L13628 7606
" />
<path d="M15860 7606
L15153 7606
" />
<path d="M14334 7590
L13619 7590
" />
<path d="M15868 7590
L15153 7590
" />
<path d="M14334 7575
L13611 7575
" />
<path d="M15876 7575
L15153 7575
" />
<path d="M14334 7559
L13604 7559
" />
<path d="M15884 7559
L15153 7559
" />
<path d="M14334 7543
L13596 7543
" />
<path d="M15892 7543
L15153 7543
" />
<path d="M14334 7527
L13589 7527
" />
<path d="M15899 7527
L15153 7527
" />
<path d="M14334 7512
L13582 7512
" />
<path d="M15906 7512
L15153 7512
" />
<path d="M14334 7496
L13574 7496
" />
<path d="M15913 7496
L15153 7496
" />
<path d="M14334 7480
L13568 7480
" />
<path d="M15919 7480
L15153 7480
" />
<path d="M14334 7464
L13562 7464
" />
<path d="M15926 7464
L15153 7464
" />
<path d="M14334 7449
L13556 7449
" />
<path d="M15932 7449
L15153 7449
" />
<path d="M14334 7433
L13550 7433
" />
<path d="M15938 7433
L15153 7433
" />
<path d="M14334 7417
L13544 7417
" />
<path d="M15943 7417
L15153 7417
" />
<path d="M14334 7401
L13539 7401
" />
<path d="M15949 7401
L15153 7401
" />
<path d="M14334 7386
L13534 7386
" />
<path d="M15954 7386
L15153 7386
" />
<path d="M14334 7370
L13529 7370
" />
<path d="M15959 7370
L15153 7370
" />
<path d="M14334 7354
L13524 7354
" />
<path d="M15963 7354
L15153 7354
" />
<path d="M14334 7338
L13519 7338
" />
<path d="M15968 7338
L15153 7338
" />
<path d="M14334 7323
L13515 7323
" />
<path d="M15973 7323
L15153 7323
" />
<path d="M14334 7307
L13511 7307
" />
<path d="M15976 7307
L15153 7307
" />
<path d="M14334 7291
L13507 7291
" />
<path d="M15980 7291
L15153 7291
" />
<path d="M14334 7275
L13504 7275
" />
<path d="M15984 7275
L15153 7275
" />
<path d="M14334 7259
L13500 7259
" />
<path d="M15987 7259
L15153 7259
" />
<path d="M14334 7244
L13497 7244
" />
<path d="M15991 7244
L15153 7244
" />
<path d="M14334 7228
L13494 7228
" />
<path d="M15994 7228
L15153 7228
" />
<path d="M14334 7212
L13491 7212
" />
<path d="M15997 7212
L15153 7212
" />
<path d="M14334 7196
L13488 7196
" />
<path d="M15999 7196
L15153 7196
" />
<path d="M14334 7181
L13486 7181
" />
<path d="M16002 7181
L15153 7181
" />
<path d="M14334 7165
L13484 7165
" />
<path d="M16004 7165
L15153 7165
" />
<path d="M14334 7149
L13482 7149
" />
<path d="M16006 7149
L15153 7149
" />
<path d="M14334 7133
L13480 7133
" />
<path d="M16008 7133
L15153 7133
" />
<path d="M14334 7118
L13478 7118
" />
<path d="M16010 7118
L15153 7118
" />
<path d="M14334 7102
L13477 7102
" />
<path d="M16011 7102
L15153 7102
" />
<path d="M14334 7086
L13475 7086
" />
<path d="M16012 7086
L15153 7086
" />
<path d="M16013 7070
L13474 7070
" />
<path d="M16014 7055
L13473 7055
" />
<path d="M16015 7039
L13473 7039
" />
<path d="M16015 7023
L13472 7023
" />
<path d="M16015 7007
L13472 7007
" />
<path d="M16015 6992
L13472 6992
" />
<circle cx="14744.3" cy="6992.13" r="1287.4" /> 
<path d="M14834 4200
L14531 4200
" />
<path d="M11653 4200
L11956 4200
" />
<path d="M14531 3660
L11956 3660
" />
<path d="M14531 4739
L14531 3660
" />
<path d="M11956 4739
L14531 4739
" />
<path d="M11956 3660
L11956 4739
" />
<path d="M17153 8000
L17456 8000
" />
<path d="M20334 8000
L20031 8000
" />
<path d="M17456 8539
L20031 8539
" />
<path d="M17456 7460
L17456 8539
" />
<path d="M20031 7460
L17456 7460
" />
<path d="M20031 8539
L20031 7460
" />
<path d="M17153 6500
L17456 6500
" />
<path d="M20334 6500
L20031 6500
" />
<path d="M17456 7039
L20031 7039
" />
<path d="M17456 5960
L17456 7039
" />
<path d="M20031 5960
L17456 5960
" />
<path d="M20031 7039
L20031 5960
" />
<path d="M9334 6500
L9031 6500
" />
<path d="M6153 6500
L6456 6500
" />
<path d="M9031 5960
L6456 5960
" />
<path d="M9031 7039
L9031 5960
" />
<path d="M6456 7039
L9031 7039
" />
<path d="M6456 5960
L6456 7039
" />
<path d="M9334 8000
L9031 8000
" />
<path d="M6153 8000
L6456 8000
" />
<path d="M9031 7460
L6456 7460
" />
<path d="M9031 8539
L9031 7460
" />
<path d="M6456 8539
L9031 8539
" />
<path d="M6456 7460
L6456 8539
" />
<path d="M18736 1391
L18736 2608
" />
<circle cx="19744.3" cy="2000" r="984.252" /> 
<path d="M18736.4 2608.2 A1177.17 1177.17 0.0 0 0 20921.4 1999.82" />
<path d="M20921.4 2000.18 A1177.17 1177.17 0.0 0 0 18736.4 1391.8" />
<path d="M15736 1391
L15736 2608
" />
<circle cx="16744.3" cy="2000" r="984.252" /> 
<path d="M15736.4 2608.2 A1177.17 1177.17 0.0 0 0 17921.4 1999.82" />
<path d="M17921.4 2000.18 A1177.17 1177.17 0.0 0 0 15736.4 1391.8" />
<path d="M8736 1391
L8736 2608
" />
<circle cx="9744.28" cy="2000" r="984.252" /> 
<path d="M8736.41 2608.2 A1177.17 1177.17 0.0 0 0 10921.4 1999.82" />
<path d="M10921.4 2000.18 A1177.17 1177.17 0.0 0 0 8736.41 1391.8" />
<path d="M5736 1391
L5736 2608
" />
<circle cx="6744.28" cy="2000" r="984.252" /> 
<path d="M5736.41 2608.2 A1177.17 1177.17 0.0 0 0 7921.45 1999.82" />
<path d="M7921.45 2000.18 A1177.17 1177.17 0.0 0 0 5736.41 1391.8" />
<path d="M12220 2523
L12220 2000
" />
<path d="M12744 2523
L12220 2523
" />
<path d="M13244 2523
L13244 1476
" />
<path d="M13244 1476
L14267 1476
" />
<path d="M13244 2523
L14267 2523
" />
<path d="M14267 2523
L14267 1476
" />
</g>
<g style="fill:#008484; fill-opacity:0.0; 
stroke:#008484; stroke-width:59.0551; stroke-opacity:1; 
stroke-linecap:round; stroke-linejoin:round;">
<text x="18244.3" y="3464.57"
textLength="865.402" font-size="524.934" lengthAdjust="spacingAndGlyphs"
text-anchor="middle" opacity="0">Q2</text>
<path d="M18206 3483
L18169 3464
L18131 3427
L18075 3370
L18038 3352
L18000 3352
" />
<path d="M18019 3445
L17981 3427
L17944 3389
L17925 3314
L17925 3183
L17944 3108
L17981 3070
L18019 3052
L18094 3052
L18131 3070
L18169 3108
L18188 3183
L18188 3314
L18169 3389
L18131 3427
L18094 3445
L18019 3445
" />
<path d="M18338 3089
L18356 3070
L18394 3052
L18488 3052
L18525 3070
L18544 3089
L18562 3127
L18562 3164
L18544 3220
L18319 3445
L18562 3445
" />
<text x="8244.28" y="3464.57"
textLength="864.173" font-size="524.934" lengthAdjust="spacingAndGlyphs"
text-anchor="middle" opacity="0">Q1</text>
<path d="M8206 3483
L8169 3464
L8131 3427
L8075 3370
L8038 3352
L8000 3352
" />
<path d="M8019 3445
L7981 3427
L7944 3389
L7925 3314
L7925 3183
L7944 3108
L7981 3070
L8019 3052
L8094 3052
L8131 3070
L8169 3108
L8188 3183
L8188 3314
L8169 3389
L8131 3427
L8094 3445
L8019 3445
" />
<path d="M8562 3445
L8338 3445
" />
<path d="M8450 3445
L8450 3052
L8413 3108
L8375 3145
L8338 3164
" />
<text x="10744.3" y="8596.85"
textLength="845.426" font-size="524.934" lengthAdjust="spacingAndGlyphs"
text-anchor="middle" opacity="0">C2</text>
<path d="M10678 8540
L10659 8559
L10603 8578
L10566 8578
L10509 8559
L10472 8521
L10453 8484
L10434 8409
L10434 8353
L10453 8278
L10472 8240
L10509 8203
L10566 8184
L10603 8184
L10659 8203
L10678 8221
" />
<path d="M10828 8221
L10847 8203
L10884 8184
L10978 8184
L11016 8203
L11034 8221
L11053 8259
L11053 8296
L11034 8353
L10809 8578
L11053 8578
" />
<text x="15944.3" y="8596.85"
textLength="845.426" font-size="524.934" lengthAdjust="spacingAndGlyphs"
text-anchor="middle" opacity="0">C1</text>
<path d="M15878 8540
L15859 8559
L15803 8578
L15766 8578
L15709 8559
L15672 8521
L15653 8484
L15634 8409
L15634 8353
L15653 8278
L15672 8240
L15709 8203
L15766 8184
L15803 8184
L15859 8203
L15878 8221
" />
<path d="M16253 8578
L16028 8578
" />
<path d="M16141 8578
L16141 8184
L16103 8240
L16066 8278
L16028 8296
" />
<text x="13244.3" y="4396.85"
textLength="845.426" font-size="524.934" lengthAdjust="spacingAndGlyphs"
text-anchor="middle" opacity="0">R5</text>
<path d="M13178 4378
L13047 4190
" />
<path d="M12953 4378
L12953 3984
L13103 3984
L13141 4003
L13159 4021
L13178 4059
L13178 4115
L13159 4153
L13141 4171
L13103 4190
L12953 4190
" />
<path d="M13534 3984
L13347 3984
L13328 4171
L13347 4153
L13384 4134
L13478 4134
L13516 4153
L13534 4171
L13553 4209
L13553 4303
L13534 4340
L13516 4359
L13478 4378
L13384 4378
L13347 4359
L13328 4340
" />
<text x="18744.3" y="8196.85"
textLength="845.426" font-size="524.934" lengthAdjust="spacingAndGlyphs"
text-anchor="middle" opacity="0">R4</text>
<path d="M18678 8178
L18547 7990
" />
<path d="M18453 8178
L18453 7784
L18603 7784
L18641 7803
L18659 7821
L18678 7859
L18678 7915
L18659 7953
L18641 7971
L18603 7990
L18453 7990
" />
<path d="M19016 7915
L19016 8178
" />
<path d="M18922 7765
L18828 8046
L19072 8046
" />
<text x="18744.3" y="6696.85"
textLength="845.426" font-size="524.934" lengthAdjust="spacingAndGlyphs"
text-anchor="middle" opacity="0">R3</text>
<path d="M18678 6678
L18547 6490
" />
<path d="M18453 6678
L18453 6284
L18603 6284
L18641 6303
L18659 6321
L18678 6359
L18678 6415
L18659 6453
L18641 6471
L18603 6490
L18453 6490
" />
<path d="M18809 6284
L19053 6284
L18922 6434
L18978 6434
L19016 6453
L19034 6471
L19053 6509
L19053 6603
L19034 6640
L19016 6659
L18978 6678
L18866 6678
L18828 6659
L18809 6640
" />
<text x="7744.28" y="6696.85"
textLength="845.426" font-size="524.934" lengthAdjust="spacingAndGlyphs"
text-anchor="middle" opacity="0">R2</text>
<path d="M7678 6678
L7547 6490
" />
<path d="M7453 6678
L7453 6284
L7603 6284
L7641 6303
L7659 6321
L7678 6359
L7678 6415
L7659 6453
L7641 6471
L7603 6490
L7453 6490
" />
<path d="M7828 6321
L7847 6303
L7884 6284
L7978 6284
L8016 6303
L8034 6321
L8053 6359
L8053 6396
L8034 6453
L7809 6678
L8053 6678
" />
<text x="7744.28" y="8196.85"
textLength="845.426" font-size="524.934" lengthAdjust="spacingAndGlyphs"
text-anchor="middle" opacity="0">R1</text>
<path d="M7678 8178
L7547 7990
" />
<path d="M7453 8178
L7453 7784
L7603 7784
L7641 7803
L7659 7821
L7678 7859
L7678 7915
L7659 7953
L7641 7971
L7603 7990
L7453 7990
" />
<path d="M8053 8178
L7828 8178
" />
<path d="M7941 8178
L7941 7784
L7903 7840
L7866 7878
L7828 7896
" />
<text x="18494.3" y="1196.85"
textLength="845.426" font-size="524.934" lengthAdjust="spacingAndGlyphs"
text-anchor="middle" opacity="0">D4</text>
<path d="M18203 1178
L18203 784
L18297 784
L18353 803
L18391 840
L18409 878
L18428 953
L18428 1009
L18409 1084
L18391 1121
L18353 1159
L18297 1178
L18203 1178
" />
<path d="M18766 915
L18766 1178
" />
<path d="M18672 765
L18578 1046
L18822 1046
" />
<text x="15494.3" y="1196.85"
textLength="845.426" font-size="524.934" lengthAdjust="spacingAndGlyphs"
text-anchor="middle" opacity="0">D3</text>
<path d="M15203 1178
L15203 784
L15297 784
L15353 803
L15391 840
L15409 878
L15428 953
L15428 1009
L15409 1084
L15391 1121
L15353 1159
L15297 1178
L15203 1178
" />
<path d="M15559 784
L15803 784
L15672 934
L15728 934
L15766 953
L15784 971
L15803 1009
L15803 1103
L15784 1140
L15766 1159
L15728 1178
L15616 1178
L15578 1159
L15559 1140
" />
<text x="10994.3" y="1196.85"
textLength="845.426" font-size="524.934" lengthAdjust="spacingAndGlyphs"
text-anchor="middle" opacity="0">D2</text>
<path d="M10703 1178
L10703 784
L10797 784
L10853 803
L10891 840
L10909 878
L10928 953
L10928 1009
L10909 1084
L10891 1121
L10853 1159
L10797 1178
L10703 1178
" />
<path d="M11078 821
L11097 803
L11134 784
L11228 784
L11266 803
L11284 821
L11303 859
L11303 896
L11284 953
L11059 1178
L11303 1178
" />
<text x="7994.28" y="1196.85"
textLength="845.426" font-size="524.934" lengthAdjust="spacingAndGlyphs"
text-anchor="middle" opacity="0">D1</text>
<path d="M7703 1178
L7703 784
L7797 784
L7853 803
L7891 840
L7909 878
L7928 953
L7928 1009
L7909 1084
L7891 1121
L7853 1159
L7797 1178
L7703 1178
" />
<path d="M8303 1178
L8078 1178
" />
<path d="M8191 1178
L8191 784
L8153 840
L8116 878
L8078 896
" />
<text x="13194.3" y="1246.85"
textLength="1145.39" font-size="524.934" lengthAdjust="spacingAndGlyphs"
text-anchor="middle" opacity="0">BT1</text>
<path d="M12884 1021
L12941 1040
L12959 1059
L12978 1096
L12978 1153
L12959 1190
L12941 1209
L12903 1228
L12753 1228
L12753 834
L12884 834
L12922 853
L12941 871
L12959 909
L12959 946
L12941 984
L12922 1003
L12884 1021
L12753 1021
" />
<path d="M13091 834
L13316 834
" />
<path d="M13203 1228
L13203 834
" />
<path d="M13653 1228
L13428 1228
" />
<path d="M13541 1228
L13541 834
L13503 890
L13466 928
L13428 946
" />
<g >
</g>
</g>
<g style="fill:#000000; fill-opacity:0.0; 
stroke:#000000; stroke-width:59.0551; stroke-opacity:1; 
stroke-linecap:round; stroke-linejoin:round;">
</g>
<g style="fill:#C2C200; fill-opacity:0.0; 
stroke:#C2C200; stroke-width:59.0551; stroke-opacity:1; 
stroke-linecap:round; stroke-linejoin:round;">
</g>
<g style="fill:#C2C200; fill-opacity:0.0; 
stroke:#C2C200; stroke-width:19.685; stroke-opacity:1; 
stroke-linecap:round; stroke-linejoin:round;">
<circle cx="5244.28" cy="9000" r="262.467" /> 
<path d="M4850 9000
L5637 9000
" />
<path d="M5244 8606
L5244 9393
" />
<path d="M5244 4000
L5244 1500
" />
<path d="M6244 4000
L5244 4000
" />
<path d="M6244 5500
L6244 4000
" />
<path d="M5244 5500
L6244 5500
" />
<path d="M5244 8000
L5244 5500
" />
<path d="M21244 5500
L21244 8000
" />
<path d="M20244 5500
L21244 5500
" />
<path d="M20244 4000
L20244 5500
" />
<path d="M21244 4000
L20244 4000
" />
<path d="M21244 1500
L21244 4000
" />
<path d="M20244.3 9000 A1000 1000 0.0 0 0 21244.3 8000" />
<path d="M5244.28 8000 A1000 1000 0.0 0 0 6244.28 9000" />
<path d="M6244.28 500 A1000 1000 0.0 0 0 5244.28 1500" />
<path d="M21244.3 1500 A1000 1000 0.0 0 0 20244.3 500" />
<path d="M20244 9000
L6244 9000
" />
<path d="M6244 500
L20244 500
" />
<g >
</g>
<g >
</g>
<g >
</g>
<g >
</g>
<g >
</g>
<g >
</g>
<g >
</g>
<g >
</g>
<g >
</g>
<g >
</g>
<g >
</g>
<g >
</g>
<g >
</g>
<g >
</g>
<g >
</g>
<g >
</g>
<g >
</g>
<g >
</g>
<g >
</g>
</g> 
</svg>
