<?xml version="1.0" standalone="no"?>
 <!DOCTYPE svg PUBLIC "-//W3C//DTD SVG 1.1//EN" 
 "http://www.w3.org/Graphics/SVG/1.1/DTD/svg11.dtd"> 
<svg
  xmlns:svg="http://www.w3.org/2000/svg"
  xmlns="http://www.w3.org/2000/svg"
  xmlns:xlink="http://www.w3.org/1999/xlink"
  version="1.1"
  width="6.852920cm" height="2.540000cm" viewBox="0 0 26980 10000">
<title>SVG Picture created as C-F_Cu.svg date 2020/07/03 20:33:56 </title>
  <desc>Picture generated by PCBNEW </desc>
<g style="fill:#000000; fill-opacity:1;stroke:#000000; stroke-opacity:1;
stroke-linecap:round; stroke-linejoin:round;"
 transform="translate(0 0) scale(1 1)">
</g>
<g style="fill:#000000; fill-opacity:0.0; 
stroke:#000000; stroke-width:-0.000393701; stroke-opacity:1; 
stroke-linecap:round; stroke-linejoin:round;">
<g >
</g>
<g >
</g>
<g style="fill:#848400; fill-opacity:0.0; 
stroke:#848400; stroke-width:-0.000393701; stroke-opacity:1; 
stroke-linecap:round; stroke-linejoin:round;">
</g>
<g style="fill:#848400; fill-opacity:0.0; 
stroke:#848400; stroke-width:0; stroke-opacity:1; 
stroke-linecap:round; stroke-linejoin:round;">
</g>
<g style="fill:#848400; fill-opacity:1.0; 
stroke:#848400; stroke-width:0; stroke-opacity:1; 
stroke-linecap:round; stroke-linejoin:round;">
<path style="fill:#848400; fill-opacity:1.0; 
stroke:#848400; stroke-width:0; stroke-opacity:1; 
stroke-linecap:round; stroke-linejoin:round;fill-rule:evenodd;"
d="M 17527.7,5511.81
17527.7,4803.15
17960.8,4803.15
17960.8,5511.81
Z" /> 
<path style="fill:#848400; fill-opacity:1.0; 
stroke:#848400; stroke-width:0; stroke-opacity:1; 
stroke-linecap:round; stroke-linejoin:round;fill-rule:evenodd;"
d="M 18863.2,4803.67
18873.7,4805.23
18884,4807.81
18894,4811.39
18903.6,4815.93
18912.7,4821.4
18921.2,4827.73
18929.1,4834.86
18936.2,4842.73
18942.6,4851.27
18948,4860.38
18952.6,4869.99
18956.2,4879.99
18958.7,4890.3
18960.3,4900.81
18960.8,4911.42
18960.8,5403.54
18960.3,5414.16
18958.7,5424.67
18956.2,5434.97
18952.6,5444.98
18948,5454.58
18942.6,5463.69
18936.2,5472.23
18929.1,5480.1
18921.2,5487.24
18912.7,5493.56
18903.6,5499.03
18894,5503.57
18884,5507.15
18873.7,5509.73
18863.2,5511.29
18852.5,5511.81
18636,5511.81
18625.4,5511.29
18614.9,5509.73
18604.6,5507.15
18594.6,5503.57
18585,5499.03
18575.9,5493.56
18567.3,5487.24
18559.5,5480.1
18552.3,5472.23
18546,5463.69
18540.5,5454.58
18536,5444.98
18532.4,5434.97
18529.8,5424.67
18528.3,5414.16
18527.7,5403.54
18527.7,4911.42
18528.3,4900.81
18529.8,4890.3
18532.4,4879.99
18536,4869.99
18540.5,4860.38
18546,4851.27
18552.3,4842.73
18559.5,4834.86
18567.3,4827.73
18575.9,4821.4
18585,4815.93
18594.6,4811.39
18604.6,4807.81
18614.9,4805.23
18625.4,4803.67
18636,4803.15
18852.5,4803.15
Z" /> 
<path style="fill:#848400; fill-opacity:1.0; 
stroke:#848400; stroke-width:0; stroke-opacity:1; 
stroke-linecap:round; stroke-linejoin:round;fill-rule:evenodd;"
d="M 18363.2,3988.71
18373.7,3990.27
18384,3992.85
18394,3996.43
18403.6,4000.97
18412.7,4006.44
18421.2,4012.76
18429.1,4019.9
18436.2,4027.77
18442.6,4036.31
18448,4045.42
18452.6,4055.02
18456.2,4065.03
18458.7,4075.33
18460.3,4085.84
18460.8,4096.46
18460.8,4588.58
18460.3,4599.19
18458.7,4609.7
18456.2,4620.01
18452.6,4630.01
18448,4639.62
18442.6,4648.73
18436.2,4657.27
18429.1,4665.14
18421.2,4672.27
18412.7,4678.6
18403.6,4684.07
18394,4688.61
18384,4692.19
18373.7,4694.77
18363.2,4696.33
18352.5,4696.85
18136,4696.85
18125.4,4696.33
18114.9,4694.77
18104.6,4692.19
18094.6,4688.61
18085,4684.07
18075.9,4678.6
18067.3,4672.27
18059.5,4665.14
18052.3,4657.27
18046,4648.73
18040.5,4639.62
18036,4630.01
18032.4,4620.01
18029.8,4609.7
18028.3,4599.19
18027.7,4588.58
18027.7,4096.46
18028.3,4085.84
18029.8,4075.33
18032.4,4065.03
18036,4055.02
18040.5,4045.42
18046,4036.31
18052.3,4027.77
18059.5,4019.9
18067.3,4012.76
18075.9,4006.44
18085,4000.97
18094.6,3996.43
18104.6,3992.85
18114.9,3990.27
18125.4,3988.71
18136,3988.19
18352.5,3988.19
Z" /> 
</g>
<g >
</g>
<g style="fill:#848400; fill-opacity:1.0; 
stroke:#848400; stroke-width:0; stroke-opacity:1; 
stroke-linecap:round; stroke-linejoin:round;">
<path style="fill:#848400; fill-opacity:1.0; 
stroke:#848400; stroke-width:0; stroke-opacity:1; 
stroke-linecap:round; stroke-linejoin:round;fill-rule:evenodd;"
d="M 7527.75,5511.81
7527.75,4803.15
7960.82,4803.15
7960.82,5511.81
Z" /> 
<path style="fill:#848400; fill-opacity:1.0; 
stroke:#848400; stroke-width:0; stroke-opacity:1; 
stroke-linecap:round; stroke-linejoin:round;fill-rule:evenodd;"
d="M 8863.16,4803.67
8873.67,4805.23
8883.98,4807.81
8893.98,4811.39
8903.59,4815.93
8912.7,4821.4
8921.23,4827.73
8929.11,4834.86
8936.24,4842.73
8942.57,4851.27
8948.03,4860.38
8952.58,4869.99
8956.16,4879.99
8958.74,4890.3
8960.3,4900.81
8960.82,4911.42
8960.82,5403.54
8960.3,5414.16
8958.74,5424.67
8956.16,5434.97
8952.58,5444.98
8948.03,5454.58
8942.57,5463.69
8936.24,5472.23
8929.11,5480.1
8921.23,5487.24
8912.7,5493.56
8903.59,5499.03
8893.98,5503.57
8883.98,5507.15
8873.67,5509.73
8863.16,5511.29
8852.55,5511.81
8636.01,5511.81
8625.4,5511.29
8614.89,5509.73
8604.59,5507.15
8594.58,5503.57
8584.98,5499.03
8575.86,5493.56
8567.33,5487.24
8559.46,5480.1
8552.32,5472.23
8545.99,5463.69
8540.53,5454.58
8535.99,5444.98
8532.41,5434.97
8529.83,5424.67
8528.27,5414.16
8527.75,5403.54
8527.75,4911.42
8528.27,4900.81
8529.83,4890.3
8532.41,4879.99
8535.99,4869.99
8540.53,4860.38
8545.99,4851.27
8552.32,4842.73
8559.46,4834.86
8567.33,4827.73
8575.86,4821.4
8584.98,4815.93
8594.58,4811.39
8604.59,4807.81
8614.89,4805.23
8625.4,4803.67
8636.01,4803.15
8852.55,4803.15
Z" /> 
<path style="fill:#848400; fill-opacity:1.0; 
stroke:#848400; stroke-width:0; stroke-opacity:1; 
stroke-linecap:round; stroke-linejoin:round;fill-rule:evenodd;"
d="M 8363.16,3988.71
8373.67,3990.27
8383.98,3992.85
8393.98,3996.43
8403.59,4000.97
8412.7,4006.44
8421.23,4012.76
8429.11,4019.9
8436.24,4027.77
8442.57,4036.31
8448.03,4045.42
8452.58,4055.02
8456.16,4065.03
8458.74,4075.33
8460.3,4085.84
8460.82,4096.46
8460.82,4588.58
8460.3,4599.19
8458.74,4609.7
8456.16,4620.01
8452.58,4630.01
8448.03,4639.62
8442.57,4648.73
8436.24,4657.27
8429.11,4665.14
8421.23,4672.27
8412.7,4678.6
8403.59,4684.07
8393.98,4688.61
8383.98,4692.19
8373.67,4694.77
8363.16,4696.33
8352.55,4696.85
8136.01,4696.85
8125.4,4696.33
8114.89,4694.77
8104.59,4692.19
8094.58,4688.61
8084.98,4684.07
8075.86,4678.6
8067.33,4672.27
8059.46,4665.14
8052.32,4657.27
8045.99,4648.73
8040.53,4639.62
8035.99,4630.01
8032.41,4620.01
8029.83,4609.7
8028.27,4599.19
8027.75,4588.58
8027.75,4096.46
8028.27,4085.84
8029.83,4075.33
8032.41,4065.03
8035.99,4055.02
8040.53,4045.42
8045.99,4036.31
8052.32,4027.77
8059.46,4019.9
8067.33,4012.76
8075.86,4006.44
8084.98,4000.97
8094.58,3996.43
8104.59,3992.85
8114.89,3990.27
8125.4,3988.71
8136.01,3988.19
8352.55,3988.19
Z" /> 
</g>
<g >
</g>
<g >
</g>
<g style="fill:#848400; fill-opacity:1.0; 
stroke:#848400; stroke-width:0; stroke-opacity:1; 
stroke-linecap:round; stroke-linejoin:round;">
<circle cx="11744.3" cy="7484.25" r="314.961" /> 
</g>
<g style="fill:#848400; fill-opacity:1.0; 
stroke:#848400; stroke-width:39.3701; stroke-opacity:1; 
stroke-linecap:round; stroke-linejoin:round;">
</g>
<g style="fill:#848400; fill-opacity:1.0; 
stroke:#848400; stroke-width:0; stroke-opacity:1; 
stroke-linecap:round; stroke-linejoin:round;">
<path style="fill:#848400; fill-opacity:1.0; 
stroke:#848400; stroke-width:0; stroke-opacity:1; 
stroke-linecap:round; stroke-linejoin:round;fill-rule:evenodd;"
d="M 11429.3,6185.04
12059.2,6185.04
12059.2,6814.96
11429.3,6814.96
Z" /> 
</g>
<g >
</g>
<g style="fill:#848400; fill-opacity:1.0; 
stroke:#848400; stroke-width:0; stroke-opacity:1; 
stroke-linecap:round; stroke-linejoin:round;">
<circle cx="14744.3" cy="7484.25" r="314.961" /> 
</g>
<g style="fill:#848400; fill-opacity:1.0; 
stroke:#848400; stroke-width:39.3701; stroke-opacity:1; 
stroke-linecap:round; stroke-linejoin:round;">
</g>
<g style="fill:#848400; fill-opacity:1.0; 
stroke:#848400; stroke-width:0; stroke-opacity:1; 
stroke-linecap:round; stroke-linejoin:round;">
<path style="fill:#848400; fill-opacity:1.0; 
stroke:#848400; stroke-width:0; stroke-opacity:1; 
stroke-linecap:round; stroke-linejoin:round;fill-rule:evenodd;"
d="M 14429.3,6185.04
15059.2,6185.04
15059.2,6814.96
14429.3,6814.96
Z" /> 
</g>
<g >
</g>
<g >
</g>
<g >
</g>
<g style="fill:#848400; fill-opacity:1.0; 
stroke:#848400; stroke-width:0; stroke-opacity:1; 
stroke-linecap:round; stroke-linejoin:round;">
</g>
<g style="fill:#848400; fill-opacity:1.0; 
stroke:#848400; stroke-width:629.921; stroke-opacity:1; 
stroke-linecap:round; stroke-linejoin:round;">
</g>
<g style="fill:#848400; fill-opacity:0.0; 
stroke:#848400; stroke-width:629.921; stroke-opacity:1; 
stroke-linecap:round; stroke-linejoin:round;">
<path d="M15244 4200
L15244 4200
" />
</g>
<g style="fill:#848400; fill-opacity:1.0; 
stroke:#848400; stroke-width:0; stroke-opacity:1; 
stroke-linecap:round; stroke-linejoin:round;">
<circle cx="11244.3" cy="4200" r="314.961" /> 
</g>
<g style="fill:#848400; fill-opacity:1.0; 
stroke:#848400; stroke-width:39.3701; stroke-opacity:1; 
stroke-linecap:round; stroke-linejoin:round;">
</g>
<g >
</g>
<g style="fill:#848400; fill-opacity:1.0; 
stroke:#848400; stroke-width:39.3701; stroke-opacity:1; 
stroke-linecap:round; stroke-linejoin:round;">
</g>
<g style="fill:#848400; fill-opacity:1.0; 
stroke:#848400; stroke-width:629.921; stroke-opacity:1; 
stroke-linecap:round; stroke-linejoin:round;">
</g>
<g style="fill:#848400; fill-opacity:0.0; 
stroke:#848400; stroke-width:629.921; stroke-opacity:1; 
stroke-linecap:round; stroke-linejoin:round;">
<path d="M16744 8000
L16744 8000
" />
</g>
<g style="fill:#848400; fill-opacity:1.0; 
stroke:#848400; stroke-width:0; stroke-opacity:1; 
stroke-linecap:round; stroke-linejoin:round;">
<circle cx="20744.3" cy="8000" r="314.961" /> 
</g>
<g style="fill:#848400; fill-opacity:1.0; 
stroke:#848400; stroke-width:39.3701; stroke-opacity:1; 
stroke-linecap:round; stroke-linejoin:round;">
</g>
<g >
</g>
<g style="fill:#848400; fill-opacity:1.0; 
stroke:#848400; stroke-width:39.3701; stroke-opacity:1; 
stroke-linecap:round; stroke-linejoin:round;">
</g>
<g style="fill:#848400; fill-opacity:1.0; 
stroke:#848400; stroke-width:629.921; stroke-opacity:1; 
stroke-linecap:round; stroke-linejoin:round;">
</g>
<g style="fill:#848400; fill-opacity:0.0; 
stroke:#848400; stroke-width:629.921; stroke-opacity:1; 
stroke-linecap:round; stroke-linejoin:round;">
<path d="M16744 6500
L16744 6500
" />
</g>
<g style="fill:#848400; fill-opacity:1.0; 
stroke:#848400; stroke-width:0; stroke-opacity:1; 
stroke-linecap:round; stroke-linejoin:round;">
<circle cx="20744.3" cy="6500" r="314.961" /> 
</g>
<g style="fill:#848400; fill-opacity:1.0; 
stroke:#848400; stroke-width:39.3701; stroke-opacity:1; 
stroke-linecap:round; stroke-linejoin:round;">
</g>
<g >
</g>
<g style="fill:#848400; fill-opacity:1.0; 
stroke:#848400; stroke-width:39.3701; stroke-opacity:1; 
stroke-linecap:round; stroke-linejoin:round;">
</g>
<g style="fill:#848400; fill-opacity:1.0; 
stroke:#848400; stroke-width:629.921; stroke-opacity:1; 
stroke-linecap:round; stroke-linejoin:round;">
</g>
<g style="fill:#848400; fill-opacity:0.0; 
stroke:#848400; stroke-width:629.921; stroke-opacity:1; 
stroke-linecap:round; stroke-linejoin:round;">
<path d="M9744 6500
L9744 6500
" />
</g>
<g style="fill:#848400; fill-opacity:1.0; 
stroke:#848400; stroke-width:0; stroke-opacity:1; 
stroke-linecap:round; stroke-linejoin:round;">
<circle cx="5744.28" cy="6500" r="314.961" /> 
</g>
<g style="fill:#848400; fill-opacity:1.0; 
stroke:#848400; stroke-width:39.3701; stroke-opacity:1; 
stroke-linecap:round; stroke-linejoin:round;">
</g>
<g >
</g>
<g style="fill:#848400; fill-opacity:1.0; 
stroke:#848400; stroke-width:39.3701; stroke-opacity:1; 
stroke-linecap:round; stroke-linejoin:round;">
</g>
<g style="fill:#848400; fill-opacity:1.0; 
stroke:#848400; stroke-width:629.921; stroke-opacity:1; 
stroke-linecap:round; stroke-linejoin:round;">
</g>
<g style="fill:#848400; fill-opacity:0.0; 
stroke:#848400; stroke-width:629.921; stroke-opacity:1; 
stroke-linecap:round; stroke-linejoin:round;">
<path d="M9744 8000
L9744 8000
" />
</g>
<g style="fill:#848400; fill-opacity:1.0; 
stroke:#848400; stroke-width:0; stroke-opacity:1; 
stroke-linecap:round; stroke-linejoin:round;">
<circle cx="5744.28" cy="8000" r="314.961" /> 
</g>
<g style="fill:#848400; fill-opacity:1.0; 
stroke:#848400; stroke-width:39.3701; stroke-opacity:1; 
stroke-linecap:round; stroke-linejoin:round;">
</g>
<g >
</g>
<g style="fill:#848400; fill-opacity:1.0; 
stroke:#848400; stroke-width:39.3701; stroke-opacity:1; 
stroke-linecap:round; stroke-linejoin:round;">
</g>
<g style="fill:#848400; fill-opacity:1.0; 
stroke:#848400; stroke-width:0; stroke-opacity:1; 
stroke-linecap:round; stroke-linejoin:round;">
<circle cx="20244.3" cy="2000" r="354.331" /> 
</g>
<g style="fill:#848400; fill-opacity:1.0; 
stroke:#848400; stroke-width:39.3701; stroke-opacity:1; 
stroke-linecap:round; stroke-linejoin:round;">
</g>
<g style="fill:#848400; fill-opacity:1.0; 
stroke:#848400; stroke-width:0; stroke-opacity:1; 
stroke-linecap:round; stroke-linejoin:round;">
<path style="fill:#848400; fill-opacity:1.0; 
stroke:#848400; stroke-width:0; stroke-opacity:1; 
stroke-linecap:round; stroke-linejoin:round;fill-rule:evenodd;"
d="M 18890,2354.33
18890,1645.67
19598.6,1645.67
19598.6,2354.33
Z" /> 
</g>
<g >
</g>
<g style="fill:#848400; fill-opacity:1.0; 
stroke:#848400; stroke-width:0; stroke-opacity:1; 
stroke-linecap:round; stroke-linejoin:round;">
<circle cx="17244.3" cy="2000" r="354.331" /> 
</g>
<g style="fill:#848400; fill-opacity:1.0; 
stroke:#848400; stroke-width:39.3701; stroke-opacity:1; 
stroke-linecap:round; stroke-linejoin:round;">
</g>
<g style="fill:#848400; fill-opacity:1.0; 
stroke:#848400; stroke-width:0; stroke-opacity:1; 
stroke-linecap:round; stroke-linejoin:round;">
<path style="fill:#848400; fill-opacity:1.0; 
stroke:#848400; stroke-width:0; stroke-opacity:1; 
stroke-linecap:round; stroke-linejoin:round;fill-rule:evenodd;"
d="M 15890,2354.33
15890,1645.67
16598.6,1645.67
16598.6,2354.33
Z" /> 
</g>
<g >
</g>
<g style="fill:#848400; fill-opacity:1.0; 
stroke:#848400; stroke-width:0; stroke-opacity:1; 
stroke-linecap:round; stroke-linejoin:round;">
<circle cx="10244.3" cy="2000" r="354.331" /> 
</g>
<g style="fill:#848400; fill-opacity:1.0; 
stroke:#848400; stroke-width:39.3701; stroke-opacity:1; 
stroke-linecap:round; stroke-linejoin:round;">
</g>
<g style="fill:#848400; fill-opacity:1.0; 
stroke:#848400; stroke-width:0; stroke-opacity:1; 
stroke-linecap:round; stroke-linejoin:round;">
<path style="fill:#848400; fill-opacity:1.0; 
stroke:#848400; stroke-width:0; stroke-opacity:1; 
stroke-linecap:round; stroke-linejoin:round;fill-rule:evenodd;"
d="M 8889.95,2354.33
8889.95,1645.67
9598.61,1645.67
9598.61,2354.33
Z" /> 
</g>
<g >
</g>
<g style="fill:#848400; fill-opacity:1.0; 
stroke:#848400; stroke-width:0; stroke-opacity:1; 
stroke-linecap:round; stroke-linejoin:round;">
<circle cx="7244.28" cy="2000" r="354.331" /> 
</g>
<g style="fill:#848400; fill-opacity:1.0; 
stroke:#848400; stroke-width:39.3701; stroke-opacity:1; 
stroke-linecap:round; stroke-linejoin:round;">
</g>
<g style="fill:#848400; fill-opacity:1.0; 
stroke:#848400; stroke-width:0; stroke-opacity:1; 
stroke-linecap:round; stroke-linejoin:round;">
<path style="fill:#848400; fill-opacity:1.0; 
stroke:#848400; stroke-width:0; stroke-opacity:1; 
stroke-linecap:round; stroke-linejoin:round;fill-rule:evenodd;"
d="M 5889.95,2354.33
5889.95,1645.67
6598.61,1645.67
6598.61,2354.33
Z" /> 
</g>
<g >
</g>
<g style="fill:#848400; fill-opacity:1.0; 
stroke:#848400; stroke-width:0; stroke-opacity:1; 
stroke-linecap:round; stroke-linejoin:round;">
</g>
<g style="fill:#848400; fill-opacity:1.0; 
stroke:#848400; stroke-width:669.291; stroke-opacity:1; 
stroke-linecap:round; stroke-linejoin:round;">
</g>
<g style="fill:#848400; fill-opacity:0.0; 
stroke:#848400; stroke-width:669.291; stroke-opacity:1; 
stroke-linecap:round; stroke-linejoin:round;">
<path d="M13744 2000
L13744 2000
" />
</g>
<g style="fill:#848400; fill-opacity:0.0; 
stroke:#848400; stroke-width:0; stroke-opacity:1; 
stroke-linecap:round; stroke-linejoin:round;">
</g>
<g style="fill:#848400; fill-opacity:1.0; 
stroke:#848400; stroke-width:0; stroke-opacity:1; 
stroke-linecap:round; stroke-linejoin:round;">
<path style="fill:#848400; fill-opacity:1.0; 
stroke:#848400; stroke-width:0; stroke-opacity:1; 
stroke-linecap:round; stroke-linejoin:round;fill-rule:evenodd;"
d="M 13078.9,2334.65
12409.6,2334.65
12409.6,1665.35
13078.9,1665.35
Z" /> 
</g>
<g >
</g>
<g >
</g>
<g style="fill:#840000; fill-opacity:1.0; 
stroke:#840000; stroke-width:0; stroke-opacity:1; 
stroke-linecap:round; stroke-linejoin:round;">
</g>
<g style="fill:#840000; fill-opacity:1.0; 
stroke:#840000; stroke-width:150; stroke-opacity:1; 
stroke-linecap:round; stroke-linejoin:round;">
</g>
<g style="fill:#840000; fill-opacity:0.0; 
stroke:#840000; stroke-width:150; stroke-opacity:1; 
stroke-linecap:round; stroke-linejoin:round;">
<path d="M20744 6500
L20744 8000
" />
<path d="M5744 8000
L5744 6500
" />
<path d="M10694 3650
L11244 4200
" />
<path d="M7694 3650
L10694 3650
" />
<path d="M6744 4600
L7694 3650
" />
<path d="M6744 5500
L6744 4600
" />
<path d="M5744 6500
L6744 5500
" />
<path d="M20094 5850
L20744 6500
" />
<path d="M12894 5850
L20094 5850
" />
<path d="M11244 4200
L12894 5850
" />
<path d="M13228 8000
L16744 8000
" />
<path d="M11744 6515
L13228 8000
" />
<path d="M10244 2200
L10244 2000
" />
<path d="M9044 3000
L9444 3000
" />
<path d="M9444 3000
L10244 2200
" />
<path d="M17244 2150
L17244 2000
" />
<path d="M14044 3000
L15219 4175
" />
<path d="M8144 3000
L14044 3000
" />
<path d="M7244 2100
L8144 3000
" />
<path d="M7244 2000
L7244 2100
" />
<path d="M16394 3000
L15694 3700
" />
<path d="M20244 2200
L19444 3000
" />
<path d="M19444 3000
L16394 3000
" />
<path d="M20244 2000
L20244 2200
" />
<path d="M15694 3700
L17244 2150
" />
<path d="M15219 4175
L15694 3700
" />
<path d="M15744 7500
L14744 7500
" />
<path d="M16744 6500
L15744 7500
" />
<path d="M10744 6500
L11744 7500
" />
<path d="M9744 6500
L10744 6500
" />
<path d="M8844 6500
L9744 6500
" />
<path d="M8244 5900
L8844 6500
" />
<path d="M8244 4500
L8244 5900
" />
</g>
<g >
</g>
<g style="fill:#840000; fill-opacity:0.0; 
stroke:#840000; stroke-width:150; stroke-opacity:1; 
stroke-linecap:round; stroke-linejoin:round;">
</g>
<g style="fill:#840000; fill-opacity:1.0; 
stroke:#840000; stroke-width:100; stroke-opacity:1; 
stroke-linecap:round; stroke-linejoin:round;">
<path style="fill:#840000; fill-opacity:1.0; 
stroke:#840000; stroke-width:100; stroke-opacity:1; 
stroke-linecap:round; stroke-linejoin:round;fill-rule:evenodd;"
d="M 7783.44,4026.33
7776.54,4096.46
7776.54,4588.58
7783.44,4658.71
7794.28,4694.44
7794.28,5107.48
7802.16,5107.48
7802.16,5207.48
7794.28,5207.48
7794.28,5699.31
7856.78,5761.81
7919.28,5762.54
7919.28,5884.03
7917.71,5900
7923.98,5963.71
7942.57,6024.97
7972.75,6081.43
7996.98,6110.97
8013.36,6130.92
8025.76,6141.1
8603.18,6718.52
8613.36,6730.92
8625.76,6741.1
8662.85,6771.53
8662.85,6771.54
8719.31,6801.71
8780.57,6820.3
8828.32,6825
8828.32,6825
8844.28,6826.57
8860.24,6825
9281.97,6825
9305.45,6860.14
9384.14,6938.83
9476.67,7000.66
9579.49,7043.25
9688.64,7064.96
9799.93,7064.96
9909.07,7043.25
10011.9,7000.66
10104.4,6938.83
10183.1,6860.14
10206.6,6825
10609.7,6825
11185,7400.29
11179.3,7428.61
11179.3,7539.9
11201,7649.04
11243.6,7751.86
11305.4,7844.39
11384.1,7923.09
11476.7,7984.91
11579.5,8027.5
11688.6,8049.21
11799.9,8049.21
11909.1,8027.5
12011.9,7984.91
12104.4,7923.09
12183.1,7844.39
12244.9,7751.86
12287.5,7649.04
12309.2,7540.26
12987.4,8218.52
12997.6,8230.92
13017,8246.87
13047.1,8271.54
13090.9,8294.97
13103.6,8301.71
13164.8,8320.3
13212.6,8325
13212.6,8325
13228.5,8326.57
13244.5,8325
16282,8325
16305.4,8360.14
16384.1,8438.83
16476.7,8500.66
16579.5,8543.25
16688.6,8564.96
16799.9,8564.96
16909.1,8543.25
17011.9,8500.66
17104.4,8438.83
17183.1,8360.14
17244.9,8267.61
17287.5,8164.79
17309.2,8055.64
17309.2,7944.36
17287.5,7835.21
17244.9,7732.39
17183.1,7639.86
17104.4,7561.17
17011.9,7499.34
16909.1,7456.75
16799.9,7435.04
16688.6,7435.04
16579.5,7456.75
16476.7,7499.34
16384.1,7561.17
16305.4,7639.86
16282,7675
16028.9,7675
16647.2,7056.71
16688.6,7064.96
16799.9,7064.96
16909.1,7043.25
17011.9,7000.66
17104.4,6938.83
17183.1,6860.14
17244.9,6767.61
17287.5,6664.79
17309.2,6555.64
17309.2,6444.36
17287.5,6335.21
17244.9,6232.39
17206.6,6175
19959.7,6175
20187.6,6402.9
20179.3,6444.36
20179.3,6555.64
20201,6664.79
20243.6,6767.61
20305.4,6860.14
20384.1,6938.83
20419.3,6962.31
20419.3,7537.69
20384.1,7561.17
20305.4,7639.86
20243.6,7732.39
20201,7835.21
20179.3,7944.36
20179.3,8055.64
20201,8164.79
20243.6,8267.61
20305.4,8360.14
20384.1,8438.83
20476.7,8500.66
20579.5,8543.25
20688.6,8564.96
20715,8564.96
20657.5,8612.58
20530.6,8681.17
20392.9,8723.82
20237.4,8740.16
6256.99,8740.16
6100.76,8724.84
5962.7,8683.16
5835.38,8615.46
5773.46,8564.96
5799.93,8564.96
5909.07,8543.25
6011.89,8500.66
6104.42,8438.83
6183.12,8360.14
6244.94,8267.61
6287.53,8164.79
6309.24,8055.64
6309.24,7944.36
9179.32,7944.36
9179.32,8055.64
9201.03,8164.79
9243.62,8267.61
9305.45,8360.14
9384.14,8438.83
9476.67,8500.66
9579.49,8543.25
9688.64,8564.96
9799.93,8564.96
9909.07,8543.25
10011.9,8500.66
10104.4,8438.83
10183.1,8360.14
10244.9,8267.61
10287.5,8164.79
10309.2,8055.64
10309.2,7944.36
10287.5,7835.21
10244.9,7732.39
10183.1,7639.86
10104.4,7561.17
10011.9,7499.34
9909.07,7456.75
9799.93,7435.04
9688.64,7435.04
9579.49,7456.75
9476.67,7499.34
9384.14,7561.17
9305.45,7639.86
9243.62,7732.39
9201.03,7835.21
9179.32,7944.36
6309.24,7944.36
6287.53,7835.21
6244.94,7732.39
6183.12,7639.86
6104.42,7561.17
6069.28,7537.69
6069.28,6962.31
6104.42,6938.83
6183.12,6860.14
6244.94,6767.61
6287.53,6664.79
6309.24,6555.64
6309.24,6444.36
6301,6402.9
6962.8,5741.1
6975.2,5730.92
7013.2,5684.63
7015.82,5681.43
7027.86,5658.9
7046,5624.97
7064.58,5563.71
7069.28,5515.97
7069.28,5515.96
7069.69,5511.81
7276.54,5511.81
7281.36,5560.82
7295.66,5607.94
7318.87,5651.38
7350.11,5689.44
7388.18,5720.68
7431.61,5743.9
7478.74,5758.19
7527.75,5763.02
7631.78,5761.81
7694.28,5699.31
7694.28,5207.48
7340.25,5207.48
7277.75,5269.98
7276.54,5511.81
7069.69,5511.81
7070.85,5500
7069.28,5484.04
7069.28,4803.15
7276.54,4803.15
7277.75,5044.98
7340.25,5107.48
7694.28,5107.48
7694.28,4615.65
7631.78,4553.15
7527.75,4551.94
7478.74,4556.77
7431.61,4571.06
7388.18,4594.28
7350.11,4625.52
7318.87,4663.59
7295.66,4707.02
7281.36,4754.14
7276.54,4803.15
7069.28,4803.15
7069.28,4734.62
7786,4017.9
Z" /> 
<path style="fill:#840000; fill-opacity:1.0; 
stroke:#840000; stroke-width:100; stroke-opacity:1; 
stroke-linecap:round; stroke-linejoin:round;fill-rule:evenodd;"
d="M 20387.8,775.161
20525.9,816.843
20653.2,884.545
20764.9,975.691
20856.9,1086.81
20925.5,1213.66
20968.1,1351.42
20984.4,1506.87
20984.4,3740.16
20257,3740.16
20244.3,3738.9
20231.5,3740.16
20193.3,3743.92
20144.4,3758.78
20099.2,3782.9
20059.7,3815.37
20027.2,3854.94
20003.1,3900.08
19988.2,3949.06
19983.2,4000
19984.4,4012.76
19984.4,5487.23
19983.2,5500
19985.6,5525
19189.5,5525
19205.1,5473.67
19212,5403.54
19212,4911.42
19205.1,4841.29
19184.7,4773.85
19151.4,4711.7
19106.7,4657.23
19052.3,4612.52
18990.1,4579.3
18922.7,4558.85
18852.5,4551.94
18712,4551.94
18712,4096.46
18705.1,4026.33
18684.7,3958.89
18651.4,3896.74
18606.7,3842.27
18552.3,3797.56
18490.1,3764.34
18422.7,3743.89
18352.5,3736.98
18136,3736.98
18065.9,3743.89
17998.4,3764.34
17936.3,3797.56
17881.8,3842.27
17837.1,3896.74
17803.9,3958.89
17783.4,4026.33
17776.5,4096.46
17776.5,4588.58
17783.4,4658.71
17794.3,4694.44
17794.3,5107.48
18148.3,5107.48
18210.8,5044.98
18211.3,4948.06
18276.5,4948.06
18276.5,5403.54
18283.4,5473.67
18299,5525
18210.7,5525
18212,5511.81
18210.8,5269.98
18148.3,5207.48
17794.3,5207.48
17794.3,5215.35
17694.3,5215.35
17694.3,5207.48
17340.2,5207.48
17277.7,5269.98
17276.5,5511.81
17277.8,5525
13028.9,5525
12307.1,4803.15
17276.5,4803.15
17277.7,5044.98
17340.2,5107.48
17694.3,5107.48
17694.3,4615.65
17631.8,4553.15
17527.7,4551.94
17478.7,4556.77
17431.6,4571.06
17388.2,4594.28
17350.1,4625.52
17318.9,4663.59
17295.7,4707.02
17281.4,4754.14
17276.5,4803.15
12307.1,4803.15
11801,4297.1
11809.2,4255.64
11809.2,4144.36
11787.5,4035.21
11744.9,3932.39
11683.1,3839.86
11604.4,3761.17
11511.9,3699.34
11409.1,3656.75
11299.9,3635.04
11188.6,3635.04
11147.2,3643.29
10935.4,3431.48
10925.2,3419.08
10875.7,3378.46
10819.3,3348.29
10758,3329.7
10710.2,3325
13909.7,3325
14687.6,4102.9
14679.3,4144.36
14679.3,4255.64
14701,4364.79
14743.6,4467.61
14805.4,4560.14
14884.1,4638.83
14976.7,4700.66
15079.5,4743.25
15188.6,4764.96
15299.9,4764.96
15409.1,4743.25
15511.9,4700.66
15604.4,4638.83
15683.1,4560.14
15744.9,4467.61
15787.5,4364.79
15809.2,4255.64
15809.2,4144.36
15792.7,4061.2
15935.4,3918.52
15935.4,3918.52
16528.9,3325
19428.3,3325
19444.3,3326.57
19460.2,3325
19460.2,3325
19508,3320.3
19569.3,3301.71
19625.7,3271.54
19675.2,3230.92
19685.4,3218.52
20299.6,2604.33
20303.8,2604.33
20420.6,2581.11
20530.5,2535.55
20629.5,2469.41
20713.7,2385.24
20779.8,2286.26
20825.4,2176.28
20848.6,2059.52
20848.6,1940.48
20825.4,1823.72
20779.8,1713.74
20713.7,1614.76
20629.5,1530.59
20530.5,1464.45
20420.6,1418.89
20303.8,1395.67
20184.8,1395.67
20068,1418.89
19958,1464.45
19859,1530.59
19832.9,1556.74
19830.7,1549.54
19807.5,1506.1
19776.2,1468.04
19738.2,1436.8
19694.7,1413.58
19647.6,1399.29
19598.6,1394.46
18890,1394.46
18840.9,1399.29
18793.8,1413.58
18750.4,1436.8
18712.3,1468.04
18681.1,1506.1
18657.9,1549.54
18643.6,1596.66
18638.7,1645.67
18638.7,2354.33
18643.6,2403.34
18657.9,2450.46
18681.1,2493.9
18712.3,2531.96
18750.4,2563.2
18793.8,2586.42
18840.9,2600.71
18890,2605.54
19379.1,2605.54
19309.7,2675
17178.9,2675
17249.6,2604.33
17303.8,2604.33
17420.6,2581.11
17530.5,2535.55
17629.5,2469.41
17713.7,2385.24
17779.8,2286.26
17825.4,2176.28
17848.6,2059.52
17848.6,1940.48
17825.4,1823.72
17779.8,1713.74
17713.7,1614.76
17629.5,1530.59
17530.5,1464.45
17420.6,1418.89
17303.8,1395.67
17184.8,1395.67
17068,1418.89
16958,1464.45
16859,1530.59
16832.9,1556.74
16830.7,1549.54
16807.5,1506.1
16776.2,1468.04
16738.2,1436.8
16694.7,1413.58
16647.6,1399.29
16598.6,1394.46
15890,1394.46
15840.9,1399.29
15793.8,1413.58
15750.4,1436.8
15712.3,1468.04
15681.1,1506.1
15657.9,1549.54
15643.6,1596.66
15638.7,1645.67
15638.7,2354.33
15643.6,2403.34
15657.9,2450.46
15681.1,2493.9
15712.3,2531.96
15750.4,2563.2
15793.8,2586.42
15840.9,2600.71
15890,2605.54
16329.1,2605.54
16175.8,2758.9
16175.8,2758.9
16175.8,2758.9
16163.4,2769.08
16153.2,2781.48
15632.9,3301.71
15475.8,3458.9
15475.8,3458.9
15299.6,3635.04
15188.6,3635.04
15147.2,3643.29
14285.4,2781.48
14275.2,2769.08
14225.7,2728.46
14169.3,2698.29
14108,2679.7
14060.2,2675
14060.2,2675
14044.3,2673.43
14028.3,2675
10228.9,2675
10299.6,2604.33
10303.8,2604.33
10420.6,2581.11
10530.5,2535.55
10629.5,2469.41
10713.7,2385.24
10779.8,2286.26
10825.4,2176.28
10848.6,2059.52
10848.6,1940.48
10825.4,1823.72
10779.8,1713.74
10747.5,1665.35
12158.4,1665.35
12158.4,2334.65
12163.3,2383.65
12177.5,2430.78
12200.8,2474.21
12232,2512.28
12270.1,2543.52
12313.5,2566.73
12360.6,2581.03
12409.6,2585.86
13078.9,2585.86
13127.9,2581.03
13175.1,2566.73
13218.5,2543.52
13256.6,2512.28
13287.8,2474.21
13311,2430.78
13320.6,2399.03
13350.5,2432.12
13442.3,2500.65
13545.8,2549.93
13603.8,2567.51
13694.3,2519.75
13694.3,2050
13794.3,2050
13794.3,2519.75
13884.8,2567.51
13942.7,2549.93
14046.2,2500.65
14138.1,2432.12
14214.8,2346.99
14273.5,2248.52
14311.8,2140.51
14264.3,2050
13794.3,2050
13694.3,2050
13686.4,2050
13686.4,1950
13694.3,1950
13694.3,1480.25
13794.3,1480.25
13794.3,1950
14264.3,1950
14311.8,1859.49
14273.5,1751.48
14214.8,1653.01
14138.1,1567.88
14046.2,1499.35
13942.7,1450.07
13884.8,1432.49
13794.3,1480.25
13694.3,1480.25
13603.8,1432.49
13545.8,1450.07
13442.3,1499.35
13350.5,1567.88
13320.6,1600.97
13311,1569.22
13287.8,1525.79
13256.6,1487.72
13218.5,1456.48
13175.1,1433.27
13127.9,1418.97
13078.9,1414.14
12409.6,1414.14
12360.6,1418.97
12313.5,1433.27
12270.1,1456.48
12232,1487.72
12200.8,1525.79
12177.5,1569.22
12163.3,1616.35
12158.4,1665.35
10747.5,1665.35
10713.7,1614.76
10629.5,1530.59
10530.5,1464.45
10420.6,1418.89
10303.8,1395.67
10184.8,1395.67
10068,1418.89
9958.02,1464.45
9859.04,1530.59
9832.89,1556.74
9830.7,1549.54
9807.49,1506.1
9776.24,1468.04
9738.18,1436.8
9694.75,1413.58
9647.62,1399.29
9598.61,1394.46
8889.95,1394.46
8840.94,1399.29
8793.82,1413.58
8750.39,1436.8
8712.32,1468.04
8681.08,1506.1
8657.86,1549.54
8643.57,1596.66
8638.74,1645.67
8638.74,2354.33
8643.57,2403.34
8657.86,2450.46
8681.08,2493.9
8712.32,2531.96
8750.39,2563.2
8793.82,2586.42
8840.94,2600.71
8889.95,2605.54
9379.12,2605.54
9309.66,2675
8278.9,2675
7812.15,2208.25
7825.39,2176.28
7848.61,2059.52
7848.61,1940.48
7825.39,1823.72
7779.83,1713.74
7713.7,1614.76
7629.52,1530.59
7530.54,1464.45
7420.56,1418.89
7303.8,1395.67
7184.76,1395.67
7068.01,1418.89
6958.02,1464.45
6859.04,1530.59
6832.89,1556.74
6830.7,1549.54
6807.49,1506.1
6776.24,1468.04
6738.18,1436.8
6694.75,1413.58
6647.62,1399.29
6598.61,1394.46
5889.95,1394.46
5840.94,1399.29
5793.82,1413.58
5750.39,1436.8
5712.32,1468.04
5681.08,1506.1
5657.86,1549.54
5643.57,1596.66
5638.74,1645.67
5638.74,2354.33
5643.57,2403.34
5657.86,2450.46
5681.08,2493.9
5712.32,2531.96
5750.39,2563.2
5793.82,2586.42
5840.94,2600.71
5889.95,2605.54
6598.61,2605.54
6647.62,2600.71
6694.75,2586.42
6738.18,2563.2
6776.24,2531.96
6807.49,2493.9
6830.7,2450.46
6832.89,2443.26
6859.04,2469.41
6958.02,2535.55
7068.01,2581.11
7184.76,2604.33
7288.99,2604.33
7903.18,3218.52
7913.36,3230.92
7938.61,3251.64
7962.85,3271.54
7982.51,3282.05
8019.31,3301.71
8080.57,3320.3
8128.32,3325
7710.25,3325
7694.28,3323.43
7678.32,3325
7678.32,3325
7630.57,3329.7
7569.31,3348.29
7512.85,3378.46
7463.36,3419.08
7453.18,3431.48
6525.76,4358.9
6513.36,4369.08
6504.12,4380.33
6504.12,4012.76
6505.38,4000
6500.36,3949.06
6485.51,3900.08
6461.38,3854.94
6428.91,3815.37
6389.34,3782.9
6344.2,3758.78
6295.22,3743.92
6257.05,3740.16
6244.28,3738.9
6231.52,3740.16
5504.12,3740.16
5504.12,1512.71
5519.44,1356.48
5561.12,1218.42
5628.83,1091.09
5719.97,979.337
5831.09,887.415
5957.94,818.826
6095.7,776.18
6251.15,759.843
20231.6,759.843
Z" /> 
</g>
</g>
<g style="fill:#FFFFFF; fill-opacity:1.0; 
stroke:#FFFFFF; stroke-width:100; stroke-opacity:1; 
stroke-linecap:round; stroke-linejoin:round;">
</g>
<g style="fill:#FFFFFF; fill-opacity:1.0; 
stroke:#FFFFFF; stroke-width:0; stroke-opacity:1; 
stroke-linecap:round; stroke-linejoin:round;">
<circle cx="17744.3" cy="5000" r="147.638" /> 
</g>
<g style="fill:#FFFFFF; fill-opacity:1.0; 
stroke:#FFFFFF; stroke-width:39.3701; stroke-opacity:1; 
stroke-linecap:round; stroke-linejoin:round;">
</g>
<g style="fill:#FFFFFF; fill-opacity:1.0; 
stroke:#FFFFFF; stroke-width:0; stroke-opacity:1; 
stroke-linecap:round; stroke-linejoin:round;">
<circle cx="18744.3" cy="5000" r="147.638" /> 
</g>
<g style="fill:#FFFFFF; fill-opacity:1.0; 
stroke:#FFFFFF; stroke-width:39.3701; stroke-opacity:1; 
stroke-linecap:round; stroke-linejoin:round;">
</g>
<g style="fill:#FFFFFF; fill-opacity:1.0; 
stroke:#FFFFFF; stroke-width:0; stroke-opacity:1; 
stroke-linecap:round; stroke-linejoin:round;">
<circle cx="18244.3" cy="4500" r="147.638" /> 
</g>
<g style="fill:#FFFFFF; fill-opacity:1.0; 
stroke:#FFFFFF; stroke-width:39.3701; stroke-opacity:1; 
stroke-linecap:round; stroke-linejoin:round;">
</g>
<g style="fill:#FFFFFF; fill-opacity:1.0; 
stroke:#FFFFFF; stroke-width:0; stroke-opacity:1; 
stroke-linecap:round; stroke-linejoin:round;">
<circle cx="7744.28" cy="5000" r="147.638" /> 
</g>
<g style="fill:#FFFFFF; fill-opacity:1.0; 
stroke:#FFFFFF; stroke-width:39.3701; stroke-opacity:1; 
stroke-linecap:round; stroke-linejoin:round;">
</g>
<g style="fill:#FFFFFF; fill-opacity:1.0; 
stroke:#FFFFFF; stroke-width:0; stroke-opacity:1; 
stroke-linecap:round; stroke-linejoin:round;">
<circle cx="8744.28" cy="5000" r="147.638" /> 
</g>
<g style="fill:#FFFFFF; fill-opacity:1.0; 
stroke:#FFFFFF; stroke-width:39.3701; stroke-opacity:1; 
stroke-linecap:round; stroke-linejoin:round;">
</g>
<g style="fill:#FFFFFF; fill-opacity:1.0; 
stroke:#FFFFFF; stroke-width:0; stroke-opacity:1; 
stroke-linecap:round; stroke-linejoin:round;">
<circle cx="8244.28" cy="4500" r="147.638" /> 
</g>
<g style="fill:#FFFFFF; fill-opacity:1.0; 
stroke:#FFFFFF; stroke-width:39.3701; stroke-opacity:1; 
stroke-linecap:round; stroke-linejoin:round;">
</g>
<g style="fill:#FFFFFF; fill-opacity:1.0; 
stroke:#FFFFFF; stroke-width:0; stroke-opacity:1; 
stroke-linecap:round; stroke-linejoin:round;">
<circle cx="11744.3" cy="7484.25" r="157.48" /> 
</g>
<g style="fill:#FFFFFF; fill-opacity:1.0; 
stroke:#FFFFFF; stroke-width:39.3701; stroke-opacity:1; 
stroke-linecap:round; stroke-linejoin:round;">
</g>
<g style="fill:#FFFFFF; fill-opacity:1.0; 
stroke:#FFFFFF; stroke-width:0; stroke-opacity:1; 
stroke-linecap:round; stroke-linejoin:round;">
<circle cx="11744.3" cy="6500" r="157.48" /> 
</g>
<g style="fill:#FFFFFF; fill-opacity:1.0; 
stroke:#FFFFFF; stroke-width:39.3701; stroke-opacity:1; 
stroke-linecap:round; stroke-linejoin:round;">
</g>
<g style="fill:#FFFFFF; fill-opacity:1.0; 
stroke:#FFFFFF; stroke-width:0; stroke-opacity:1; 
stroke-linecap:round; stroke-linejoin:round;">
<circle cx="14744.3" cy="7484.25" r="157.48" /> 
</g>
<g style="fill:#FFFFFF; fill-opacity:1.0; 
stroke:#FFFFFF; stroke-width:39.3701; stroke-opacity:1; 
stroke-linecap:round; stroke-linejoin:round;">
</g>
<g style="fill:#FFFFFF; fill-opacity:1.0; 
stroke:#FFFFFF; stroke-width:0; stroke-opacity:1; 
stroke-linecap:round; stroke-linejoin:round;">
<circle cx="14744.3" cy="6500" r="157.48" /> 
</g>
<g style="fill:#FFFFFF; fill-opacity:1.0; 
stroke:#FFFFFF; stroke-width:39.3701; stroke-opacity:1; 
stroke-linecap:round; stroke-linejoin:round;">
</g>
<g style="fill:#FFFFFF; fill-opacity:1.0; 
stroke:#FFFFFF; stroke-width:0; stroke-opacity:1; 
stroke-linecap:round; stroke-linejoin:round;">
<circle cx="15244.3" cy="4200" r="157.48" /> 
</g>
<g style="fill:#FFFFFF; fill-opacity:1.0; 
stroke:#FFFFFF; stroke-width:39.3701; stroke-opacity:1; 
stroke-linecap:round; stroke-linejoin:round;">
</g>
<g style="fill:#FFFFFF; fill-opacity:1.0; 
stroke:#FFFFFF; stroke-width:0; stroke-opacity:1; 
stroke-linecap:round; stroke-linejoin:round;">
<circle cx="11244.3" cy="4200" r="157.48" /> 
</g>
<g style="fill:#FFFFFF; fill-opacity:1.0; 
stroke:#FFFFFF; stroke-width:39.3701; stroke-opacity:1; 
stroke-linecap:round; stroke-linejoin:round;">
</g>
<g style="fill:#FFFFFF; fill-opacity:1.0; 
stroke:#FFFFFF; stroke-width:0; stroke-opacity:1; 
stroke-linecap:round; stroke-linejoin:round;">
<circle cx="16744.3" cy="8000" r="157.48" /> 
</g>
<g style="fill:#FFFFFF; fill-opacity:1.0; 
stroke:#FFFFFF; stroke-width:39.3701; stroke-opacity:1; 
stroke-linecap:round; stroke-linejoin:round;">
</g>
<g style="fill:#FFFFFF; fill-opacity:1.0; 
stroke:#FFFFFF; stroke-width:0; stroke-opacity:1; 
stroke-linecap:round; stroke-linejoin:round;">
<circle cx="20744.3" cy="8000" r="157.48" /> 
</g>
<g style="fill:#FFFFFF; fill-opacity:1.0; 
stroke:#FFFFFF; stroke-width:39.3701; stroke-opacity:1; 
stroke-linecap:round; stroke-linejoin:round;">
</g>
<g style="fill:#FFFFFF; fill-opacity:1.0; 
stroke:#FFFFFF; stroke-width:0; stroke-opacity:1; 
stroke-linecap:round; stroke-linejoin:round;">
<circle cx="16744.3" cy="6500" r="157.48" /> 
</g>
<g style="fill:#FFFFFF; fill-opacity:1.0; 
stroke:#FFFFFF; stroke-width:39.3701; stroke-opacity:1; 
stroke-linecap:round; stroke-linejoin:round;">
</g>
<g style="fill:#FFFFFF; fill-opacity:1.0; 
stroke:#FFFFFF; stroke-width:0; stroke-opacity:1; 
stroke-linecap:round; stroke-linejoin:round;">
<circle cx="20744.3" cy="6500" r="157.48" /> 
</g>
<g style="fill:#FFFFFF; fill-opacity:1.0; 
stroke:#FFFFFF; stroke-width:39.3701; stroke-opacity:1; 
stroke-linecap:round; stroke-linejoin:round;">
</g>
<g style="fill:#FFFFFF; fill-opacity:1.0; 
stroke:#FFFFFF; stroke-width:0; stroke-opacity:1; 
stroke-linecap:round; stroke-linejoin:round;">
<circle cx="9744.28" cy="6500" r="157.48" /> 
</g>
<g style="fill:#FFFFFF; fill-opacity:1.0; 
stroke:#FFFFFF; stroke-width:39.3701; stroke-opacity:1; 
stroke-linecap:round; stroke-linejoin:round;">
</g>
<g style="fill:#FFFFFF; fill-opacity:1.0; 
stroke:#FFFFFF; stroke-width:0; stroke-opacity:1; 
stroke-linecap:round; stroke-linejoin:round;">
<circle cx="5744.28" cy="6500" r="157.48" /> 
</g>
<g style="fill:#FFFFFF; fill-opacity:1.0; 
stroke:#FFFFFF; stroke-width:39.3701; stroke-opacity:1; 
stroke-linecap:round; stroke-linejoin:round;">
</g>
<g style="fill:#FFFFFF; fill-opacity:1.0; 
stroke:#FFFFFF; stroke-width:0; stroke-opacity:1; 
stroke-linecap:round; stroke-linejoin:round;">
<circle cx="9744.28" cy="8000" r="157.48" /> 
</g>
<g style="fill:#FFFFFF; fill-opacity:1.0; 
stroke:#FFFFFF; stroke-width:39.3701; stroke-opacity:1; 
stroke-linecap:round; stroke-linejoin:round;">
</g>
<g style="fill:#FFFFFF; fill-opacity:1.0; 
stroke:#FFFFFF; stroke-width:0; stroke-opacity:1; 
stroke-linecap:round; stroke-linejoin:round;">
<circle cx="5744.28" cy="8000" r="157.48" /> 
</g>
<g style="fill:#FFFFFF; fill-opacity:1.0; 
stroke:#FFFFFF; stroke-width:39.3701; stroke-opacity:1; 
stroke-linecap:round; stroke-linejoin:round;">
</g>
<g style="fill:#FFFFFF; fill-opacity:1.0; 
stroke:#FFFFFF; stroke-width:0; stroke-opacity:1; 
stroke-linecap:round; stroke-linejoin:round;">
<circle cx="20244.3" cy="2000" r="177.165" /> 
</g>
<g style="fill:#FFFFFF; fill-opacity:1.0; 
stroke:#FFFFFF; stroke-width:39.3701; stroke-opacity:1; 
stroke-linecap:round; stroke-linejoin:round;">
</g>
<g style="fill:#FFFFFF; fill-opacity:1.0; 
stroke:#FFFFFF; stroke-width:0; stroke-opacity:1; 
stroke-linecap:round; stroke-linejoin:round;">
<circle cx="19244.3" cy="2000" r="177.165" /> 
</g>
<g style="fill:#FFFFFF; fill-opacity:1.0; 
stroke:#FFFFFF; stroke-width:39.3701; stroke-opacity:1; 
stroke-linecap:round; stroke-linejoin:round;">
</g>
<g style="fill:#FFFFFF; fill-opacity:1.0; 
stroke:#FFFFFF; stroke-width:0; stroke-opacity:1; 
stroke-linecap:round; stroke-linejoin:round;">
<circle cx="17244.3" cy="2000" r="177.165" /> 
</g>
<g style="fill:#FFFFFF; fill-opacity:1.0; 
stroke:#FFFFFF; stroke-width:39.3701; stroke-opacity:1; 
stroke-linecap:round; stroke-linejoin:round;">
</g>
<g style="fill:#FFFFFF; fill-opacity:1.0; 
stroke:#FFFFFF; stroke-width:0; stroke-opacity:1; 
stroke-linecap:round; stroke-linejoin:round;">
<circle cx="16244.3" cy="2000" r="177.165" /> 
</g>
<g style="fill:#FFFFFF; fill-opacity:1.0; 
stroke:#FFFFFF; stroke-width:39.3701; stroke-opacity:1; 
stroke-linecap:round; stroke-linejoin:round;">
</g>
<g style="fill:#FFFFFF; fill-opacity:1.0; 
stroke:#FFFFFF; stroke-width:0; stroke-opacity:1; 
stroke-linecap:round; stroke-linejoin:round;">
<circle cx="10244.3" cy="2000" r="177.165" /> 
</g>
<g style="fill:#FFFFFF; fill-opacity:1.0; 
stroke:#FFFFFF; stroke-width:39.3701; stroke-opacity:1; 
stroke-linecap:round; stroke-linejoin:round;">
</g>
<g style="fill:#FFFFFF; fill-opacity:1.0; 
stroke:#FFFFFF; stroke-width:0; stroke-opacity:1; 
stroke-linecap:round; stroke-linejoin:round;">
<circle cx="9244.28" cy="2000" r="177.165" /> 
</g>
<g style="fill:#FFFFFF; fill-opacity:1.0; 
stroke:#FFFFFF; stroke-width:39.3701; stroke-opacity:1; 
stroke-linecap:round; stroke-linejoin:round;">
</g>
<g style="fill:#FFFFFF; fill-opacity:1.0; 
stroke:#FFFFFF; stroke-width:0; stroke-opacity:1; 
stroke-linecap:round; stroke-linejoin:round;">
<circle cx="7244.28" cy="2000" r="177.165" /> 
</g>
<g style="fill:#FFFFFF; fill-opacity:1.0; 
stroke:#FFFFFF; stroke-width:39.3701; stroke-opacity:1; 
stroke-linecap:round; stroke-linejoin:round;">
</g>
<g style="fill:#FFFFFF; fill-opacity:1.0; 
stroke:#FFFFFF; stroke-width:0; stroke-opacity:1; 
stroke-linecap:round; stroke-linejoin:round;">
<circle cx="6244.28" cy="2000" r="177.165" /> 
</g>
<g style="fill:#FFFFFF; fill-opacity:1.0; 
stroke:#FFFFFF; stroke-width:39.3701; stroke-opacity:1; 
stroke-linecap:round; stroke-linejoin:round;">
</g>
<g style="fill:#FFFFFF; fill-opacity:1.0; 
stroke:#FFFFFF; stroke-width:0; stroke-opacity:1; 
stroke-linecap:round; stroke-linejoin:round;">
<circle cx="13744.3" cy="2000" r="196.85" /> 
</g>
<g style="fill:#FFFFFF; fill-opacity:1.0; 
stroke:#FFFFFF; stroke-width:39.3701; stroke-opacity:1; 
stroke-linecap:round; stroke-linejoin:round;">
</g>
<g style="fill:#FFFFFF; fill-opacity:1.0; 
stroke:#FFFFFF; stroke-width:0; stroke-opacity:1; 
stroke-linecap:round; stroke-linejoin:round;">
<circle cx="12744.3" cy="2000" r="196.85" /> 
</g>
<g style="fill:#FFFFFF; fill-opacity:1.0; 
stroke:#FFFFFF; stroke-width:39.3701; stroke-opacity:1; 
stroke-linecap:round; stroke-linejoin:round;">
</g>
<g style="fill:#000000; fill-opacity:1.0; 
stroke:#000000; stroke-width:39.3701; stroke-opacity:1; 
stroke-linecap:round; stroke-linejoin:round;">
</g>
<g style="fill:#C2C200; fill-opacity:1.0; 
stroke:#C2C200; stroke-width:39.3701; stroke-opacity:1; 
stroke-linecap:round; stroke-linejoin:round;">
</g>
<g style="fill:#C2C200; fill-opacity:0.0; 
stroke:#C2C200; stroke-width:19.685; stroke-opacity:1; 
stroke-linecap:round; stroke-linejoin:round;">
<circle cx="5244.28" cy="9000" r="262.467" /> 
<path d="M4850 9000
L5637 9000
" />
<path d="M5244 8606
L5244 9393
" />
<path d="M5244 4000
L5244 1500
" />
<path d="M6244 4000
L5244 4000
" />
<path d="M6244 5500
L6244 4000
" />
<path d="M5244 5500
L6244 5500
" />
<path d="M5244 8000
L5244 5500
" />
<path d="M21244 5500
L21244 8000
" />
<path d="M20244 5500
L21244 5500
" />
<path d="M20244 4000
L20244 5500
" />
<path d="M21244 4000
L20244 4000
" />
<path d="M21244 1500
L21244 4000
" />
<path d="M20244.3 9000 A1000 1000 0.0 0 0 21244.3 8000" />
<path d="M5244.28 8000 A1000 1000 0.0 0 0 6244.28 9000" />
<path d="M6244.28 500 A1000 1000 0.0 0 0 5244.28 1500" />
<path d="M21244.3 1500 A1000 1000 0.0 0 0 20244.3 500" />
<path d="M20244 9000
L6244 9000
" />
<path d="M6244 500
L20244 500
" />
<g >
</g>
<g >
</g>
<g >
</g>
<g >
</g>
<g >
</g>
<g >
</g>
<g >
</g>
<g >
</g>
<g >
</g>
<g >
</g>
<g >
</g>
<g >
</g>
<g >
</g>
<g >
</g>
<g >
</g>
<g >
</g>
<g >
</g>
<g >
</g>
<g >
</g>
</g> 
</svg>
