<?xml version="1.0" encoding="UTF-8" standalone="no"?>
<svg
   xmlns:dc="http://purl.org/dc/elements/1.1/"
   xmlns:cc="http://creativecommons.org/ns#"
   xmlns:rdf="http://www.w3.org/1999/02/22-rdf-syntax-ns#"
   xmlns:svg="http://www.w3.org/2000/svg"
   xmlns="http://www.w3.org/2000/svg"
   xmlns:xlink="http://www.w3.org/1999/xlink"
   xmlns:sodipodi="http://sodipodi.sourceforge.net/DTD/sodipodi-0.dtd"
   xmlns:inkscape="http://www.inkscape.org/namespaces/inkscape"
   sodipodi:docname="CardBack.svg"
   inkscape:version="1.0 (4035a4fb49, 2020-05-01)"
   width="8.5in"
   height="11in"
   viewBox="0 0 215.9 279.40001"
   version="1.1"
   id="svg8">
  <defs
     id="defs2" />
  <sodipodi:namedview
     inkscape:snap-grids="false"
     id="base"
     pagecolor="#ffffff"
     bordercolor="#666666"
     borderopacity="1.0"
     inkscape:pageopacity="0.0"
     inkscape:pageshadow="2"
     inkscape:zoom="1.4"
     inkscape:cx="380.18697"
     inkscape:cy="381.54675"
     inkscape:document-units="in"
     inkscape:current-layer="layer1"
     inkscape:document-rotation="0"
     showgrid="true"
     units="in"
     inkscape:snap-text-baseline="true"
     showguides="false"
     inkscape:window-width="1920"
     inkscape:window-height="1025"
     inkscape:window-x="0"
     inkscape:window-y="26"
     inkscape:window-maximized="1"
     inkscape:snap-bbox="false"
     inkscape:snap-nodes="true"
     inkscape:bbox-nodes="true">
    <inkscape:grid
       type="xygrid"
       id="grid833"
       units="in"
       spacingx="12.7"
       spacingy="12.7"
       empspacing="0"
       originx="6.3500001"
       originy="6.3500001" />
    <inkscape:grid
       type="xygrid"
       id="grid835"
       empspacing="0"
       spacingx="3.1750001"
       spacingy="3.1750001"
       empcolor="#ff443f"
       empopacity="0.25098039"
       originx="6.3500001"
       originy="6.3500001"
       units="in" />
  </sodipodi:namedview>
  <metadata
     id="metadata5">
    <rdf:RDF>
      <cc:Work
         rdf:about="">
        <dc:format>image/svg+xml</dc:format>
        <dc:type
           rdf:resource="http://purl.org/dc/dcmitype/StillImage" />
        <dc:title />
      </cc:Work>
    </rdf:RDF>
  </metadata>
  <g
     inkscape:label="Layer 1"
     inkscape:groupmode="layer"
     id="layer1">
    <g
       id="g1914">
      <rect
         y="6.3500004"
         x="6.3500004"
         height="63.5"
         width="101.6"
         id="rect837"
         style="fill:none;fill-opacity:1;stroke:#000000;stroke-width:0.498775;stroke-miterlimit:4;stroke-dasharray:none;stroke-opacity:1" />
      <text
         transform="translate(-3.90425e-4)"
         id="text929"
         y="12.700001"
         x="9.5250006"
         style="font-style:italic;font-variant:normal;font-weight:200;font-stretch:normal;font-size:5.64444px;line-height:1;font-family:'Noto Sans';-inkscape-font-specification:'Noto Sans Ultra-Light Italic';letter-spacing:0px;word-spacing:0px;white-space:pre;inline-size:95.25;stroke-width:0.264583"
         xml:space="preserve"><tspan
           x="9.5250006"
           y="12.700001"><tspan
             style="font-style:italic;font-variant:normal;font-weight:200;font-stretch:normal;font-size:5.64444px;font-family:'Noto Sans';-inkscape-font-specification:'Noto Sans Ultra-Light Italic';stroke-width:0.264583">The instructions could be found online </tspan></tspan><tspan
           x="9.5250006"
           y="18.344442"><tspan
             style="font-style:italic;font-variant:normal;font-weight:200;font-stretch:normal;font-size:5.64444px;font-family:'Noto Sans';-inkscape-font-specification:'Noto Sans Ultra-Light Italic';stroke-width:0.264583">at: </tspan><tspan
             style="font-style:italic;font-variant:normal;font-weight:normal;font-stretch:semi-condensed;font-size:5.64444px;font-family:'Noto Sans';-inkscape-font-specification:'Noto Sans Italic Semi-Condensed'">www.kits.electro707.com/blinky_lights</tspan></tspan></text>
      <g
         inkscape:label="Layer 1"
         id="layer1-3"
         transform="matrix(0.21042727,0,0,0.21042727,82.952075,39.777097)"
         style="fill:#000000;fill-opacity:1">
        <g
           id="g1079"
           transform="translate(58.575198,21.692638)"
           style="fill:#000000;fill-opacity:1">
          <path
             id="path843-9"
             style="fill:#000000;fill-opacity:1;stroke:#000000;stroke-width:1.00157;stroke-linecap:butt;stroke-linejoin:miter;stroke-miterlimit:4;stroke-dasharray:none;stroke-opacity:1"
             d="m 94.488281,75.589844 c -7.559059,-4e-6 -37.794922,4.46e-4 -37.794922,56.693356 0,56.69292 30.235863,56.69336 37.794922,56.69336 7.559059,0 37.794909,-4.4e-4 37.794919,-56.69336 1e-5,-56.69291 -30.23587,-56.693352 -37.794919,-56.693356 z m 0,18.898437 c 3.779532,-1.1e-5 18.898439,-3.61e-4 18.898439,37.794919 0,37.79528 -15.118907,37.79493 -18.898439,37.79492 -3.779531,0 -18.898437,3.6e-4 -18.898437,-37.79492 0,-37.79528 15.118906,-37.794907 18.898437,-37.794919 z"
             transform="matrix(0.26458333,0,0,0.26458333,3e-6,56)" />
          <path
             id="path851-0"
             style="fill:#000000;fill-opacity:1;stroke:#000000;stroke-width:0.265;stroke-linecap:butt;stroke-linejoin:miter;stroke-miterlimit:4;stroke-dasharray:none;stroke-opacity:1"
             d="m 5.000003,60.999999 2.09e-4,10.999813 c 0.999999,3 6.999571,23.999992 6.999572,33.999998 h 4.000273 c -1e-6,-10.000006 -4.000211,-26.999725 -5.000212,-29.999725 h 9.999907 V 71.999812 H 9.999906 L 10,64.999999 h 13 v 4.999999 h 3.999999 V 64.999999 H 40 l 1.43e-4,6.999813 H 28.999781 v 4.000273 h 10.000423 c -0.999998,3 -5.00021,19.999719 -5.00021,29.999715 h 3.999754 c 2e-6,-9.999996 6.000091,-30.999988 7.000089,-33.999988 l 1.64e-4,-10.999813 z"
             sodipodi:nodetypes="ccccccccccccccccccccccc" />
        </g>
      </g>
      <g
         inkscape:label="QR Code: https://www.kits.electro707.com/blinky_lights"
         transform="matrix(0.39413794,0,0,0.39413794,27.983792,16.144783)"
         id="g2471">
        <g
           style="fill:#000000;stroke:none"
           id="g2469">
          <path
             d="m 119.6,132 h -7.2 c -0.22091,0 -0.4,-0.17909 -0.4,-0.4 V 128 h 3.6 c 0.22091,0 0.4,-0.17909 0.4,-0.4 V 124 h 3.6 c 0.22091,0 0.4,-0.17909 0.4,-0.4 v -3.2 c 0,-0.22091 0.17909,-0.4 0.4,-0.4 h 7.2 c 0.22091,0 0.4,-0.17909 0.4,-0.4 v -3.2 c 0,-0.22091 0.17909,-0.4 0.4,-0.4 h 3.2 c 0.22091,0 0.4,0.17909 0.4,0.4 v 11.2 c 0,0.22091 -0.17909,0.4 -0.4,0.4 h -3.2 c -0.22091,0 -0.4,-0.17909 -0.4,-0.4 v -3.2 c 0,-0.22091 -0.17909,-0.4 -0.4,-0.4 h -3.2 c -0.22091,0 -0.4,0.17909 -0.4,0.4 v 3.2 c 0,0.22091 -0.17909,0.4 -0.4,0.4 h -3.2 c -0.22091,0 -0.4,0.17909 -0.4,0.4 v 3.2 c 0,0.22091 -0.17909,0.4 -0.4,0.4 z m -12,0 h -3.2 c -0.22091,0 -0.4,-0.17909 -0.4,-0.4 v -7.2 c 0,-0.22091 0.17909,-0.4 0.4,-0.4 h 3.2 c 0.22091,0 0.4,-0.17909 0.4,-0.4 v -7.2 c 0,-0.22091 -0.17909,-0.4 -0.4,-0.4 h -3.2 c -0.22091,0 -0.4,0.17909 -0.4,0.4 v 3.2 c 0,0.22091 -0.17909,0.4 -0.4,0.4 H 100 v -3.6 c 0,-0.22091 -0.179086,-0.4 -0.4,-0.4 h -3.2 c -0.220914,0 -0.4,0.17909 -0.4,0.4 v 3.6 h -3.6 c -0.220914,0 -0.4,0.17909 -0.4,0.4 v 3.2 c 0,0.22091 -0.179086,0.4 -0.4,0.4 H 84.4 C 84.179086,124 84,123.82091 84,123.6 V 120 h 3.6 c 0.220914,0 0.4,-0.17909 0.4,-0.4 v -3.2 c 0,-0.22091 0.179086,-0.4 0.4,-0.4 h 3.2 c 0.220914,0 0.4,-0.17909 0.4,-0.4 v -3.2 C 92,112.17909 91.820914,112 91.6,112 H 84 v -4 h 7.6 c 0.220914,0 0.4,-0.17909 0.4,-0.4 V 104 h 3.6 c 0.220914,0 0.4,-0.17909 0.4,-0.4 v -3.2 c 0,-0.22091 -0.179086,-0.4 -0.4,-0.4 h -3.2 c -0.220914,0 -0.4,0.17909 -0.4,0.4 v 3.6 h -7.6 c -0.220914,0 -0.4,0.17909 -0.4,0.4 v 3.6 h -8 v -3.6 C 76,104.17909 75.820914,104 75.6,104 H 72 v -8 h 4 v 3.6 c 0,0.220914 0.179086,0.4 0.4,0.4 h 3.2 c 0.220914,0 0.4,-0.179086 0.4,-0.4 V 96.4 C 80,96.179086 79.820914,96 79.6,96 H 76 V 92.4 C 76,92.179086 75.820914,92 75.6,92 H 72.4 C 72.179086,92 72,92.179086 72,92.4 V 96 H 68 V 92.4 C 68,92.179086 67.820914,92 67.6,92 H 64 v -4 h 3.6 C 67.820914,88 68,87.820914 68,87.6 V 84.4 C 68,84.179086 67.820914,84 67.6,84 H 64.4 C 64.179086,84 64,84.179086 64,84.4 V 88 H 52.4 C 52.179086,88 52,88.179086 52,88.4 v 3.2 C 52,91.820914 51.820914,92 51.6,92 H 48.4 C 48.179086,92 48,91.820914 48,91.6 V 84 h 3.6 C 51.820914,84 52,83.820914 52,83.6 V 80.4 C 52,80.179086 51.820914,80 51.6,80 H 48.4 C 48.179086,80 48,80.179086 48,80.4 V 84 H 40.4 C 40.179086,84 40,84.179086 40,84.4 V 88 H 28 V 80.4 C 28,80.179086 28.179086,80 28.4,80 H 32 v 3.6 c 0,0.220914 0.179086,0.4 0.4,0.4 h 3.2 C 35.820914,84 36,83.820914 36,83.6 V 80.4 C 36,80.179086 35.820914,80 35.6,80 H 32 V 76.4 C 32,76.179086 31.820914,76 31.6,76 H 24.4 C 24.179086,76 24,76.179086 24,76.4 v 7.2 C 24,83.820914 23.820914,84 23.6,84 H 20.4 C 20.179086,84 20,84.179086 20,84.4 v 3.2 c 0,0.220914 0.179086,0.4 0.4,0.4 H 28 v 4 H 24.4 C 24.179086,92 24,92.179086 24,92.4 v 3.2 c 0,0.220914 0.179086,0.4 0.4,0.4 H 28 v 3.6 c 0,0.220914 -0.179086,0.4 -0.4,0.4 H 16.4 C 16.179086,100 16,99.820914 16,99.6 V 76.4 C 16,76.179086 16.179086,76 16.4,76 h 3.2 C 19.820914,76 20,75.820914 20,75.6 V 72 h 16 v 3.6 c 0,0.220914 0.179086,0.4 0.4,0.4 H 40 v 3.6 c 0,0.220914 0.179086,0.4 0.4,0.4 h 3.2 C 43.820914,80 44,79.820914 44,79.6 V 76.4 C 44,76.179086 43.820914,76 43.6,76 H 40 V 72 H 55.6 C 55.820914,72 56,71.820914 56,71.6 V 68.4 C 56,68.179086 55.820914,68 55.6,68 H 48.4 C 48.179086,68 48,67.820914 48,67.6 V 56.4 C 48,56.179086 48.179086,56 48.4,56 H 56 v 3.6 C 56,59.820914 55.820914,60 55.6,60 H 52.4 C 52.179086,60 52,60.179086 52,60.4 v 3.2 c 0,0.220914 0.179086,0.4 0.4,0.4 h 7.2 c 0.220914,0 0.4,0.179086 0.4,0.4 V 75.6 C 60,75.820914 59.820914,76 59.6,76 H 56.4 C 56.179086,76 56,76.179086 56,76.4 v 7.2 c 0,0.220914 0.179086,0.4 0.4,0.4 h 3.2 C 59.820914,84 60,83.820914 60,83.6 V 80.4 C 60,80.179086 60.179086,80 60.4,80 h 3.2 C 63.820914,80 64,79.820914 64,79.6 V 76.4 C 64,76.179086 64.179086,76 64.4,76 H 68 v 3.6 c 0,0.220914 0.179086,0.4 0.4,0.4 H 72 v 7.6 c 0,0.220914 0.179086,0.4 0.4,0.4 h 3.2 C 75.820914,88 76,87.820914 76,87.6 V 80.4 C 76,80.179086 75.820914,80 75.6,80 H 72 V 76.4 C 72,76.179086 71.820914,76 71.6,76 H 68 v -4 h 3.6 C 71.820914,72 72,71.820914 72,71.6 V 68.4 C 72,68.179086 72.179086,68 72.4,68 h 7.2 C 79.820914,68 80,67.820914 80,67.6 V 64.4 C 80,64.179086 80.179086,64 80.4,64 H 84 V 79.6 C 84,79.820914 83.820914,80 83.6,80 H 80.4 C 80.179086,80 80,80.179086 80,80.4 v 11.2 c 0,0.220914 0.179086,0.4 0.4,0.4 h 3.2 c 0.220914,0 0.4,0.179086 0.4,0.4 v 3.2 c 0,0.220914 0.179086,0.4 0.4,0.4 h 7.2 C 91.820914,96 92,95.820914 92,95.6 V 84.4 C 92,84.179086 91.820914,84 91.6,84 H 88 V 72.4 C 88,72.179086 88.179086,72 88.4,72 h 7.2 c 0.220914,0 0.4,0.179086 0.4,0.4 v 3.2 C 96,75.820914 95.820914,76 95.6,76 H 92.4 C 92.179086,76 92,76.179086 92,76.4 v 3.2 c 0,0.220914 0.179086,0.4 0.4,0.4 h 7.6 v 3.6 c 0,0.220914 0.17909,0.4 0.4,0.4 h 3.2 c 0.22091,0 0.4,0.179086 0.4,0.4 V 88 H 96.4 C 96.179086,88 96,88.179086 96,88.4 v 7.2 c 0,0.220914 0.179086,0.4 0.4,0.4 h 11.2 c 0.22091,0 0.4,-0.179086 0.4,-0.4 V 92 h 7.6 c 0.22091,0 0.4,-0.179086 0.4,-0.4 V 88 h 4 v 3.6 c 0,0.220914 0.17909,0.4 0.4,0.4 h 3.2 c 0.22091,0 0.4,0.179086 0.4,0.4 v 3.2 c 0,0.220914 0.17909,0.4 0.4,0.4 h 3.2 c 0.22091,0 0.4,0.179086 0.4,0.4 v 3.2 c 0,0.220914 -0.17909,0.4 -0.4,0.4 h -7.2 c -0.22091,0 -0.4,0.17909 -0.4,0.4 v 7.2 c 0,0.22091 -0.17909,0.4 -0.4,0.4 h -3.2 c -0.22091,0 -0.4,0.17909 -0.4,0.4 v 3.2 c 0,0.22091 0.17909,0.4 0.4,0.4 h 3.2 c 0.22091,0 0.4,0.17909 0.4,0.4 v 3.2 c 0,0.22091 -0.17909,0.4 -0.4,0.4 h -7.2 c -0.22091,0 -0.4,0.17909 -0.4,0.4 v 3.2 c 0,0.22091 0.17909,0.4 0.4,0.4 h 3.2 c 0.22091,0 0.4,0.17909 0.4,0.4 v 3.6 h -3.6 c -0.22091,0 -0.4,0.17909 -0.4,0.4 v 3.6 h -3.6 c -0.22091,0 -0.4,0.17909 -0.4,0.4 v 3.2 c 0,0.22091 -0.17909,0.4 -0.4,0.4 z m -8,0 h -3.2 c -0.220914,0 -0.4,-0.17909 -0.4,-0.4 v -3.2 c 0,-0.22091 0.179086,-0.4 0.4,-0.4 h 3.2 c 0.220914,0 0.4,0.17909 0.4,0.4 v 3.2 c 0,0.22091 -0.179086,0.4 -0.4,0.4 z m -28,0 h -3.2 c -0.220914,0 -0.4,-0.17909 -0.4,-0.4 v -3.2 c 0,-0.22091 0.179086,-0.4 0.4,-0.4 H 72 v 3.6 c 0,0.22091 -0.179086,0.4 -0.4,0.4 z m -8,0 H 48.4 c -0.220914,0 -0.4,-0.17909 -0.4,-0.4 v -7.2 c 0,-0.22091 0.179086,-0.4 0.4,-0.4 h 3.2 c 0.220914,0 0.4,0.17909 0.4,0.4 v 3.2 c 0,0.22091 0.179086,0.4 0.4,0.4 h 11.2 c 0.220914,0 0.4,0.17909 0.4,0.4 v 3.2 c 0,0.22091 -0.179086,0.4 -0.4,0.4 z m -20,0 H 16.4 c -0.220914,0 -0.4,-0.17909 -0.4,-0.4 v -27.2 c 0,-0.22091 0.179086,-0.4 0.4,-0.4 h 27.2 c 0.220914,0 0.4,0.17909 0.4,0.4 v 27.2 c 0,0.22091 -0.179086,0.4 -0.4,0.4 z m 36,-4 H 72 v -4 h 3.6 c 0.220914,0 0.4,-0.17909 0.4,-0.4 v -3.2 C 76,120.17909 75.820914,120 75.6,120 H 72 v -3.6 c 0,-0.22091 0.179086,-0.4 0.4,-0.4 h 7.2 c 0.220914,0 0.4,-0.17909 0.4,-0.4 v -3.2 c 0,-0.22091 0.179086,-0.4 0.4,-0.4 H 84 v 8 h -3.6 c -0.220914,0 -0.4,0.17909 -0.4,0.4 v 7.2 c 0,0.22091 -0.179086,0.4 -0.4,0.4 z M 40,127.6 V 108.4 C 40,108.17909 39.820914,108 39.6,108 H 20.4 c -0.220914,0 -0.4,0.17909 -0.4,0.4 v 19.2 c 0,0.22091 0.179086,0.4 0.4,0.4 h 19.2 c 0.220914,0 0.4,-0.17909 0.4,-0.4 z M 99.6,124 H 96.4 C 96.179086,124 96,123.82091 96,123.6 V 120 h 4 v 3.6 c 0,0.22091 -0.179086,0.4 -0.4,0.4 z m -28,0 H 64.4 C 64.179086,124 64,123.82091 64,123.6 V 120 h 8 v 4 z m -12,0 h -3.2 c -0.220914,0 -0.4,-0.17909 -0.4,-0.4 v -3.2 c 0,-0.22091 0.179086,-0.4 0.4,-0.4 H 60 v 3.6 c 0,0.22091 -0.179086,0.4 -0.4,0.4 z m -24,0 H 24.4 c -0.220914,0 -0.4,-0.17909 -0.4,-0.4 v -11.2 c 0,-0.22091 0.179086,-0.4 0.4,-0.4 h 11.2 c 0.220914,0 0.4,0.17909 0.4,0.4 v 11.2 c 0,0.22091 -0.179086,0.4 -0.4,0.4 z m 28,-4 H 60 v -3.6 c 0,-0.22091 -0.179086,-0.4 -0.4,-0.4 h -7.2 c -0.220914,0 -0.4,0.17909 -0.4,0.4 v 3.2 c 0,0.22091 -0.179086,0.4 -0.4,0.4 h -3.2 c -0.220914,0 -0.4,-0.17909 -0.4,-0.4 v -7.2 c 0,-0.22091 0.179086,-0.4 0.4,-0.4 h 7.2 c 0.220914,0 0.4,-0.17909 0.4,-0.4 V 104 h 8 v 4 h -3.6 c -0.220914,0 -0.4,0.17909 -0.4,0.4 v 3.2 c 0,0.22091 0.179086,0.4 0.4,0.4 H 64 v 8 z m 68,-8 h -7.2 c -0.22091,0 -0.4,-0.17909 -0.4,-0.4 v -3.2 c 0,-0.22091 0.17909,-0.4 0.4,-0.4 h 7.2 c 0.22091,0 0.4,0.17909 0.4,0.4 v 3.2 c 0,0.22091 -0.17909,0.4 -0.4,0.4 z M 112,111.6 v -11.2 c 0,-0.22091 -0.17909,-0.4 -0.4,-0.4 h -11.2 c -0.22091,0 -0.4,0.17909 -0.4,0.4 v 11.2 c 0,0.22091 0.17909,0.4 0.4,0.4 h 11.2 c 0.22091,0 0.4,-0.17909 0.4,-0.4 z M 75.6,112 H 72.4 C 72.179086,112 72,111.82091 72,111.6 V 108 h 4 v 3.6 c 0,0.22091 -0.179086,0.4 -0.4,0.4 z m -8,0 H 64 v -4 h 4 v 3.6 c 0,0.22091 -0.179086,0.4 -0.4,0.4 z m 40,-4 h -3.2 c -0.22091,0 -0.4,-0.17909 -0.4,-0.4 v -3.2 c 0,-0.22091 0.17909,-0.4 0.4,-0.4 h 3.2 c 0.22091,0 0.4,0.17909 0.4,0.4 v 3.2 c 0,0.22091 -0.17909,0.4 -0.4,0.4 z m -36,0 H 68 v -4 h 4 v 4 z m -4,-4 H 64 v -3.6 C 64,100.17909 63.820914,100 63.6,100 H 60.4 C 60.179086,100 60,99.820914 60,99.6 V 96.4 C 60,96.179086 59.820914,96 59.6,96 H 56 V 92.4 C 56,92.179086 56.179086,92 56.4,92 H 64 v 3.6 c 0,0.220914 0.179086,0.4 0.4,0.4 H 68 v 8 z m -12,0 h -7.2 c -0.220914,0 -0.4,-0.17909 -0.4,-0.4 v -3.2 C 48,100.17909 47.820914,100 47.6,100 H 40.4 C 40.179086,100 40,99.820914 40,99.6 V 96.4 C 40,96.179086 40.179086,96 40.4,96 H 56 v 8 z m -24,-8 H 28 v -4 h 3.6 c 0.220914,0 0.4,0.179086 0.4,0.4 v 3.2 c 0,0.220914 -0.179086,0.4 -0.4,0.4 z m 100,-4 h -3.2 C 128.17909,92 128,91.820914 128,91.6 V 88 h 3.6 c 0.22091,0 0.4,0.179086 0.4,0.4 v 3.2 c 0,0.220914 -0.17909,0.4 -0.4,0.4 z m -24,0 h -3.2 C 104.17909,92 104,91.820914 104,91.6 V 88 h 3.6 c 0.22091,0 0.4,0.179086 0.4,0.4 V 92 Z m -64,0 H 40.4 C 40.179086,92 40,91.820914 40,91.6 V 88 h 3.6 c 0.220914,0 0.4,0.179086 0.4,0.4 v 3.2 c 0,0.220914 -0.179086,0.4 -0.4,0.4 z m 84,-4 H 120 v -4 h 7.6 c 0.22091,0 0.4,0.179086 0.4,0.4 V 88 Z m -12,0 h -3.2 c -0.22091,0 -0.4,-0.179086 -0.4,-0.4 v -3.2 c 0,-0.220914 0.17909,-0.4 0.4,-0.4 h 3.6 v 4 z m -28,0 H 84.4 C 84.179086,88 84,87.820914 84,87.6 V 84.4 C 84,84.179086 84.179086,84 84.4,84 H 88 v 3.6 c 0,0.220914 -0.179086,0.4 -0.4,0.4 z m 32,-4 H 116 v -4 h 4 v 4 z m 12,-4 h -3.2 c -0.22091,0 -0.4,-0.179086 -0.4,-0.4 v -7.2 c 0,-0.220914 -0.17909,-0.4 -0.4,-0.4 h -3.2 c -0.22091,0 -0.4,0.179086 -0.4,0.4 v 7.2 c 0,0.220914 -0.17909,0.4 -0.4,0.4 H 120 V 72.4 C 120,72.179086 119.82091,72 119.6,72 H 112 v -4 h 15.6 c 0.22091,0 0.4,-0.179086 0.4,-0.4 v -7.2 c 0,-0.220914 0.17909,-0.4 0.4,-0.4 h 3.2 c 0.22091,0 0.4,0.179086 0.4,0.4 v 19.2 c 0,0.220914 -0.17909,0.4 -0.4,0.4 z m -16,0 H 100 v -7.6 c 0,-0.220914 0.17909,-0.4 0.4,-0.4 h 3.6 v 3.6 c 0,0.220914 0.17909,0.4 0.4,0.4 h 3.2 c 0.22091,0 0.4,-0.179086 0.4,-0.4 V 72 h 4 v 3.6 c 0,0.220914 0.17909,0.4 0.4,0.4 h 3.2 c 0.22091,0 0.4,0.179086 0.4,0.4 V 80 Z m -8,-8 H 104 v -8 h 7.6 c 0.22091,0 0.4,0.179086 0.4,0.4 V 68 h -3.6 c -0.22091,0 -0.4,0.179086 -0.4,0.4 V 72 Z m -40,0 H 64.4 C 64.179086,72 64,71.820914 64,71.6 V 68.4 C 64,68.179086 64.179086,68 64.4,68 h 3.2 c 0.220914,0 0.4,0.179086 0.4,0.4 V 72 Z m -28,0 H 36 V 68.4 C 36,68.179086 36.179086,68 36.4,68 H 40 v 4 z m -20,0 H 16.4 C 16.179086,72 16,71.820914 16,71.6 V 68.4 C 16,68.179086 16.179086,68 16.4,68 h 3.2 c 0.220914,0 0.4,0.179086 0.4,0.4 V 72 Z m 80,-4 H 88.4 C 88.179086,68 88,67.820914 88,67.6 V 64 h 7.6 C 95.820914,64 96,63.820914 96,63.6 V 60.4 C 96,60.179086 96.179086,60 96.4,60 h 3.2 c 0.220914,0 0.4,-0.179086 0.4,-0.4 v -3.2 c 0,-0.220914 0.17909,-0.4 0.4,-0.4 h 7.2 c 0.22091,0 0.4,-0.179086 0.4,-0.4 V 52 h 7.6 c 0.22091,0 0.4,0.179086 0.4,0.4 v 3.2 c 0,0.220914 -0.17909,0.4 -0.4,0.4 h -3.2 c -0.22091,0 -0.4,0.179086 -0.4,0.4 v 3.2 c 0,0.220914 -0.17909,0.4 -0.4,0.4 h -7.2 c -0.22091,0 -0.4,0.179086 -0.4,0.4 V 64 h -3.6 c -0.22091,0 -0.4,0.179086 -0.4,0.4 v 3.2 c 0,0.220914 -0.179086,0.4 -0.4,0.4 z m -56,0 H 40 V 64.4 C 40,64.179086 40.179086,64 40.4,64 h 3.2 c 0.220914,0 0.4,0.179086 0.4,0.4 v 3.2 c 0,0.220914 -0.179086,0.4 -0.4,0.4 z m -16,0 H 24.4 C 24.179086,68 24,67.820914 24,67.6 V 60.4 C 24,60.179086 23.820914,60 23.6,60 H 20.4 C 20.179086,60 20,59.820914 20,59.6 V 56.4 C 20,56.179086 19.820914,56 19.6,56 H 16.4 C 16.179086,56 16,55.820914 16,55.6 V 48.4 C 16,48.179086 16.179086,48 16.4,48 h 7.2 c 0.220914,0 0.4,0.179086 0.4,0.4 v 3.2 c 0,0.220914 0.179086,0.4 0.4,0.4 H 28 v 7.6 c 0,0.220914 0.179086,0.4 0.4,0.4 h 3.2 C 31.820914,60 32,59.820914 32,59.6 V 52.4 C 32,52.179086 31.820914,52 31.6,52 H 28 V 48.4 C 28,48.179086 28.179086,48 28.4,48 h 7.2 c 0.220914,0 0.4,0.179086 0.4,0.4 v 3.2 c 0,0.220914 0.179086,0.4 0.4,0.4 H 40 v 4 H 36.4 C 36.179086,56 36,56.179086 36,56.4 v 7.2 C 36,63.820914 35.820914,64 35.6,64 H 28.4 C 28.179086,64 28,64.179086 28,64.4 v 3.2 c 0,0.220914 -0.179086,0.4 -0.4,0.4 z m 92,-4 h -3.2 c -0.22091,0 -0.4,-0.179086 -0.4,-0.4 v -3.2 c 0,-0.220914 0.17909,-0.4 0.4,-0.4 h 3.6 v 3.6 c 0,0.220914 -0.17909,0.4 -0.4,0.4 z m -32,0 H 84 V 60.4 C 84,60.179086 84.179086,60 84.4,60 h 3.2 c 0.220914,0 0.4,0.179086 0.4,0.4 V 64 Z m -12,0 H 72.4 C 72.179086,64 72,63.820914 72,63.6 V 60 h 4 v 3.6 c 0,0.220914 -0.179086,0.4 -0.4,0.4 z m 48,-4 H 120 v -7.6 c 0,-0.220914 0.17909,-0.4 0.4,-0.4 h 7.6 v 3.6 c 0,0.220914 -0.17909,0.4 -0.4,0.4 h -3.2 c -0.22091,0 -0.4,0.179086 -0.4,0.4 v 3.2 c 0,0.220914 -0.17909,0.4 -0.4,0.4 z m -44,0 H 76 v -8 h 4 v 7.6 c 0,0.220914 -0.179086,0.4 -0.4,0.4 z m -8,0 H 64.4 C 64.179086,60 64,59.820914 64,59.6 V 56.4 C 64,56.179086 64.179086,56 64.4,56 h 3.2 C 67.820914,56 68,55.820914 68,55.6 V 52.4 C 68,52.179086 67.820914,52 67.6,52 H 64.4 C 64.179086,52 64,51.820914 64,51.6 V 40 h 3.6 c 0.220914,0 0.4,0.179086 0.4,0.4 v 3.2 c 0,0.220914 0.179086,0.4 0.4,0.4 H 72 v 3.6 c 0,0.220914 0.179086,0.4 0.4,0.4 h 3.2 c 0.220914,0 0.4,0.179086 0.4,0.4 V 52 H 72.4 C 72.179086,52 72,52.179086 72,52.4 V 60 Z m -28,0 H 40.4 C 40.179086,60 40,59.820914 40,59.6 V 56 h 3.6 c 0.220914,0 0.4,0.179086 0.4,0.4 v 3.2 c 0,0.220914 -0.179086,0.4 -0.4,0.4 z m 52,-4 H 92.4 C 92.179086,56 92,55.820914 92,55.6 V 52.4 C 92,52.179086 91.820914,52 91.6,52 H 80 V 48.4 C 80,48.179086 80.179086,48 80.4,48 H 96 v 7.6 c 0,0.220914 -0.179086,0.4 -0.4,0.4 z m -36,0 H 56 v -4 h 3.6 c 0.220914,0 0.4,0.179086 0.4,0.4 v 3.2 c 0,0.220914 -0.179086,0.4 -0.4,0.4 z m 72,-4 H 128 v -3.6 c 0,-0.220914 0.17909,-0.4 0.4,-0.4 h 3.2 c 0.22091,0 0.4,0.179086 0.4,0.4 v 3.2 c 0,0.220914 -0.17909,0.4 -0.4,0.4 z m -24,0 h -3.2 c -0.22091,0 -0.4,-0.179086 -0.4,-0.4 v -3.2 c 0,-0.220914 0.17909,-0.4 0.4,-0.4 h 3.2 c 0.22091,0 0.4,0.179086 0.4,0.4 V 52 Z m -52,0 H 52.4 C 52.179086,52 52,51.820914 52,51.6 V 48.4 C 52,48.179086 51.820914,48 51.6,48 H 48.4 C 48.179086,48 48,47.820914 48,47.6 V 40.4 C 48,40.179086 48.179086,40 48.4,40 H 52 v 3.6 c 0,0.220914 0.179086,0.4 0.4,0.4 H 56 v 8 z m -12,0 H 40 V 48.4 C 40,48.179086 40.179086,48 40.4,48 h 3.2 c 0.220914,0 0.4,0.179086 0.4,0.4 v 3.2 c 0,0.220914 -0.179086,0.4 -0.4,0.4 z m 56,-4 H 96 V 36 h 3.6 c 0.220914,0 0.4,0.179086 0.4,0.4 v 11.2 c 0,0.220914 -0.179086,0.4 -0.4,0.4 z m 32,-4 H 104.4 C 104.17909,44 104,43.820914 104,43.6 V 16.4 c 0,-0.220914 0.17909,-0.4 0.4,-0.4 h 27.2 c 0.22091,0 0.4,0.179086 0.4,0.4 v 27.2 c 0,0.220914 -0.17909,0.4 -0.4,0.4 z m -40,0 H 88.4 C 88.179086,44 88,43.820914 88,43.6 V 40.4 C 88,40.179086 88.179086,40 88.4,40 h 3.2 c 0.220914,0 0.4,0.179086 0.4,0.4 v 3.2 c 0,0.220914 -0.179086,0.4 -0.4,0.4 z m -8,0 H 80.4 C 80.179086,44 80,43.820914 80,43.6 V 40.4 C 80,40.179086 80.179086,40 80.4,40 h 3.2 c 0.220914,0 0.4,0.179086 0.4,0.4 v 3.2 c 0,0.220914 -0.179086,0.4 -0.4,0.4 z m -8,0 H 72 V 40.4 C 72,40.179086 72.179086,40 72.4,40 h 3.2 c 0.220914,0 0.4,0.179086 0.4,0.4 v 3.2 c 0,0.220914 -0.179086,0.4 -0.4,0.4 z m -16,0 H 56 v -4 h 4 v 3.6 c 0,0.220914 -0.179086,0.4 -0.4,0.4 z m -16,0 H 16.4 C 16.179086,44 16,43.820914 16,43.6 V 16.4 C 16,16.179086 16.179086,16 16.4,16 h 27.2 c 0.220914,0 0.4,0.179086 0.4,0.4 V 43.6 C 44,43.820914 43.820914,44 43.6,44 Z M 128,39.6 V 20.4 c 0,-0.220914 -0.17909,-0.4 -0.4,-0.4 h -19.2 c -0.22091,0 -0.4,0.179086 -0.4,0.4 v 19.2 c 0,0.220914 0.17909,0.4 0.4,0.4 h 19.2 c 0.22091,0 0.4,-0.179086 0.4,-0.4 z M 63.6,40 H 60 V 36.4 C 60,36.179086 59.820914,36 59.6,36 H 56 v -8 h 3.6 C 59.820914,28 60,27.820914 60,27.6 V 20.4 C 60,20.179086 59.820914,20 59.6,20 H 48.4 C 48.179086,20 48,19.820914 48,19.6 V 16.4 C 48,16.179086 48.179086,16 48.4,16 h 15.2 c 0.220914,0 0.4,0.179086 0.4,0.4 v 3.2 c 0,0.220914 0.179086,0.4 0.4,0.4 h 3.2 c 0.220914,0 0.4,0.179086 0.4,0.4 V 24 H 64.4 C 64.179086,24 64,24.179086 64,24.4 v 7.2 c 0,0.220914 0.179086,0.4 0.4,0.4 h 3.2 C 67.820914,32 68,31.820914 68,31.6 V 24 h 3.6 C 71.820914,24 72,23.820914 72,23.6 V 16.4 C 72,16.179086 72.179086,16 72.4,16 h 3.2 c 0.220914,0 0.4,0.179086 0.4,0.4 V 28 H 72.4 C 72.179086,28 72,28.179086 72,28.4 v 7.2 C 72,35.820914 71.820914,36 71.6,36 H 64.4 C 64.179086,36 64,36.179086 64,36.4 V 40 Z m -8,0 H 52 V 36.4 C 52,36.179086 52.179086,36 52.4,36 H 56 v 4 z M 40,39.6 V 20.4 C 40,20.179086 39.820914,20 39.6,20 H 20.4 C 20.179086,20 20,20.179086 20,20.4 v 19.2 c 0,0.220914 0.179086,0.4 0.4,0.4 H 39.6 C 39.820914,40 40,39.820914 40,39.6 Z M 123.6,36 H 112.4 C 112.17909,36 112,35.820914 112,35.6 V 24.4 c 0,-0.220914 0.17909,-0.4 0.4,-0.4 h 11.2 c 0.22091,0 0.4,0.179086 0.4,0.4 v 11.2 c 0,0.220914 -0.17909,0.4 -0.4,0.4 z m -28,0 H 88.4 C 88.179086,36 88,35.820914 88,35.6 V 32 h 7.6 c 0.220914,0 0.4,0.179086 0.4,0.4 V 36 Z m -12,0 H 80.4 C 80.179086,36 80,35.820914 80,35.6 V 32.4 C 80,32.179086 79.820914,32 79.6,32 H 76.4 C 76.179086,32 76,31.820914 76,31.6 V 28 h 12 v 4 H 84.4 C 84.179086,32 84,32.179086 84,32.4 v 3.2 c 0,0.220914 -0.179086,0.4 -0.4,0.4 z m -48,0 H 24.4 C 24.179086,36 24,35.820914 24,35.6 V 24.4 C 24,24.179086 24.179086,24 24.4,24 h 11.2 c 0.220914,0 0.4,0.179086 0.4,0.4 v 11.2 c 0,0.220914 -0.179086,0.4 -0.4,0.4 z m 64,-8 H 88 V 24.4 C 88,24.179086 87.820914,24 87.6,24 H 84.4 C 84.179086,24 84,23.820914 84,23.6 V 16.4 C 84,16.179086 84.179086,16 84.4,16 h 3.2 c 0.220914,0 0.4,0.179086 0.4,0.4 v 3.2 c 0,0.220914 0.179086,0.4 0.4,0.4 h 11.2 c 0.220914,0 0.4,0.179086 0.4,0.4 v 7.2 c 0,0.220914 -0.179086,0.4 -0.4,0.4 z m -44,0 H 52.4 C 52.179086,28 52,27.820914 52,27.6 V 24.4 C 52,24.179086 52.179086,24 52.4,24 h 3.2 c 0.220914,0 0.4,0.179086 0.4,0.4 V 28 Z"
             id="path2467" />
        </g>
      </g>
    </g>
    <use
       height="100%"
       width="100%"
       transform="translate(101.6)"
       id="use1916"
       xlink:href="#g1914"
       y="0"
       x="0" />
    <use
       x="0"
       y="0"
       xlink:href="#g1914"
       id="use1916-2"
       transform="translate(0,63.499998)"
       width="100%"
       height="100%" />
    <use
       x="0"
       y="0"
       xlink:href="#g1914"
       id="use1916-9"
       transform="translate(101.6,63.499998)"
       width="100%"
       height="100%" />
    <use
       x="0"
       y="0"
       xlink:href="#g1914"
       id="use1916-1"
       transform="translate(0,127)"
       width="100%"
       height="100%" />
    <use
       x="0"
       y="0"
       xlink:href="#g1914"
       id="use1916-27"
       transform="translate(101.6,127)"
       width="100%"
       height="100%" />
    <use
       x="0"
       y="0"
       xlink:href="#g1914"
       id="use1916-0"
       transform="translate(0,190.5)"
       width="100%"
       height="100%" />
    <use
       x="0"
       y="0"
       xlink:href="#g1914"
       id="use1916-93"
       transform="translate(101.6,190.5)"
       width="100%"
       height="100%" />
  </g>
</svg>
